M48
;Layer_Color=9474304
;FILE_FORMAT=2:5
INCH,LZ
;TYPE=PLATED
T1F00S00C0.02756
T2F00S00C0.02800
T3F00S00C0.03150
T4F00S00C0.03200
T5F00S00C0.03543
T6F00S00C0.04000
T7F00S00C0.05906
%
T01
X0068Y0203
X0083
Y0213
X0068
T02
X01725Y01977
X0054582Y0323418
X0072626Y0309478
X01297Y03101
X01435Y03168
X01436Y03358
X01477Y0288
X013882Y025602
X01386Y0244
X0167Y0254969
X0169Y02641
X01815Y02594
X01875Y0233
X01996Y02783
X03021Y0227
T03
X0049Y023
Y0235
Y024
T04
X0099Y0103
Y0113
Y0123
Y0133
Y0143
Y0153
Y0163
Y0173
Y0183
Y0193
Y0203
X0129
Y0193
Y0183
Y0173
Y0163
Y0153
Y0143
Y0133
Y0123
Y0113
Y0103
Y0213
Y0223
Y0233
X0099
Y0223
Y0213
T05
X028263Y010778
X029263
X030263
X029763Y011528
X028763
X0245Y0186
Y0196
X0049Y0285
Y0295
Y0317
Y0327
Y0349
Y0359
X009Y0328
Y0318
X0157Y0323
Y0333
Y0343
Y0353
Y0363
X0167
Y0353
Y0343
Y0333
Y0323
Y0313
X0157
Y0303
X0167
X0289213Y026028
X0299213
X0304213Y025278
X0294213
X0284213
T06
X0106Y0059
X0116
X0126
Y0069
X0116
X0106
T07
X0268417Y0154
Y0166205
Y0178409
X0307
Y0166205
Y0154
X0308583Y0299
Y0311205
Y0323409
X027
Y0311205
Y0299
M30
