G04*
G04 #@! TF.GenerationSoftware,Altium Limited,Altium Designer,20.0.10 (225)*
G04*
G04 Layer_Color=255*
%FSLAX24Y24*%
%MOIN*%
G70*
G01*
G75*
%ADD12C,0.0100*%
%ADD39R,0.0591X0.0591*%
%ADD40C,0.0591*%
%ADD41C,0.0472*%
%ADD42P,0.0801X8X22.5*%
%ADD43C,0.0630*%
%ADD44C,0.0551*%
%ADD45O,0.0787X0.0394*%
%ADD46O,0.0787X0.0394*%
%ADD47O,0.1040X0.0520*%
%ADD48R,0.0591X0.0591*%
%ADD50R,0.0551X0.0551*%
D12*
X0Y0D02*
Y40000D01*
X31500D01*
X31500Y0D01*
X0D02*
X31500D01*
D39*
X3200Y10300D02*
D03*
X1500D02*
D03*
X28250Y5006D02*
D03*
X26500D02*
D03*
X22950Y18300D02*
D03*
X23750Y5006D02*
D03*
X16250Y2250D02*
D03*
X11083D02*
D03*
X13667D02*
D03*
X8500D02*
D03*
D40*
X3200Y11300D02*
D03*
X1500D02*
D03*
X28250Y2006D02*
D03*
Y3006D02*
D03*
Y4006D02*
D03*
X26500Y2006D02*
D03*
Y3006D02*
D03*
Y4006D02*
D03*
X1400Y23200D02*
D03*
X2400D02*
D03*
X3400D02*
D03*
X24642Y37313D02*
D03*
Y36093D02*
D03*
Y34872D02*
D03*
X28500D02*
D03*
Y36093D02*
D03*
Y37313D02*
D03*
X24892Y20813D02*
D03*
Y19593D02*
D03*
Y18372D02*
D03*
X28750D02*
D03*
Y19593D02*
D03*
Y20813D02*
D03*
X22950Y19300D02*
D03*
X24750Y2006D02*
D03*
X23750D02*
D03*
X24750Y3006D02*
D03*
X23750D02*
D03*
X24750Y4006D02*
D03*
X23750D02*
D03*
X24750Y5006D02*
D03*
X15250Y5250D02*
D03*
X16250D02*
D03*
X15250Y4250D02*
D03*
X16250D02*
D03*
X15250Y3250D02*
D03*
X16250D02*
D03*
X15250Y2250D02*
D03*
X10083Y5250D02*
D03*
X11083D02*
D03*
X10083Y4250D02*
D03*
X11083D02*
D03*
X10083Y3250D02*
D03*
X11083D02*
D03*
X10083Y2250D02*
D03*
X12667Y5250D02*
D03*
X13667D02*
D03*
X12667Y4250D02*
D03*
X13667D02*
D03*
X12667Y3250D02*
D03*
X13667D02*
D03*
X12667Y2250D02*
D03*
X7500Y5250D02*
D03*
X8500D02*
D03*
X7500Y4250D02*
D03*
X8500D02*
D03*
X7500Y3250D02*
D03*
X8500D02*
D03*
X7500Y2250D02*
D03*
D41*
X13300Y32800D02*
D03*
Y33800D02*
D03*
X9200Y32800D02*
D03*
Y33800D02*
D03*
X13250Y11000D02*
D03*
Y10000D02*
D03*
X1400Y20100D02*
D03*
Y19100D02*
D03*
X3100Y20100D02*
D03*
Y19100D02*
D03*
X4700Y20100D02*
D03*
Y19100D02*
D03*
X28524Y26750D02*
D03*
Y27750D02*
D03*
Y10500D02*
D03*
Y11500D02*
D03*
X24524Y28250D02*
D03*
X25524D02*
D03*
X24524Y26750D02*
D03*
X25524D02*
D03*
X24837Y12000D02*
D03*
X25837D02*
D03*
X24837Y10500D02*
D03*
X25837D02*
D03*
X17350Y11750D02*
D03*
X18350D02*
D03*
X17350Y25750D02*
D03*
X18350D02*
D03*
D42*
X1300Y14500D02*
D03*
Y15500D02*
D03*
X2300Y14500D02*
D03*
Y15500D02*
D03*
X3300Y14500D02*
D03*
Y15500D02*
D03*
D43*
X5500Y32900D02*
D03*
X6500D02*
D03*
X2400Y33000D02*
D03*
X3400D02*
D03*
X5500Y27300D02*
D03*
X6500D02*
D03*
X2400D02*
D03*
X3400D02*
D03*
D44*
X4500Y35300D02*
D03*
Y31300D02*
D03*
X14300Y25400D02*
D03*
Y29400D02*
D03*
X12850Y25400D02*
D03*
Y29400D02*
D03*
X20100Y28500D02*
D03*
Y32500D02*
D03*
X21200Y28500D02*
D03*
Y32500D02*
D03*
X11400Y25400D02*
D03*
Y29400D02*
D03*
X1250Y31300D02*
D03*
Y35300D02*
D03*
X4500Y25700D02*
D03*
Y29700D02*
D03*
X1300Y25700D02*
D03*
Y29700D02*
D03*
X27563Y31000D02*
D03*
X26563D02*
D03*
X27063Y30250D02*
D03*
X28063D02*
D03*
X27813Y14500D02*
D03*
X26813D02*
D03*
X27313Y13750D02*
D03*
X28313D02*
D03*
X23837Y24750D02*
D03*
X27837D02*
D03*
X24774Y8166D02*
D03*
X28774D02*
D03*
X18850Y14250D02*
D03*
Y18250D02*
D03*
X20450D02*
D03*
Y14250D02*
D03*
X18850Y23300D02*
D03*
Y19300D02*
D03*
X20450D02*
D03*
Y23300D02*
D03*
X17150Y18250D02*
D03*
Y14250D02*
D03*
Y19300D02*
D03*
Y23300D02*
D03*
D45*
X18200Y29900D02*
D03*
D46*
Y29400D02*
D03*
Y28900D02*
D03*
D47*
X11000Y22000D02*
D03*
Y21000D02*
D03*
Y20000D02*
D03*
Y19000D02*
D03*
Y18000D02*
D03*
Y17000D02*
D03*
Y16000D02*
D03*
Y15000D02*
D03*
Y14000D02*
D03*
Y13000D02*
D03*
Y12000D02*
D03*
Y11000D02*
D03*
Y10000D02*
D03*
Y9000D02*
D03*
X8000D02*
D03*
Y10000D02*
D03*
Y11000D02*
D03*
Y12000D02*
D03*
Y13000D02*
D03*
Y14000D02*
D03*
Y15000D02*
D03*
Y16000D02*
D03*
Y17000D02*
D03*
Y18000D02*
D03*
Y19000D02*
D03*
Y20000D02*
D03*
Y21000D02*
D03*
Y22000D02*
D03*
D48*
X4400Y23200D02*
D03*
D50*
X26063Y30250D02*
D03*
X26313Y13750D02*
D03*
M02*
