G04*
G04 #@! TF.GenerationSoftware,Altium Limited,Altium Designer,19.0.10 (269)*
G04*
G04 Layer_Physical_Order=1*
G04 Layer_Color=255*
%FSLAX24Y24*%
%MOIN*%
G70*
G01*
G75*
%ADD12C,0.0100*%
%ADD20O,0.0551X0.0177*%
G04:AMPARAMS|DCode=21|XSize=57mil|YSize=45mil|CornerRadius=11.3mil|HoleSize=0mil|Usage=FLASHONLY|Rotation=180.000|XOffset=0mil|YOffset=0mil|HoleType=Round|Shape=RoundedRectangle|*
%AMROUNDEDRECTD21*
21,1,0.0570,0.0225,0,0,180.0*
21,1,0.0345,0.0450,0,0,180.0*
1,1,0.0225,-0.0173,0.0113*
1,1,0.0225,0.0173,0.0113*
1,1,0.0225,0.0173,-0.0113*
1,1,0.0225,-0.0173,-0.0113*
%
%ADD21ROUNDEDRECTD21*%
%ADD22R,0.0571X0.0236*%
%ADD23R,0.0280X0.0670*%
%ADD24R,0.0394X0.0394*%
%ADD25R,0.0354X0.0276*%
%ADD26R,0.0591X0.0551*%
%ADD27R,0.0197X0.0236*%
%ADD28R,0.0236X0.0197*%
%ADD29R,0.0551X0.0591*%
%ADD50C,0.0250*%
%ADD51C,0.0472*%
%ADD52R,0.0551X0.0551*%
%ADD53C,0.0551*%
%ADD54O,0.1079X0.0827*%
%ADD55R,0.0591X0.0591*%
%ADD56C,0.0591*%
%ADD57O,0.0787X0.0394*%
%ADD58O,0.0787X0.0394*%
%ADD59P,0.0801X8X202.5*%
%ADD60O,0.1040X0.0520*%
%ADD61C,0.0500*%
G36*
X32600Y4600D02*
X3200D01*
X3200Y37600D01*
X32600D01*
X32600Y4600D01*
D02*
G37*
%LPC*%
G36*
X4950Y36292D02*
Y35950D01*
X5292D01*
X5285Y36003D01*
X5245Y36099D01*
X5182Y36182D01*
X5099Y36245D01*
X5003Y36285D01*
X4950Y36292D01*
D02*
G37*
G36*
X4850D02*
X4797Y36285D01*
X4701Y36245D01*
X4618Y36182D01*
X4555Y36099D01*
X4515Y36003D01*
X4508Y35950D01*
X4850D01*
Y36292D01*
D02*
G37*
G36*
X16150Y36903D02*
X14060D01*
X14001Y36891D01*
X13952Y36858D01*
X13617Y36523D01*
X13584Y36473D01*
X13572Y36415D01*
Y28975D01*
X13522Y28954D01*
X13123Y29353D01*
Y30695D01*
X13147Y30704D01*
X13220Y30760D01*
X13276Y30833D01*
X13311Y30919D01*
X13323Y31010D01*
X13311Y31101D01*
X13276Y31187D01*
X13220Y31260D01*
X13147Y31316D01*
X13061Y31351D01*
X12970Y31363D01*
X12879Y31351D01*
X12793Y31316D01*
X12720Y31260D01*
X12664Y31187D01*
X12629Y31101D01*
X12617Y31010D01*
X12629Y30919D01*
X12664Y30833D01*
X12720Y30760D01*
X12793Y30704D01*
X12817Y30695D01*
Y29290D01*
X12822Y29265D01*
X12776Y29240D01*
X9366Y32650D01*
X9385Y32697D01*
X9392Y32750D01*
X9000D01*
X8608D01*
X8615Y32697D01*
X8634Y32650D01*
X8063Y32079D01*
X7648D01*
Y32144D01*
X7313D01*
Y31926D01*
X7263D01*
Y31876D01*
X6877D01*
Y31708D01*
X7110D01*
Y31263D01*
X7086Y31254D01*
X7013Y31197D01*
X6957Y31124D01*
X6922Y31039D01*
X6916Y30998D01*
X7609D01*
X7604Y31039D01*
X7568Y31124D01*
X7512Y31197D01*
X7439Y31254D01*
X7416Y31263D01*
Y31708D01*
X7648D01*
Y31773D01*
X8126D01*
X8185Y31785D01*
X8234Y31818D01*
X8559Y32142D01*
X8605Y32123D01*
Y31405D01*
X9395D01*
Y32123D01*
X9441Y32142D01*
X13357Y28227D01*
Y28136D01*
X13307Y28103D01*
X13247Y28115D01*
X12902D01*
X12819Y28098D01*
X12749Y28052D01*
X12702Y27981D01*
X12694Y27939D01*
X10302D01*
X10294Y27981D01*
X10247Y28052D01*
X10177Y28098D01*
X10094Y28115D01*
X9749D01*
X9666Y28098D01*
X9596Y28052D01*
X9549Y27981D01*
X9540Y27939D01*
X9452D01*
X9394Y27927D01*
X9344Y27894D01*
X8845Y27395D01*
X8795Y27416D01*
Y27569D01*
X8005D01*
Y26818D01*
X8005D01*
Y26782D01*
X8005D01*
Y26636D01*
X7089D01*
X5295Y28429D01*
Y28895D01*
X4829D01*
X3829Y29895D01*
Y30805D01*
X4325Y31300D01*
X4730D01*
X4752Y31305D01*
X5295D01*
Y31471D01*
X5584D01*
X5672Y31488D01*
X5746Y31538D01*
X6279Y32071D01*
X6337D01*
X6394Y32082D01*
X6723D01*
Y32518D01*
X6394D01*
X6337Y32529D01*
X6184D01*
X6127Y32518D01*
X5952D01*
Y32393D01*
X5856Y32296D01*
X5808Y32320D01*
X5811Y32342D01*
X5799Y32433D01*
X5764Y32518D01*
X5708Y32591D01*
X5635Y32648D01*
X5550Y32683D01*
X5508Y32688D01*
Y32342D01*
X5408D01*
Y32688D01*
X5367Y32683D01*
X5339Y32671D01*
X5298Y32708D01*
X5285Y32803D01*
X5245Y32899D01*
X5182Y32982D01*
X5099Y33045D01*
X5003Y33085D01*
X4950Y33092D01*
Y32700D01*
Y32308D01*
X5003Y32315D01*
X5050Y32334D01*
X5115Y32269D01*
X5117Y32250D01*
X5153Y32165D01*
X5172Y32140D01*
X5150Y32095D01*
X4505D01*
Y31759D01*
X4230D01*
X4142Y31742D01*
X4068Y31692D01*
X3438Y31062D01*
X3388Y30988D01*
X3371Y30900D01*
Y29800D01*
X3388Y29712D01*
X3438Y29638D01*
X4505Y28571D01*
Y28105D01*
X4971D01*
X6831Y26244D01*
X6906Y26194D01*
X6994Y26177D01*
X8005D01*
Y26031D01*
X8247D01*
Y23970D01*
X8252Y23945D01*
X8214Y23895D01*
X7612D01*
Y23895D01*
X7576D01*
Y23895D01*
X6824D01*
Y23653D01*
X5354D01*
X5309Y23712D01*
X5291Y23725D01*
Y23775D01*
X5309Y23788D01*
X5356Y23850D01*
X5386Y23923D01*
X5396Y24000D01*
X5386Y24077D01*
X5356Y24150D01*
X5309Y24212D01*
X5247Y24259D01*
X5174Y24289D01*
X5097Y24299D01*
X4703D01*
X4626Y24289D01*
X4553Y24259D01*
X4491Y24212D01*
X4444Y24150D01*
X4414Y24077D01*
X4404Y24000D01*
X4414Y23923D01*
X4444Y23850D01*
X4491Y23788D01*
X4509Y23775D01*
Y23725D01*
X4491Y23712D01*
X4444Y23650D01*
X4414Y23577D01*
X4404Y23500D01*
X4414Y23423D01*
X4444Y23350D01*
X4491Y23288D01*
X4509Y23275D01*
Y23225D01*
X4491Y23212D01*
X4444Y23150D01*
X4414Y23077D01*
X4410Y23050D01*
X4900D01*
Y23000D01*
X4950D01*
Y22701D01*
X5097D01*
X5174Y22711D01*
X5202Y22722D01*
X5244Y22695D01*
Y21414D01*
X5194Y21378D01*
X5167Y21383D01*
X4800D01*
X4741Y21371D01*
X4692Y21338D01*
X4292Y20938D01*
X4259Y20889D01*
X4247Y20830D01*
Y20550D01*
X4259Y20491D01*
X4292Y20442D01*
X5247Y19487D01*
Y18695D01*
X5038D01*
X5024Y18695D01*
X4988D01*
X4974Y18695D01*
X4237D01*
Y17905D01*
X4496D01*
X4504Y17892D01*
X4864Y17532D01*
X4914Y17499D01*
X4973Y17487D01*
X6240D01*
X6299Y17499D01*
X6348Y17532D01*
X6819Y18003D01*
X7197D01*
Y18597D01*
X6603D01*
Y18219D01*
X6177Y17793D01*
X5036D01*
X4969Y17859D01*
X4988Y17905D01*
X5024D01*
X5038Y17905D01*
X5350D01*
Y18300D01*
X5400D01*
Y18350D01*
X5776D01*
Y18695D01*
X5553D01*
Y19550D01*
X5541Y19609D01*
X5508Y19658D01*
X4553Y20613D01*
Y20767D01*
X4735Y20949D01*
X4785Y20928D01*
Y20857D01*
X4774Y20800D01*
X4785Y20743D01*
Y20602D01*
X4826D01*
X4833Y20565D01*
X4842Y20521D01*
X4842Y20521D01*
X4842Y20521D01*
X4871Y20477D01*
X4892Y20446D01*
X5200Y20138D01*
X5200Y20138D01*
X5200Y20138D01*
X5246Y20107D01*
X5274Y20088D01*
X5274D01*
X5274Y20088D01*
X5324Y20078D01*
X5362Y20071D01*
X5362Y20071D01*
X5362Y20071D01*
X6552D01*
X6560Y20060D01*
X6630Y20006D01*
X6712Y19972D01*
X6800Y19961D01*
X6888Y19972D01*
X6970Y20006D01*
X7040Y20060D01*
X7048Y20071D01*
X8052D01*
X8060Y20060D01*
X8130Y20006D01*
X8212Y19972D01*
X8300Y19961D01*
X8388Y19972D01*
X8470Y20006D01*
X8540Y20060D01*
X8548Y20071D01*
X9362D01*
X9383Y20043D01*
X9386Y20002D01*
X9082Y19698D01*
X9049Y19649D01*
X9037Y19590D01*
Y19010D01*
X9049Y18951D01*
X9082Y18902D01*
X9386Y18598D01*
X9383Y18557D01*
X9362Y18529D01*
X7866D01*
Y18597D01*
X7272D01*
Y18003D01*
X7866D01*
Y18071D01*
X9362D01*
X9383Y18043D01*
X9458Y17986D01*
X9546Y17949D01*
X9640Y17937D01*
X10160D01*
X10254Y17949D01*
X10342Y17986D01*
X10417Y18043D01*
X10474Y18118D01*
X10486Y18147D01*
X10737D01*
X11247Y17637D01*
Y13900D01*
X11259Y13841D01*
X11292Y13792D01*
X11892Y13192D01*
X11941Y13159D01*
X12000Y13147D01*
X12314D01*
X12326Y13118D01*
X12345Y13093D01*
X12320Y13043D01*
X11870D01*
X11811Y13031D01*
X11762Y12998D01*
X10492Y11728D01*
X10459Y11679D01*
X10447Y11620D01*
Y11597D01*
X10397Y11572D01*
X10342Y11614D01*
X10254Y11651D01*
X10160Y11663D01*
X10053D01*
Y11937D01*
X10160D01*
X10254Y11949D01*
X10342Y11986D01*
X10417Y12043D01*
X10474Y12118D01*
X10511Y12206D01*
X10517Y12250D01*
X9283D01*
X9289Y12206D01*
X9326Y12118D01*
X9383Y12043D01*
X9458Y11986D01*
X9546Y11949D01*
X9640Y11937D01*
X9747D01*
Y11663D01*
X9640D01*
X9546Y11651D01*
X9458Y11614D01*
X9383Y11557D01*
X9326Y11482D01*
X9289Y11394D01*
X9283Y11350D01*
X9900D01*
Y11250D01*
X9283D01*
X9289Y11206D01*
X9326Y11118D01*
X9383Y11043D01*
X9458Y10986D01*
X9546Y10949D01*
X9640Y10937D01*
X9747D01*
Y10663D01*
X9640D01*
X9546Y10651D01*
X9458Y10614D01*
X9383Y10557D01*
X9326Y10482D01*
X9289Y10394D01*
X9283Y10350D01*
X9900D01*
Y10250D01*
X9283D01*
X9289Y10206D01*
X9326Y10118D01*
X9383Y10043D01*
X9458Y9986D01*
X9546Y9949D01*
X9640Y9937D01*
X9747D01*
Y6820D01*
X9759Y6761D01*
X9792Y6712D01*
X10249Y6254D01*
X10130Y6135D01*
Y5950D01*
X10600D01*
X11070D01*
Y6135D01*
X10835Y6370D01*
X10601D01*
X10594Y6380D01*
X10621Y6430D01*
X10835D01*
X11070Y6665D01*
Y7135D01*
X10835Y7370D01*
X10753D01*
Y11557D01*
X11933Y12737D01*
X13460D01*
X13519Y12749D01*
X13568Y12782D01*
X13678Y12892D01*
X13711Y12941D01*
X13723Y13000D01*
Y13600D01*
X13711Y13659D01*
X13678Y13708D01*
X13478Y13908D01*
X13429Y13941D01*
X13379Y13951D01*
X13367Y13976D01*
X13364Y14003D01*
X13417Y14043D01*
X13474Y14118D01*
X13511Y14206D01*
X13517Y14250D01*
X12283D01*
X12289Y14206D01*
X12326Y14118D01*
X12383Y14043D01*
X12436Y14003D01*
X12419Y13953D01*
X12063D01*
X11953Y14063D01*
Y23380D01*
X11941Y23439D01*
X11908Y23488D01*
X9757Y25639D01*
X9778Y25689D01*
X9871D01*
Y25968D01*
X9532D01*
Y25935D01*
X9482Y25914D01*
X9003Y26393D01*
Y27044D01*
X8991Y27102D01*
X8989Y27106D01*
X9494Y27611D01*
X9548Y27594D01*
X9549Y27590D01*
X9596Y27520D01*
X9666Y27473D01*
X9749Y27457D01*
X10094D01*
X10177Y27473D01*
X10247Y27520D01*
X10294Y27590D01*
X10302Y27633D01*
X12694D01*
X12702Y27590D01*
X12749Y27520D01*
X12819Y27473D01*
X12902Y27457D01*
X13247D01*
X13307Y27469D01*
X13357Y27436D01*
Y27263D01*
X12265Y26171D01*
X10302D01*
X10294Y26214D01*
X10247Y26284D01*
X10177Y26331D01*
X10094Y26347D01*
X9971D01*
Y26018D01*
Y25689D01*
X10094D01*
X10177Y25705D01*
X10247Y25752D01*
X10294Y25823D01*
X10302Y25865D01*
X12214D01*
X12233Y25819D01*
X12122Y25708D01*
X12089Y25659D01*
X12077Y25600D01*
Y17400D01*
X12089Y17341D01*
X12122Y17292D01*
X12222Y17192D01*
X12271Y17159D01*
X12312Y17151D01*
X12326Y17118D01*
X12383Y17043D01*
X12458Y16986D01*
X12546Y16949D01*
X12640Y16937D01*
X12747D01*
Y16663D01*
X12640D01*
X12546Y16651D01*
X12458Y16614D01*
X12383Y16557D01*
X12326Y16482D01*
X12289Y16394D01*
X12283Y16350D01*
X13517D01*
X13511Y16394D01*
X13474Y16482D01*
X13417Y16557D01*
X13342Y16614D01*
X13254Y16651D01*
X13160Y16663D01*
X13053D01*
Y16937D01*
X13160D01*
X13254Y16949D01*
X13342Y16986D01*
X13417Y17043D01*
X13474Y17118D01*
X13486Y17147D01*
X15000D01*
X15008Y17149D01*
X15047Y17117D01*
Y16697D01*
X15059Y16638D01*
X15092Y16589D01*
X15344Y16337D01*
Y15498D01*
X14885D01*
Y15453D01*
X13486D01*
X13474Y15482D01*
X13417Y15557D01*
X13342Y15614D01*
X13254Y15651D01*
X13160Y15663D01*
X12640D01*
X12546Y15651D01*
X12532Y15645D01*
X12504Y15687D01*
X12753Y15937D01*
X12850D01*
Y16250D01*
X12283D01*
X12289Y16206D01*
X12326Y16118D01*
X12383Y16043D01*
X12386Y16002D01*
X12082Y15698D01*
X12049Y15649D01*
X12037Y15590D01*
Y15010D01*
X12049Y14951D01*
X12082Y14902D01*
X12386Y14598D01*
X12383Y14557D01*
X12326Y14482D01*
X12289Y14394D01*
X12283Y14350D01*
X12850D01*
Y14663D01*
X12753D01*
X12504Y14913D01*
X12532Y14955D01*
X12546Y14949D01*
X12640Y14937D01*
X13160D01*
X13254Y14949D01*
X13342Y14986D01*
X13417Y15043D01*
X13474Y15118D01*
X13486Y15147D01*
X14885D01*
Y15102D01*
X15447D01*
Y15300D01*
X15497D01*
Y15350D01*
X15715D01*
Y15498D01*
X15650D01*
Y16400D01*
X15638Y16459D01*
X15605Y16508D01*
X15353Y16760D01*
Y17500D01*
Y17588D01*
X15398D01*
Y17653D01*
X15907D01*
X16456Y17104D01*
X16505Y17071D01*
X16564Y17060D01*
X18723D01*
Y16837D01*
X18965D01*
Y12747D01*
X18815Y12597D01*
X18785D01*
Y12350D01*
X19032D01*
Y12381D01*
X19226Y12575D01*
X19259Y12625D01*
X19271Y12683D01*
Y16837D01*
X19513D01*
Y17163D01*
X19118D01*
Y17263D01*
X19513D01*
Y17588D01*
X19513D01*
Y17624D01*
X19513D01*
Y17810D01*
X19563Y17830D01*
X20289Y17104D01*
X20339Y17071D01*
X20397Y17060D01*
X20505D01*
Y16837D01*
X21295D01*
Y17574D01*
X21295Y17588D01*
Y17624D01*
X21295Y17638D01*
Y17771D01*
X23900D01*
X23988Y17788D01*
X24062Y17838D01*
X24434Y18210D01*
X24500Y18201D01*
X24603Y18215D01*
X24699Y18255D01*
X24782Y18318D01*
X24845Y18401D01*
X24885Y18497D01*
X24899Y18600D01*
X24885Y18703D01*
X24845Y18799D01*
X24782Y18882D01*
X24699Y18945D01*
X24603Y18985D01*
X24500Y18999D01*
X24397Y18985D01*
X24301Y18945D01*
X24218Y18882D01*
X24155Y18799D01*
X24115Y18703D01*
X24101Y18600D01*
X24110Y18534D01*
X23805Y18229D01*
X21295D01*
Y18376D01*
X20505D01*
Y17638D01*
X20505Y17624D01*
Y17588D01*
X20505Y17574D01*
Y17380D01*
X20455Y17372D01*
X19718Y18108D01*
X19669Y18141D01*
X19610Y18153D01*
X19513D01*
Y18376D01*
X18723D01*
Y18153D01*
X18281D01*
X18222Y18141D01*
X18172Y18108D01*
X17827Y17762D01*
X17637D01*
X17631Y17771D01*
X17619Y17812D01*
X19226Y19420D01*
X19259Y19470D01*
X19271Y19528D01*
Y19937D01*
X19513D01*
Y20263D01*
X19118D01*
X18723D01*
Y19937D01*
X18965D01*
Y19591D01*
X17589Y18215D01*
X17543Y18235D01*
Y18830D01*
X17531Y18889D01*
X17498Y18938D01*
X15422Y21014D01*
X15398Y21030D01*
Y21147D01*
X15476D01*
X16022Y20601D01*
X16071Y20568D01*
X16130Y20556D01*
X16783D01*
Y20472D01*
X17097D01*
Y20085D01*
X17073Y20076D01*
X17000Y20020D01*
X16944Y19947D01*
X16909Y19861D01*
X16897Y19770D01*
X16909Y19679D01*
X16944Y19593D01*
X17000Y19520D01*
X17073Y19464D01*
X17159Y19429D01*
X17250Y19417D01*
X17341Y19429D01*
X17427Y19464D01*
X17500Y19520D01*
X17556Y19593D01*
X17591Y19679D01*
X17603Y19770D01*
X17591Y19861D01*
X17556Y19947D01*
X17500Y20020D01*
X17427Y20076D01*
X17403Y20085D01*
Y20709D01*
X17391Y20768D01*
X17358Y20818D01*
X17338Y20831D01*
Y20947D01*
X16783D01*
Y20862D01*
X16193D01*
X15648Y21408D01*
X15598Y21441D01*
X15539Y21453D01*
X15398D01*
Y21518D01*
X15103D01*
Y21937D01*
X15413Y22247D01*
X16030D01*
X16089Y22259D01*
X16138Y22292D01*
X18551Y24705D01*
X18597Y24685D01*
Y23615D01*
X18573Y23606D01*
X18500Y23550D01*
X18444Y23477D01*
X18409Y23391D01*
X18397Y23300D01*
X18409Y23209D01*
X18444Y23123D01*
X18500Y23050D01*
X18573Y22994D01*
X18659Y22959D01*
X18750Y22947D01*
X18841Y22959D01*
X18927Y22994D01*
X19000Y23050D01*
X19056Y23123D01*
X19091Y23209D01*
X19103Y23300D01*
X19091Y23391D01*
X19056Y23477D01*
X19000Y23550D01*
X18927Y23606D01*
X18903Y23615D01*
Y26830D01*
X18953Y26851D01*
X22512Y23292D01*
X22561Y23259D01*
X22620Y23247D01*
X28075D01*
X28095Y23201D01*
X26042Y21148D01*
X26009Y21099D01*
X25997Y21040D01*
Y17480D01*
X26009Y17421D01*
X26042Y17372D01*
X26292Y17122D01*
X26341Y17089D01*
X26388Y17079D01*
X26401Y17048D01*
X26402Y17027D01*
X26350Y16987D01*
X26267Y16879D01*
X26216Y16754D01*
X26198Y16620D01*
X26216Y16486D01*
X26267Y16362D01*
X26350Y16254D01*
X26457Y16172D01*
X26582Y16120D01*
X26716Y16103D01*
X26968D01*
X27102Y16120D01*
X27227Y16172D01*
X27334Y16254D01*
X27416Y16362D01*
X27468Y16486D01*
X27486Y16620D01*
X27468Y16754D01*
X27416Y16879D01*
X27334Y16987D01*
X27281Y17027D01*
X27298Y17077D01*
X28110D01*
Y11154D01*
X27887D01*
Y10941D01*
X27837Y10914D01*
X27829Y10919D01*
X27771Y10931D01*
X26940D01*
Y14813D01*
X26936Y14832D01*
X26962Y14873D01*
X26976Y14883D01*
X27102Y14900D01*
X27227Y14952D01*
X27334Y15034D01*
X27416Y15141D01*
X27468Y15266D01*
X27486Y15400D01*
X27468Y15534D01*
X27416Y15659D01*
X27334Y15766D01*
X27227Y15848D01*
X27102Y15900D01*
X26968Y15918D01*
X26716D01*
X26582Y15900D01*
X26457Y15848D01*
X26350Y15766D01*
X26267Y15659D01*
X26216Y15534D01*
X26198Y15400D01*
X26216Y15266D01*
X26267Y15141D01*
X26350Y15034D01*
X26457Y14952D01*
X26582Y14900D01*
X26606Y14897D01*
X26639Y14842D01*
X26634Y14813D01*
Y10778D01*
X26645Y10719D01*
X26678Y10670D01*
X26728Y10637D01*
X26787Y10625D01*
X27771D01*
X27829Y10637D01*
X27837Y10642D01*
X27887Y10615D01*
Y10402D01*
X28110D01*
Y9903D01*
X28122Y9845D01*
X28155Y9795D01*
X28253Y9697D01*
Y9098D01*
X28188D01*
Y8702D01*
X28253D01*
Y7600D01*
X28265Y7541D01*
X28298Y7492D01*
X28398Y7392D01*
X28448Y7359D01*
X28506Y7347D01*
X31100D01*
X31159Y7359D01*
X31208Y7392D01*
X31238Y7437D01*
X31495D01*
Y7694D01*
X31511Y7704D01*
X31698Y7892D01*
X31731Y7941D01*
X31743Y8000D01*
Y22313D01*
X31731Y22371D01*
X31698Y22421D01*
X31695Y22423D01*
Y22688D01*
X31695D01*
Y22724D01*
X31695D01*
Y23476D01*
X31453D01*
Y24399D01*
X31441Y24458D01*
X31408Y24507D01*
X30831Y25084D01*
X30856Y25130D01*
X30882Y25125D01*
X30940Y25137D01*
X30990Y25170D01*
X31023Y25219D01*
X31035Y25278D01*
Y29313D01*
X31030Y29338D01*
X31065Y29393D01*
X31118Y29400D01*
X31243Y29452D01*
X31350Y29534D01*
X31433Y29641D01*
X31484Y29766D01*
X31502Y29900D01*
X31484Y30034D01*
X31433Y30159D01*
X31350Y30266D01*
X31243Y30348D01*
X31118Y30400D01*
X30984Y30418D01*
X30732D01*
X30598Y30400D01*
X30473Y30348D01*
X30366Y30266D01*
X30284Y30159D01*
X30232Y30034D01*
X30214Y29900D01*
X30232Y29766D01*
X30284Y29641D01*
X30366Y29534D01*
X30473Y29452D01*
X30598Y29400D01*
X30695Y29387D01*
X30733Y29335D01*
X30733Y29332D01*
X30729Y29313D01*
Y25569D01*
X30679Y25554D01*
X30611Y25606D01*
X30519Y25644D01*
X30421Y25657D01*
X30323Y25644D01*
X30232Y25606D01*
X30153Y25546D01*
X30124Y25508D01*
X30074Y25525D01*
Y25685D01*
X30111Y25700D01*
X30189Y25760D01*
X30249Y25839D01*
X30287Y25930D01*
X30300Y26028D01*
X30287Y26126D01*
X30249Y26217D01*
X30189Y26296D01*
X30111Y26356D01*
X30019Y26394D01*
X29921Y26407D01*
X29823Y26394D01*
X29732Y26356D01*
X29653Y26296D01*
X29593Y26217D01*
X29555Y26126D01*
X29542Y26028D01*
X29555Y25930D01*
X29593Y25839D01*
X29653Y25760D01*
X29732Y25700D01*
X29768Y25685D01*
Y25525D01*
X29718Y25508D01*
X29689Y25546D01*
X29611Y25606D01*
X29519Y25644D01*
X29421Y25657D01*
X29323Y25644D01*
X29232Y25606D01*
X29153Y25546D01*
X29124Y25508D01*
X29074Y25525D01*
Y25685D01*
X29111Y25700D01*
X29189Y25760D01*
X29249Y25839D01*
X29287Y25930D01*
X29294Y25978D01*
X28921D01*
X28549D01*
X28555Y25930D01*
X28593Y25839D01*
X28653Y25760D01*
X28727Y25704D01*
X28727Y25687D01*
X28713Y25654D01*
X28046D01*
Y25441D01*
X27996Y25414D01*
X27988Y25419D01*
X27929Y25431D01*
X27098D01*
Y29313D01*
X27094Y29332D01*
X27120Y29373D01*
X27134Y29383D01*
X27260Y29400D01*
X27385Y29452D01*
X27492Y29534D01*
X27574Y29641D01*
X27626Y29766D01*
X27644Y29900D01*
X27626Y30034D01*
X27574Y30159D01*
X27492Y30266D01*
X27385Y30348D01*
X27260Y30400D01*
X27126Y30418D01*
X26874D01*
X26740Y30400D01*
X26615Y30348D01*
X26508Y30266D01*
X26426Y30159D01*
X26374Y30034D01*
X26356Y29900D01*
X26374Y29766D01*
X26426Y29641D01*
X26508Y29534D01*
X26615Y29452D01*
X26740Y29400D01*
X26765Y29397D01*
X26798Y29342D01*
X26792Y29313D01*
Y25278D01*
X26804Y25219D01*
X26837Y25170D01*
X26886Y25137D01*
X26945Y25125D01*
X27929D01*
X27988Y25137D01*
X27996Y25142D01*
X28046Y25115D01*
Y24902D01*
X28268D01*
Y24393D01*
X28265Y24389D01*
X28253Y24330D01*
Y23598D01*
X28188D01*
Y23553D01*
X22683D01*
X18395Y27841D01*
X18415Y27887D01*
X19577D01*
X19610Y27849D01*
X19607Y27830D01*
X19619Y27739D01*
X19654Y27653D01*
X19710Y27580D01*
X19783Y27524D01*
X19869Y27489D01*
X19960Y27477D01*
X20051Y27489D01*
X20137Y27524D01*
X20210Y27580D01*
X20266Y27653D01*
X20301Y27739D01*
X20313Y27830D01*
X20301Y27921D01*
X20266Y28007D01*
X20210Y28080D01*
X20137Y28136D01*
X20051Y28171D01*
X19960Y28183D01*
X19869Y28171D01*
X19841Y28160D01*
X19809Y28181D01*
X19750Y28193D01*
X17200D01*
X17141Y28181D01*
X17092Y28148D01*
X16982Y28038D01*
X16949Y27989D01*
X16937Y27930D01*
Y27654D01*
X16949Y27596D01*
X16982Y27546D01*
X17092Y27436D01*
X17130Y27410D01*
X17150Y27376D01*
X17157Y27355D01*
X17144Y27288D01*
X17158Y27215D01*
X17195Y27160D01*
X17158Y27106D01*
X17154Y27082D01*
X17523D01*
Y26982D01*
X17154D01*
X17158Y26959D01*
X17195Y26904D01*
X17158Y26850D01*
X17154Y26826D01*
X17523D01*
Y26726D01*
X17154D01*
X17155Y26718D01*
X17112Y26688D01*
X17077Y26716D01*
X16991Y26751D01*
X16900Y26763D01*
X16809Y26751D01*
X16723Y26716D01*
X16698Y26696D01*
X16653Y26718D01*
Y27877D01*
X17458Y28682D01*
X17491Y28731D01*
X17503Y28790D01*
Y34650D01*
X17491Y34709D01*
X17458Y34758D01*
X17066Y35150D01*
X17085Y35197D01*
X17099Y35300D01*
X17085Y35403D01*
X17045Y35499D01*
X16982Y35582D01*
X16899Y35645D01*
X16803Y35685D01*
X16700Y35699D01*
X16597Y35685D01*
X16501Y35645D01*
X16418Y35582D01*
X16355Y35499D01*
X16353Y35495D01*
X16303Y35505D01*
Y36095D01*
X16353Y36105D01*
X16355Y36101D01*
X16418Y36018D01*
X16501Y35955D01*
X16597Y35915D01*
X16700Y35901D01*
X16803Y35915D01*
X16899Y35955D01*
X16982Y36018D01*
X17045Y36101D01*
X17085Y36197D01*
X17099Y36300D01*
X17085Y36403D01*
X17045Y36499D01*
X16982Y36582D01*
X16899Y36645D01*
X16803Y36685D01*
X16700Y36699D01*
X16597Y36685D01*
X16501Y36645D01*
X16418Y36582D01*
X16355Y36499D01*
X16353Y36495D01*
X16303Y36505D01*
Y36750D01*
X16291Y36809D01*
X16258Y36858D01*
X16209Y36891D01*
X16150Y36903D01*
D02*
G37*
G36*
X5292Y35850D02*
X4950D01*
Y35508D01*
X5003Y35515D01*
X5099Y35555D01*
X5182Y35618D01*
X5245Y35701D01*
X5285Y35797D01*
X5292Y35850D01*
D02*
G37*
G36*
X4850D02*
X4508D01*
X4515Y35797D01*
X4534Y35750D01*
X4342Y35558D01*
X4309Y35509D01*
X4297Y35450D01*
Y33150D01*
X4309Y33091D01*
X4342Y33042D01*
X4534Y32850D01*
X4515Y32803D01*
X4508Y32750D01*
X4850D01*
Y33092D01*
X4797Y33085D01*
X4750Y33066D01*
X4603Y33213D01*
Y34505D01*
X5295D01*
Y34747D01*
X6737D01*
X7110Y34374D01*
Y32892D01*
X6877D01*
Y32456D01*
X7648D01*
Y32892D01*
X7416D01*
Y34437D01*
X7404Y34496D01*
X7371Y34546D01*
X6908Y35008D01*
X6859Y35041D01*
X6800Y35053D01*
X5295D01*
Y35295D01*
X4603D01*
Y35387D01*
X4750Y35534D01*
X4797Y35515D01*
X4850Y35508D01*
Y35850D01*
D02*
G37*
G36*
X9050Y33192D02*
Y32850D01*
X9392D01*
X9385Y32903D01*
X9345Y32999D01*
X9282Y33082D01*
X9199Y33145D01*
X9103Y33185D01*
X9050Y33192D01*
D02*
G37*
G36*
X8950D02*
X8897Y33185D01*
X8801Y33145D01*
X8718Y33082D01*
X8655Y32999D01*
X8615Y32903D01*
X8608Y32850D01*
X8950D01*
Y33192D01*
D02*
G37*
G36*
X4850Y32650D02*
X4508D01*
X4515Y32597D01*
X4555Y32501D01*
X4618Y32418D01*
X4701Y32355D01*
X4797Y32315D01*
X4850Y32308D01*
Y32650D01*
D02*
G37*
G36*
X7213Y32144D02*
X6877D01*
Y31976D01*
X7213D01*
Y32144D01*
D02*
G37*
G36*
X30882Y34584D02*
X26945D01*
X26886Y34573D01*
X26837Y34540D01*
X26804Y34490D01*
X26792Y34432D01*
Y32857D01*
X26785Y32847D01*
X26740Y32841D01*
X26615Y32789D01*
X26508Y32707D01*
X26426Y32600D01*
X26374Y32475D01*
X26356Y32341D01*
X26374Y32207D01*
X26426Y32082D01*
X26508Y31975D01*
X26615Y31892D01*
X26740Y31841D01*
X26874Y31823D01*
X27126D01*
X27260Y31841D01*
X27385Y31892D01*
X27492Y31975D01*
X27574Y32082D01*
X27626Y32207D01*
X27644Y32341D01*
X27626Y32475D01*
X27574Y32600D01*
X27492Y32707D01*
X27385Y32789D01*
X27260Y32841D01*
X27126Y32859D01*
X27098D01*
Y34279D01*
X30729D01*
Y32858D01*
X30598Y32841D01*
X30473Y32789D01*
X30366Y32707D01*
X30284Y32600D01*
X30232Y32475D01*
X30214Y32341D01*
X30232Y32207D01*
X30284Y32082D01*
X30366Y31975D01*
X30473Y31892D01*
X30598Y31841D01*
X30732Y31823D01*
X30984D01*
X31118Y31841D01*
X31243Y31892D01*
X31350Y31975D01*
X31433Y32082D01*
X31484Y32207D01*
X31502Y32341D01*
X31484Y32475D01*
X31433Y32600D01*
X31350Y32707D01*
X31243Y32789D01*
X31118Y32841D01*
X31038Y32852D01*
X31035Y32857D01*
Y34432D01*
X31023Y34490D01*
X30990Y34540D01*
X30940Y34573D01*
X30882Y34584D01*
D02*
G37*
G36*
X30984Y31638D02*
X30732D01*
X30598Y31621D01*
X30473Y31569D01*
X30366Y31487D01*
X30284Y31379D01*
X30232Y31254D01*
X30214Y31120D01*
X30232Y30986D01*
X30284Y30862D01*
X30366Y30754D01*
X30473Y30672D01*
X30598Y30620D01*
X30732Y30603D01*
X30984D01*
X31118Y30620D01*
X31243Y30672D01*
X31350Y30754D01*
X31433Y30862D01*
X31484Y30986D01*
X31502Y31120D01*
X31484Y31254D01*
X31433Y31379D01*
X31350Y31487D01*
X31243Y31569D01*
X31118Y31621D01*
X30984Y31638D01*
D02*
G37*
G36*
X27126D02*
X26874D01*
X26740Y31621D01*
X26615Y31569D01*
X26508Y31487D01*
X26426Y31379D01*
X26374Y31254D01*
X26356Y31120D01*
X26374Y30986D01*
X26426Y30862D01*
X26508Y30754D01*
X26615Y30672D01*
X26740Y30620D01*
X26874Y30603D01*
X27126D01*
X27260Y30620D01*
X27385Y30672D01*
X27492Y30754D01*
X27574Y30862D01*
X27626Y30986D01*
X27644Y31120D01*
X27626Y31254D01*
X27574Y31379D01*
X27492Y31487D01*
X27385Y31569D01*
X27260Y31621D01*
X27126Y31638D01*
D02*
G37*
G36*
X7609Y30898D02*
X7313D01*
Y30601D01*
X7354Y30607D01*
X7439Y30642D01*
X7512Y30698D01*
X7568Y30771D01*
X7604Y30856D01*
X7609Y30898D01*
D02*
G37*
G36*
X7213D02*
X6916D01*
X6922Y30856D01*
X6957Y30771D01*
X7013Y30698D01*
X7086Y30642D01*
X7171Y30607D01*
X7213Y30601D01*
Y30898D01*
D02*
G37*
G36*
X4900Y29899D02*
X4797Y29885D01*
X4701Y29845D01*
X4618Y29782D01*
X4555Y29699D01*
X4515Y29603D01*
X4501Y29500D01*
X4515Y29397D01*
X4555Y29301D01*
X4618Y29218D01*
X4701Y29155D01*
X4797Y29115D01*
X4900Y29101D01*
X5003Y29115D01*
X5099Y29155D01*
X5182Y29218D01*
X5245Y29301D01*
X5285Y29397D01*
X5299Y29500D01*
X5285Y29603D01*
X5245Y29699D01*
X5182Y29782D01*
X5099Y29845D01*
X5003Y29885D01*
X4900Y29899D01*
D02*
G37*
G36*
X28971Y26400D02*
Y26078D01*
X29294D01*
X29287Y26126D01*
X29249Y26217D01*
X29189Y26296D01*
X29111Y26356D01*
X29019Y26394D01*
X28971Y26400D01*
D02*
G37*
G36*
X28871D02*
X28823Y26394D01*
X28732Y26356D01*
X28653Y26296D01*
X28593Y26217D01*
X28555Y26126D01*
X28549Y26078D01*
X28871D01*
Y26400D01*
D02*
G37*
G36*
X9871Y26347D02*
X9749D01*
X9666Y26331D01*
X9596Y26284D01*
X9549Y26214D01*
X9532Y26131D01*
Y26068D01*
X9871D01*
Y26347D01*
D02*
G37*
G36*
X4850Y22950D02*
X4410D01*
X4414Y22923D01*
X4444Y22850D01*
X4491Y22788D01*
X4553Y22741D01*
X4626Y22711D01*
X4703Y22701D01*
X4850D01*
Y22950D01*
D02*
G37*
G36*
X17338Y21538D02*
X16783D01*
Y21062D01*
X17338D01*
Y21147D01*
X17917D01*
X18072Y20992D01*
X18121Y20959D01*
X18180Y20947D01*
X18723D01*
Y20738D01*
X18723Y20724D01*
Y20688D01*
X18723Y20674D01*
Y20363D01*
X19118D01*
X19513D01*
Y20674D01*
X19513Y20688D01*
Y20724D01*
X19513Y20738D01*
Y20910D01*
X19563Y20930D01*
X20289Y20204D01*
X20339Y20171D01*
X20397Y20160D01*
X20505D01*
Y19937D01*
X21295D01*
Y20674D01*
X21295Y20688D01*
Y20724D01*
X21295Y20738D01*
Y20871D01*
X22905D01*
X24105Y19671D01*
Y19205D01*
X24895D01*
Y19995D01*
X24429D01*
X23162Y21262D01*
X23088Y21312D01*
X23000Y21329D01*
X21295D01*
Y21476D01*
X20505D01*
Y20738D01*
X20505Y20724D01*
Y20688D01*
X20505Y20674D01*
Y20480D01*
X20455Y20472D01*
X19718Y21208D01*
X19669Y21241D01*
X19610Y21253D01*
X19513D01*
Y21476D01*
X18723D01*
Y21253D01*
X18243D01*
X18088Y21408D01*
X18039Y21441D01*
X17980Y21453D01*
X17338D01*
Y21538D01*
D02*
G37*
G36*
X5776Y18250D02*
X5450D01*
Y17905D01*
X5776D01*
Y18250D01*
D02*
G37*
G36*
X10160Y17663D02*
X9640D01*
X9546Y17651D01*
X9458Y17614D01*
X9383Y17557D01*
X9326Y17482D01*
X9314Y17453D01*
X7427D01*
X7369Y17441D01*
X7319Y17408D01*
X6819Y16908D01*
X6786Y16859D01*
X6775Y16800D01*
Y16035D01*
X6687D01*
Y15165D01*
X7247D01*
Y14810D01*
X7259Y14752D01*
X7292Y14702D01*
X7302Y14692D01*
X7351Y14659D01*
X7410Y14647D01*
X8210D01*
X8269Y14659D01*
X8318Y14692D01*
X8773Y15147D01*
X9314D01*
X9326Y15118D01*
X9383Y15043D01*
X9458Y14986D01*
X9546Y14949D01*
X9640Y14937D01*
X9747D01*
Y14663D01*
X9640D01*
X9546Y14651D01*
X9458Y14614D01*
X9383Y14557D01*
X9326Y14482D01*
X9289Y14394D01*
X9283Y14350D01*
X10517D01*
X10511Y14394D01*
X10474Y14482D01*
X10417Y14557D01*
X10342Y14614D01*
X10254Y14651D01*
X10160Y14663D01*
X10053D01*
Y14937D01*
X10160D01*
X10254Y14949D01*
X10342Y14986D01*
X10417Y15043D01*
X10474Y15118D01*
X10511Y15206D01*
X10517Y15250D01*
X9900D01*
Y15300D01*
X9850D01*
Y15663D01*
X9640D01*
X9546Y15651D01*
X9458Y15614D01*
X9383Y15557D01*
X9326Y15482D01*
X9314Y15453D01*
X8710D01*
X8651Y15441D01*
X8602Y15408D01*
X8147Y14953D01*
X7553D01*
Y15165D01*
X8120D01*
Y16024D01*
X8243Y16147D01*
X9314D01*
X9326Y16118D01*
X9383Y16043D01*
X9458Y15986D01*
X9546Y15949D01*
X9640Y15937D01*
X10160D01*
X10254Y15949D01*
X10342Y15986D01*
X10417Y16043D01*
X10474Y16118D01*
X10511Y16206D01*
X10523Y16300D01*
X10511Y16394D01*
X10474Y16482D01*
X10417Y16557D01*
X10342Y16614D01*
X10254Y16651D01*
X10160Y16663D01*
X9640D01*
X9546Y16651D01*
X9458Y16614D01*
X9383Y16557D01*
X9326Y16482D01*
X9314Y16453D01*
X8180D01*
X8121Y16441D01*
X8072Y16408D01*
X7772Y16108D01*
X7739Y16059D01*
X7734Y16035D01*
X7450D01*
Y15600D01*
X7350D01*
Y16035D01*
X7080D01*
Y16737D01*
X7491Y17147D01*
X9314D01*
X9326Y17118D01*
X9383Y17043D01*
X9458Y16986D01*
X9546Y16949D01*
X9640Y16937D01*
X10160D01*
X10254Y16949D01*
X10342Y16986D01*
X10417Y17043D01*
X10474Y17118D01*
X10511Y17206D01*
X10523Y17300D01*
X10511Y17394D01*
X10474Y17482D01*
X10417Y17557D01*
X10342Y17614D01*
X10254Y17651D01*
X10160Y17663D01*
D02*
G37*
G36*
X13517Y16250D02*
X12950D01*
Y15937D01*
X13160D01*
X13254Y15949D01*
X13342Y15986D01*
X13417Y16043D01*
X13474Y16118D01*
X13511Y16206D01*
X13517Y16250D01*
D02*
G37*
G36*
X10160Y15663D02*
X9950D01*
Y15350D01*
X10517D01*
X10511Y15394D01*
X10474Y15482D01*
X10417Y15557D01*
X10342Y15614D01*
X10254Y15651D01*
X10160Y15663D01*
D02*
G37*
G36*
X15715Y15250D02*
X15547D01*
Y15102D01*
X15715D01*
Y15250D01*
D02*
G37*
G36*
X13160Y14663D02*
X12950D01*
Y14350D01*
X13517D01*
X13511Y14394D01*
X13474Y14482D01*
X13417Y14557D01*
X13342Y14614D01*
X13254Y14651D01*
X13160Y14663D01*
D02*
G37*
G36*
X10517Y14250D02*
X9283D01*
X9289Y14206D01*
X9326Y14118D01*
X9383Y14043D01*
X9458Y13986D01*
X9546Y13949D01*
X9640Y13937D01*
X9747D01*
Y13663D01*
X9640D01*
X9546Y13651D01*
X9458Y13614D01*
X9383Y13557D01*
X9326Y13482D01*
X9289Y13394D01*
X9283Y13350D01*
X10517D01*
X10511Y13394D01*
X10474Y13482D01*
X10417Y13557D01*
X10342Y13614D01*
X10254Y13651D01*
X10160Y13663D01*
X10053D01*
Y13937D01*
X10160D01*
X10254Y13949D01*
X10342Y13986D01*
X10417Y14043D01*
X10474Y14118D01*
X10511Y14206D01*
X10517Y14250D01*
D02*
G37*
G36*
X15918Y12695D02*
X15882D01*
X15868Y12695D01*
X15131D01*
Y12453D01*
X13486D01*
X13474Y12482D01*
X13417Y12557D01*
X13342Y12614D01*
X13254Y12651D01*
X13160Y12663D01*
X12640D01*
X12546Y12651D01*
X12458Y12614D01*
X12383Y12557D01*
X12326Y12482D01*
X12314Y12453D01*
X12000D01*
X11941Y12441D01*
X11892Y12408D01*
X11492Y12008D01*
X11459Y11959D01*
X11447Y11900D01*
Y7370D01*
X11365D01*
X11130Y7135D01*
Y6665D01*
X11365Y6430D01*
X11835D01*
X12070Y6665D01*
Y7135D01*
X11835Y7370D01*
X11753D01*
Y11837D01*
X12063Y12147D01*
X12314D01*
X12326Y12118D01*
X12383Y12043D01*
X12458Y11986D01*
X12546Y11949D01*
X12640Y11937D01*
X13160D01*
X13254Y11949D01*
X13342Y11986D01*
X13417Y12043D01*
X13474Y12118D01*
X13486Y12147D01*
X15131D01*
Y11905D01*
X15868D01*
X15882Y11905D01*
X15918D01*
X15932Y11905D01*
X16669D01*
Y12147D01*
X17769D01*
Y12003D01*
X18362D01*
Y12597D01*
X17769D01*
Y12453D01*
X16669D01*
Y12695D01*
X15932D01*
X15918Y12695D01*
D02*
G37*
G36*
X10517Y13250D02*
X9283D01*
X9289Y13206D01*
X9326Y13118D01*
X9383Y13043D01*
X9458Y12986D01*
X9546Y12949D01*
X9640Y12937D01*
X9747D01*
Y12663D01*
X9640D01*
X9546Y12651D01*
X9458Y12614D01*
X9383Y12557D01*
X9326Y12482D01*
X9289Y12394D01*
X9283Y12350D01*
X10517D01*
X10511Y12394D01*
X10474Y12482D01*
X10417Y12557D01*
X10342Y12614D01*
X10254Y12651D01*
X10160Y12663D01*
X10053D01*
Y12937D01*
X10160D01*
X10254Y12949D01*
X10342Y12986D01*
X10417Y13043D01*
X10474Y13118D01*
X10511Y13206D01*
X10517Y13250D01*
D02*
G37*
G36*
X18685Y12597D02*
X18438D01*
Y12350D01*
X18685D01*
Y12597D01*
D02*
G37*
G36*
X19032Y12250D02*
X18735D01*
X18438D01*
Y12003D01*
X18582D01*
Y11623D01*
X18559Y11589D01*
X18547Y11530D01*
Y11097D01*
X18403D01*
Y10850D01*
X18700D01*
X18997D01*
Y11097D01*
X18853D01*
Y11472D01*
X18876Y11506D01*
X18888Y11565D01*
Y12003D01*
X19032D01*
Y12250D01*
D02*
G37*
G36*
X18997Y10750D02*
X18750D01*
Y10503D01*
X18997D01*
Y10750D01*
D02*
G37*
G36*
X18650D02*
X18403D01*
Y10503D01*
X18650D01*
Y10750D01*
D02*
G37*
G36*
X15918Y11195D02*
X15882D01*
X15868Y11195D01*
X15131D01*
Y10405D01*
X15868D01*
X15882Y10405D01*
X15918D01*
X15932Y10405D01*
X16669D01*
Y10647D01*
X17734D01*
Y10503D01*
X18328D01*
Y11097D01*
X17734D01*
Y10953D01*
X16669D01*
Y11195D01*
X15932D01*
X15918Y11195D01*
D02*
G37*
G36*
X13160Y11663D02*
X12640D01*
X12546Y11651D01*
X12458Y11614D01*
X12383Y11557D01*
X12326Y11482D01*
X12289Y11394D01*
X12277Y11300D01*
X12289Y11206D01*
X12326Y11118D01*
X12383Y11043D01*
X12453Y10990D01*
X12463Y10969D01*
X12470Y10936D01*
X12082Y10548D01*
X12049Y10499D01*
X12037Y10440D01*
Y7310D01*
X12049Y7251D01*
X12082Y7202D01*
X12139Y7144D01*
X12130Y7135D01*
Y6665D01*
X12365Y6430D01*
X12835D01*
X13070Y6665D01*
Y7135D01*
X12835Y7370D01*
X12365D01*
X12343Y7411D01*
Y10021D01*
X12393Y10036D01*
X12458Y9986D01*
X12546Y9949D01*
X12640Y9937D01*
X13160D01*
X13254Y9949D01*
X13342Y9986D01*
X13417Y10043D01*
X13474Y10118D01*
X13511Y10206D01*
X13523Y10300D01*
X13511Y10394D01*
X13474Y10482D01*
X13417Y10557D01*
X13342Y10614D01*
X13254Y10651D01*
X13160Y10663D01*
X12700D01*
X12679Y10713D01*
X12903Y10937D01*
X13160D01*
X13254Y10949D01*
X13342Y10986D01*
X13417Y11043D01*
X13474Y11118D01*
X13511Y11206D01*
X13523Y11300D01*
X13511Y11394D01*
X13474Y11482D01*
X13417Y11557D01*
X13342Y11614D01*
X13254Y11651D01*
X13160Y11663D01*
D02*
G37*
G36*
X12835Y6370D02*
X12365D01*
X12130Y6135D01*
Y5665D01*
X12365Y5430D01*
X12835D01*
X13070Y5665D01*
Y6135D01*
X12835Y6370D01*
D02*
G37*
G36*
X11835D02*
X11365D01*
X11130Y6135D01*
Y5665D01*
X11365Y5430D01*
X11835D01*
X12070Y5665D01*
Y6135D01*
X11835Y6370D01*
D02*
G37*
G36*
X11070Y5850D02*
X10650D01*
Y5430D01*
X10835D01*
X11070Y5665D01*
Y5850D01*
D02*
G37*
G36*
X10550D02*
X10130D01*
Y5665D01*
X10365Y5430D01*
X10550D01*
Y5850D01*
D02*
G37*
%LPD*%
G36*
X15305Y35905D02*
X15997D01*
Y35633D01*
X15947Y35609D01*
X15899Y35645D01*
X15803Y35685D01*
X15700Y35699D01*
X15597Y35685D01*
X15501Y35645D01*
X15418Y35582D01*
X15355Y35499D01*
X15315Y35403D01*
X15301Y35300D01*
X15315Y35197D01*
X15334Y35150D01*
X14402Y34218D01*
X14200D01*
X14141Y34207D01*
X14092Y34174D01*
X13924Y34006D01*
X13878Y34025D01*
Y36352D01*
X14123Y36597D01*
X15305D01*
Y35905D01*
D02*
G37*
G36*
X16355Y35101D02*
X16418Y35018D01*
X16501Y34955D01*
X16597Y34915D01*
X16700Y34901D01*
X16803Y34915D01*
X16850Y34934D01*
X17197Y34587D01*
Y32085D01*
X17151Y32065D01*
X17066Y32150D01*
X17085Y32197D01*
X17099Y32300D01*
X17085Y32403D01*
X17045Y32499D01*
X16982Y32582D01*
X16899Y32645D01*
X16803Y32685D01*
X16700Y32699D01*
X16597Y32685D01*
X16501Y32645D01*
X16418Y32582D01*
X16355Y32499D01*
X16315Y32403D01*
X16301Y32300D01*
X16315Y32197D01*
X16355Y32101D01*
X16418Y32018D01*
X16501Y31955D01*
X16597Y31915D01*
X16700Y31901D01*
X16803Y31915D01*
X16850Y31934D01*
X16997Y31787D01*
Y31633D01*
X16947Y31609D01*
X16899Y31645D01*
X16803Y31685D01*
X16700Y31699D01*
X16597Y31685D01*
X16501Y31645D01*
X16418Y31582D01*
X16355Y31499D01*
X16315Y31403D01*
X16301Y31300D01*
X16315Y31197D01*
X16355Y31101D01*
X16418Y31018D01*
X16420Y30986D01*
X16142Y30708D01*
X16109Y30659D01*
X16097Y30600D01*
Y30505D01*
X16047Y30495D01*
X16045Y30499D01*
X15982Y30582D01*
X15899Y30645D01*
X15803Y30685D01*
X15700Y30699D01*
X15597Y30685D01*
X15501Y30645D01*
X15458Y30612D01*
X15408Y30637D01*
Y30963D01*
X15458Y30988D01*
X15501Y30955D01*
X15597Y30915D01*
X15700Y30901D01*
X15803Y30915D01*
X15899Y30955D01*
X15982Y31018D01*
X16045Y31101D01*
X16085Y31197D01*
X16099Y31300D01*
X16085Y31403D01*
X16045Y31499D01*
X15982Y31582D01*
X15899Y31645D01*
X15803Y31685D01*
X15700Y31699D01*
X15597Y31685D01*
X15501Y31645D01*
X15458Y31612D01*
X15408Y31637D01*
Y31791D01*
X15550Y31934D01*
X15597Y31915D01*
X15700Y31901D01*
X15803Y31915D01*
X15899Y31955D01*
X15982Y32018D01*
X16045Y32101D01*
X16085Y32197D01*
X16099Y32300D01*
X16085Y32403D01*
X16045Y32499D01*
X15982Y32582D01*
X15899Y32645D01*
X15803Y32685D01*
X15700Y32699D01*
X15597Y32685D01*
X15501Y32645D01*
X15418Y32582D01*
X15355Y32499D01*
X15315Y32403D01*
X15301Y32300D01*
X15315Y32197D01*
X15334Y32150D01*
X15254Y32070D01*
X15208Y32089D01*
Y32591D01*
X15550Y32934D01*
X15597Y32915D01*
X15700Y32901D01*
X15803Y32915D01*
X15899Y32955D01*
X15982Y33018D01*
X16045Y33101D01*
X16085Y33197D01*
X16099Y33300D01*
X16085Y33403D01*
X16045Y33499D01*
X15982Y33582D01*
X15899Y33645D01*
X15803Y33685D01*
X15700Y33699D01*
X15597Y33685D01*
X15501Y33645D01*
X15418Y33582D01*
X15355Y33499D01*
X15315Y33403D01*
X15301Y33300D01*
X15315Y33197D01*
X15334Y33150D01*
X15049Y32865D01*
X15003Y32885D01*
Y33090D01*
X14991Y33149D01*
X14958Y33198D01*
X14691Y33465D01*
X14701Y33489D01*
X14706Y33530D01*
X14410D01*
Y33234D01*
X14451Y33239D01*
X14475Y33249D01*
X14697Y33027D01*
Y31881D01*
X14647Y31868D01*
X14600Y31930D01*
X14527Y31986D01*
X14441Y32021D01*
X14350Y32033D01*
X14259Y32021D01*
X14173Y31986D01*
X14148Y31966D01*
X14103Y31988D01*
Y32035D01*
X14112Y32080D01*
Y33273D01*
X14157Y33295D01*
X14183Y33274D01*
X14269Y33239D01*
X14310Y33234D01*
Y33580D01*
X14360D01*
Y33630D01*
X14706D01*
X14701Y33671D01*
X14666Y33757D01*
X14610Y33830D01*
X14543Y33881D01*
X14540Y33911D01*
X14543Y33937D01*
X14574Y33957D01*
X15550Y34934D01*
X15597Y34915D01*
X15700Y34901D01*
X15803Y34915D01*
X15899Y34955D01*
X15947Y34991D01*
X15997Y34967D01*
Y34813D01*
X15850Y34666D01*
X15803Y34685D01*
X15700Y34699D01*
X15597Y34685D01*
X15501Y34645D01*
X15418Y34582D01*
X15355Y34499D01*
X15315Y34403D01*
X15301Y34300D01*
X15315Y34197D01*
X15355Y34101D01*
X15418Y34018D01*
X15501Y33955D01*
X15597Y33915D01*
X15700Y33901D01*
X15803Y33915D01*
X15899Y33955D01*
X15982Y34018D01*
X16045Y34101D01*
X16085Y34197D01*
X16099Y34300D01*
X16085Y34403D01*
X16066Y34450D01*
X16258Y34642D01*
X16291Y34691D01*
X16303Y34750D01*
Y35095D01*
X16353Y35105D01*
X16355Y35101D01*
D02*
G37*
G36*
X14697Y31479D02*
Y29320D01*
X14709Y29261D01*
X14742Y29212D01*
X14753Y29201D01*
X14735Y29148D01*
X14679Y29141D01*
X14593Y29106D01*
X14553Y29075D01*
X14503Y29099D01*
Y31365D01*
X14527Y31374D01*
X14600Y31430D01*
X14647Y31492D01*
X14697Y31479D01*
D02*
G37*
G36*
X16501Y29955D02*
X16597Y29915D01*
X16700Y29901D01*
X16803Y29915D01*
X16899Y29955D01*
X16947Y29991D01*
X16997Y29967D01*
Y29753D01*
X16229Y28985D01*
X16183Y29005D01*
Y29757D01*
X16358Y29932D01*
X16389Y29978D01*
X16394Y29982D01*
X16445Y29997D01*
X16501Y29955D01*
D02*
G37*
G36*
X17197Y29455D02*
Y28853D01*
X16433Y28089D01*
X16383Y28110D01*
Y28707D01*
X17151Y29475D01*
X17197Y29455D01*
D02*
G37*
G36*
X15477Y29077D02*
Y28022D01*
X15427Y27984D01*
X15387Y27992D01*
X15250D01*
Y27800D01*
X15150D01*
Y27992D01*
X15123D01*
Y28337D01*
X15278Y28492D01*
X15311Y28541D01*
X15323Y28600D01*
Y29000D01*
X15311Y29059D01*
X15278Y29108D01*
X15003Y29383D01*
Y29485D01*
X15049Y29505D01*
X15477Y29077D01*
D02*
G37*
G36*
X14831Y26318D02*
X14821Y26265D01*
X14835Y26191D01*
X14872Y26137D01*
X14835Y26082D01*
X14821Y26009D01*
X14831Y25956D01*
X14799Y25906D01*
X14421D01*
X14008Y26318D01*
X14029Y26368D01*
X14799D01*
X14831Y26318D01*
D02*
G37*
G36*
X13557Y26965D02*
Y26400D01*
X13569Y26341D01*
X13602Y26292D01*
X13894Y26000D01*
X13870Y25953D01*
X13791Y25943D01*
X13705Y25908D01*
X13632Y25852D01*
X13576Y25778D01*
X13541Y25693D01*
X13529Y25602D01*
X13541Y25511D01*
X13576Y25425D01*
X13632Y25352D01*
X13705Y25296D01*
X13791Y25261D01*
X13882Y25249D01*
X13973Y25261D01*
X14058Y25296D01*
X14121Y25344D01*
X14522D01*
X14541Y25298D01*
X13975Y24731D01*
X13951Y24741D01*
X13860Y24753D01*
X13769Y24741D01*
X13683Y24706D01*
X13610Y24650D01*
X13554Y24577D01*
X13519Y24491D01*
X13507Y24400D01*
X13519Y24309D01*
X13554Y24223D01*
X13610Y24150D01*
X13683Y24094D01*
X13769Y24059D01*
X13860Y24047D01*
X13951Y24059D01*
X14037Y24094D01*
X14110Y24150D01*
X14166Y24223D01*
X14201Y24309D01*
X14213Y24400D01*
X14201Y24491D01*
X14191Y24515D01*
X14754Y25078D01*
X14800Y25074D01*
X14828Y25035D01*
X15200D01*
X15569D01*
X15565Y25059D01*
X15528Y25113D01*
X15565Y25167D01*
X15579Y25241D01*
X15565Y25315D01*
X15528Y25369D01*
X15565Y25423D01*
X15579Y25497D01*
X15565Y25570D01*
X15528Y25625D01*
X15565Y25679D01*
X15579Y25753D01*
X15569Y25806D01*
X15601Y25856D01*
X15630D01*
X15689Y25867D01*
X15738Y25901D01*
X15831Y25993D01*
X15877Y25974D01*
Y25200D01*
X15889Y25141D01*
X15922Y25092D01*
X16372Y24642D01*
X16421Y24609D01*
X16480Y24597D01*
X17105D01*
X17163Y24609D01*
X17213Y24642D01*
X17364Y24793D01*
X17710D01*
X17783Y24807D01*
X17846Y24849D01*
X17887Y24911D01*
X17902Y24985D01*
X17887Y25059D01*
X17851Y25113D01*
X17887Y25167D01*
X17902Y25241D01*
X17887Y25315D01*
X17851Y25369D01*
X17887Y25423D01*
X17902Y25497D01*
X17892Y25550D01*
X17923Y25600D01*
X17963D01*
X18021Y25611D01*
X18024Y25613D01*
X18059Y25599D01*
X18150Y25587D01*
X18241Y25599D01*
X18327Y25634D01*
X18352Y25654D01*
X18397Y25632D01*
Y24983D01*
X15967Y22553D01*
X15350D01*
X15291Y22541D01*
X15242Y22508D01*
X15149Y22415D01*
X15103Y22435D01*
Y24187D01*
X15118Y24202D01*
X15151Y24251D01*
X15163Y24310D01*
Y24793D01*
X15387D01*
X15461Y24807D01*
X15523Y24849D01*
X15565Y24911D01*
X15569Y24935D01*
X15200D01*
X14831D01*
X14835Y24911D01*
X14857Y24879D01*
Y24373D01*
X14842Y24358D01*
X14809Y24309D01*
X14797Y24250D01*
Y22000D01*
Y21056D01*
X14809Y20998D01*
X14842Y20948D01*
X14992Y20798D01*
X15002Y20792D01*
Y20688D01*
X15150D01*
Y20906D01*
X15250D01*
Y20688D01*
X15316D01*
X17237Y18767D01*
Y18438D01*
X16783D01*
Y18353D01*
X15398D01*
Y18418D01*
X15002D01*
Y18353D01*
X14156D01*
X13506Y18405D01*
X13474Y18482D01*
X13417Y18557D01*
X13342Y18614D01*
X13254Y18651D01*
X13160Y18663D01*
X12640D01*
X12546Y18651D01*
X12458Y18614D01*
X12433Y18595D01*
X12383Y18620D01*
Y18980D01*
X12433Y19005D01*
X12458Y18986D01*
X12546Y18949D01*
X12640Y18937D01*
X13160D01*
X13254Y18949D01*
X13342Y18986D01*
X13417Y19043D01*
X13474Y19118D01*
X13511Y19206D01*
X13523Y19300D01*
X13511Y19394D01*
X13474Y19482D01*
X13417Y19557D01*
X13342Y19614D01*
X13254Y19651D01*
X13160Y19663D01*
X12640D01*
X12546Y19651D01*
X12458Y19614D01*
X12433Y19595D01*
X12383Y19620D01*
Y19980D01*
X12433Y20005D01*
X12458Y19986D01*
X12546Y19949D01*
X12640Y19937D01*
X13160D01*
X13254Y19949D01*
X13342Y19986D01*
X13417Y20043D01*
X13474Y20118D01*
X13511Y20206D01*
X13523Y20300D01*
X13511Y20394D01*
X13474Y20482D01*
X13417Y20557D01*
X13342Y20614D01*
X13254Y20651D01*
X13160Y20663D01*
X12640D01*
X12546Y20651D01*
X12458Y20614D01*
X12433Y20595D01*
X12383Y20620D01*
Y20980D01*
X12433Y21005D01*
X12458Y20986D01*
X12546Y20949D01*
X12640Y20937D01*
X13160D01*
X13254Y20949D01*
X13342Y20986D01*
X13417Y21043D01*
X13474Y21118D01*
X13511Y21206D01*
X13523Y21300D01*
X13511Y21394D01*
X13474Y21482D01*
X13417Y21557D01*
X13342Y21614D01*
X13254Y21651D01*
X13160Y21663D01*
X12640D01*
X12546Y21651D01*
X12458Y21614D01*
X12433Y21595D01*
X12383Y21620D01*
Y21980D01*
X12433Y22005D01*
X12458Y21986D01*
X12546Y21949D01*
X12640Y21937D01*
X13160D01*
X13254Y21949D01*
X13342Y21986D01*
X13417Y22043D01*
X13474Y22118D01*
X13511Y22206D01*
X13523Y22300D01*
X13511Y22394D01*
X13474Y22482D01*
X13417Y22557D01*
X13342Y22614D01*
X13254Y22651D01*
X13160Y22663D01*
X12640D01*
X12546Y22651D01*
X12458Y22614D01*
X12433Y22595D01*
X12383Y22620D01*
Y22980D01*
X12433Y23005D01*
X12458Y22986D01*
X12546Y22949D01*
X12640Y22937D01*
X13160D01*
X13254Y22949D01*
X13342Y22986D01*
X13417Y23043D01*
X13474Y23118D01*
X13511Y23206D01*
X13523Y23300D01*
X13511Y23394D01*
X13474Y23482D01*
X13417Y23557D01*
X13342Y23614D01*
X13254Y23651D01*
X13160Y23663D01*
X12640D01*
X12546Y23651D01*
X12458Y23614D01*
X12433Y23595D01*
X12383Y23620D01*
Y25537D01*
X12657Y25811D01*
X12717Y25800D01*
X12749Y25752D01*
X12819Y25705D01*
X12902Y25689D01*
X13025D01*
Y26018D01*
Y26347D01*
X12944D01*
X12924Y26397D01*
X13511Y26985D01*
X13557Y26965D01*
D02*
G37*
G36*
X28768Y23598D02*
X28559D01*
Y24281D01*
X28563Y24286D01*
X28574Y24345D01*
Y24902D01*
X28768D01*
Y23598D01*
D02*
G37*
G36*
X30153Y25010D02*
X30232Y24950D01*
X30323Y24912D01*
X30421Y24899D01*
X30519Y24912D01*
X30556Y24927D01*
X31147Y24336D01*
Y23476D01*
X30905D01*
Y22724D01*
X30905D01*
Y22688D01*
X30905D01*
Y21937D01*
X31437D01*
Y19835D01*
X31391Y19815D01*
X30958Y20248D01*
X30909Y20281D01*
X30850Y20293D01*
X29263D01*
X28953Y20603D01*
Y22502D01*
X29412D01*
Y22547D01*
X29895D01*
X29904Y22523D01*
X29960Y22450D01*
X30033Y22394D01*
X30119Y22359D01*
X30210Y22347D01*
X30301Y22359D01*
X30387Y22394D01*
X30460Y22450D01*
X30516Y22523D01*
X30551Y22609D01*
X30563Y22700D01*
X30551Y22791D01*
X30516Y22877D01*
X30460Y22950D01*
X30387Y23006D01*
X30301Y23041D01*
X30210Y23053D01*
X30119Y23041D01*
X30033Y23006D01*
X29960Y22950D01*
X29904Y22877D01*
X29895Y22853D01*
X29412D01*
Y22898D01*
X28953D01*
Y23202D01*
X29018D01*
Y23247D01*
X29385D01*
Y23202D01*
X29553D01*
Y23400D01*
Y23598D01*
X29385D01*
Y23553D01*
X29074D01*
Y25031D01*
X29124Y25048D01*
X29153Y25010D01*
X29232Y24950D01*
X29323Y24912D01*
X29421Y24899D01*
X29519Y24912D01*
X29611Y24950D01*
X29689Y25010D01*
X29718Y25048D01*
X29768Y25031D01*
Y24746D01*
X29780Y24687D01*
X29813Y24637D01*
X29844Y24607D01*
Y23598D01*
X29653D01*
Y23400D01*
Y23202D01*
X30215D01*
Y23598D01*
X30150D01*
Y24670D01*
X30138Y24729D01*
X30105Y24778D01*
X30074Y24809D01*
Y25031D01*
X30124Y25048D01*
X30153Y25010D01*
D02*
G37*
G36*
X8787Y23367D02*
Y23200D01*
X8799Y23141D01*
X8832Y23092D01*
X9232Y22692D01*
X9281Y22659D01*
X9340Y22647D01*
X9419D01*
X9436Y22597D01*
X9383Y22557D01*
X9326Y22482D01*
X9314Y22453D01*
X8463D01*
X8140Y22776D01*
Y23105D01*
X8363D01*
Y23725D01*
X8409Y23745D01*
X8787Y23367D01*
D02*
G37*
G36*
X6824Y23105D02*
X7576D01*
Y23105D01*
X7612D01*
Y23105D01*
X7834D01*
Y22713D01*
X7846Y22654D01*
X7879Y22604D01*
X8292Y22192D01*
X8341Y22159D01*
X8400Y22147D01*
X9314D01*
X9326Y22118D01*
X9383Y22043D01*
X9458Y21986D01*
X9546Y21949D01*
X9640Y21937D01*
X10160D01*
X10254Y21949D01*
X10342Y21986D01*
X10417Y22043D01*
X10474Y22118D01*
X10511Y22206D01*
X10523Y22300D01*
X10511Y22394D01*
X10474Y22482D01*
X10417Y22557D01*
X10364Y22597D01*
X10381Y22647D01*
X10647D01*
X10657Y22637D01*
Y20825D01*
X10611Y20805D01*
X10414Y21002D01*
X10417Y21043D01*
X10474Y21118D01*
X10511Y21206D01*
X10517Y21250D01*
X9950D01*
Y20937D01*
X10047D01*
X10296Y20687D01*
X10268Y20645D01*
X10254Y20651D01*
X10160Y20663D01*
X9640D01*
X9546Y20651D01*
X9458Y20614D01*
X9383Y20557D01*
X9362Y20529D01*
X8548D01*
X8540Y20540D01*
X8470Y20594D01*
X8388Y20628D01*
X8300Y20639D01*
X8212Y20628D01*
X8130Y20594D01*
X8060Y20540D01*
X8052Y20529D01*
X7048D01*
X7040Y20540D01*
X6970Y20594D01*
X6888Y20628D01*
X6800Y20639D01*
X6712Y20628D01*
X6630Y20594D01*
X6560Y20540D01*
X6552Y20529D01*
X5471D01*
X5453Y20552D01*
X5478Y20602D01*
X5615D01*
Y20750D01*
X5397D01*
Y20850D01*
X5615D01*
Y20998D01*
X5550D01*
Y22900D01*
X5538Y22959D01*
X5505Y23008D01*
X5405Y23108D01*
X5361Y23137D01*
X5356Y23150D01*
X5309Y23212D01*
X5291Y23225D01*
Y23275D01*
X5309Y23288D01*
X5354Y23347D01*
X6824D01*
Y23105D01*
D02*
G37*
G36*
X10657Y19775D02*
Y18573D01*
X10537Y18453D01*
X10486D01*
X10474Y18482D01*
X10417Y18557D01*
X10342Y18614D01*
X10254Y18651D01*
X10160Y18663D01*
X9753D01*
X9504Y18913D01*
X9532Y18955D01*
X9546Y18949D01*
X9640Y18937D01*
X9850D01*
Y19300D01*
X9900D01*
Y19350D01*
X10517D01*
X10511Y19394D01*
X10474Y19482D01*
X10417Y19557D01*
X10414Y19598D01*
X10611Y19795D01*
X10657Y19775D01*
D02*
G37*
G36*
X31237Y19537D02*
Y18222D01*
X31232Y18221D01*
X31187Y18211D01*
X31085Y18289D01*
X30960Y18341D01*
X30880Y18352D01*
X30877Y18357D01*
Y19832D01*
X30923Y19851D01*
X31237Y19537D01*
D02*
G37*
G36*
X28647Y22898D02*
X28582D01*
Y22750D01*
X28800D01*
Y22650D01*
X28582D01*
Y22502D01*
X28647D01*
Y20540D01*
X28659Y20481D01*
X28692Y20432D01*
X28993Y20131D01*
X28974Y20084D01*
X26787D01*
X26728Y20073D01*
X26678Y20040D01*
X26645Y19990D01*
X26634Y19931D01*
Y18357D01*
X26627Y18347D01*
X26582Y18341D01*
X26457Y18289D01*
X26353Y18210D01*
X26330Y18214D01*
X26303Y18223D01*
Y20977D01*
X28514Y23188D01*
X28523Y23202D01*
X28647D01*
Y22898D01*
D02*
G37*
G36*
X14138Y18048D02*
X14144Y18048D01*
X14150Y18047D01*
X15002D01*
Y17856D01*
X15200D01*
Y17756D01*
X15002D01*
Y17588D01*
X15002D01*
X15022Y17538D01*
X14937Y17453D01*
X13486D01*
X13474Y17482D01*
X13417Y17557D01*
X13342Y17614D01*
X13254Y17651D01*
X13160Y17663D01*
X12950D01*
Y17300D01*
X12850D01*
Y17663D01*
X12640D01*
X12546Y17651D01*
X12458Y17614D01*
X12433Y17595D01*
X12383Y17620D01*
Y17980D01*
X12433Y18005D01*
X12458Y17986D01*
X12546Y17949D01*
X12640Y17937D01*
X13160D01*
X13254Y17949D01*
X13342Y17986D01*
X13417Y18043D01*
X13462Y18102D01*
X14138Y18048D01*
D02*
G37*
G36*
X18723Y17624D02*
X18723D01*
Y17588D01*
X18723D01*
Y17366D01*
X17385D01*
X17338Y17372D01*
Y17457D01*
X17890D01*
X17949Y17468D01*
X17998Y17501D01*
X18344Y17847D01*
X18723D01*
Y17624D01*
D02*
G37*
G36*
X31437Y17365D02*
Y8976D01*
X30705D01*
Y8960D01*
X30659Y8941D01*
X30416Y9183D01*
Y10435D01*
X30452Y10450D01*
X30531Y10510D01*
X30591Y10589D01*
X30608Y10629D01*
X30656Y10643D01*
X30665Y10637D01*
X30724Y10625D01*
X30782Y10637D01*
X30832Y10670D01*
X30865Y10719D01*
X30877Y10778D01*
Y14813D01*
X30872Y14838D01*
X30907Y14893D01*
X30960Y14900D01*
X31085Y14952D01*
X31192Y15034D01*
X31274Y15141D01*
X31326Y15266D01*
X31344Y15400D01*
X31326Y15534D01*
X31274Y15659D01*
X31192Y15766D01*
X31085Y15848D01*
X30960Y15900D01*
X30826Y15918D01*
X30574D01*
X30440Y15900D01*
X30315Y15848D01*
X30208Y15766D01*
X30126Y15659D01*
X30074Y15534D01*
X30056Y15400D01*
X30074Y15266D01*
X30126Y15141D01*
X30208Y15034D01*
X30315Y14952D01*
X30440Y14900D01*
X30537Y14887D01*
X30574Y14835D01*
X30574Y14832D01*
X30571Y14813D01*
Y11069D01*
X30521Y11054D01*
X30452Y11106D01*
X30361Y11144D01*
X30263Y11157D01*
X30165Y11144D01*
X30074Y11106D01*
X29995Y11046D01*
X29966Y11008D01*
X29916Y11025D01*
Y11185D01*
X29952Y11200D01*
X30031Y11260D01*
X30091Y11339D01*
X30129Y11430D01*
X30142Y11528D01*
X30129Y11626D01*
X30091Y11717D01*
X30031Y11796D01*
X29952Y11856D01*
X29861Y11894D01*
X29763Y11907D01*
X29665Y11894D01*
X29574Y11856D01*
X29495Y11796D01*
X29435Y11717D01*
X29397Y11626D01*
X29384Y11528D01*
X29397Y11430D01*
X29435Y11339D01*
X29495Y11260D01*
X29574Y11200D01*
X29610Y11185D01*
Y11025D01*
X29560Y11008D01*
X29531Y11046D01*
X29452Y11106D01*
X29361Y11144D01*
X29263Y11157D01*
X29165Y11144D01*
X29074Y11106D01*
X28995Y11046D01*
X28966Y11008D01*
X28916Y11025D01*
Y11185D01*
X28952Y11200D01*
X29031Y11260D01*
X29091Y11339D01*
X29129Y11430D01*
X29135Y11478D01*
X28763D01*
Y11578D01*
X29135D01*
X29129Y11626D01*
X29091Y11717D01*
X29031Y11796D01*
X28952Y11856D01*
X28916Y11871D01*
Y16540D01*
X29453Y17077D01*
X30244D01*
X30261Y17027D01*
X30208Y16987D01*
X30126Y16879D01*
X30074Y16754D01*
X30056Y16620D01*
X30074Y16486D01*
X30126Y16362D01*
X30208Y16254D01*
X30315Y16172D01*
X30440Y16120D01*
X30574Y16103D01*
X30826D01*
X30960Y16120D01*
X31085Y16172D01*
X31192Y16254D01*
X31274Y16362D01*
X31326Y16486D01*
X31344Y16620D01*
X31326Y16754D01*
X31274Y16879D01*
X31192Y16987D01*
X31110Y17050D01*
X31110Y17110D01*
X31128Y17122D01*
X31391Y17385D01*
X31437Y17365D01*
D02*
G37*
G36*
X11647Y23317D02*
Y14000D01*
X11659Y13941D01*
X11685Y13902D01*
X11646Y13870D01*
X11553Y13963D01*
Y17700D01*
X11541Y17759D01*
X11508Y17808D01*
X10916Y18400D01*
X10918Y18402D01*
X10951Y18451D01*
X10963Y18510D01*
Y22700D01*
X10951Y22759D01*
X10918Y22808D01*
X10818Y22908D01*
X10769Y22941D01*
X10710Y22953D01*
X10381D01*
X10364Y23003D01*
X10417Y23043D01*
X10474Y23118D01*
X10511Y23206D01*
X10523Y23300D01*
X10511Y23394D01*
X10474Y23482D01*
X10417Y23557D01*
X10342Y23614D01*
X10254Y23651D01*
X10160Y23663D01*
X9640D01*
X9546Y23651D01*
X9458Y23614D01*
X9383Y23557D01*
X9326Y23482D01*
X9289Y23394D01*
X9277Y23300D01*
X9289Y23206D01*
X9326Y23118D01*
X9383Y23043D01*
X9392Y23036D01*
X9381Y22982D01*
X9375Y22981D01*
X9093Y23263D01*
Y23430D01*
X9081Y23489D01*
X9048Y23538D01*
X8553Y24033D01*
Y26031D01*
X8795D01*
Y26103D01*
X8841Y26122D01*
X11647Y23317D01*
D02*
G37*
G36*
X30571Y18358D02*
X30440Y18341D01*
X30315Y18289D01*
X30208Y18207D01*
X30126Y18100D01*
X30074Y17975D01*
X30056Y17841D01*
X30074Y17707D01*
X30126Y17582D01*
X30208Y17475D01*
X30262Y17433D01*
X30245Y17383D01*
X29390D01*
X29331Y17371D01*
X29282Y17338D01*
X28655Y16711D01*
X28622Y16662D01*
X28610Y16603D01*
Y11871D01*
X28574Y11856D01*
X28495Y11796D01*
X28466Y11758D01*
X28416Y11775D01*
Y17227D01*
X28404Y17286D01*
X28371Y17335D01*
X28368Y17338D01*
X28319Y17371D01*
X28260Y17383D01*
X27296D01*
X27279Y17433D01*
X27334Y17475D01*
X27416Y17582D01*
X27468Y17707D01*
X27486Y17841D01*
X27468Y17975D01*
X27416Y18100D01*
X27334Y18207D01*
X27227Y18289D01*
X27102Y18341D01*
X26968Y18359D01*
X26940D01*
Y19779D01*
X30571D01*
Y18358D01*
D02*
G37*
G36*
X29610Y10531D02*
Y9967D01*
X29622Y9908D01*
X29655Y9859D01*
X29841Y9673D01*
Y9098D01*
X29650D01*
Y8900D01*
X29550D01*
Y9098D01*
X29434D01*
X29400Y9135D01*
X29416Y9486D01*
X29415Y9490D01*
X29416Y9493D01*
Y10435D01*
X29452Y10450D01*
X29531Y10510D01*
X29560Y10548D01*
X29610Y10531D01*
D02*
G37*
G36*
X28995Y10510D02*
X29074Y10450D01*
X29110Y10435D01*
Y9496D01*
X29056Y8298D01*
X28953D01*
Y8702D01*
X29018D01*
Y8850D01*
X28800D01*
Y8950D01*
X29018D01*
Y9098D01*
X28948D01*
X28916Y10249D01*
Y10531D01*
X28966Y10548D01*
X28995Y10510D01*
D02*
G37*
G36*
X30675Y8492D02*
X30705Y8472D01*
Y8224D01*
X30705D01*
Y8188D01*
X30705D01*
Y7653D01*
X29488D01*
X29483Y7659D01*
X29469Y7703D01*
X29708Y7942D01*
X29741Y7991D01*
X29753Y8050D01*
Y8702D01*
X30212D01*
Y8890D01*
X30258Y8909D01*
X30675Y8492D01*
D02*
G37*
G36*
X10447Y10003D02*
Y7370D01*
X10365D01*
X10130Y7135D01*
Y6882D01*
X10084Y6862D01*
X10053Y6887D01*
Y9937D01*
X10160D01*
X10254Y9949D01*
X10342Y9986D01*
X10397Y10028D01*
X10447Y10003D01*
D02*
G37*
%LPC*%
G36*
X16700Y34699D02*
X16597Y34685D01*
X16501Y34645D01*
X16418Y34582D01*
X16355Y34499D01*
X16315Y34403D01*
X16301Y34300D01*
X16315Y34197D01*
X16355Y34101D01*
X16418Y34018D01*
X16501Y33955D01*
X16597Y33915D01*
X16700Y33901D01*
X16803Y33915D01*
X16899Y33955D01*
X16982Y34018D01*
X17045Y34101D01*
X17085Y34197D01*
X17099Y34300D01*
X17085Y34403D01*
X17045Y34499D01*
X16982Y34582D01*
X16899Y34645D01*
X16803Y34685D01*
X16700Y34699D01*
D02*
G37*
G36*
Y33699D02*
X16597Y33685D01*
X16501Y33645D01*
X16418Y33582D01*
X16355Y33499D01*
X16315Y33403D01*
X16301Y33300D01*
X16315Y33197D01*
X16355Y33101D01*
X16418Y33018D01*
X16501Y32955D01*
X16597Y32915D01*
X16700Y32901D01*
X16803Y32915D01*
X16899Y32955D01*
X16982Y33018D01*
X17045Y33101D01*
X17085Y33197D01*
X17099Y33300D01*
X17085Y33403D01*
X17045Y33499D01*
X16982Y33582D01*
X16899Y33645D01*
X16803Y33685D01*
X16700Y33699D01*
D02*
G37*
G36*
X13247Y26347D02*
X13125D01*
Y26068D01*
X13464D01*
Y26131D01*
X13447Y26214D01*
X13400Y26284D01*
X13330Y26331D01*
X13247Y26347D01*
D02*
G37*
G36*
X13464Y25968D02*
X13125D01*
Y25689D01*
X13247D01*
X13330Y25705D01*
X13400Y25752D01*
X13447Y25823D01*
X13464Y25906D01*
Y25968D01*
D02*
G37*
G36*
X9850Y21663D02*
X9640D01*
X9546Y21651D01*
X9458Y21614D01*
X9383Y21557D01*
X9362Y21529D01*
X8548D01*
X8540Y21540D01*
X8470Y21594D01*
X8388Y21628D01*
X8350Y21633D01*
Y21300D01*
Y20967D01*
X8388Y20972D01*
X8470Y21006D01*
X8540Y21060D01*
X8548Y21071D01*
X9362D01*
X9383Y21043D01*
X9458Y20986D01*
X9546Y20949D01*
X9640Y20937D01*
X9850D01*
Y21300D01*
Y21663D01*
D02*
G37*
G36*
X10160D02*
X9950D01*
Y21350D01*
X10517D01*
X10511Y21394D01*
X10474Y21482D01*
X10417Y21557D01*
X10342Y21614D01*
X10254Y21651D01*
X10160Y21663D01*
D02*
G37*
G36*
X6750Y21633D02*
X6712Y21628D01*
X6630Y21594D01*
X6560Y21540D01*
X6506Y21470D01*
X6472Y21388D01*
X6467Y21350D01*
X6750D01*
Y21633D01*
D02*
G37*
G36*
X6850D02*
Y21300D01*
Y20967D01*
X6888Y20972D01*
X6970Y21006D01*
X7040Y21060D01*
X7048Y21071D01*
X8052D01*
X8060Y21060D01*
X8130Y21006D01*
X8212Y20972D01*
X8250Y20967D01*
Y21300D01*
Y21633D01*
X8212Y21628D01*
X8130Y21594D01*
X8060Y21540D01*
X8052Y21529D01*
X7048D01*
X7040Y21540D01*
X6970Y21594D01*
X6888Y21628D01*
X6850Y21633D01*
D02*
G37*
G36*
X6750Y21250D02*
X6467D01*
X6472Y21212D01*
X6506Y21130D01*
X6560Y21060D01*
X6630Y21006D01*
X6712Y20972D01*
X6750Y20967D01*
Y21250D01*
D02*
G37*
G36*
X10517Y19250D02*
X9950D01*
Y18937D01*
X10160D01*
X10254Y18949D01*
X10342Y18986D01*
X10417Y19043D01*
X10474Y19118D01*
X10511Y19206D01*
X10517Y19250D01*
D02*
G37*
%LPD*%
D12*
X26945Y25278D02*
X27929D01*
X26945D02*
Y29313D01*
Y32857D02*
Y34432D01*
X30882D01*
Y32857D02*
Y34432D01*
Y25278D02*
Y29313D01*
X26787Y10778D02*
X27771D01*
X26787D02*
Y14813D01*
Y18357D02*
Y19931D01*
X30724D01*
Y18357D02*
Y19931D01*
Y10778D02*
Y14813D01*
X15630Y26395D02*
Y29140D01*
X15500Y26265D02*
X15630Y26395D01*
X15055Y29715D02*
X15630Y29140D01*
X28800Y8050D02*
Y8100D01*
Y8490D01*
X15010Y24310D02*
Y24985D01*
X14970Y27800D02*
Y28400D01*
X28921Y23400D02*
Y26028D01*
X11490Y26018D02*
X12328D01*
X28800Y8490D02*
Y8900D01*
X16900Y26410D02*
X17045Y26265D01*
X31590Y8000D02*
Y22313D01*
X28506Y7500D02*
X31100D01*
X10600Y18300D02*
X10800D01*
X9900D02*
X10600D01*
X28921Y23400D02*
X29603D01*
X14950Y22000D02*
Y24250D01*
X16900Y17213D02*
X19118D01*
X16564D02*
X16900D01*
X17390Y17910D02*
X17500D01*
X16730D02*
X17390D01*
X16574D02*
X16730D01*
X15970Y17806D02*
X16470D01*
X15200D02*
X15970D01*
X15200Y16697D02*
Y17500D01*
X12328Y26018D02*
X12648D01*
X5397Y21000D02*
Y22900D01*
Y20800D02*
Y21000D01*
X8700Y27194D02*
X8860D01*
X8400D02*
X8700D01*
X17250Y19770D02*
Y20709D01*
X9190Y19590D02*
X9900Y20300D01*
X9190Y19010D02*
Y19590D01*
Y19010D02*
X9900Y18300D01*
X22620Y23400D02*
X28406D01*
X18220Y27800D02*
X22620Y23400D01*
X17523Y27800D02*
X18220D01*
X4900Y34900D02*
X6800D01*
X7263Y34437D01*
Y32674D02*
Y34437D01*
X14150Y18200D02*
X15200D01*
X12900Y18300D02*
X14150Y18200D01*
X8400Y22300D02*
X9900D01*
X7987Y22713D02*
X8400Y22300D01*
X7987Y22713D02*
Y23500D01*
X7263Y30948D02*
Y31926D01*
X5258Y32342D02*
X5458D01*
X4900Y32700D02*
X5258Y32342D01*
X9921Y26018D02*
X11490D01*
X12328D02*
X13510Y27200D01*
Y28290D01*
X9000Y32800D02*
X13510Y28290D01*
X15100Y20906D02*
X15200D01*
X14950Y21056D02*
Y22000D01*
X15350Y22400D01*
X16030D01*
X18550Y24920D01*
Y26322D01*
X17839Y27032D02*
X18550Y26322D01*
X17523Y27032D02*
X17839D01*
X28800Y23400D02*
X28921D01*
X28800Y20540D02*
Y22700D01*
Y20540D02*
X29200Y20140D01*
X30850D01*
X31390Y19600D01*
Y17600D02*
Y19600D01*
X31020Y17230D02*
X31390Y17600D01*
X29390Y17230D02*
X31020D01*
X28763Y16603D02*
X29390Y17230D01*
X28763Y11528D02*
Y16603D01*
Y10247D02*
Y11528D01*
Y10247D02*
X28800Y8900D01*
Y8100D02*
X28806D01*
X28800Y8050D02*
X29050Y7800D01*
X29350D01*
X29600Y8050D01*
Y8900D01*
X19118Y12683D02*
Y17213D01*
X18735Y12300D02*
X19118Y12683D01*
X12190Y15590D02*
X12900Y16300D01*
X12190Y15010D02*
Y15590D01*
Y15010D02*
X12900Y14300D01*
X15200Y16697D02*
X15497Y16400D01*
Y15300D02*
Y16400D01*
X9900Y21300D02*
X10610Y20590D01*
Y20010D02*
Y20590D01*
X9900Y19300D02*
X10610Y20010D01*
X10600Y5900D02*
Y6120D01*
X9900Y6820D02*
X10600Y6120D01*
X9900Y6820D02*
Y10300D01*
X14010Y26520D02*
X15200D01*
X13910Y26620D02*
X14010Y26520D01*
X13910Y26620D02*
Y28747D01*
X13725Y28932D02*
X13910Y28747D01*
X13725Y28932D02*
Y36415D01*
X14060Y36750D01*
X16150D01*
Y34750D02*
Y36750D01*
X15700Y34300D02*
X16150Y34750D01*
X12900Y11150D02*
Y11300D01*
X12190Y10440D02*
X12900Y11150D01*
X12190Y7310D02*
Y10440D01*
Y7310D02*
X12600Y6900D01*
X29994Y8900D02*
Y9736D01*
X29763Y9967D02*
X29994Y9736D01*
X29763Y9967D02*
Y11528D01*
X4613Y18000D02*
Y18300D01*
Y18000D02*
X4973Y17640D01*
X6240D01*
X6900Y18300D01*
X30421Y25278D02*
X31300Y24399D01*
Y23100D02*
Y24399D01*
X8700Y27194D02*
X8850Y27044D01*
Y26330D02*
Y27044D01*
Y26330D02*
X11800Y23380D01*
Y14000D02*
Y23380D01*
Y14000D02*
X12000Y13800D01*
X13370D01*
X13570Y13600D01*
Y13000D02*
Y13600D01*
X13460Y12890D02*
X13570Y13000D01*
X11870Y12890D02*
X13460D01*
X10600Y11620D02*
X11870Y12890D01*
X10600Y6900D02*
Y11620D01*
X15200Y26009D02*
X15630D01*
X15830Y26209D01*
Y29510D01*
X15255Y30085D02*
X15830Y29510D01*
X15255Y30085D02*
Y31855D01*
X15700Y32300D01*
X29263Y9493D02*
Y10778D01*
X29200Y8100D02*
X29263Y9493D01*
X7427Y17300D02*
X9900D01*
X6927Y16800D02*
X7427Y17300D01*
X6927Y15600D02*
Y16800D01*
X8400Y23970D02*
Y26406D01*
Y23970D02*
X8940Y23430D01*
Y23200D02*
Y23430D01*
Y23200D02*
X9340Y22800D01*
X10710D01*
X10810Y22700D01*
Y18510D02*
Y22700D01*
X10600Y18300D02*
X10810Y18510D01*
X29194Y22700D02*
X30210D01*
X31300Y22313D02*
X31590D01*
X31403Y7813D02*
X31590Y8000D01*
X31100Y7813D02*
X31403D01*
X17061Y20709D02*
X17250D01*
X17523Y27288D02*
X17935D01*
X18039Y27184D01*
X18456D01*
X18750Y26890D01*
Y23300D02*
Y26890D01*
X19750Y28040D02*
X19960Y27830D01*
X17200Y28040D02*
X19750D01*
X17090Y27930D02*
X17200Y28040D01*
X17090Y27654D02*
Y27930D01*
Y27654D02*
X17200Y27544D01*
X17523D01*
Y25753D02*
X17963D01*
X18150Y25940D01*
X12330Y17300D02*
X12900D01*
X12230Y17400D02*
X12330Y17300D01*
X12230Y17400D02*
Y25600D01*
X12648Y26018D01*
X13075D01*
X13860Y24400D02*
X14701Y25241D01*
X15200D01*
X28406Y7600D02*
Y8900D01*
Y7600D02*
X28506Y7500D01*
X31100D02*
Y7813D01*
X12970Y29290D02*
Y31010D01*
Y29290D02*
X13710Y28550D01*
Y26400D02*
Y28550D01*
Y26400D02*
X14357Y25753D01*
X15200D01*
X13987Y25497D02*
X15200D01*
X13882Y25602D02*
X13987Y25497D01*
X14389Y26776D02*
X15200D01*
X14110Y27055D02*
X14389Y26776D01*
X14110Y27055D02*
Y28831D01*
X13950Y28991D02*
X14110Y28831D01*
X13950Y28991D02*
Y32071D01*
X13959Y32080D01*
Y33824D01*
X14200Y34065D01*
X14465D01*
X15700Y35300D01*
X14610Y27032D02*
X15200D01*
X14350Y27292D02*
X14610Y27032D01*
X14350Y27292D02*
Y31680D01*
X14770Y27330D02*
Y28800D01*
Y27330D02*
X14812Y27288D01*
X15200D01*
X14360Y33580D02*
X14850Y33090D01*
Y29320D02*
Y33090D01*
Y29320D02*
X15170Y29000D01*
Y28600D02*
Y29000D01*
X14970Y28400D02*
X15170Y28600D01*
X14970Y27800D02*
X15200D01*
X15055Y32655D02*
X15700Y33300D01*
X15055Y29715D02*
Y32655D01*
X15200Y26265D02*
X15500D01*
X16700Y25497D02*
X17523D01*
X17231Y25241D02*
X17523D01*
X17080Y25090D02*
X17231Y25241D01*
X16540Y25090D02*
X17080D01*
X16230Y25400D02*
X16540Y25090D01*
X16230Y25400D02*
Y28770D01*
X17150Y29690D01*
Y31850D01*
X16700Y32300D02*
X17150Y31850D01*
X16700Y30920D02*
Y31300D01*
X16570Y30920D02*
X16700D01*
X16250Y30600D02*
X16570Y30920D01*
X16250Y30040D02*
Y30600D01*
X16030Y29820D02*
X16250Y30040D01*
X16030Y25200D02*
Y29820D01*
Y25200D02*
X16480Y24750D01*
X17105D01*
X17340Y24985D01*
X17523D01*
X16700Y35300D02*
X17350Y34650D01*
Y28790D02*
Y34650D01*
X16500Y27940D02*
X17350Y28790D01*
X16500Y26109D02*
Y27940D01*
Y26109D02*
X16600Y26009D01*
X17523D01*
X5400Y18300D02*
Y19550D01*
X4400Y20550D02*
X5400Y19550D01*
X4400Y20550D02*
Y20830D01*
X4800Y21230D01*
X5167D01*
X5397Y21000D01*
X17045Y26265D02*
X17523D01*
X10800Y18300D02*
X11400Y17700D01*
Y13900D02*
Y17700D01*
Y13900D02*
X12000Y13300D01*
X12900D01*
X16470Y17806D02*
X16574Y17910D01*
X17390D02*
Y18830D01*
X15314Y20906D02*
X17390Y18830D01*
X15200Y20906D02*
X15314D01*
X7263Y31926D02*
X8126D01*
X9000Y32800D01*
X30783Y8600D02*
X31100D01*
X30263Y9120D02*
X30783Y8600D01*
X30263Y9120D02*
Y10778D01*
X8180Y16300D02*
X9900D01*
X7880Y16000D02*
X8180Y16300D01*
X7880Y15600D02*
Y16000D01*
X15200Y21300D02*
X15539D01*
X16130Y20709D01*
X17061D01*
X11600Y6900D02*
Y11900D01*
X12000Y12300D01*
X12900D01*
X4900Y23000D02*
X5297D01*
X5397Y22900D01*
X12900Y17300D02*
X15000D01*
X15200Y17500D01*
Y17806D01*
X15970D02*
X16564Y17213D01*
X7400Y14810D02*
Y15600D01*
Y14810D02*
X7410Y14800D01*
X8210D01*
X8710Y15300D01*
X9900D01*
X28406Y23296D02*
Y23400D01*
X26150Y21040D02*
X28406Y23296D01*
X26150Y17480D02*
Y21040D01*
Y17480D02*
X26400Y17230D01*
X28260D01*
X28263Y17227D01*
Y10778D02*
Y17227D01*
X15010Y24985D02*
X15200D01*
X14950Y24250D02*
X15010Y24310D01*
X14950Y21056D02*
X15100Y20906D01*
X4450Y33150D02*
X4900Y32700D01*
X4450Y33150D02*
Y35450D01*
X4900Y35900D01*
X15200Y18200D02*
X17061D01*
X18281Y18000D02*
X19118D01*
X17890Y17609D02*
X18281Y18000D01*
X17061Y17609D02*
X17890D01*
X19118Y19528D02*
Y20313D01*
X17500Y17910D02*
X19118Y19528D01*
X16730Y17383D02*
Y17910D01*
Y17383D02*
X16900Y17213D01*
X28421Y24345D02*
Y25278D01*
X28406Y24330D02*
X28421Y24345D01*
X28406Y23400D02*
Y24330D01*
X28263Y9903D02*
Y10778D01*
Y9903D02*
X28406Y9760D01*
Y8900D02*
Y9760D01*
X15200Y27544D02*
Y27800D01*
X17523Y26520D02*
Y26776D01*
Y27032D01*
X28800Y22700D02*
Y23400D01*
X18735Y11565D02*
Y12300D01*
X18700Y11530D02*
X18735Y11565D01*
X18700Y10800D02*
Y11530D01*
X12900Y16300D02*
Y17300D01*
X9900Y10300D02*
Y11300D01*
Y12300D01*
Y13300D01*
Y14300D01*
Y15300D01*
X12900D02*
X15103D01*
X29921Y24746D02*
Y26028D01*
Y24746D02*
X29997Y24670D01*
Y23400D02*
Y24670D01*
X16294Y10800D02*
X18031D01*
X16294Y12300D02*
X18065D01*
X4900Y23500D02*
X7200D01*
X20397Y17213D02*
X20900D01*
X19610Y18000D02*
X20397Y17213D01*
X19118Y18000D02*
X19610D01*
X20397Y20313D02*
X20900D01*
X19610Y21100D02*
X20397Y20313D01*
X19118Y21100D02*
X19610D01*
X18180D02*
X19118D01*
X17980Y21300D02*
X18180Y21100D01*
X17061Y21300D02*
X17980D01*
X9921Y27786D02*
X13075D01*
X9452D02*
X9921D01*
X8860Y27194D02*
X9452Y27786D01*
X12900Y12300D02*
X15506D01*
X3200Y37600D02*
X3200Y4600D01*
X3200Y37600D02*
X32600D01*
X32600Y4600D01*
X3200D02*
X32600D01*
D20*
X17523Y24985D02*
D03*
Y25241D02*
D03*
Y25497D02*
D03*
Y25753D02*
D03*
Y26009D02*
D03*
Y26265D02*
D03*
Y26520D02*
D03*
Y26776D02*
D03*
Y27032D02*
D03*
Y27288D02*
D03*
Y27544D02*
D03*
Y27800D02*
D03*
X15200Y24985D02*
D03*
Y25241D02*
D03*
Y25497D02*
D03*
Y25753D02*
D03*
Y26009D02*
D03*
Y26265D02*
D03*
Y26520D02*
D03*
Y26776D02*
D03*
Y27032D02*
D03*
Y27288D02*
D03*
Y27544D02*
D03*
Y27800D02*
D03*
D21*
X13075Y27786D02*
D03*
X9921D02*
D03*
X13075Y26018D02*
D03*
X9921D02*
D03*
D22*
X6337Y32300D02*
D03*
X7263Y32674D02*
D03*
Y31926D02*
D03*
D23*
X6927Y15600D02*
D03*
X7400D02*
D03*
X7880D02*
D03*
D24*
X18065Y12300D02*
D03*
X18735D02*
D03*
X7569Y18300D02*
D03*
X6900D02*
D03*
X18031Y10800D02*
D03*
X18700D02*
D03*
D25*
X17061Y20709D02*
D03*
Y21300D02*
D03*
X17061Y18200D02*
D03*
Y17609D02*
D03*
D26*
X31300Y23100D02*
D03*
Y22313D02*
D03*
X8400Y26406D02*
D03*
Y27194D02*
D03*
X20900Y17213D02*
D03*
Y18000D02*
D03*
X19118Y17213D02*
D03*
Y18000D02*
D03*
X31100Y8600D02*
D03*
Y7813D02*
D03*
X20900Y20313D02*
D03*
Y21100D02*
D03*
X19118Y20313D02*
D03*
Y21100D02*
D03*
D27*
X15200Y20906D02*
D03*
Y21300D02*
D03*
Y17806D02*
D03*
Y18200D02*
D03*
D28*
X5003Y20800D02*
D03*
X5397D02*
D03*
X15103Y15300D02*
D03*
X15497D02*
D03*
X29994Y8900D02*
D03*
X29600D02*
D03*
X28800D02*
D03*
X28406D02*
D03*
X29200Y8100D02*
D03*
X28806D02*
D03*
X29997Y23400D02*
D03*
X29603D02*
D03*
X28800D02*
D03*
X28406D02*
D03*
X29194Y22700D02*
D03*
X28800D02*
D03*
D29*
X4613Y18300D02*
D03*
X5400D02*
D03*
X15506Y10800D02*
D03*
X16294D02*
D03*
X15506Y12300D02*
D03*
X16294D02*
D03*
X7200Y23500D02*
D03*
X7987D02*
D03*
D50*
X3600Y29800D02*
Y30900D01*
Y29800D02*
X4900Y28500D01*
X3600Y30900D02*
X4230Y31530D01*
X4730D01*
X4900Y31700D01*
Y28500D02*
X6994Y26406D01*
X8400D01*
X4900Y31700D02*
X5584D01*
X6184Y32300D01*
X6337D01*
X7569Y18300D02*
X9900D01*
X5003Y20800D02*
X5054Y20749D01*
Y20608D02*
Y20749D01*
Y20608D02*
X5362Y20300D01*
X6800D01*
X8300D01*
X9900D01*
X20900Y18000D02*
X23900D01*
X24500Y18600D01*
X6800Y21300D02*
X8300D01*
X9900D01*
X20900Y21100D02*
X23000D01*
X24500Y19600D01*
D51*
X6800Y20300D02*
D03*
Y21300D02*
D03*
X8300Y20300D02*
D03*
Y21300D02*
D03*
D52*
X28421Y25278D02*
D03*
X28263Y10778D02*
D03*
D53*
X30421Y25278D02*
D03*
X29421D02*
D03*
X28921Y26028D02*
D03*
X29921D02*
D03*
X30263Y10778D02*
D03*
X29263D02*
D03*
X28763Y11528D02*
D03*
X29763D02*
D03*
D54*
X30858Y32341D02*
D03*
Y31120D02*
D03*
Y29900D02*
D03*
X27000D02*
D03*
Y31120D02*
D03*
Y32341D02*
D03*
X30700Y17841D02*
D03*
Y16620D02*
D03*
Y15400D02*
D03*
X26842D02*
D03*
Y16620D02*
D03*
Y17841D02*
D03*
D55*
X15700Y36300D02*
D03*
X24500Y19600D02*
D03*
X4900Y28500D02*
D03*
Y31700D02*
D03*
X9000Y31800D02*
D03*
X4900Y34900D02*
D03*
D56*
X16700Y36300D02*
D03*
X15700Y35300D02*
D03*
X16700D02*
D03*
X15700Y34300D02*
D03*
X16700D02*
D03*
X15700Y33300D02*
D03*
X16700D02*
D03*
X15700Y32300D02*
D03*
X16700D02*
D03*
X15700Y31300D02*
D03*
X16700D02*
D03*
X15700Y30300D02*
D03*
X16700D02*
D03*
X24500Y18600D02*
D03*
X4900Y29500D02*
D03*
Y32700D02*
D03*
X9000Y32800D02*
D03*
X4900Y35900D02*
D03*
D57*
Y24000D02*
D03*
D58*
Y23500D02*
D03*
Y23000D02*
D03*
D59*
X12600Y6900D02*
D03*
Y5900D02*
D03*
X11600Y6900D02*
D03*
Y5900D02*
D03*
X10600Y6900D02*
D03*
Y5900D02*
D03*
D60*
X12900Y23300D02*
D03*
Y22300D02*
D03*
Y21300D02*
D03*
Y20300D02*
D03*
Y19300D02*
D03*
Y18300D02*
D03*
Y17300D02*
D03*
Y16300D02*
D03*
Y15300D02*
D03*
Y14300D02*
D03*
Y13300D02*
D03*
Y12300D02*
D03*
Y11300D02*
D03*
Y10300D02*
D03*
X9900D02*
D03*
Y11300D02*
D03*
Y12300D02*
D03*
Y13300D02*
D03*
Y14300D02*
D03*
Y15300D02*
D03*
Y16300D02*
D03*
Y17300D02*
D03*
Y18300D02*
D03*
Y19300D02*
D03*
Y20300D02*
D03*
Y21300D02*
D03*
Y22300D02*
D03*
Y23300D02*
D03*
D61*
X5458Y32342D02*
D03*
X16900Y26410D02*
D03*
X7263Y30948D02*
D03*
X30210Y22700D02*
D03*
X17250Y19770D02*
D03*
X18750Y23300D02*
D03*
X19960Y27830D02*
D03*
X18150Y25940D02*
D03*
X13860Y24400D02*
D03*
X12970Y31010D02*
D03*
X13882Y25602D02*
D03*
X14350Y31680D02*
D03*
X14770Y28800D02*
D03*
X14360Y33580D02*
D03*
X16700Y25497D02*
D03*
M02*
