G04*
G04 #@! TF.GenerationSoftware,Altium Limited,Altium Designer,19.0.10 (269)*
G04*
G04 Layer_Physical_Order=2*
G04 Layer_Color=16711680*
%FSLAX24Y24*%
%MOIN*%
G70*
G01*
G75*
%ADD12C,0.0100*%
%ADD51C,0.0472*%
%ADD52R,0.0551X0.0551*%
%ADD53C,0.0551*%
%ADD55R,0.0591X0.0591*%
%ADD56C,0.0591*%
%ADD57O,0.0787X0.0394*%
%ADD58O,0.0787X0.0394*%
%ADD59P,0.0801X8X202.5*%
%ADD60O,0.1040X0.0520*%
%ADD61C,0.0500*%
G36*
X32600Y4600D02*
X3200D01*
X3200Y37600D01*
X32600D01*
X32600Y4600D01*
D02*
G37*
%LPC*%
G36*
X4950Y36292D02*
Y35950D01*
X5292D01*
X5285Y36003D01*
X5245Y36099D01*
X5182Y36182D01*
X5099Y36245D01*
X5003Y36285D01*
X4950Y36292D01*
D02*
G37*
G36*
X4850D02*
X4797Y36285D01*
X4701Y36245D01*
X4618Y36182D01*
X4555Y36099D01*
X4515Y36003D01*
X4508Y35950D01*
X4850D01*
Y36292D01*
D02*
G37*
G36*
X5292Y35850D02*
X4950D01*
Y35508D01*
X5003Y35515D01*
X5099Y35555D01*
X5182Y35618D01*
X5245Y35701D01*
X5285Y35797D01*
X5292Y35850D01*
D02*
G37*
G36*
X4850D02*
X4508D01*
X4515Y35797D01*
X4555Y35701D01*
X4618Y35618D01*
X4701Y35555D01*
X4797Y35515D01*
X4850Y35508D01*
Y35850D01*
D02*
G37*
G36*
X5295Y35295D02*
X4505D01*
Y34505D01*
X5295D01*
Y35295D01*
D02*
G37*
G36*
X15700Y34699D02*
X15597Y34685D01*
X15501Y34645D01*
X15418Y34582D01*
X15355Y34499D01*
X15315Y34403D01*
X15301Y34300D01*
X15315Y34197D01*
X15355Y34101D01*
X15418Y34018D01*
X15501Y33955D01*
X15597Y33915D01*
X15700Y33901D01*
X15803Y33915D01*
X15899Y33955D01*
X15982Y34018D01*
X16045Y34101D01*
X16085Y34197D01*
X16099Y34300D01*
X16085Y34403D01*
X16045Y34499D01*
X15982Y34582D01*
X15899Y34645D01*
X15803Y34685D01*
X15700Y34699D01*
D02*
G37*
G36*
X14310Y33926D02*
X14269Y33921D01*
X14183Y33886D01*
X14110Y33830D01*
X14054Y33757D01*
X14019Y33671D01*
X14014Y33630D01*
X14310D01*
Y33926D01*
D02*
G37*
G36*
Y33530D02*
X14014D01*
X14019Y33489D01*
X14029Y33465D01*
X13517Y32953D01*
X9364D01*
X9345Y32999D01*
X9282Y33082D01*
X9199Y33145D01*
X9103Y33185D01*
X9050Y33192D01*
Y32800D01*
Y32408D01*
X9103Y32415D01*
X9199Y32455D01*
X9282Y32518D01*
X9345Y32601D01*
X9364Y32647D01*
X13580D01*
X13639Y32659D01*
X13688Y32692D01*
X14245Y33249D01*
X14269Y33239D01*
X14310Y33234D01*
Y33530D01*
D02*
G37*
G36*
X15700Y33699D02*
X15597Y33685D01*
X15501Y33645D01*
X15418Y33582D01*
X15355Y33499D01*
X15315Y33403D01*
X15301Y33300D01*
X15315Y33197D01*
X15355Y33101D01*
X15418Y33018D01*
X15501Y32955D01*
X15597Y32915D01*
X15700Y32901D01*
X15803Y32915D01*
X15899Y32955D01*
X15982Y33018D01*
X16045Y33101D01*
X16085Y33197D01*
X16099Y33300D01*
X16085Y33403D01*
X16045Y33499D01*
X15982Y33582D01*
X15899Y33645D01*
X15803Y33685D01*
X15700Y33699D01*
D02*
G37*
G36*
X8950Y33192D02*
X8897Y33185D01*
X8801Y33145D01*
X8718Y33082D01*
X8655Y32999D01*
X8615Y32903D01*
X8608Y32850D01*
X8950D01*
Y33192D01*
D02*
G37*
G36*
X4850Y33092D02*
X4797Y33085D01*
X4701Y33045D01*
X4618Y32982D01*
X4555Y32899D01*
X4515Y32803D01*
X4508Y32750D01*
X4850D01*
Y33092D01*
D02*
G37*
G36*
X8950Y32750D02*
X8608D01*
X8615Y32697D01*
X8655Y32601D01*
X8718Y32518D01*
X8801Y32455D01*
X8897Y32415D01*
X8950Y32408D01*
Y32750D01*
D02*
G37*
G36*
X5508Y32688D02*
Y32392D01*
X5805D01*
X5799Y32433D01*
X5764Y32518D01*
X5708Y32591D01*
X5635Y32648D01*
X5550Y32683D01*
X5508Y32688D01*
D02*
G37*
G36*
X4850Y32650D02*
X4508D01*
X4515Y32597D01*
X4555Y32501D01*
X4618Y32418D01*
X4701Y32355D01*
X4797Y32315D01*
X4850Y32308D01*
Y32650D01*
D02*
G37*
G36*
X4950Y33092D02*
Y32700D01*
Y32308D01*
X5003Y32315D01*
X5056Y32337D01*
X5110Y32305D01*
X5117Y32250D01*
X5153Y32165D01*
X5172Y32140D01*
X5150Y32095D01*
X4505D01*
Y31305D01*
X5295D01*
Y31985D01*
X5337Y32013D01*
X5367Y32001D01*
X5408Y31995D01*
Y32342D01*
Y32688D01*
X5367Y32683D01*
X5339Y32671D01*
X5298Y32708D01*
X5285Y32803D01*
X5245Y32899D01*
X5182Y32982D01*
X5099Y33045D01*
X5003Y33085D01*
X4950Y33092D01*
D02*
G37*
G36*
X30858Y32740D02*
X30755Y32726D01*
X30659Y32686D01*
X30576Y32623D01*
X30513Y32540D01*
X30473Y32444D01*
X30460Y32341D01*
X30473Y32238D01*
X30513Y32142D01*
X30576Y32059D01*
X30659Y31996D01*
X30755Y31956D01*
X30858Y31942D01*
X30961Y31956D01*
X31058Y31996D01*
X31140Y32059D01*
X31204Y32142D01*
X31243Y32238D01*
X31257Y32341D01*
X31243Y32444D01*
X31204Y32540D01*
X31140Y32623D01*
X31058Y32686D01*
X30961Y32726D01*
X30858Y32740D01*
D02*
G37*
G36*
X27000D02*
X26897Y32726D01*
X26801Y32686D01*
X26718Y32623D01*
X26655Y32540D01*
X26615Y32444D01*
X26601Y32341D01*
X26615Y32238D01*
X26655Y32142D01*
X26718Y32059D01*
X26801Y31996D01*
X26897Y31956D01*
X27000Y31942D01*
X27103Y31956D01*
X27199Y31996D01*
X27282Y32059D01*
X27345Y32142D01*
X27385Y32238D01*
X27399Y32341D01*
X27385Y32444D01*
X27345Y32540D01*
X27282Y32623D01*
X27199Y32686D01*
X27103Y32726D01*
X27000Y32740D01*
D02*
G37*
G36*
X9395Y32195D02*
X8605D01*
Y31405D01*
X9395D01*
Y32195D01*
D02*
G37*
G36*
X7313Y31294D02*
Y30998D01*
X7609D01*
X7604Y31039D01*
X7568Y31124D01*
X7512Y31197D01*
X7439Y31254D01*
X7354Y31289D01*
X7313Y31294D01*
D02*
G37*
G36*
X30858Y31519D02*
X30755Y31506D01*
X30659Y31466D01*
X30576Y31402D01*
X30513Y31320D01*
X30473Y31224D01*
X30460Y31120D01*
X30473Y31017D01*
X30513Y30921D01*
X30576Y30839D01*
X30659Y30775D01*
X30755Y30735D01*
X30858Y30722D01*
X30961Y30735D01*
X31058Y30775D01*
X31140Y30839D01*
X31204Y30921D01*
X31243Y31017D01*
X31257Y31120D01*
X31243Y31224D01*
X31204Y31320D01*
X31140Y31402D01*
X31058Y31466D01*
X30961Y31506D01*
X30858Y31519D01*
D02*
G37*
G36*
X27000D02*
X26897Y31506D01*
X26801Y31466D01*
X26718Y31402D01*
X26655Y31320D01*
X26615Y31224D01*
X26601Y31120D01*
X26615Y31017D01*
X26655Y30921D01*
X26718Y30839D01*
X26801Y30775D01*
X26897Y30735D01*
X27000Y30722D01*
X27103Y30735D01*
X27199Y30775D01*
X27282Y30839D01*
X27345Y30921D01*
X27385Y31017D01*
X27399Y31120D01*
X27385Y31224D01*
X27345Y31320D01*
X27282Y31402D01*
X27199Y31466D01*
X27103Y31506D01*
X27000Y31519D01*
D02*
G37*
G36*
X7609Y30898D02*
X7313D01*
Y30601D01*
X7354Y30607D01*
X7439Y30642D01*
X7512Y30698D01*
X7568Y30771D01*
X7604Y30856D01*
X7609Y30898D01*
D02*
G37*
G36*
X5805Y32292D02*
X5508D01*
Y31995D01*
X5550Y32001D01*
X5573Y32011D01*
X6744Y30840D01*
X6794Y30807D01*
X6852Y30795D01*
X6947D01*
X6957Y30771D01*
X7013Y30698D01*
X7086Y30642D01*
X7171Y30607D01*
X7213Y30601D01*
Y30948D01*
Y31294D01*
X7171Y31289D01*
X7086Y31254D01*
X7013Y31197D01*
X6957Y31124D01*
X6956Y31123D01*
X6901Y31115D01*
X5789Y32227D01*
X5799Y32250D01*
X5805Y32292D01*
D02*
G37*
G36*
X30858Y30299D02*
X30755Y30285D01*
X30659Y30245D01*
X30576Y30182D01*
X30513Y30099D01*
X30473Y30003D01*
X30460Y29900D01*
X30473Y29797D01*
X30513Y29701D01*
X30576Y29618D01*
X30659Y29555D01*
X30755Y29515D01*
X30858Y29501D01*
X30961Y29515D01*
X31058Y29555D01*
X31140Y29618D01*
X31204Y29701D01*
X31243Y29797D01*
X31257Y29900D01*
X31243Y30003D01*
X31204Y30099D01*
X31140Y30182D01*
X31058Y30245D01*
X30961Y30285D01*
X30858Y30299D01*
D02*
G37*
G36*
X27000D02*
X26897Y30285D01*
X26801Y30245D01*
X26718Y30182D01*
X26655Y30099D01*
X26615Y30003D01*
X26601Y29900D01*
X26615Y29797D01*
X26655Y29701D01*
X26718Y29618D01*
X26801Y29555D01*
X26897Y29515D01*
X27000Y29501D01*
X27103Y29515D01*
X27199Y29555D01*
X27282Y29618D01*
X27345Y29701D01*
X27385Y29797D01*
X27399Y29900D01*
X27385Y30003D01*
X27345Y30099D01*
X27282Y30182D01*
X27199Y30245D01*
X27103Y30285D01*
X27000Y30299D01*
D02*
G37*
G36*
X28971Y26400D02*
Y26078D01*
X29294D01*
X29287Y26126D01*
X29249Y26217D01*
X29189Y26296D01*
X29111Y26356D01*
X29019Y26394D01*
X28971Y26400D01*
D02*
G37*
G36*
X28871D02*
X28823Y26394D01*
X28732Y26356D01*
X28653Y26296D01*
X28593Y26217D01*
X28555Y26126D01*
X28549Y26078D01*
X28871D01*
Y26400D01*
D02*
G37*
G36*
X29294Y25978D02*
X28971D01*
Y25656D01*
X29019Y25662D01*
X29111Y25700D01*
X29189Y25760D01*
X29249Y25839D01*
X29287Y25930D01*
X29294Y25978D01*
D02*
G37*
G36*
X28871D02*
X28549D01*
X28555Y25930D01*
X28593Y25839D01*
X28653Y25760D01*
X28727Y25704D01*
X28727Y25687D01*
X28713Y25654D01*
X28046D01*
Y24902D01*
X28759D01*
X28779Y24852D01*
X25790Y21863D01*
X12340D01*
X12281Y21851D01*
X12232Y21818D01*
X12122Y21708D01*
X12089Y21659D01*
X12077Y21600D01*
Y20400D01*
X12089Y20341D01*
X12122Y20292D01*
X12222Y20192D01*
X12271Y20159D01*
X12312Y20151D01*
X12326Y20118D01*
X12383Y20043D01*
X12458Y19986D01*
X12546Y19949D01*
X12640Y19937D01*
X13160D01*
X13254Y19949D01*
X13342Y19986D01*
X13417Y20043D01*
X13474Y20118D01*
X13511Y20206D01*
X13523Y20300D01*
X13511Y20394D01*
X13474Y20482D01*
X13417Y20557D01*
X13342Y20614D01*
X13254Y20651D01*
X13160Y20663D01*
X12640D01*
X12546Y20651D01*
X12458Y20614D01*
X12433Y20595D01*
X12383Y20620D01*
Y20980D01*
X12433Y21005D01*
X12458Y20986D01*
X12546Y20949D01*
X12640Y20937D01*
X13160D01*
X13254Y20949D01*
X13342Y20986D01*
X13417Y21043D01*
X13474Y21118D01*
X13486Y21147D01*
X28737D01*
X29110Y20774D01*
Y11775D01*
X29060Y11758D01*
X29031Y11796D01*
X28952Y11856D01*
X28861Y11894D01*
X28813Y11900D01*
Y11528D01*
Y11156D01*
X28861Y11162D01*
X28952Y11200D01*
X29031Y11260D01*
X29060Y11298D01*
X29110Y11281D01*
Y11121D01*
X29074Y11106D01*
X28995Y11046D01*
X28935Y10967D01*
X28897Y10876D01*
X28884Y10778D01*
X28897Y10680D01*
X28935Y10589D01*
X28995Y10510D01*
X29074Y10450D01*
X29165Y10412D01*
X29263Y10399D01*
X29361Y10412D01*
X29452Y10450D01*
X29531Y10510D01*
X29591Y10589D01*
X29629Y10680D01*
X29642Y10778D01*
X29629Y10876D01*
X29591Y10967D01*
X29531Y11046D01*
X29452Y11106D01*
X29416Y11121D01*
Y11281D01*
X29466Y11298D01*
X29495Y11260D01*
X29574Y11200D01*
X29665Y11162D01*
X29763Y11149D01*
X29861Y11162D01*
X29952Y11200D01*
X30031Y11260D01*
X30091Y11339D01*
X30129Y11430D01*
X30142Y11528D01*
X30129Y11626D01*
X30091Y11717D01*
X30031Y11796D01*
X29952Y11856D01*
X29861Y11894D01*
X29763Y11907D01*
X29665Y11894D01*
X29574Y11856D01*
X29495Y11796D01*
X29466Y11758D01*
X29416Y11775D01*
Y20837D01*
X29404Y20896D01*
X29371Y20945D01*
X28908Y21408D01*
X28859Y21441D01*
X28800Y21453D01*
X13486D01*
X13474Y21482D01*
X13455Y21507D01*
X13480Y21557D01*
X25853D01*
X25912Y21569D01*
X25961Y21602D01*
X29287Y24927D01*
X29323Y24912D01*
X29421Y24899D01*
X29519Y24912D01*
X29556Y24927D01*
X30057Y24426D01*
Y23015D01*
X30033Y23006D01*
X29960Y22950D01*
X29904Y22877D01*
X29869Y22791D01*
X29857Y22700D01*
X29869Y22609D01*
X29904Y22523D01*
X29960Y22450D01*
X30033Y22394D01*
X30119Y22359D01*
X30210Y22347D01*
X30301Y22359D01*
X30387Y22394D01*
X30460Y22450D01*
X30516Y22523D01*
X30551Y22609D01*
X30563Y22700D01*
X30551Y22791D01*
X30516Y22877D01*
X30460Y22950D01*
X30387Y23006D01*
X30363Y23015D01*
Y24489D01*
X30351Y24548D01*
X30318Y24597D01*
X29772Y25143D01*
X29787Y25180D01*
X29800Y25278D01*
X29787Y25376D01*
X29749Y25467D01*
X29689Y25546D01*
X29611Y25606D01*
X29519Y25644D01*
X29421Y25657D01*
X29323Y25644D01*
X29232Y25606D01*
X29153Y25546D01*
X29093Y25467D01*
X29055Y25376D01*
X29042Y25278D01*
X29055Y25180D01*
X29070Y25143D01*
X28847Y24920D01*
X28797Y24941D01*
Y25619D01*
X28803Y25628D01*
X28844Y25659D01*
X28871Y25656D01*
Y25978D01*
D02*
G37*
G36*
X29921Y26407D02*
X29823Y26394D01*
X29732Y26356D01*
X29653Y26296D01*
X29593Y26217D01*
X29555Y26126D01*
X29542Y26028D01*
X29555Y25930D01*
X29593Y25839D01*
X29653Y25760D01*
X29732Y25700D01*
X29823Y25662D01*
X29921Y25649D01*
X30019Y25662D01*
X30111Y25700D01*
X30189Y25760D01*
X30249Y25839D01*
X30287Y25930D01*
X30300Y26028D01*
X30287Y26126D01*
X30249Y26217D01*
X30189Y26296D01*
X30111Y26356D01*
X30019Y26394D01*
X29921Y26407D01*
D02*
G37*
G36*
X17800Y36933D02*
X16400D01*
X16341Y36921D01*
X16292Y36888D01*
X16142Y36738D01*
X16133Y36725D01*
X16095Y36695D01*
X16059Y36695D01*
X15305D01*
Y36121D01*
X14652Y35468D01*
X14619Y35419D01*
X14607Y35360D01*
Y33888D01*
X14562Y33866D01*
X14537Y33886D01*
X14451Y33921D01*
X14410Y33926D01*
Y33580D01*
Y33234D01*
X14451Y33239D01*
X14537Y33274D01*
X14562Y33294D01*
X14607Y33272D01*
Y32153D01*
X14465Y32011D01*
X14441Y32021D01*
X14350Y32033D01*
X14259Y32021D01*
X14173Y31986D01*
X14100Y31930D01*
X14044Y31857D01*
X14009Y31771D01*
X13997Y31680D01*
X14009Y31589D01*
X14044Y31503D01*
X14100Y31430D01*
X14173Y31374D01*
X14259Y31339D01*
X14350Y31327D01*
X14441Y31339D01*
X14527Y31374D01*
X14600Y31430D01*
X14656Y31503D01*
X14691Y31589D01*
X14703Y31680D01*
X14691Y31771D01*
X14681Y31795D01*
X14868Y31982D01*
X14901Y32031D01*
X14913Y32090D01*
Y35297D01*
X15521Y35905D01*
X16095Y35905D01*
X16097Y35855D01*
Y35505D01*
X16047Y35495D01*
X16045Y35499D01*
X15982Y35582D01*
X15899Y35645D01*
X15803Y35685D01*
X15700Y35699D01*
X15597Y35685D01*
X15501Y35645D01*
X15418Y35582D01*
X15355Y35499D01*
X15315Y35403D01*
X15301Y35300D01*
X15315Y35197D01*
X15355Y35101D01*
X15418Y35018D01*
X15501Y34955D01*
X15597Y34915D01*
X15700Y34901D01*
X15803Y34915D01*
X15899Y34955D01*
X15982Y35018D01*
X16045Y35101D01*
X16047Y35105D01*
X16097Y35095D01*
Y34750D01*
X16109Y34691D01*
X16142Y34642D01*
X16334Y34450D01*
X16315Y34403D01*
X16301Y34300D01*
X16315Y34197D01*
X16355Y34101D01*
X16418Y34018D01*
X16501Y33955D01*
X16597Y33915D01*
X16700Y33901D01*
X16803Y33915D01*
X16899Y33955D01*
X16982Y34018D01*
X17045Y34101D01*
X17085Y34197D01*
X17099Y34300D01*
X17085Y34403D01*
X17045Y34499D01*
X16982Y34582D01*
X16899Y34645D01*
X16803Y34685D01*
X16700Y34699D01*
X16597Y34685D01*
X16550Y34666D01*
X16403Y34813D01*
Y34967D01*
X16453Y34991D01*
X16501Y34955D01*
X16597Y34915D01*
X16700Y34901D01*
X16803Y34915D01*
X16899Y34955D01*
X16982Y35018D01*
X17045Y35101D01*
X17085Y35197D01*
X17099Y35300D01*
X17085Y35403D01*
X17045Y35499D01*
X16982Y35582D01*
X16899Y35645D01*
X16803Y35685D01*
X16700Y35699D01*
X16597Y35685D01*
X16501Y35645D01*
X16453Y35609D01*
X16403Y35633D01*
Y35967D01*
X16453Y35991D01*
X16501Y35955D01*
X16597Y35915D01*
X16700Y35901D01*
X16803Y35915D01*
X16850Y35934D01*
X17347Y35437D01*
Y27073D01*
X17015Y26741D01*
X16991Y26751D01*
X16900Y26763D01*
X16809Y26751D01*
X16756Y26729D01*
X16728Y26772D01*
X16808Y26852D01*
X16841Y26901D01*
X16853Y26960D01*
Y29936D01*
X16899Y29955D01*
X16982Y30018D01*
X17045Y30101D01*
X17085Y30197D01*
X17099Y30300D01*
X17085Y30403D01*
X17045Y30499D01*
X16982Y30582D01*
X16899Y30645D01*
X16803Y30685D01*
X16700Y30699D01*
X16597Y30685D01*
X16501Y30645D01*
X16418Y30582D01*
X16355Y30499D01*
X16353Y30495D01*
X16303Y30505D01*
Y31095D01*
X16353Y31105D01*
X16355Y31101D01*
X16418Y31018D01*
X16501Y30955D01*
X16597Y30915D01*
X16700Y30901D01*
X16803Y30915D01*
X16899Y30955D01*
X16982Y31018D01*
X17045Y31101D01*
X17085Y31197D01*
X17099Y31300D01*
X17085Y31403D01*
X17045Y31499D01*
X16982Y31582D01*
X16899Y31645D01*
X16803Y31685D01*
X16700Y31699D01*
X16597Y31685D01*
X16501Y31645D01*
X16418Y31582D01*
X16355Y31499D01*
X16353Y31495D01*
X16303Y31505D01*
Y32095D01*
X16353Y32105D01*
X16355Y32101D01*
X16418Y32018D01*
X16501Y31955D01*
X16597Y31915D01*
X16700Y31901D01*
X16803Y31915D01*
X16899Y31955D01*
X16982Y32018D01*
X17045Y32101D01*
X17085Y32197D01*
X17099Y32300D01*
X17085Y32403D01*
X17045Y32499D01*
X16982Y32582D01*
X16899Y32645D01*
X16803Y32685D01*
X16700Y32699D01*
X16597Y32685D01*
X16501Y32645D01*
X16418Y32582D01*
X16355Y32499D01*
X16353Y32495D01*
X16303Y32505D01*
Y32687D01*
X16550Y32934D01*
X16597Y32915D01*
X16700Y32901D01*
X16803Y32915D01*
X16899Y32955D01*
X16982Y33018D01*
X17045Y33101D01*
X17085Y33197D01*
X17099Y33300D01*
X17085Y33403D01*
X17045Y33499D01*
X16982Y33582D01*
X16899Y33645D01*
X16803Y33685D01*
X16700Y33699D01*
X16597Y33685D01*
X16501Y33645D01*
X16418Y33582D01*
X16355Y33499D01*
X16315Y33403D01*
X16301Y33300D01*
X16315Y33197D01*
X16334Y33150D01*
X16042Y32858D01*
X16009Y32809D01*
X15997Y32750D01*
Y32633D01*
X15947Y32609D01*
X15899Y32645D01*
X15803Y32685D01*
X15700Y32699D01*
X15597Y32685D01*
X15501Y32645D01*
X15418Y32582D01*
X15355Y32499D01*
X15315Y32403D01*
X15301Y32300D01*
X15315Y32197D01*
X15355Y32101D01*
X15418Y32018D01*
X15501Y31955D01*
X15597Y31915D01*
X15700Y31901D01*
X15803Y31915D01*
X15899Y31955D01*
X15947Y31991D01*
X15997Y31967D01*
Y31633D01*
X15947Y31609D01*
X15899Y31645D01*
X15803Y31685D01*
X15700Y31699D01*
X15597Y31685D01*
X15501Y31645D01*
X15418Y31582D01*
X15355Y31499D01*
X15315Y31403D01*
X15301Y31300D01*
X15313Y31213D01*
X15281Y31163D01*
X13285D01*
X13276Y31187D01*
X13220Y31260D01*
X13147Y31316D01*
X13061Y31351D01*
X12970Y31363D01*
X12879Y31351D01*
X12793Y31316D01*
X12720Y31260D01*
X12664Y31187D01*
X12629Y31101D01*
X12617Y31010D01*
X12629Y30919D01*
X12664Y30833D01*
X12720Y30760D01*
X12793Y30704D01*
X12879Y30669D01*
X12970Y30657D01*
X13061Y30669D01*
X13147Y30704D01*
X13220Y30760D01*
X13276Y30833D01*
X13285Y30857D01*
X15410D01*
X15469Y30869D01*
X15518Y30902D01*
X15550Y30934D01*
X15597Y30915D01*
X15700Y30901D01*
X15803Y30915D01*
X15899Y30955D01*
X15947Y30991D01*
X15997Y30967D01*
Y30633D01*
X15947Y30609D01*
X15899Y30645D01*
X15803Y30685D01*
X15700Y30699D01*
X15597Y30685D01*
X15501Y30645D01*
X15418Y30582D01*
X15355Y30499D01*
X15315Y30403D01*
X15301Y30300D01*
X15315Y30197D01*
X15334Y30150D01*
X15202Y30018D01*
X15169Y29969D01*
X15157Y29910D01*
Y28911D01*
X15107Y28901D01*
X15076Y28977D01*
X15020Y29050D01*
X14947Y29106D01*
X14861Y29141D01*
X14770Y29153D01*
X14679Y29141D01*
X14593Y29106D01*
X14520Y29050D01*
X14464Y28977D01*
X14429Y28891D01*
X14417Y28800D01*
X14429Y28709D01*
X14439Y28685D01*
X11292Y25538D01*
X11259Y25489D01*
X11247Y25430D01*
Y23963D01*
X10737Y23453D01*
X10486D01*
X10474Y23482D01*
X10417Y23557D01*
X10342Y23614D01*
X10254Y23651D01*
X10160Y23663D01*
X9640D01*
X9546Y23651D01*
X9458Y23614D01*
X9383Y23557D01*
X9326Y23482D01*
X9289Y23394D01*
X9277Y23300D01*
X9289Y23206D01*
X9326Y23118D01*
X9383Y23043D01*
X9458Y22986D01*
X9546Y22949D01*
X9640Y22937D01*
X10160D01*
X10254Y22949D01*
X10342Y22986D01*
X10417Y23043D01*
X10474Y23118D01*
X10486Y23147D01*
X10800D01*
X10859Y23159D01*
X10908Y23192D01*
X11508Y23792D01*
X11541Y23841D01*
X11553Y23900D01*
Y25367D01*
X14655Y28469D01*
X14679Y28459D01*
X14770Y28447D01*
X14861Y28459D01*
X14947Y28494D01*
X15020Y28550D01*
X15076Y28623D01*
X15107Y28699D01*
X15157Y28689D01*
Y27093D01*
X13997Y25933D01*
X13973Y25943D01*
X13882Y25955D01*
X13791Y25943D01*
X13705Y25908D01*
X13632Y25852D01*
X13576Y25778D01*
X13541Y25693D01*
X13529Y25602D01*
X13541Y25511D01*
X13576Y25425D01*
X13632Y25352D01*
X13705Y25296D01*
X13791Y25261D01*
X13882Y25249D01*
X13973Y25261D01*
X14058Y25296D01*
X14132Y25352D01*
X14188Y25425D01*
X14223Y25511D01*
X14235Y25602D01*
X14223Y25693D01*
X14213Y25717D01*
X15418Y26922D01*
X15451Y26971D01*
X15463Y27030D01*
Y29847D01*
X15550Y29934D01*
X15597Y29915D01*
X15700Y29901D01*
X15803Y29915D01*
X15899Y29955D01*
X15947Y29991D01*
X15997Y29967D01*
Y26047D01*
X16009Y25988D01*
X16042Y25939D01*
X16369Y25612D01*
X16359Y25588D01*
X16347Y25497D01*
X16359Y25405D01*
X16394Y25320D01*
X16450Y25247D01*
X16523Y25191D01*
X16609Y25156D01*
X16700Y25144D01*
X16791Y25156D01*
X16877Y25191D01*
X16902Y25211D01*
X16947Y25189D01*
Y24863D01*
X16637Y24553D01*
X14175D01*
X14166Y24577D01*
X14110Y24650D01*
X14037Y24706D01*
X13951Y24741D01*
X13860Y24753D01*
X13769Y24741D01*
X13683Y24706D01*
X13610Y24650D01*
X13554Y24577D01*
X13519Y24491D01*
X13507Y24400D01*
X13519Y24309D01*
X13554Y24223D01*
X13610Y24150D01*
X13683Y24094D01*
X13769Y24059D01*
X13860Y24047D01*
X13951Y24059D01*
X14037Y24094D01*
X14110Y24150D01*
X14166Y24223D01*
X14175Y24247D01*
X16700D01*
X16759Y24259D01*
X16808Y24292D01*
X17208Y24692D01*
X17241Y24741D01*
X17253Y24800D01*
Y25800D01*
X17241Y25859D01*
X17208Y25908D01*
X17063Y26054D01*
X17071Y26094D01*
X17080Y26107D01*
X17150Y26160D01*
X17206Y26233D01*
X17241Y26319D01*
X17253Y26410D01*
X17241Y26501D01*
X17231Y26525D01*
X17608Y26902D01*
X17641Y26951D01*
X17653Y27010D01*
Y35500D01*
X17641Y35559D01*
X17608Y35608D01*
X17066Y36150D01*
X17085Y36197D01*
X17099Y36300D01*
X17085Y36403D01*
X17045Y36499D01*
X16986Y36577D01*
X16994Y36618D01*
X16997Y36627D01*
X17737D01*
X17997Y36367D01*
Y26255D01*
X17973Y26246D01*
X17900Y26190D01*
X17844Y26117D01*
X17809Y26031D01*
X17797Y25940D01*
X17809Y25849D01*
X17844Y25763D01*
X17900Y25690D01*
X17973Y25634D01*
X18059Y25599D01*
X18150Y25587D01*
X18241Y25599D01*
X18327Y25634D01*
X18400Y25690D01*
X18456Y25763D01*
X18491Y25849D01*
X18503Y25940D01*
X18491Y26031D01*
X18456Y26117D01*
X18400Y26190D01*
X18327Y26246D01*
X18303Y26255D01*
Y36430D01*
X18291Y36489D01*
X18258Y36538D01*
X17908Y36888D01*
X17859Y36921D01*
X17800Y36933D01*
D02*
G37*
G36*
X30421Y25657D02*
X30323Y25644D01*
X30232Y25606D01*
X30153Y25546D01*
X30093Y25467D01*
X30055Y25376D01*
X30042Y25278D01*
X30055Y25180D01*
X30093Y25089D01*
X30153Y25010D01*
X30232Y24950D01*
X30323Y24912D01*
X30421Y24899D01*
X30519Y24912D01*
X30611Y24950D01*
X30689Y25010D01*
X30749Y25089D01*
X30787Y25180D01*
X30800Y25278D01*
X30787Y25376D01*
X30749Y25467D01*
X30689Y25546D01*
X30611Y25606D01*
X30519Y25644D01*
X30421Y25657D01*
D02*
G37*
G36*
X13160Y23663D02*
X12640D01*
X12546Y23651D01*
X12458Y23614D01*
X12383Y23557D01*
X12326Y23482D01*
X12289Y23394D01*
X12277Y23300D01*
X12289Y23206D01*
X12326Y23118D01*
X12383Y23043D01*
X12458Y22986D01*
X12546Y22949D01*
X12640Y22937D01*
X13160D01*
X13254Y22949D01*
X13342Y22986D01*
X13417Y23043D01*
X13474Y23118D01*
X13486Y23147D01*
X18435D01*
X18444Y23123D01*
X18500Y23050D01*
X18573Y22994D01*
X18659Y22959D01*
X18750Y22947D01*
X18841Y22959D01*
X18927Y22994D01*
X19000Y23050D01*
X19056Y23123D01*
X19091Y23209D01*
X19103Y23300D01*
X19091Y23391D01*
X19056Y23477D01*
X19000Y23550D01*
X18927Y23606D01*
X18841Y23641D01*
X18750Y23653D01*
X18659Y23641D01*
X18573Y23606D01*
X18500Y23550D01*
X18444Y23477D01*
X18435Y23453D01*
X13486D01*
X13474Y23482D01*
X13417Y23557D01*
X13342Y23614D01*
X13254Y23651D01*
X13160Y23663D01*
D02*
G37*
G36*
X4850Y22950D02*
X4410D01*
X4414Y22923D01*
X4444Y22850D01*
X4491Y22788D01*
X4553Y22741D01*
X4626Y22711D01*
X4703Y22701D01*
X4850D01*
Y22950D01*
D02*
G37*
G36*
X19960Y28183D02*
X19869Y28171D01*
X19783Y28136D01*
X19710Y28080D01*
X19654Y28007D01*
X19619Y27921D01*
X19607Y27830D01*
X19619Y27739D01*
X19654Y27653D01*
X19710Y27580D01*
X19783Y27524D01*
X19807Y27515D01*
Y22863D01*
X19397Y22453D01*
X13486D01*
X13474Y22482D01*
X13417Y22557D01*
X13342Y22614D01*
X13254Y22651D01*
X13160Y22663D01*
X12640D01*
X12546Y22651D01*
X12458Y22614D01*
X12383Y22557D01*
X12326Y22482D01*
X12289Y22394D01*
X12277Y22300D01*
X12289Y22206D01*
X12326Y22118D01*
X12383Y22043D01*
X12458Y21986D01*
X12546Y21949D01*
X12640Y21937D01*
X13160D01*
X13254Y21949D01*
X13342Y21986D01*
X13417Y22043D01*
X13474Y22118D01*
X13486Y22147D01*
X19460D01*
X19519Y22159D01*
X19568Y22192D01*
X20068Y22692D01*
X20101Y22741D01*
X20113Y22800D01*
Y27515D01*
X20137Y27524D01*
X20210Y27580D01*
X20266Y27653D01*
X20301Y27739D01*
X20313Y27830D01*
X20301Y27921D01*
X20266Y28007D01*
X20210Y28080D01*
X20137Y28136D01*
X20051Y28171D01*
X19960Y28183D01*
D02*
G37*
G36*
X10160Y22663D02*
X9640D01*
X9546Y22651D01*
X9458Y22614D01*
X9383Y22557D01*
X9326Y22482D01*
X9289Y22394D01*
X9277Y22300D01*
X9289Y22206D01*
X9326Y22118D01*
X9383Y22043D01*
X9458Y21986D01*
X9546Y21949D01*
X9640Y21937D01*
X10160D01*
X10254Y21949D01*
X10342Y21986D01*
X10417Y22043D01*
X10474Y22118D01*
X10511Y22206D01*
X10523Y22300D01*
X10511Y22394D01*
X10474Y22482D01*
X10417Y22557D01*
X10342Y22614D01*
X10254Y22651D01*
X10160Y22663D01*
D02*
G37*
G36*
X8350Y21633D02*
Y21350D01*
X8633D01*
X8628Y21388D01*
X8594Y21470D01*
X8540Y21540D01*
X8470Y21594D01*
X8388Y21628D01*
X8350Y21633D01*
D02*
G37*
G36*
X10160Y21663D02*
X9950D01*
Y21350D01*
X10517D01*
X10511Y21394D01*
X10474Y21482D01*
X10417Y21557D01*
X10342Y21614D01*
X10254Y21651D01*
X10160Y21663D01*
D02*
G37*
G36*
X9850D02*
X9640D01*
X9546Y21651D01*
X9458Y21614D01*
X9383Y21557D01*
X9326Y21482D01*
X9289Y21394D01*
X9283Y21350D01*
X9850D01*
Y21663D01*
D02*
G37*
G36*
X8250Y21633D02*
X8212Y21628D01*
X8130Y21594D01*
X8060Y21540D01*
X8006Y21470D01*
X7972Y21388D01*
X7967Y21350D01*
X8250D01*
Y21633D01*
D02*
G37*
G36*
X4900Y29899D02*
X4797Y29885D01*
X4701Y29845D01*
X4618Y29782D01*
X4555Y29699D01*
X4515Y29603D01*
X4501Y29500D01*
X4515Y29397D01*
X4555Y29301D01*
X4618Y29218D01*
X4701Y29155D01*
X4797Y29115D01*
X4900Y29101D01*
X5003Y29115D01*
X5099Y29155D01*
X5147Y29191D01*
X5197Y29167D01*
Y28895D01*
X4505D01*
Y28105D01*
X5197D01*
Y24513D01*
X4983Y24299D01*
X4703D01*
X4626Y24289D01*
X4553Y24259D01*
X4491Y24212D01*
X4444Y24150D01*
X4414Y24077D01*
X4404Y24000D01*
X4414Y23923D01*
X4444Y23850D01*
X4491Y23788D01*
X4509Y23775D01*
Y23725D01*
X4491Y23712D01*
X4444Y23650D01*
X4414Y23577D01*
X4404Y23500D01*
X4414Y23423D01*
X4444Y23350D01*
X4491Y23288D01*
X4509Y23275D01*
Y23225D01*
X4491Y23212D01*
X4444Y23150D01*
X4414Y23077D01*
X4410Y23050D01*
X4900D01*
Y23000D01*
X4950D01*
Y22701D01*
X5097D01*
X5174Y22711D01*
X5247Y22741D01*
X5309Y22788D01*
X5354Y22847D01*
X6337D01*
X6647Y22537D01*
Y21601D01*
X6630Y21594D01*
X6560Y21540D01*
X6506Y21470D01*
X6472Y21388D01*
X6467Y21350D01*
X6800D01*
X7133D01*
X7128Y21388D01*
X7094Y21470D01*
X7040Y21540D01*
X6970Y21594D01*
X6953Y21601D01*
Y22600D01*
X6941Y22659D01*
X6908Y22708D01*
X6508Y23108D01*
X6459Y23141D01*
X6400Y23153D01*
X5354D01*
X5309Y23212D01*
X5291Y23225D01*
Y23275D01*
X5309Y23288D01*
X5356Y23350D01*
X5386Y23423D01*
X5396Y23500D01*
X5386Y23577D01*
X5356Y23650D01*
X5309Y23712D01*
X5291Y23725D01*
Y23775D01*
X5309Y23788D01*
X5356Y23850D01*
X5386Y23923D01*
X5396Y24000D01*
X5386Y24077D01*
X5356Y24150D01*
X5317Y24201D01*
X5458Y24342D01*
X5491Y24391D01*
X5503Y24450D01*
Y29400D01*
X5491Y29459D01*
X5458Y29508D01*
X5358Y29608D01*
X5309Y29641D01*
X5266Y29650D01*
X5245Y29699D01*
X5182Y29782D01*
X5099Y29845D01*
X5003Y29885D01*
X4900Y29899D01*
D02*
G37*
G36*
X8633Y21250D02*
X8350D01*
Y20967D01*
X8388Y20972D01*
X8470Y21006D01*
X8540Y21060D01*
X8594Y21130D01*
X8628Y21212D01*
X8633Y21250D01*
D02*
G37*
G36*
X7133D02*
X6850D01*
Y20967D01*
X6888Y20972D01*
X6970Y21006D01*
X7040Y21060D01*
X7094Y21130D01*
X7128Y21212D01*
X7133Y21250D01*
D02*
G37*
G36*
X8250D02*
X7967D01*
X7972Y21212D01*
X8006Y21130D01*
X8060Y21060D01*
X8130Y21006D01*
X8212Y20972D01*
X8250Y20967D01*
Y21250D01*
D02*
G37*
G36*
X6750D02*
X6467D01*
X6472Y21212D01*
X6506Y21130D01*
X6560Y21060D01*
X6630Y21006D01*
X6712Y20972D01*
X6750Y20967D01*
Y21250D01*
D02*
G37*
G36*
X10517D02*
X9950D01*
Y20937D01*
X10160D01*
X10254Y20949D01*
X10342Y20986D01*
X10417Y21043D01*
X10474Y21118D01*
X10511Y21206D01*
X10517Y21250D01*
D02*
G37*
G36*
X9850D02*
X9283D01*
X9289Y21206D01*
X9326Y21118D01*
X9383Y21043D01*
X9458Y20986D01*
X9546Y20949D01*
X9640Y20937D01*
X9850D01*
Y21250D01*
D02*
G37*
G36*
X8300Y20639D02*
X8212Y20628D01*
X8130Y20594D01*
X8060Y20540D01*
X8006Y20470D01*
X7972Y20388D01*
X7961Y20300D01*
X7972Y20212D01*
X8006Y20130D01*
X8060Y20060D01*
X8130Y20006D01*
X8212Y19972D01*
X8300Y19961D01*
X8388Y19972D01*
X8470Y20006D01*
X8540Y20060D01*
X8594Y20130D01*
X8628Y20212D01*
X8639Y20300D01*
X8628Y20388D01*
X8594Y20470D01*
X8540Y20540D01*
X8470Y20594D01*
X8388Y20628D01*
X8300Y20639D01*
D02*
G37*
G36*
X6800D02*
X6712Y20628D01*
X6630Y20594D01*
X6560Y20540D01*
X6506Y20470D01*
X6472Y20388D01*
X6461Y20300D01*
X6472Y20212D01*
X6506Y20130D01*
X6560Y20060D01*
X6630Y20006D01*
X6712Y19972D01*
X6800Y19961D01*
X6888Y19972D01*
X6970Y20006D01*
X7040Y20060D01*
X7094Y20130D01*
X7128Y20212D01*
X7139Y20300D01*
X7128Y20388D01*
X7094Y20470D01*
X7040Y20540D01*
X6970Y20594D01*
X6888Y20628D01*
X6800Y20639D01*
D02*
G37*
G36*
X10160Y20663D02*
X9640D01*
X9546Y20651D01*
X9458Y20614D01*
X9383Y20557D01*
X9326Y20482D01*
X9289Y20394D01*
X9277Y20300D01*
X9289Y20206D01*
X9326Y20118D01*
X9383Y20043D01*
X9458Y19986D01*
X9546Y19949D01*
X9640Y19937D01*
X10160D01*
X10254Y19949D01*
X10342Y19986D01*
X10417Y20043D01*
X10474Y20118D01*
X10511Y20206D01*
X10523Y20300D01*
X10511Y20394D01*
X10474Y20482D01*
X10417Y20557D01*
X10342Y20614D01*
X10254Y20651D01*
X10160Y20663D01*
D02*
G37*
G36*
X17250Y20123D02*
X17159Y20111D01*
X17073Y20076D01*
X17000Y20020D01*
X16944Y19947D01*
X16909Y19861D01*
X16897Y19770D01*
X16909Y19679D01*
X16919Y19655D01*
X16717Y19453D01*
X13486D01*
X13474Y19482D01*
X13417Y19557D01*
X13342Y19614D01*
X13254Y19651D01*
X13160Y19663D01*
X12640D01*
X12546Y19651D01*
X12458Y19614D01*
X12383Y19557D01*
X12326Y19482D01*
X12289Y19394D01*
X12277Y19300D01*
X12289Y19206D01*
X12326Y19118D01*
X12383Y19043D01*
X12458Y18986D01*
X12546Y18949D01*
X12640Y18937D01*
X13160D01*
X13254Y18949D01*
X13342Y18986D01*
X13417Y19043D01*
X13474Y19118D01*
X13486Y19147D01*
X16780D01*
X16839Y19159D01*
X16888Y19192D01*
X17135Y19439D01*
X17159Y19429D01*
X17250Y19417D01*
X17341Y19429D01*
X17427Y19464D01*
X17500Y19520D01*
X17556Y19593D01*
X17591Y19679D01*
X17603Y19770D01*
X17591Y19861D01*
X17556Y19947D01*
X17500Y20020D01*
X17427Y20076D01*
X17341Y20111D01*
X17250Y20123D01*
D02*
G37*
G36*
X9850Y19663D02*
X9640D01*
X9546Y19651D01*
X9458Y19614D01*
X9383Y19557D01*
X9326Y19482D01*
X9289Y19394D01*
X9283Y19350D01*
X9850D01*
Y19663D01*
D02*
G37*
G36*
X24895Y19995D02*
X24105D01*
Y19205D01*
X24895D01*
Y19995D01*
D02*
G37*
G36*
X9850Y19250D02*
X9283D01*
X9289Y19206D01*
X9326Y19118D01*
X9383Y19043D01*
X9458Y18986D01*
X9546Y18949D01*
X9640Y18937D01*
X9850D01*
Y19250D01*
D02*
G37*
G36*
X24500Y18999D02*
X24397Y18985D01*
X24301Y18945D01*
X24218Y18882D01*
X24155Y18799D01*
X24115Y18703D01*
X24101Y18600D01*
X24115Y18497D01*
X24155Y18401D01*
X24218Y18318D01*
X24301Y18255D01*
X24397Y18215D01*
X24500Y18201D01*
X24603Y18215D01*
X24699Y18255D01*
X24782Y18318D01*
X24845Y18401D01*
X24885Y18497D01*
X24899Y18600D01*
X24885Y18703D01*
X24845Y18799D01*
X24782Y18882D01*
X24699Y18945D01*
X24603Y18985D01*
X24500Y18999D01*
D02*
G37*
G36*
X13160Y18663D02*
X12640D01*
X12546Y18651D01*
X12458Y18614D01*
X12383Y18557D01*
X12326Y18482D01*
X12289Y18394D01*
X12277Y18300D01*
X12289Y18206D01*
X12326Y18118D01*
X12383Y18043D01*
X12458Y17986D01*
X12546Y17949D01*
X12640Y17937D01*
X13160D01*
X13254Y17949D01*
X13342Y17986D01*
X13417Y18043D01*
X13474Y18118D01*
X13511Y18206D01*
X13523Y18300D01*
X13511Y18394D01*
X13474Y18482D01*
X13417Y18557D01*
X13342Y18614D01*
X13254Y18651D01*
X13160Y18663D01*
D02*
G37*
G36*
X10160D02*
X9640D01*
X9546Y18651D01*
X9458Y18614D01*
X9383Y18557D01*
X9326Y18482D01*
X9289Y18394D01*
X9277Y18300D01*
X9289Y18206D01*
X9326Y18118D01*
X9383Y18043D01*
X9458Y17986D01*
X9546Y17949D01*
X9640Y17937D01*
X10160D01*
X10254Y17949D01*
X10342Y17986D01*
X10417Y18043D01*
X10474Y18118D01*
X10511Y18206D01*
X10523Y18300D01*
X10511Y18394D01*
X10474Y18482D01*
X10417Y18557D01*
X10342Y18614D01*
X10254Y18651D01*
X10160Y18663D01*
D02*
G37*
G36*
X30700Y18240D02*
X30597Y18226D01*
X30501Y18186D01*
X30418Y18123D01*
X30355Y18040D01*
X30315Y17944D01*
X30301Y17841D01*
X30315Y17738D01*
X30355Y17642D01*
X30418Y17559D01*
X30501Y17496D01*
X30597Y17456D01*
X30700Y17442D01*
X30803Y17456D01*
X30899Y17496D01*
X30982Y17559D01*
X31045Y17642D01*
X31085Y17738D01*
X31099Y17841D01*
X31085Y17944D01*
X31045Y18040D01*
X30982Y18123D01*
X30899Y18186D01*
X30803Y18226D01*
X30700Y18240D01*
D02*
G37*
G36*
X26842D02*
X26739Y18226D01*
X26642Y18186D01*
X26560Y18123D01*
X26496Y18040D01*
X26457Y17944D01*
X26443Y17841D01*
X26457Y17738D01*
X26496Y17642D01*
X26560Y17559D01*
X26642Y17496D01*
X26739Y17456D01*
X26842Y17442D01*
X26945Y17456D01*
X27041Y17496D01*
X27124Y17559D01*
X27187Y17642D01*
X27227Y17738D01*
X27240Y17841D01*
X27227Y17944D01*
X27187Y18040D01*
X27124Y18123D01*
X27041Y18186D01*
X26945Y18226D01*
X26842Y18240D01*
D02*
G37*
G36*
X13160Y17663D02*
X12950D01*
Y17350D01*
X13517D01*
X13511Y17394D01*
X13474Y17482D01*
X13417Y17557D01*
X13342Y17614D01*
X13254Y17651D01*
X13160Y17663D01*
D02*
G37*
G36*
X13517Y17250D02*
X12950D01*
Y16937D01*
X13160D01*
X13254Y16949D01*
X13342Y16986D01*
X13417Y17043D01*
X13474Y17118D01*
X13511Y17206D01*
X13517Y17250D01*
D02*
G37*
G36*
X10160Y19663D02*
X9950D01*
Y19300D01*
Y18937D01*
X10160D01*
X10254Y18949D01*
X10342Y18986D01*
X10417Y19043D01*
X10474Y19118D01*
X10486Y19147D01*
X10837D01*
X11247Y18737D01*
Y17900D01*
X11259Y17841D01*
X11292Y17792D01*
X11892Y17192D01*
X11941Y17159D01*
X12000Y17147D01*
X12314D01*
X12326Y17118D01*
X12383Y17043D01*
X12458Y16986D01*
X12546Y16949D01*
X12640Y16937D01*
X12850D01*
Y17300D01*
Y17663D01*
X12640D01*
X12546Y17651D01*
X12458Y17614D01*
X12383Y17557D01*
X12326Y17482D01*
X12314Y17453D01*
X12063D01*
X11553Y17963D01*
Y18800D01*
X11541Y18859D01*
X11508Y18908D01*
X11008Y19408D01*
X10959Y19441D01*
X10900Y19453D01*
X10486D01*
X10474Y19482D01*
X10417Y19557D01*
X10342Y19614D01*
X10254Y19651D01*
X10160Y19663D01*
D02*
G37*
G36*
Y17663D02*
X9640D01*
X9546Y17651D01*
X9458Y17614D01*
X9383Y17557D01*
X9326Y17482D01*
X9289Y17394D01*
X9277Y17300D01*
X9289Y17206D01*
X9326Y17118D01*
X9383Y17043D01*
X9458Y16986D01*
X9546Y16949D01*
X9640Y16937D01*
X10160D01*
X10254Y16949D01*
X10342Y16986D01*
X10417Y17043D01*
X10474Y17118D01*
X10511Y17206D01*
X10523Y17300D01*
X10511Y17394D01*
X10474Y17482D01*
X10417Y17557D01*
X10342Y17614D01*
X10254Y17651D01*
X10160Y17663D01*
D02*
G37*
G36*
X13160Y16663D02*
X12950D01*
Y16350D01*
X13517D01*
X13511Y16394D01*
X13474Y16482D01*
X13417Y16557D01*
X13342Y16614D01*
X13254Y16651D01*
X13160Y16663D01*
D02*
G37*
G36*
X12850D02*
X12640D01*
X12546Y16651D01*
X12458Y16614D01*
X12383Y16557D01*
X12326Y16482D01*
X12289Y16394D01*
X12283Y16350D01*
X12850D01*
Y16663D01*
D02*
G37*
G36*
X30700Y17019D02*
X30597Y17006D01*
X30501Y16966D01*
X30418Y16902D01*
X30355Y16820D01*
X30315Y16724D01*
X30301Y16620D01*
X30315Y16517D01*
X30355Y16421D01*
X30418Y16339D01*
X30501Y16275D01*
X30597Y16235D01*
X30700Y16222D01*
X30803Y16235D01*
X30899Y16275D01*
X30982Y16339D01*
X31045Y16421D01*
X31085Y16517D01*
X31099Y16620D01*
X31085Y16724D01*
X31045Y16820D01*
X30982Y16902D01*
X30899Y16966D01*
X30803Y17006D01*
X30700Y17019D01*
D02*
G37*
G36*
X26842D02*
X26739Y17006D01*
X26642Y16966D01*
X26560Y16902D01*
X26496Y16820D01*
X26457Y16724D01*
X26443Y16620D01*
X26457Y16517D01*
X26496Y16421D01*
X26560Y16339D01*
X26642Y16275D01*
X26739Y16235D01*
X26842Y16222D01*
X26945Y16235D01*
X27041Y16275D01*
X27124Y16339D01*
X27187Y16421D01*
X27227Y16517D01*
X27240Y16620D01*
X27227Y16724D01*
X27187Y16820D01*
X27124Y16902D01*
X27041Y16966D01*
X26945Y17006D01*
X26842Y17019D01*
D02*
G37*
G36*
X13517Y16250D02*
X12950D01*
Y15937D01*
X13160D01*
X13254Y15949D01*
X13342Y15986D01*
X13417Y16043D01*
X13474Y16118D01*
X13511Y16206D01*
X13517Y16250D01*
D02*
G37*
G36*
X12850D02*
X12283D01*
X12289Y16206D01*
X12326Y16118D01*
X12383Y16043D01*
X12458Y15986D01*
X12546Y15949D01*
X12640Y15937D01*
X12850D01*
Y16250D01*
D02*
G37*
G36*
X10160Y16663D02*
X9640D01*
X9546Y16651D01*
X9458Y16614D01*
X9383Y16557D01*
X9326Y16482D01*
X9289Y16394D01*
X9277Y16300D01*
X9289Y16206D01*
X9326Y16118D01*
X9383Y16043D01*
X9458Y15986D01*
X9546Y15949D01*
X9640Y15937D01*
X10160D01*
X10254Y15949D01*
X10342Y15986D01*
X10417Y16043D01*
X10474Y16118D01*
X10511Y16206D01*
X10523Y16300D01*
X10511Y16394D01*
X10474Y16482D01*
X10417Y16557D01*
X10342Y16614D01*
X10254Y16651D01*
X10160Y16663D01*
D02*
G37*
G36*
Y15663D02*
X9950D01*
Y15350D01*
X10517D01*
X10511Y15394D01*
X10474Y15482D01*
X10417Y15557D01*
X10342Y15614D01*
X10254Y15651D01*
X10160Y15663D01*
D02*
G37*
G36*
X9850D02*
X9640D01*
X9546Y15651D01*
X9458Y15614D01*
X9383Y15557D01*
X9326Y15482D01*
X9289Y15394D01*
X9283Y15350D01*
X9850D01*
Y15663D01*
D02*
G37*
G36*
X30700Y15799D02*
X30597Y15785D01*
X30501Y15745D01*
X30418Y15682D01*
X30355Y15599D01*
X30315Y15503D01*
X30301Y15400D01*
X30315Y15297D01*
X30355Y15201D01*
X30418Y15118D01*
X30501Y15055D01*
X30597Y15015D01*
X30700Y15001D01*
X30803Y15015D01*
X30899Y15055D01*
X30982Y15118D01*
X31045Y15201D01*
X31085Y15297D01*
X31099Y15400D01*
X31085Y15503D01*
X31045Y15599D01*
X30982Y15682D01*
X30899Y15745D01*
X30803Y15785D01*
X30700Y15799D01*
D02*
G37*
G36*
X26842D02*
X26739Y15785D01*
X26642Y15745D01*
X26560Y15682D01*
X26496Y15599D01*
X26457Y15503D01*
X26443Y15400D01*
X26457Y15297D01*
X26496Y15201D01*
X26560Y15118D01*
X26642Y15055D01*
X26739Y15015D01*
X26842Y15001D01*
X26945Y15015D01*
X27041Y15055D01*
X27124Y15118D01*
X27187Y15201D01*
X27227Y15297D01*
X27240Y15400D01*
X27227Y15503D01*
X27187Y15599D01*
X27124Y15682D01*
X27041Y15745D01*
X26945Y15785D01*
X26842Y15799D01*
D02*
G37*
G36*
X13160Y15663D02*
X12640D01*
X12546Y15651D01*
X12458Y15614D01*
X12383Y15557D01*
X12326Y15482D01*
X12289Y15394D01*
X12277Y15300D01*
X12289Y15206D01*
X12326Y15118D01*
X12383Y15043D01*
X12458Y14986D01*
X12546Y14949D01*
X12640Y14937D01*
X13160D01*
X13254Y14949D01*
X13342Y14986D01*
X13417Y15043D01*
X13474Y15118D01*
X13511Y15206D01*
X13523Y15300D01*
X13511Y15394D01*
X13474Y15482D01*
X13417Y15557D01*
X13342Y15614D01*
X13254Y15651D01*
X13160Y15663D01*
D02*
G37*
G36*
X10517Y15250D02*
X9950D01*
Y14937D01*
X10160D01*
X10254Y14949D01*
X10342Y14986D01*
X10417Y15043D01*
X10474Y15118D01*
X10511Y15206D01*
X10517Y15250D01*
D02*
G37*
G36*
X9850D02*
X9283D01*
X9289Y15206D01*
X9326Y15118D01*
X9383Y15043D01*
X9458Y14986D01*
X9546Y14949D01*
X9640Y14937D01*
X9850D01*
Y15250D01*
D02*
G37*
G36*
X12850Y14663D02*
X12640D01*
X12546Y14651D01*
X12458Y14614D01*
X12383Y14557D01*
X12326Y14482D01*
X12314Y14453D01*
X10486D01*
X10474Y14482D01*
X10417Y14557D01*
X10342Y14614D01*
X10254Y14651D01*
X10160Y14663D01*
X9950D01*
Y14300D01*
Y13937D01*
X10160D01*
X10254Y13949D01*
X10342Y13986D01*
X10417Y14043D01*
X10474Y14118D01*
X10486Y14147D01*
X12314D01*
X12326Y14118D01*
X12383Y14043D01*
X12458Y13986D01*
X12546Y13949D01*
X12640Y13937D01*
X12850D01*
Y14300D01*
Y14663D01*
D02*
G37*
G36*
X9850D02*
X9640D01*
X9546Y14651D01*
X9458Y14614D01*
X9383Y14557D01*
X9326Y14482D01*
X9289Y14394D01*
X9283Y14350D01*
X9850D01*
Y14663D01*
D02*
G37*
G36*
Y14250D02*
X9283D01*
X9289Y14206D01*
X9326Y14118D01*
X9383Y14043D01*
X9458Y13986D01*
X9546Y13949D01*
X9640Y13937D01*
X9850D01*
Y14250D01*
D02*
G37*
G36*
X10160Y13663D02*
X9950D01*
Y13350D01*
X10517D01*
X10511Y13394D01*
X10474Y13482D01*
X10417Y13557D01*
X10342Y13614D01*
X10254Y13651D01*
X10160Y13663D01*
D02*
G37*
G36*
X9850D02*
X9640D01*
X9546Y13651D01*
X9458Y13614D01*
X9383Y13557D01*
X9326Y13482D01*
X9289Y13394D01*
X9283Y13350D01*
X9850D01*
Y13663D01*
D02*
G37*
G36*
X10517Y13250D02*
X9950D01*
Y12937D01*
X10160D01*
X10254Y12949D01*
X10342Y12986D01*
X10417Y13043D01*
X10474Y13118D01*
X10511Y13206D01*
X10517Y13250D01*
D02*
G37*
G36*
X9850D02*
X9283D01*
X9289Y13206D01*
X9326Y13118D01*
X9383Y13043D01*
X9458Y12986D01*
X9546Y12949D01*
X9640Y12937D01*
X9850D01*
Y13250D01*
D02*
G37*
G36*
X10160Y12663D02*
X9950D01*
Y12350D01*
X10517D01*
X10511Y12394D01*
X10474Y12482D01*
X10417Y12557D01*
X10342Y12614D01*
X10254Y12651D01*
X10160Y12663D01*
D02*
G37*
G36*
X9850D02*
X9640D01*
X9546Y12651D01*
X9458Y12614D01*
X9383Y12557D01*
X9326Y12482D01*
X9289Y12394D01*
X9283Y12350D01*
X9850D01*
Y12663D01*
D02*
G37*
G36*
X10517Y12250D02*
X9950D01*
Y11937D01*
X10160D01*
X10254Y11949D01*
X10342Y11986D01*
X10417Y12043D01*
X10474Y12118D01*
X10511Y12206D01*
X10517Y12250D01*
D02*
G37*
G36*
X9850D02*
X9283D01*
X9289Y12206D01*
X9326Y12118D01*
X9383Y12043D01*
X9458Y11986D01*
X9546Y11949D01*
X9640Y11937D01*
X9850D01*
Y12250D01*
D02*
G37*
G36*
X13160Y14663D02*
X12950D01*
Y14300D01*
Y13937D01*
X13160D01*
X13254Y13949D01*
X13342Y13986D01*
X13417Y14043D01*
X13474Y14118D01*
X13486Y14147D01*
X25928D01*
X28412Y11662D01*
X28397Y11626D01*
X28391Y11578D01*
X28713D01*
Y11900D01*
X28665Y11894D01*
X28628Y11879D01*
X26099Y14408D01*
X26049Y14441D01*
X25991Y14453D01*
X13486D01*
X13474Y14482D01*
X13417Y14557D01*
X13342Y14614D01*
X13254Y14651D01*
X13160Y14663D01*
D02*
G37*
G36*
X10160Y11663D02*
X9950D01*
Y11350D01*
X10517D01*
X10511Y11394D01*
X10474Y11482D01*
X10417Y11557D01*
X10342Y11614D01*
X10254Y11651D01*
X10160Y11663D01*
D02*
G37*
G36*
X9850D02*
X9640D01*
X9546Y11651D01*
X9458Y11614D01*
X9383Y11557D01*
X9326Y11482D01*
X9289Y11394D01*
X9283Y11350D01*
X9850D01*
Y11663D01*
D02*
G37*
G36*
X13160Y13663D02*
X12640D01*
X12546Y13651D01*
X12458Y13614D01*
X12383Y13557D01*
X12326Y13482D01*
X12289Y13394D01*
X12277Y13300D01*
X12289Y13206D01*
X12326Y13118D01*
X12383Y13043D01*
X12458Y12986D01*
X12546Y12949D01*
X12640Y12937D01*
X13160D01*
X13254Y12949D01*
X13342Y12986D01*
X13367Y13005D01*
X13417Y12980D01*
Y12620D01*
X13367Y12595D01*
X13342Y12614D01*
X13254Y12651D01*
X13160Y12663D01*
X12640D01*
X12546Y12651D01*
X12458Y12614D01*
X12383Y12557D01*
X12326Y12482D01*
X12289Y12394D01*
X12277Y12300D01*
X12289Y12206D01*
X12326Y12118D01*
X12383Y12043D01*
X12458Y11986D01*
X12546Y11949D01*
X12640Y11937D01*
X13160D01*
X13254Y11949D01*
X13342Y11986D01*
X13367Y12005D01*
X13417Y11980D01*
Y11620D01*
X13367Y11595D01*
X13342Y11614D01*
X13254Y11651D01*
X13160Y11663D01*
X12640D01*
X12546Y11651D01*
X12458Y11614D01*
X12383Y11557D01*
X12326Y11482D01*
X12289Y11394D01*
X12277Y11300D01*
X12289Y11206D01*
X12326Y11118D01*
X12383Y11043D01*
X12458Y10986D01*
X12546Y10949D01*
X12640Y10937D01*
X13160D01*
X13254Y10949D01*
X13342Y10986D01*
X13367Y11005D01*
X13417Y10980D01*
Y10620D01*
X13367Y10595D01*
X13342Y10614D01*
X13254Y10651D01*
X13160Y10663D01*
X12640D01*
X12546Y10651D01*
X12458Y10614D01*
X12383Y10557D01*
X12326Y10482D01*
X12314Y10453D01*
X11180D01*
X11121Y10441D01*
X11072Y10408D01*
X9972Y9308D01*
X9939Y9259D01*
X9927Y9200D01*
Y5600D01*
X9939Y5541D01*
X9972Y5492D01*
X10412Y5052D01*
X10461Y5019D01*
X10520Y5007D01*
X10860D01*
X10919Y5019D01*
X10968Y5052D01*
X11356Y5439D01*
X11365Y5430D01*
X11835D01*
X12070Y5665D01*
Y6135D01*
X11835Y6370D01*
X11365D01*
X11130Y6135D01*
Y5665D01*
X11139Y5656D01*
X10797Y5313D01*
X10583D01*
X10512Y5384D01*
X10532Y5430D01*
X10550D01*
Y5900D01*
Y6370D01*
X10365D01*
X10279Y6284D01*
X10233Y6303D01*
Y6497D01*
X10279Y6516D01*
X10365Y6430D01*
X10835D01*
X11070Y6665D01*
Y7135D01*
X10835Y7370D01*
X10365D01*
X10279Y7284D01*
X10233Y7303D01*
Y9137D01*
X11243Y10147D01*
X12314D01*
X12326Y10118D01*
X12383Y10043D01*
X12458Y9986D01*
X12546Y9949D01*
X12640Y9937D01*
X13160D01*
X13254Y9949D01*
X13342Y9986D01*
X13367Y10005D01*
X13417Y9980D01*
Y6933D01*
X12844Y6361D01*
X12835Y6370D01*
X12365D01*
X12130Y6135D01*
Y5665D01*
X12365Y5430D01*
X12835D01*
X13070Y5665D01*
Y6135D01*
X13061Y6144D01*
X13678Y6762D01*
X13711Y6811D01*
X13723Y6870D01*
Y13147D01*
X25678D01*
X27887Y10937D01*
Y10402D01*
X28639D01*
Y11119D01*
X28644Y11128D01*
X28686Y11159D01*
X28713Y11156D01*
Y11478D01*
X28391D01*
X28397Y11430D01*
X28435Y11339D01*
X28495Y11260D01*
X28569Y11204D01*
X28569Y11187D01*
X28555Y11154D01*
X28104D01*
X25849Y13408D01*
X25799Y13441D01*
X25741Y13453D01*
X13486D01*
X13474Y13482D01*
X13417Y13557D01*
X13342Y13614D01*
X13254Y13651D01*
X13160Y13663D01*
D02*
G37*
G36*
X10517Y11250D02*
X9950D01*
Y10937D01*
X10160D01*
X10254Y10949D01*
X10342Y10986D01*
X10417Y11043D01*
X10474Y11118D01*
X10511Y11206D01*
X10517Y11250D01*
D02*
G37*
G36*
X9850D02*
X9283D01*
X9289Y11206D01*
X9326Y11118D01*
X9383Y11043D01*
X9458Y10986D01*
X9546Y10949D01*
X9640Y10937D01*
X9850D01*
Y11250D01*
D02*
G37*
G36*
X30263Y11157D02*
X30165Y11144D01*
X30074Y11106D01*
X29995Y11046D01*
X29935Y10967D01*
X29897Y10876D01*
X29884Y10778D01*
X29897Y10680D01*
X29935Y10589D01*
X29995Y10510D01*
X30074Y10450D01*
X30165Y10412D01*
X30263Y10399D01*
X30361Y10412D01*
X30452Y10450D01*
X30531Y10510D01*
X30591Y10589D01*
X30629Y10680D01*
X30642Y10778D01*
X30629Y10876D01*
X30591Y10967D01*
X30531Y11046D01*
X30452Y11106D01*
X30361Y11144D01*
X30263Y11157D01*
D02*
G37*
G36*
X10160Y10663D02*
X9950D01*
Y10350D01*
X10517D01*
X10511Y10394D01*
X10474Y10482D01*
X10417Y10557D01*
X10342Y10614D01*
X10254Y10651D01*
X10160Y10663D01*
D02*
G37*
G36*
X9850D02*
X9640D01*
X9546Y10651D01*
X9458Y10614D01*
X9383Y10557D01*
X9326Y10482D01*
X9289Y10394D01*
X9283Y10350D01*
X9850D01*
Y10663D01*
D02*
G37*
G36*
X10517Y10250D02*
X9950D01*
Y9937D01*
X10160D01*
X10254Y9949D01*
X10342Y9986D01*
X10417Y10043D01*
X10474Y10118D01*
X10511Y10206D01*
X10517Y10250D01*
D02*
G37*
G36*
X9850D02*
X9283D01*
X9289Y10206D01*
X9326Y10118D01*
X9383Y10043D01*
X9458Y9986D01*
X9546Y9949D01*
X9640Y9937D01*
X9850D01*
Y10250D01*
D02*
G37*
G36*
X12835Y7370D02*
X12365D01*
X12130Y7135D01*
Y6665D01*
X12365Y6430D01*
X12835D01*
X13070Y6665D01*
Y7135D01*
X12835Y7370D01*
D02*
G37*
G36*
X11835D02*
X11365D01*
X11130Y7135D01*
Y6665D01*
X11365Y6430D01*
X11835D01*
X12070Y6665D01*
Y7135D01*
X11835Y7370D01*
D02*
G37*
G36*
X10835Y6370D02*
X10650D01*
Y5950D01*
X11070D01*
Y6135D01*
X10835Y6370D01*
D02*
G37*
G36*
X11070Y5850D02*
X10650D01*
Y5430D01*
X10835D01*
X11070Y5665D01*
Y5850D01*
D02*
G37*
%LPD*%
G36*
X16355Y30101D02*
X16418Y30018D01*
X16501Y29955D01*
X16547Y29936D01*
Y27023D01*
X16392Y26868D01*
X16359Y26819D01*
X16353Y26790D01*
X16303Y26794D01*
Y30095D01*
X16353Y30105D01*
X16355Y30101D01*
D02*
G37*
D12*
X15310Y27030D02*
Y29910D01*
X13882Y25602D02*
X15310Y27030D01*
Y29910D02*
X15700Y30300D01*
X16700Y36300D02*
X17500Y35500D01*
Y27010D02*
Y35500D01*
X16900Y26410D02*
X17500Y27010D01*
X13470Y13300D02*
X25741D01*
X6852Y30948D02*
X7263D01*
X5458Y32342D02*
X6852Y30948D01*
X11180Y10300D02*
X12900D01*
X10080Y9200D02*
X11180Y10300D01*
X10080Y5600D02*
Y9200D01*
Y5600D02*
X10520Y5160D01*
X10860D01*
X11600Y5900D01*
X4900Y23000D02*
X6400D01*
X6800Y22600D01*
Y21300D02*
Y22600D01*
X29421Y25278D02*
X30210Y24489D01*
Y22700D02*
Y24489D01*
X12330Y20300D02*
X12900D01*
X12230Y20400D02*
X12330Y20300D01*
X12230Y20400D02*
Y21600D01*
X12340Y21710D01*
X25853D01*
X29421Y25278D01*
X12900Y19300D02*
X16780D01*
X17250Y19770D01*
X12900Y23300D02*
X18750D01*
X12900Y22300D02*
X19460D01*
X19960Y22800D01*
Y27830D01*
X18150Y25940D02*
Y36430D01*
X17800Y36780D02*
X18150Y36430D01*
X16400Y36780D02*
X17800D01*
X16250Y36630D02*
X16400Y36780D01*
X16250Y34750D02*
Y36630D01*
Y34750D02*
X16700Y34300D01*
X25741Y13300D02*
X28263Y10778D01*
X16700Y26960D02*
Y30300D01*
X16500Y26760D02*
X16700Y26960D01*
X16500Y26110D02*
Y26760D01*
Y26110D02*
X16600Y26010D01*
X16890D01*
X17100Y25800D01*
Y24800D02*
Y25800D01*
X16700Y24400D02*
X17100Y24800D01*
X13860Y24400D02*
X16700D01*
X15410Y31010D02*
X15700Y31300D01*
X12970Y31010D02*
X15410D01*
X14350Y31680D02*
X14760Y32090D01*
Y35360D01*
X15700Y36300D01*
X9900Y23300D02*
X10800D01*
X11400Y23900D01*
Y25430D01*
X14770Y28800D01*
X9000Y32800D02*
X13580D01*
X14360Y33580D01*
X16150Y32750D02*
X16700Y33300D01*
X16150Y26047D02*
Y32750D01*
Y26047D02*
X16700Y25497D01*
X9900Y19300D02*
X10900D01*
X11400Y18800D01*
Y17900D02*
Y18800D01*
Y17900D02*
X12000Y17300D01*
X12900D01*
Y14300D02*
X25991D01*
X28763Y11528D01*
X4900Y29500D02*
X5250D01*
X5350Y29400D01*
Y24450D02*
Y29400D01*
X4900Y24000D02*
X5350Y24450D01*
X12600Y5900D02*
X13570Y6870D01*
Y13200D01*
X13470Y13300D02*
X13570Y13200D01*
X12900Y13300D02*
X13470D01*
X12900Y21300D02*
X28800D01*
X29263Y20837D01*
Y10778D02*
Y20837D01*
X9900Y14300D02*
X12900D01*
X3200Y37600D02*
X3200Y4600D01*
X3200Y37600D02*
X32600D01*
X32600Y4600D01*
X3200D02*
X32600D01*
D51*
X6800Y20300D02*
D03*
Y21300D02*
D03*
X8300Y20300D02*
D03*
Y21300D02*
D03*
D52*
X28421Y25278D02*
D03*
X28263Y10778D02*
D03*
D53*
X30421Y25278D02*
D03*
X29421D02*
D03*
X28921Y26028D02*
D03*
X29921D02*
D03*
X30263Y10778D02*
D03*
X29263D02*
D03*
X28763Y11528D02*
D03*
X29763D02*
D03*
D55*
X15700Y36300D02*
D03*
X24500Y19600D02*
D03*
X4900Y28500D02*
D03*
Y31700D02*
D03*
X9000Y31800D02*
D03*
X4900Y34900D02*
D03*
D56*
X30858Y32341D02*
D03*
Y31120D02*
D03*
Y29900D02*
D03*
X27000D02*
D03*
Y31120D02*
D03*
Y32341D02*
D03*
X16700Y36300D02*
D03*
X15700Y35300D02*
D03*
X16700D02*
D03*
X15700Y34300D02*
D03*
X16700D02*
D03*
X15700Y33300D02*
D03*
X16700D02*
D03*
X15700Y32300D02*
D03*
X16700D02*
D03*
X15700Y31300D02*
D03*
X16700D02*
D03*
X15700Y30300D02*
D03*
X16700D02*
D03*
X24500Y18600D02*
D03*
X4900Y29500D02*
D03*
Y32700D02*
D03*
X9000Y32800D02*
D03*
X4900Y35900D02*
D03*
X30700Y17841D02*
D03*
Y16620D02*
D03*
Y15400D02*
D03*
X26842D02*
D03*
Y16620D02*
D03*
Y17841D02*
D03*
D57*
X4900Y24000D02*
D03*
D58*
Y23500D02*
D03*
Y23000D02*
D03*
D59*
X12600Y6900D02*
D03*
Y5900D02*
D03*
X11600Y6900D02*
D03*
Y5900D02*
D03*
X10600Y6900D02*
D03*
Y5900D02*
D03*
D60*
X12900Y23300D02*
D03*
Y22300D02*
D03*
Y21300D02*
D03*
Y20300D02*
D03*
Y19300D02*
D03*
Y18300D02*
D03*
Y17300D02*
D03*
Y16300D02*
D03*
Y15300D02*
D03*
Y14300D02*
D03*
Y13300D02*
D03*
Y12300D02*
D03*
Y11300D02*
D03*
Y10300D02*
D03*
X9900D02*
D03*
Y11300D02*
D03*
Y12300D02*
D03*
Y13300D02*
D03*
Y14300D02*
D03*
Y15300D02*
D03*
Y16300D02*
D03*
Y17300D02*
D03*
Y18300D02*
D03*
Y19300D02*
D03*
Y20300D02*
D03*
Y21300D02*
D03*
Y22300D02*
D03*
Y23300D02*
D03*
D61*
X5458Y32342D02*
D03*
X16900Y26410D02*
D03*
X7263Y30948D02*
D03*
X30210Y22700D02*
D03*
X17250Y19770D02*
D03*
X18750Y23300D02*
D03*
X19960Y27830D02*
D03*
X18150Y25940D02*
D03*
X13860Y24400D02*
D03*
X12970Y31010D02*
D03*
X13882Y25602D02*
D03*
X14350Y31680D02*
D03*
X14770Y28800D02*
D03*
X14360Y33580D02*
D03*
X16700Y25497D02*
D03*
M02*
