M48
;Layer_Color=9474304
;FILE_FORMAT=2:5
INCH,LZ
;TYPE=PLATED
T1F00S00C0.02756
T2F00S00C0.02800
T3F00S00C0.03150
T4F00S00C0.03200
T5F00S00C0.03346
T6F00S00C0.03543
T7F00S00C0.04000
T8F00S00C0.05906
%
T01
X03125Y00625
Y00725
X03425Y008
X03525
Y00625
X03425
X01525Y01725
X01425
Y019
X01525
X005Y017
Y016
X003
Y017
X001
Y016
X0140768Y028628
Y029628
X0160768
Y028628
X0180768
Y029628
X0325Y0225
Y0215
X034063
X035063
Y023
X034063
T02
X02234Y0067382
X02042Y00649
X02013Y00774
X01617Y00871
X0145Y00845
X01314Y0062
X01475Y01939
X00971Y02073
X01953Y01643
X0054324Y014
X00309Y015
X01492Y022
T03
X00475Y0225
Y023
Y0235
X02125Y02375
X02225
X02475
X02575
X02825
X02925
T04
X008Y01
Y011
Y012
Y013
Y014
Y015
Y016
Y017
Y018
Y019
Y02
Y021
X011
Y02
Y019
Y018
Y017
Y016
Y015
Y014
Y013
Y012
Y011
Y01
Y022
Y023
X008
Y022
T05
X03725Y00575
Y00975
X03825Y02
X0172382Y02025
X0155
X01375
Y016
X0155
X0172382
Y012
X0155
X01375
X00275Y021
X001
Y025
X00275
X008Y02725
X01
X012
Y03125
X01
X008
X01375Y02425
X0155
X0172382
X02Y02225
Y02625
X0235
X027
Y02225
X0235
X03825Y024
T06
X00875Y00375
Y00475
X00975
Y00375
X0115
Y00475
X0125
Y00375
X01425
Y00475
X01525
Y00375
X01675
Y00475
X01775
Y00375
X02325Y0038287
Y0048287
X02425
Y0038287
X026
Y0048287
X02775
Y0038287
Y0058287
Y0068287
X026
Y0058287
X02425
Y0068287
X02325
Y0058287
X0336713Y0099075
X0346713
X0356713
X0351713Y0106575
X0341713
X01775Y00675
X01675
Y00575
X01775
X01525
Y00675
X01425
Y00575
X0125
Y00675
X0115
Y00575
X00975
Y00675
X00875
Y00575
X02Y018
Y019
X00275Y0066575
Y0056575
X00125
Y0066575
X033563Y024878
X034563
X035563
X035063Y025628
X034063
T07
X0065Y0056575
Y0066575
X0055
Y0056575
X0045
Y0066575
T08
X03225Y0145295
Y01575
Y0169705
X0361083
Y01575
Y0145295
X036Y0295
Y0307205
Y0319409
X0321417
Y0307205
Y0295
M30
