G04*
G04 #@! TF.GenerationSoftware,Altium Limited,Altium Designer,19.0.10 (269)*
G04*
G04 Layer_Physical_Order=2*
G04 Layer_Color=16711680*
%FSLAX24Y24*%
%MOIN*%
G70*
G01*
G75*
%ADD12C,0.0100*%
%ADD38C,0.0472*%
%ADD39R,0.0591X0.0591*%
%ADD40C,0.0591*%
%ADD41P,0.0801X8X202.5*%
%ADD42C,0.0630*%
%ADD43C,0.0551*%
%ADD44O,0.0787X0.0394*%
%ADD45O,0.0787X0.0394*%
%ADD46O,0.1040X0.0520*%
%ADD47R,0.0551X0.0551*%
%ADD49C,0.0500*%
G36*
X40000Y1750D02*
X0D01*
Y36000D01*
X40000D01*
Y1750D01*
D02*
G37*
%LPC*%
G36*
X36000Y32340D02*
X35897Y32326D01*
X35801Y32286D01*
X35718Y32223D01*
X35655Y32140D01*
X35615Y32044D01*
X35601Y31941D01*
X35615Y31838D01*
X35655Y31742D01*
X35718Y31659D01*
X35801Y31596D01*
X35897Y31556D01*
X36000Y31542D01*
X36103Y31556D01*
X36199Y31596D01*
X36282Y31659D01*
X36345Y31742D01*
X36385Y31838D01*
X36399Y31941D01*
X36385Y32044D01*
X36345Y32140D01*
X36282Y32223D01*
X36199Y32286D01*
X36103Y32326D01*
X36000Y32340D01*
D02*
G37*
G36*
X32142D02*
X32039Y32326D01*
X31942Y32286D01*
X31860Y32223D01*
X31796Y32140D01*
X31757Y32044D01*
X31743Y31941D01*
X31757Y31838D01*
X31796Y31742D01*
X31860Y31659D01*
X31942Y31596D01*
X32039Y31556D01*
X32142Y31542D01*
X32245Y31556D01*
X32341Y31596D01*
X32424Y31659D01*
X32487Y31742D01*
X32527Y31838D01*
X32540Y31941D01*
X32527Y32044D01*
X32487Y32140D01*
X32424Y32223D01*
X32341Y32286D01*
X32245Y32326D01*
X32142Y32340D01*
D02*
G37*
G36*
X12000Y31629D02*
X11902Y31616D01*
X11811Y31578D01*
X11732Y31518D01*
X11672Y31439D01*
X11634Y31348D01*
X11621Y31250D01*
X11634Y31152D01*
X11672Y31061D01*
X11732Y30982D01*
X11811Y30922D01*
X11902Y30884D01*
X12000Y30871D01*
X12098Y30884D01*
X12189Y30922D01*
X12268Y30982D01*
X12328Y31061D01*
X12366Y31152D01*
X12379Y31250D01*
X12366Y31348D01*
X12328Y31439D01*
X12268Y31518D01*
X12189Y31578D01*
X12098Y31616D01*
X12000Y31629D01*
D02*
G37*
G36*
X10000D02*
X9902Y31616D01*
X9811Y31578D01*
X9732Y31518D01*
X9672Y31439D01*
X9634Y31348D01*
X9621Y31250D01*
X9634Y31152D01*
X9672Y31061D01*
X9732Y30982D01*
X9811Y30922D01*
X9902Y30884D01*
X10000Y30871D01*
X10098Y30884D01*
X10189Y30922D01*
X10268Y30982D01*
X10328Y31061D01*
X10366Y31152D01*
X10379Y31250D01*
X10366Y31348D01*
X10328Y31439D01*
X10268Y31518D01*
X10189Y31578D01*
X10098Y31616D01*
X10000Y31629D01*
D02*
G37*
G36*
X8000D02*
X7902Y31616D01*
X7811Y31578D01*
X7732Y31518D01*
X7672Y31439D01*
X7634Y31348D01*
X7621Y31250D01*
X7634Y31152D01*
X7672Y31061D01*
X7732Y30982D01*
X7811Y30922D01*
X7902Y30884D01*
X8000Y30871D01*
X8098Y30884D01*
X8189Y30922D01*
X8268Y30982D01*
X8328Y31061D01*
X8366Y31152D01*
X8379Y31250D01*
X8366Y31348D01*
X8328Y31439D01*
X8268Y31518D01*
X8189Y31578D01*
X8098Y31616D01*
X8000Y31629D01*
D02*
G37*
G36*
X36000Y31119D02*
X35897Y31106D01*
X35801Y31066D01*
X35718Y31002D01*
X35655Y30920D01*
X35615Y30824D01*
X35601Y30720D01*
X35615Y30617D01*
X35655Y30521D01*
X35718Y30439D01*
X35801Y30375D01*
X35897Y30335D01*
X36000Y30322D01*
X36103Y30335D01*
X36199Y30375D01*
X36282Y30439D01*
X36345Y30521D01*
X36385Y30617D01*
X36399Y30720D01*
X36385Y30824D01*
X36345Y30920D01*
X36282Y31002D01*
X36199Y31066D01*
X36103Y31106D01*
X36000Y31119D01*
D02*
G37*
G36*
X32142D02*
X32039Y31106D01*
X31942Y31066D01*
X31860Y31002D01*
X31796Y30920D01*
X31757Y30824D01*
X31743Y30720D01*
X31757Y30617D01*
X31796Y30521D01*
X31860Y30439D01*
X31942Y30375D01*
X32039Y30335D01*
X32142Y30322D01*
X32245Y30335D01*
X32341Y30375D01*
X32424Y30439D01*
X32487Y30521D01*
X32527Y30617D01*
X32540Y30720D01*
X32527Y30824D01*
X32487Y30920D01*
X32424Y31002D01*
X32341Y31066D01*
X32245Y31106D01*
X32142Y31119D01*
D02*
G37*
G36*
X14127Y29960D02*
Y29678D01*
X14409D01*
X14404Y29716D01*
X14370Y29798D01*
X14317Y29868D01*
X14246Y29922D01*
X14165Y29956D01*
X14127Y29960D01*
D02*
G37*
G36*
X18127D02*
Y29678D01*
X18409D01*
X18404Y29716D01*
X18370Y29798D01*
X18317Y29868D01*
X18246Y29922D01*
X18165Y29956D01*
X18127Y29960D01*
D02*
G37*
G36*
X16127D02*
Y29678D01*
X16409D01*
X16404Y29716D01*
X16370Y29798D01*
X16317Y29868D01*
X16246Y29922D01*
X16165Y29956D01*
X16127Y29960D01*
D02*
G37*
G36*
X18027D02*
X17989Y29956D01*
X17907Y29922D01*
X17837Y29868D01*
X17783Y29798D01*
X17749Y29716D01*
X17744Y29678D01*
X18027D01*
Y29960D01*
D02*
G37*
G36*
X16027D02*
X15989Y29956D01*
X15907Y29922D01*
X15837Y29868D01*
X15783Y29798D01*
X15749Y29716D01*
X15744Y29678D01*
X16027D01*
Y29960D01*
D02*
G37*
G36*
X14027D02*
X13989Y29956D01*
X13907Y29922D01*
X13837Y29868D01*
X13783Y29798D01*
X13749Y29716D01*
X13744Y29678D01*
X14027D01*
Y29960D01*
D02*
G37*
G36*
X14409Y29578D02*
X14127D01*
Y29295D01*
X14165Y29300D01*
X14246Y29334D01*
X14317Y29388D01*
X14370Y29458D01*
X14404Y29540D01*
X14409Y29578D01*
D02*
G37*
G36*
X18409D02*
X18127D01*
Y29295D01*
X18165Y29300D01*
X18246Y29334D01*
X18317Y29388D01*
X18370Y29458D01*
X18404Y29540D01*
X18409Y29578D01*
D02*
G37*
G36*
X16409D02*
X16127D01*
Y29295D01*
X16165Y29300D01*
X16246Y29334D01*
X16317Y29388D01*
X16370Y29458D01*
X16404Y29540D01*
X16409Y29578D01*
D02*
G37*
G36*
X18027D02*
X17744D01*
X17749Y29540D01*
X17783Y29458D01*
X17837Y29388D01*
X17907Y29334D01*
X17989Y29300D01*
X18027Y29295D01*
Y29578D01*
D02*
G37*
G36*
X16027D02*
X15744D01*
X15749Y29540D01*
X15783Y29458D01*
X15837Y29388D01*
X15907Y29334D01*
X15989Y29300D01*
X16027Y29295D01*
Y29578D01*
D02*
G37*
G36*
X14027D02*
X13744D01*
X13749Y29540D01*
X13783Y29458D01*
X13837Y29388D01*
X13907Y29334D01*
X13989Y29300D01*
X14027Y29295D01*
Y29578D01*
D02*
G37*
G36*
X36000Y29899D02*
X35897Y29885D01*
X35801Y29845D01*
X35718Y29782D01*
X35655Y29699D01*
X35615Y29603D01*
X35601Y29500D01*
X35615Y29397D01*
X35655Y29301D01*
X35718Y29218D01*
X35801Y29155D01*
X35897Y29115D01*
X36000Y29101D01*
X36103Y29115D01*
X36199Y29155D01*
X36282Y29218D01*
X36345Y29301D01*
X36385Y29397D01*
X36399Y29500D01*
X36385Y29603D01*
X36345Y29699D01*
X36282Y29782D01*
X36199Y29845D01*
X36103Y29885D01*
X36000Y29899D01*
D02*
G37*
G36*
X32142D02*
X32039Y29885D01*
X31942Y29845D01*
X31860Y29782D01*
X31796Y29699D01*
X31757Y29603D01*
X31743Y29500D01*
X31757Y29397D01*
X31796Y29301D01*
X31860Y29218D01*
X31942Y29155D01*
X32039Y29115D01*
X32142Y29101D01*
X32245Y29115D01*
X32341Y29155D01*
X32424Y29218D01*
X32487Y29301D01*
X32527Y29397D01*
X32540Y29500D01*
X32527Y29603D01*
X32487Y29699D01*
X32424Y29782D01*
X32341Y29845D01*
X32245Y29885D01*
X32142Y29899D01*
D02*
G37*
G36*
X18077Y28967D02*
X17989Y28956D01*
X17907Y28922D01*
X17837Y28868D01*
X17783Y28798D01*
X17749Y28716D01*
X17738Y28628D01*
X17749Y28540D01*
X17783Y28458D01*
X17837Y28388D01*
X17907Y28334D01*
X17989Y28300D01*
X18077Y28289D01*
X18165Y28300D01*
X18246Y28334D01*
X18317Y28388D01*
X18370Y28458D01*
X18404Y28540D01*
X18416Y28628D01*
X18404Y28716D01*
X18370Y28798D01*
X18317Y28868D01*
X18246Y28922D01*
X18165Y28956D01*
X18077Y28967D01*
D02*
G37*
G36*
X16077D02*
X15989Y28956D01*
X15907Y28922D01*
X15837Y28868D01*
X15783Y28798D01*
X15749Y28716D01*
X15738Y28628D01*
X15749Y28540D01*
X15783Y28458D01*
X15837Y28388D01*
X15907Y28334D01*
X15989Y28300D01*
X16077Y28289D01*
X16165Y28300D01*
X16246Y28334D01*
X16317Y28388D01*
X16370Y28458D01*
X16404Y28540D01*
X16416Y28628D01*
X16404Y28716D01*
X16370Y28798D01*
X16317Y28868D01*
X16246Y28922D01*
X16165Y28956D01*
X16077Y28967D01*
D02*
G37*
G36*
X14077D02*
X13989Y28956D01*
X13907Y28922D01*
X13837Y28868D01*
X13783Y28798D01*
X13749Y28716D01*
X13738Y28628D01*
X13749Y28540D01*
X13783Y28458D01*
X13837Y28388D01*
X13907Y28334D01*
X13989Y28300D01*
X14077Y28289D01*
X14165Y28300D01*
X14246Y28334D01*
X14317Y28388D01*
X14370Y28458D01*
X14404Y28540D01*
X14416Y28628D01*
X14404Y28716D01*
X14370Y28798D01*
X14317Y28868D01*
X14246Y28922D01*
X14165Y28956D01*
X14077Y28967D01*
D02*
G37*
G36*
X12000Y27629D02*
X11902Y27616D01*
X11811Y27578D01*
X11732Y27518D01*
X11672Y27439D01*
X11634Y27348D01*
X11621Y27250D01*
X11634Y27152D01*
X11649Y27115D01*
X10892Y26358D01*
X10859Y26309D01*
X10847Y26250D01*
Y23363D01*
X10740D01*
X10646Y23351D01*
X10558Y23314D01*
X10483Y23257D01*
X10426Y23182D01*
X10414Y23153D01*
X9563D01*
X8638Y24078D01*
X8589Y24111D01*
X8530Y24123D01*
X4400D01*
X4341Y24111D01*
X4292Y24078D01*
X4092Y23878D01*
X4059Y23829D01*
X4047Y23770D01*
Y19010D01*
X4059Y18951D01*
X4092Y18902D01*
X4692Y18302D01*
X4741Y18269D01*
X4800Y18257D01*
X7420D01*
X7445Y18207D01*
X7426Y18182D01*
X7414Y18153D01*
X4063D01*
X1351Y20865D01*
X1366Y20902D01*
X1379Y21000D01*
X1366Y21098D01*
X1328Y21189D01*
X1268Y21268D01*
X1189Y21328D01*
X1098Y21366D01*
X1000Y21379D01*
X902Y21366D01*
X811Y21328D01*
X732Y21268D01*
X672Y21189D01*
X634Y21098D01*
X621Y21000D01*
X634Y20902D01*
X672Y20811D01*
X732Y20732D01*
X811Y20672D01*
X902Y20634D01*
X1000Y20621D01*
X1098Y20634D01*
X1135Y20649D01*
X3892Y17892D01*
X3941Y17859D01*
X4000Y17847D01*
X7414D01*
X7426Y17818D01*
X7483Y17743D01*
X7558Y17686D01*
X7646Y17649D01*
X7740Y17637D01*
X8260D01*
X8354Y17649D01*
X8442Y17686D01*
X8517Y17743D01*
X8574Y17818D01*
X8611Y17906D01*
X8623Y18000D01*
X8611Y18094D01*
X8574Y18182D01*
X8574Y18182D01*
X8596Y18235D01*
X8625Y18239D01*
X9382Y17482D01*
X9431Y17449D01*
X9490Y17437D01*
X12900D01*
X12959Y17449D01*
X13008Y17482D01*
X13253Y17727D01*
X13792D01*
X13811Y17681D01*
X13283Y17153D01*
X11586D01*
X11574Y17182D01*
X11517Y17257D01*
X11442Y17314D01*
X11354Y17351D01*
X11260Y17363D01*
X11050D01*
Y17000D01*
Y16637D01*
X11260D01*
X11354Y16649D01*
X11442Y16686D01*
X11517Y16743D01*
X11574Y16818D01*
X11586Y16847D01*
X13347D01*
X13405Y16859D01*
X13455Y16892D01*
X13868Y17305D01*
X13915Y17281D01*
X13911Y17250D01*
X13922Y17162D01*
X13956Y17080D01*
X14010Y17010D01*
X14080Y16956D01*
X14162Y16922D01*
X14250Y16911D01*
X14338Y16922D01*
X14420Y16956D01*
X14490Y17010D01*
X14544Y17080D01*
X14578Y17162D01*
X14589Y17250D01*
X14578Y17338D01*
X14544Y17420D01*
X14500Y17477D01*
X14518Y17527D01*
X14757D01*
X14929Y17354D01*
X14922Y17338D01*
X14917Y17300D01*
X15200D01*
Y17583D01*
X15162Y17578D01*
X15146Y17571D01*
X15035Y17681D01*
X15055Y17727D01*
X15537D01*
X16427Y16837D01*
Y16000D01*
X16439Y15941D01*
X16472Y15892D01*
X16902Y15462D01*
X16951Y15429D01*
X17010Y15417D01*
X17900D01*
X17959Y15429D01*
X18008Y15462D01*
X19189Y16643D01*
X19227Y16610D01*
X19224Y16607D01*
X19189Y16521D01*
X19177Y16430D01*
X19189Y16339D01*
X19199Y16315D01*
X17037Y14153D01*
X11586D01*
X11574Y14182D01*
X11517Y14257D01*
X11442Y14314D01*
X11354Y14351D01*
X11260Y14363D01*
X10740D01*
X10646Y14351D01*
X10558Y14314D01*
X10483Y14257D01*
X10426Y14182D01*
X10414Y14153D01*
X9900D01*
X9841Y14141D01*
X9792Y14108D01*
X9392Y13708D01*
X9359Y13659D01*
X9347Y13600D01*
Y13203D01*
X8737Y12593D01*
X8309D01*
X8306Y12643D01*
X8354Y12649D01*
X8442Y12686D01*
X8517Y12743D01*
X8574Y12818D01*
X8611Y12906D01*
X8617Y12950D01*
X7383D01*
X7389Y12906D01*
X7426Y12818D01*
X7483Y12743D01*
X7558Y12686D01*
X7646Y12649D01*
X7694Y12643D01*
X7691Y12593D01*
X6690D01*
X6631Y12581D01*
X6582Y12548D01*
X5392Y11358D01*
X5359Y11309D01*
X5347Y11250D01*
Y7127D01*
X5265D01*
X5030Y6892D01*
Y6422D01*
X5265Y6187D01*
X5735D01*
X5970Y6422D01*
Y6892D01*
X5735Y7127D01*
X5653D01*
Y11187D01*
X6753Y12287D01*
X7443D01*
X7468Y12237D01*
X7426Y12182D01*
X7389Y12094D01*
X7383Y12050D01*
X8617D01*
X8611Y12094D01*
X8574Y12182D01*
X8532Y12237D01*
X8557Y12287D01*
X8800D01*
X8859Y12299D01*
X8908Y12332D01*
X9608Y13032D01*
X9641Y13081D01*
X9653Y13140D01*
Y13537D01*
X9963Y13847D01*
X10414D01*
X10426Y13818D01*
X10483Y13743D01*
X10558Y13686D01*
X10646Y13649D01*
X10740Y13637D01*
X11260D01*
X11354Y13649D01*
X11442Y13686D01*
X11517Y13743D01*
X11574Y13818D01*
X11586Y13847D01*
X17100D01*
X17159Y13859D01*
X17208Y13892D01*
X19415Y16099D01*
X19439Y16089D01*
X19530Y16077D01*
X19621Y16089D01*
X19707Y16124D01*
X19780Y16180D01*
X19836Y16253D01*
X19871Y16339D01*
X19883Y16430D01*
X19871Y16521D01*
X19836Y16607D01*
X19780Y16680D01*
X19707Y16736D01*
X19621Y16771D01*
X19530Y16783D01*
X19439Y16771D01*
X19353Y16736D01*
X19350Y16733D01*
X19317Y16771D01*
X19423Y16877D01*
X19837D01*
X19977Y16737D01*
Y8055D01*
X19953Y8046D01*
X19880Y7990D01*
X19824Y7917D01*
X19789Y7831D01*
X19777Y7740D01*
X19789Y7649D01*
X19824Y7563D01*
X19880Y7490D01*
X19953Y7434D01*
X20039Y7399D01*
X20130Y7387D01*
X20221Y7399D01*
X20307Y7434D01*
X20380Y7490D01*
X20436Y7563D01*
X20471Y7649D01*
X20483Y7740D01*
X20471Y7831D01*
X20436Y7917D01*
X20380Y7990D01*
X20307Y8046D01*
X20283Y8055D01*
Y16800D01*
X20271Y16859D01*
X20238Y16908D01*
X20008Y17138D01*
X19959Y17171D01*
X19900Y17183D01*
X19465D01*
X19445Y17229D01*
X19821Y17605D01*
X20395D01*
Y18395D01*
X19605D01*
Y17821D01*
X17937Y16153D01*
X17581D01*
X17566Y16189D01*
X17506Y16268D01*
X17428Y16328D01*
X17336Y16366D01*
X17238Y16379D01*
X17140Y16366D01*
X17049Y16328D01*
X16970Y16268D01*
X16910Y16189D01*
X16872Y16098D01*
X16860Y16007D01*
X16817Y15979D01*
X16733Y16063D01*
Y16900D01*
X16721Y16959D01*
X16688Y17008D01*
X15708Y17988D01*
X15659Y18021D01*
X15600Y18033D01*
X13565D01*
X13545Y18079D01*
X14146Y18679D01*
X14162Y18672D01*
X14250Y18661D01*
X14338Y18672D01*
X14420Y18706D01*
X14490Y18760D01*
X14544Y18830D01*
X14578Y18912D01*
X14589Y19000D01*
X14585Y19033D01*
X14624Y19063D01*
X14659Y19049D01*
X14750Y19037D01*
X14841Y19049D01*
X14876Y19063D01*
X14893Y19050D01*
X15200D01*
Y19333D01*
X15162Y19328D01*
X15144Y19320D01*
X15098Y19355D01*
X15103Y19390D01*
X15091Y19481D01*
X15056Y19567D01*
X15000Y19640D01*
X14927Y19696D01*
X14841Y19731D01*
X14750Y19743D01*
X14659Y19731D01*
X14573Y19696D01*
X14500Y19640D01*
X14444Y19567D01*
X14435Y19543D01*
X12470D01*
X12449Y19593D01*
X13380Y20524D01*
X13430Y20519D01*
X13451Y20477D01*
X13422Y20439D01*
X13384Y20348D01*
X13371Y20250D01*
X13384Y20152D01*
X13422Y20061D01*
X13482Y19982D01*
X13561Y19922D01*
X13652Y19884D01*
X13750Y19871D01*
X13848Y19884D01*
X13939Y19922D01*
X14018Y19982D01*
X14078Y20061D01*
X14116Y20152D01*
X14129Y20250D01*
X14116Y20348D01*
X14078Y20439D01*
X14049Y20477D01*
X14074Y20527D01*
X15176D01*
X15201Y20477D01*
X15172Y20439D01*
X15134Y20348D01*
X15128Y20300D01*
X15500D01*
X15872D01*
X15866Y20348D01*
X15828Y20439D01*
X15799Y20477D01*
X15824Y20527D01*
X16914D01*
X16939Y20477D01*
X16910Y20439D01*
X16872Y20348D01*
X16859Y20250D01*
X16872Y20152D01*
X16910Y20061D01*
X16970Y19982D01*
X17049Y19922D01*
X17140Y19884D01*
X17238Y19871D01*
X17336Y19884D01*
X17428Y19922D01*
X17506Y19982D01*
X17566Y20061D01*
X17581Y20097D01*
X18687D01*
X19634Y19150D01*
X19615Y19103D01*
X19601Y19000D01*
X19615Y18897D01*
X19655Y18801D01*
X19718Y18718D01*
X19801Y18655D01*
X19897Y18615D01*
X20000Y18601D01*
X20103Y18615D01*
X20199Y18655D01*
X20282Y18718D01*
X20345Y18801D01*
X20385Y18897D01*
X20399Y19000D01*
X20385Y19103D01*
X20345Y19199D01*
X20385Y19228D01*
X26772Y12842D01*
X26821Y12809D01*
X26880Y12797D01*
X34058D01*
X34518Y12337D01*
Y10904D01*
X34468Y10887D01*
X34439Y10925D01*
X34361Y10986D01*
X34269Y11023D01*
X34221Y11030D01*
Y10657D01*
Y10285D01*
X34269Y10292D01*
X34361Y10329D01*
X34439Y10390D01*
X34468Y10428D01*
X34518Y10411D01*
Y10251D01*
X34482Y10236D01*
X34403Y10175D01*
X34343Y10097D01*
X34305Y10006D01*
X34292Y9907D01*
X34305Y9809D01*
X34343Y9718D01*
X34403Y9640D01*
X34482Y9579D01*
X34573Y9542D01*
X34671Y9529D01*
X34769Y9542D01*
X34861Y9579D01*
X34939Y9640D01*
X34968Y9678D01*
X35018Y9661D01*
Y8785D01*
X34752Y8518D01*
X34719Y8469D01*
X34707Y8410D01*
Y6640D01*
X34719Y6581D01*
X34752Y6532D01*
X34929Y6354D01*
X34922Y6338D01*
X34911Y6250D01*
X34922Y6162D01*
X34956Y6080D01*
X35010Y6010D01*
X35080Y5956D01*
X35162Y5922D01*
X35250Y5911D01*
X35338Y5922D01*
X35420Y5956D01*
X35490Y6010D01*
X35544Y6080D01*
X35578Y6162D01*
X35589Y6250D01*
X35578Y6338D01*
X35544Y6420D01*
X35490Y6490D01*
X35420Y6544D01*
X35338Y6578D01*
X35250Y6589D01*
X35162Y6578D01*
X35146Y6571D01*
X35013Y6703D01*
Y7702D01*
X35058Y7724D01*
X35080Y7706D01*
X35162Y7672D01*
X35250Y7661D01*
X35338Y7672D01*
X35420Y7706D01*
X35490Y7760D01*
X35544Y7830D01*
X35578Y7912D01*
X35589Y8000D01*
X35578Y8088D01*
X35544Y8170D01*
X35490Y8240D01*
X35420Y8294D01*
X35338Y8328D01*
X35250Y8339D01*
X35162Y8328D01*
X35080Y8294D01*
X35058Y8276D01*
X35013Y8298D01*
Y8347D01*
X35279Y8613D01*
X35313Y8663D01*
X35324Y8721D01*
Y9661D01*
X35374Y9678D01*
X35403Y9640D01*
X35482Y9579D01*
X35573Y9542D01*
X35671Y9529D01*
X35769Y9542D01*
X35861Y9579D01*
X35939Y9640D01*
X35999Y9718D01*
X36014Y9755D01*
X36317D01*
X36429Y9642D01*
X36479Y9609D01*
X36537Y9597D01*
X36907D01*
X36922Y9561D01*
X36982Y9482D01*
X37061Y9422D01*
X37152Y9384D01*
X37250Y9371D01*
X37348Y9384D01*
X37439Y9422D01*
X37518Y9482D01*
X37578Y9561D01*
X37616Y9652D01*
X37629Y9750D01*
X37616Y9848D01*
X37578Y9939D01*
X37518Y10018D01*
X37439Y10078D01*
X37348Y10116D01*
X37250Y10129D01*
X37152Y10116D01*
X37061Y10078D01*
X36982Y10018D01*
X36922Y9939D01*
X36907Y9903D01*
X36601D01*
X36488Y10016D01*
X36439Y10049D01*
X36380Y10060D01*
X36014D01*
X35999Y10097D01*
X35939Y10175D01*
X35861Y10236D01*
X35769Y10273D01*
X35671Y10286D01*
X35573Y10273D01*
X35482Y10236D01*
X35403Y10175D01*
X35374Y10137D01*
X35324Y10154D01*
Y10314D01*
X35361Y10329D01*
X35439Y10390D01*
X35499Y10468D01*
X35537Y10559D01*
X35550Y10657D01*
X35537Y10756D01*
X35499Y10847D01*
X35439Y10925D01*
X35361Y10986D01*
X35269Y11023D01*
X35171Y11036D01*
X35073Y11023D01*
X34982Y10986D01*
X34903Y10925D01*
X34874Y10887D01*
X34824Y10904D01*
Y12400D01*
X34813Y12459D01*
X34779Y12508D01*
X34229Y13058D01*
X34180Y13091D01*
X34121Y13103D01*
X26943D01*
X19315Y20731D01*
X19335Y20777D01*
X30930D01*
X30989Y20789D01*
X31038Y20822D01*
X32396Y22179D01*
X32412Y22172D01*
X32500Y22161D01*
X32588Y22172D01*
X32670Y22206D01*
X32740Y22260D01*
X32794Y22330D01*
X32801Y22347D01*
X34263D01*
X34322Y22359D01*
X34371Y22392D01*
X34671Y22692D01*
X34704Y22741D01*
X34716Y22800D01*
Y22829D01*
X34766Y22839D01*
X34769Y22830D01*
X34823Y22760D01*
X34893Y22706D01*
X34975Y22672D01*
X35063Y22661D01*
X35151Y22672D01*
X35233Y22706D01*
X35252Y22721D01*
X35297Y22699D01*
Y21950D01*
X35167Y21821D01*
X35151Y21828D01*
X35063Y21839D01*
X34975Y21828D01*
X34893Y21794D01*
X34823Y21740D01*
X34769Y21670D01*
X34735Y21588D01*
X34724Y21500D01*
X34735Y21412D01*
X34769Y21330D01*
X34823Y21260D01*
X34893Y21206D01*
X34975Y21172D01*
X35063Y21161D01*
X35151Y21172D01*
X35233Y21206D01*
X35303Y21260D01*
X35357Y21330D01*
X35391Y21412D01*
X35402Y21500D01*
X35391Y21588D01*
X35384Y21604D01*
X35558Y21779D01*
X35591Y21828D01*
X35603Y21887D01*
Y23390D01*
X35591Y23449D01*
X35558Y23498D01*
X35216Y23840D01*
Y24631D01*
X35266Y24648D01*
X35295Y24610D01*
X35374Y24550D01*
X35465Y24512D01*
X35563Y24499D01*
X35661Y24512D01*
X35698Y24527D01*
X36333Y23892D01*
X36382Y23859D01*
X36441Y23847D01*
X37907D01*
X37922Y23811D01*
X37982Y23732D01*
X38061Y23672D01*
X38152Y23634D01*
X38250Y23621D01*
X38348Y23634D01*
X38439Y23672D01*
X38518Y23732D01*
X38578Y23811D01*
X38616Y23902D01*
X38629Y24000D01*
X38616Y24098D01*
X38578Y24189D01*
X38518Y24268D01*
X38439Y24328D01*
X38348Y24366D01*
X38250Y24379D01*
X38152Y24366D01*
X38061Y24328D01*
X37982Y24268D01*
X37922Y24189D01*
X37907Y24153D01*
X36504D01*
X35914Y24743D01*
X35929Y24780D01*
X35942Y24878D01*
X35929Y24976D01*
X35891Y25067D01*
X35831Y25146D01*
X35752Y25206D01*
X35661Y25244D01*
X35563Y25257D01*
X35465Y25244D01*
X35374Y25206D01*
X35295Y25146D01*
X35266Y25108D01*
X35216Y25125D01*
Y25285D01*
X35252Y25300D01*
X35331Y25360D01*
X35391Y25439D01*
X35429Y25530D01*
X35442Y25628D01*
X35429Y25726D01*
X35391Y25817D01*
X35331Y25896D01*
X35252Y25956D01*
X35161Y25994D01*
X35063Y26007D01*
X34965Y25994D01*
X34874Y25956D01*
X34795Y25896D01*
X34735Y25817D01*
X34697Y25726D01*
X34684Y25628D01*
X34697Y25530D01*
X34735Y25439D01*
X34795Y25360D01*
X34874Y25300D01*
X34910Y25285D01*
Y25125D01*
X34860Y25108D01*
X34831Y25146D01*
X34752Y25206D01*
X34661Y25244D01*
X34563Y25257D01*
X34465Y25244D01*
X34374Y25206D01*
X34295Y25146D01*
X34263Y25104D01*
X34213Y25121D01*
Y25284D01*
X34252Y25300D01*
X34331Y25360D01*
X34391Y25439D01*
X34429Y25530D01*
X34435Y25578D01*
X34063D01*
X33691D01*
X33697Y25530D01*
X33735Y25439D01*
X33795Y25360D01*
X33869Y25304D01*
X33869Y25287D01*
X33855Y25254D01*
X33187D01*
Y24502D01*
X33907D01*
Y23299D01*
X33893Y23294D01*
X33823Y23240D01*
X33769Y23170D01*
X33735Y23088D01*
X33730Y23050D01*
X34063D01*
Y22950D01*
X33730D01*
X33735Y22912D01*
X33769Y22830D01*
X33823Y22760D01*
X33893Y22706D01*
X33902Y22703D01*
X33892Y22653D01*
X32801D01*
X32794Y22670D01*
X32740Y22740D01*
X32670Y22794D01*
X32588Y22828D01*
X32500Y22839D01*
X32412Y22828D01*
X32330Y22794D01*
X32260Y22740D01*
X32206Y22670D01*
X32172Y22588D01*
X32161Y22500D01*
X32172Y22412D01*
X32179Y22396D01*
X30867Y21083D01*
X13280D01*
X13221Y21071D01*
X13172Y21038D01*
X12287Y20153D01*
X11586D01*
X11574Y20182D01*
X11517Y20257D01*
X11442Y20314D01*
X11354Y20351D01*
X11260Y20363D01*
X10740D01*
X10646Y20351D01*
X10558Y20314D01*
X10533Y20295D01*
X10483Y20320D01*
Y20680D01*
X10533Y20705D01*
X10558Y20686D01*
X10646Y20649D01*
X10740Y20637D01*
X11260D01*
X11354Y20649D01*
X11442Y20686D01*
X11517Y20743D01*
X11574Y20818D01*
X11611Y20906D01*
X11623Y21000D01*
X11611Y21094D01*
X11574Y21182D01*
X11517Y21257D01*
X11490Y21277D01*
X11507Y21327D01*
X22730D01*
X22789Y21339D01*
X22838Y21372D01*
X23365Y21899D01*
X23402Y21884D01*
X23500Y21871D01*
X23598Y21884D01*
X23689Y21922D01*
X23768Y21982D01*
X23828Y22061D01*
X23866Y22152D01*
X23879Y22250D01*
X23866Y22348D01*
X23828Y22439D01*
X23768Y22518D01*
X23689Y22578D01*
X23598Y22616D01*
X23500Y22629D01*
X23402Y22616D01*
X23311Y22578D01*
X23232Y22518D01*
X23172Y22439D01*
X23134Y22348D01*
X23121Y22250D01*
X23134Y22152D01*
X23149Y22115D01*
X22667Y21633D01*
X15079D01*
X15069Y21683D01*
X15097Y21694D01*
X15170Y21750D01*
X15226Y21823D01*
X15261Y21909D01*
X15273Y22000D01*
X15261Y22091D01*
X15226Y22177D01*
X15170Y22250D01*
X15097Y22306D01*
X15011Y22341D01*
X14920Y22353D01*
X14829Y22341D01*
X14743Y22306D01*
X14670Y22250D01*
X14614Y22177D01*
X14605Y22153D01*
X11586D01*
X11574Y22182D01*
X11517Y22257D01*
X11442Y22314D01*
X11354Y22351D01*
X11260Y22363D01*
X10740D01*
X10646Y22351D01*
X10558Y22314D01*
X10483Y22257D01*
X10426Y22182D01*
X10389Y22094D01*
X10377Y22000D01*
X10389Y21906D01*
X10426Y21818D01*
X10483Y21743D01*
X10558Y21686D01*
X10565Y21683D01*
X10555Y21633D01*
X10083D01*
X9608Y22108D01*
X9559Y22141D01*
X9500Y22153D01*
X8586D01*
X8574Y22182D01*
X8517Y22257D01*
X8442Y22314D01*
X8354Y22351D01*
X8260Y22363D01*
X7740D01*
X7646Y22351D01*
X7558Y22314D01*
X7483Y22257D01*
X7426Y22182D01*
X7389Y22094D01*
X7377Y22000D01*
X7389Y21906D01*
X7426Y21818D01*
X7483Y21743D01*
X7536Y21703D01*
X7519Y21653D01*
X7263D01*
X5308Y23608D01*
X5259Y23641D01*
X5204Y23652D01*
X5159Y23712D01*
X5097Y23759D01*
X5078Y23767D01*
X5088Y23817D01*
X8467D01*
X9392Y22892D01*
X9441Y22859D01*
X9500Y22847D01*
X10414D01*
X10426Y22818D01*
X10483Y22743D01*
X10558Y22686D01*
X10646Y22649D01*
X10740Y22637D01*
X11260D01*
X11354Y22649D01*
X11442Y22686D01*
X11517Y22743D01*
X11574Y22818D01*
X11611Y22906D01*
X11623Y23000D01*
X11611Y23094D01*
X11574Y23182D01*
X11517Y23257D01*
X11442Y23314D01*
X11354Y23351D01*
X11260Y23363D01*
X11153D01*
Y26187D01*
X11865Y26899D01*
X11902Y26884D01*
X12000Y26871D01*
X12098Y26884D01*
X12189Y26922D01*
X12268Y26982D01*
X12328Y27061D01*
X12366Y27152D01*
X12379Y27250D01*
X12366Y27348D01*
X12328Y27439D01*
X12268Y27518D01*
X12189Y27578D01*
X12098Y27616D01*
X12000Y27629D01*
D02*
G37*
G36*
X10000D02*
X9902Y27616D01*
X9811Y27578D01*
X9732Y27518D01*
X9672Y27439D01*
X9634Y27348D01*
X9621Y27250D01*
X9634Y27152D01*
X9672Y27061D01*
X9732Y26982D01*
X9811Y26922D01*
X9902Y26884D01*
X10000Y26871D01*
X10098Y26884D01*
X10189Y26922D01*
X10268Y26982D01*
X10328Y27061D01*
X10366Y27152D01*
X10379Y27250D01*
X10366Y27348D01*
X10328Y27439D01*
X10268Y27518D01*
X10189Y27578D01*
X10098Y27616D01*
X10000Y27629D01*
D02*
G37*
G36*
X8000D02*
X7902Y27616D01*
X7811Y27578D01*
X7732Y27518D01*
X7672Y27439D01*
X7634Y27348D01*
X7621Y27250D01*
X7634Y27152D01*
X7672Y27061D01*
X7732Y26982D01*
X7811Y26922D01*
X7902Y26884D01*
X8000Y26871D01*
X8098Y26884D01*
X8189Y26922D01*
X8268Y26982D01*
X8328Y27061D01*
X8366Y27152D01*
X8379Y27250D01*
X8366Y27348D01*
X8328Y27439D01*
X8268Y27518D01*
X8189Y27578D01*
X8098Y27616D01*
X8000Y27629D01*
D02*
G37*
G36*
X26950Y26622D02*
X26902Y26616D01*
X26811Y26578D01*
X26732Y26518D01*
X26672Y26439D01*
X26634Y26348D01*
X26628Y26300D01*
X26950D01*
Y26622D01*
D02*
G37*
G36*
Y26200D02*
X26628D01*
X26634Y26152D01*
X26672Y26061D01*
X26732Y25982D01*
X26811Y25922D01*
X26902Y25884D01*
X26950Y25878D01*
Y26200D01*
D02*
G37*
G36*
X23500Y26629D02*
X23402Y26616D01*
X23311Y26578D01*
X23232Y26518D01*
X23172Y26439D01*
X23134Y26348D01*
X23121Y26250D01*
X23134Y26152D01*
X23172Y26061D01*
X23232Y25982D01*
X23311Y25922D01*
X23402Y25884D01*
X23500Y25871D01*
X23598Y25884D01*
X23689Y25922D01*
X23768Y25982D01*
X23828Y26061D01*
X23866Y26152D01*
X23879Y26250D01*
X23866Y26348D01*
X23828Y26439D01*
X23768Y26518D01*
X23689Y26578D01*
X23598Y26616D01*
X23500Y26629D01*
D02*
G37*
G36*
X20000D02*
X19902Y26616D01*
X19811Y26578D01*
X19732Y26518D01*
X19672Y26439D01*
X19634Y26348D01*
X19621Y26250D01*
X19634Y26152D01*
X19672Y26061D01*
X19732Y25982D01*
X19811Y25922D01*
X19902Y25884D01*
X20000Y25871D01*
X20098Y25884D01*
X20189Y25922D01*
X20268Y25982D01*
X20328Y26061D01*
X20366Y26152D01*
X20379Y26250D01*
X20366Y26348D01*
X20328Y26439D01*
X20268Y26518D01*
X20189Y26578D01*
X20098Y26616D01*
X20000Y26629D01*
D02*
G37*
G36*
X34113Y26000D02*
Y25678D01*
X34435D01*
X34429Y25726D01*
X34391Y25817D01*
X34331Y25896D01*
X34252Y25956D01*
X34161Y25994D01*
X34113Y26000D01*
D02*
G37*
G36*
X27050Y26622D02*
Y26250D01*
Y25878D01*
X27098Y25884D01*
X27189Y25922D01*
X27268Y25982D01*
X27328Y26061D01*
X27343Y26097D01*
X33378D01*
X33712Y25762D01*
X33697Y25726D01*
X33691Y25678D01*
X34013D01*
Y26000D01*
X33965Y25994D01*
X33928Y25979D01*
X33549Y26358D01*
X33499Y26391D01*
X33441Y26403D01*
X27343D01*
X27328Y26439D01*
X27268Y26518D01*
X27189Y26578D01*
X27098Y26616D01*
X27050Y26622D01*
D02*
G37*
G36*
X2750Y25379D02*
X2652Y25366D01*
X2561Y25328D01*
X2482Y25268D01*
X2422Y25189D01*
X2407Y25153D01*
X1343D01*
X1328Y25189D01*
X1268Y25268D01*
X1189Y25328D01*
X1098Y25366D01*
X1000Y25379D01*
X902Y25366D01*
X811Y25328D01*
X732Y25268D01*
X672Y25189D01*
X634Y25098D01*
X621Y25000D01*
X634Y24902D01*
X672Y24811D01*
X732Y24732D01*
X811Y24672D01*
X902Y24634D01*
X1000Y24621D01*
X1098Y24634D01*
X1189Y24672D01*
X1268Y24732D01*
X1328Y24811D01*
X1343Y24847D01*
X2407D01*
X2422Y24811D01*
X2482Y24732D01*
X2561Y24672D01*
X2652Y24634D01*
X2750Y24621D01*
X2848Y24634D01*
X2939Y24672D01*
X3018Y24732D01*
X3078Y24811D01*
X3116Y24902D01*
X3129Y25000D01*
X3116Y25098D01*
X3078Y25189D01*
X3018Y25268D01*
X2939Y25328D01*
X2848Y25366D01*
X2750Y25379D01*
D02*
G37*
G36*
X17238Y24629D02*
X17140Y24616D01*
X17049Y24578D01*
X16970Y24518D01*
X16910Y24439D01*
X16895Y24403D01*
X15843D01*
X15828Y24439D01*
X15768Y24518D01*
X15689Y24578D01*
X15598Y24616D01*
X15500Y24629D01*
X15402Y24616D01*
X15311Y24578D01*
X15232Y24518D01*
X15172Y24439D01*
X15157Y24403D01*
X14093D01*
X14078Y24439D01*
X14018Y24518D01*
X13939Y24578D01*
X13848Y24616D01*
X13750Y24629D01*
X13652Y24616D01*
X13561Y24578D01*
X13482Y24518D01*
X13422Y24439D01*
X13384Y24348D01*
X13371Y24250D01*
X13384Y24152D01*
X13422Y24061D01*
X13482Y23982D01*
X13561Y23922D01*
X13652Y23884D01*
X13750Y23871D01*
X13848Y23884D01*
X13939Y23922D01*
X14018Y23982D01*
X14078Y24061D01*
X14093Y24097D01*
X15157D01*
X15172Y24061D01*
X15232Y23982D01*
X15311Y23922D01*
X15402Y23884D01*
X15500Y23871D01*
X15598Y23884D01*
X15689Y23922D01*
X15768Y23982D01*
X15828Y24061D01*
X15843Y24097D01*
X16895D01*
X16910Y24061D01*
X16970Y23982D01*
X17049Y23922D01*
X17140Y23884D01*
X17238Y23871D01*
X17336Y23884D01*
X17428Y23922D01*
X17506Y23982D01*
X17566Y24061D01*
X17604Y24152D01*
X17617Y24250D01*
X17604Y24348D01*
X17566Y24439D01*
X17506Y24518D01*
X17428Y24578D01*
X17336Y24616D01*
X17238Y24629D01*
D02*
G37*
G36*
X25280Y24373D02*
X22720D01*
X22661Y24361D01*
X22612Y24328D01*
X22415Y24131D01*
X22358Y24154D01*
X22300Y24162D01*
Y23800D01*
X22662D01*
X22654Y23858D01*
X22631Y23915D01*
X22783Y24067D01*
X24407D01*
X24432Y24017D01*
X24388Y23959D01*
X24346Y23858D01*
X24331Y23750D01*
X24346Y23642D01*
X24388Y23541D01*
X24454Y23454D01*
X24541Y23388D01*
X24642Y23346D01*
X24750Y23331D01*
X24858Y23346D01*
X24959Y23388D01*
X25046Y23454D01*
X25112Y23541D01*
X25154Y23642D01*
X25169Y23750D01*
X25154Y23858D01*
X25112Y23959D01*
X25068Y24017D01*
X25093Y24067D01*
X25217D01*
X25369Y23915D01*
X25346Y23858D01*
X25338Y23800D01*
X25700D01*
Y24162D01*
X25642Y24154D01*
X25585Y24131D01*
X25388Y24328D01*
X25339Y24361D01*
X25280Y24373D01*
D02*
G37*
G36*
X25800Y24162D02*
Y23800D01*
X26162D01*
X26154Y23858D01*
X26112Y23959D01*
X26046Y24046D01*
X25959Y24112D01*
X25858Y24154D01*
X25800Y24162D01*
D02*
G37*
G36*
X22200D02*
X22142Y24154D01*
X22041Y24112D01*
X21954Y24046D01*
X21888Y23959D01*
X21846Y23858D01*
X21838Y23800D01*
X22200D01*
Y24162D01*
D02*
G37*
G36*
X26162Y23700D02*
X25800D01*
Y23338D01*
X25858Y23346D01*
X25959Y23388D01*
X26046Y23454D01*
X26112Y23541D01*
X26154Y23642D01*
X26162Y23700D01*
D02*
G37*
G36*
X22662D02*
X22300D01*
Y23338D01*
X22358Y23346D01*
X22459Y23388D01*
X22546Y23454D01*
X22612Y23541D01*
X22654Y23642D01*
X22662Y23700D01*
D02*
G37*
G36*
X22200D02*
X21838D01*
X21846Y23642D01*
X21888Y23541D01*
X21954Y23454D01*
X22041Y23388D01*
X22142Y23346D01*
X22200Y23338D01*
Y23700D01*
D02*
G37*
G36*
X25700D02*
X25338D01*
X25346Y23642D01*
X25388Y23541D01*
X25454Y23454D01*
X25541Y23388D01*
X25642Y23346D01*
X25700Y23338D01*
Y23700D01*
D02*
G37*
G36*
X29250Y24169D02*
X29142Y24154D01*
X29041Y24112D01*
X28954Y24046D01*
X28888Y23959D01*
X28846Y23858D01*
X28831Y23750D01*
X28846Y23642D01*
X28869Y23585D01*
X27687Y22403D01*
X27343D01*
X27328Y22439D01*
X27268Y22518D01*
X27189Y22578D01*
X27098Y22616D01*
X27000Y22629D01*
X26902Y22616D01*
X26811Y22578D01*
X26732Y22518D01*
X26672Y22439D01*
X26634Y22348D01*
X26621Y22250D01*
X26634Y22152D01*
X26672Y22061D01*
X26732Y21982D01*
X26811Y21922D01*
X26902Y21884D01*
X27000Y21871D01*
X27098Y21884D01*
X27189Y21922D01*
X27268Y21982D01*
X27328Y22061D01*
X27343Y22097D01*
X27750D01*
X27809Y22109D01*
X27858Y22142D01*
X29085Y23369D01*
X29142Y23346D01*
X29250Y23331D01*
X29358Y23346D01*
X29459Y23388D01*
X29546Y23454D01*
X29612Y23541D01*
X29654Y23642D01*
X29669Y23750D01*
X29654Y23858D01*
X29612Y23959D01*
X29546Y24046D01*
X29459Y24112D01*
X29358Y24154D01*
X29250Y24169D01*
D02*
G37*
G36*
X28250D02*
X28142Y24154D01*
X28041Y24112D01*
X27954Y24046D01*
X27888Y23959D01*
X27846Y23858D01*
X27831Y23750D01*
X27846Y23642D01*
X27888Y23541D01*
X27954Y23454D01*
X28041Y23388D01*
X28142Y23346D01*
X28250Y23331D01*
X28358Y23346D01*
X28459Y23388D01*
X28546Y23454D01*
X28612Y23541D01*
X28654Y23642D01*
X28669Y23750D01*
X28654Y23858D01*
X28612Y23959D01*
X28546Y24046D01*
X28459Y24112D01*
X28358Y24154D01*
X28250Y24169D01*
D02*
G37*
G36*
X21250D02*
X21142Y24154D01*
X21041Y24112D01*
X20954Y24046D01*
X20888Y23959D01*
X20846Y23858D01*
X20831Y23750D01*
X20846Y23642D01*
X20888Y23541D01*
X20954Y23454D01*
X21041Y23388D01*
X21142Y23346D01*
X21250Y23331D01*
X21358Y23346D01*
X21459Y23388D01*
X21546Y23454D01*
X21612Y23541D01*
X21654Y23642D01*
X21669Y23750D01*
X21654Y23858D01*
X21612Y23959D01*
X21546Y24046D01*
X21459Y24112D01*
X21358Y24154D01*
X21250Y24169D01*
D02*
G37*
G36*
X8260Y23363D02*
X7740D01*
X7646Y23351D01*
X7558Y23314D01*
X7483Y23257D01*
X7426Y23182D01*
X7389Y23094D01*
X7377Y23000D01*
X7389Y22906D01*
X7426Y22818D01*
X7483Y22743D01*
X7558Y22686D01*
X7646Y22649D01*
X7740Y22637D01*
X8260D01*
X8354Y22649D01*
X8442Y22686D01*
X8517Y22743D01*
X8574Y22818D01*
X8611Y22906D01*
X8623Y23000D01*
X8611Y23094D01*
X8574Y23182D01*
X8517Y23257D01*
X8442Y23314D01*
X8354Y23351D01*
X8260Y23363D01*
D02*
G37*
G36*
X20000Y22629D02*
X19902Y22616D01*
X19811Y22578D01*
X19732Y22518D01*
X19672Y22439D01*
X19634Y22348D01*
X19621Y22250D01*
X19634Y22152D01*
X19672Y22061D01*
X19732Y21982D01*
X19811Y21922D01*
X19902Y21884D01*
X20000Y21871D01*
X20098Y21884D01*
X20189Y21922D01*
X20268Y21982D01*
X20328Y22061D01*
X20366Y22152D01*
X20379Y22250D01*
X20366Y22348D01*
X20328Y22439D01*
X20268Y22518D01*
X20189Y22578D01*
X20098Y22616D01*
X20000Y22629D01*
D02*
G37*
G36*
X34113Y21833D02*
Y21550D01*
X34396D01*
X34391Y21588D01*
X34357Y21670D01*
X34303Y21740D01*
X34233Y21794D01*
X34151Y21828D01*
X34113Y21833D01*
D02*
G37*
G36*
X32450D02*
X32412Y21828D01*
X32330Y21794D01*
X32260Y21740D01*
X32206Y21670D01*
X32172Y21588D01*
X32167Y21550D01*
X32450D01*
Y21833D01*
D02*
G37*
G36*
X34396Y21450D02*
X34113D01*
Y21167D01*
X34151Y21172D01*
X34233Y21206D01*
X34303Y21260D01*
X34357Y21330D01*
X34391Y21412D01*
X34396Y21450D01*
D02*
G37*
G36*
X32450D02*
X32167D01*
X32172Y21412D01*
X32206Y21330D01*
X32260Y21260D01*
X32330Y21206D01*
X32412Y21172D01*
X32450Y21167D01*
Y21450D01*
D02*
G37*
G36*
X32550Y21833D02*
Y21500D01*
Y21167D01*
X32588Y21172D01*
X32670Y21206D01*
X32740Y21260D01*
X32794Y21330D01*
X32801Y21347D01*
X33762D01*
X33769Y21330D01*
X33823Y21260D01*
X33893Y21206D01*
X33975Y21172D01*
X34013Y21167D01*
Y21500D01*
Y21833D01*
X33975Y21828D01*
X33893Y21794D01*
X33823Y21740D01*
X33769Y21670D01*
X33762Y21653D01*
X32801D01*
X32794Y21670D01*
X32740Y21740D01*
X32670Y21794D01*
X32588Y21828D01*
X32550Y21833D01*
D02*
G37*
G36*
X2800Y21372D02*
Y21050D01*
X3122D01*
X3116Y21098D01*
X3078Y21189D01*
X3018Y21268D01*
X2939Y21328D01*
X2848Y21366D01*
X2800Y21372D01*
D02*
G37*
G36*
X2700D02*
X2652Y21366D01*
X2561Y21328D01*
X2482Y21268D01*
X2422Y21189D01*
X2384Y21098D01*
X2378Y21050D01*
X2700D01*
Y21372D01*
D02*
G37*
G36*
X3122Y20950D02*
X2800D01*
Y20628D01*
X2848Y20634D01*
X2939Y20672D01*
X3018Y20732D01*
X3078Y20811D01*
X3116Y20902D01*
X3122Y20950D01*
D02*
G37*
G36*
X2700D02*
X2378D01*
X2384Y20902D01*
X2422Y20811D01*
X2482Y20732D01*
X2561Y20672D01*
X2652Y20634D01*
X2700Y20628D01*
Y20950D01*
D02*
G37*
G36*
X15872Y20200D02*
X15550D01*
Y19878D01*
X15598Y19884D01*
X15689Y19922D01*
X15768Y19982D01*
X15828Y20061D01*
X15866Y20152D01*
X15872Y20200D01*
D02*
G37*
G36*
X15450D02*
X15128D01*
X15134Y20152D01*
X15172Y20061D01*
X15232Y19982D01*
X15311Y19922D01*
X15402Y19884D01*
X15450Y19878D01*
Y20200D01*
D02*
G37*
G36*
X38250Y20379D02*
X38152Y20366D01*
X38061Y20328D01*
X37982Y20268D01*
X37922Y20189D01*
X37884Y20098D01*
X37871Y20000D01*
X37884Y19902D01*
X37922Y19811D01*
X37982Y19732D01*
X38061Y19672D01*
X38152Y19634D01*
X38250Y19621D01*
X38348Y19634D01*
X38439Y19672D01*
X38518Y19732D01*
X38578Y19811D01*
X38616Y19902D01*
X38629Y20000D01*
X38616Y20098D01*
X38578Y20189D01*
X38518Y20268D01*
X38439Y20328D01*
X38348Y20366D01*
X38250Y20379D01*
D02*
G37*
G36*
X15300Y19333D02*
Y19050D01*
X15583D01*
X15578Y19088D01*
X15544Y19170D01*
X15490Y19240D01*
X15420Y19294D01*
X15338Y19328D01*
X15300Y19333D01*
D02*
G37*
G36*
X15583Y18950D02*
X15300D01*
Y18667D01*
X15338Y18672D01*
X15420Y18706D01*
X15490Y18760D01*
X15544Y18830D01*
X15578Y18912D01*
X15583Y18950D01*
D02*
G37*
G36*
X15200D02*
X14917D01*
X14922Y18912D01*
X14956Y18830D01*
X15010Y18760D01*
X15080Y18706D01*
X15162Y18672D01*
X15200Y18667D01*
Y18950D01*
D02*
G37*
G36*
X15300Y17583D02*
Y17300D01*
X15583D01*
X15578Y17338D01*
X15544Y17420D01*
X15490Y17490D01*
X15420Y17544D01*
X15338Y17578D01*
X15300Y17583D01*
D02*
G37*
G36*
X10950Y17363D02*
X10740D01*
X10646Y17351D01*
X10558Y17314D01*
X10483Y17257D01*
X10426Y17182D01*
X10414Y17153D01*
X10000D01*
X9993Y17152D01*
X9986Y17152D01*
X9964Y17146D01*
X9941Y17141D01*
X9936Y17137D01*
X9929Y17135D01*
X9911Y17121D01*
X9892Y17108D01*
X9888Y17102D01*
X9883Y17098D01*
X9387Y16503D01*
X9037Y16153D01*
X8586D01*
X8574Y16182D01*
X8517Y16257D01*
X8442Y16314D01*
X8354Y16351D01*
X8260Y16363D01*
X8050D01*
Y16000D01*
X8000D01*
Y15950D01*
X7383D01*
X7389Y15906D01*
X7426Y15818D01*
X7483Y15743D01*
X7536Y15703D01*
X7519Y15653D01*
X6563D01*
X5321Y16896D01*
X5328Y16912D01*
X5339Y17000D01*
X5328Y17088D01*
X5294Y17170D01*
X5240Y17240D01*
X5170Y17294D01*
X5088Y17328D01*
X5000Y17339D01*
X4912Y17328D01*
X4830Y17294D01*
X4760Y17240D01*
X4706Y17170D01*
X4672Y17088D01*
X4661Y17000D01*
X4672Y16912D01*
X4706Y16830D01*
X4760Y16760D01*
X4830Y16706D01*
X4912Y16672D01*
X5000Y16661D01*
X5088Y16672D01*
X5104Y16679D01*
X6392Y15392D01*
X6441Y15359D01*
X6500Y15347D01*
X7519D01*
X7536Y15297D01*
X7483Y15257D01*
X7426Y15182D01*
X7414Y15153D01*
X3405D01*
X3396Y15177D01*
X3340Y15250D01*
X3267Y15306D01*
X3181Y15341D01*
X3090Y15353D01*
X2999Y15341D01*
X2913Y15306D01*
X2840Y15250D01*
X2784Y15177D01*
X2749Y15091D01*
X2737Y15000D01*
X2749Y14909D01*
X2784Y14823D01*
X2840Y14750D01*
X2913Y14694D01*
X2999Y14659D01*
X3090Y14647D01*
X3181Y14659D01*
X3267Y14694D01*
X3340Y14750D01*
X3396Y14823D01*
X3405Y14847D01*
X7414D01*
X7426Y14818D01*
X7483Y14743D01*
X7558Y14686D01*
X7646Y14649D01*
X7740Y14637D01*
X8260D01*
X8354Y14649D01*
X8442Y14686D01*
X8517Y14743D01*
X8574Y14818D01*
X8611Y14906D01*
X8623Y15000D01*
X8611Y15094D01*
X8574Y15182D01*
X8517Y15257D01*
X8464Y15297D01*
X8481Y15347D01*
X8627D01*
X9082Y14892D01*
X9131Y14859D01*
X9190Y14847D01*
X10414D01*
X10426Y14818D01*
X10483Y14743D01*
X10558Y14686D01*
X10646Y14649D01*
X10740Y14637D01*
X11260D01*
X11354Y14649D01*
X11442Y14686D01*
X11517Y14743D01*
X11574Y14818D01*
X11611Y14906D01*
X11623Y15000D01*
X11611Y15094D01*
X11574Y15182D01*
X11517Y15257D01*
X11442Y15314D01*
X11354Y15351D01*
X11260Y15363D01*
X10740D01*
X10646Y15351D01*
X10558Y15314D01*
X10483Y15257D01*
X10426Y15182D01*
X10414Y15153D01*
X9253D01*
X8798Y15608D01*
X8749Y15641D01*
X8690Y15653D01*
X8481D01*
X8464Y15703D01*
X8517Y15743D01*
X8574Y15818D01*
X8586Y15847D01*
X9100D01*
X9159Y15859D01*
X9208Y15892D01*
X9608Y16292D01*
X9612Y16298D01*
X9617Y16302D01*
X10072Y16847D01*
X10414D01*
X10426Y16818D01*
X10483Y16743D01*
X10558Y16686D01*
X10646Y16649D01*
X10740Y16637D01*
X10950D01*
Y17000D01*
Y17363D01*
D02*
G37*
G36*
X15583Y17200D02*
X15300D01*
Y16917D01*
X15338Y16922D01*
X15420Y16956D01*
X15490Y17010D01*
X15544Y17080D01*
X15578Y17162D01*
X15583Y17200D01*
D02*
G37*
G36*
X15200D02*
X14917D01*
X14922Y17162D01*
X14956Y17080D01*
X15010Y17010D01*
X15080Y16956D01*
X15162Y16922D01*
X15200Y16917D01*
Y17200D01*
D02*
G37*
G36*
X3000Y17339D02*
X2912Y17328D01*
X2830Y17294D01*
X2760Y17240D01*
X2706Y17170D01*
X2672Y17088D01*
X2661Y17000D01*
X2672Y16912D01*
X2706Y16830D01*
X2760Y16760D01*
X2830Y16706D01*
X2912Y16672D01*
X3000Y16661D01*
X3088Y16672D01*
X3170Y16706D01*
X3240Y16760D01*
X3294Y16830D01*
X3328Y16912D01*
X3339Y17000D01*
X3328Y17088D01*
X3294Y17170D01*
X3240Y17240D01*
X3170Y17294D01*
X3088Y17328D01*
X3000Y17339D01*
D02*
G37*
G36*
X1000D02*
X912Y17328D01*
X830Y17294D01*
X760Y17240D01*
X706Y17170D01*
X672Y17088D01*
X661Y17000D01*
X672Y16912D01*
X706Y16830D01*
X760Y16760D01*
X830Y16706D01*
X912Y16672D01*
X1000Y16661D01*
X1088Y16672D01*
X1170Y16706D01*
X1240Y16760D01*
X1294Y16830D01*
X1328Y16912D01*
X1339Y17000D01*
X1328Y17088D01*
X1294Y17170D01*
X1240Y17240D01*
X1170Y17294D01*
X1088Y17328D01*
X1000Y17339D01*
D02*
G37*
G36*
X8260Y17363D02*
X7740D01*
X7646Y17351D01*
X7558Y17314D01*
X7483Y17257D01*
X7426Y17182D01*
X7389Y17094D01*
X7377Y17000D01*
X7389Y16906D01*
X7426Y16818D01*
X7483Y16743D01*
X7558Y16686D01*
X7646Y16649D01*
X7740Y16637D01*
X8260D01*
X8354Y16649D01*
X8442Y16686D01*
X8517Y16743D01*
X8574Y16818D01*
X8611Y16906D01*
X8623Y17000D01*
X8611Y17094D01*
X8574Y17182D01*
X8517Y17257D01*
X8442Y17314D01*
X8354Y17351D01*
X8260Y17363D01*
D02*
G37*
G36*
X36108Y17369D02*
X36005Y17356D01*
X35909Y17316D01*
X35826Y17252D01*
X35763Y17170D01*
X35723Y17074D01*
X35710Y16970D01*
X35723Y16867D01*
X35763Y16771D01*
X35826Y16689D01*
X35909Y16625D01*
X36005Y16585D01*
X36108Y16572D01*
X36211Y16585D01*
X36308Y16625D01*
X36390Y16689D01*
X36454Y16771D01*
X36493Y16867D01*
X36507Y16970D01*
X36493Y17074D01*
X36454Y17170D01*
X36390Y17252D01*
X36308Y17316D01*
X36211Y17356D01*
X36108Y17369D01*
D02*
G37*
G36*
X32250D02*
X32147Y17356D01*
X32051Y17316D01*
X31968Y17252D01*
X31905Y17170D01*
X31865Y17074D01*
X31851Y16970D01*
X31865Y16867D01*
X31905Y16771D01*
X31968Y16689D01*
X32051Y16625D01*
X32147Y16585D01*
X32250Y16572D01*
X32353Y16585D01*
X32449Y16625D01*
X32532Y16689D01*
X32595Y16771D01*
X32635Y16867D01*
X32649Y16970D01*
X32635Y17074D01*
X32595Y17170D01*
X32532Y17252D01*
X32449Y17316D01*
X32353Y17356D01*
X32250Y17369D01*
D02*
G37*
G36*
X15550Y16372D02*
Y16050D01*
X15872D01*
X15866Y16098D01*
X15828Y16189D01*
X15768Y16268D01*
X15689Y16328D01*
X15598Y16366D01*
X15550Y16372D01*
D02*
G37*
G36*
X5050Y16333D02*
Y16050D01*
X5333D01*
X5328Y16088D01*
X5294Y16170D01*
X5240Y16240D01*
X5170Y16294D01*
X5088Y16328D01*
X5050Y16333D01*
D02*
G37*
G36*
X3050D02*
Y16050D01*
X3333D01*
X3328Y16088D01*
X3294Y16170D01*
X3240Y16240D01*
X3170Y16294D01*
X3088Y16328D01*
X3050Y16333D01*
D02*
G37*
G36*
X1050D02*
Y16050D01*
X1333D01*
X1328Y16088D01*
X1294Y16170D01*
X1240Y16240D01*
X1170Y16294D01*
X1088Y16328D01*
X1050Y16333D01*
D02*
G37*
G36*
X7950Y16363D02*
X7740D01*
X7646Y16351D01*
X7558Y16314D01*
X7483Y16257D01*
X7426Y16182D01*
X7389Y16094D01*
X7383Y16050D01*
X7950D01*
Y16363D01*
D02*
G37*
G36*
X4950Y16333D02*
X4912Y16328D01*
X4830Y16294D01*
X4760Y16240D01*
X4706Y16170D01*
X4672Y16088D01*
X4667Y16050D01*
X4950D01*
Y16333D01*
D02*
G37*
G36*
X2950D02*
X2912Y16328D01*
X2830Y16294D01*
X2760Y16240D01*
X2706Y16170D01*
X2672Y16088D01*
X2667Y16050D01*
X2950D01*
Y16333D01*
D02*
G37*
G36*
X950D02*
X912Y16328D01*
X830Y16294D01*
X760Y16240D01*
X706Y16170D01*
X672Y16088D01*
X667Y16050D01*
X950D01*
Y16333D01*
D02*
G37*
G36*
X15450Y16372D02*
X15402Y16366D01*
X15311Y16328D01*
X15232Y16268D01*
X15172Y16189D01*
X15134Y16098D01*
X15128Y16050D01*
X15450D01*
Y16372D01*
D02*
G37*
G36*
X5333Y15950D02*
X5050D01*
Y15667D01*
X5088Y15672D01*
X5170Y15706D01*
X5240Y15760D01*
X5294Y15830D01*
X5328Y15912D01*
X5333Y15950D01*
D02*
G37*
G36*
X3333D02*
X3050D01*
Y15667D01*
X3088Y15672D01*
X3170Y15706D01*
X3240Y15760D01*
X3294Y15830D01*
X3328Y15912D01*
X3333Y15950D01*
D02*
G37*
G36*
X1333D02*
X1050D01*
Y15667D01*
X1088Y15672D01*
X1170Y15706D01*
X1240Y15760D01*
X1294Y15830D01*
X1328Y15912D01*
X1333Y15950D01*
D02*
G37*
G36*
X4950D02*
X4667D01*
X4672Y15912D01*
X4706Y15830D01*
X4760Y15760D01*
X4830Y15706D01*
X4912Y15672D01*
X4950Y15667D01*
Y15950D01*
D02*
G37*
G36*
X2950D02*
X2667D01*
X2672Y15912D01*
X2706Y15830D01*
X2760Y15760D01*
X2830Y15706D01*
X2912Y15672D01*
X2950Y15667D01*
Y15950D01*
D02*
G37*
G36*
X950D02*
X667D01*
X672Y15912D01*
X706Y15830D01*
X760Y15760D01*
X830Y15706D01*
X912Y15672D01*
X950Y15667D01*
Y15950D01*
D02*
G37*
G36*
X11260Y16363D02*
X10740D01*
X10646Y16351D01*
X10558Y16314D01*
X10483Y16257D01*
X10426Y16182D01*
X10389Y16094D01*
X10377Y16000D01*
X10389Y15906D01*
X10426Y15818D01*
X10483Y15743D01*
X10558Y15686D01*
X10646Y15649D01*
X10740Y15637D01*
X11260D01*
X11354Y15649D01*
X11442Y15686D01*
X11517Y15743D01*
X11574Y15818D01*
X11611Y15906D01*
X11623Y16000D01*
X11611Y16094D01*
X11574Y16182D01*
X11517Y16257D01*
X11442Y16314D01*
X11354Y16351D01*
X11260Y16363D01*
D02*
G37*
G36*
X15872Y15950D02*
X15550D01*
Y15628D01*
X15598Y15634D01*
X15689Y15672D01*
X15768Y15732D01*
X15828Y15811D01*
X15866Y15902D01*
X15872Y15950D01*
D02*
G37*
G36*
X15450D02*
X15128D01*
X15134Y15902D01*
X15172Y15811D01*
X15232Y15732D01*
X15311Y15672D01*
X15402Y15634D01*
X15450Y15628D01*
Y15950D01*
D02*
G37*
G36*
X13750Y16379D02*
X13652Y16366D01*
X13561Y16328D01*
X13482Y16268D01*
X13422Y16189D01*
X13384Y16098D01*
X13371Y16000D01*
X13384Y15902D01*
X13422Y15811D01*
X13482Y15732D01*
X13561Y15672D01*
X13652Y15634D01*
X13750Y15621D01*
X13848Y15634D01*
X13939Y15672D01*
X14018Y15732D01*
X14078Y15811D01*
X14116Y15902D01*
X14129Y16000D01*
X14116Y16098D01*
X14078Y16189D01*
X14018Y16268D01*
X13939Y16328D01*
X13848Y16366D01*
X13750Y16379D01*
D02*
G37*
G36*
X36108Y16149D02*
X36005Y16135D01*
X35909Y16095D01*
X35826Y16032D01*
X35763Y15949D01*
X35723Y15853D01*
X35710Y15750D01*
X35723Y15647D01*
X35763Y15551D01*
X35826Y15468D01*
X35909Y15405D01*
X36005Y15365D01*
X36108Y15351D01*
X36211Y15365D01*
X36308Y15405D01*
X36390Y15468D01*
X36454Y15551D01*
X36493Y15647D01*
X36507Y15750D01*
X36493Y15853D01*
X36454Y15949D01*
X36390Y16032D01*
X36308Y16095D01*
X36211Y16135D01*
X36108Y16149D01*
D02*
G37*
G36*
X32250D02*
X32147Y16135D01*
X32051Y16095D01*
X31968Y16032D01*
X31905Y15949D01*
X31865Y15853D01*
X31851Y15750D01*
X31865Y15647D01*
X31905Y15551D01*
X31968Y15468D01*
X32051Y15405D01*
X32147Y15365D01*
X32250Y15351D01*
X32353Y15365D01*
X32449Y15405D01*
X32532Y15468D01*
X32595Y15551D01*
X32635Y15647D01*
X32649Y15750D01*
X32635Y15853D01*
X32595Y15949D01*
X32532Y16032D01*
X32449Y16095D01*
X32353Y16135D01*
X32250Y16149D01*
D02*
G37*
G36*
X8260Y14363D02*
X7740D01*
X7646Y14351D01*
X7558Y14314D01*
X7483Y14257D01*
X7426Y14182D01*
X7414Y14153D01*
X5748D01*
X5738Y14177D01*
X5682Y14250D01*
X5609Y14306D01*
X5524Y14341D01*
X5432Y14353D01*
X5341Y14341D01*
X5256Y14306D01*
X5183Y14250D01*
X5127Y14177D01*
X5091Y14091D01*
X5079Y14000D01*
X5091Y13909D01*
X5127Y13823D01*
X5183Y13750D01*
X5256Y13694D01*
X5341Y13659D01*
X5432Y13647D01*
X5524Y13659D01*
X5609Y13694D01*
X5682Y13750D01*
X5738Y13823D01*
X5748Y13847D01*
X7414D01*
X7426Y13818D01*
X7483Y13743D01*
X7558Y13686D01*
X7646Y13649D01*
X7740Y13637D01*
X8260D01*
X8354Y13649D01*
X8442Y13686D01*
X8517Y13743D01*
X8574Y13818D01*
X8611Y13906D01*
X8623Y14000D01*
X8611Y14094D01*
X8574Y14182D01*
X8517Y14257D01*
X8442Y14314D01*
X8354Y14351D01*
X8260Y14363D01*
D02*
G37*
G36*
X36108Y14928D02*
X36005Y14915D01*
X35909Y14875D01*
X35826Y14811D01*
X35763Y14729D01*
X35723Y14633D01*
X35710Y14530D01*
X35723Y14426D01*
X35763Y14330D01*
X35826Y14248D01*
X35909Y14184D01*
X36005Y14144D01*
X36108Y14131D01*
X36211Y14144D01*
X36308Y14184D01*
X36390Y14248D01*
X36454Y14330D01*
X36493Y14426D01*
X36507Y14530D01*
X36493Y14633D01*
X36454Y14729D01*
X36390Y14811D01*
X36308Y14875D01*
X36211Y14915D01*
X36108Y14928D01*
D02*
G37*
G36*
X32250D02*
X32147Y14915D01*
X32051Y14875D01*
X31968Y14811D01*
X31905Y14729D01*
X31865Y14633D01*
X31851Y14530D01*
X31865Y14426D01*
X31905Y14330D01*
X31968Y14248D01*
X32051Y14184D01*
X32147Y14144D01*
X32250Y14131D01*
X32353Y14144D01*
X32449Y14184D01*
X32532Y14248D01*
X32595Y14330D01*
X32635Y14426D01*
X32649Y14530D01*
X32635Y14633D01*
X32595Y14729D01*
X32532Y14811D01*
X32449Y14875D01*
X32353Y14915D01*
X32250Y14928D01*
D02*
G37*
G36*
X8260Y13363D02*
X8050D01*
Y13050D01*
X8617D01*
X8611Y13094D01*
X8574Y13182D01*
X8517Y13257D01*
X8442Y13314D01*
X8354Y13351D01*
X8260Y13363D01*
D02*
G37*
G36*
X7950D02*
X7740D01*
X7646Y13351D01*
X7558Y13314D01*
X7483Y13257D01*
X7426Y13182D01*
X7389Y13094D01*
X7383Y13050D01*
X7950D01*
Y13363D01*
D02*
G37*
G36*
X11260D02*
X10740D01*
X10646Y13351D01*
X10558Y13314D01*
X10483Y13257D01*
X10426Y13182D01*
X10389Y13094D01*
X10377Y13000D01*
X10389Y12906D01*
X10426Y12818D01*
X10483Y12743D01*
X10558Y12686D01*
X10646Y12649D01*
X10740Y12637D01*
X11260D01*
X11354Y12649D01*
X11442Y12686D01*
X11517Y12743D01*
X11574Y12818D01*
X11611Y12906D01*
X11623Y13000D01*
X11611Y13094D01*
X11574Y13182D01*
X11517Y13257D01*
X11442Y13314D01*
X11354Y13351D01*
X11260Y13363D01*
D02*
G37*
G36*
X17238Y12379D02*
X17140Y12366D01*
X17049Y12328D01*
X16970Y12268D01*
X16910Y12189D01*
X16895Y12153D01*
X15843D01*
X15828Y12189D01*
X15768Y12268D01*
X15689Y12328D01*
X15598Y12366D01*
X15500Y12379D01*
X15402Y12366D01*
X15311Y12328D01*
X15232Y12268D01*
X15172Y12189D01*
X15157Y12153D01*
X14093D01*
X14078Y12189D01*
X14018Y12268D01*
X13939Y12328D01*
X13848Y12366D01*
X13750Y12379D01*
X13652Y12366D01*
X13561Y12328D01*
X13482Y12268D01*
X13422Y12189D01*
X13384Y12098D01*
X13371Y12000D01*
X13384Y11902D01*
X13422Y11811D01*
X13482Y11732D01*
X13561Y11672D01*
X13652Y11634D01*
X13750Y11621D01*
X13848Y11634D01*
X13939Y11672D01*
X14018Y11732D01*
X14078Y11811D01*
X14093Y11847D01*
X15157D01*
X15172Y11811D01*
X15232Y11732D01*
X15311Y11672D01*
X15402Y11634D01*
X15500Y11621D01*
X15598Y11634D01*
X15689Y11672D01*
X15768Y11732D01*
X15828Y11811D01*
X15843Y11847D01*
X16895D01*
X16910Y11811D01*
X16970Y11732D01*
X17049Y11672D01*
X17140Y11634D01*
X17238Y11621D01*
X17336Y11634D01*
X17428Y11672D01*
X17506Y11732D01*
X17566Y11811D01*
X17604Y11902D01*
X17617Y12000D01*
X17604Y12098D01*
X17566Y12189D01*
X17506Y12268D01*
X17428Y12328D01*
X17336Y12366D01*
X17238Y12379D01*
D02*
G37*
G36*
X11260Y12363D02*
X10740D01*
X10646Y12351D01*
X10558Y12314D01*
X10483Y12257D01*
X10426Y12182D01*
X10414Y12153D01*
X9500D01*
X9441Y12141D01*
X9392Y12108D01*
X8847Y11563D01*
X7440D01*
X7381Y11551D01*
X7332Y11518D01*
X7122Y11308D01*
X7089Y11259D01*
X7077Y11200D01*
Y5613D01*
X7016Y5552D01*
X6970Y5572D01*
Y5892D01*
X6735Y6127D01*
X6265D01*
X6030Y5892D01*
Y5422D01*
X6078Y5375D01*
X6061Y5321D01*
X6055Y5319D01*
X5961Y5413D01*
X5970Y5422D01*
Y5892D01*
X5735Y6127D01*
X5265D01*
X5030Y5892D01*
Y5422D01*
X5265Y5187D01*
X5735D01*
X5744Y5197D01*
X5805Y5137D01*
X5785Y5090D01*
X5283D01*
X4961Y5413D01*
X4970Y5422D01*
Y5607D01*
X4550D01*
Y5187D01*
X4735D01*
X4744Y5197D01*
X5112Y4829D01*
X5161Y4796D01*
X5220Y4785D01*
X7107D01*
X7166Y4796D01*
X7216Y4829D01*
X7768Y5382D01*
X7801Y5431D01*
X7813Y5490D01*
Y7787D01*
X9873Y9847D01*
X10414D01*
X10426Y9818D01*
X10483Y9743D01*
X10558Y9686D01*
X10646Y9649D01*
X10740Y9637D01*
X10950D01*
Y10000D01*
Y10363D01*
X10740D01*
X10646Y10351D01*
X10558Y10314D01*
X10483Y10257D01*
X10426Y10182D01*
X10414Y10153D01*
X9810D01*
X9751Y10141D01*
X9702Y10108D01*
X7552Y7958D01*
X7519Y7909D01*
X7507Y7850D01*
Y5553D01*
X7404Y5450D01*
X7365Y5482D01*
X7371Y5491D01*
X7383Y5550D01*
Y9796D01*
X7393Y9801D01*
X7433Y9809D01*
X7483Y9743D01*
X7558Y9686D01*
X7646Y9649D01*
X7740Y9637D01*
X8260D01*
X8354Y9649D01*
X8442Y9686D01*
X8517Y9743D01*
X8574Y9818D01*
X8611Y9906D01*
X8623Y10000D01*
X8611Y10094D01*
X8574Y10182D01*
X8517Y10257D01*
X8442Y10314D01*
X8354Y10351D01*
X8260Y10363D01*
X7740D01*
X7646Y10351D01*
X7558Y10314D01*
X7483Y10257D01*
X7433Y10191D01*
X7393Y10199D01*
X7383Y10204D01*
Y10796D01*
X7393Y10801D01*
X7433Y10809D01*
X7483Y10743D01*
X7558Y10686D01*
X7646Y10649D01*
X7740Y10637D01*
X7950D01*
Y11000D01*
X8050D01*
Y10637D01*
X8260D01*
X8354Y10649D01*
X8442Y10686D01*
X8517Y10743D01*
X8574Y10818D01*
X8586Y10847D01*
X10414D01*
X10426Y10818D01*
X10483Y10743D01*
X10558Y10686D01*
X10646Y10649D01*
X10740Y10637D01*
X10950D01*
Y11000D01*
Y11363D01*
X10740D01*
X10646Y11351D01*
X10558Y11314D01*
X10483Y11257D01*
X10426Y11182D01*
X10414Y11153D01*
X8586D01*
X8574Y11182D01*
X8555Y11207D01*
X8580Y11257D01*
X8910D01*
X8969Y11269D01*
X9018Y11302D01*
X9563Y11847D01*
X10414D01*
X10426Y11818D01*
X10483Y11743D01*
X10558Y11686D01*
X10646Y11649D01*
X10740Y11637D01*
X11260D01*
X11354Y11649D01*
X11442Y11686D01*
X11517Y11743D01*
X11574Y11818D01*
X11611Y11906D01*
X11623Y12000D01*
X11611Y12094D01*
X11574Y12182D01*
X11517Y12257D01*
X11442Y12314D01*
X11354Y12351D01*
X11260Y12363D01*
D02*
G37*
G36*
X8617Y11950D02*
X8050D01*
Y11637D01*
X8260D01*
X8354Y11649D01*
X8442Y11686D01*
X8517Y11743D01*
X8574Y11818D01*
X8611Y11906D01*
X8617Y11950D01*
D02*
G37*
G36*
X7950D02*
X7383D01*
X7389Y11906D01*
X7426Y11818D01*
X7483Y11743D01*
X7558Y11686D01*
X7646Y11649D01*
X7740Y11637D01*
X7950D01*
Y11950D01*
D02*
G37*
G36*
X11260Y11363D02*
X11050D01*
Y11050D01*
X11617D01*
X11611Y11094D01*
X11574Y11182D01*
X11517Y11257D01*
X11442Y11314D01*
X11354Y11351D01*
X11260Y11363D01*
D02*
G37*
G36*
X34121Y11030D02*
X34073Y11023D01*
X33982Y10986D01*
X33903Y10925D01*
X33843Y10847D01*
X33805Y10756D01*
X33799Y10707D01*
X34121D01*
Y11030D01*
D02*
G37*
G36*
X11617Y10950D02*
X11050D01*
Y10637D01*
X11260D01*
X11354Y10649D01*
X11442Y10686D01*
X11517Y10743D01*
X11574Y10818D01*
X11611Y10906D01*
X11617Y10950D01*
D02*
G37*
G36*
X34121Y10607D02*
X33799D01*
X33805Y10559D01*
X33843Y10468D01*
X33903Y10390D01*
X33977Y10333D01*
X33977Y10317D01*
X33963Y10283D01*
X33296D01*
Y9532D01*
X34047D01*
Y10248D01*
X34053Y10258D01*
X34095Y10289D01*
X34121Y10285D01*
Y10607D01*
D02*
G37*
G36*
X11260Y10363D02*
X11050D01*
Y10050D01*
X11617D01*
X11611Y10094D01*
X11574Y10182D01*
X11517Y10257D01*
X11442Y10314D01*
X11354Y10351D01*
X11260Y10363D01*
D02*
G37*
G36*
X11617Y9950D02*
X11050D01*
Y9637D01*
X11260D01*
X11354Y9649D01*
X11442Y9686D01*
X11517Y9743D01*
X11574Y9818D01*
X11611Y9906D01*
X11617Y9950D01*
D02*
G37*
G36*
X16170Y9063D02*
X16079Y9051D01*
X15993Y9016D01*
X15920Y8960D01*
X15864Y8887D01*
X15829Y8801D01*
X15817Y8710D01*
X15829Y8619D01*
X15839Y8595D01*
X15117Y7873D01*
X9970D01*
X9911Y7861D01*
X9862Y7828D01*
X9142Y7108D01*
X9109Y7059D01*
X9102Y7023D01*
X9048Y7011D01*
X9032Y7032D01*
X8949Y7095D01*
X8903Y7114D01*
Y7537D01*
X9663Y8297D01*
X14185D01*
X14194Y8273D01*
X14250Y8200D01*
X14323Y8144D01*
X14409Y8109D01*
X14500Y8097D01*
X14591Y8109D01*
X14677Y8144D01*
X14750Y8200D01*
X14806Y8273D01*
X14841Y8359D01*
X14853Y8450D01*
X14841Y8541D01*
X14806Y8627D01*
X14750Y8700D01*
X14677Y8756D01*
X14591Y8791D01*
X14500Y8803D01*
X14409Y8791D01*
X14323Y8756D01*
X14250Y8700D01*
X14194Y8627D01*
X14185Y8603D01*
X9600D01*
X9541Y8591D01*
X9492Y8558D01*
X8642Y7708D01*
X8609Y7659D01*
X8597Y7600D01*
Y7114D01*
X8551Y7095D01*
X8468Y7032D01*
X8405Y6949D01*
X8365Y6853D01*
X8351Y6750D01*
X8365Y6647D01*
X8405Y6551D01*
X8468Y6468D01*
X8551Y6405D01*
X8647Y6365D01*
X8750Y6351D01*
X8853Y6365D01*
X8949Y6405D01*
X9032Y6468D01*
X9047Y6488D01*
X9097Y6471D01*
Y6029D01*
X9047Y6012D01*
X9032Y6032D01*
X8949Y6095D01*
X8853Y6135D01*
X8750Y6149D01*
X8647Y6135D01*
X8551Y6095D01*
X8468Y6032D01*
X8405Y5949D01*
X8365Y5853D01*
X8351Y5750D01*
X8365Y5647D01*
X8405Y5551D01*
X8468Y5468D01*
X8551Y5405D01*
X8647Y5365D01*
X8750Y5351D01*
X8853Y5365D01*
X8949Y5405D01*
X9032Y5468D01*
X9047Y5488D01*
X9097Y5471D01*
Y5313D01*
X8900Y5116D01*
X8853Y5135D01*
X8750Y5149D01*
X8647Y5135D01*
X8551Y5095D01*
X8468Y5032D01*
X8405Y4949D01*
X8365Y4853D01*
X8351Y4750D01*
X8365Y4647D01*
X8405Y4551D01*
X8468Y4468D01*
X8551Y4405D01*
X8647Y4365D01*
X8750Y4351D01*
X8853Y4365D01*
X8949Y4405D01*
X9032Y4468D01*
X9095Y4551D01*
X9135Y4647D01*
X9149Y4750D01*
X9135Y4853D01*
X9116Y4900D01*
X9358Y5142D01*
X9391Y5191D01*
X9403Y5250D01*
Y5471D01*
X9453Y5488D01*
X9468Y5468D01*
X9551Y5405D01*
X9647Y5365D01*
X9750Y5351D01*
X9853Y5365D01*
X9949Y5405D01*
X10032Y5468D01*
X10095Y5551D01*
X10135Y5647D01*
X10149Y5750D01*
X10135Y5853D01*
X10095Y5949D01*
X10032Y6032D01*
X9949Y6095D01*
X9853Y6135D01*
X9750Y6149D01*
X9647Y6135D01*
X9551Y6095D01*
X9468Y6032D01*
X9453Y6012D01*
X9403Y6029D01*
Y6471D01*
X9453Y6488D01*
X9468Y6468D01*
X9551Y6405D01*
X9647Y6365D01*
X9750Y6351D01*
X9853Y6365D01*
X9949Y6405D01*
X10032Y6468D01*
X10095Y6551D01*
X10135Y6647D01*
X10149Y6750D01*
X10135Y6853D01*
X10116Y6900D01*
X10263Y7047D01*
X11167D01*
X11191Y6997D01*
X11155Y6949D01*
X11115Y6853D01*
X11101Y6750D01*
X11115Y6647D01*
X11155Y6551D01*
X11218Y6468D01*
X11301Y6405D01*
X11397Y6365D01*
X11500Y6351D01*
X11603Y6365D01*
X11699Y6405D01*
X11782Y6468D01*
X11845Y6551D01*
X11885Y6647D01*
X11899Y6750D01*
X11885Y6853D01*
X11845Y6949D01*
X11809Y6997D01*
X11833Y7047D01*
X11987D01*
X12134Y6900D01*
X12115Y6853D01*
X12101Y6750D01*
X12115Y6647D01*
X12155Y6551D01*
X12218Y6468D01*
X12301Y6405D01*
X12305Y6403D01*
X12295Y6353D01*
X11950D01*
X11891Y6341D01*
X11842Y6308D01*
X11650Y6116D01*
X11603Y6135D01*
X11500Y6149D01*
X11397Y6135D01*
X11301Y6095D01*
X11218Y6032D01*
X11155Y5949D01*
X11115Y5853D01*
X11101Y5750D01*
X11115Y5647D01*
X11155Y5551D01*
X11218Y5468D01*
X11301Y5405D01*
X11397Y5365D01*
X11500Y5351D01*
X11603Y5365D01*
X11699Y5405D01*
X11782Y5468D01*
X11845Y5551D01*
X11885Y5647D01*
X11899Y5750D01*
X11885Y5853D01*
X11866Y5900D01*
X12013Y6047D01*
X12167D01*
X12191Y5997D01*
X12155Y5949D01*
X12115Y5853D01*
X12101Y5750D01*
X12115Y5647D01*
X12155Y5551D01*
X12218Y5468D01*
X12301Y5405D01*
X12397Y5365D01*
X12500Y5351D01*
X12603Y5365D01*
X12699Y5405D01*
X12782Y5468D01*
X12845Y5551D01*
X12885Y5647D01*
X12899Y5750D01*
X12885Y5853D01*
X12862Y5909D01*
X12903Y5941D01*
X12963Y5894D01*
X13049Y5859D01*
X13140Y5847D01*
X13231Y5859D01*
X13317Y5894D01*
X13390Y5950D01*
X13446Y6023D01*
X13481Y6109D01*
X13493Y6200D01*
X13481Y6291D01*
X13446Y6377D01*
X13390Y6450D01*
X13317Y6506D01*
X13231Y6541D01*
X13140Y6553D01*
X13049Y6541D01*
X12963Y6506D01*
X12890Y6450D01*
X12834Y6377D01*
X12825Y6353D01*
X12705D01*
X12695Y6403D01*
X12699Y6405D01*
X12782Y6468D01*
X12845Y6551D01*
X12885Y6647D01*
X12899Y6750D01*
X12885Y6853D01*
X12866Y6900D01*
X13013Y7047D01*
X13917D01*
X13941Y6997D01*
X13905Y6949D01*
X13865Y6853D01*
X13851Y6750D01*
X13865Y6647D01*
X13905Y6551D01*
X13968Y6468D01*
X14051Y6405D01*
X14147Y6365D01*
X14250Y6351D01*
X14353Y6365D01*
X14449Y6405D01*
X14532Y6468D01*
X14595Y6551D01*
X14635Y6647D01*
X14649Y6750D01*
X14635Y6853D01*
X14595Y6949D01*
X14559Y6997D01*
X14583Y7047D01*
X14737D01*
X14884Y6900D01*
X14865Y6853D01*
X14851Y6750D01*
X14865Y6647D01*
X14905Y6551D01*
X14968Y6468D01*
X15051Y6405D01*
X15147Y6365D01*
X15250Y6351D01*
X15353Y6365D01*
X15449Y6405D01*
X15532Y6468D01*
X15595Y6551D01*
X15635Y6647D01*
X15649Y6750D01*
X15635Y6853D01*
X15616Y6900D01*
X15763Y7047D01*
X16417D01*
X16441Y6997D01*
X16405Y6949D01*
X16365Y6853D01*
X16351Y6750D01*
X16365Y6647D01*
X16405Y6551D01*
X16468Y6468D01*
X16551Y6405D01*
X16647Y6365D01*
X16750Y6351D01*
X16853Y6365D01*
X16949Y6405D01*
X17032Y6468D01*
X17095Y6551D01*
X17135Y6647D01*
X17149Y6750D01*
X17135Y6853D01*
X17095Y6949D01*
X17059Y6997D01*
X17083Y7047D01*
X17237D01*
X17384Y6900D01*
X17365Y6853D01*
X17351Y6750D01*
X17365Y6647D01*
X17405Y6551D01*
X17468Y6468D01*
X17551Y6405D01*
X17647Y6365D01*
X17750Y6351D01*
X17853Y6365D01*
X17949Y6405D01*
X18032Y6468D01*
X18095Y6551D01*
X18114Y6597D01*
X19970D01*
X20029Y6609D01*
X20039Y6616D01*
X20080Y6583D01*
X20079Y6581D01*
X20067Y6490D01*
X20079Y6399D01*
X20114Y6313D01*
X20170Y6240D01*
X20243Y6184D01*
X20329Y6149D01*
X20420Y6137D01*
X20511Y6149D01*
X20535Y6159D01*
X21422Y5272D01*
X21471Y5239D01*
X21530Y5227D01*
X23048D01*
X23058Y5177D01*
X23051Y5174D01*
X22968Y5111D01*
X22905Y5028D01*
X22865Y4932D01*
X22851Y4829D01*
X22865Y4726D01*
X22905Y4629D01*
X22968Y4547D01*
X22999Y4523D01*
X22982Y4473D01*
X18320D01*
X18261Y4461D01*
X18212Y4428D01*
X17929Y4145D01*
X17571D01*
X17408Y4308D01*
X17359Y4341D01*
X17300Y4353D01*
X16955D01*
X16945Y4403D01*
X16949Y4405D01*
X17032Y4468D01*
X17095Y4551D01*
X17135Y4647D01*
X17149Y4750D01*
X17135Y4853D01*
X17095Y4949D01*
X17032Y5032D01*
X16949Y5095D01*
X16853Y5135D01*
X16750Y5149D01*
X16647Y5135D01*
X16551Y5095D01*
X16468Y5032D01*
X16405Y4949D01*
X16365Y4853D01*
X16351Y4750D01*
X16365Y4647D01*
X16405Y4551D01*
X16468Y4468D01*
X16551Y4405D01*
X16555Y4403D01*
X16545Y4353D01*
X15700D01*
X15641Y4341D01*
X15592Y4308D01*
X15429Y4145D01*
X14855D01*
Y3355D01*
X15645D01*
Y3929D01*
X15763Y4047D01*
X16417D01*
X16441Y3997D01*
X16405Y3949D01*
X16365Y3853D01*
X16351Y3750D01*
X16365Y3647D01*
X16405Y3551D01*
X16468Y3468D01*
X16551Y3405D01*
X16647Y3365D01*
X16750Y3351D01*
X16853Y3365D01*
X16900Y3384D01*
X17642Y2642D01*
X17691Y2609D01*
X17750Y2597D01*
X22171D01*
X22230Y2609D01*
X22279Y2642D01*
X23100Y3463D01*
X23147Y3444D01*
X23250Y3430D01*
X23353Y3444D01*
X23449Y3483D01*
X23532Y3547D01*
X23595Y3629D01*
X23635Y3726D01*
X23649Y3829D01*
X23635Y3932D01*
X23595Y4028D01*
X23532Y4111D01*
X23520Y4120D01*
X23536Y4167D01*
X23695D01*
X23855Y4008D01*
Y3433D01*
X24645D01*
Y4224D01*
X24071D01*
X23867Y4428D01*
X23817Y4461D01*
X23759Y4473D01*
X23518D01*
X23501Y4523D01*
X23532Y4547D01*
X23595Y4629D01*
X23635Y4726D01*
X23649Y4829D01*
X23635Y4932D01*
X23595Y5028D01*
X23532Y5111D01*
X23449Y5174D01*
X23442Y5177D01*
X23452Y5227D01*
X24048D01*
X24058Y5177D01*
X24051Y5174D01*
X23968Y5111D01*
X23905Y5028D01*
X23865Y4932D01*
X23851Y4829D01*
X23865Y4726D01*
X23905Y4629D01*
X23968Y4547D01*
X24051Y4483D01*
X24147Y4444D01*
X24250Y4430D01*
X24353Y4444D01*
X24449Y4483D01*
X24532Y4547D01*
X24595Y4629D01*
X24635Y4726D01*
X24649Y4829D01*
X24635Y4932D01*
X24595Y5028D01*
X24532Y5111D01*
X24449Y5174D01*
X24442Y5177D01*
X24452Y5227D01*
X25798D01*
X25808Y5177D01*
X25801Y5174D01*
X25718Y5111D01*
X25655Y5028D01*
X25615Y4932D01*
X25601Y4829D01*
X25615Y4726D01*
X25655Y4629D01*
X25718Y4547D01*
X25801Y4483D01*
X25897Y4444D01*
X26000Y4430D01*
X26103Y4444D01*
X26199Y4483D01*
X26282Y4547D01*
X26345Y4629D01*
X26385Y4726D01*
X26399Y4829D01*
X26385Y4932D01*
X26345Y5028D01*
X26282Y5111D01*
X26199Y5174D01*
X26192Y5177D01*
X26202Y5227D01*
X27301D01*
X27360Y5239D01*
X27409Y5272D01*
X27600Y5463D01*
X27647Y5444D01*
X27750Y5430D01*
X27853Y5444D01*
X27949Y5483D01*
X28032Y5547D01*
X28095Y5629D01*
X28135Y5726D01*
X28149Y5829D01*
X28135Y5932D01*
X28095Y6028D01*
X28032Y6111D01*
X27949Y6174D01*
X27853Y6214D01*
X27750Y6227D01*
X27647Y6214D01*
X27551Y6174D01*
X27468Y6111D01*
X27405Y6028D01*
X27365Y5932D01*
X27351Y5829D01*
X27365Y5726D01*
X27384Y5679D01*
X27238Y5533D01*
X26334D01*
X26310Y5583D01*
X26345Y5629D01*
X26385Y5726D01*
X26399Y5829D01*
X26385Y5932D01*
X26345Y6028D01*
X26282Y6111D01*
X26199Y6174D01*
X26103Y6214D01*
X26000Y6227D01*
X25897Y6214D01*
X25801Y6174D01*
X25718Y6111D01*
X25655Y6028D01*
X25636Y5982D01*
X25215D01*
X24808Y6388D01*
X24759Y6421D01*
X24700Y6433D01*
X24458D01*
X24448Y6483D01*
X24449Y6483D01*
X24532Y6547D01*
X24595Y6629D01*
X24635Y6726D01*
X24649Y6829D01*
X24635Y6932D01*
X24595Y7028D01*
X24532Y7111D01*
X24449Y7174D01*
X24353Y7214D01*
X24250Y7227D01*
X24147Y7214D01*
X24100Y7195D01*
X23867Y7428D01*
X23817Y7461D01*
X23759Y7473D01*
X20820D01*
X20761Y7461D01*
X20712Y7428D01*
X20327Y7043D01*
X20110D01*
X20051Y7031D01*
X20002Y6998D01*
X19907Y6903D01*
X18114D01*
X18095Y6949D01*
X18032Y7032D01*
X17949Y7095D01*
X17853Y7135D01*
X17750Y7149D01*
X17647Y7135D01*
X17600Y7116D01*
X17408Y7308D01*
X17359Y7341D01*
X17300Y7353D01*
X15700D01*
X15641Y7341D01*
X15592Y7308D01*
X15400Y7116D01*
X15353Y7135D01*
X15250Y7149D01*
X15147Y7135D01*
X15100Y7116D01*
X14908Y7308D01*
X14859Y7341D01*
X14800Y7353D01*
X12950D01*
X12891Y7341D01*
X12842Y7308D01*
X12650Y7116D01*
X12603Y7135D01*
X12500Y7149D01*
X12397Y7135D01*
X12350Y7116D01*
X12158Y7308D01*
X12109Y7341D01*
X12050Y7353D01*
X10200D01*
X10141Y7341D01*
X10092Y7308D01*
X9900Y7116D01*
X9853Y7135D01*
X9750Y7149D01*
X9676Y7139D01*
X9653Y7186D01*
X10033Y7567D01*
X15180D01*
X15239Y7579D01*
X15288Y7612D01*
X16055Y8379D01*
X16079Y8369D01*
X16170Y8357D01*
X16261Y8369D01*
X16347Y8404D01*
X16420Y8460D01*
X16476Y8533D01*
X16511Y8619D01*
X16523Y8710D01*
X16511Y8801D01*
X16476Y8887D01*
X16420Y8960D01*
X16347Y9016D01*
X16261Y9051D01*
X16170Y9063D01*
D02*
G37*
G36*
X34300Y8333D02*
Y8050D01*
X34583D01*
X34578Y8088D01*
X34544Y8170D01*
X34490Y8240D01*
X34420Y8294D01*
X34338Y8328D01*
X34300Y8333D01*
D02*
G37*
G36*
X34200D02*
X34162Y8328D01*
X34080Y8294D01*
X34010Y8240D01*
X33956Y8170D01*
X33922Y8088D01*
X33917Y8050D01*
X34200D01*
Y8333D01*
D02*
G37*
G36*
X31250Y7589D02*
X31162Y7578D01*
X31080Y7544D01*
X31010Y7490D01*
X30956Y7420D01*
X30922Y7338D01*
X30911Y7250D01*
X30922Y7162D01*
X30956Y7080D01*
X31010Y7010D01*
X31080Y6956D01*
X31162Y6922D01*
X31250Y6911D01*
X31338Y6922D01*
X31420Y6956D01*
X31490Y7010D01*
X31544Y7080D01*
X31578Y7162D01*
X31589Y7250D01*
X31578Y7338D01*
X31544Y7420D01*
X31490Y7490D01*
X31420Y7544D01*
X31338Y7578D01*
X31250Y7589D01*
D02*
G37*
G36*
X27800Y7221D02*
Y6879D01*
X28142D01*
X28135Y6932D01*
X28095Y7028D01*
X28032Y7111D01*
X27949Y7174D01*
X27853Y7214D01*
X27800Y7221D01*
D02*
G37*
G36*
X25950D02*
X25897Y7214D01*
X25801Y7174D01*
X25718Y7111D01*
X25655Y7028D01*
X25615Y6932D01*
X25608Y6879D01*
X25950D01*
Y7221D01*
D02*
G37*
G36*
X26050D02*
Y6829D01*
Y6437D01*
X26103Y6444D01*
X26199Y6483D01*
X26282Y6547D01*
X26345Y6629D01*
X26364Y6676D01*
X27386D01*
X27405Y6629D01*
X27468Y6547D01*
X27551Y6483D01*
X27647Y6444D01*
X27700Y6437D01*
Y6829D01*
Y7221D01*
X27647Y7214D01*
X27551Y7174D01*
X27468Y7111D01*
X27405Y7028D01*
X27386Y6982D01*
X26364D01*
X26345Y7028D01*
X26282Y7111D01*
X26199Y7174D01*
X26103Y7214D01*
X26050Y7221D01*
D02*
G37*
G36*
X25950Y6779D02*
X25608D01*
X25615Y6726D01*
X25655Y6629D01*
X25718Y6547D01*
X25801Y6483D01*
X25897Y6444D01*
X25950Y6437D01*
Y6779D01*
D02*
G37*
G36*
X34583Y7950D02*
X34250D01*
X33917D01*
X33922Y7912D01*
X33956Y7830D01*
X34010Y7760D01*
X34080Y7706D01*
X34097Y7699D01*
Y6551D01*
X34080Y6544D01*
X34010Y6490D01*
X33956Y6420D01*
X33949Y6403D01*
X31551D01*
X31544Y6420D01*
X31490Y6490D01*
X31420Y6544D01*
X31338Y6578D01*
X31300Y6583D01*
Y6250D01*
Y5917D01*
X31338Y5922D01*
X31420Y5956D01*
X31490Y6010D01*
X31544Y6080D01*
X31551Y6097D01*
X33949D01*
X33956Y6080D01*
X34010Y6010D01*
X34080Y5956D01*
X34162Y5922D01*
X34200Y5917D01*
Y6250D01*
X34250D01*
Y6300D01*
X34583D01*
X34578Y6338D01*
X34544Y6420D01*
X34490Y6490D01*
X34420Y6544D01*
X34403Y6551D01*
Y7699D01*
X34420Y7706D01*
X34490Y7760D01*
X34544Y7830D01*
X34578Y7912D01*
X34583Y7950D01*
D02*
G37*
G36*
X3145Y7053D02*
X2355D01*
Y6262D01*
X3145D01*
Y7053D01*
D02*
G37*
G36*
X1645D02*
X855D01*
Y6262D01*
X1645D01*
Y7053D01*
D02*
G37*
G36*
X6735Y7127D02*
X6265D01*
X6030Y6892D01*
Y6422D01*
X6265Y6187D01*
X6735D01*
X6970Y6422D01*
Y6892D01*
X6735Y7127D01*
D02*
G37*
G36*
X4735D02*
X4265D01*
X4030Y6892D01*
Y6422D01*
X4265Y6187D01*
X4735D01*
X4970Y6422D01*
Y6892D01*
X4735Y7127D01*
D02*
G37*
G36*
X34583Y6200D02*
X34300D01*
Y5917D01*
X34338Y5922D01*
X34420Y5956D01*
X34490Y6010D01*
X34544Y6080D01*
X34578Y6162D01*
X34583Y6200D01*
D02*
G37*
G36*
X28142Y6779D02*
X27800D01*
Y6437D01*
X27853Y6444D01*
X27900Y6463D01*
X28221Y6142D01*
X28270Y6109D01*
X28329Y6097D01*
X30949D01*
X30956Y6080D01*
X31010Y6010D01*
X31080Y5956D01*
X31162Y5922D01*
X31200Y5917D01*
Y6250D01*
Y6583D01*
X31162Y6578D01*
X31080Y6544D01*
X31010Y6490D01*
X30956Y6420D01*
X30949Y6403D01*
X28392D01*
X28116Y6679D01*
X28135Y6726D01*
X28142Y6779D01*
D02*
G37*
G36*
X4450Y6127D02*
X4265D01*
X4030Y5892D01*
Y5810D01*
X3114D01*
X3095Y5857D01*
X3032Y5939D01*
X2949Y6003D01*
X2853Y6043D01*
X2800Y6050D01*
Y5657D01*
Y5265D01*
X2853Y5272D01*
X2949Y5312D01*
X3032Y5376D01*
X3095Y5458D01*
X3114Y5505D01*
X4030D01*
Y5422D01*
X4265Y5187D01*
X4450D01*
Y5657D01*
Y6127D01*
D02*
G37*
G36*
X4735D02*
X4550D01*
Y5707D01*
X4970D01*
Y5892D01*
X4735Y6127D01*
D02*
G37*
G36*
X1200Y6050D02*
X1147Y6043D01*
X1051Y6003D01*
X968Y5939D01*
X905Y5857D01*
X865Y5761D01*
X858Y5707D01*
X1200D01*
Y6050D01*
D02*
G37*
G36*
X37250Y6129D02*
X37152Y6116D01*
X37061Y6078D01*
X36982Y6018D01*
X36922Y5939D01*
X36884Y5848D01*
X36871Y5750D01*
X36884Y5652D01*
X36922Y5561D01*
X36982Y5482D01*
X37061Y5422D01*
X37152Y5384D01*
X37250Y5371D01*
X37348Y5384D01*
X37439Y5422D01*
X37518Y5482D01*
X37578Y5561D01*
X37616Y5652D01*
X37629Y5750D01*
X37616Y5848D01*
X37578Y5939D01*
X37518Y6018D01*
X37439Y6078D01*
X37348Y6116D01*
X37250Y6129D01*
D02*
G37*
G36*
X17750Y6149D02*
X17647Y6135D01*
X17551Y6095D01*
X17468Y6032D01*
X17405Y5949D01*
X17365Y5853D01*
X17351Y5750D01*
X17365Y5647D01*
X17405Y5551D01*
X17468Y5468D01*
X17551Y5405D01*
X17647Y5365D01*
X17750Y5351D01*
X17853Y5365D01*
X17949Y5405D01*
X18032Y5468D01*
X18095Y5551D01*
X18135Y5647D01*
X18149Y5750D01*
X18135Y5853D01*
X18095Y5949D01*
X18032Y6032D01*
X17949Y6095D01*
X17853Y6135D01*
X17750Y6149D01*
D02*
G37*
G36*
X16750D02*
X16647Y6135D01*
X16551Y6095D01*
X16468Y6032D01*
X16405Y5949D01*
X16365Y5853D01*
X16351Y5750D01*
X16365Y5647D01*
X16405Y5551D01*
X16468Y5468D01*
X16551Y5405D01*
X16647Y5365D01*
X16750Y5351D01*
X16853Y5365D01*
X16949Y5405D01*
X17032Y5468D01*
X17095Y5551D01*
X17135Y5647D01*
X17149Y5750D01*
X17135Y5853D01*
X17095Y5949D01*
X17032Y6032D01*
X16949Y6095D01*
X16853Y6135D01*
X16750Y6149D01*
D02*
G37*
G36*
X15250D02*
X15147Y6135D01*
X15051Y6095D01*
X14968Y6032D01*
X14905Y5949D01*
X14865Y5853D01*
X14851Y5750D01*
X14865Y5647D01*
X14905Y5551D01*
X14968Y5468D01*
X15051Y5405D01*
X15147Y5365D01*
X15250Y5351D01*
X15353Y5365D01*
X15449Y5405D01*
X15532Y5468D01*
X15595Y5551D01*
X15635Y5647D01*
X15649Y5750D01*
X15635Y5853D01*
X15595Y5949D01*
X15532Y6032D01*
X15449Y6095D01*
X15353Y6135D01*
X15250Y6149D01*
D02*
G37*
G36*
X1300Y6050D02*
Y5657D01*
Y5265D01*
X1353Y5272D01*
X1449Y5312D01*
X1532Y5376D01*
X1595Y5458D01*
X1614Y5505D01*
X2386D01*
X2405Y5458D01*
X2468Y5376D01*
X2551Y5312D01*
X2647Y5272D01*
X2700Y5265D01*
Y5657D01*
Y6050D01*
X2647Y6043D01*
X2551Y6003D01*
X2468Y5939D01*
X2405Y5857D01*
X2386Y5810D01*
X1614D01*
X1595Y5857D01*
X1532Y5939D01*
X1449Y6003D01*
X1353Y6043D01*
X1300Y6050D01*
D02*
G37*
G36*
X1200Y5607D02*
X858D01*
X865Y5554D01*
X905Y5458D01*
X968Y5376D01*
X1051Y5312D01*
X1147Y5272D01*
X1200Y5265D01*
Y5607D01*
D02*
G37*
G36*
X14250Y6149D02*
X14147Y6135D01*
X14051Y6095D01*
X13968Y6032D01*
X13905Y5949D01*
X13865Y5853D01*
X13851Y5750D01*
X13865Y5647D01*
X13905Y5551D01*
X13968Y5468D01*
X14051Y5405D01*
X14055Y5403D01*
X14045Y5353D01*
X12950D01*
X12891Y5341D01*
X12842Y5308D01*
X12650Y5116D01*
X12603Y5135D01*
X12500Y5149D01*
X12397Y5135D01*
X12301Y5095D01*
X12218Y5032D01*
X12155Y4949D01*
X12115Y4853D01*
X12101Y4750D01*
X12115Y4647D01*
X12155Y4551D01*
X12218Y4468D01*
X12301Y4405D01*
X12397Y4365D01*
X12500Y4351D01*
X12603Y4365D01*
X12699Y4405D01*
X12782Y4468D01*
X12845Y4551D01*
X12885Y4647D01*
X12899Y4750D01*
X12885Y4853D01*
X12866Y4900D01*
X13013Y5047D01*
X13917D01*
X13941Y4997D01*
X13905Y4949D01*
X13865Y4853D01*
X13851Y4750D01*
X13865Y4647D01*
X13905Y4551D01*
X13968Y4468D01*
X14051Y4405D01*
X14147Y4365D01*
X14250Y4351D01*
X14353Y4365D01*
X14449Y4405D01*
X14532Y4468D01*
X14595Y4551D01*
X14635Y4647D01*
X14649Y4750D01*
X14635Y4853D01*
X14595Y4949D01*
X14559Y4997D01*
X14583Y5047D01*
X14737D01*
X14884Y4900D01*
X14865Y4853D01*
X14851Y4750D01*
X14865Y4647D01*
X14905Y4551D01*
X14968Y4468D01*
X15051Y4405D01*
X15147Y4365D01*
X15250Y4351D01*
X15353Y4365D01*
X15449Y4405D01*
X15532Y4468D01*
X15595Y4551D01*
X15635Y4647D01*
X15649Y4750D01*
X15635Y4853D01*
X15595Y4949D01*
X15532Y5032D01*
X15449Y5095D01*
X15353Y5135D01*
X15250Y5149D01*
X15147Y5135D01*
X15100Y5116D01*
X14908Y5308D01*
X14859Y5341D01*
X14800Y5353D01*
X14455D01*
X14445Y5403D01*
X14449Y5405D01*
X14532Y5468D01*
X14595Y5551D01*
X14635Y5647D01*
X14649Y5750D01*
X14635Y5853D01*
X14595Y5949D01*
X14532Y6032D01*
X14449Y6095D01*
X14353Y6135D01*
X14250Y6149D01*
D02*
G37*
G36*
X27750Y5227D02*
X27647Y5214D01*
X27551Y5174D01*
X27468Y5111D01*
X27405Y5028D01*
X27365Y4932D01*
X27351Y4829D01*
X27365Y4726D01*
X27405Y4629D01*
X27468Y4547D01*
X27551Y4483D01*
X27647Y4444D01*
X27750Y4430D01*
X27853Y4444D01*
X27949Y4483D01*
X28032Y4547D01*
X28095Y4629D01*
X28135Y4726D01*
X28149Y4829D01*
X28135Y4932D01*
X28095Y5028D01*
X28032Y5111D01*
X27949Y5174D01*
X27853Y5214D01*
X27750Y5227D01*
D02*
G37*
G36*
X17750Y5149D02*
X17647Y5135D01*
X17551Y5095D01*
X17468Y5032D01*
X17405Y4949D01*
X17365Y4853D01*
X17351Y4750D01*
X17365Y4647D01*
X17405Y4551D01*
X17468Y4468D01*
X17551Y4405D01*
X17647Y4365D01*
X17750Y4351D01*
X17853Y4365D01*
X17949Y4405D01*
X18032Y4468D01*
X18095Y4551D01*
X18135Y4647D01*
X18149Y4750D01*
X18135Y4853D01*
X18095Y4949D01*
X18032Y5032D01*
X17949Y5095D01*
X17853Y5135D01*
X17750Y5149D01*
D02*
G37*
G36*
X9750D02*
X9647Y5135D01*
X9551Y5095D01*
X9468Y5032D01*
X9405Y4949D01*
X9365Y4853D01*
X9351Y4750D01*
X9365Y4647D01*
X9405Y4551D01*
X9468Y4468D01*
X9551Y4405D01*
X9647Y4365D01*
X9750Y4351D01*
X9853Y4365D01*
X9949Y4405D01*
X10032Y4468D01*
X10095Y4551D01*
X10135Y4647D01*
X10149Y4750D01*
X10135Y4853D01*
X10095Y4949D01*
X10032Y5032D01*
X9949Y5095D01*
X9853Y5135D01*
X9750Y5149D01*
D02*
G37*
G36*
X28145Y4224D02*
X27355D01*
Y3433D01*
X28145D01*
Y4224D01*
D02*
G37*
G36*
X26395D02*
X25605D01*
Y3433D01*
X26395D01*
Y4224D01*
D02*
G37*
G36*
X11500Y5149D02*
X11397Y5135D01*
X11301Y5095D01*
X11218Y5032D01*
X11155Y4949D01*
X11115Y4853D01*
X11101Y4750D01*
X11115Y4647D01*
X11155Y4551D01*
X11218Y4468D01*
X11301Y4405D01*
X11305Y4403D01*
X11295Y4353D01*
X10200D01*
X10141Y4341D01*
X10092Y4308D01*
X9929Y4145D01*
X9355D01*
Y3355D01*
X10145D01*
Y3929D01*
X10263Y4047D01*
X11167D01*
X11191Y3997D01*
X11155Y3949D01*
X11115Y3853D01*
X11101Y3750D01*
X11115Y3647D01*
X11155Y3551D01*
X11218Y3468D01*
X11301Y3405D01*
X11397Y3365D01*
X11500Y3351D01*
X11603Y3365D01*
X11699Y3405D01*
X11782Y3468D01*
X11845Y3551D01*
X11885Y3647D01*
X11899Y3750D01*
X11885Y3853D01*
X11845Y3949D01*
X11809Y3997D01*
X11833Y4047D01*
X11987D01*
X12105Y3929D01*
Y3355D01*
X12895D01*
Y4145D01*
X12321D01*
X12158Y4308D01*
X12109Y4341D01*
X12050Y4353D01*
X11705D01*
X11695Y4403D01*
X11699Y4405D01*
X11782Y4468D01*
X11845Y4551D01*
X11885Y4647D01*
X11899Y4750D01*
X11885Y4853D01*
X11845Y4949D01*
X11782Y5032D01*
X11699Y5095D01*
X11603Y5135D01*
X11500Y5149D01*
D02*
G37*
G36*
X14250Y4149D02*
X14147Y4135D01*
X14051Y4095D01*
X13968Y4032D01*
X13905Y3949D01*
X13865Y3853D01*
X13851Y3750D01*
X13865Y3647D01*
X13905Y3551D01*
X13968Y3468D01*
X14051Y3405D01*
X14147Y3365D01*
X14250Y3351D01*
X14353Y3365D01*
X14449Y3405D01*
X14532Y3468D01*
X14595Y3551D01*
X14635Y3647D01*
X14649Y3750D01*
X14635Y3853D01*
X14595Y3949D01*
X14532Y4032D01*
X14449Y4095D01*
X14353Y4135D01*
X14250Y4149D01*
D02*
G37*
G36*
X8750D02*
X8647Y4135D01*
X8551Y4095D01*
X8468Y4032D01*
X8405Y3949D01*
X8365Y3853D01*
X8351Y3750D01*
X8365Y3647D01*
X8405Y3551D01*
X8468Y3468D01*
X8551Y3405D01*
X8647Y3365D01*
X8750Y3351D01*
X8853Y3365D01*
X8949Y3405D01*
X9032Y3468D01*
X9095Y3551D01*
X9135Y3647D01*
X9149Y3750D01*
X9135Y3853D01*
X9095Y3949D01*
X9032Y4032D01*
X8949Y4095D01*
X8853Y4135D01*
X8750Y4149D01*
D02*
G37*
%LPD*%
G36*
X34910Y24631D02*
Y23777D01*
X34922Y23718D01*
X34955Y23669D01*
X35278Y23346D01*
X35275Y23324D01*
X35257Y23311D01*
X35221Y23298D01*
X35151Y23328D01*
X35063Y23339D01*
X34975Y23328D01*
X34893Y23294D01*
X34823Y23240D01*
X34769Y23170D01*
X34766Y23161D01*
X34716Y23171D01*
Y24535D01*
X34752Y24550D01*
X34831Y24610D01*
X34860Y24648D01*
X34910Y24631D01*
D02*
G37*
G36*
X34295Y24610D02*
X34374Y24550D01*
X34410Y24535D01*
Y23171D01*
X34360Y23161D01*
X34357Y23170D01*
X34303Y23240D01*
X34233Y23294D01*
X34213Y23302D01*
Y24635D01*
X34263Y24652D01*
X34295Y24610D01*
D02*
G37*
G36*
X7092Y21392D02*
X7141Y21359D01*
X7200Y21347D01*
X7519D01*
X7536Y21297D01*
X7483Y21257D01*
X7426Y21182D01*
X7389Y21094D01*
X7383Y21050D01*
X8617D01*
X8611Y21094D01*
X8574Y21182D01*
X8517Y21257D01*
X8464Y21297D01*
X8481Y21347D01*
X8877D01*
X9379Y20845D01*
X9369Y20821D01*
X9357Y20730D01*
X9369Y20639D01*
X9404Y20553D01*
X9460Y20480D01*
X9533Y20424D01*
X9619Y20389D01*
X9710Y20377D01*
X9801Y20389D01*
X9887Y20424D01*
X9960Y20480D01*
X10016Y20553D01*
X10051Y20639D01*
X10063Y20730D01*
X10051Y20821D01*
X10016Y20907D01*
X9960Y20980D01*
X9887Y21036D01*
X9801Y21071D01*
X9710Y21083D01*
X9619Y21071D01*
X9595Y21061D01*
X9048Y21608D01*
X8999Y21641D01*
X8940Y21653D01*
X8481D01*
X8464Y21703D01*
X8517Y21743D01*
X8574Y21818D01*
X8586Y21847D01*
X9437D01*
X9912Y21372D01*
X9961Y21339D01*
X10020Y21327D01*
X10493D01*
X10510Y21277D01*
X10483Y21257D01*
X10426Y21182D01*
X10412Y21149D01*
X10371Y21141D01*
X10322Y21108D01*
X10222Y21008D01*
X10189Y20959D01*
X10177Y20900D01*
Y19800D01*
X10189Y19741D01*
X10222Y19692D01*
X10432Y19482D01*
X10481Y19449D01*
X10540Y19437D01*
X12190D01*
X12211Y19387D01*
X11615Y18791D01*
X11574Y18818D01*
X11611Y18906D01*
X11623Y19000D01*
X11611Y19094D01*
X11574Y19182D01*
X11517Y19257D01*
X11442Y19314D01*
X11354Y19351D01*
X11260Y19363D01*
X10740D01*
X10646Y19351D01*
X10558Y19314D01*
X10483Y19257D01*
X10426Y19182D01*
X10389Y19094D01*
X10377Y19000D01*
X10389Y18906D01*
X10426Y18818D01*
X10483Y18743D01*
X10536Y18703D01*
X10519Y18653D01*
X10413D01*
X9958Y19108D01*
X9909Y19141D01*
X9850Y19153D01*
X8586D01*
X8574Y19182D01*
X8517Y19257D01*
X8442Y19314D01*
X8354Y19351D01*
X8260Y19363D01*
X7740D01*
X7646Y19351D01*
X7558Y19314D01*
X7483Y19257D01*
X7426Y19182D01*
X7389Y19094D01*
X7377Y19000D01*
X7389Y18906D01*
X7426Y18818D01*
X7483Y18743D01*
X7558Y18686D01*
X7646Y18649D01*
X7740Y18637D01*
X8260D01*
X8354Y18649D01*
X8442Y18686D01*
X8517Y18743D01*
X8574Y18818D01*
X8586Y18847D01*
X9787D01*
X10242Y18392D01*
X10291Y18359D01*
X10350Y18347D01*
X10519D01*
X10536Y18297D01*
X10483Y18257D01*
X10426Y18182D01*
X10389Y18094D01*
X10377Y18000D01*
X10389Y17906D01*
X10426Y17818D01*
X10445Y17793D01*
X10420Y17743D01*
X9553D01*
X8778Y18518D01*
X8729Y18551D01*
X8670Y18563D01*
X4863D01*
X4353Y19073D01*
Y22223D01*
X4398Y22245D01*
X4403Y22241D01*
X4476Y22211D01*
X4553Y22201D01*
X4700D01*
Y22500D01*
X4750D01*
Y22550D01*
X5240D01*
X5236Y22577D01*
X5206Y22650D01*
X5159Y22712D01*
X5141Y22725D01*
Y22775D01*
X5159Y22788D01*
X5206Y22850D01*
X5236Y22923D01*
X5246Y23000D01*
X5236Y23077D01*
X5206Y23150D01*
X5159Y23212D01*
X5141Y23225D01*
Y23275D01*
X5159Y23288D01*
X5193Y23291D01*
X7092Y21392D01*
D02*
G37*
G36*
X14614Y21823D02*
X14670Y21750D01*
X14743Y21694D01*
X14771Y21683D01*
X14761Y21633D01*
X11445D01*
X11435Y21683D01*
X11442Y21686D01*
X11517Y21743D01*
X11574Y21818D01*
X11586Y21847D01*
X14605D01*
X14614Y21823D01*
D02*
G37*
G36*
X20228Y19385D02*
X20199Y19345D01*
X20103Y19385D01*
X20000Y19399D01*
X19897Y19385D01*
X19850Y19366D01*
X18858Y20358D01*
X18809Y20391D01*
X18750Y20403D01*
X17581D01*
X17566Y20439D01*
X17537Y20477D01*
X17562Y20527D01*
X19087D01*
X20228Y19385D01*
D02*
G37*
G36*
X13974Y19192D02*
X13956Y19170D01*
X13922Y19088D01*
X13911Y19000D01*
X13922Y18912D01*
X13929Y18896D01*
X13267Y18233D01*
X13020D01*
X12961Y18221D01*
X12912Y18188D01*
X12877Y18153D01*
X11586D01*
X11574Y18182D01*
X11517Y18257D01*
X11464Y18297D01*
X11481Y18347D01*
X11540D01*
X11599Y18359D01*
X11648Y18392D01*
X12493Y19237D01*
X13952D01*
X13974Y19192D01*
D02*
G37*
%LPC*%
G36*
X5240Y22450D02*
X4800D01*
Y22201D01*
X4947D01*
X5024Y22211D01*
X5097Y22241D01*
X5159Y22288D01*
X5206Y22350D01*
X5236Y22423D01*
X5240Y22450D01*
D02*
G37*
G36*
X8617Y20950D02*
X8050D01*
Y20637D01*
X8260D01*
X8354Y20649D01*
X8442Y20686D01*
X8517Y20743D01*
X8574Y20818D01*
X8611Y20906D01*
X8617Y20950D01*
D02*
G37*
G36*
X7950D02*
X7383D01*
X7389Y20906D01*
X7426Y20818D01*
X7483Y20743D01*
X7558Y20686D01*
X7646Y20649D01*
X7740Y20637D01*
X7950D01*
Y20950D01*
D02*
G37*
G36*
X8260Y20363D02*
X7740D01*
X7646Y20351D01*
X7558Y20314D01*
X7483Y20257D01*
X7426Y20182D01*
X7389Y20094D01*
X7377Y20000D01*
X7389Y19906D01*
X7426Y19818D01*
X7483Y19743D01*
X7558Y19686D01*
X7646Y19649D01*
X7740Y19637D01*
X8260D01*
X8354Y19649D01*
X8442Y19686D01*
X8517Y19743D01*
X8574Y19818D01*
X8611Y19906D01*
X8623Y20000D01*
X8611Y20094D01*
X8574Y20182D01*
X8517Y20257D01*
X8442Y20314D01*
X8354Y20351D01*
X8260Y20363D01*
D02*
G37*
%LPD*%
G36*
X22980Y7120D02*
X22968Y7111D01*
X22905Y7028D01*
X22865Y6932D01*
X22851Y6829D01*
X22865Y6726D01*
X22905Y6629D01*
X22968Y6547D01*
X23051Y6483D01*
X23052Y6483D01*
X23042Y6433D01*
X22862D01*
X22671Y6623D01*
X22681Y6647D01*
X22693Y6738D01*
X22681Y6830D01*
X22646Y6915D01*
X22590Y6988D01*
X22517Y7044D01*
X22431Y7079D01*
X22340Y7091D01*
X22249Y7079D01*
X22163Y7044D01*
X22090Y6988D01*
X22034Y6915D01*
X21999Y6830D01*
X21987Y6738D01*
X21999Y6647D01*
X22034Y6562D01*
X22090Y6489D01*
X22163Y6432D01*
X22249Y6397D01*
X22340Y6385D01*
X22431Y6397D01*
X22455Y6407D01*
X22690Y6172D01*
X22740Y6139D01*
X22798Y6127D01*
X22918D01*
X22942Y6077D01*
X22905Y6028D01*
X22865Y5932D01*
X22851Y5829D01*
X22865Y5726D01*
X22905Y5629D01*
X22940Y5583D01*
X22916Y5533D01*
X21593D01*
X20751Y6375D01*
X20761Y6399D01*
X20773Y6490D01*
X20761Y6581D01*
X20726Y6667D01*
X20670Y6740D01*
X20597Y6796D01*
X20578Y6803D01*
X20569Y6852D01*
X20883Y7167D01*
X22964D01*
X22980Y7120D01*
D02*
G37*
G36*
X25043Y5721D02*
X25093Y5687D01*
X25151Y5676D01*
X25636D01*
X25655Y5629D01*
X25690Y5583D01*
X25666Y5533D01*
X24584D01*
X24560Y5583D01*
X24595Y5629D01*
X24635Y5726D01*
X24649Y5829D01*
X24635Y5932D01*
X24595Y6028D01*
X24558Y6077D01*
X24582Y6127D01*
X24637D01*
X25043Y5721D01*
D02*
G37*
G36*
X22980Y4120D02*
X22968Y4111D01*
X22905Y4028D01*
X22865Y3932D01*
X22851Y3829D01*
X22865Y3726D01*
X22884Y3679D01*
X22108Y2903D01*
X17813D01*
X17408Y3309D01*
X17427Y3355D01*
X18145D01*
Y3929D01*
X18383Y4167D01*
X22964D01*
X22980Y4120D01*
D02*
G37*
D12*
X17750Y6750D02*
X19970D01*
X20110Y6890D01*
X20390D01*
X20820Y7320D01*
X23759D01*
X24250Y6829D01*
X27301Y5380D02*
X27750Y5829D01*
X21530Y5380D02*
X27301D01*
X20420Y6490D02*
X21530Y5380D01*
X5000Y17000D02*
X6500Y15500D01*
X8690D01*
X9190Y15000D01*
X11000D01*
X16750Y3750D02*
X17750Y2750D01*
X22171D01*
X23250Y3829D01*
X22340Y6738D02*
X22798Y6280D01*
X24700D01*
X25151Y5829D01*
X26000D01*
X11000Y20000D02*
X12350D01*
X13280Y20930D01*
X30930D01*
X32500Y22500D01*
X34263D01*
X34563Y22800D01*
Y24878D01*
X17238Y20250D02*
X18750D01*
X20000Y19000D01*
X11000Y18000D02*
X12940D01*
X13020Y18080D01*
X13330D01*
X14250Y19000D01*
X9750Y3750D02*
X10200Y4200D01*
X12050D01*
X12500Y3750D01*
Y4750D02*
X12950Y5200D01*
X14800D01*
X15250Y4750D01*
Y3750D02*
X15700Y4200D01*
X17300D01*
X17750Y3750D01*
X8940Y21500D02*
X9710Y20730D01*
X7200Y21500D02*
X8940D01*
X5200Y23500D02*
X7200Y21500D01*
X4750Y23500D02*
X5200D01*
X17750Y3750D02*
X18320Y4320D01*
X23759D01*
X24250Y3829D01*
X9750Y6750D02*
X10200Y7200D01*
X12050D01*
X12500Y6750D01*
X12950Y7200D01*
X14800D01*
X15250Y6750D01*
X15700Y7200D01*
X17300D01*
X17750Y6750D01*
X1000Y21000D02*
X4000Y18000D01*
X8000D01*
X1250Y5657D02*
X2750D01*
X4500D01*
X5220Y4937D01*
X7107D01*
X7660Y5490D01*
Y7850D01*
X9810Y10000D01*
X11000D01*
X8000Y11000D02*
X11000D01*
X8000Y16000D02*
X9100D01*
X9500Y16400D01*
X10000Y17000D01*
X11000D01*
X13347D01*
X14027Y17680D01*
X14820D01*
X15250Y17250D01*
X22250Y23750D02*
X22720Y24220D01*
X25280D01*
X25750Y23750D01*
X27000Y26250D02*
X33441D01*
X34063Y25628D01*
X34060Y25625D02*
X34063Y25628D01*
X34060Y23003D02*
Y25625D01*
Y23003D02*
X34063Y23000D01*
X32500Y21500D02*
X34063D01*
X34250Y6250D02*
Y8000D01*
X31250Y6250D02*
X34250D01*
X28329D02*
X31250D01*
X27750Y6829D02*
X28329Y6250D01*
X26000Y6829D02*
X27750D01*
X11500Y5750D02*
X11950Y6200D01*
X13140D01*
X5500Y5657D02*
X6020Y5137D01*
X6817D01*
X7230Y5550D01*
Y11200D01*
X7440Y11410D01*
X8910D01*
X9500Y12000D01*
X11000D01*
X8000Y19000D02*
X9850D01*
X10350Y18500D01*
X11540D01*
X12430Y19390D01*
X14750D01*
X34860Y6640D02*
X35250Y6250D01*
X34860Y6640D02*
Y8410D01*
X35171Y8721D01*
Y10657D01*
X35063Y21500D02*
X35450Y21887D01*
Y23390D01*
X35063Y23777D02*
X35450Y23390D01*
X35063Y23777D02*
Y25628D01*
X27000Y22250D02*
X27750D01*
X29250Y23750D01*
X8000Y22000D02*
X9500D01*
X10020Y21480D01*
X22730D01*
X23500Y22250D01*
X3090Y15000D02*
X8000D01*
X5432Y14000D02*
X8000D01*
X1000Y25000D02*
X2750D01*
X13750Y24250D02*
X15500D01*
X17238D01*
X35671Y9907D02*
X36380D01*
X36537Y9750D01*
X37250D01*
X13750Y12000D02*
X15500D01*
X17238D01*
X35563Y24878D02*
X36441Y24000D01*
X38250D01*
X5500Y6657D02*
Y11250D01*
X6690Y12440D01*
X8800D01*
X9500Y13140D01*
Y13600D01*
X9900Y14000D01*
X11000D01*
X17100D01*
X19530Y16430D01*
X11000Y23000D02*
Y26250D01*
X12000Y27250D01*
X9500Y23000D02*
X11000D01*
X8530Y23970D02*
X9500Y23000D01*
X4400Y23970D02*
X8530D01*
X4200Y23770D02*
X4400Y23970D01*
X4200Y19010D02*
Y23770D01*
Y19010D02*
X4800Y18410D01*
X8670D01*
X9490Y17590D01*
X12900D01*
X13190Y17880D01*
X15600D01*
X16580Y16900D01*
Y16000D02*
Y16900D01*
Y16000D02*
X17010Y15570D01*
X17900D01*
X19360Y17030D01*
X19900D01*
X20130Y16800D01*
Y7740D02*
Y16800D01*
X11000Y22000D02*
X14920D01*
X8750Y4750D02*
X9250Y5250D01*
Y7000D01*
X9970Y7720D01*
X15180D01*
X16170Y8710D01*
X8750Y6750D02*
Y7600D01*
X9600Y8450D01*
X14500D01*
X10430Y21000D02*
X11000D01*
X10330Y20900D02*
X10430Y21000D01*
X10330Y19800D02*
Y20900D01*
Y19800D02*
X10540Y19590D01*
X12230D01*
X13320Y20680D01*
X19150D01*
X26880Y12950D01*
X34121D01*
X34671Y12400D01*
Y9907D02*
Y12400D01*
X17238Y16000D02*
X18000D01*
X20000Y18000D01*
D38*
X14077Y28628D02*
D03*
Y29628D02*
D03*
X18077D02*
D03*
Y28628D02*
D03*
X16077Y29628D02*
D03*
Y28628D02*
D03*
X1000Y17000D02*
D03*
Y16000D02*
D03*
X3000Y17000D02*
D03*
Y16000D02*
D03*
X5000Y17000D02*
D03*
Y16000D02*
D03*
X34063Y23000D02*
D03*
X35063D02*
D03*
X31250Y6250D02*
D03*
Y7250D02*
D03*
X32500Y22500D02*
D03*
Y21500D02*
D03*
X35063D02*
D03*
X34063D02*
D03*
X35250Y8000D02*
D03*
X34250D02*
D03*
X35250Y6250D02*
D03*
X34250D02*
D03*
X15250Y17250D02*
D03*
X14250D02*
D03*
X15250Y19000D02*
D03*
X14250D02*
D03*
D39*
X2750Y6657D02*
D03*
X1250D02*
D03*
X27750Y3829D02*
D03*
X26000D02*
D03*
X20000Y18000D02*
D03*
X24250Y3829D02*
D03*
X17750Y3750D02*
D03*
X12500D02*
D03*
X15250D02*
D03*
X9750D02*
D03*
D40*
X2750Y5657D02*
D03*
X1250D02*
D03*
X27750Y6829D02*
D03*
Y5829D02*
D03*
Y4829D02*
D03*
X26000Y6829D02*
D03*
Y5829D02*
D03*
Y4829D02*
D03*
X36000Y31941D02*
D03*
Y30720D02*
D03*
Y29500D02*
D03*
X32142D02*
D03*
Y30720D02*
D03*
Y31941D02*
D03*
X36108Y16970D02*
D03*
Y15750D02*
D03*
Y14530D02*
D03*
X32250D02*
D03*
Y15750D02*
D03*
Y16970D02*
D03*
X20000Y19000D02*
D03*
X23250Y6829D02*
D03*
X24250D02*
D03*
X23250Y5829D02*
D03*
X24250D02*
D03*
X23250Y4829D02*
D03*
X24250D02*
D03*
X23250Y3829D02*
D03*
X16750Y6750D02*
D03*
X17750D02*
D03*
X16750Y5750D02*
D03*
X17750D02*
D03*
X16750Y4750D02*
D03*
X17750D02*
D03*
X16750Y3750D02*
D03*
X11500Y6750D02*
D03*
X12500D02*
D03*
X11500Y5750D02*
D03*
X12500D02*
D03*
X11500Y4750D02*
D03*
X12500D02*
D03*
X11500Y3750D02*
D03*
X14250Y6750D02*
D03*
X15250D02*
D03*
X14250Y5750D02*
D03*
X15250D02*
D03*
X14250Y4750D02*
D03*
X15250D02*
D03*
X14250Y3750D02*
D03*
X8750Y6750D02*
D03*
X9750D02*
D03*
X8750Y5750D02*
D03*
X9750D02*
D03*
X8750Y4750D02*
D03*
X9750D02*
D03*
X8750Y3750D02*
D03*
D41*
X6500Y6657D02*
D03*
Y5657D02*
D03*
X5500Y6657D02*
D03*
Y5657D02*
D03*
X4500Y6657D02*
D03*
Y5657D02*
D03*
D42*
X28250Y23750D02*
D03*
X29250D02*
D03*
X21250D02*
D03*
X22250D02*
D03*
X24750D02*
D03*
X25750D02*
D03*
D43*
X27000Y22250D02*
D03*
Y26250D02*
D03*
X12000Y27250D02*
D03*
Y31250D02*
D03*
X10000Y27250D02*
D03*
Y31250D02*
D03*
X1000Y25000D02*
D03*
Y21000D02*
D03*
X2750Y25000D02*
D03*
Y21000D02*
D03*
X8000Y31250D02*
D03*
Y27250D02*
D03*
X20000Y22250D02*
D03*
Y26250D02*
D03*
X23500Y22250D02*
D03*
Y26250D02*
D03*
X35563Y24878D02*
D03*
X34563D02*
D03*
X34063Y25628D02*
D03*
X35063D02*
D03*
X35671Y9907D02*
D03*
X34671D02*
D03*
X34171Y10657D02*
D03*
X35171D02*
D03*
X38250Y24000D02*
D03*
Y20000D02*
D03*
X37250Y9750D02*
D03*
Y5750D02*
D03*
X13750Y16000D02*
D03*
Y12000D02*
D03*
X17238D02*
D03*
Y16000D02*
D03*
X13750Y20250D02*
D03*
Y24250D02*
D03*
X17238D02*
D03*
Y20250D02*
D03*
X15500Y12000D02*
D03*
Y16000D02*
D03*
Y24250D02*
D03*
Y20250D02*
D03*
D44*
X4750Y23500D02*
D03*
D45*
Y23000D02*
D03*
Y22500D02*
D03*
D46*
X11000Y23000D02*
D03*
Y22000D02*
D03*
Y21000D02*
D03*
Y20000D02*
D03*
Y19000D02*
D03*
Y18000D02*
D03*
Y17000D02*
D03*
Y16000D02*
D03*
Y15000D02*
D03*
Y14000D02*
D03*
Y13000D02*
D03*
Y12000D02*
D03*
Y11000D02*
D03*
Y10000D02*
D03*
X8000D02*
D03*
Y11000D02*
D03*
Y12000D02*
D03*
Y13000D02*
D03*
Y14000D02*
D03*
Y15000D02*
D03*
Y16000D02*
D03*
Y17000D02*
D03*
Y18000D02*
D03*
Y19000D02*
D03*
Y20000D02*
D03*
Y21000D02*
D03*
Y22000D02*
D03*
Y23000D02*
D03*
D47*
X33563Y24878D02*
D03*
X33671Y9907D02*
D03*
D49*
X20420Y6490D02*
D03*
X22340Y6738D02*
D03*
X9710Y20730D02*
D03*
X13140Y6200D02*
D03*
X14750Y19390D02*
D03*
X3090Y15000D02*
D03*
X5432Y14000D02*
D03*
X19530Y16430D02*
D03*
X20130Y7740D02*
D03*
X14920Y22000D02*
D03*
X16170Y8710D02*
D03*
X14500Y8450D02*
D03*
M02*
