G04*
G04 #@! TF.GenerationSoftware,Altium Limited,Altium Designer,19.0.10 (269)*
G04*
G04 Layer_Color=8421504*
%FSLAX24Y24*%
%MOIN*%
G70*
G01*
G75*
%ADD12C,0.0100*%
%ADD20O,0.0551X0.0177*%
G04:AMPARAMS|DCode=21|XSize=57mil|YSize=45mil|CornerRadius=11.3mil|HoleSize=0mil|Usage=FLASHONLY|Rotation=180.000|XOffset=0mil|YOffset=0mil|HoleType=Round|Shape=RoundedRectangle|*
%AMROUNDEDRECTD21*
21,1,0.0570,0.0225,0,0,180.0*
21,1,0.0345,0.0450,0,0,180.0*
1,1,0.0225,-0.0173,0.0113*
1,1,0.0225,0.0173,0.0113*
1,1,0.0225,0.0173,-0.0113*
1,1,0.0225,-0.0173,-0.0113*
%
%ADD21ROUNDEDRECTD21*%
%ADD22R,0.0571X0.0236*%
%ADD23R,0.0280X0.0670*%
%ADD24R,0.0394X0.0394*%
%ADD25R,0.0354X0.0276*%
%ADD26R,0.0591X0.0551*%
%ADD27R,0.0197X0.0236*%
%ADD28R,0.0236X0.0197*%
%ADD29R,0.0551X0.0591*%
D12*
X3200Y37600D02*
X3200Y4600D01*
X3200Y37600D02*
X32600D01*
X32600Y4600D01*
X3200D02*
X32600D01*
D20*
X17523Y24985D02*
D03*
Y25241D02*
D03*
Y25497D02*
D03*
Y25753D02*
D03*
Y26009D02*
D03*
Y26265D02*
D03*
Y26520D02*
D03*
Y26776D02*
D03*
Y27032D02*
D03*
Y27288D02*
D03*
Y27544D02*
D03*
Y27800D02*
D03*
X15200Y24985D02*
D03*
Y25241D02*
D03*
Y25497D02*
D03*
Y25753D02*
D03*
Y26009D02*
D03*
Y26265D02*
D03*
Y26520D02*
D03*
Y26776D02*
D03*
Y27032D02*
D03*
Y27288D02*
D03*
Y27544D02*
D03*
Y27800D02*
D03*
D21*
X13075Y27786D02*
D03*
X9921D02*
D03*
X13075Y26018D02*
D03*
X9921D02*
D03*
D22*
X6337Y32300D02*
D03*
X7263Y32674D02*
D03*
Y31926D02*
D03*
D23*
X6927Y15600D02*
D03*
X7400D02*
D03*
X7880D02*
D03*
D24*
X18065Y12300D02*
D03*
X18735D02*
D03*
X7569Y18300D02*
D03*
X6900D02*
D03*
X18031Y10800D02*
D03*
X18700D02*
D03*
D25*
X17061Y20709D02*
D03*
Y21300D02*
D03*
X17061Y18200D02*
D03*
Y17609D02*
D03*
D26*
X31300Y23100D02*
D03*
Y22313D02*
D03*
X8400Y26406D02*
D03*
Y27194D02*
D03*
X20900Y17213D02*
D03*
Y18000D02*
D03*
X19118Y17213D02*
D03*
Y18000D02*
D03*
X31100Y8600D02*
D03*
Y7813D02*
D03*
X20900Y20313D02*
D03*
Y21100D02*
D03*
X19118Y20313D02*
D03*
Y21100D02*
D03*
D27*
X15200Y20906D02*
D03*
Y21300D02*
D03*
Y17806D02*
D03*
Y18200D02*
D03*
D28*
X5003Y20800D02*
D03*
X5397D02*
D03*
X15103Y15300D02*
D03*
X15497D02*
D03*
X29994Y8900D02*
D03*
X29600D02*
D03*
X28800D02*
D03*
X28406D02*
D03*
X29200Y8100D02*
D03*
X28806D02*
D03*
X29997Y23400D02*
D03*
X29603D02*
D03*
X28800D02*
D03*
X28406D02*
D03*
X29194Y22700D02*
D03*
X28800D02*
D03*
D29*
X4613Y18300D02*
D03*
X5400D02*
D03*
X15506Y10800D02*
D03*
X16294D02*
D03*
X15506Y12300D02*
D03*
X16294D02*
D03*
X7200Y23500D02*
D03*
X7987D02*
D03*
M02*
