G04*
G04 #@! TF.GenerationSoftware,Altium Limited,Altium Designer,19.1.8 (144)*
G04*
G04 Layer_Color=8388736*
%FSLAX25Y25*%
%MOIN*%
G70*
G01*
G75*
%ADD22R,0.06312X0.06706*%
%ADD23R,0.06706X0.06312*%
%ADD24R,0.03162X0.02769*%
%ADD25R,0.03937X0.03937*%
%ADD26R,0.02769X0.03162*%
G04:AMPARAMS|DCode=27|XSize=65mil|YSize=53mil|CornerRadius=15.25mil|HoleSize=0mil|Usage=FLASHONLY|Rotation=90.000|XOffset=0mil|YOffset=0mil|HoleType=Round|Shape=RoundedRectangle|*
%AMROUNDEDRECTD27*
21,1,0.06500,0.02250,0,0,90.0*
21,1,0.03450,0.05300,0,0,90.0*
1,1,0.03050,0.01125,0.01725*
1,1,0.03050,0.01125,-0.01725*
1,1,0.03050,-0.01125,-0.01725*
1,1,0.03050,-0.01125,0.01725*
%
%ADD27ROUNDEDRECTD27*%
%ADD28R,0.03937X0.03937*%
%ADD29O,0.06312X0.02572*%
%ADD30R,0.07500X0.03600*%
%ADD31O,0.03556X0.10642*%
%ADD32O,0.11200X0.06000*%
%ADD33C,0.05524*%
%ADD34R,0.06706X0.06706*%
%ADD35C,0.06706*%
%ADD36P,0.08876X8X202.5*%
%ADD37R,0.06706X0.06706*%
%ADD38C,0.05800*%
D22*
X184063Y134000D02*
D03*
X191937D02*
D03*
X214000Y77500D02*
D03*
X221874D02*
D03*
X193626D02*
D03*
X201500D02*
D03*
X221874Y95500D02*
D03*
X214000D02*
D03*
X201500D02*
D03*
X193626D02*
D03*
X153937Y190000D02*
D03*
X146063D02*
D03*
X205063Y134000D02*
D03*
X212937D02*
D03*
D23*
X238000Y166937D02*
D03*
Y159063D02*
D03*
X225500D02*
D03*
Y166937D02*
D03*
X226000Y141937D02*
D03*
Y134063D02*
D03*
X60000Y160000D02*
D03*
Y167874D02*
D03*
Y186063D02*
D03*
Y193937D02*
D03*
X120000Y166063D02*
D03*
Y173937D02*
D03*
X225500Y183126D02*
D03*
Y191000D02*
D03*
X238000Y183063D02*
D03*
Y190937D02*
D03*
X238500Y141500D02*
D03*
Y133626D02*
D03*
D24*
X104937Y61000D02*
D03*
X101000D02*
D03*
D25*
X120000Y145000D02*
D03*
Y151693D02*
D03*
D26*
X175500Y98031D02*
D03*
Y101969D02*
D03*
D27*
X103858Y154252D02*
D03*
Y185787D02*
D03*
X86181Y154252D02*
D03*
Y185787D02*
D03*
D28*
X43346Y190000D02*
D03*
X36653D02*
D03*
D29*
X73614Y113925D02*
D03*
Y116484D02*
D03*
Y119043D02*
D03*
Y121602D02*
D03*
Y124161D02*
D03*
Y126720D02*
D03*
Y129280D02*
D03*
Y131839D02*
D03*
Y134398D02*
D03*
Y136957D02*
D03*
Y139516D02*
D03*
Y142075D02*
D03*
X50386Y113925D02*
D03*
Y116484D02*
D03*
Y119043D02*
D03*
Y121602D02*
D03*
Y124161D02*
D03*
Y126720D02*
D03*
Y129280D02*
D03*
Y131839D02*
D03*
Y134398D02*
D03*
Y136957D02*
D03*
Y139516D02*
D03*
Y142075D02*
D03*
D30*
X110000Y114762D02*
D03*
Y110038D02*
D03*
Y105238D02*
D03*
D31*
X208500Y173646D02*
D03*
X203500D02*
D03*
X198500D02*
D03*
X193500D02*
D03*
X208500Y154354D02*
D03*
X203500D02*
D03*
X198500D02*
D03*
X193500D02*
D03*
D32*
X135000Y175000D02*
D03*
Y165000D02*
D03*
Y155000D02*
D03*
Y145000D02*
D03*
Y135000D02*
D03*
Y125000D02*
D03*
Y115000D02*
D03*
Y105000D02*
D03*
Y95000D02*
D03*
Y85000D02*
D03*
Y75000D02*
D03*
Y65000D02*
D03*
Y55000D02*
D03*
Y45000D02*
D03*
X165000D02*
D03*
Y55000D02*
D03*
Y65000D02*
D03*
Y75000D02*
D03*
Y85000D02*
D03*
Y95000D02*
D03*
Y105000D02*
D03*
Y115000D02*
D03*
Y125000D02*
D03*
Y135000D02*
D03*
Y145000D02*
D03*
Y155000D02*
D03*
Y165000D02*
D03*
Y175000D02*
D03*
D33*
X111000Y41000D02*
D03*
Y51000D02*
D03*
X91000Y41000D02*
D03*
Y51000D02*
D03*
D34*
X90000Y90000D02*
D03*
Y120000D02*
D03*
X57000Y88000D02*
D03*
D35*
X90000Y80000D02*
D03*
Y130000D02*
D03*
X67000Y48000D02*
D03*
X57000D02*
D03*
X67000Y58000D02*
D03*
X57000D02*
D03*
X67000Y68000D02*
D03*
X57000D02*
D03*
X67000Y78000D02*
D03*
X57000D02*
D03*
X67000Y88000D02*
D03*
X193500Y114500D02*
D03*
X203500D02*
D03*
X213500D02*
D03*
X194000Y56500D02*
D03*
D36*
X77000Y23000D02*
D03*
Y13000D02*
D03*
X67000Y23000D02*
D03*
Y13000D02*
D03*
X57000Y23000D02*
D03*
Y13000D02*
D03*
D37*
X223500Y114500D02*
D03*
X204000Y56500D02*
D03*
D38*
X52000Y108600D02*
D03*
X62000Y179000D02*
D03*
X47200Y146900D02*
D03*
X56000Y152916D02*
D03*
X206000Y162900D02*
D03*
X238000Y175000D02*
D03*
X237700Y90500D02*
D03*
X58500Y135300D02*
D03*
X81900Y170000D02*
D03*
M02*
