G04*
G04 #@! TF.GenerationSoftware,Altium Limited,Altium Designer,19.0.10 (269)*
G04*
G04 Layer_Color=65535*
%FSLAX24Y24*%
%MOIN*%
G70*
G01*
G75*
%ADD10C,0.0098*%
%ADD11C,0.0050*%
%ADD12C,0.0100*%
%ADD13C,0.0236*%
%ADD14C,0.0079*%
%ADD15C,0.0080*%
%ADD16C,0.0059*%
D10*
X21043Y29459D02*
X20969Y29501D01*
Y29416D01*
X21043Y29459D01*
X18976Y9346D02*
X18903Y9389D01*
Y9304D01*
X18976Y9346D01*
D11*
X29321Y25915D02*
X29312Y26014D01*
X29286Y26111D01*
X29244Y26201D01*
X29187Y26282D01*
X29117Y26353D01*
X29035Y26410D01*
X28945Y26452D01*
X28849Y26478D01*
X28750Y26486D01*
X28651Y26478D01*
X28555Y26452D01*
X28465Y26410D01*
X28383Y26353D01*
X28313Y26282D01*
X28256Y26201D01*
X28214Y26111D01*
X28188Y26014D01*
X28179Y25915D01*
X9250Y23800D02*
X9269Y23704D01*
X9323Y23623D01*
X9404Y23569D01*
X9500Y23550D01*
X9596Y23569D01*
X9677Y23623D01*
X9731Y23704D01*
X9750Y23800D01*
X22321Y25915D02*
X22312Y26014D01*
X22286Y26111D01*
X22244Y26201D01*
X22187Y26282D01*
X22117Y26353D01*
X22035Y26410D01*
X21945Y26452D01*
X21849Y26478D01*
X21750Y26486D01*
X21651Y26478D01*
X21555Y26452D01*
X21465Y26410D01*
X21383Y26353D01*
X21313Y26282D01*
X21256Y26201D01*
X21214Y26111D01*
X21188Y26014D01*
X21179Y25915D01*
X25821D02*
X25812Y26014D01*
X25786Y26111D01*
X25744Y26201D01*
X25687Y26282D01*
X25617Y26353D01*
X25535Y26410D01*
X25445Y26452D01*
X25349Y26478D01*
X25250Y26486D01*
X25151Y26478D01*
X25055Y26452D01*
X24965Y26410D01*
X24883Y26353D01*
X24813Y26282D01*
X24756Y26201D01*
X24714Y26111D01*
X24688Y26014D01*
X24679Y25915D01*
X27884Y22963D02*
X29616D01*
X27884D02*
Y25482D01*
X29616D01*
Y22963D02*
Y25482D01*
X28179D02*
Y25915D01*
X29321Y25482D02*
Y25915D01*
X8400Y9200D02*
X10600D01*
Y23800D01*
X9750D02*
X10600D01*
X8400Y9200D02*
Y23800D01*
X9250D01*
X20884Y22963D02*
X22616D01*
X20884D02*
Y25482D01*
X22616D01*
Y22963D02*
Y25482D01*
X21179D02*
Y25915D01*
X22321Y25482D02*
Y25915D01*
X24384Y22963D02*
X26116D01*
X24384D02*
Y25482D01*
X26116D01*
Y22963D02*
Y25482D01*
X24679D02*
Y25915D01*
X25821Y25482D02*
Y25915D01*
D12*
X2472Y28825D02*
X2464Y28925D01*
X2439Y29022D01*
X2397Y29113D01*
X2341Y29196D01*
X2272Y29268D01*
X2192Y29328D01*
X2102Y29373D01*
X2006Y29402D01*
X1907Y29415D01*
X1807Y29411D01*
X1709Y29389D01*
X1616Y29352D01*
X1531Y29300D01*
X1456Y29233D01*
X1393Y29155D01*
X1344Y29068D01*
X1310Y28974D01*
X1293Y28875D01*
Y28775D01*
X1310Y28676D01*
X1344Y28582D01*
X1393Y28494D01*
X1456Y28416D01*
X1531Y28350D01*
X1616Y28297D01*
X1709Y28260D01*
X1807Y28239D01*
X1907Y28235D01*
X2006Y28248D01*
X2102Y28277D01*
X2192Y28322D01*
X2272Y28381D01*
X2341Y28454D01*
X2397Y28537D01*
X2439Y28628D01*
X2464Y28725D01*
X2472Y28825D01*
X31666Y35113D02*
X32066D01*
Y35013D01*
X31666Y34613D01*
Y34513D01*
X32066D01*
X32666D02*
X32266D01*
X32666Y34913D01*
Y35013D01*
X32566Y35113D01*
X32366D01*
X32266Y35013D01*
X31774Y20142D02*
X32174D01*
Y20042D01*
X31774Y19642D01*
Y19542D01*
X32174D01*
X32374D02*
X32574D01*
X32474D01*
Y20142D01*
X32374Y20042D01*
X1725Y12599D02*
X2325Y12999D01*
X1725D02*
X2325Y12599D01*
Y13199D02*
Y13399D01*
Y13299D01*
X1725D01*
X1825Y13199D01*
X18644Y10349D02*
Y9849D01*
X18744Y9749D01*
X18943D01*
X19043Y9849D01*
Y10349D01*
X19243Y9749D02*
X19443D01*
X19343D01*
Y10349D01*
X19243Y10249D01*
X707Y31040D02*
Y31640D01*
X1007D01*
X1107Y31540D01*
Y31340D01*
X1007Y31240D01*
X707D01*
X907D02*
X1107Y31040D01*
X1707Y31540D02*
X1607Y31640D01*
X1407D01*
X1307Y31540D01*
Y31440D01*
X1407Y31340D01*
X1607D01*
X1707Y31240D01*
Y31140D01*
X1607Y31040D01*
X1407D01*
X1307Y31140D01*
X1907Y31640D02*
X2306D01*
X2106D01*
Y31040D01*
X2506D02*
X2706D01*
X2606D01*
Y31640D01*
X2506Y31540D01*
X37500Y24750D02*
Y25350D01*
X37800D01*
X37900Y25250D01*
Y25050D01*
X37800Y24950D01*
X37500D01*
X37700D02*
X37900Y24750D01*
X38100D02*
X38300D01*
X38200D01*
Y25350D01*
X38100Y25250D01*
X39000Y25350D02*
X38800Y25250D01*
X38600Y25050D01*
Y24850D01*
X38700Y24750D01*
X38900D01*
X39000Y24850D01*
Y24950D01*
X38900Y25050D01*
X38600D01*
X13547Y11000D02*
Y11600D01*
X13847D01*
X13947Y11500D01*
Y11300D01*
X13847Y11200D01*
X13547D01*
X13747D02*
X13947Y11000D01*
X14147D02*
X14347D01*
X14247D01*
Y11600D01*
X14147Y11500D01*
X15047Y11600D02*
X14647D01*
Y11300D01*
X14847Y11400D01*
X14947D01*
X15047Y11300D01*
Y11100D01*
X14947Y11000D01*
X14747D01*
X14647Y11100D01*
X15500Y11000D02*
Y11600D01*
X15800D01*
X15900Y11500D01*
Y11300D01*
X15800Y11200D01*
X15500D01*
X15700D02*
X15900Y11000D01*
X16100D02*
X16300D01*
X16200D01*
Y11600D01*
X16100Y11500D01*
X16900Y11000D02*
Y11600D01*
X16600Y11300D01*
X17000D01*
X17500Y11000D02*
Y11600D01*
X17800D01*
X17900Y11500D01*
Y11300D01*
X17800Y11200D01*
X17500D01*
X17700D02*
X17900Y11000D01*
X18100D02*
X18300D01*
X18200D01*
Y11600D01*
X18100Y11500D01*
X18600D02*
X18700Y11600D01*
X18900D01*
X19000Y11500D01*
Y11400D01*
X18900Y11300D01*
X18800D01*
X18900D01*
X19000Y11200D01*
Y11100D01*
X18900Y11000D01*
X18700D01*
X18600Y11100D01*
X37250Y10250D02*
Y10850D01*
X37550D01*
X37650Y10750D01*
Y10550D01*
X37550Y10450D01*
X37250D01*
X37450D02*
X37650Y10250D01*
X37850D02*
X38050D01*
X37950D01*
Y10850D01*
X37850Y10750D01*
X38750Y10250D02*
X38350D01*
X38750Y10650D01*
Y10750D01*
X38650Y10850D01*
X38450D01*
X38350Y10750D01*
X13250Y24750D02*
Y25350D01*
X13550D01*
X13650Y25250D01*
Y25050D01*
X13550Y24950D01*
X13250D01*
X13450D02*
X13650Y24750D01*
X13850D02*
X14050D01*
X13950D01*
Y25350D01*
X13850Y25250D01*
X14350Y24750D02*
X14550D01*
X14450D01*
Y25350D01*
X14350Y25250D01*
X15000Y24750D02*
Y25350D01*
X15300D01*
X15400Y25250D01*
Y25050D01*
X15300Y24950D01*
X15000D01*
X15200D02*
X15400Y24750D01*
X15600D02*
X15800D01*
X15700D01*
Y25350D01*
X15600Y25250D01*
X16100D02*
X16200Y25350D01*
X16400D01*
X16500Y25250D01*
Y24850D01*
X16400Y24750D01*
X16200D01*
X16100Y24850D01*
Y25250D01*
X17238Y24750D02*
Y25350D01*
X17538D01*
X17638Y25250D01*
Y25050D01*
X17538Y24950D01*
X17238D01*
X17438D02*
X17638Y24750D01*
X17838Y24850D02*
X17938Y24750D01*
X18138D01*
X18238Y24850D01*
Y25250D01*
X18138Y25350D01*
X17938D01*
X17838Y25250D01*
Y25150D01*
X17938Y25050D01*
X18238D01*
X23165Y26865D02*
Y27465D01*
X23465D01*
X23565Y27365D01*
Y27165D01*
X23465Y27065D01*
X23165D01*
X23365D02*
X23565Y26865D01*
X23765Y27365D02*
X23865Y27465D01*
X24065D01*
X24165Y27365D01*
Y27265D01*
X24065Y27165D01*
X24165Y27065D01*
Y26965D01*
X24065Y26865D01*
X23865D01*
X23765Y26965D01*
Y27065D01*
X23865Y27165D01*
X23765Y27265D01*
Y27365D01*
X23865Y27165D02*
X24065D01*
X3000Y25500D02*
Y26100D01*
X3300D01*
X3400Y26000D01*
Y25800D01*
X3300Y25700D01*
X3000D01*
X3200D02*
X3400Y25500D01*
X3600Y26100D02*
X4000D01*
Y26000D01*
X3600Y25600D01*
Y25500D01*
X1000D02*
Y26100D01*
X1300D01*
X1400Y26000D01*
Y25800D01*
X1300Y25700D01*
X1000D01*
X1200D02*
X1400Y25500D01*
X2000Y26100D02*
X1800Y26000D01*
X1600Y25800D01*
Y25600D01*
X1700Y25500D01*
X1900D01*
X2000Y25600D01*
Y25700D01*
X1900Y25800D01*
X1600D01*
X19665Y26865D02*
Y27465D01*
X19965D01*
X20065Y27365D01*
Y27165D01*
X19965Y27065D01*
X19665D01*
X19865D02*
X20065Y26865D01*
X20665Y27465D02*
X20265D01*
Y27165D01*
X20465Y27265D01*
X20565D01*
X20665Y27165D01*
Y26965D01*
X20565Y26865D01*
X20365D01*
X20265Y26965D01*
X11665Y31865D02*
Y32465D01*
X11965D01*
X12065Y32365D01*
Y32165D01*
X11965Y32065D01*
X11665D01*
X11865D02*
X12065Y31865D01*
X12565D02*
Y32465D01*
X12265Y32165D01*
X12665D01*
X9665Y31865D02*
Y32465D01*
X9965D01*
X10065Y32365D01*
Y32165D01*
X9965Y32065D01*
X9665D01*
X9865D02*
X10065Y31865D01*
X10265Y32365D02*
X10365Y32465D01*
X10565D01*
X10665Y32365D01*
Y32265D01*
X10565Y32165D01*
X10465D01*
X10565D01*
X10665Y32065D01*
Y31965D01*
X10565Y31865D01*
X10365D01*
X10265Y31965D01*
X7750Y31750D02*
Y32350D01*
X8050D01*
X8150Y32250D01*
Y32050D01*
X8050Y31950D01*
X7750D01*
X7950D02*
X8150Y31750D01*
X8750D02*
X8350D01*
X8750Y32150D01*
Y32250D01*
X8650Y32350D01*
X8450D01*
X8350Y32250D01*
X26665Y26865D02*
Y27465D01*
X26965D01*
X27065Y27365D01*
Y27165D01*
X26965Y27065D01*
X26665D01*
X26865D02*
X27065Y26865D01*
X27265D02*
X27465D01*
X27365D01*
Y27465D01*
X27265Y27365D01*
X4900Y24350D02*
Y24750D01*
X4800Y24850D01*
X4600D01*
X4500Y24750D01*
Y24350D01*
X4600Y24250D01*
X4800D01*
X4700Y24450D02*
X4900Y24250D01*
X4800D02*
X4900Y24350D01*
X5500Y24250D02*
X5100D01*
X5500Y24650D01*
Y24750D01*
X5400Y24850D01*
X5200D01*
X5100Y24750D01*
X19997Y30329D02*
Y30729D01*
X19898Y30829D01*
X19698D01*
X19598Y30729D01*
Y30329D01*
X19698Y30229D01*
X19898D01*
X19798Y30429D02*
X19997Y30229D01*
X19898D02*
X19997Y30329D01*
X20197Y30229D02*
X20397D01*
X20297D01*
Y30829D01*
X20197Y30729D01*
X11065Y8065D02*
Y8665D01*
X11365D01*
X11465Y8565D01*
Y8365D01*
X11365Y8265D01*
X11065D01*
X11665Y8065D02*
X11865D01*
X11765D01*
Y8665D01*
X11665Y8565D01*
X12165Y8065D02*
X12365D01*
X12265D01*
Y8665D01*
X12165Y8565D01*
X22815Y8144D02*
Y8744D01*
X23115D01*
X23215Y8644D01*
Y8444D01*
X23115Y8344D01*
X22815D01*
X23415Y8144D02*
X23615D01*
X23515D01*
Y8744D01*
X23415Y8644D01*
X23915D02*
X24015Y8744D01*
X24215D01*
X24315Y8644D01*
Y8244D01*
X24215Y8144D01*
X24015D01*
X23915Y8244D01*
Y8644D01*
X8315Y8065D02*
Y8665D01*
X8615D01*
X8715Y8565D01*
Y8365D01*
X8615Y8265D01*
X8315D01*
X8915Y8165D02*
X9015Y8065D01*
X9215D01*
X9315Y8165D01*
Y8565D01*
X9215Y8665D01*
X9015D01*
X8915Y8565D01*
Y8465D01*
X9015Y8365D01*
X9315D01*
X13815Y8065D02*
Y8665D01*
X14115D01*
X14215Y8565D01*
Y8365D01*
X14115Y8265D01*
X13815D01*
X14415Y8565D02*
X14515Y8665D01*
X14715D01*
X14815Y8565D01*
Y8465D01*
X14715Y8365D01*
X14815Y8265D01*
Y8165D01*
X14715Y8065D01*
X14515D01*
X14415Y8165D01*
Y8265D01*
X14515Y8365D01*
X14415Y8465D01*
Y8565D01*
X14515Y8365D02*
X14715D01*
X16315Y8065D02*
Y8665D01*
X16615D01*
X16715Y8565D01*
Y8365D01*
X16615Y8265D01*
X16315D01*
X16915Y8665D02*
X17315D01*
Y8565D01*
X16915Y8165D01*
Y8065D01*
X19500Y19750D02*
Y20350D01*
X19800D01*
X19900Y20250D01*
Y20050D01*
X19800Y19950D01*
X19500D01*
X20500Y20350D02*
X20300Y20250D01*
X20100Y20050D01*
Y19850D01*
X20200Y19750D01*
X20400D01*
X20500Y19850D01*
Y19950D01*
X20400Y20050D01*
X20100D01*
X25565Y7664D02*
Y8264D01*
X25865D01*
X25965Y8164D01*
Y7964D01*
X25865Y7864D01*
X25565D01*
X26565Y8264D02*
X26165D01*
Y7964D01*
X26365Y8064D01*
X26465D01*
X26565Y7964D01*
Y7764D01*
X26465Y7664D01*
X26265D01*
X26165Y7764D01*
X27315Y7664D02*
Y8264D01*
X27615D01*
X27715Y8164D01*
Y7964D01*
X27615Y7864D01*
X27315D01*
X28215Y7664D02*
Y8264D01*
X27915Y7964D01*
X28315D01*
X750Y7657D02*
Y8257D01*
X1050D01*
X1150Y8157D01*
Y7957D01*
X1050Y7857D01*
X750D01*
X1350Y8157D02*
X1450Y8257D01*
X1650D01*
X1750Y8157D01*
Y8057D01*
X1650Y7957D01*
X1550D01*
X1650D01*
X1750Y7857D01*
Y7757D01*
X1650Y7657D01*
X1450D01*
X1350Y7757D01*
X2250Y7657D02*
Y8257D01*
X2550D01*
X2650Y8157D01*
Y7957D01*
X2550Y7857D01*
X2250D01*
X3250Y7657D02*
X2850D01*
X3250Y8057D01*
Y8157D01*
X3150Y8257D01*
X2950D01*
X2850Y8157D01*
X7000Y7657D02*
Y8257D01*
X7300D01*
X7400Y8157D01*
Y7957D01*
X7300Y7857D01*
X7000D01*
X7600Y7657D02*
X7800D01*
X7700D01*
Y8257D01*
X7600Y8157D01*
X9000Y24600D02*
X9200D01*
X9100D01*
Y24000D01*
X9000D01*
X9200D01*
X9900Y24500D02*
X9800Y24600D01*
X9600D01*
X9500Y24500D01*
Y24100D01*
X9600Y24000D01*
X9800D01*
X9900Y24100D01*
X10100Y24000D02*
X10300D01*
X10200D01*
Y24600D01*
X10100Y24500D01*
X24455Y27415D02*
Y26815D01*
X24755D01*
X24855Y26915D01*
Y27315D01*
X24755Y27415D01*
X24455D01*
X25455Y27315D02*
X25355Y27415D01*
X25155D01*
X25055Y27315D01*
Y27215D01*
X25155Y27115D01*
X25355D01*
X25455Y27015D01*
Y26915D01*
X25355Y26815D01*
X25155D01*
X25055Y26915D01*
X25655Y27315D02*
X25755Y27415D01*
X25955D01*
X26054Y27315D01*
Y27215D01*
X25955Y27115D01*
X25855D01*
X25955D01*
X26054Y27015D01*
Y26915D01*
X25955Y26815D01*
X25755D01*
X25655Y26915D01*
X20955Y27415D02*
Y26815D01*
X21255D01*
X21355Y26915D01*
Y27315D01*
X21255Y27415D01*
X20955D01*
X21955Y27315D02*
X21855Y27415D01*
X21655D01*
X21555Y27315D01*
Y27215D01*
X21655Y27115D01*
X21855D01*
X21955Y27015D01*
Y26915D01*
X21855Y26815D01*
X21655D01*
X21555Y26915D01*
X22554Y26815D02*
X22155D01*
X22554Y27215D01*
Y27315D01*
X22455Y27415D01*
X22255D01*
X22155Y27315D01*
X27955Y27415D02*
Y26815D01*
X28255D01*
X28355Y26915D01*
Y27315D01*
X28255Y27415D01*
X27955D01*
X28955Y27315D02*
X28855Y27415D01*
X28655D01*
X28555Y27315D01*
Y27215D01*
X28655Y27115D01*
X28855D01*
X28955Y27015D01*
Y26915D01*
X28855Y26815D01*
X28655D01*
X28555Y26915D01*
X29155Y26815D02*
X29355D01*
X29255D01*
Y27415D01*
X29155Y27315D01*
X16650Y17545D02*
X16550Y17645D01*
X16350D01*
X16250Y17545D01*
Y17145D01*
X16350Y17045D01*
X16550D01*
X16650Y17145D01*
X16850Y17045D02*
X17050D01*
X16950D01*
Y17645D01*
X16850Y17545D01*
X17650Y17045D02*
Y17645D01*
X17350Y17345D01*
X17750D01*
X31650Y23750D02*
X31550Y23850D01*
X31350D01*
X31250Y23750D01*
Y23350D01*
X31350Y23250D01*
X31550D01*
X31650Y23350D01*
X31850Y23250D02*
X32050D01*
X31950D01*
Y23850D01*
X31850Y23750D01*
X32350D02*
X32450Y23850D01*
X32650D01*
X32750Y23750D01*
Y23650D01*
X32650Y23550D01*
X32550D01*
X32650D01*
X32750Y23450D01*
Y23350D01*
X32650Y23250D01*
X32450D01*
X32350Y23350D01*
X36463Y23250D02*
X36363Y23350D01*
X36163D01*
X36063Y23250D01*
Y22850D01*
X36163Y22750D01*
X36363D01*
X36463Y22850D01*
X36663Y22750D02*
X36863D01*
X36763D01*
Y23350D01*
X36663Y23250D01*
X37563Y22750D02*
X37163D01*
X37563Y23150D01*
Y23250D01*
X37463Y23350D01*
X37263D01*
X37163Y23250D01*
X36400Y21750D02*
X36300Y21850D01*
X36100D01*
X36000Y21750D01*
Y21350D01*
X36100Y21250D01*
X36300D01*
X36400Y21350D01*
X36600Y21250D02*
X36800D01*
X36700D01*
Y21850D01*
X36600Y21750D01*
X37100Y21250D02*
X37300D01*
X37200D01*
Y21850D01*
X37100Y21750D01*
X16650Y19250D02*
X16550Y19350D01*
X16350D01*
X16250Y19250D01*
Y18850D01*
X16350Y18750D01*
X16550D01*
X16650Y18850D01*
X16850Y18750D02*
X17050D01*
X16950D01*
Y19350D01*
X16850Y19250D01*
X17350D02*
X17450Y19350D01*
X17650D01*
X17750Y19250D01*
Y18850D01*
X17650Y18750D01*
X17450D01*
X17350Y18850D01*
Y19250D01*
X32915Y7965D02*
X32815Y7865D01*
Y7665D01*
X32915Y7565D01*
X33315D01*
X33415Y7665D01*
Y7865D01*
X33315Y7965D01*
Y8165D02*
X33415Y8265D01*
Y8465D01*
X33315Y8565D01*
X32915D01*
X32815Y8465D01*
Y8265D01*
X32915Y8165D01*
X33015D01*
X33115Y8265D01*
Y8565D01*
X31215Y8585D02*
X31115Y8685D01*
X30915D01*
X30815Y8585D01*
Y8185D01*
X30915Y8085D01*
X31115D01*
X31215Y8185D01*
X31415Y8585D02*
X31515Y8685D01*
X31715D01*
X31815Y8585D01*
Y8485D01*
X31715Y8385D01*
X31815Y8285D01*
Y8185D01*
X31715Y8085D01*
X31515D01*
X31415Y8185D01*
Y8285D01*
X31515Y8385D01*
X31415Y8485D01*
Y8585D01*
X31515Y8385D02*
X31715D01*
X32915Y6215D02*
X32815Y6115D01*
Y5915D01*
X32915Y5815D01*
X33315D01*
X33415Y5915D01*
Y6115D01*
X33315Y6215D01*
X32815Y6415D02*
Y6815D01*
X32915D01*
X33315Y6415D01*
X33415D01*
X17977Y30878D02*
X17877Y30978D01*
X17677D01*
X17577Y30878D01*
Y30478D01*
X17677Y30378D01*
X17877D01*
X17977Y30478D01*
X18576Y30978D02*
X18377Y30878D01*
X18177Y30678D01*
Y30478D01*
X18277Y30378D01*
X18476D01*
X18576Y30478D01*
Y30578D01*
X18476Y30678D01*
X18177D01*
X15977Y30878D02*
X15877Y30978D01*
X15677D01*
X15577Y30878D01*
Y30478D01*
X15677Y30378D01*
X15877D01*
X15977Y30478D01*
X16576Y30978D02*
X16177D01*
Y30678D01*
X16377Y30778D01*
X16476D01*
X16576Y30678D01*
Y30478D01*
X16476Y30378D01*
X16277D01*
X16177Y30478D01*
X13977Y30878D02*
X13877Y30978D01*
X13677D01*
X13577Y30878D01*
Y30478D01*
X13677Y30378D01*
X13877D01*
X13977Y30478D01*
X14476Y30378D02*
Y30978D01*
X14177Y30678D01*
X14576D01*
X900Y18200D02*
X800Y18300D01*
X600D01*
X500Y18200D01*
Y17800D01*
X600Y17700D01*
X800D01*
X900Y17800D01*
X1100Y18200D02*
X1200Y18300D01*
X1400D01*
X1500Y18200D01*
Y18100D01*
X1400Y18000D01*
X1300D01*
X1400D01*
X1500Y17900D01*
Y17800D01*
X1400Y17700D01*
X1200D01*
X1100Y17800D01*
X2900Y18200D02*
X2800Y18300D01*
X2600D01*
X2500Y18200D01*
Y17800D01*
X2600Y17700D01*
X2800D01*
X2900Y17800D01*
X3500Y17700D02*
X3100D01*
X3500Y18100D01*
Y18200D01*
X3400Y18300D01*
X3200D01*
X3100Y18200D01*
X5000D02*
X4900Y18300D01*
X4700D01*
X4600Y18200D01*
Y17800D01*
X4700Y17700D01*
X4900D01*
X5000Y17800D01*
X5200Y17700D02*
X5400D01*
X5300D01*
Y18300D01*
X5200Y18200D01*
D13*
X19872Y8795D02*
X19828Y8888D01*
X19728Y8910D01*
X19648Y8847D01*
Y8744D01*
X19728Y8680D01*
X19828Y8703D01*
X19872Y8795D01*
D14*
X13577Y28128D02*
Y30128D01*
Y28128D02*
X14577D01*
Y30128D01*
X13577D02*
X14577D01*
X2250Y5157D02*
X3250D01*
X2250D02*
Y7157D01*
X3250D01*
Y5157D02*
Y7157D01*
X20738Y28533D02*
Y28848D01*
X20423Y28533D02*
X20738D01*
Y29400D02*
Y29715D01*
X20423D02*
X20738D01*
X18577Y28128D02*
Y30128D01*
X17577D02*
X18577D01*
X17577Y28128D02*
Y30128D01*
Y28128D02*
X18577D01*
X16577D02*
Y30128D01*
X15577D02*
X16577D01*
X15577Y28128D02*
Y30128D01*
Y28128D02*
X16577D01*
X750Y5157D02*
X1750D01*
X750D02*
Y7157D01*
X1750D01*
Y5157D02*
Y7157D01*
X26600Y23050D02*
X27400D01*
X26600D02*
Y25450D01*
X27400D01*
Y23050D02*
Y25450D01*
X27000Y22650D02*
Y23050D01*
Y25450D02*
Y25850D01*
X11600Y28050D02*
X12400D01*
X11600D02*
Y30450D01*
X12400D01*
Y28050D02*
Y30450D01*
X12000Y27650D02*
Y28050D01*
Y30450D02*
Y30850D01*
X9600Y28050D02*
X10400D01*
X9600D02*
Y30450D01*
X10400D01*
Y28050D02*
Y30450D01*
X10000Y27650D02*
Y28050D01*
Y30450D02*
Y30850D01*
X27250Y3329D02*
X28250D01*
X27250D02*
Y7329D01*
X28250Y3329D02*
Y7329D01*
X27250D02*
X28250D01*
X600Y24200D02*
X1400D01*
Y21800D02*
Y24200D01*
X600Y21800D02*
X1400D01*
X600D02*
Y24200D01*
X1000D02*
Y24600D01*
Y21400D02*
Y21800D01*
X4195Y22224D02*
X4368Y22051D01*
X4195Y23776D02*
X4368Y23949D01*
Y23945D02*
X5305D01*
X4368Y22055D02*
X5305D01*
X4195Y22224D02*
Y23776D01*
X5305Y22055D02*
Y23945D01*
X25500Y3329D02*
X26500D01*
X25500D02*
Y7329D01*
X26500Y3329D02*
Y7329D01*
X25500D02*
X26500D01*
X2350Y24200D02*
X3150D01*
Y21800D02*
Y24200D01*
X2350Y21800D02*
X3150D01*
X2350D02*
Y24200D01*
X2750D02*
Y24600D01*
Y21400D02*
Y21800D01*
X7600Y30450D02*
X8400D01*
Y28050D02*
Y30450D01*
X7600Y28050D02*
X8400D01*
X7600D02*
Y30450D01*
X8000D02*
Y30850D01*
Y27650D02*
Y28050D01*
X3126Y27581D02*
Y30065D01*
X642D02*
X3126D01*
X642Y27581D02*
Y30065D01*
Y27581D02*
X3126D01*
X19600Y23050D02*
X20400D01*
X19600D02*
Y25450D01*
X20400D01*
Y23050D02*
Y25450D01*
X20000Y22650D02*
Y23050D01*
Y25450D02*
Y25850D01*
X23100Y23050D02*
X23900D01*
X23100D02*
Y25450D01*
X23900D01*
Y23050D02*
Y25450D01*
X23500Y22650D02*
Y23050D01*
Y25450D02*
Y25850D01*
X1500Y15500D02*
Y17500D01*
X500D02*
X1500D01*
X500Y15500D02*
Y17500D01*
Y15500D02*
X1500D01*
X3500D02*
Y17500D01*
X2500D02*
X3500D01*
X2500Y15500D02*
Y17500D01*
Y15500D02*
X3500D01*
X5500D02*
Y17500D01*
X4500D02*
X5500D01*
X4500Y15500D02*
Y17500D01*
Y15500D02*
X5500D01*
X19360Y6079D02*
X20817D01*
X19360Y9189D02*
X20817D01*
Y6079D02*
Y9189D01*
X19360Y6079D02*
Y9189D01*
X33563Y23500D02*
X35563D01*
X33563Y22500D02*
Y23500D01*
Y22500D02*
X35563D01*
Y23500D01*
X30750Y5750D02*
Y7750D01*
Y5750D02*
X31750D01*
Y7750D01*
X30750D02*
X31750D01*
X37850Y23200D02*
X38650D01*
Y20800D02*
Y23200D01*
X37850Y20800D02*
X38650D01*
X37850D02*
Y23200D01*
X38250D02*
Y23600D01*
Y20400D02*
Y20800D01*
X36850Y8950D02*
X37650D01*
Y6550D02*
Y8950D01*
X36850Y6550D02*
X37650D01*
X36850D02*
Y8950D01*
X37250D02*
Y9350D01*
Y6150D02*
Y6550D01*
X33000Y21000D02*
Y23000D01*
X32000D02*
X33000D01*
X32000Y21000D02*
Y23000D01*
Y21000D02*
X33000D01*
X33563D02*
X35563D01*
Y22000D01*
X33563D02*
X35563D01*
X33563Y21000D02*
Y22000D01*
X33750Y7500D02*
X35750D01*
Y8500D01*
X33750D02*
X35750D01*
X33750Y7500D02*
Y8500D01*
Y5750D02*
X35750D01*
Y6750D01*
X33750D02*
X35750D01*
X33750Y5750D02*
Y6750D01*
X13350Y15200D02*
X14150D01*
Y12800D02*
Y15200D01*
X13350Y12800D02*
X14150D01*
X13350D02*
Y15200D01*
X13750D02*
Y15600D01*
Y12400D02*
Y12800D01*
X16838D02*
X17638D01*
X16838D02*
Y15200D01*
X17638D01*
Y12800D02*
Y15200D01*
X17238Y12400D02*
Y12800D01*
Y15200D02*
Y15600D01*
X13350Y21050D02*
X14150D01*
X13350D02*
Y23450D01*
X14150D01*
Y21050D02*
Y23450D01*
X13750Y20650D02*
Y21050D01*
Y23450D02*
Y23850D01*
X16838Y23450D02*
X17638D01*
Y21050D02*
Y23450D01*
X16838Y21050D02*
X17638D01*
X16838D02*
Y23450D01*
X17238D02*
Y23850D01*
Y20650D02*
Y21050D01*
X15100Y12800D02*
X15900D01*
X15100D02*
Y15200D01*
X15900D01*
Y12800D02*
Y15200D01*
X15500Y12400D02*
Y12800D01*
Y15200D02*
Y15600D01*
X15100Y23450D02*
X15900D01*
Y21050D02*
Y23450D01*
X15100Y21050D02*
X15900D01*
X15100D02*
Y23450D01*
X15500D02*
Y23850D01*
Y20650D02*
Y21050D01*
X13750Y16750D02*
X15750D01*
Y17750D01*
X13750D02*
X15750D01*
X13750Y16750D02*
Y17750D01*
Y18500D02*
X15750D01*
Y19500D01*
X13750D02*
X15750D01*
X13750Y18500D02*
Y19500D01*
X19500D02*
X20500D01*
Y17500D02*
Y19500D01*
X19500Y17500D02*
X20500D01*
X19500D02*
Y19500D01*
X24750Y3329D02*
Y7329D01*
X22750Y3329D02*
Y7329D01*
Y3329D02*
X24750D01*
X22750Y7329D02*
X24750D01*
X18250Y3250D02*
Y7250D01*
X16250Y3250D02*
Y7250D01*
Y3250D02*
X18250D01*
X16250Y7250D02*
X18250D01*
X13000Y3250D02*
Y7250D01*
X11000Y3250D02*
Y7250D01*
Y3250D02*
X13000D01*
X11000Y7250D02*
X13000D01*
X15750Y3250D02*
Y7250D01*
X13750Y3250D02*
Y7250D01*
Y3250D02*
X15750D01*
X13750Y7250D02*
X15750D01*
X10250Y3250D02*
Y7250D01*
X8250Y3250D02*
Y7250D01*
Y3250D02*
X10250D01*
X8250Y7250D02*
X10250D01*
D15*
X6750Y7157D02*
X7000Y6907D01*
X6000D02*
X6250Y7157D01*
X5750D02*
X6000Y6907D01*
X5000D02*
X5250Y7157D01*
X4750D02*
X5000Y6907D01*
X4000D02*
X4250Y7157D01*
X7000Y5407D02*
Y6907D01*
X6750Y5157D02*
X7000Y5407D01*
X6250Y5157D02*
X6750D01*
X6000Y5407D02*
X6250Y5157D01*
X5750D02*
X6000Y5407D01*
X5250Y5157D02*
X5750D01*
X5000Y5407D02*
X5250Y5157D01*
X4750D02*
X5000Y5407D01*
X4250Y5157D02*
X4750D01*
X4000Y5407D02*
X4250Y5157D01*
X6000Y5407D02*
Y6907D01*
X5000Y5407D02*
Y6907D01*
X4000Y5407D02*
Y6907D01*
X4250Y7157D02*
X4750D01*
X5250D02*
X5750D01*
X6250D02*
X6750D01*
X6250Y7289D02*
X6750D01*
X2740Y13960D02*
X3256D01*
X2740Y12541D02*
X3256D01*
X23450Y3162D02*
Y2829D01*
X23117Y3162D01*
X23033D01*
X22950Y3079D01*
Y2912D01*
X23033Y2829D01*
X24450Y3029D02*
Y3195D01*
Y3112D01*
X23950D01*
X24033Y3029D01*
X23950Y7429D02*
Y7762D01*
X24033D01*
X24367Y7429D01*
X24450D01*
X23033D02*
X22950Y7512D01*
Y7679D01*
X23033Y7762D01*
X23117D01*
X23200Y7679D01*
X23283Y7762D01*
X23367D01*
X23450Y7679D01*
Y7512D01*
X23367Y7429D01*
X23283D01*
X23200Y7512D01*
X23117Y7429D01*
X23033D01*
X23200Y7512D02*
Y7679D01*
X16950Y3083D02*
Y2750D01*
X16617Y3083D01*
X16533D01*
X16450Y3000D01*
Y2833D01*
X16533Y2750D01*
X17950Y2950D02*
Y3117D01*
Y3033D01*
X17450D01*
X17533Y2950D01*
X17450Y7350D02*
Y7683D01*
X17533D01*
X17867Y7350D01*
X17950D01*
X16533D02*
X16450Y7433D01*
Y7600D01*
X16533Y7683D01*
X16617D01*
X16700Y7600D01*
X16783Y7683D01*
X16867D01*
X16950Y7600D01*
Y7433D01*
X16867Y7350D01*
X16783D01*
X16700Y7433D01*
X16617Y7350D01*
X16533D01*
X16700Y7433D02*
Y7600D01*
X11700Y3083D02*
Y2750D01*
X11367Y3083D01*
X11283D01*
X11200Y3000D01*
Y2833D01*
X11283Y2750D01*
X12700Y2950D02*
Y3117D01*
Y3033D01*
X12200D01*
X12283Y2950D01*
X12200Y7350D02*
Y7683D01*
X12283D01*
X12617Y7350D01*
X12700D01*
X11283D02*
X11200Y7433D01*
Y7600D01*
X11283Y7683D01*
X11367D01*
X11450Y7600D01*
X11533Y7683D01*
X11617D01*
X11700Y7600D01*
Y7433D01*
X11617Y7350D01*
X11533D01*
X11450Y7433D01*
X11367Y7350D01*
X11283D01*
X11450Y7433D02*
Y7600D01*
X14450Y3083D02*
Y2750D01*
X14117Y3083D01*
X14033D01*
X13950Y3000D01*
Y2833D01*
X14033Y2750D01*
X15450Y2950D02*
Y3117D01*
Y3033D01*
X14950D01*
X15033Y2950D01*
X14950Y7350D02*
Y7683D01*
X15033D01*
X15367Y7350D01*
X15450D01*
X14033D02*
X13950Y7433D01*
Y7600D01*
X14033Y7683D01*
X14117D01*
X14200Y7600D01*
X14283Y7683D01*
X14367D01*
X14450Y7600D01*
Y7433D01*
X14367Y7350D01*
X14283D01*
X14200Y7433D01*
X14117Y7350D01*
X14033D01*
X14200Y7433D02*
Y7600D01*
X8950Y3083D02*
Y2750D01*
X8617Y3083D01*
X8533D01*
X8450Y3000D01*
Y2833D01*
X8533Y2750D01*
X9950Y2950D02*
Y3117D01*
Y3033D01*
X9450D01*
X9533Y2950D01*
X9450Y7350D02*
Y7683D01*
X9533D01*
X9867Y7350D01*
X9950D01*
X8533D02*
X8450Y7433D01*
Y7600D01*
X8533Y7683D01*
X8617D01*
X8700Y7600D01*
X8783Y7683D01*
X8867D01*
X8950Y7600D01*
Y7433D01*
X8867Y7350D01*
X8783D01*
X8700Y7433D01*
X8617Y7350D01*
X8533D01*
X8700Y7433D02*
Y7600D01*
D16*
X5646Y23219D02*
X5842D01*
X5744D01*
Y23809D01*
X5646Y23710D01*
Y22719D02*
X5744Y22818D01*
X5941D01*
X6039Y22719D01*
Y22621D01*
X5941Y22522D01*
X5842D01*
X5941D01*
X6039Y22424D01*
Y22326D01*
X5941Y22227D01*
X5744D01*
X5646Y22326D01*
M02*
