G04*
G04 #@! TF.GenerationSoftware,Altium Limited,Altium Designer,20.0.10 (225)*
G04*
G04 Layer_Physical_Order=2*
G04 Layer_Color=16711680*
%FSLAX24Y24*%
%MOIN*%
G70*
G01*
G75*
%ADD12C,0.0100*%
%ADD39R,0.0591X0.0591*%
%ADD40C,0.0591*%
%ADD41C,0.0472*%
%ADD42P,0.0801X8X22.5*%
%ADD43C,0.0630*%
%ADD44C,0.0551*%
%ADD45O,0.0787X0.0394*%
%ADD46O,0.0787X0.0394*%
%ADD47O,0.1040X0.0520*%
%ADD48R,0.0591X0.0591*%
%ADD50R,0.0551X0.0551*%
%ADD51C,0.0500*%
G36*
X31500Y0D02*
X0D01*
Y40000D01*
X31500D01*
X31500Y0D01*
D02*
G37*
%LPC*%
G36*
X28500Y37712D02*
X28397Y37698D01*
X28301Y37658D01*
X28218Y37595D01*
X28155Y37512D01*
X28115Y37416D01*
X28101Y37313D01*
X28115Y37210D01*
X28155Y37114D01*
X28218Y37031D01*
X28301Y36968D01*
X28397Y36928D01*
X28500Y36914D01*
X28603Y36928D01*
X28699Y36968D01*
X28782Y37031D01*
X28845Y37114D01*
X28885Y37210D01*
X28899Y37313D01*
X28885Y37416D01*
X28845Y37512D01*
X28782Y37595D01*
X28699Y37658D01*
X28603Y37698D01*
X28500Y37712D01*
D02*
G37*
G36*
X24642D02*
X24539Y37698D01*
X24442Y37658D01*
X24360Y37595D01*
X24296Y37512D01*
X24257Y37416D01*
X24243Y37313D01*
X24257Y37210D01*
X24296Y37114D01*
X24360Y37031D01*
X24442Y36968D01*
X24539Y36928D01*
X24642Y36914D01*
X24745Y36928D01*
X24841Y36968D01*
X24924Y37031D01*
X24987Y37114D01*
X25027Y37210D01*
X25040Y37313D01*
X25027Y37416D01*
X24987Y37512D01*
X24924Y37595D01*
X24841Y37658D01*
X24745Y37698D01*
X24642Y37712D01*
D02*
G37*
G36*
X28500Y36491D02*
X28397Y36478D01*
X28301Y36438D01*
X28218Y36374D01*
X28155Y36292D01*
X28115Y36196D01*
X28101Y36093D01*
X28115Y35989D01*
X28155Y35893D01*
X28218Y35811D01*
X28301Y35747D01*
X28397Y35707D01*
X28500Y35694D01*
X28603Y35707D01*
X28699Y35747D01*
X28782Y35811D01*
X28845Y35893D01*
X28885Y35989D01*
X28899Y36093D01*
X28885Y36196D01*
X28845Y36292D01*
X28782Y36374D01*
X28699Y36438D01*
X28603Y36478D01*
X28500Y36491D01*
D02*
G37*
G36*
X24642D02*
X24539Y36478D01*
X24442Y36438D01*
X24360Y36374D01*
X24296Y36292D01*
X24257Y36196D01*
X24243Y36093D01*
X24257Y35989D01*
X24296Y35893D01*
X24360Y35811D01*
X24442Y35747D01*
X24539Y35707D01*
X24642Y35694D01*
X24745Y35707D01*
X24841Y35747D01*
X24924Y35811D01*
X24987Y35893D01*
X25027Y35989D01*
X25040Y36093D01*
X25027Y36196D01*
X24987Y36292D01*
X24924Y36374D01*
X24841Y36438D01*
X24745Y36478D01*
X24642Y36491D01*
D02*
G37*
G36*
X4500Y35679D02*
X4402Y35666D01*
X4311Y35628D01*
X4232Y35568D01*
X4172Y35489D01*
X4134Y35398D01*
X4121Y35300D01*
X4134Y35202D01*
X4172Y35111D01*
X4232Y35032D01*
X4311Y34972D01*
X4402Y34934D01*
X4500Y34921D01*
X4598Y34934D01*
X4689Y34972D01*
X4768Y35032D01*
X4828Y35111D01*
X4866Y35202D01*
X4879Y35300D01*
X4866Y35398D01*
X4828Y35489D01*
X4768Y35568D01*
X4689Y35628D01*
X4598Y35666D01*
X4500Y35679D01*
D02*
G37*
G36*
X1250D02*
X1152Y35666D01*
X1061Y35628D01*
X982Y35568D01*
X922Y35489D01*
X884Y35398D01*
X871Y35300D01*
X884Y35202D01*
X922Y35111D01*
X982Y35032D01*
X1061Y34972D01*
X1152Y34934D01*
X1250Y34921D01*
X1348Y34934D01*
X1439Y34972D01*
X1518Y35032D01*
X1578Y35111D01*
X1616Y35202D01*
X1629Y35300D01*
X1616Y35398D01*
X1578Y35489D01*
X1518Y35568D01*
X1439Y35628D01*
X1348Y35666D01*
X1250Y35679D01*
D02*
G37*
G36*
X28500Y35271D02*
X28397Y35257D01*
X28301Y35217D01*
X28218Y35154D01*
X28155Y35071D01*
X28115Y34975D01*
X28101Y34872D01*
X28115Y34769D01*
X28155Y34673D01*
X28218Y34590D01*
X28301Y34527D01*
X28397Y34487D01*
X28500Y34473D01*
X28603Y34487D01*
X28699Y34527D01*
X28782Y34590D01*
X28845Y34673D01*
X28885Y34769D01*
X28899Y34872D01*
X28885Y34975D01*
X28845Y35071D01*
X28782Y35154D01*
X28699Y35217D01*
X28603Y35257D01*
X28500Y35271D01*
D02*
G37*
G36*
X24642D02*
X24539Y35257D01*
X24442Y35217D01*
X24360Y35154D01*
X24296Y35071D01*
X24257Y34975D01*
X24243Y34872D01*
X24257Y34769D01*
X24296Y34673D01*
X24360Y34590D01*
X24442Y34527D01*
X24539Y34487D01*
X24642Y34473D01*
X24745Y34487D01*
X24841Y34527D01*
X24924Y34590D01*
X24987Y34673D01*
X25027Y34769D01*
X25040Y34872D01*
X25027Y34975D01*
X24987Y35071D01*
X24924Y35154D01*
X24841Y35217D01*
X24745Y35257D01*
X24642Y35271D01*
D02*
G37*
G36*
X13300Y34139D02*
X13212Y34128D01*
X13130Y34094D01*
X13060Y34040D01*
X13006Y33970D01*
X12972Y33888D01*
X12961Y33800D01*
X12972Y33712D01*
X13006Y33630D01*
X13060Y33560D01*
X13130Y33506D01*
X13212Y33472D01*
X13300Y33461D01*
X13388Y33472D01*
X13470Y33506D01*
X13540Y33560D01*
X13594Y33630D01*
X13628Y33712D01*
X13639Y33800D01*
X13628Y33888D01*
X13594Y33970D01*
X13540Y34040D01*
X13470Y34094D01*
X13388Y34128D01*
X13300Y34139D01*
D02*
G37*
G36*
X9200D02*
X9112Y34128D01*
X9030Y34094D01*
X8960Y34040D01*
X8906Y33970D01*
X8872Y33888D01*
X8861Y33800D01*
X8872Y33712D01*
X8879Y33696D01*
X7727Y32543D01*
X6794D01*
X6778Y32590D01*
X6796Y32604D01*
X6862Y32691D01*
X6904Y32792D01*
X6919Y32900D01*
X6904Y33008D01*
X6862Y33109D01*
X6796Y33196D01*
X6709Y33262D01*
X6608Y33304D01*
X6500Y33319D01*
X6392Y33304D01*
X6291Y33262D01*
X6204Y33196D01*
X6138Y33109D01*
X6096Y33008D01*
X6081Y32900D01*
X6096Y32792D01*
X6138Y32691D01*
X6204Y32604D01*
X6222Y32590D01*
X6206Y32543D01*
X6073D01*
X5881Y32735D01*
X5904Y32792D01*
X5919Y32900D01*
X5904Y33008D01*
X5862Y33109D01*
X5796Y33196D01*
X5709Y33262D01*
X5608Y33304D01*
X5500Y33319D01*
X5392Y33304D01*
X5291Y33262D01*
X5204Y33196D01*
X5138Y33109D01*
X5096Y33008D01*
X5081Y32900D01*
X5096Y32792D01*
X5138Y32691D01*
X5204Y32604D01*
X5291Y32538D01*
X5392Y32496D01*
X5500Y32481D01*
X5608Y32496D01*
X5665Y32519D01*
X5902Y32282D01*
X5951Y32249D01*
X6010Y32237D01*
X7790D01*
X7849Y32249D01*
X7898Y32282D01*
X9096Y33479D01*
X9112Y33472D01*
X9200Y33461D01*
X9288Y33472D01*
X9370Y33506D01*
X9440Y33560D01*
X9494Y33630D01*
X9528Y33712D01*
X9539Y33800D01*
X9528Y33888D01*
X9494Y33970D01*
X9440Y34040D01*
X9370Y34094D01*
X9288Y34128D01*
X9200Y34139D01*
D02*
G37*
G36*
X3450Y33412D02*
Y33050D01*
X3812D01*
X3804Y33108D01*
X3762Y33209D01*
X3696Y33296D01*
X3609Y33362D01*
X3508Y33404D01*
X3450Y33412D01*
D02*
G37*
G36*
X3350D02*
X3292Y33404D01*
X3191Y33362D01*
X3104Y33296D01*
X3038Y33209D01*
X2996Y33108D01*
X2988Y33050D01*
X3350D01*
Y33412D01*
D02*
G37*
G36*
X9150Y33133D02*
X9112Y33128D01*
X9030Y33094D01*
X8960Y33040D01*
X8906Y32970D01*
X8872Y32888D01*
X8867Y32850D01*
X9150D01*
Y33133D01*
D02*
G37*
G36*
X3812Y32950D02*
X3450D01*
Y32588D01*
X3508Y32596D01*
X3609Y32638D01*
X3696Y32704D01*
X3762Y32791D01*
X3804Y32892D01*
X3812Y32950D01*
D02*
G37*
G36*
X3350D02*
X2988D01*
X2996Y32892D01*
X3038Y32791D01*
X3104Y32704D01*
X3191Y32638D01*
X3292Y32596D01*
X3350Y32588D01*
Y32950D01*
D02*
G37*
G36*
X2400Y33419D02*
X2292Y33404D01*
X2191Y33362D01*
X2104Y33296D01*
X2038Y33209D01*
X1996Y33108D01*
X1981Y33000D01*
X1996Y32892D01*
X2038Y32791D01*
X2104Y32704D01*
X2191Y32638D01*
X2292Y32596D01*
X2400Y32581D01*
X2508Y32596D01*
X2609Y32638D01*
X2696Y32704D01*
X2762Y32791D01*
X2804Y32892D01*
X2819Y33000D01*
X2804Y33108D01*
X2762Y33209D01*
X2696Y33296D01*
X2609Y33362D01*
X2508Y33404D01*
X2400Y33419D01*
D02*
G37*
G36*
X13350Y33133D02*
Y32800D01*
Y32467D01*
X13388Y32472D01*
X13470Y32506D01*
X13540Y32560D01*
X13594Y32630D01*
X13628Y32712D01*
X13639Y32800D01*
X13654Y32817D01*
X19818D01*
X19829Y32786D01*
X19832Y32767D01*
X19772Y32689D01*
X19734Y32598D01*
X19721Y32500D01*
X19734Y32402D01*
X19749Y32365D01*
X15632Y28248D01*
X15599Y28199D01*
X15587Y28140D01*
Y23263D01*
X11887Y19563D01*
X10000D01*
X9941Y19551D01*
X9892Y19518D01*
X9392Y19018D01*
X9359Y18969D01*
X9347Y18910D01*
Y17663D01*
X8837Y17153D01*
X8586D01*
X8574Y17182D01*
X8517Y17257D01*
X8442Y17314D01*
X8354Y17351D01*
X8260Y17363D01*
X7740D01*
X7646Y17351D01*
X7558Y17314D01*
X7533Y17295D01*
X7483Y17320D01*
Y17680D01*
X7533Y17705D01*
X7558Y17686D01*
X7646Y17649D01*
X7740Y17637D01*
X8260D01*
X8354Y17649D01*
X8442Y17686D01*
X8517Y17743D01*
X8574Y17818D01*
X8611Y17906D01*
X8623Y18000D01*
X8611Y18094D01*
X8574Y18182D01*
X8517Y18257D01*
X8442Y18314D01*
X8354Y18351D01*
X8260Y18363D01*
X7740D01*
X7646Y18351D01*
X7558Y18314D01*
X7533Y18295D01*
X7483Y18320D01*
Y18680D01*
X7533Y18705D01*
X7558Y18686D01*
X7646Y18649D01*
X7740Y18637D01*
X8260D01*
X8354Y18649D01*
X8442Y18686D01*
X8517Y18743D01*
X8574Y18818D01*
X8611Y18906D01*
X8623Y19000D01*
X8611Y19094D01*
X8574Y19182D01*
X8517Y19257D01*
X8442Y19314D01*
X8354Y19351D01*
X8260Y19363D01*
X7740D01*
X7646Y19351D01*
X7558Y19314D01*
X7483Y19257D01*
X7426Y19182D01*
X7414Y19153D01*
X7410D01*
X7351Y19141D01*
X7302Y19108D01*
X7222Y19028D01*
X7189Y18979D01*
X7177Y18920D01*
Y18535D01*
X7131Y18515D01*
X4758Y20888D01*
X4709Y20921D01*
X4650Y20933D01*
X2043D01*
X1023Y21953D01*
Y22960D01*
X1073Y22977D01*
X1118Y22918D01*
X1201Y22855D01*
X1297Y22815D01*
X1350Y22808D01*
Y23200D01*
Y23592D01*
X1297Y23585D01*
X1201Y23545D01*
X1118Y23482D01*
X1073Y23423D01*
X1023Y23440D01*
Y25376D01*
X1073Y25401D01*
X1111Y25372D01*
X1202Y25334D01*
X1300Y25321D01*
X1398Y25334D01*
X1435Y25349D01*
X3193Y23591D01*
X3182Y23531D01*
X3118Y23482D01*
X3055Y23399D01*
X3015Y23303D01*
X3001Y23200D01*
X3015Y23097D01*
X3055Y23001D01*
X3118Y22918D01*
X3201Y22855D01*
X3297Y22815D01*
X3400Y22801D01*
X3503Y22815D01*
X3550Y22834D01*
X6492Y19892D01*
X6541Y19859D01*
X6600Y19847D01*
X7414D01*
X7426Y19818D01*
X7483Y19743D01*
X7558Y19686D01*
X7646Y19649D01*
X7740Y19637D01*
X8260D01*
X8354Y19649D01*
X8442Y19686D01*
X8517Y19743D01*
X8574Y19818D01*
X8611Y19906D01*
X8623Y20000D01*
X8611Y20094D01*
X8574Y20182D01*
X8517Y20257D01*
X8442Y20314D01*
X8354Y20351D01*
X8260Y20363D01*
X7740D01*
X7646Y20351D01*
X7558Y20314D01*
X7483Y20257D01*
X7426Y20182D01*
X7414Y20153D01*
X6663D01*
X4058Y22759D01*
X4077Y22805D01*
X4579D01*
X6492Y20892D01*
X6541Y20859D01*
X6600Y20847D01*
X7414D01*
X7426Y20818D01*
X7483Y20743D01*
X7558Y20686D01*
X7646Y20649D01*
X7740Y20637D01*
X8260D01*
X8354Y20649D01*
X8442Y20686D01*
X8517Y20743D01*
X8574Y20818D01*
X8611Y20906D01*
X8623Y21000D01*
X8611Y21094D01*
X8574Y21182D01*
X8517Y21257D01*
X8442Y21314D01*
X8354Y21351D01*
X8260Y21363D01*
X7740D01*
X7646Y21351D01*
X7558Y21314D01*
X7483Y21257D01*
X7426Y21182D01*
X7414Y21153D01*
X6663D01*
X4795Y23021D01*
Y23595D01*
X4653D01*
Y25357D01*
X4689Y25372D01*
X4768Y25432D01*
X4828Y25511D01*
X4866Y25602D01*
X4879Y25700D01*
X4866Y25798D01*
X4828Y25889D01*
X4768Y25968D01*
X4689Y26028D01*
X4598Y26066D01*
X4500Y26079D01*
X4402Y26066D01*
X4311Y26028D01*
X4232Y25968D01*
X4172Y25889D01*
X4134Y25798D01*
X4121Y25700D01*
X4134Y25602D01*
X4172Y25511D01*
X4232Y25432D01*
X4311Y25372D01*
X4347Y25357D01*
Y23595D01*
X4005D01*
Y22877D01*
X3959Y22858D01*
X3766Y23050D01*
X3785Y23097D01*
X3799Y23200D01*
X3785Y23303D01*
X3745Y23399D01*
X3682Y23482D01*
X3599Y23545D01*
X3553Y23564D01*
Y23600D01*
X3541Y23659D01*
X3508Y23708D01*
X1651Y25565D01*
X1666Y25602D01*
X1679Y25700D01*
X1666Y25798D01*
X1628Y25889D01*
X1568Y25968D01*
X1489Y26028D01*
X1398Y26066D01*
X1300Y26079D01*
X1202Y26066D01*
X1111Y26028D01*
X1073Y25999D01*
X1023Y26024D01*
Y29376D01*
X1073Y29401D01*
X1111Y29372D01*
X1202Y29334D01*
X1300Y29321D01*
X1398Y29334D01*
X1489Y29372D01*
X1568Y29432D01*
X1628Y29511D01*
X1666Y29602D01*
X1679Y29700D01*
X1666Y29798D01*
X1628Y29889D01*
X1568Y29968D01*
X1489Y30028D01*
X1398Y30066D01*
X1300Y30079D01*
X1202Y30066D01*
X1111Y30028D01*
X1073Y29999D01*
X1023Y30024D01*
Y30857D01*
X1115Y30949D01*
X1152Y30934D01*
X1250Y30921D01*
X1348Y30934D01*
X1439Y30972D01*
X1518Y31032D01*
X1578Y31111D01*
X1616Y31202D01*
X1629Y31300D01*
X1616Y31398D01*
X1578Y31489D01*
X1518Y31568D01*
X1439Y31628D01*
X1348Y31666D01*
X1250Y31679D01*
X1152Y31666D01*
X1061Y31628D01*
X982Y31568D01*
X922Y31489D01*
X884Y31398D01*
X871Y31300D01*
X884Y31202D01*
X899Y31165D01*
X762Y31028D01*
X729Y30979D01*
X717Y30920D01*
Y21890D01*
X729Y21831D01*
X762Y21782D01*
X1872Y20672D01*
X1921Y20639D01*
X1980Y20627D01*
X4587D01*
X4731Y20483D01*
X4709Y20438D01*
X4700Y20439D01*
X4612Y20428D01*
X4530Y20394D01*
X4460Y20340D01*
X4406Y20270D01*
X4372Y20188D01*
X4361Y20100D01*
X4372Y20012D01*
X4406Y19930D01*
X4460Y19860D01*
X4530Y19806D01*
X4612Y19772D01*
X4700Y19761D01*
X4788Y19772D01*
X4870Y19806D01*
X4940Y19860D01*
X4994Y19930D01*
X5028Y20012D01*
X5039Y20100D01*
X5038Y20109D01*
X5083Y20131D01*
X6977Y18237D01*
Y14880D01*
X6989Y14821D01*
X7022Y14772D01*
X7227Y14567D01*
X7222Y14518D01*
X6267Y13563D01*
X3453D01*
X2761Y14256D01*
X2770Y14265D01*
Y14735D01*
X2535Y14970D01*
X2065D01*
X1830Y14735D01*
Y14265D01*
X2065Y14030D01*
X2535D01*
X2544Y14039D01*
X3282Y13302D01*
X3331Y13269D01*
X3390Y13257D01*
X6330D01*
X6389Y13269D01*
X6438Y13302D01*
X7375Y14239D01*
X7404Y14235D01*
X7426Y14182D01*
X7426Y14182D01*
X7389Y14094D01*
X7377Y14000D01*
X7389Y13906D01*
X7426Y13818D01*
X7483Y13743D01*
X7558Y13686D01*
X7646Y13649D01*
X7740Y13637D01*
X8260D01*
X8354Y13649D01*
X8442Y13686D01*
X8517Y13743D01*
X8574Y13818D01*
X8611Y13906D01*
X8623Y14000D01*
X8611Y14094D01*
X8574Y14182D01*
X8555Y14207D01*
X8580Y14257D01*
X9027D01*
X9347Y13937D01*
Y13500D01*
X9359Y13441D01*
X9392Y13392D01*
X9892Y12892D01*
X9941Y12859D01*
X10000Y12847D01*
X10414D01*
X10426Y12818D01*
X10483Y12743D01*
X10558Y12686D01*
X10646Y12649D01*
X10740Y12637D01*
X11260D01*
X11354Y12649D01*
X11442Y12686D01*
X11467Y12705D01*
X11517Y12680D01*
Y12320D01*
X11467Y12295D01*
X11442Y12314D01*
X11354Y12351D01*
X11260Y12363D01*
X10740D01*
X10646Y12351D01*
X10558Y12314D01*
X10483Y12257D01*
X10426Y12182D01*
X10414Y12153D01*
X9933D01*
X8568Y13518D01*
X8519Y13551D01*
X8460Y13563D01*
X7540D01*
X7481Y13551D01*
X7432Y13518D01*
X6847Y12933D01*
X3083D01*
X1761Y14256D01*
X1770Y14265D01*
Y14735D01*
X1535Y14970D01*
X1065D01*
X979Y14884D01*
X933Y14903D01*
Y15097D01*
X979Y15116D01*
X1065Y15030D01*
X1535D01*
X1770Y15265D01*
Y15735D01*
X1535Y15970D01*
X1202D01*
X1182Y16016D01*
X1263Y16097D01*
X1487D01*
X1839Y15744D01*
X1830Y15735D01*
Y15265D01*
X2065Y15030D01*
X2535D01*
X2770Y15265D01*
Y15735D01*
X2535Y15970D01*
X2065D01*
X2056Y15961D01*
X1658Y16358D01*
X1609Y16391D01*
X1550Y16403D01*
X1200D01*
X1141Y16391D01*
X1092Y16358D01*
X672Y15938D01*
X639Y15889D01*
X627Y15830D01*
Y13850D01*
X639Y13791D01*
X672Y13742D01*
X2112Y12302D01*
X2161Y12269D01*
X2220Y12257D01*
X7420D01*
X7445Y12207D01*
X7426Y12182D01*
X7389Y12094D01*
X7383Y12050D01*
X8617D01*
X8611Y12094D01*
X8574Y12182D01*
X8574Y12182D01*
X8596Y12235D01*
X8625Y12239D01*
X9972Y10892D01*
X10021Y10859D01*
X10080Y10847D01*
X10414D01*
X10426Y10818D01*
X10483Y10743D01*
X10523Y10713D01*
X10506Y10663D01*
X8494D01*
X8477Y10713D01*
X8517Y10743D01*
X8574Y10818D01*
X8611Y10906D01*
X8617Y10950D01*
X7383D01*
X7389Y10906D01*
X7426Y10818D01*
X7483Y10743D01*
X7523Y10713D01*
X7506Y10663D01*
X4973D01*
X4778Y10858D01*
X4729Y10891D01*
X4670Y10903D01*
X3405D01*
X3395Y10953D01*
X3399Y10955D01*
X3482Y11018D01*
X3545Y11101D01*
X3585Y11197D01*
X3592Y11250D01*
X3200D01*
Y11300D01*
X3150D01*
Y11692D01*
X3097Y11685D01*
X3001Y11645D01*
X2918Y11582D01*
X2855Y11499D01*
X2836Y11453D01*
X1864D01*
X1845Y11499D01*
X1782Y11582D01*
X1699Y11645D01*
X1603Y11685D01*
X1550Y11692D01*
Y11300D01*
Y10908D01*
X1603Y10915D01*
X1699Y10955D01*
X1782Y11018D01*
X1845Y11101D01*
X1864Y11147D01*
X2836D01*
X2855Y11101D01*
X2918Y11018D01*
X3001Y10955D01*
X3005Y10953D01*
X2995Y10903D01*
X1950D01*
X1891Y10891D01*
X1842Y10858D01*
X1679Y10695D01*
X1105D01*
Y9905D01*
X1895D01*
Y10479D01*
X2013Y10597D01*
X2805D01*
Y9905D01*
X3595D01*
Y10597D01*
X4607D01*
X4802Y10402D01*
X4851Y10369D01*
X4910Y10357D01*
X7536D01*
X7541Y10347D01*
X7549Y10307D01*
X7483Y10257D01*
X7426Y10182D01*
X7389Y10094D01*
X7383Y10050D01*
X8000D01*
Y10000D01*
X8050D01*
Y9637D01*
X8260D01*
X8354Y9649D01*
X8442Y9686D01*
X8517Y9743D01*
X8574Y9818D01*
X8586Y9847D01*
X10414D01*
X10426Y9818D01*
X10483Y9743D01*
X10558Y9686D01*
X10646Y9649D01*
X10740Y9637D01*
X10950D01*
Y10000D01*
X11050D01*
Y9637D01*
X11260D01*
X11354Y9649D01*
X11442Y9686D01*
X11517Y9743D01*
X11574Y9818D01*
X11586Y9847D01*
X12949D01*
X12956Y9830D01*
X13010Y9760D01*
X13080Y9706D01*
X13162Y9672D01*
X13200Y9667D01*
Y10000D01*
Y10333D01*
X13162Y10328D01*
X13080Y10294D01*
X13010Y10240D01*
X12956Y10170D01*
X12949Y10153D01*
X11586D01*
X11574Y10182D01*
X11517Y10257D01*
X11442Y10314D01*
X11442Y10315D01*
X11447Y10366D01*
X11459Y10369D01*
X11508Y10402D01*
X11778Y10672D01*
X11811Y10721D01*
X11823Y10780D01*
Y13230D01*
X11811Y13289D01*
X11778Y13338D01*
X11508Y13608D01*
X11459Y13641D01*
X11456Y13648D01*
X11452Y13694D01*
X11517Y13743D01*
X11574Y13818D01*
X11586Y13847D01*
X14969D01*
X15027Y13859D01*
X15077Y13892D01*
X15338Y14152D01*
X15362Y14149D01*
X15384Y14097D01*
X15349Y14011D01*
X15337Y13920D01*
X15349Y13829D01*
X15384Y13743D01*
X15440Y13670D01*
X15513Y13614D01*
X15599Y13579D01*
X15690Y13567D01*
X15781Y13579D01*
X15805Y13589D01*
X16452Y12942D01*
X16501Y12909D01*
X16560Y12897D01*
X18215D01*
X18235Y12851D01*
X17454Y12071D01*
X17438Y12078D01*
X17400Y12083D01*
Y11800D01*
X17683D01*
X17678Y11838D01*
X17671Y11854D01*
X18453Y12637D01*
X24983D01*
X25516Y12104D01*
X25509Y12088D01*
X25504Y12050D01*
X25837D01*
Y11950D01*
X25504D01*
X25509Y11912D01*
X25543Y11830D01*
X25597Y11760D01*
X25667Y11706D01*
X25723Y11683D01*
X25714Y11633D01*
X25420D01*
X25157Y11896D01*
X25164Y11912D01*
X25176Y12000D01*
X25164Y12088D01*
X25130Y12170D01*
X25076Y12240D01*
X25006Y12294D01*
X24924Y12328D01*
X24837Y12339D01*
X24749Y12328D01*
X24667Y12294D01*
X24597Y12240D01*
X24543Y12170D01*
X24509Y12088D01*
X24497Y12000D01*
X24509Y11912D01*
X24543Y11830D01*
X24597Y11760D01*
X24667Y11706D01*
X24749Y11672D01*
X24837Y11661D01*
X24924Y11672D01*
X24941Y11679D01*
X25248Y11372D01*
X25478Y11142D01*
X25528Y11109D01*
X25587Y11097D01*
X26000D01*
X26059Y11109D01*
X26108Y11142D01*
X27421Y12455D01*
X27454Y12504D01*
X27466Y12563D01*
Y13407D01*
X27502Y13422D01*
X27581Y13482D01*
X27641Y13561D01*
X27679Y13652D01*
X27684Y13694D01*
X27737Y13711D01*
X27807Y13642D01*
X27856Y13609D01*
X27915Y13597D01*
X27970D01*
X27985Y13561D01*
X28045Y13482D01*
X28124Y13422D01*
X28215Y13384D01*
X28313Y13371D01*
X28411Y13384D01*
X28502Y13422D01*
X28581Y13482D01*
X28641Y13561D01*
X28679Y13652D01*
X28692Y13750D01*
X28679Y13848D01*
X28641Y13939D01*
X28581Y14018D01*
X28502Y14078D01*
X28411Y14116D01*
X28313Y14129D01*
X28215Y14116D01*
X28124Y14078D01*
X28045Y14018D01*
X27997Y13955D01*
X27938Y13943D01*
X27806Y14075D01*
X27829Y14123D01*
X27911Y14134D01*
X28002Y14172D01*
X28081Y14232D01*
X28141Y14311D01*
X28156Y14347D01*
X28537D01*
X28757Y14127D01*
Y11801D01*
X28712Y11779D01*
X28693Y11794D01*
X28611Y11828D01*
X28524Y11839D01*
X28436Y11828D01*
X28354Y11794D01*
X28284Y11740D01*
X28230Y11670D01*
X28196Y11588D01*
X28184Y11500D01*
X28196Y11412D01*
X28230Y11330D01*
X28284Y11260D01*
X28354Y11206D01*
X28436Y11172D01*
X28524Y11161D01*
X28611Y11172D01*
X28693Y11206D01*
X28712Y11221D01*
X28757Y11199D01*
Y10950D01*
X28628Y10821D01*
X28611Y10828D01*
X28574Y10833D01*
Y10550D01*
X28856D01*
X28851Y10588D01*
X28844Y10604D01*
X29018Y10778D01*
X29051Y10828D01*
X29063Y10886D01*
Y14190D01*
X29051Y14249D01*
X29018Y14298D01*
X28708Y14608D01*
X28659Y14641D01*
X28600Y14653D01*
X28156D01*
X28141Y14689D01*
X28081Y14768D01*
X28002Y14828D01*
X27911Y14866D01*
X27863Y14872D01*
Y14500D01*
X27813D01*
Y14450D01*
X27441D01*
X27447Y14402D01*
X27460Y14370D01*
X27432Y14329D01*
X27194D01*
X27166Y14370D01*
X27179Y14402D01*
X27192Y14500D01*
X27179Y14598D01*
X27141Y14689D01*
X27081Y14768D01*
X27002Y14828D01*
X26911Y14866D01*
X26813Y14879D01*
X26715Y14866D01*
X26624Y14828D01*
X26545Y14768D01*
X26485Y14689D01*
X26447Y14598D01*
X26434Y14500D01*
X26447Y14402D01*
X26485Y14311D01*
X26545Y14232D01*
X26619Y14176D01*
X26619Y14160D01*
X26605Y14126D01*
X25937D01*
Y13473D01*
X17451D01*
X17097Y13828D01*
X17100Y13835D01*
Y14200D01*
X16735D01*
X16728Y14197D01*
X16495Y14429D01*
X16445Y14462D01*
X16387Y14474D01*
X15290D01*
X15231Y14462D01*
X15182Y14429D01*
X14905Y14153D01*
X11586D01*
X11574Y14182D01*
X11517Y14257D01*
X11442Y14314D01*
X11354Y14351D01*
X11260Y14363D01*
X10740D01*
X10646Y14351D01*
X10558Y14314D01*
X10483Y14257D01*
X10426Y14182D01*
X10389Y14094D01*
X10377Y14000D01*
X10386Y13931D01*
X10339Y13908D01*
X10183Y14063D01*
Y15137D01*
X10393Y15347D01*
X10519D01*
X10536Y15297D01*
X10483Y15257D01*
X10426Y15182D01*
X10389Y15094D01*
X10377Y15000D01*
X10389Y14906D01*
X10426Y14818D01*
X10483Y14743D01*
X10558Y14686D01*
X10646Y14649D01*
X10740Y14637D01*
X11260D01*
X11354Y14649D01*
X11442Y14686D01*
X11517Y14743D01*
X11574Y14818D01*
X11611Y14906D01*
X11623Y15000D01*
X11611Y15094D01*
X11574Y15182D01*
X11517Y15257D01*
X11452Y15306D01*
X11456Y15352D01*
X11459Y15359D01*
X11508Y15392D01*
X11778Y15662D01*
X11811Y15711D01*
X11823Y15770D01*
Y16410D01*
X11811Y16469D01*
X11778Y16518D01*
X11688Y16608D01*
X11639Y16641D01*
X11580Y16653D01*
X11481D01*
X11464Y16703D01*
X11517Y16743D01*
X11574Y16818D01*
X11611Y16906D01*
X11623Y17000D01*
X11611Y17094D01*
X11574Y17182D01*
X11517Y17257D01*
X11442Y17314D01*
X11354Y17351D01*
X11260Y17363D01*
X10740D01*
X10646Y17351D01*
X10558Y17314D01*
X10533Y17295D01*
X10483Y17320D01*
Y17680D01*
X10533Y17705D01*
X10558Y17686D01*
X10646Y17649D01*
X10740Y17637D01*
X11260D01*
X11354Y17649D01*
X11442Y17686D01*
X11517Y17743D01*
X11574Y17818D01*
X11586Y17847D01*
X15037D01*
X18499Y14385D01*
X18484Y14348D01*
X18471Y14250D01*
X18484Y14152D01*
X18522Y14061D01*
X18582Y13982D01*
X18661Y13922D01*
X18752Y13884D01*
X18850Y13871D01*
X18948Y13884D01*
X19039Y13922D01*
X19118Y13982D01*
X19178Y14061D01*
X19216Y14152D01*
X19229Y14250D01*
X19216Y14348D01*
X19178Y14439D01*
X19118Y14518D01*
X19039Y14578D01*
X18948Y14616D01*
X18850Y14629D01*
X18752Y14616D01*
X18715Y14601D01*
X15208Y18108D01*
X15159Y18141D01*
X15100Y18153D01*
X11586D01*
X11574Y18182D01*
X11517Y18257D01*
X11464Y18297D01*
X11481Y18347D01*
X14050D01*
X14109Y18359D01*
X14158Y18392D01*
X18715Y22949D01*
X18752Y22934D01*
X18850Y22921D01*
X18948Y22934D01*
X19039Y22972D01*
X19118Y23032D01*
X19178Y23111D01*
X19216Y23202D01*
X19229Y23300D01*
X19216Y23398D01*
X19178Y23489D01*
X19118Y23568D01*
X19039Y23628D01*
X18948Y23666D01*
X18850Y23679D01*
X18752Y23666D01*
X18661Y23628D01*
X18582Y23568D01*
X18522Y23489D01*
X18484Y23398D01*
X18471Y23300D01*
X18484Y23202D01*
X18499Y23165D01*
X13987Y18653D01*
X11481D01*
X11464Y18703D01*
X11517Y18743D01*
X11574Y18818D01*
X11586Y18847D01*
X12090D01*
X12149Y18859D01*
X12198Y18892D01*
X16438Y23132D01*
X16471Y23181D01*
X16483Y23240D01*
Y25387D01*
X16993Y25896D01*
X17035Y25868D01*
X17022Y25838D01*
X17017Y25800D01*
X17300D01*
Y26083D01*
X17262Y26078D01*
X17232Y26065D01*
X17204Y26107D01*
X17303Y26207D01*
X22634D01*
X22692Y26219D01*
X22742Y26252D01*
X24419Y27929D01*
X24436Y27922D01*
X24524Y27911D01*
X24611Y27922D01*
X24693Y27956D01*
X24763Y28010D01*
X24817Y28080D01*
X24824Y28097D01*
X24880D01*
X24939Y28109D01*
X24988Y28142D01*
X25140Y28294D01*
X25187Y28270D01*
X25185Y28250D01*
X25196Y28162D01*
X25230Y28080D01*
X25284Y28010D01*
X25354Y27956D01*
X25436Y27922D01*
X25474Y27917D01*
Y28250D01*
X25524D01*
Y28300D01*
X25856D01*
X25851Y28338D01*
X25817Y28420D01*
X25763Y28490D01*
X25693Y28544D01*
X25611Y28578D01*
X25524Y28589D01*
X25503Y28586D01*
X25480Y28634D01*
X26598Y29752D01*
X26631Y29801D01*
X26643Y29860D01*
Y29937D01*
X26722Y30016D01*
X26772Y30012D01*
X26795Y29982D01*
X26874Y29922D01*
X26965Y29884D01*
X27063Y29871D01*
X27161Y29884D01*
X27252Y29922D01*
X27331Y29982D01*
X27391Y30061D01*
X27429Y30152D01*
X27442Y30250D01*
X27429Y30348D01*
X27391Y30439D01*
X27331Y30518D01*
X27252Y30578D01*
X27161Y30616D01*
X27063Y30629D01*
X26965Y30616D01*
X26874Y30578D01*
X26795Y30518D01*
X26735Y30439D01*
X26718Y30399D01*
X26681Y30391D01*
X26632Y30358D01*
X26485Y30211D01*
X26439Y30230D01*
Y30591D01*
X26444Y30600D01*
X26486Y30631D01*
X26563Y30621D01*
X26661Y30634D01*
X26752Y30672D01*
X26831Y30732D01*
X26891Y30811D01*
X26929Y30902D01*
X26942Y31000D01*
X26929Y31098D01*
X26891Y31189D01*
X26831Y31268D01*
X26752Y31328D01*
X26661Y31366D01*
X26563Y31379D01*
X26465Y31366D01*
X26374Y31328D01*
X26295Y31268D01*
X26235Y31189D01*
X26197Y31098D01*
X26184Y31000D01*
X26197Y30902D01*
X26235Y30811D01*
X26295Y30732D01*
X26369Y30676D01*
X26369Y30660D01*
X26355Y30626D01*
X25687D01*
Y29874D01*
X26223D01*
X26242Y29828D01*
X24858Y28445D01*
X24794Y28451D01*
X24763Y28490D01*
X24693Y28544D01*
X24611Y28578D01*
X24524Y28589D01*
X24436Y28578D01*
X24354Y28544D01*
X24284Y28490D01*
X24230Y28420D01*
X24196Y28338D01*
X24185Y28250D01*
X24196Y28162D01*
X24203Y28146D01*
X22570Y26513D01*
X17240D01*
X17181Y26501D01*
X17132Y26468D01*
X16222Y25558D01*
X16189Y25509D01*
X16177Y25450D01*
Y23303D01*
X12027Y19153D01*
X11586D01*
X11574Y19182D01*
X11555Y19207D01*
X11580Y19257D01*
X11950D01*
X12009Y19269D01*
X12058Y19302D01*
X15848Y23092D01*
X15881Y23141D01*
X15893Y23200D01*
Y28077D01*
X17665Y29849D01*
X17713Y29833D01*
X17714Y29823D01*
X17744Y29750D01*
X17791Y29688D01*
X17809Y29675D01*
Y29625D01*
X17791Y29612D01*
X17744Y29550D01*
X17714Y29477D01*
X17704Y29400D01*
X17714Y29323D01*
X17744Y29250D01*
X17791Y29188D01*
X17809Y29175D01*
Y29125D01*
X17791Y29112D01*
X17744Y29050D01*
X17714Y28977D01*
X17710Y28950D01*
X18690D01*
X18686Y28977D01*
X18656Y29050D01*
X18609Y29112D01*
X18591Y29125D01*
Y29175D01*
X18609Y29188D01*
X18654Y29247D01*
X19137D01*
X19749Y28635D01*
X19734Y28598D01*
X19721Y28500D01*
X19734Y28402D01*
X19772Y28311D01*
X19832Y28232D01*
X19911Y28172D01*
X20002Y28134D01*
X20100Y28121D01*
X20198Y28134D01*
X20289Y28172D01*
X20368Y28232D01*
X20428Y28311D01*
X20443Y28347D01*
X20857D01*
X20872Y28311D01*
X20932Y28232D01*
X21011Y28172D01*
X21102Y28134D01*
X21200Y28121D01*
X21298Y28134D01*
X21389Y28172D01*
X21468Y28232D01*
X21528Y28311D01*
X21566Y28402D01*
X21579Y28500D01*
X21566Y28598D01*
X21528Y28689D01*
X21468Y28768D01*
X21389Y28828D01*
X21298Y28866D01*
X21200Y28879D01*
X21102Y28866D01*
X21011Y28828D01*
X20932Y28768D01*
X20872Y28689D01*
X20857Y28653D01*
X20443D01*
X20428Y28689D01*
X20368Y28768D01*
X20289Y28828D01*
X20198Y28866D01*
X20100Y28879D01*
X20002Y28866D01*
X19965Y28851D01*
X19308Y29508D01*
X19259Y29541D01*
X19200Y29553D01*
X18654D01*
X18609Y29612D01*
X18591Y29625D01*
Y29675D01*
X18609Y29688D01*
X18656Y29750D01*
X18686Y29823D01*
X18696Y29900D01*
X18686Y29977D01*
X18656Y30050D01*
X18609Y30112D01*
X18547Y30159D01*
X18474Y30189D01*
X18397Y30199D01*
X18081D01*
X18062Y30246D01*
X19965Y32149D01*
X20002Y32134D01*
X20100Y32121D01*
X20198Y32134D01*
X20289Y32172D01*
X20368Y32232D01*
X20428Y32311D01*
X20466Y32402D01*
X20479Y32500D01*
X20466Y32598D01*
X20428Y32689D01*
X20368Y32767D01*
X20371Y32786D01*
X20382Y32817D01*
X20667D01*
X20849Y32635D01*
X20834Y32598D01*
X20828Y32550D01*
X21150D01*
Y32872D01*
X21102Y32866D01*
X21065Y32851D01*
X20838Y33078D01*
X20789Y33111D01*
X20730Y33123D01*
X13470D01*
X13422Y33113D01*
X13388Y33128D01*
X13350Y33133D01*
D02*
G37*
G36*
X9250D02*
Y32800D01*
Y32467D01*
X9288Y32472D01*
X9370Y32506D01*
X9440Y32560D01*
X9494Y32630D01*
X9501Y32647D01*
X12999D01*
X13006Y32630D01*
X13060Y32560D01*
X13130Y32506D01*
X13212Y32472D01*
X13250Y32467D01*
Y32800D01*
Y33133D01*
X13212Y33128D01*
X13130Y33094D01*
X13060Y33040D01*
X13006Y32970D01*
X12999Y32953D01*
X9501D01*
X9494Y32970D01*
X9440Y33040D01*
X9370Y33094D01*
X9288Y33128D01*
X9250Y33133D01*
D02*
G37*
G36*
X9150Y32750D02*
X8867D01*
X8872Y32712D01*
X8906Y32630D01*
X8960Y32560D01*
X9030Y32506D01*
X9112Y32472D01*
X9150Y32467D01*
Y32750D01*
D02*
G37*
G36*
X21150Y32450D02*
X20828D01*
X20834Y32402D01*
X20872Y32311D01*
X20932Y32232D01*
X21011Y32172D01*
X21102Y32134D01*
X21150Y32128D01*
Y32450D01*
D02*
G37*
G36*
X4550Y31672D02*
Y31350D01*
X4872D01*
X4866Y31398D01*
X4828Y31489D01*
X4768Y31568D01*
X4689Y31628D01*
X4598Y31666D01*
X4550Y31672D01*
D02*
G37*
G36*
X4450D02*
X4402Y31666D01*
X4311Y31628D01*
X4232Y31568D01*
X4172Y31489D01*
X4134Y31398D01*
X4128Y31350D01*
X4450D01*
Y31672D01*
D02*
G37*
G36*
X27613Y31372D02*
Y31050D01*
X27935D01*
X27929Y31098D01*
X27891Y31189D01*
X27831Y31268D01*
X27752Y31328D01*
X27661Y31366D01*
X27613Y31372D01*
D02*
G37*
G36*
X21250Y32872D02*
Y32500D01*
Y32128D01*
X21298Y32134D01*
X21389Y32172D01*
X21468Y32232D01*
X21528Y32311D01*
X21543Y32347D01*
X26000D01*
X27212Y31135D01*
X27197Y31098D01*
X27191Y31050D01*
X27513D01*
Y31372D01*
X27465Y31366D01*
X27428Y31351D01*
X26171Y32608D01*
X26122Y32641D01*
X26063Y32653D01*
X21543D01*
X21528Y32689D01*
X21468Y32768D01*
X21389Y32828D01*
X21298Y32866D01*
X21250Y32872D01*
D02*
G37*
G36*
X4872Y31250D02*
X4550D01*
Y30928D01*
X4598Y30934D01*
X4689Y30972D01*
X4768Y31032D01*
X4828Y31111D01*
X4866Y31202D01*
X4872Y31250D01*
D02*
G37*
G36*
X4450D02*
X4128D01*
X4134Y31202D01*
X4172Y31111D01*
X4232Y31032D01*
X4311Y30972D01*
X4402Y30934D01*
X4450Y30928D01*
Y31250D01*
D02*
G37*
G36*
X27935Y30950D02*
X27613D01*
Y30628D01*
X27661Y30634D01*
X27752Y30672D01*
X27831Y30732D01*
X27891Y30811D01*
X27929Y30902D01*
X27935Y30950D01*
D02*
G37*
G36*
X27513D02*
X27191D01*
X27197Y30902D01*
X27235Y30811D01*
X27295Y30732D01*
X27374Y30672D01*
X27465Y30634D01*
X27513Y30628D01*
Y30950D01*
D02*
G37*
G36*
X28063Y30629D02*
X27965Y30616D01*
X27874Y30578D01*
X27795Y30518D01*
X27735Y30439D01*
X27697Y30348D01*
X27684Y30250D01*
X27697Y30152D01*
X27735Y30061D01*
X27795Y29982D01*
X27874Y29922D01*
X27965Y29884D01*
X28063Y29871D01*
X28161Y29884D01*
X28252Y29922D01*
X28331Y29982D01*
X28391Y30061D01*
X28429Y30152D01*
X28442Y30250D01*
X28429Y30348D01*
X28391Y30439D01*
X28331Y30518D01*
X28252Y30578D01*
X28161Y30616D01*
X28063Y30629D01*
D02*
G37*
G36*
X4500Y30079D02*
X4402Y30066D01*
X4311Y30028D01*
X4232Y29968D01*
X4172Y29889D01*
X4134Y29798D01*
X4121Y29700D01*
X4134Y29602D01*
X4172Y29511D01*
X4232Y29432D01*
X4311Y29372D01*
X4402Y29334D01*
X4500Y29321D01*
X4598Y29334D01*
X4689Y29372D01*
X4768Y29432D01*
X4828Y29511D01*
X4866Y29602D01*
X4879Y29700D01*
X4866Y29798D01*
X4828Y29889D01*
X4768Y29968D01*
X4689Y30028D01*
X4598Y30066D01*
X4500Y30079D01*
D02*
G37*
G36*
X14300Y29779D02*
X14202Y29766D01*
X14111Y29728D01*
X14032Y29668D01*
X13972Y29589D01*
X13934Y29498D01*
X13921Y29400D01*
X13934Y29302D01*
X13972Y29211D01*
X14032Y29132D01*
X14111Y29072D01*
X14202Y29034D01*
X14300Y29021D01*
X14398Y29034D01*
X14489Y29072D01*
X14568Y29132D01*
X14628Y29211D01*
X14666Y29302D01*
X14679Y29400D01*
X14666Y29498D01*
X14628Y29589D01*
X14568Y29668D01*
X14489Y29728D01*
X14398Y29766D01*
X14300Y29779D01*
D02*
G37*
G36*
X12850D02*
X12752Y29766D01*
X12661Y29728D01*
X12582Y29668D01*
X12522Y29589D01*
X12484Y29498D01*
X12471Y29400D01*
X12484Y29302D01*
X12522Y29211D01*
X12582Y29132D01*
X12661Y29072D01*
X12752Y29034D01*
X12850Y29021D01*
X12948Y29034D01*
X13039Y29072D01*
X13118Y29132D01*
X13178Y29211D01*
X13216Y29302D01*
X13229Y29400D01*
X13216Y29498D01*
X13178Y29589D01*
X13118Y29668D01*
X13039Y29728D01*
X12948Y29766D01*
X12850Y29779D01*
D02*
G37*
G36*
X11400D02*
X11302Y29766D01*
X11211Y29728D01*
X11132Y29668D01*
X11072Y29589D01*
X11034Y29498D01*
X11021Y29400D01*
X11034Y29302D01*
X11049Y29265D01*
X9392Y27608D01*
X9359Y27559D01*
X9347Y27500D01*
Y22463D01*
X9037Y22153D01*
X8586D01*
X8574Y22182D01*
X8517Y22257D01*
X8442Y22314D01*
X8354Y22351D01*
X8260Y22363D01*
X7740D01*
X7646Y22351D01*
X7558Y22314D01*
X7483Y22257D01*
X7426Y22182D01*
X7389Y22094D01*
X7377Y22000D01*
X7389Y21906D01*
X7426Y21818D01*
X7483Y21743D01*
X7558Y21686D01*
X7646Y21649D01*
X7740Y21637D01*
X8260D01*
X8354Y21649D01*
X8442Y21686D01*
X8517Y21743D01*
X8574Y21818D01*
X8586Y21847D01*
X9100D01*
X9159Y21859D01*
X9208Y21892D01*
X9608Y22292D01*
X9641Y22341D01*
X9653Y22400D01*
Y27437D01*
X11265Y29049D01*
X11302Y29034D01*
X11400Y29021D01*
X11498Y29034D01*
X11589Y29072D01*
X11668Y29132D01*
X11728Y29211D01*
X11766Y29302D01*
X11779Y29400D01*
X11766Y29498D01*
X11728Y29589D01*
X11668Y29668D01*
X11589Y29728D01*
X11498Y29766D01*
X11400Y29779D01*
D02*
G37*
G36*
X18690Y28850D02*
X18250D01*
Y28601D01*
X18397D01*
X18474Y28611D01*
X18547Y28641D01*
X18609Y28688D01*
X18656Y28750D01*
X18686Y28823D01*
X18690Y28850D01*
D02*
G37*
G36*
X18150D02*
X17710D01*
X17714Y28823D01*
X17744Y28750D01*
X17791Y28688D01*
X17853Y28641D01*
X17926Y28611D01*
X18003Y28601D01*
X18150D01*
Y28850D01*
D02*
G37*
G36*
X25856Y28200D02*
X25574D01*
Y27917D01*
X25611Y27922D01*
X25693Y27956D01*
X25763Y28010D01*
X25817Y28080D01*
X25851Y28162D01*
X25856Y28200D01*
D02*
G37*
G36*
X6030Y27923D02*
X3870D01*
X3811Y27911D01*
X3762Y27878D01*
X3565Y27681D01*
X3508Y27704D01*
X3450Y27712D01*
Y27350D01*
X3812D01*
X3804Y27408D01*
X3781Y27465D01*
X3933Y27617D01*
X5157D01*
X5182Y27567D01*
X5138Y27509D01*
X5096Y27408D01*
X5081Y27300D01*
X5096Y27192D01*
X5138Y27091D01*
X5204Y27004D01*
X5291Y26938D01*
X5392Y26896D01*
X5500Y26881D01*
X5608Y26896D01*
X5709Y26938D01*
X5796Y27004D01*
X5862Y27091D01*
X5904Y27192D01*
X5919Y27300D01*
X5904Y27408D01*
X5862Y27509D01*
X5818Y27567D01*
X5843Y27617D01*
X5967D01*
X6119Y27465D01*
X6096Y27408D01*
X6088Y27350D01*
X6450D01*
Y27712D01*
X6392Y27704D01*
X6335Y27681D01*
X6138Y27878D01*
X6089Y27911D01*
X6030Y27923D01*
D02*
G37*
G36*
X28524Y28089D02*
X28436Y28078D01*
X28354Y28044D01*
X28284Y27990D01*
X28230Y27920D01*
X28196Y27838D01*
X28184Y27750D01*
X28196Y27662D01*
X28230Y27580D01*
X28284Y27510D01*
X28354Y27456D01*
X28436Y27422D01*
X28524Y27411D01*
X28611Y27422D01*
X28693Y27456D01*
X28763Y27510D01*
X28817Y27580D01*
X28851Y27662D01*
X28863Y27750D01*
X28851Y27838D01*
X28817Y27920D01*
X28763Y27990D01*
X28693Y28044D01*
X28611Y28078D01*
X28524Y28089D01*
D02*
G37*
G36*
X6550Y27712D02*
Y27350D01*
X6912D01*
X6904Y27408D01*
X6862Y27509D01*
X6796Y27596D01*
X6709Y27662D01*
X6608Y27704D01*
X6550Y27712D01*
D02*
G37*
G36*
X3350D02*
X3292Y27704D01*
X3191Y27662D01*
X3104Y27596D01*
X3038Y27509D01*
X2996Y27408D01*
X2988Y27350D01*
X3350D01*
Y27712D01*
D02*
G37*
G36*
X6912Y27250D02*
X6550D01*
Y26888D01*
X6608Y26896D01*
X6709Y26938D01*
X6796Y27004D01*
X6862Y27091D01*
X6904Y27192D01*
X6912Y27250D01*
D02*
G37*
G36*
X3812D02*
X3450D01*
Y26888D01*
X3508Y26896D01*
X3609Y26938D01*
X3696Y27004D01*
X3762Y27091D01*
X3804Y27192D01*
X3812Y27250D01*
D02*
G37*
G36*
X6450D02*
X6088D01*
X6096Y27192D01*
X6138Y27091D01*
X6204Y27004D01*
X6291Y26938D01*
X6392Y26896D01*
X6450Y26888D01*
Y27250D01*
D02*
G37*
G36*
X3350D02*
X2988D01*
X2996Y27192D01*
X3038Y27091D01*
X3104Y27004D01*
X3191Y26938D01*
X3292Y26896D01*
X3350Y26888D01*
Y27250D01*
D02*
G37*
G36*
X2400Y27719D02*
X2292Y27704D01*
X2191Y27662D01*
X2104Y27596D01*
X2038Y27509D01*
X1996Y27408D01*
X1981Y27300D01*
X1996Y27192D01*
X2038Y27091D01*
X2104Y27004D01*
X2191Y26938D01*
X2292Y26896D01*
X2400Y26881D01*
X2508Y26896D01*
X2609Y26938D01*
X2696Y27004D01*
X2762Y27091D01*
X2804Y27192D01*
X2819Y27300D01*
X2804Y27408D01*
X2762Y27509D01*
X2696Y27596D01*
X2609Y27662D01*
X2508Y27704D01*
X2400Y27719D01*
D02*
G37*
G36*
X28574Y27083D02*
Y26800D01*
X28856D01*
X28851Y26838D01*
X28817Y26920D01*
X28763Y26990D01*
X28693Y27044D01*
X28611Y27078D01*
X28574Y27083D01*
D02*
G37*
G36*
X25474D02*
X25436Y27078D01*
X25354Y27044D01*
X25284Y26990D01*
X25230Y26920D01*
X25196Y26838D01*
X25191Y26800D01*
X25474D01*
Y27083D01*
D02*
G37*
G36*
X28856Y26700D02*
X28574D01*
Y26417D01*
X28611Y26422D01*
X28693Y26456D01*
X28763Y26510D01*
X28817Y26580D01*
X28851Y26662D01*
X28856Y26700D01*
D02*
G37*
G36*
X25474D02*
X25191D01*
X25196Y26662D01*
X25230Y26580D01*
X25284Y26510D01*
X25354Y26456D01*
X25436Y26422D01*
X25474Y26417D01*
Y26700D01*
D02*
G37*
G36*
X25574Y27083D02*
Y26750D01*
Y26417D01*
X25611Y26422D01*
X25693Y26456D01*
X25763Y26510D01*
X25817Y26580D01*
X25824Y26597D01*
X28223D01*
X28230Y26580D01*
X28284Y26510D01*
X28354Y26456D01*
X28436Y26422D01*
X28474Y26417D01*
Y26750D01*
Y27083D01*
X28436Y27078D01*
X28354Y27044D01*
X28284Y26990D01*
X28230Y26920D01*
X28223Y26903D01*
X25824D01*
X25817Y26920D01*
X25763Y26990D01*
X25693Y27044D01*
X25611Y27078D01*
X25574Y27083D01*
D02*
G37*
G36*
X24524Y27089D02*
X24436Y27078D01*
X24354Y27044D01*
X24284Y26990D01*
X24230Y26920D01*
X24196Y26838D01*
X24185Y26750D01*
X24196Y26662D01*
X24230Y26580D01*
X24284Y26510D01*
X24354Y26456D01*
X24436Y26422D01*
X24524Y26411D01*
X24611Y26422D01*
X24693Y26456D01*
X24763Y26510D01*
X24817Y26580D01*
X24851Y26662D01*
X24863Y26750D01*
X24851Y26838D01*
X24817Y26920D01*
X24763Y26990D01*
X24693Y27044D01*
X24611Y27078D01*
X24524Y27089D01*
D02*
G37*
G36*
X17400Y26083D02*
Y25800D01*
X17683D01*
X17678Y25838D01*
X17644Y25920D01*
X17590Y25990D01*
X17520Y26044D01*
X17438Y26078D01*
X17400Y26083D01*
D02*
G37*
G36*
X17683Y25700D02*
X17400D01*
Y25417D01*
X17438Y25422D01*
X17520Y25456D01*
X17590Y25510D01*
X17644Y25580D01*
X17678Y25662D01*
X17683Y25700D01*
D02*
G37*
G36*
X17300D02*
X17017D01*
X17022Y25662D01*
X17056Y25580D01*
X17110Y25510D01*
X17180Y25456D01*
X17262Y25422D01*
X17300Y25417D01*
Y25700D01*
D02*
G37*
G36*
X18350Y26089D02*
X18262Y26078D01*
X18180Y26044D01*
X18110Y25990D01*
X18056Y25920D01*
X18022Y25838D01*
X18011Y25750D01*
X18022Y25662D01*
X18056Y25580D01*
X18110Y25510D01*
X18180Y25456D01*
X18262Y25422D01*
X18350Y25411D01*
X18438Y25422D01*
X18520Y25456D01*
X18590Y25510D01*
X18644Y25580D01*
X18678Y25662D01*
X18689Y25750D01*
X18678Y25838D01*
X18644Y25920D01*
X18590Y25990D01*
X18520Y26044D01*
X18438Y26078D01*
X18350Y26089D01*
D02*
G37*
G36*
X14300Y25779D02*
X14202Y25766D01*
X14111Y25728D01*
X14032Y25668D01*
X13972Y25589D01*
X13934Y25498D01*
X13921Y25400D01*
X13934Y25302D01*
X13972Y25211D01*
X14032Y25132D01*
X14111Y25072D01*
X14202Y25034D01*
X14300Y25021D01*
X14398Y25034D01*
X14489Y25072D01*
X14568Y25132D01*
X14628Y25211D01*
X14666Y25302D01*
X14679Y25400D01*
X14666Y25498D01*
X14628Y25589D01*
X14568Y25668D01*
X14489Y25728D01*
X14398Y25766D01*
X14300Y25779D01*
D02*
G37*
G36*
X12850D02*
X12752Y25766D01*
X12661Y25728D01*
X12582Y25668D01*
X12522Y25589D01*
X12484Y25498D01*
X12471Y25400D01*
X12484Y25302D01*
X12522Y25211D01*
X12582Y25132D01*
X12661Y25072D01*
X12752Y25034D01*
X12850Y25021D01*
X12948Y25034D01*
X13039Y25072D01*
X13118Y25132D01*
X13178Y25211D01*
X13216Y25302D01*
X13229Y25400D01*
X13216Y25498D01*
X13178Y25589D01*
X13118Y25668D01*
X13039Y25728D01*
X12948Y25766D01*
X12850Y25779D01*
D02*
G37*
G36*
X11400D02*
X11302Y25766D01*
X11211Y25728D01*
X11132Y25668D01*
X11072Y25589D01*
X11034Y25498D01*
X11021Y25400D01*
X11034Y25302D01*
X11072Y25211D01*
X11132Y25132D01*
X11211Y25072D01*
X11302Y25034D01*
X11400Y25021D01*
X11498Y25034D01*
X11589Y25072D01*
X11668Y25132D01*
X11728Y25211D01*
X11766Y25302D01*
X11779Y25400D01*
X11766Y25498D01*
X11728Y25589D01*
X11668Y25668D01*
X11589Y25728D01*
X11498Y25766D01*
X11400Y25779D01*
D02*
G37*
G36*
X27837Y25129D02*
X27739Y25116D01*
X27647Y25078D01*
X27569Y25018D01*
X27509Y24939D01*
X27471Y24848D01*
X27458Y24750D01*
X27471Y24652D01*
X27509Y24561D01*
X27569Y24482D01*
X27647Y24422D01*
X27739Y24384D01*
X27837Y24371D01*
X27935Y24384D01*
X28026Y24422D01*
X28104Y24482D01*
X28165Y24561D01*
X28203Y24652D01*
X28215Y24750D01*
X28203Y24848D01*
X28165Y24939D01*
X28104Y25018D01*
X28026Y25078D01*
X27935Y25116D01*
X27837Y25129D01*
D02*
G37*
G36*
X23837D02*
X23739Y25116D01*
X23647Y25078D01*
X23569Y25018D01*
X23509Y24939D01*
X23471Y24848D01*
X23458Y24750D01*
X23471Y24652D01*
X23509Y24561D01*
X23569Y24482D01*
X23647Y24422D01*
X23739Y24384D01*
X23837Y24371D01*
X23935Y24384D01*
X24026Y24422D01*
X24104Y24482D01*
X24165Y24561D01*
X24203Y24652D01*
X24215Y24750D01*
X24203Y24848D01*
X24165Y24939D01*
X24104Y25018D01*
X24026Y25078D01*
X23935Y25116D01*
X23837Y25129D01*
D02*
G37*
G36*
X17200Y23672D02*
Y23350D01*
X17522D01*
X17516Y23398D01*
X17478Y23489D01*
X17418Y23568D01*
X17339Y23628D01*
X17248Y23666D01*
X17200Y23672D01*
D02*
G37*
G36*
X17100D02*
X17052Y23666D01*
X16961Y23628D01*
X16882Y23568D01*
X16822Y23489D01*
X16784Y23398D01*
X16778Y23350D01*
X17100D01*
Y23672D01*
D02*
G37*
G36*
X1450Y23592D02*
Y23250D01*
X1792D01*
X1785Y23303D01*
X1745Y23399D01*
X1682Y23482D01*
X1599Y23545D01*
X1503Y23585D01*
X1450Y23592D01*
D02*
G37*
G36*
X17522Y23250D02*
X17200D01*
Y22928D01*
X17248Y22934D01*
X17339Y22972D01*
X17418Y23032D01*
X17478Y23111D01*
X17516Y23202D01*
X17522Y23250D01*
D02*
G37*
G36*
X17100D02*
X16778D01*
X16784Y23202D01*
X16822Y23111D01*
X16882Y23032D01*
X16961Y22972D01*
X17052Y22934D01*
X17100Y22928D01*
Y23250D01*
D02*
G37*
G36*
X20450Y23679D02*
X20352Y23666D01*
X20261Y23628D01*
X20182Y23568D01*
X20122Y23489D01*
X20084Y23398D01*
X20071Y23300D01*
X20084Y23202D01*
X20122Y23111D01*
X20182Y23032D01*
X20261Y22972D01*
X20352Y22934D01*
X20450Y22921D01*
X20548Y22934D01*
X20639Y22972D01*
X20718Y23032D01*
X20778Y23111D01*
X20816Y23202D01*
X20829Y23300D01*
X20816Y23398D01*
X20778Y23489D01*
X20718Y23568D01*
X20639Y23628D01*
X20548Y23666D01*
X20450Y23679D01*
D02*
G37*
G36*
X1792Y23150D02*
X1450D01*
Y22808D01*
X1503Y22815D01*
X1599Y22855D01*
X1682Y22918D01*
X1745Y23001D01*
X1785Y23097D01*
X1792Y23150D01*
D02*
G37*
G36*
X2400Y23599D02*
X2297Y23585D01*
X2201Y23545D01*
X2118Y23482D01*
X2055Y23399D01*
X2015Y23303D01*
X2001Y23200D01*
X2015Y23097D01*
X2055Y23001D01*
X2118Y22918D01*
X2201Y22855D01*
X2297Y22815D01*
X2400Y22801D01*
X2503Y22815D01*
X2599Y22855D01*
X2682Y22918D01*
X2745Y23001D01*
X2785Y23097D01*
X2799Y23200D01*
X2785Y23303D01*
X2745Y23399D01*
X2682Y23482D01*
X2599Y23545D01*
X2503Y23585D01*
X2400Y23599D01*
D02*
G37*
G36*
X11260Y22363D02*
X10740D01*
X10646Y22351D01*
X10558Y22314D01*
X10483Y22257D01*
X10426Y22182D01*
X10389Y22094D01*
X10377Y22000D01*
X10389Y21906D01*
X10426Y21818D01*
X10483Y21743D01*
X10558Y21686D01*
X10646Y21649D01*
X10740Y21637D01*
X11260D01*
X11354Y21649D01*
X11442Y21686D01*
X11517Y21743D01*
X11574Y21818D01*
X11611Y21906D01*
X11623Y22000D01*
X11611Y22094D01*
X11574Y22182D01*
X11517Y22257D01*
X11442Y22314D01*
X11354Y22351D01*
X11260Y22363D01*
D02*
G37*
G36*
Y21363D02*
X10740D01*
X10646Y21351D01*
X10558Y21314D01*
X10483Y21257D01*
X10426Y21182D01*
X10389Y21094D01*
X10377Y21000D01*
X10389Y20906D01*
X10426Y20818D01*
X10483Y20743D01*
X10558Y20686D01*
X10646Y20649D01*
X10740Y20637D01*
X11260D01*
X11354Y20649D01*
X11442Y20686D01*
X11517Y20743D01*
X11574Y20818D01*
X11611Y20906D01*
X11623Y21000D01*
X11611Y21094D01*
X11574Y21182D01*
X11517Y21257D01*
X11442Y21314D01*
X11354Y21351D01*
X11260Y21363D01*
D02*
G37*
G36*
X28750Y21212D02*
X28647Y21198D01*
X28551Y21158D01*
X28468Y21095D01*
X28405Y21012D01*
X28365Y20916D01*
X28351Y20813D01*
X28365Y20710D01*
X28405Y20614D01*
X28468Y20531D01*
X28551Y20468D01*
X28647Y20428D01*
X28750Y20414D01*
X28853Y20428D01*
X28949Y20468D01*
X29032Y20531D01*
X29095Y20614D01*
X29135Y20710D01*
X29149Y20813D01*
X29135Y20916D01*
X29095Y21012D01*
X29032Y21095D01*
X28949Y21158D01*
X28853Y21198D01*
X28750Y21212D01*
D02*
G37*
G36*
X24892D02*
X24789Y21198D01*
X24692Y21158D01*
X24610Y21095D01*
X24546Y21012D01*
X24507Y20916D01*
X24493Y20813D01*
X24507Y20710D01*
X24546Y20614D01*
X24610Y20531D01*
X24692Y20468D01*
X24789Y20428D01*
X24892Y20414D01*
X24995Y20428D01*
X25091Y20468D01*
X25174Y20531D01*
X25237Y20614D01*
X25277Y20710D01*
X25290Y20813D01*
X25277Y20916D01*
X25237Y21012D01*
X25174Y21095D01*
X25091Y21158D01*
X24995Y21198D01*
X24892Y21212D01*
D02*
G37*
G36*
X3100Y20439D02*
X3012Y20428D01*
X2930Y20394D01*
X2860Y20340D01*
X2806Y20270D01*
X2772Y20188D01*
X2761Y20100D01*
X2772Y20012D01*
X2806Y19930D01*
X2860Y19860D01*
X2930Y19806D01*
X3012Y19772D01*
X3100Y19761D01*
X3188Y19772D01*
X3270Y19806D01*
X3340Y19860D01*
X3394Y19930D01*
X3428Y20012D01*
X3439Y20100D01*
X3428Y20188D01*
X3394Y20270D01*
X3340Y20340D01*
X3270Y20394D01*
X3188Y20428D01*
X3100Y20439D01*
D02*
G37*
G36*
X1400D02*
X1312Y20428D01*
X1230Y20394D01*
X1160Y20340D01*
X1106Y20270D01*
X1072Y20188D01*
X1061Y20100D01*
X1072Y20012D01*
X1106Y19930D01*
X1160Y19860D01*
X1230Y19806D01*
X1312Y19772D01*
X1400Y19761D01*
X1488Y19772D01*
X1570Y19806D01*
X1640Y19860D01*
X1694Y19930D01*
X1728Y20012D01*
X1739Y20100D01*
X1728Y20188D01*
X1694Y20270D01*
X1640Y20340D01*
X1570Y20394D01*
X1488Y20428D01*
X1400Y20439D01*
D02*
G37*
G36*
X11260Y20363D02*
X10740D01*
X10646Y20351D01*
X10558Y20314D01*
X10483Y20257D01*
X10426Y20182D01*
X10389Y20094D01*
X10377Y20000D01*
X10389Y19906D01*
X10426Y19818D01*
X10483Y19743D01*
X10558Y19686D01*
X10646Y19649D01*
X10740Y19637D01*
X11260D01*
X11354Y19649D01*
X11442Y19686D01*
X11517Y19743D01*
X11574Y19818D01*
X11611Y19906D01*
X11623Y20000D01*
X11611Y20094D01*
X11574Y20182D01*
X11517Y20257D01*
X11442Y20314D01*
X11354Y20351D01*
X11260Y20363D01*
D02*
G37*
G36*
X20450Y19679D02*
X20352Y19666D01*
X20261Y19628D01*
X20182Y19568D01*
X20122Y19489D01*
X20107Y19453D01*
X19193D01*
X19178Y19489D01*
X19118Y19568D01*
X19039Y19628D01*
X18948Y19666D01*
X18850Y19679D01*
X18752Y19666D01*
X18661Y19628D01*
X18582Y19568D01*
X18522Y19489D01*
X18507Y19453D01*
X17493D01*
X17478Y19489D01*
X17418Y19568D01*
X17339Y19628D01*
X17248Y19666D01*
X17150Y19679D01*
X17052Y19666D01*
X16961Y19628D01*
X16882Y19568D01*
X16822Y19489D01*
X16784Y19398D01*
X16771Y19300D01*
X16784Y19202D01*
X16822Y19111D01*
X16882Y19032D01*
X16961Y18972D01*
X17052Y18934D01*
X17150Y18921D01*
X17248Y18934D01*
X17339Y18972D01*
X17418Y19032D01*
X17478Y19111D01*
X17493Y19147D01*
X18507D01*
X18522Y19111D01*
X18582Y19032D01*
X18661Y18972D01*
X18752Y18934D01*
X18850Y18921D01*
X18948Y18934D01*
X19039Y18972D01*
X19118Y19032D01*
X19178Y19111D01*
X19193Y19147D01*
X20107D01*
X20122Y19111D01*
X20182Y19032D01*
X20261Y18972D01*
X20352Y18934D01*
X20450Y18921D01*
X20548Y18934D01*
X20639Y18972D01*
X20718Y19032D01*
X20778Y19111D01*
X20816Y19202D01*
X20829Y19300D01*
X20816Y19398D01*
X20778Y19489D01*
X20718Y19568D01*
X20639Y19628D01*
X20548Y19666D01*
X20450Y19679D01*
D02*
G37*
G36*
X28750Y19991D02*
X28647Y19978D01*
X28551Y19938D01*
X28468Y19874D01*
X28405Y19792D01*
X28365Y19696D01*
X28351Y19593D01*
X28365Y19489D01*
X28405Y19393D01*
X28468Y19311D01*
X28551Y19247D01*
X28647Y19207D01*
X28750Y19194D01*
X28853Y19207D01*
X28949Y19247D01*
X29032Y19311D01*
X29095Y19393D01*
X29135Y19489D01*
X29149Y19593D01*
X29135Y19696D01*
X29095Y19792D01*
X29032Y19874D01*
X28949Y19938D01*
X28853Y19978D01*
X28750Y19991D01*
D02*
G37*
G36*
X24892D02*
X24789Y19978D01*
X24692Y19938D01*
X24610Y19874D01*
X24546Y19792D01*
X24507Y19696D01*
X24493Y19593D01*
X24507Y19489D01*
X24546Y19393D01*
X24610Y19311D01*
X24692Y19247D01*
X24789Y19207D01*
X24892Y19194D01*
X24995Y19207D01*
X25091Y19247D01*
X25174Y19311D01*
X25237Y19393D01*
X25277Y19489D01*
X25290Y19593D01*
X25277Y19696D01*
X25237Y19792D01*
X25174Y19874D01*
X25091Y19938D01*
X24995Y19978D01*
X24892Y19991D01*
D02*
G37*
G36*
X4750Y19433D02*
Y19150D01*
X5033D01*
X5028Y19188D01*
X4994Y19270D01*
X4940Y19340D01*
X4870Y19394D01*
X4788Y19428D01*
X4750Y19433D01*
D02*
G37*
G36*
X1350D02*
X1312Y19428D01*
X1230Y19394D01*
X1160Y19340D01*
X1106Y19270D01*
X1072Y19188D01*
X1067Y19150D01*
X1350D01*
Y19433D01*
D02*
G37*
G36*
X22950Y19699D02*
X22847Y19685D01*
X22751Y19645D01*
X22668Y19582D01*
X22605Y19499D01*
X22565Y19403D01*
X22551Y19300D01*
X22565Y19197D01*
X22605Y19101D01*
X22668Y19018D01*
X22751Y18955D01*
X22847Y18915D01*
X22950Y18901D01*
X23053Y18915D01*
X23149Y18955D01*
X23232Y19018D01*
X23295Y19101D01*
X23335Y19197D01*
X23349Y19300D01*
X23335Y19403D01*
X23295Y19499D01*
X23232Y19582D01*
X23149Y19645D01*
X23053Y19685D01*
X22950Y19699D01*
D02*
G37*
G36*
X1450Y19433D02*
Y19100D01*
Y18767D01*
X1488Y18772D01*
X1570Y18806D01*
X1640Y18860D01*
X1694Y18930D01*
X1701Y18947D01*
X2799D01*
X2806Y18930D01*
X2860Y18860D01*
X2930Y18806D01*
X3012Y18772D01*
X3050Y18767D01*
Y19100D01*
Y19433D01*
X3012Y19428D01*
X2930Y19394D01*
X2860Y19340D01*
X2806Y19270D01*
X2799Y19253D01*
X1701D01*
X1694Y19270D01*
X1640Y19340D01*
X1570Y19394D01*
X1488Y19428D01*
X1450Y19433D01*
D02*
G37*
G36*
X1350Y19050D02*
X1067D01*
X1072Y19012D01*
X1106Y18930D01*
X1160Y18860D01*
X1230Y18806D01*
X1312Y18772D01*
X1350Y18767D01*
Y19050D01*
D02*
G37*
G36*
X20450Y18629D02*
X20352Y18616D01*
X20261Y18578D01*
X20182Y18518D01*
X20122Y18439D01*
X20107Y18403D01*
X19193D01*
X19178Y18439D01*
X19118Y18518D01*
X19039Y18578D01*
X18948Y18616D01*
X18850Y18629D01*
X18752Y18616D01*
X18661Y18578D01*
X18582Y18518D01*
X18522Y18439D01*
X18507Y18403D01*
X17493D01*
X17478Y18439D01*
X17418Y18518D01*
X17339Y18578D01*
X17248Y18616D01*
X17150Y18629D01*
X17052Y18616D01*
X16961Y18578D01*
X16882Y18518D01*
X16822Y18439D01*
X16784Y18348D01*
X16771Y18250D01*
X16784Y18152D01*
X16822Y18061D01*
X16882Y17982D01*
X16961Y17922D01*
X17052Y17884D01*
X17150Y17871D01*
X17248Y17884D01*
X17339Y17922D01*
X17418Y17982D01*
X17478Y18061D01*
X17493Y18097D01*
X18507D01*
X18522Y18061D01*
X18582Y17982D01*
X18661Y17922D01*
X18752Y17884D01*
X18850Y17871D01*
X18948Y17884D01*
X19039Y17922D01*
X19118Y17982D01*
X19178Y18061D01*
X19193Y18097D01*
X20107D01*
X20122Y18061D01*
X20182Y17982D01*
X20261Y17922D01*
X20352Y17884D01*
X20450Y17871D01*
X20548Y17884D01*
X20639Y17922D01*
X20718Y17982D01*
X20778Y18061D01*
X20816Y18152D01*
X20829Y18250D01*
X20816Y18348D01*
X20778Y18439D01*
X20718Y18518D01*
X20639Y18578D01*
X20548Y18616D01*
X20450Y18629D01*
D02*
G37*
G36*
X28750Y18771D02*
X28647Y18757D01*
X28551Y18717D01*
X28468Y18654D01*
X28405Y18571D01*
X28365Y18475D01*
X28351Y18372D01*
X28365Y18269D01*
X28405Y18173D01*
X28468Y18090D01*
X28551Y18027D01*
X28647Y17987D01*
X28750Y17973D01*
X28853Y17987D01*
X28949Y18027D01*
X29032Y18090D01*
X29095Y18173D01*
X29135Y18269D01*
X29149Y18372D01*
X29135Y18475D01*
X29095Y18571D01*
X29032Y18654D01*
X28949Y18717D01*
X28853Y18757D01*
X28750Y18771D01*
D02*
G37*
G36*
X24892D02*
X24789Y18757D01*
X24692Y18717D01*
X24610Y18654D01*
X24546Y18571D01*
X24507Y18475D01*
X24493Y18372D01*
X24507Y18269D01*
X24546Y18173D01*
X24610Y18090D01*
X24692Y18027D01*
X24789Y17987D01*
X24892Y17973D01*
X24995Y17987D01*
X25091Y18027D01*
X25174Y18090D01*
X25237Y18173D01*
X25277Y18269D01*
X25290Y18372D01*
X25277Y18475D01*
X25237Y18571D01*
X25174Y18654D01*
X25091Y18717D01*
X24995Y18757D01*
X24892Y18771D01*
D02*
G37*
G36*
X23345Y18695D02*
X22555D01*
Y17905D01*
X23345D01*
Y18695D01*
D02*
G37*
G36*
X6200Y17753D02*
X6109Y17741D01*
X6023Y17706D01*
X5950Y17650D01*
X5894Y17577D01*
X5859Y17491D01*
X5847Y17400D01*
X5859Y17309D01*
X5869Y17285D01*
X3544Y14961D01*
X3535Y14970D01*
X3065D01*
X2830Y14735D01*
Y14265D01*
X3065Y14030D01*
X3535D01*
X3770Y14265D01*
Y14735D01*
X3761Y14744D01*
X6085Y17069D01*
X6109Y17059D01*
X6200Y17047D01*
X6291Y17059D01*
X6377Y17094D01*
X6450Y17150D01*
X6506Y17223D01*
X6541Y17309D01*
X6553Y17400D01*
X6541Y17491D01*
X6506Y17577D01*
X6450Y17650D01*
X6377Y17706D01*
X6291Y17741D01*
X6200Y17753D01*
D02*
G37*
G36*
X3150Y19433D02*
Y19100D01*
Y18767D01*
X3188Y18772D01*
X3270Y18806D01*
X3340Y18860D01*
X3394Y18930D01*
X3401Y18947D01*
X4399D01*
X4406Y18930D01*
X4460Y18860D01*
X4530Y18806D01*
X4547Y18799D01*
Y16963D01*
X3544Y15961D01*
X3535Y15970D01*
X3350D01*
Y15550D01*
X3770D01*
Y15735D01*
X3761Y15744D01*
X4808Y16792D01*
X4841Y16841D01*
X4853Y16900D01*
Y18799D01*
X4870Y18806D01*
X4940Y18860D01*
X4994Y18930D01*
X5028Y19012D01*
X5033Y19050D01*
X4700D01*
Y19100D01*
X4650D01*
Y19433D01*
X4612Y19428D01*
X4530Y19394D01*
X4460Y19340D01*
X4406Y19270D01*
X4399Y19253D01*
X3401D01*
X3394Y19270D01*
X3340Y19340D01*
X3270Y19394D01*
X3188Y19428D01*
X3150Y19433D01*
D02*
G37*
G36*
X3250Y15970D02*
X3065D01*
X2830Y15735D01*
Y15550D01*
X3250D01*
Y15970D01*
D02*
G37*
G36*
X3770Y15450D02*
X3350D01*
Y15030D01*
X3535D01*
X3770Y15265D01*
Y15450D01*
D02*
G37*
G36*
X3250D02*
X2830D01*
Y15265D01*
X3065Y15030D01*
X3250D01*
Y15450D01*
D02*
G37*
G36*
X27763Y14872D02*
X27715Y14866D01*
X27624Y14828D01*
X27545Y14768D01*
X27485Y14689D01*
X27447Y14598D01*
X27441Y14550D01*
X27763D01*
Y14872D01*
D02*
G37*
G36*
X17200Y14622D02*
Y14300D01*
X17522D01*
X17516Y14348D01*
X17478Y14439D01*
X17418Y14518D01*
X17339Y14578D01*
X17248Y14616D01*
X17200Y14622D01*
D02*
G37*
G36*
X17100D02*
X17052Y14616D01*
X16961Y14578D01*
X16882Y14518D01*
X16822Y14439D01*
X16784Y14348D01*
X16778Y14300D01*
X17100D01*
Y14622D01*
D02*
G37*
G36*
X17522Y14200D02*
X17200D01*
Y13878D01*
X17248Y13884D01*
X17339Y13922D01*
X17418Y13982D01*
X17478Y14061D01*
X17516Y14152D01*
X17522Y14200D01*
D02*
G37*
G36*
X20450Y14629D02*
X20352Y14616D01*
X20261Y14578D01*
X20182Y14518D01*
X20122Y14439D01*
X20084Y14348D01*
X20071Y14250D01*
X20084Y14152D01*
X20122Y14061D01*
X20182Y13982D01*
X20261Y13922D01*
X20352Y13884D01*
X20450Y13871D01*
X20548Y13884D01*
X20639Y13922D01*
X20718Y13982D01*
X20778Y14061D01*
X20816Y14152D01*
X20829Y14250D01*
X20816Y14348D01*
X20778Y14439D01*
X20718Y14518D01*
X20639Y14578D01*
X20548Y14616D01*
X20450Y14629D01*
D02*
G37*
G36*
X17300Y12083D02*
X17262Y12078D01*
X17180Y12044D01*
X17110Y11990D01*
X17056Y11920D01*
X17022Y11838D01*
X17017Y11800D01*
X17300D01*
Y12083D01*
D02*
G37*
G36*
X8617Y11950D02*
X8050D01*
Y11637D01*
X8260D01*
X8354Y11649D01*
X8442Y11686D01*
X8517Y11743D01*
X8574Y11818D01*
X8611Y11906D01*
X8617Y11950D01*
D02*
G37*
G36*
X7950D02*
X7383D01*
X7389Y11906D01*
X7426Y11818D01*
X7483Y11743D01*
X7558Y11686D01*
X7646Y11649D01*
X7740Y11637D01*
X7950D01*
Y11950D01*
D02*
G37*
G36*
X17683Y11700D02*
X17400D01*
Y11417D01*
X17438Y11422D01*
X17520Y11456D01*
X17590Y11510D01*
X17644Y11580D01*
X17678Y11662D01*
X17683Y11700D01*
D02*
G37*
G36*
X17300D02*
X17017D01*
X17022Y11662D01*
X17029Y11646D01*
X15537Y10153D01*
X13551D01*
X13544Y10170D01*
X13490Y10240D01*
X13420Y10294D01*
X13338Y10328D01*
X13300Y10333D01*
Y10000D01*
Y9667D01*
X13338Y9672D01*
X13420Y9706D01*
X13490Y9760D01*
X13544Y9830D01*
X13551Y9847D01*
X15600D01*
X15659Y9859D01*
X15708Y9892D01*
X17246Y11429D01*
X17262Y11422D01*
X17300Y11417D01*
Y11700D01*
D02*
G37*
G36*
X18350Y12089D02*
X18262Y12078D01*
X18180Y12044D01*
X18110Y11990D01*
X18056Y11920D01*
X18022Y11838D01*
X18011Y11750D01*
X18022Y11662D01*
X18056Y11580D01*
X18110Y11510D01*
X18180Y11456D01*
X18262Y11422D01*
X18350Y11411D01*
X18438Y11422D01*
X18520Y11456D01*
X18590Y11510D01*
X18644Y11580D01*
X18678Y11662D01*
X18689Y11750D01*
X18678Y11838D01*
X18644Y11920D01*
X18590Y11990D01*
X18520Y12044D01*
X18438Y12078D01*
X18350Y12089D01*
D02*
G37*
G36*
X3250Y11692D02*
Y11350D01*
X3592D01*
X3585Y11403D01*
X3545Y11499D01*
X3482Y11582D01*
X3399Y11645D01*
X3303Y11685D01*
X3250Y11692D01*
D02*
G37*
G36*
X1450D02*
X1397Y11685D01*
X1301Y11645D01*
X1218Y11582D01*
X1155Y11499D01*
X1115Y11403D01*
X1108Y11350D01*
X1450D01*
Y11692D01*
D02*
G37*
G36*
X8260Y11363D02*
X8050D01*
Y11050D01*
X8617D01*
X8611Y11094D01*
X8574Y11182D01*
X8517Y11257D01*
X8442Y11314D01*
X8354Y11351D01*
X8260Y11363D01*
D02*
G37*
G36*
X7950D02*
X7740D01*
X7646Y11351D01*
X7558Y11314D01*
X7483Y11257D01*
X7426Y11182D01*
X7389Y11094D01*
X7383Y11050D01*
X7950D01*
Y11363D01*
D02*
G37*
G36*
X1450Y11250D02*
X1108D01*
X1115Y11197D01*
X1155Y11101D01*
X1218Y11018D01*
X1301Y10955D01*
X1397Y10915D01*
X1450Y10908D01*
Y11250D01*
D02*
G37*
G36*
X13250Y11339D02*
X13162Y11328D01*
X13080Y11294D01*
X13010Y11240D01*
X12956Y11170D01*
X12922Y11088D01*
X12911Y11000D01*
X12922Y10912D01*
X12956Y10830D01*
X13010Y10760D01*
X13080Y10706D01*
X13162Y10672D01*
X13250Y10661D01*
X13338Y10672D01*
X13420Y10706D01*
X13490Y10760D01*
X13544Y10830D01*
X13578Y10912D01*
X13589Y11000D01*
X13578Y11088D01*
X13544Y11170D01*
X13490Y11240D01*
X13420Y11294D01*
X13338Y11328D01*
X13250Y11339D01*
D02*
G37*
G36*
X25787Y10833D02*
X25749Y10828D01*
X25667Y10794D01*
X25597Y10740D01*
X25543Y10670D01*
X25509Y10588D01*
X25504Y10550D01*
X25787D01*
Y10833D01*
D02*
G37*
G36*
Y10450D02*
X25504D01*
X25509Y10412D01*
X25543Y10330D01*
X25597Y10260D01*
X25667Y10206D01*
X25749Y10172D01*
X25787Y10167D01*
Y10450D01*
D02*
G37*
G36*
X25887Y10833D02*
Y10500D01*
Y10167D01*
X25924Y10172D01*
X26006Y10206D01*
X26076Y10260D01*
X26130Y10330D01*
X26137Y10347D01*
X28223D01*
X28230Y10330D01*
X28284Y10260D01*
X28354Y10206D01*
X28436Y10172D01*
X28474Y10167D01*
Y10500D01*
Y10833D01*
X28436Y10828D01*
X28354Y10794D01*
X28284Y10740D01*
X28230Y10670D01*
X28223Y10653D01*
X26137D01*
X26130Y10670D01*
X26076Y10740D01*
X26006Y10794D01*
X25924Y10828D01*
X25887Y10833D01*
D02*
G37*
G36*
X24837Y10839D02*
X24749Y10828D01*
X24667Y10794D01*
X24597Y10740D01*
X24543Y10670D01*
X24509Y10588D01*
X24497Y10500D01*
X24509Y10412D01*
X24543Y10330D01*
X24597Y10260D01*
X24667Y10206D01*
X24749Y10172D01*
X24837Y10161D01*
X24924Y10172D01*
X25006Y10206D01*
X25076Y10260D01*
X25130Y10330D01*
X25164Y10412D01*
X25176Y10500D01*
X25164Y10588D01*
X25130Y10670D01*
X25076Y10740D01*
X25006Y10794D01*
X24924Y10828D01*
X24837Y10839D01*
D02*
G37*
G36*
X7950Y9950D02*
X7383D01*
X7389Y9906D01*
X7426Y9818D01*
X7483Y9743D01*
X7558Y9686D01*
X7646Y9649D01*
X7740Y9637D01*
X7950D01*
Y9950D01*
D02*
G37*
G36*
X11260Y9363D02*
X11050D01*
Y9050D01*
X11617D01*
X11611Y9094D01*
X11574Y9182D01*
X11517Y9257D01*
X11442Y9314D01*
X11354Y9351D01*
X11260Y9363D01*
D02*
G37*
G36*
X10950D02*
X10740D01*
X10646Y9351D01*
X10558Y9314D01*
X10483Y9257D01*
X10426Y9182D01*
X10389Y9094D01*
X10383Y9050D01*
X10950D01*
Y9363D01*
D02*
G37*
G36*
X11617Y8950D02*
X11050D01*
Y8637D01*
X11260D01*
X11354Y8649D01*
X11442Y8686D01*
X11517Y8743D01*
X11574Y8818D01*
X11611Y8906D01*
X11617Y8950D01*
D02*
G37*
G36*
X10950D02*
X10383D01*
X10389Y8906D01*
X10426Y8818D01*
X10483Y8743D01*
X10558Y8686D01*
X10646Y8649D01*
X10740Y8637D01*
X10950D01*
Y8950D01*
D02*
G37*
G36*
X8260Y9363D02*
X7740D01*
X7646Y9351D01*
X7558Y9314D01*
X7483Y9257D01*
X7426Y9182D01*
X7389Y9094D01*
X7377Y9000D01*
X7389Y8906D01*
X7426Y8818D01*
X7483Y8743D01*
X7558Y8686D01*
X7646Y8649D01*
X7740Y8637D01*
X8260D01*
X8354Y8649D01*
X8442Y8686D01*
X8517Y8743D01*
X8574Y8818D01*
X8611Y8906D01*
X8623Y9000D01*
X8611Y9094D01*
X8574Y9182D01*
X8517Y9257D01*
X8442Y9314D01*
X8354Y9351D01*
X8260Y9363D01*
D02*
G37*
G36*
X24774Y8545D02*
X24676Y8532D01*
X24584Y8494D01*
X24506Y8434D01*
X24446Y8356D01*
X24408Y8264D01*
X24395Y8166D01*
X24408Y8068D01*
X24446Y7977D01*
X24506Y7898D01*
X24584Y7838D01*
X24676Y7800D01*
X24774Y7787D01*
X24872Y7800D01*
X24963Y7838D01*
X25041Y7898D01*
X25102Y7977D01*
X25140Y8068D01*
X25152Y8166D01*
X25140Y8264D01*
X25102Y8356D01*
X25041Y8434D01*
X24963Y8494D01*
X24872Y8532D01*
X24774Y8545D01*
D02*
G37*
G36*
X22216Y5690D02*
X21920D01*
Y5394D01*
X21961Y5399D01*
X22047Y5434D01*
X22120Y5490D01*
X22176Y5563D01*
X22211Y5649D01*
X22216Y5690D01*
D02*
G37*
G36*
X28856Y10450D02*
X28574D01*
Y10167D01*
X28611Y10172D01*
X28628Y10179D01*
X29047Y9760D01*
Y8493D01*
X28997Y8468D01*
X28963Y8494D01*
X28872Y8532D01*
X28774Y8545D01*
X28676Y8532D01*
X28584Y8494D01*
X28506Y8434D01*
X28446Y8356D01*
X28408Y8264D01*
X28395Y8166D01*
X28408Y8068D01*
X28446Y7977D01*
X28506Y7898D01*
X28584Y7838D01*
X28676Y7800D01*
X28774Y7787D01*
X28872Y7800D01*
X28963Y7838D01*
X28997Y7864D01*
X29047Y7840D01*
Y6058D01*
X29041Y6053D01*
X28997Y6039D01*
X28918Y6118D01*
X28869Y6151D01*
X28810Y6163D01*
X22140D01*
X22081Y6151D01*
X22032Y6118D01*
X21985Y6071D01*
X21961Y6081D01*
X21920Y6086D01*
Y5790D01*
X22216D01*
X22214Y5807D01*
X22246Y5852D01*
X22254Y5857D01*
X22500D01*
X22521Y5807D01*
X21547Y4833D01*
X20765D01*
X20756Y4857D01*
X20700Y4930D01*
X20627Y4986D01*
X20541Y5021D01*
X20450Y5033D01*
X20359Y5021D01*
X20273Y4986D01*
X20200Y4930D01*
X20183Y4907D01*
X20133Y4924D01*
Y6400D01*
X20121Y6459D01*
X20088Y6508D01*
X19878Y6718D01*
X19829Y6751D01*
X19770Y6763D01*
X18693D01*
X16868Y8588D01*
X16878Y8627D01*
X16928Y8646D01*
X16943Y8634D01*
X17029Y8599D01*
X17120Y8587D01*
X17211Y8599D01*
X17297Y8634D01*
X17370Y8690D01*
X17426Y8763D01*
X17435Y8787D01*
X17967D01*
X20869Y5885D01*
X20859Y5861D01*
X20847Y5770D01*
X20859Y5679D01*
X20894Y5593D01*
X20950Y5520D01*
X21023Y5464D01*
X21109Y5429D01*
X21200Y5417D01*
X21291Y5429D01*
X21377Y5464D01*
X21450Y5520D01*
X21501Y5587D01*
X21529Y5589D01*
X21556Y5584D01*
X21564Y5563D01*
X21620Y5490D01*
X21693Y5434D01*
X21779Y5399D01*
X21820Y5394D01*
Y5740D01*
Y6086D01*
X21779Y6081D01*
X21693Y6046D01*
X21620Y5990D01*
X21569Y5923D01*
X21541Y5921D01*
X21514Y5926D01*
X21506Y5947D01*
X21450Y6020D01*
X21377Y6076D01*
X21291Y6111D01*
X21200Y6123D01*
X21109Y6111D01*
X21085Y6101D01*
X18138Y9048D01*
X18089Y9081D01*
X18030Y9093D01*
X17435D01*
X17426Y9117D01*
X17370Y9190D01*
X17297Y9246D01*
X17211Y9281D01*
X17120Y9293D01*
X17029Y9281D01*
X16943Y9246D01*
X16870Y9190D01*
X16814Y9117D01*
X16779Y9031D01*
X16778Y9026D01*
X16725Y9004D01*
X16697Y9026D01*
X16611Y9061D01*
X16520Y9073D01*
X16429Y9061D01*
X16343Y9026D01*
X16270Y8970D01*
X16214Y8897D01*
X16179Y8811D01*
X16167Y8720D01*
X16179Y8629D01*
X16214Y8543D01*
X16270Y8470D01*
X16343Y8414D01*
X16429Y8379D01*
X16520Y8367D01*
X16611Y8379D01*
X16635Y8389D01*
X18521Y6503D01*
X18521Y6498D01*
X18505Y6453D01*
X13443D01*
X12261Y7635D01*
X12271Y7659D01*
X12283Y7750D01*
X12271Y7841D01*
X12236Y7927D01*
X12180Y8000D01*
X12107Y8056D01*
X12021Y8091D01*
X11930Y8103D01*
X11839Y8091D01*
X11753Y8056D01*
X11680Y8000D01*
X11624Y7927D01*
X11589Y7841D01*
X11577Y7750D01*
X11589Y7659D01*
X11624Y7573D01*
X11680Y7500D01*
X11753Y7444D01*
X11839Y7409D01*
X11930Y7397D01*
X12021Y7409D01*
X12045Y7419D01*
X13165Y6299D01*
X13145Y6253D01*
X7950D01*
X7892Y6241D01*
X7842Y6208D01*
X7392Y5758D01*
X7359Y5708D01*
X7347Y5650D01*
Y5614D01*
X7301Y5595D01*
X7218Y5532D01*
X7155Y5449D01*
X7115Y5353D01*
X7101Y5250D01*
X7115Y5147D01*
X7155Y5051D01*
X7218Y4968D01*
X7238Y4953D01*
X7221Y4903D01*
X7200D01*
X7141Y4891D01*
X7092Y4858D01*
X6942Y4708D01*
X6909Y4659D01*
X6897Y4600D01*
Y3700D01*
X6909Y3641D01*
X6942Y3592D01*
X7134Y3400D01*
X7115Y3353D01*
X7101Y3250D01*
X7115Y3147D01*
X7155Y3051D01*
X7218Y2968D01*
X7301Y2905D01*
X7397Y2865D01*
X7500Y2851D01*
X7603Y2865D01*
X7699Y2905D01*
X7782Y2968D01*
X7845Y3051D01*
X7847Y3055D01*
X7897Y3045D01*
Y2455D01*
X7847Y2445D01*
X7845Y2449D01*
X7782Y2532D01*
X7699Y2595D01*
X7603Y2635D01*
X7500Y2649D01*
X7397Y2635D01*
X7301Y2595D01*
X7218Y2532D01*
X7155Y2449D01*
X7115Y2353D01*
X7101Y2250D01*
X7115Y2147D01*
X7155Y2051D01*
X7218Y1968D01*
X7301Y1905D01*
X7397Y1865D01*
X7500Y1851D01*
X7603Y1865D01*
X7699Y1905D01*
X7782Y1968D01*
X7845Y2051D01*
X7847Y2055D01*
X7897Y2045D01*
Y1800D01*
X7909Y1741D01*
X7942Y1692D01*
X8372Y1262D01*
X8421Y1229D01*
X8480Y1217D01*
X19285D01*
X19295Y1193D01*
X19351Y1120D01*
X19424Y1064D01*
X19509Y1029D01*
X19601Y1017D01*
X19692Y1029D01*
X19777Y1064D01*
X19850Y1120D01*
X19906Y1193D01*
X19942Y1279D01*
X19954Y1370D01*
X19942Y1461D01*
X19906Y1547D01*
X19850Y1620D01*
X19777Y1676D01*
X19692Y1711D01*
X19601Y1723D01*
X19509Y1711D01*
X19424Y1676D01*
X19351Y1620D01*
X19295Y1547D01*
X19285Y1523D01*
X8543D01*
X8258Y1809D01*
X8277Y1855D01*
X8895D01*
Y2429D01*
X9013Y2547D01*
X9750D01*
X9775Y2497D01*
X9738Y2449D01*
X9698Y2353D01*
X9685Y2250D01*
X9698Y2147D01*
X9738Y2051D01*
X9801Y1968D01*
X9884Y1905D01*
X9980Y1865D01*
X10083Y1851D01*
X10187Y1865D01*
X10283Y1905D01*
X10365Y1968D01*
X10429Y2051D01*
X10468Y2147D01*
X10482Y2250D01*
X10468Y2353D01*
X10429Y2449D01*
X10392Y2497D01*
X10417Y2547D01*
X10570D01*
X10688Y2429D01*
Y1855D01*
X11479D01*
Y2645D01*
X10904D01*
X10741Y2808D01*
X10692Y2841D01*
X10633Y2853D01*
X10288D01*
X10278Y2903D01*
X10283Y2905D01*
X10365Y2968D01*
X10429Y3051D01*
X10468Y3147D01*
X10482Y3250D01*
X10468Y3353D01*
X10449Y3400D01*
X10688Y3639D01*
X10721Y3688D01*
X10733Y3747D01*
Y3975D01*
X10783Y3992D01*
X10801Y3968D01*
X10884Y3905D01*
X10980Y3865D01*
X11083Y3851D01*
X11187Y3865D01*
X11283Y3905D01*
X11365Y3968D01*
X11429Y4051D01*
X11468Y4147D01*
X11482Y4250D01*
X11468Y4353D01*
X11429Y4449D01*
X11392Y4497D01*
X11417Y4547D01*
X12333D01*
X12358Y4497D01*
X12321Y4449D01*
X12282Y4353D01*
X12268Y4250D01*
X12282Y4147D01*
X12321Y4051D01*
X12385Y3968D01*
X12467Y3905D01*
X12472Y3903D01*
X12462Y3853D01*
X11533D01*
X11475Y3841D01*
X11425Y3808D01*
X11233Y3616D01*
X11187Y3635D01*
X11083Y3649D01*
X10980Y3635D01*
X10884Y3595D01*
X10801Y3532D01*
X10738Y3449D01*
X10698Y3353D01*
X10685Y3250D01*
X10698Y3147D01*
X10738Y3051D01*
X10801Y2968D01*
X10884Y2905D01*
X10980Y2865D01*
X11083Y2851D01*
X11187Y2865D01*
X11283Y2905D01*
X11365Y2968D01*
X11429Y3051D01*
X11468Y3147D01*
X11482Y3250D01*
X11468Y3353D01*
X11449Y3400D01*
X11597Y3547D01*
X12333D01*
X12358Y3497D01*
X12321Y3449D01*
X12282Y3353D01*
X12268Y3250D01*
X12282Y3147D01*
X12321Y3051D01*
X12385Y2968D01*
X12467Y2905D01*
X12563Y2865D01*
X12667Y2851D01*
X12770Y2865D01*
X12816Y2884D01*
X13067Y2633D01*
Y2447D01*
X13017Y2437D01*
X13012Y2449D01*
X12949Y2532D01*
X12866Y2595D01*
X12770Y2635D01*
X12667Y2649D01*
X12563Y2635D01*
X12467Y2595D01*
X12385Y2532D01*
X12321Y2449D01*
X12282Y2353D01*
X12268Y2250D01*
X12282Y2147D01*
X12321Y2051D01*
X12385Y1968D01*
X12467Y1905D01*
X12563Y1865D01*
X12667Y1851D01*
X12770Y1865D01*
X12866Y1905D01*
X12949Y1968D01*
X13012Y2051D01*
X13017Y2063D01*
X13067Y2053D01*
Y1800D01*
X13079Y1741D01*
X13112Y1692D01*
X13161Y1659D01*
X13220Y1647D01*
X17080D01*
X17095Y1650D01*
X17155Y1625D01*
X17246Y1613D01*
X17338Y1625D01*
X17423Y1660D01*
X17496Y1717D01*
X17552Y1790D01*
X17587Y1875D01*
X17599Y1966D01*
X17587Y2058D01*
X17552Y2143D01*
X17496Y2216D01*
X17423Y2272D01*
X17338Y2307D01*
X17246Y2319D01*
X17155Y2307D01*
X17070Y2272D01*
X16997Y2216D01*
X16940Y2143D01*
X16905Y2058D01*
X16893Y1966D01*
X16882Y1953D01*
X16645D01*
Y2617D01*
X17920D01*
X17979Y2629D01*
X17998Y2642D01*
X18029Y2629D01*
X18120Y2617D01*
X18211Y2629D01*
X18297Y2664D01*
X18370Y2720D01*
X18426Y2793D01*
X18461Y2879D01*
X18473Y2970D01*
X18461Y3061D01*
X18426Y3147D01*
X18406Y3172D01*
X18428Y3217D01*
X19287D01*
X19432Y3072D01*
X19481Y3039D01*
X19540Y3027D01*
X22924D01*
X22983Y3039D01*
X23032Y3072D01*
X23600Y3640D01*
X23647Y3621D01*
X23750Y3607D01*
X23853Y3621D01*
X23949Y3661D01*
X23997Y3697D01*
X24047Y3673D01*
Y3339D01*
X23997Y3315D01*
X23949Y3351D01*
X23853Y3391D01*
X23750Y3405D01*
X23647Y3391D01*
X23551Y3351D01*
X23468Y3288D01*
X23405Y3205D01*
X23365Y3109D01*
X23351Y3006D01*
X23365Y2903D01*
X23405Y2807D01*
X23468Y2724D01*
X23551Y2661D01*
X23647Y2621D01*
X23750Y2607D01*
X23853Y2621D01*
X23949Y2661D01*
X23997Y2697D01*
X24047Y2673D01*
Y2519D01*
X23900Y2372D01*
X23853Y2391D01*
X23750Y2405D01*
X23647Y2391D01*
X23551Y2351D01*
X23468Y2288D01*
X23405Y2205D01*
X23365Y2109D01*
X23351Y2006D01*
X23365Y1903D01*
X23405Y1807D01*
X23468Y1724D01*
X23551Y1661D01*
X23647Y1621D01*
X23750Y1607D01*
X23853Y1621D01*
X23949Y1661D01*
X24032Y1724D01*
X24095Y1807D01*
X24135Y1903D01*
X24149Y2006D01*
X24135Y2109D01*
X24116Y2155D01*
X24308Y2348D01*
X24341Y2397D01*
X24353Y2456D01*
Y2801D01*
X24403Y2811D01*
X24405Y2807D01*
X24468Y2724D01*
X24551Y2661D01*
X24647Y2621D01*
X24750Y2607D01*
X24853Y2621D01*
X24949Y2661D01*
X25032Y2724D01*
X25095Y2807D01*
X25135Y2903D01*
X25149Y3006D01*
X25135Y3109D01*
X25095Y3205D01*
X25032Y3288D01*
X24949Y3351D01*
X24853Y3391D01*
X24750Y3405D01*
X24647Y3391D01*
X24551Y3351D01*
X24468Y3288D01*
X24405Y3205D01*
X24403Y3201D01*
X24353Y3211D01*
Y3801D01*
X24403Y3811D01*
X24405Y3807D01*
X24468Y3724D01*
X24551Y3661D01*
X24647Y3621D01*
X24750Y3607D01*
X24853Y3621D01*
X24949Y3661D01*
X25032Y3724D01*
X25095Y3807D01*
X25135Y3903D01*
X25149Y4006D01*
X25135Y4109D01*
X25095Y4205D01*
X25032Y4288D01*
X24949Y4351D01*
X24853Y4391D01*
X24750Y4405D01*
X24647Y4391D01*
X24551Y4351D01*
X24468Y4288D01*
X24405Y4205D01*
X24403Y4201D01*
X24353Y4211D01*
Y4310D01*
X24341Y4369D01*
X24308Y4418D01*
X24161Y4565D01*
X24145Y4611D01*
X24145D01*
X24145Y4611D01*
Y5307D01*
X24420D01*
X24444Y5257D01*
X24405Y5205D01*
X24365Y5109D01*
X24351Y5006D01*
X24365Y4903D01*
X24405Y4807D01*
X24468Y4724D01*
X24551Y4661D01*
X24647Y4621D01*
X24750Y4607D01*
X24853Y4621D01*
X24949Y4661D01*
X25032Y4724D01*
X25095Y4807D01*
X25135Y4903D01*
X25149Y5006D01*
X25135Y5109D01*
X25095Y5205D01*
X25056Y5257D01*
X25080Y5307D01*
X26105D01*
Y4611D01*
X26895D01*
Y5307D01*
X27733D01*
X27855Y5185D01*
Y4611D01*
X28547D01*
Y4339D01*
X28497Y4315D01*
X28449Y4351D01*
X28353Y4391D01*
X28250Y4405D01*
X28147Y4391D01*
X28051Y4351D01*
X27968Y4288D01*
X27905Y4205D01*
X27865Y4109D01*
X27851Y4006D01*
X27865Y3903D01*
X27905Y3807D01*
X27968Y3724D01*
X28051Y3661D01*
X28147Y3621D01*
X28250Y3607D01*
X28353Y3621D01*
X28449Y3661D01*
X28497Y3697D01*
X28547Y3673D01*
Y3519D01*
X28400Y3372D01*
X28353Y3391D01*
X28250Y3405D01*
X28147Y3391D01*
X28051Y3351D01*
X27968Y3288D01*
X27905Y3205D01*
X27865Y3109D01*
X27851Y3006D01*
X27865Y2903D01*
X27905Y2807D01*
X27968Y2724D01*
X28051Y2661D01*
X28147Y2621D01*
X28250Y2607D01*
X28353Y2621D01*
X28449Y2661D01*
X28532Y2724D01*
X28595Y2807D01*
X28635Y2903D01*
X28649Y3006D01*
X28635Y3109D01*
X28616Y3155D01*
X28701Y3240D01*
X28747Y3221D01*
Y2719D01*
X28400Y2372D01*
X28353Y2391D01*
X28300Y2398D01*
Y2056D01*
X28642D01*
X28635Y2109D01*
X28616Y2155D01*
X29008Y2548D01*
X29308Y2848D01*
X29341Y2897D01*
X29353Y2956D01*
Y9824D01*
X29341Y9882D01*
X29308Y9932D01*
X28844Y10396D01*
X28851Y10412D01*
X28856Y10450D01*
D02*
G37*
G36*
X26500Y4405D02*
X26397Y4391D01*
X26301Y4351D01*
X26218Y4288D01*
X26155Y4205D01*
X26115Y4109D01*
X26101Y4006D01*
X26115Y3903D01*
X26155Y3807D01*
X26218Y3724D01*
X26301Y3661D01*
X26397Y3621D01*
X26500Y3607D01*
X26603Y3621D01*
X26699Y3661D01*
X26782Y3724D01*
X26845Y3807D01*
X26885Y3903D01*
X26899Y4006D01*
X26885Y4109D01*
X26845Y4205D01*
X26782Y4288D01*
X26699Y4351D01*
X26603Y4391D01*
X26500Y4405D01*
D02*
G37*
G36*
Y3405D02*
X26397Y3391D01*
X26301Y3351D01*
X26218Y3288D01*
X26155Y3205D01*
X26115Y3109D01*
X26101Y3006D01*
X26115Y2903D01*
X26155Y2807D01*
X26218Y2724D01*
X26301Y2661D01*
X26397Y2621D01*
X26500Y2607D01*
X26603Y2621D01*
X26699Y2661D01*
X26782Y2724D01*
X26845Y2807D01*
X26885Y2903D01*
X26899Y3006D01*
X26885Y3109D01*
X26845Y3205D01*
X26782Y3288D01*
X26699Y3351D01*
X26603Y3391D01*
X26500Y3405D01*
D02*
G37*
G36*
X26450Y2398D02*
X26397Y2391D01*
X26301Y2351D01*
X26218Y2288D01*
X26155Y2205D01*
X26115Y2109D01*
X26108Y2056D01*
X26450D01*
Y2398D01*
D02*
G37*
G36*
X28642Y1956D02*
X28300D01*
Y1614D01*
X28353Y1621D01*
X28449Y1661D01*
X28532Y1724D01*
X28595Y1807D01*
X28635Y1903D01*
X28642Y1956D01*
D02*
G37*
G36*
X26550Y2398D02*
Y2006D01*
Y1614D01*
X26603Y1621D01*
X26699Y1661D01*
X26782Y1724D01*
X26845Y1807D01*
X26864Y1853D01*
X27886D01*
X27905Y1807D01*
X27968Y1724D01*
X28051Y1661D01*
X28147Y1621D01*
X28200Y1614D01*
Y2006D01*
Y2398D01*
X28147Y2391D01*
X28051Y2351D01*
X27968Y2288D01*
X27905Y2205D01*
X27886Y2159D01*
X26864D01*
X26845Y2205D01*
X26782Y2288D01*
X26699Y2351D01*
X26603Y2391D01*
X26550Y2398D01*
D02*
G37*
G36*
X26450Y1956D02*
X26108D01*
X26115Y1903D01*
X26155Y1807D01*
X26218Y1724D01*
X26301Y1661D01*
X26397Y1621D01*
X26450Y1614D01*
Y1956D01*
D02*
G37*
G36*
X24750Y2405D02*
X24647Y2391D01*
X24551Y2351D01*
X24468Y2288D01*
X24405Y2205D01*
X24365Y2109D01*
X24351Y2006D01*
X24365Y1903D01*
X24405Y1807D01*
X24468Y1724D01*
X24551Y1661D01*
X24647Y1621D01*
X24750Y1607D01*
X24853Y1621D01*
X24949Y1661D01*
X25032Y1724D01*
X25095Y1807D01*
X25135Y1903D01*
X25149Y2006D01*
X25135Y2109D01*
X25095Y2205D01*
X25032Y2288D01*
X24949Y2351D01*
X24853Y2391D01*
X24750Y2405D01*
D02*
G37*
%LPD*%
G36*
X7361Y16359D02*
X7420Y16347D01*
X7519D01*
X7536Y16297D01*
X7483Y16257D01*
X7426Y16182D01*
X7389Y16094D01*
X7377Y16000D01*
X7389Y15906D01*
X7426Y15818D01*
X7483Y15743D01*
X7558Y15686D01*
X7646Y15649D01*
X7740Y15637D01*
X8260D01*
X8354Y15649D01*
X8442Y15686D01*
X8517Y15743D01*
X8574Y15818D01*
X8611Y15906D01*
X8623Y16000D01*
X8611Y16094D01*
X8574Y16182D01*
X8517Y16257D01*
X8464Y16297D01*
X8481Y16347D01*
X10519D01*
X10536Y16297D01*
X10483Y16257D01*
X10426Y16182D01*
X10414Y16153D01*
X9700D01*
X9641Y16141D01*
X9592Y16108D01*
X9392Y15908D01*
X9359Y15859D01*
X9347Y15800D01*
Y15663D01*
X8837Y15153D01*
X8586D01*
X8574Y15182D01*
X8517Y15257D01*
X8442Y15314D01*
X8354Y15351D01*
X8260Y15363D01*
X8050D01*
Y15000D01*
Y14637D01*
X8260D01*
X8354Y14649D01*
X8442Y14686D01*
X8517Y14743D01*
X8574Y14818D01*
X8586Y14847D01*
X8900D01*
X8959Y14859D01*
X9008Y14892D01*
X9608Y15492D01*
X9641Y15541D01*
X9653Y15600D01*
Y15737D01*
X9763Y15847D01*
X10414D01*
X10426Y15818D01*
X10483Y15743D01*
X10536Y15703D01*
X10519Y15653D01*
X10330D01*
X10271Y15641D01*
X10222Y15608D01*
X9922Y15308D01*
X9889Y15259D01*
X9877Y15200D01*
Y14000D01*
X9889Y13941D01*
X9922Y13892D01*
X10422Y13392D01*
X10471Y13359D01*
X10521Y13349D01*
X10533Y13324D01*
X10536Y13297D01*
X10483Y13257D01*
X10426Y13182D01*
X10414Y13153D01*
X10063D01*
X9653Y13563D01*
Y14000D01*
X9641Y14059D01*
X9608Y14108D01*
X9198Y14518D01*
X9149Y14551D01*
X9090Y14563D01*
X7663D01*
X7621Y14606D01*
X7644Y14646D01*
X7648Y14649D01*
X7740Y14637D01*
X7950D01*
Y14950D01*
X7383D01*
X7389Y14908D01*
X7386Y14904D01*
X7346Y14881D01*
X7283Y14943D01*
Y16352D01*
X7333Y16378D01*
X7361Y16359D01*
D02*
G37*
%LPC*%
G36*
X7950Y15363D02*
X7740D01*
X7646Y15351D01*
X7558Y15314D01*
X7483Y15257D01*
X7426Y15182D01*
X7389Y15094D01*
X7383Y15050D01*
X7950D01*
Y15363D01*
D02*
G37*
%LPD*%
D12*
X28900Y2656D02*
X29200Y2956D01*
X7330Y14410D02*
X7600D01*
X25357Y11480D02*
X25587Y11250D01*
X5500Y32900D02*
X6010Y32390D01*
X7790D01*
X9200Y33800D01*
X16520Y8720D02*
X18630Y6610D01*
X19770D01*
X19980Y6400D01*
Y4460D02*
Y6400D01*
Y4460D02*
X20230Y4210D01*
X21540D01*
X22790Y5460D01*
X27796D01*
X28250Y5006D01*
X10430Y17000D02*
X11000D01*
X10330Y17100D02*
X10430Y17000D01*
X10330Y17100D02*
Y18230D01*
X10600Y18500D01*
X14050D01*
X18850Y23300D01*
X23750Y2006D02*
X24200Y2456D01*
Y4310D01*
X24000Y4510D02*
X24200Y4310D01*
X22560Y4510D02*
X24000D01*
X22030Y3980D02*
X22560Y4510D01*
X19600Y3980D02*
X22030D01*
X18330Y5250D02*
X19600Y3980D01*
X16250Y5250D02*
X18330D01*
X15980D02*
X16250D01*
X15530Y5700D02*
X15980Y5250D01*
X14117Y5700D02*
X15530D01*
X13667Y5250D02*
X14117Y5700D01*
X10633D02*
X11083Y5250D01*
X8950Y5700D02*
X10633D01*
X8500Y5250D02*
X8950Y5700D01*
X11083Y5250D02*
X11533Y5700D01*
X13217D01*
X13667Y5250D01*
X28524Y10500D02*
X28910Y10886D01*
Y14190D01*
X28600Y14500D02*
X28910Y14190D01*
X27813Y14500D02*
X28600D01*
X28524Y10500D02*
X29200Y9824D01*
Y2956D02*
Y9824D01*
X3300Y15500D02*
X4700Y16900D01*
Y19100D01*
X6030Y27770D02*
X6500Y27300D01*
X3870Y27770D02*
X6030D01*
X3400Y27300D02*
X3870Y27770D01*
X20730Y32970D02*
X21200Y32500D01*
X13470Y32970D02*
X20730D01*
X13300Y32800D02*
X13470Y32970D01*
X19672Y3580D02*
X19770D01*
X18346Y4906D02*
X19672Y3580D01*
X17893Y4906D02*
X18346D01*
X17687Y4700D02*
X17893Y4906D01*
X10800Y4700D02*
X17687D01*
X10580Y4480D02*
X10800Y4700D01*
X10580Y3747D02*
Y4480D01*
X10083Y3250D02*
X10580Y3747D01*
X9583Y3750D02*
X10083Y4250D01*
X8200Y3750D02*
X9583D01*
X8050Y3600D02*
X8200Y3750D01*
X8050Y1800D02*
Y3600D01*
Y1800D02*
X8480Y1370D01*
X19601D01*
X20450Y4680D02*
X21610D01*
X22650Y5720D01*
X28400D01*
X28700Y5420D01*
Y3456D02*
Y5420D01*
X28250Y3006D02*
X28700Y3456D01*
X870Y30920D02*
X1250Y31300D01*
X870Y21890D02*
Y30920D01*
Y21890D02*
X1980Y20780D01*
X4650D01*
X7130Y18300D01*
Y14880D02*
Y18300D01*
Y14880D02*
X7600Y14410D01*
X9090D01*
X9500Y13500D02*
X10000Y13000D01*
X11000D01*
X18030Y8940D02*
X21200Y5770D01*
X17120Y8940D02*
X18030D01*
X19150Y5250D02*
X19580Y4820D01*
X18720Y5250D02*
X19150D01*
X18270Y5700D02*
X18720Y5250D01*
X15813Y5700D02*
X18270D01*
X15613Y5900D02*
X15813Y5700D01*
X8200Y5900D02*
X15613D01*
X8000Y5700D02*
X8200Y5900D01*
X8000Y4950D02*
Y5700D01*
X7800Y4750D02*
X8000Y4950D01*
X7200Y4750D02*
X7800D01*
X7050Y4600D02*
X7200Y4750D01*
X7050Y3700D02*
Y4600D01*
Y3700D02*
X7500Y3250D01*
X18756Y6004D02*
X18950Y5810D01*
X15930Y6004D02*
X18756D01*
X15834Y6100D02*
X15930Y6004D01*
X7950Y6100D02*
X15834D01*
X7500Y5650D02*
X7950Y6100D01*
X7500Y5250D02*
Y5650D01*
X25587Y11250D02*
X26000D01*
X27313Y12563D01*
Y13750D01*
X3400Y23200D02*
Y23600D01*
X1300Y25700D02*
X3400Y23600D01*
X17340Y3750D02*
X18090Y4500D01*
X16890Y3750D02*
X17340D01*
X11000Y14000D02*
X14969D01*
X15290Y14321D01*
X16387D01*
X17388Y13320D01*
X26700D01*
X26810Y13430D01*
Y13849D01*
X27137Y14176D01*
X27489D01*
X27915Y13750D01*
X28313D01*
X15690Y13920D02*
X16560Y13050D01*
X25600D01*
X26230Y12420D01*
Y11710D02*
Y12420D01*
X26000Y11480D02*
X26230Y11710D01*
X25357Y11480D02*
X26000D01*
X24837Y12000D02*
X25357Y11480D01*
X17920Y2770D02*
X18120Y2970D01*
X16000Y2770D02*
X17920D01*
X15793Y2977D02*
X16000Y2770D01*
X15793Y2977D02*
Y3707D01*
X15250Y4250D02*
X15793Y3707D01*
X16250Y3250D02*
X17600D01*
X17720Y3370D01*
X19350D01*
X19540Y3180D01*
X22924D01*
X23750Y4006D01*
X17080Y1800D02*
X17246Y1966D01*
X13220Y1800D02*
X17080D01*
X13220D02*
Y2697D01*
X12667Y3250D02*
X13220Y2697D01*
X19430Y6300D02*
X19520Y6210D01*
X13380Y6300D02*
X19430D01*
X11930Y7750D02*
X13380Y6300D01*
X21870Y5740D02*
X22140Y6010D01*
X28810D01*
X28900Y5920D01*
Y2656D02*
Y5920D01*
X28250Y2006D02*
X28900Y2656D01*
X8000Y22000D02*
X9100D01*
X9500Y22400D01*
Y27500D01*
X11400Y29400D01*
X18200D02*
X19200D01*
X20100Y28500D01*
X8000Y17000D02*
X8900D01*
X9500Y17600D01*
Y18910D01*
X10000Y19410D01*
X11950D01*
X15740Y23200D01*
Y28140D01*
X20100Y32500D01*
X11000Y19000D02*
X12090D01*
X16330Y23240D01*
Y25450D01*
X17240Y26360D01*
X22634D01*
X24524Y28250D01*
X9700Y16000D02*
X11000D01*
X9500Y15800D02*
X9700Y16000D01*
X9500Y15600D02*
Y15800D01*
X8900Y15000D02*
X9500Y15600D01*
X8000Y15000D02*
X8900D01*
X1500Y10300D02*
X1950Y10750D01*
X4670D01*
X4910Y10510D01*
X11400D01*
X11670Y10780D01*
Y13230D01*
X11400Y13500D02*
X11670Y13230D01*
X10530Y13500D02*
X11400D01*
X10030Y14000D02*
X10530Y13500D01*
X10030Y14000D02*
Y15200D01*
X10330Y15500D01*
X11400D01*
X11670Y15770D01*
Y16410D01*
X11580Y16500D02*
X11670Y16410D01*
X7420Y16500D02*
X11580D01*
X7330Y16590D02*
X7420Y16500D01*
X7330Y16590D02*
Y18920D01*
X7410Y19000D01*
X8000D01*
X9500Y13500D02*
Y14000D01*
X9090Y14410D02*
X9500Y14000D01*
X6330Y13410D02*
X7330Y14410D01*
X3390Y13410D02*
X6330D01*
X2300Y14500D02*
X3390Y13410D01*
X11083Y3250D02*
X11533Y3700D01*
X13217D01*
X13667Y3250D01*
X10633Y2700D02*
X11083Y2250D01*
X8950Y2700D02*
X10633D01*
X8500Y2250D02*
X8950Y2700D01*
X15980Y2250D02*
X16250D01*
X15530Y2700D02*
X15980Y2250D01*
X14117Y2700D02*
X15530D01*
X13667Y2250D02*
X14117Y2700D01*
X3300Y14500D02*
X6200Y17400D01*
X1300Y14500D02*
X3020Y12780D01*
X6910D01*
X7540Y13410D01*
X8460D01*
X9870Y12000D01*
X11000D01*
X10080Y11000D02*
X11000D01*
X8670Y12410D02*
X10080Y11000D01*
X2220Y12410D02*
X8670D01*
X780Y13850D02*
X2220Y12410D01*
X780Y13850D02*
Y15830D01*
X1200Y16250D01*
X1550D01*
X2300Y15500D01*
X4500Y23300D02*
Y25700D01*
X4400Y23200D02*
X4500Y23300D01*
X9200Y32800D02*
X13300D01*
X26740Y30250D02*
X27063D01*
X26490Y30000D02*
X26740Y30250D01*
X26490Y29860D02*
Y30000D01*
X24880Y28250D02*
X26490Y29860D01*
X24524Y28250D02*
X24880D01*
X6600Y21000D02*
X8000D01*
X4400Y23200D02*
X6600Y21000D01*
Y20000D02*
X8000D01*
X3400Y23200D02*
X6600Y20000D01*
X11000Y18000D02*
X15100D01*
X18850Y14250D01*
X13250Y10000D02*
X15600D01*
X17350Y11750D01*
X21200Y32500D02*
X26063D01*
X27563Y31000D01*
X17350Y11750D02*
X18390Y12790D01*
X25047D01*
X25837Y12000D01*
X25524Y26750D02*
X28524D01*
X25837Y10500D02*
X28524D01*
X26500Y2006D02*
X28250D01*
X1500Y11300D02*
X3200D01*
X1400Y19100D02*
X3100D01*
X4700D01*
X11000Y10000D02*
X13250D01*
X8000D02*
X11000D01*
X20100Y28500D02*
X21200D01*
X17150Y19300D02*
X18850D01*
X20450D01*
X17150Y18250D02*
X18850D01*
X20450D01*
X0Y0D02*
Y40000D01*
X31500D01*
X31500Y0D01*
X0D02*
X31500D01*
D39*
X3200Y10300D02*
D03*
X1500D02*
D03*
X28250Y5006D02*
D03*
X26500D02*
D03*
X22950Y18300D02*
D03*
X23750Y5006D02*
D03*
X16250Y2250D02*
D03*
X11083D02*
D03*
X13667D02*
D03*
X8500D02*
D03*
D40*
X3200Y11300D02*
D03*
X1500D02*
D03*
X28250Y2006D02*
D03*
Y3006D02*
D03*
Y4006D02*
D03*
X26500Y2006D02*
D03*
Y3006D02*
D03*
Y4006D02*
D03*
X1400Y23200D02*
D03*
X2400D02*
D03*
X3400D02*
D03*
X24642Y37313D02*
D03*
Y36093D02*
D03*
Y34872D02*
D03*
X28500D02*
D03*
Y36093D02*
D03*
Y37313D02*
D03*
X24892Y20813D02*
D03*
Y19593D02*
D03*
Y18372D02*
D03*
X28750D02*
D03*
Y19593D02*
D03*
Y20813D02*
D03*
X22950Y19300D02*
D03*
X24750Y2006D02*
D03*
X23750D02*
D03*
X24750Y3006D02*
D03*
X23750D02*
D03*
X24750Y4006D02*
D03*
X23750D02*
D03*
X24750Y5006D02*
D03*
X15250Y5250D02*
D03*
X16250D02*
D03*
X15250Y4250D02*
D03*
X16250D02*
D03*
X15250Y3250D02*
D03*
X16250D02*
D03*
X15250Y2250D02*
D03*
X10083Y5250D02*
D03*
X11083D02*
D03*
X10083Y4250D02*
D03*
X11083D02*
D03*
X10083Y3250D02*
D03*
X11083D02*
D03*
X10083Y2250D02*
D03*
X12667Y5250D02*
D03*
X13667D02*
D03*
X12667Y4250D02*
D03*
X13667D02*
D03*
X12667Y3250D02*
D03*
X13667D02*
D03*
X12667Y2250D02*
D03*
X7500Y5250D02*
D03*
X8500D02*
D03*
X7500Y4250D02*
D03*
X8500D02*
D03*
X7500Y3250D02*
D03*
X8500D02*
D03*
X7500Y2250D02*
D03*
D41*
X13300Y32800D02*
D03*
Y33800D02*
D03*
X9200Y32800D02*
D03*
Y33800D02*
D03*
X13250Y11000D02*
D03*
Y10000D02*
D03*
X1400Y20100D02*
D03*
Y19100D02*
D03*
X3100Y20100D02*
D03*
Y19100D02*
D03*
X4700Y20100D02*
D03*
Y19100D02*
D03*
X28524Y26750D02*
D03*
Y27750D02*
D03*
Y10500D02*
D03*
Y11500D02*
D03*
X24524Y28250D02*
D03*
X25524D02*
D03*
X24524Y26750D02*
D03*
X25524D02*
D03*
X24837Y12000D02*
D03*
X25837D02*
D03*
X24837Y10500D02*
D03*
X25837D02*
D03*
X17350Y11750D02*
D03*
X18350D02*
D03*
X17350Y25750D02*
D03*
X18350D02*
D03*
D42*
X1300Y14500D02*
D03*
Y15500D02*
D03*
X2300Y14500D02*
D03*
Y15500D02*
D03*
X3300Y14500D02*
D03*
Y15500D02*
D03*
D43*
X5500Y32900D02*
D03*
X6500D02*
D03*
X2400Y33000D02*
D03*
X3400D02*
D03*
X5500Y27300D02*
D03*
X6500D02*
D03*
X2400D02*
D03*
X3400D02*
D03*
D44*
X4500Y35300D02*
D03*
Y31300D02*
D03*
X14300Y25400D02*
D03*
Y29400D02*
D03*
X12850Y25400D02*
D03*
Y29400D02*
D03*
X20100Y28500D02*
D03*
Y32500D02*
D03*
X21200Y28500D02*
D03*
Y32500D02*
D03*
X11400Y25400D02*
D03*
Y29400D02*
D03*
X1250Y31300D02*
D03*
Y35300D02*
D03*
X4500Y25700D02*
D03*
Y29700D02*
D03*
X1300Y25700D02*
D03*
Y29700D02*
D03*
X27563Y31000D02*
D03*
X26563D02*
D03*
X27063Y30250D02*
D03*
X28063D02*
D03*
X27813Y14500D02*
D03*
X26813D02*
D03*
X27313Y13750D02*
D03*
X28313D02*
D03*
X23837Y24750D02*
D03*
X27837D02*
D03*
X24774Y8166D02*
D03*
X28774D02*
D03*
X18850Y14250D02*
D03*
Y18250D02*
D03*
X20450D02*
D03*
Y14250D02*
D03*
X18850Y23300D02*
D03*
Y19300D02*
D03*
X20450D02*
D03*
Y23300D02*
D03*
X17150Y18250D02*
D03*
Y14250D02*
D03*
Y19300D02*
D03*
Y23300D02*
D03*
D45*
X18200Y29900D02*
D03*
D46*
Y29400D02*
D03*
Y28900D02*
D03*
D47*
X11000Y22000D02*
D03*
Y21000D02*
D03*
Y20000D02*
D03*
Y19000D02*
D03*
Y18000D02*
D03*
Y17000D02*
D03*
Y16000D02*
D03*
Y15000D02*
D03*
Y14000D02*
D03*
Y13000D02*
D03*
Y12000D02*
D03*
Y11000D02*
D03*
Y10000D02*
D03*
Y9000D02*
D03*
X8000D02*
D03*
Y10000D02*
D03*
Y11000D02*
D03*
Y12000D02*
D03*
Y13000D02*
D03*
Y14000D02*
D03*
Y15000D02*
D03*
Y16000D02*
D03*
Y17000D02*
D03*
Y18000D02*
D03*
Y19000D02*
D03*
Y20000D02*
D03*
Y21000D02*
D03*
Y22000D02*
D03*
D48*
X4400Y23200D02*
D03*
D50*
X26063Y30250D02*
D03*
X26313Y13750D02*
D03*
D51*
X16520Y8720D02*
D03*
X19770Y3580D02*
D03*
X19601Y1370D02*
D03*
X20450Y4680D02*
D03*
X21200Y5770D02*
D03*
X17120Y8940D02*
D03*
X19580Y4820D02*
D03*
X18950Y5810D02*
D03*
X18090Y4500D02*
D03*
X16890Y3750D02*
D03*
X15690Y13920D02*
D03*
X18120Y2970D02*
D03*
X17246Y1966D02*
D03*
X19520Y6210D02*
D03*
X11930Y7750D02*
D03*
X21870Y5740D02*
D03*
X6200Y17400D02*
D03*
M02*
