G04*
G04 #@! TF.GenerationSoftware,Altium Limited,Altium Designer,19.0.10 (269)*
G04*
G04 Layer_Color=16711935*
%FSLAX24Y24*%
%MOIN*%
G70*
G01*
G75*
%ADD12C,0.0100*%
%ADD62C,0.0039*%
D12*
X3200Y37600D02*
X3200Y4600D01*
X3200Y37600D02*
X32600D01*
X32600Y4600D01*
X3200D02*
X32600D01*
D62*
X16027Y27593D02*
X16000Y27692D01*
X15928Y27764D01*
X15830Y27790D01*
X15732Y27764D01*
X15659Y27692D01*
X15633Y27593D01*
X15659Y27495D01*
X15732Y27423D01*
X15830Y27396D01*
X15928Y27423D01*
X16000Y27495D01*
X16027Y27593D01*
X15476Y24837D02*
X17247D01*
X15476Y27948D02*
X17247D01*
Y24837D02*
Y27948D01*
X15476Y24837D02*
Y27948D01*
X6524Y32891D02*
X7076D01*
X6524Y31709D02*
X7076D01*
X6524D02*
Y32891D01*
X7076Y31709D02*
Y32891D01*
X16874Y20670D02*
X17248D01*
X16874Y21339D02*
X17248D01*
X16874Y20670D02*
Y21339D01*
X17248Y20670D02*
Y21339D01*
X31024Y23130D02*
X31576D01*
X31024Y22283D02*
X31576D01*
Y23130D01*
X31024Y22283D02*
Y23130D01*
X15082Y20887D02*
Y21320D01*
X15318Y20887D02*
Y21320D01*
X15082Y20887D02*
X15318D01*
X15082Y21320D02*
X15318D01*
X4983Y20918D02*
X5417D01*
X4983Y20682D02*
X5417D01*
X4983D02*
Y20918D01*
X5417Y20682D02*
Y20918D01*
X15083Y15418D02*
X15517D01*
X15083Y15182D02*
X15517D01*
X15083D02*
Y15418D01*
X15517Y15182D02*
Y15418D01*
X29580Y8782D02*
X30013D01*
X29580Y9018D02*
X30013D01*
Y8782D02*
Y9018D01*
X29580Y8782D02*
Y9018D01*
X28387Y8782D02*
X28820D01*
X28387Y9018D02*
X28820D01*
Y8782D02*
Y9018D01*
X28387Y8782D02*
Y9018D01*
X28787Y7982D02*
X29220D01*
X28787Y8218D02*
X29220D01*
Y7982D02*
Y8218D01*
X28787Y7982D02*
Y8218D01*
X15082Y17787D02*
Y18220D01*
X15318Y17787D02*
Y18220D01*
X15082Y17787D02*
X15318D01*
X15082Y18220D02*
X15318D01*
X29583Y23282D02*
X30017D01*
X29583Y23518D02*
X30017D01*
Y23282D02*
Y23518D01*
X29583Y23282D02*
Y23518D01*
X28387Y23282D02*
X28820D01*
X28387Y23518D02*
X28820D01*
Y23282D02*
Y23518D01*
X28387Y23282D02*
Y23518D01*
X28780Y22582D02*
X29213D01*
X28780Y22818D02*
X29213D01*
Y22582D02*
Y22818D01*
X28780Y22582D02*
Y22818D01*
X4583Y18024D02*
Y18576D01*
X5430Y18024D02*
Y18576D01*
X4583D02*
X5430D01*
X4583Y18024D02*
X5430D01*
X15477Y10524D02*
Y11076D01*
X16323Y10524D02*
Y11076D01*
X15477D02*
X16323D01*
X15477Y10524D02*
X16323D01*
X15477Y12024D02*
Y12576D01*
X16323Y12024D02*
Y12576D01*
X15477D02*
X16323D01*
X15477Y12024D02*
X16323D01*
X7170Y23224D02*
Y23776D01*
X8017Y23224D02*
Y23776D01*
X7170D02*
X8017D01*
X7170Y23224D02*
X8017D01*
X8124Y26377D02*
X8676D01*
X8124Y27223D02*
X8676D01*
X8124Y26377D02*
Y27223D01*
X8676Y26377D02*
Y27223D01*
X20624Y17183D02*
X21176D01*
X20624Y18030D02*
X21176D01*
X20624Y17183D02*
Y18030D01*
X21176Y17183D02*
Y18030D01*
X18843Y17183D02*
X19394D01*
X18843Y18030D02*
X19394D01*
X18843Y17183D02*
Y18030D01*
X19394Y17183D02*
Y18030D01*
X16874Y18239D02*
X17248D01*
X16874Y17570D02*
X17248D01*
Y18239D01*
X16874Y17570D02*
Y18239D01*
X30824Y8630D02*
X31376D01*
X30824Y7783D02*
X31376D01*
Y8630D01*
X30824Y7783D02*
Y8630D01*
X20624Y20283D02*
X21176D01*
X20624Y21130D02*
X21176D01*
X20624Y20283D02*
Y21130D01*
X21176Y20283D02*
Y21130D01*
X18843Y20283D02*
X19394D01*
X18843Y21130D02*
X19394D01*
X18843Y20283D02*
Y21130D01*
X19394Y20283D02*
Y21130D01*
M02*
