G04*
G04 #@! TF.GenerationSoftware,Altium Limited,Altium Designer,20.0.10 (225)*
G04*
G04 Layer_Color=255*
%FSLAX24Y24*%
%MOIN*%
G70*
G01*
G75*
%ADD12C,0.0100*%
%ADD17R,0.0571X0.0236*%
G04:AMPARAMS|DCode=18|XSize=57mil|YSize=45mil|CornerRadius=11.3mil|HoleSize=0mil|Usage=FLASHONLY|Rotation=90.000|XOffset=0mil|YOffset=0mil|HoleType=Round|Shape=RoundedRectangle|*
%AMROUNDEDRECTD18*
21,1,0.0570,0.0225,0,0,90.0*
21,1,0.0345,0.0450,0,0,90.0*
1,1,0.0225,0.0113,0.0173*
1,1,0.0225,0.0113,-0.0173*
1,1,0.0225,-0.0113,-0.0173*
1,1,0.0225,-0.0113,0.0173*
%
%ADD18ROUNDEDRECTD18*%
%ADD19O,0.0551X0.0177*%
%ADD20R,0.0280X0.0670*%
%ADD38C,0.0591*%
%ADD39R,0.0591X0.0591*%
%ADD40C,0.0472*%
%ADD41C,0.0630*%
%ADD42P,0.0801X8X202.5*%
%ADD43C,0.0551*%
%ADD44O,0.0787X0.0394*%
%ADD45O,0.0787X0.0394*%
%ADD46O,0.1040X0.0520*%
%ADD47R,0.0551X0.0551*%
%ADD48O,0.1079X0.0827*%
D12*
X0Y0D02*
Y36900D01*
X36800D01*
Y0D02*
Y36900D01*
X0Y0D02*
X36800D01*
D17*
X21200Y14100D02*
D03*
X22125Y14474D02*
D03*
Y13726D02*
D03*
D18*
X7386Y25125D02*
D03*
Y28279D02*
D03*
X5618Y25125D02*
D03*
Y28279D02*
D03*
D19*
X18261Y7293D02*
D03*
Y7548D02*
D03*
Y7804D02*
D03*
Y8060D02*
D03*
Y8316D02*
D03*
Y8572D02*
D03*
Y8828D02*
D03*
Y9084D02*
D03*
Y9340D02*
D03*
Y9596D02*
D03*
Y9852D02*
D03*
Y10107D02*
D03*
X15939Y7293D02*
D03*
Y7548D02*
D03*
Y7804D02*
D03*
Y8060D02*
D03*
Y8316D02*
D03*
Y8572D02*
D03*
Y8828D02*
D03*
Y9084D02*
D03*
Y9340D02*
D03*
Y9596D02*
D03*
Y9852D02*
D03*
Y10107D02*
D03*
D20*
X3948Y12100D02*
D03*
X4420D02*
D03*
X4900D02*
D03*
D38*
X19500Y5008D02*
D03*
X20500D02*
D03*
X19500Y4008D02*
D03*
X20500D02*
D03*
X19500Y3008D02*
D03*
X20500D02*
D03*
X19500Y2008D02*
D03*
X3100Y34100D02*
D03*
X5100D02*
D03*
X26600Y7200D02*
D03*
Y8200D02*
D03*
Y9200D02*
D03*
X24800Y7200D02*
D03*
Y8200D02*
D03*
Y9200D02*
D03*
X20900Y22500D02*
D03*
X22700Y7300D02*
D03*
X21700D02*
D03*
X22700Y8300D02*
D03*
X21700D02*
D03*
X22700Y9300D02*
D03*
X21700D02*
D03*
X22700Y10300D02*
D03*
X12200Y5100D02*
D03*
X13200D02*
D03*
X12200Y4100D02*
D03*
X13200D02*
D03*
X12200Y3100D02*
D03*
X13200D02*
D03*
X12200Y2100D02*
D03*
X15900Y5000D02*
D03*
X16900D02*
D03*
X15900Y4000D02*
D03*
X16900D02*
D03*
X15900Y3000D02*
D03*
X16900D02*
D03*
X15900Y2000D02*
D03*
X12200Y10600D02*
D03*
X13200D02*
D03*
X12200Y9600D02*
D03*
X13200D02*
D03*
X12200Y8600D02*
D03*
X13200D02*
D03*
X12200Y7600D02*
D03*
D39*
X20500Y2008D02*
D03*
X3100Y33100D02*
D03*
X5100D02*
D03*
X26600Y10200D02*
D03*
X24800D02*
D03*
X20900Y21500D02*
D03*
X21700Y10300D02*
D03*
X13200Y2100D02*
D03*
X16900Y2000D02*
D03*
X13200Y7600D02*
D03*
D40*
X16500Y22800D02*
D03*
X15500D02*
D03*
X16500Y21200D02*
D03*
X15500D02*
D03*
X32021Y3600D02*
D03*
X31021D02*
D03*
X32021Y1700D02*
D03*
X31021D02*
D03*
X32100Y21000D02*
D03*
X31100D02*
D03*
X32100Y22500D02*
D03*
X31100D02*
D03*
X28900Y2400D02*
D03*
Y3400D02*
D03*
X29600Y20900D02*
D03*
Y21900D02*
D03*
X17000Y13500D02*
D03*
Y12500D02*
D03*
X15000Y13500D02*
D03*
Y12500D02*
D03*
X13000Y13500D02*
D03*
Y12500D02*
D03*
X3300Y17000D02*
D03*
Y18000D02*
D03*
X1300Y17000D02*
D03*
Y18000D02*
D03*
X5300Y17000D02*
D03*
Y18000D02*
D03*
D41*
X14581Y32200D02*
D03*
X15581D02*
D03*
X18400D02*
D03*
X19400D02*
D03*
X10761D02*
D03*
X11761D02*
D03*
D42*
X9500Y5500D02*
D03*
Y4500D02*
D03*
X8500Y5500D02*
D03*
Y4500D02*
D03*
X7500Y5500D02*
D03*
Y4500D02*
D03*
D43*
X17000Y30300D02*
D03*
Y34300D02*
D03*
X10900Y24300D02*
D03*
Y28300D02*
D03*
X12400Y24300D02*
D03*
Y28300D02*
D03*
X2750Y24250D02*
D03*
Y28250D02*
D03*
X1300Y24250D02*
D03*
Y28250D02*
D03*
X9400Y24300D02*
D03*
Y28300D02*
D03*
Y30300D02*
D03*
Y34300D02*
D03*
X13200Y30300D02*
D03*
Y34300D02*
D03*
X32721Y25178D02*
D03*
X31721D02*
D03*
X31221Y25928D02*
D03*
X32221D02*
D03*
X32721Y5478D02*
D03*
X31721D02*
D03*
X31221Y6228D02*
D03*
X32221D02*
D03*
X35400Y24300D02*
D03*
Y20300D02*
D03*
X35100Y5400D02*
D03*
Y1400D02*
D03*
X15200Y19400D02*
D03*
Y15400D02*
D03*
X18800D02*
D03*
Y19400D02*
D03*
X15200Y24200D02*
D03*
Y28200D02*
D03*
X18800D02*
D03*
Y24200D02*
D03*
X17000Y15400D02*
D03*
Y19400D02*
D03*
Y28200D02*
D03*
Y24200D02*
D03*
D44*
X1400Y21700D02*
D03*
D45*
Y21200D02*
D03*
Y20700D02*
D03*
D46*
X10000Y22000D02*
D03*
Y21000D02*
D03*
Y20000D02*
D03*
Y19000D02*
D03*
Y18000D02*
D03*
Y17000D02*
D03*
Y16000D02*
D03*
Y15000D02*
D03*
Y14000D02*
D03*
Y13000D02*
D03*
Y12000D02*
D03*
Y11000D02*
D03*
Y10000D02*
D03*
Y9000D02*
D03*
X7000D02*
D03*
Y10000D02*
D03*
Y11000D02*
D03*
Y12000D02*
D03*
Y13000D02*
D03*
Y14000D02*
D03*
Y15000D02*
D03*
Y16000D02*
D03*
Y17000D02*
D03*
Y18000D02*
D03*
Y19000D02*
D03*
Y20000D02*
D03*
Y21000D02*
D03*
Y22000D02*
D03*
D47*
X30721Y25178D02*
D03*
Y5478D02*
D03*
D48*
X33158Y32241D02*
D03*
Y31020D02*
D03*
Y29800D02*
D03*
X29300D02*
D03*
Y31020D02*
D03*
Y32241D02*
D03*
X33158Y12541D02*
D03*
Y11320D02*
D03*
Y10100D02*
D03*
X29300D02*
D03*
Y11320D02*
D03*
Y12541D02*
D03*
M02*
