G04*
G04 #@! TF.GenerationSoftware,Altium Limited,Altium Designer,20.0.10 (225)*
G04*
G04 Layer_Physical_Order=1*
G04 Layer_Color=255*
%FSLAX24Y24*%
%MOIN*%
G70*
G01*
G75*
%ADD12C,0.0100*%
%ADD17R,0.0236X0.0571*%
G04:AMPARAMS|DCode=18|XSize=57mil|YSize=45mil|CornerRadius=11.3mil|HoleSize=0mil|Usage=FLASHONLY|Rotation=90.000|XOffset=0mil|YOffset=0mil|HoleType=Round|Shape=RoundedRectangle|*
%AMROUNDEDRECTD18*
21,1,0.0570,0.0225,0,0,90.0*
21,1,0.0345,0.0450,0,0,90.0*
1,1,0.0225,0.0113,0.0173*
1,1,0.0225,0.0113,-0.0173*
1,1,0.0225,-0.0113,-0.0173*
1,1,0.0225,-0.0113,0.0173*
%
%ADD18ROUNDEDRECTD18*%
%ADD19R,0.0670X0.0280*%
%ADD20O,0.0551X0.0177*%
%ADD38C,0.0250*%
%ADD39R,0.0591X0.0591*%
%ADD40C,0.0591*%
%ADD41C,0.0472*%
%ADD42P,0.0801X8X22.5*%
%ADD43C,0.0630*%
%ADD44C,0.0551*%
%ADD45O,0.0787X0.0394*%
%ADD46O,0.0787X0.0394*%
%ADD47O,0.1040X0.0520*%
%ADD48R,0.0591X0.0591*%
%ADD49O,0.1079X0.0827*%
%ADD50R,0.0551X0.0551*%
%ADD51C,0.0500*%
G36*
X31500Y0D02*
X0D01*
Y40000D01*
X31500D01*
X31500Y0D01*
D02*
G37*
%LPC*%
G36*
X28524Y39556D02*
X24587D01*
X24528Y39545D01*
X24478Y39512D01*
X24445Y39462D01*
X24434Y39404D01*
Y37829D01*
X24427Y37819D01*
X24382Y37813D01*
X24257Y37761D01*
X24150Y37679D01*
X24067Y37572D01*
X24016Y37447D01*
X23998Y37313D01*
X24016Y37179D01*
X24067Y37054D01*
X24150Y36947D01*
X24257Y36865D01*
X24382Y36813D01*
X24516Y36795D01*
X24768D01*
X24902Y36813D01*
X25027Y36865D01*
X25134Y36947D01*
X25216Y37054D01*
X25268Y37179D01*
X25286Y37313D01*
X25268Y37447D01*
X25216Y37572D01*
X25134Y37679D01*
X25027Y37761D01*
X24902Y37813D01*
X24768Y37831D01*
X24740D01*
Y39251D01*
X28371D01*
Y37830D01*
X28240Y37813D01*
X28115Y37761D01*
X28008Y37679D01*
X27926Y37572D01*
X27874Y37447D01*
X27856Y37313D01*
X27874Y37179D01*
X27926Y37054D01*
X28008Y36947D01*
X28115Y36865D01*
X28240Y36813D01*
X28374Y36795D01*
X28626D01*
X28760Y36813D01*
X28885Y36865D01*
X28992Y36947D01*
X29074Y37054D01*
X29126Y37179D01*
X29144Y37313D01*
X29126Y37447D01*
X29074Y37572D01*
X28992Y37679D01*
X28885Y37761D01*
X28760Y37813D01*
X28680Y37824D01*
X28677Y37829D01*
Y39404D01*
X28665Y39462D01*
X28632Y39512D01*
X28582Y39545D01*
X28524Y39556D01*
D02*
G37*
G36*
X28626Y36610D02*
X28374D01*
X28240Y36593D01*
X28115Y36541D01*
X28008Y36459D01*
X27926Y36351D01*
X27874Y36227D01*
X27856Y36093D01*
X27874Y35958D01*
X27926Y35834D01*
X28008Y35726D01*
X28115Y35644D01*
X28240Y35592D01*
X28374Y35575D01*
X28626D01*
X28760Y35592D01*
X28885Y35644D01*
X28992Y35726D01*
X29074Y35834D01*
X29126Y35958D01*
X29144Y36093D01*
X29126Y36227D01*
X29074Y36351D01*
X28992Y36459D01*
X28885Y36541D01*
X28760Y36593D01*
X28626Y36610D01*
D02*
G37*
G36*
X24768D02*
X24516D01*
X24382Y36593D01*
X24257Y36541D01*
X24150Y36459D01*
X24067Y36351D01*
X24016Y36227D01*
X23998Y36093D01*
X24016Y35958D01*
X24067Y35834D01*
X24150Y35726D01*
X24257Y35644D01*
X24382Y35592D01*
X24516Y35575D01*
X24768D01*
X24902Y35592D01*
X25027Y35644D01*
X25134Y35726D01*
X25216Y35834D01*
X25268Y35958D01*
X25286Y36093D01*
X25268Y36227D01*
X25216Y36351D01*
X25134Y36459D01*
X25027Y36541D01*
X24902Y36593D01*
X24768Y36610D01*
D02*
G37*
G36*
X3450Y33412D02*
Y33050D01*
X3812D01*
X3804Y33108D01*
X3762Y33209D01*
X3696Y33296D01*
X3609Y33362D01*
X3508Y33404D01*
X3450Y33412D01*
D02*
G37*
G36*
X3350D02*
X3292Y33404D01*
X3191Y33362D01*
X3104Y33296D01*
X3038Y33209D01*
X2996Y33108D01*
X2988Y33050D01*
X3350D01*
Y33412D01*
D02*
G37*
G36*
X9250Y33133D02*
Y32850D01*
X9533D01*
X9528Y32888D01*
X9494Y32970D01*
X9440Y33040D01*
X9370Y33094D01*
X9288Y33128D01*
X9250Y33133D01*
D02*
G37*
G36*
X9150D02*
X9112Y33128D01*
X9030Y33094D01*
X8960Y33040D01*
X8906Y32970D01*
X8872Y32888D01*
X8867Y32850D01*
X9150D01*
Y33133D01*
D02*
G37*
G36*
X1250Y35679D02*
X1152Y35666D01*
X1061Y35628D01*
X982Y35568D01*
X922Y35489D01*
X884Y35398D01*
X871Y35300D01*
X884Y35202D01*
X922Y35111D01*
X982Y35032D01*
X1061Y34972D01*
X1097Y34957D01*
Y34150D01*
X1109Y34091D01*
X1142Y34042D01*
X2019Y33165D01*
X1996Y33108D01*
X1981Y33000D01*
X1996Y32892D01*
X2038Y32791D01*
X2104Y32704D01*
X2191Y32638D01*
X2292Y32596D01*
X2400Y32581D01*
X2508Y32596D01*
X2609Y32638D01*
X2696Y32704D01*
X2762Y32791D01*
X2804Y32892D01*
X2819Y33000D01*
X2804Y33108D01*
X2762Y33209D01*
X2696Y33296D01*
X2609Y33362D01*
X2508Y33404D01*
X2400Y33419D01*
X2292Y33404D01*
X2235Y33381D01*
X1403Y34213D01*
Y34957D01*
X1439Y34972D01*
X1518Y35032D01*
X1578Y35111D01*
X1616Y35202D01*
X1629Y35300D01*
X1616Y35398D01*
X1578Y35489D01*
X1518Y35568D01*
X1439Y35628D01*
X1348Y35666D01*
X1250Y35679D01*
D02*
G37*
G36*
X21250Y32872D02*
Y32550D01*
X21572D01*
X21566Y32598D01*
X21528Y32689D01*
X21468Y32768D01*
X21389Y32828D01*
X21298Y32866D01*
X21250Y32872D01*
D02*
G37*
G36*
X21150D02*
X21102Y32866D01*
X21011Y32828D01*
X20932Y32768D01*
X20872Y32689D01*
X20834Y32598D01*
X20828Y32550D01*
X21150D01*
Y32872D01*
D02*
G37*
G36*
X4500Y35679D02*
X4402Y35666D01*
X4311Y35628D01*
X4232Y35568D01*
X4172Y35489D01*
X4134Y35398D01*
X4121Y35300D01*
X4134Y35202D01*
X4172Y35111D01*
X4232Y35032D01*
X4311Y34972D01*
X4402Y34934D01*
X4500Y34921D01*
X4598Y34934D01*
X4635Y34949D01*
X6277Y33307D01*
X6268Y33245D01*
X6204Y33196D01*
X6138Y33109D01*
X6096Y33008D01*
X6081Y32900D01*
X6096Y32792D01*
X6138Y32691D01*
X6204Y32604D01*
X6291Y32538D01*
X6392Y32496D01*
X6500Y32481D01*
X6608Y32496D01*
X6709Y32538D01*
X6796Y32604D01*
X6862Y32691D01*
X6904Y32792D01*
X6919Y32900D01*
X6904Y33008D01*
X6862Y33109D01*
X6796Y33196D01*
X6709Y33262D01*
X6653Y33286D01*
Y33300D01*
X6641Y33359D01*
X6608Y33408D01*
X4851Y35165D01*
X4866Y35202D01*
X4879Y35300D01*
X4866Y35398D01*
X4828Y35489D01*
X4768Y35568D01*
X4689Y35628D01*
X4598Y35666D01*
X4500Y35679D01*
D02*
G37*
G36*
X5500Y33319D02*
X5392Y33304D01*
X5291Y33262D01*
X5204Y33196D01*
X5138Y33109D01*
X5096Y33008D01*
X5081Y32900D01*
X5096Y32792D01*
X5138Y32691D01*
X5204Y32604D01*
X5291Y32538D01*
X5392Y32496D01*
X5500Y32481D01*
X5608Y32496D01*
X5709Y32538D01*
X5796Y32604D01*
X5862Y32691D01*
X5904Y32792D01*
X5919Y32900D01*
X5904Y33008D01*
X5862Y33109D01*
X5796Y33196D01*
X5709Y33262D01*
X5608Y33304D01*
X5500Y33319D01*
D02*
G37*
G36*
X20100Y32879D02*
X20002Y32866D01*
X19911Y32828D01*
X19832Y32768D01*
X19772Y32689D01*
X19734Y32598D01*
X19721Y32500D01*
X19734Y32402D01*
X19772Y32311D01*
X19832Y32232D01*
X19911Y32172D01*
X20002Y32134D01*
X20100Y32121D01*
X20198Y32134D01*
X20289Y32172D01*
X20368Y32232D01*
X20428Y32311D01*
X20466Y32402D01*
X20479Y32500D01*
X20466Y32598D01*
X20428Y32689D01*
X20368Y32768D01*
X20289Y32828D01*
X20198Y32866D01*
X20100Y32879D01*
D02*
G37*
G36*
X4550Y31672D02*
Y31350D01*
X4872D01*
X4866Y31398D01*
X4828Y31489D01*
X4768Y31568D01*
X4689Y31628D01*
X4598Y31666D01*
X4550Y31672D01*
D02*
G37*
G36*
X3812Y32950D02*
X3400D01*
X2988D01*
X2996Y32892D01*
X3038Y32791D01*
X3104Y32704D01*
X3191Y32638D01*
X3247Y32614D01*
Y32400D01*
X3259Y32341D01*
X3292Y32292D01*
X4149Y31435D01*
X4134Y31398D01*
X4128Y31350D01*
X4450D01*
Y31672D01*
X4402Y31666D01*
X4365Y31651D01*
X3553Y32463D01*
Y32614D01*
X3609Y32638D01*
X3696Y32704D01*
X3762Y32791D01*
X3804Y32892D01*
X3812Y32950D01*
D02*
G37*
G36*
X27613Y31372D02*
Y31050D01*
X27935D01*
X27929Y31098D01*
X27891Y31189D01*
X27831Y31268D01*
X27752Y31328D01*
X27661Y31366D01*
X27613Y31372D01*
D02*
G37*
G36*
X27513D02*
X27465Y31366D01*
X27374Y31328D01*
X27295Y31268D01*
X27235Y31189D01*
X27197Y31098D01*
X27191Y31050D01*
X27513D01*
Y31372D01*
D02*
G37*
G36*
X4872Y31250D02*
X4550D01*
Y30928D01*
X4598Y30934D01*
X4689Y30972D01*
X4768Y31032D01*
X4828Y31111D01*
X4866Y31202D01*
X4872Y31250D01*
D02*
G37*
G36*
X4450D02*
X4128D01*
X4134Y31202D01*
X4149Y31165D01*
X3292Y30308D01*
X3259Y30259D01*
X3247Y30200D01*
Y27686D01*
X3191Y27662D01*
X3104Y27596D01*
X3038Y27509D01*
X2996Y27408D01*
X2988Y27350D01*
X3400D01*
X3812D01*
X3804Y27408D01*
X3762Y27509D01*
X3696Y27596D01*
X3609Y27662D01*
X3553Y27686D01*
Y30137D01*
X4365Y30949D01*
X4402Y30934D01*
X4450Y30928D01*
Y31250D01*
D02*
G37*
G36*
X1250Y31679D02*
X1152Y31666D01*
X1061Y31628D01*
X982Y31568D01*
X922Y31489D01*
X884Y31398D01*
X871Y31300D01*
X884Y31202D01*
X922Y31111D01*
X982Y31032D01*
X1061Y30972D01*
X1152Y30934D01*
X1250Y30921D01*
X1348Y30934D01*
X1439Y30972D01*
X1518Y31032D01*
X1578Y31111D01*
X1616Y31202D01*
X1629Y31300D01*
X1616Y31398D01*
X1578Y31489D01*
X1518Y31568D01*
X1439Y31628D01*
X1348Y31666D01*
X1250Y31679D01*
D02*
G37*
G36*
X28626Y35390D02*
X28374D01*
X28240Y35372D01*
X28115Y35320D01*
X28008Y35238D01*
X27926Y35131D01*
X27874Y35006D01*
X27856Y34872D01*
X27874Y34738D01*
X27926Y34613D01*
X28008Y34506D01*
X28115Y34424D01*
X28240Y34372D01*
X28337Y34359D01*
X28374Y34307D01*
X28374Y34304D01*
X28371Y34285D01*
Y30541D01*
X28321Y30526D01*
X28252Y30578D01*
X28161Y30616D01*
X28063Y30629D01*
X27965Y30616D01*
X27874Y30578D01*
X27795Y30518D01*
X27766Y30480D01*
X27716Y30497D01*
Y30657D01*
X27752Y30672D01*
X27831Y30732D01*
X27891Y30811D01*
X27929Y30902D01*
X27935Y30950D01*
X27563D01*
X27191D01*
X27197Y30902D01*
X27235Y30811D01*
X27295Y30732D01*
X27374Y30672D01*
X27410Y30657D01*
Y30497D01*
X27360Y30480D01*
X27331Y30518D01*
X27252Y30578D01*
X27161Y30616D01*
X27063Y30629D01*
X26965Y30616D01*
X26874Y30578D01*
X26795Y30518D01*
X26766Y30480D01*
X26716Y30497D01*
Y30657D01*
X26752Y30672D01*
X26831Y30732D01*
X26891Y30811D01*
X26929Y30902D01*
X26942Y31000D01*
X26929Y31098D01*
X26891Y31189D01*
X26831Y31268D01*
X26752Y31328D01*
X26661Y31366D01*
X26563Y31379D01*
X26465Y31366D01*
X26374Y31328D01*
X26295Y31268D01*
X26235Y31189D01*
X26197Y31098D01*
X26184Y31000D01*
X26197Y30902D01*
X26235Y30811D01*
X26295Y30732D01*
X26369Y30676D01*
X26369Y30660D01*
X26355Y30626D01*
X25687D01*
Y30413D01*
X25637Y30386D01*
X25629Y30391D01*
X25571Y30403D01*
X24740D01*
Y34285D01*
X24736Y34304D01*
X24762Y34345D01*
X24776Y34355D01*
X24902Y34372D01*
X25027Y34424D01*
X25134Y34506D01*
X25216Y34613D01*
X25268Y34738D01*
X25286Y34872D01*
X25268Y35006D01*
X25216Y35131D01*
X25134Y35238D01*
X25027Y35320D01*
X24902Y35372D01*
X24768Y35390D01*
X24516D01*
X24382Y35372D01*
X24257Y35320D01*
X24150Y35238D01*
X24067Y35131D01*
X24016Y35006D01*
X23998Y34872D01*
X24016Y34738D01*
X24067Y34613D01*
X24150Y34506D01*
X24257Y34424D01*
X24382Y34372D01*
X24406Y34369D01*
X24439Y34314D01*
X24434Y34285D01*
Y30250D01*
X24435Y30242D01*
X24404Y30203D01*
X24290D01*
X24231Y30191D01*
X24182Y30158D01*
X23728Y29705D01*
X23695Y29655D01*
X23684Y29597D01*
Y25093D01*
X23647Y25078D01*
X23569Y25018D01*
X23509Y24939D01*
X23471Y24848D01*
X23458Y24750D01*
X23471Y24652D01*
X23509Y24561D01*
X23569Y24482D01*
X23647Y24422D01*
X23739Y24384D01*
X23837Y24371D01*
X23935Y24384D01*
X24026Y24422D01*
X24104Y24482D01*
X24165Y24561D01*
X24203Y24652D01*
X24215Y24750D01*
X24203Y24848D01*
X24165Y24939D01*
X24104Y25018D01*
X24026Y25078D01*
X23990Y25093D01*
Y29533D01*
X24353Y29897D01*
X25687D01*
Y29874D01*
X26173D01*
X26192Y29828D01*
X24922Y28558D01*
X24889Y28509D01*
X24877Y28450D01*
Y28406D01*
X24827Y28396D01*
X24817Y28420D01*
X24763Y28490D01*
X24693Y28544D01*
X24611Y28578D01*
X24524Y28589D01*
X24436Y28578D01*
X24354Y28544D01*
X24284Y28490D01*
X24230Y28420D01*
X24196Y28338D01*
X24185Y28250D01*
X24196Y28162D01*
X24230Y28080D01*
X24284Y28010D01*
X24354Y27956D01*
X24436Y27922D01*
X24524Y27911D01*
X24611Y27922D01*
X24693Y27956D01*
X24763Y28010D01*
X24817Y28080D01*
X24827Y28104D01*
X24877Y28094D01*
Y27320D01*
X24628Y27071D01*
X24611Y27078D01*
X24524Y27089D01*
X24436Y27078D01*
X24354Y27044D01*
X24284Y26990D01*
X24230Y26920D01*
X24196Y26838D01*
X24185Y26750D01*
X24196Y26662D01*
X24230Y26580D01*
X24284Y26510D01*
X24354Y26456D01*
X24436Y26422D01*
X24524Y26411D01*
X24611Y26422D01*
X24693Y26456D01*
X24763Y26510D01*
X24817Y26580D01*
X24851Y26662D01*
X24863Y26750D01*
X24851Y26838D01*
X24844Y26854D01*
X25138Y27148D01*
X25171Y27198D01*
X25183Y27256D01*
Y28044D01*
X25227Y28077D01*
X25233Y28077D01*
X25284Y28010D01*
X25354Y27956D01*
X25371Y27949D01*
Y27051D01*
X25354Y27044D01*
X25284Y26990D01*
X25230Y26920D01*
X25196Y26838D01*
X25191Y26800D01*
X25856D01*
X25851Y26838D01*
X25817Y26920D01*
X25763Y26990D01*
X25693Y27044D01*
X25677Y27051D01*
Y27949D01*
X25693Y27956D01*
X25763Y28010D01*
X25817Y28080D01*
X25824Y28097D01*
X26213D01*
X26272Y28109D01*
X26321Y28142D01*
X27671Y29492D01*
X27704Y29541D01*
X27716Y29600D01*
Y30003D01*
X27766Y30020D01*
X27795Y29982D01*
X27834Y29953D01*
Y28211D01*
X27851Y28123D01*
X27851Y28123D01*
X27851Y28123D01*
X27901Y28048D01*
X27901Y28048D01*
X28186Y27763D01*
X28184Y27750D01*
X28196Y27662D01*
X28230Y27580D01*
X28284Y27510D01*
X28354Y27456D01*
X28436Y27422D01*
X28524Y27411D01*
X28611Y27422D01*
X28628Y27429D01*
X29097Y26960D01*
Y26227D01*
X27971Y25101D01*
X27935Y25116D01*
X27837Y25129D01*
X27739Y25116D01*
X27647Y25078D01*
X27569Y25018D01*
X27509Y24939D01*
X27471Y24848D01*
X27458Y24750D01*
X27471Y24652D01*
X27509Y24561D01*
X27569Y24482D01*
X27647Y24422D01*
X27739Y24384D01*
X27837Y24371D01*
X27935Y24384D01*
X28026Y24422D01*
X28104Y24482D01*
X28165Y24561D01*
X28203Y24652D01*
X28215Y24750D01*
X28203Y24848D01*
X28187Y24885D01*
X29358Y26055D01*
X29391Y26105D01*
X29403Y26163D01*
Y26589D01*
X29449Y26608D01*
X29597Y26460D01*
Y14063D01*
X29087Y13553D01*
X28808D01*
X28803Y13603D01*
X28832Y13609D01*
X28882Y13642D01*
X28915Y13691D01*
X28927Y13750D01*
Y17785D01*
X28922Y17810D01*
X28957Y17865D01*
X29010Y17872D01*
X29135Y17924D01*
X29242Y18006D01*
X29324Y18113D01*
X29376Y18238D01*
X29394Y18372D01*
X29376Y18506D01*
X29324Y18631D01*
X29242Y18738D01*
X29135Y18820D01*
X29010Y18872D01*
X28876Y18890D01*
X28624D01*
X28490Y18872D01*
X28365Y18820D01*
X28258Y18738D01*
X28176Y18631D01*
X28124Y18506D01*
X28106Y18372D01*
X28124Y18238D01*
X28176Y18113D01*
X28258Y18006D01*
X28365Y17924D01*
X28490Y17872D01*
X28587Y17859D01*
X28624Y17807D01*
X28624Y17804D01*
X28621Y17785D01*
Y14041D01*
X28571Y14026D01*
X28502Y14078D01*
X28411Y14116D01*
X28313Y14129D01*
X28215Y14116D01*
X28124Y14078D01*
X28045Y14018D01*
X27985Y13939D01*
X27947Y13848D01*
X27934Y13750D01*
X27947Y13652D01*
X27985Y13561D01*
X28045Y13482D01*
X28124Y13422D01*
X28215Y13384D01*
X28313Y13371D01*
X28411Y13384D01*
X28448Y13399D01*
X28555Y13292D01*
X28604Y13259D01*
X28663Y13247D01*
X29150D01*
X29209Y13259D01*
X29258Y13292D01*
X29551Y13585D01*
X29597Y13565D01*
Y12790D01*
X28628Y11821D01*
X28611Y11828D01*
X28524Y11839D01*
X28436Y11828D01*
X28354Y11794D01*
X28284Y11740D01*
X28230Y11670D01*
X28196Y11588D01*
X28184Y11500D01*
X28196Y11412D01*
X28203Y11396D01*
X26516Y9709D01*
X26466Y9729D01*
Y13374D01*
X26689D01*
Y14091D01*
X26694Y14100D01*
X26736Y14131D01*
X26813Y14121D01*
X26911Y14134D01*
X27002Y14172D01*
X27081Y14232D01*
X27141Y14311D01*
X27179Y14402D01*
X27192Y14500D01*
X27179Y14598D01*
X27141Y14689D01*
X27081Y14768D01*
X27002Y14828D01*
X26966Y14843D01*
Y17527D01*
X26954Y17586D01*
X26921Y17635D01*
X25508Y19048D01*
X25459Y19081D01*
X25400Y19093D01*
X25281D01*
X25272Y19142D01*
X25277Y19144D01*
X25384Y19226D01*
X25466Y19334D01*
X25518Y19459D01*
X25536Y19593D01*
X25518Y19727D01*
X25466Y19851D01*
X25384Y19959D01*
X25277Y20041D01*
X25152Y20093D01*
X25018Y20110D01*
X24766D01*
X24632Y20093D01*
X24507Y20041D01*
X24400Y19959D01*
X24317Y19851D01*
X24266Y19727D01*
X24248Y19593D01*
X24266Y19459D01*
X24317Y19334D01*
X24400Y19226D01*
X24507Y19144D01*
X24512Y19142D01*
X24502Y19093D01*
X24400D01*
X24341Y19081D01*
X24292Y19048D01*
X24092Y18848D01*
X24059Y18799D01*
X24047Y18740D01*
Y11137D01*
X24059Y11078D01*
X24092Y11028D01*
X24516Y10604D01*
X24509Y10588D01*
X24497Y10500D01*
X24509Y10412D01*
X24543Y10330D01*
X24597Y10260D01*
X24667Y10206D01*
X24749Y10172D01*
X24837Y10161D01*
X24924Y10172D01*
X25006Y10206D01*
X25076Y10260D01*
X25130Y10330D01*
X25164Y10412D01*
X25176Y10500D01*
X25164Y10588D01*
X25130Y10670D01*
X25076Y10740D01*
X25006Y10794D01*
X24924Y10828D01*
X24837Y10839D01*
X24749Y10828D01*
X24732Y10821D01*
X24353Y11200D01*
Y17990D01*
X24380Y17999D01*
X24403Y18003D01*
X24507Y17924D01*
X24632Y17872D01*
X24656Y17869D01*
X24689Y17814D01*
X24684Y17785D01*
Y13750D01*
X24695Y13691D01*
X24728Y13642D01*
X24778Y13609D01*
X24837Y13597D01*
X25821D01*
X25879Y13609D01*
X25887Y13614D01*
X25937Y13587D01*
Y13374D01*
X26160D01*
Y12213D01*
X26110Y12196D01*
X26076Y12240D01*
X26006Y12294D01*
X25924Y12328D01*
X25887Y12333D01*
Y12000D01*
X25837D01*
Y11950D01*
X25504D01*
X25509Y11912D01*
X25543Y11830D01*
X25597Y11760D01*
X25667Y11706D01*
X25684Y11699D01*
Y10801D01*
X25667Y10794D01*
X25597Y10740D01*
X25543Y10670D01*
X25509Y10588D01*
X25504Y10550D01*
X25837D01*
Y10500D01*
X25887D01*
Y10167D01*
X25924Y10172D01*
X26006Y10206D01*
X26076Y10260D01*
X26110Y10304D01*
X26160Y10287D01*
Y9769D01*
X24908Y8517D01*
X24872Y8532D01*
X24774Y8545D01*
X24676Y8532D01*
X24584Y8494D01*
X24506Y8434D01*
X24446Y8356D01*
X24408Y8264D01*
X24395Y8166D01*
X24408Y8068D01*
X24446Y7977D01*
X24506Y7898D01*
X24584Y7838D01*
X24676Y7800D01*
X24774Y7787D01*
X24872Y7800D01*
X24963Y7838D01*
X25041Y7898D01*
X25102Y7977D01*
X25140Y8068D01*
X25152Y8166D01*
X25140Y8264D01*
X25124Y8301D01*
X26297Y9473D01*
X26347Y9453D01*
Y5401D01*
X26105D01*
Y5235D01*
X25072D01*
X25032Y5288D01*
X24949Y5351D01*
X24903Y5370D01*
Y5480D01*
X24891Y5539D01*
X24858Y5588D01*
X24139Y6307D01*
X24090Y6340D01*
X24031Y6352D01*
X21000D01*
X20941Y6340D01*
X20892Y6307D01*
X20692Y6107D01*
X20659Y6058D01*
X20647Y5999D01*
Y5447D01*
X20659Y5388D01*
X20672Y5368D01*
X20668Y5349D01*
X20612Y5335D01*
X19851Y6095D01*
X19861Y6119D01*
X19873Y6210D01*
X19861Y6301D01*
X19826Y6387D01*
X19770Y6460D01*
X19697Y6516D01*
X19611Y6551D01*
X19520Y6563D01*
X19429Y6551D01*
X19343Y6516D01*
X19270Y6460D01*
X19214Y6387D01*
X19179Y6301D01*
X19167Y6210D01*
X19176Y6141D01*
X19129Y6114D01*
X19127Y6116D01*
X19041Y6151D01*
X18950Y6163D01*
X18859Y6151D01*
X18774Y6116D01*
X18700Y6060D01*
X18644Y5987D01*
X18609Y5901D01*
X18597Y5810D01*
X18609Y5719D01*
X18644Y5633D01*
X18700Y5560D01*
X18743Y5528D01*
X18726Y5478D01*
X18563D01*
X18542Y5495D01*
Y6405D01*
X18863Y6726D01*
X22216D01*
X22274Y6738D01*
X22324Y6771D01*
X25732Y10179D01*
X25749Y10172D01*
X25787Y10167D01*
Y10450D01*
X25504D01*
X25509Y10412D01*
X25516Y10396D01*
X22152Y7032D01*
X18800D01*
X18741Y7020D01*
X18692Y6987D01*
X18281Y6576D01*
X18248Y6527D01*
X18236Y6468D01*
Y5285D01*
X18247Y5232D01*
X18243Y5217D01*
X18224Y5182D01*
X17746D01*
X17688Y5171D01*
X17638Y5138D01*
X17579Y5078D01*
X17546Y5029D01*
X17534Y4970D01*
Y2633D01*
X17546Y2575D01*
X17549Y2569D01*
X17523Y2519D01*
X17000D01*
X16941Y2508D01*
X16892Y2474D01*
X16732Y2314D01*
X16699Y2265D01*
X16695Y2247D01*
X16645Y2252D01*
Y2645D01*
X16403D01*
Y2886D01*
X16449Y2905D01*
X16532Y2968D01*
X16595Y3051D01*
X16614Y3097D01*
X16989D01*
X17048Y3109D01*
X17097Y3142D01*
X17403Y3448D01*
X17437Y3498D01*
X17448Y3556D01*
Y6292D01*
X17884Y6727D01*
X17917Y6777D01*
X17929Y6836D01*
Y26854D01*
X17917Y26913D01*
X17884Y26963D01*
X17803Y27043D01*
Y28623D01*
X17848Y28645D01*
X17853Y28641D01*
X17926Y28611D01*
X18003Y28601D01*
X18150D01*
Y28900D01*
X18250D01*
Y28601D01*
X18397D01*
X18474Y28611D01*
X18547Y28641D01*
X18609Y28688D01*
X18654Y28747D01*
X19760D01*
X19782Y28702D01*
X19772Y28689D01*
X19734Y28598D01*
X19721Y28500D01*
X19734Y28402D01*
X19772Y28311D01*
X19832Y28232D01*
X19911Y28172D01*
X20002Y28134D01*
X20100Y28121D01*
X20198Y28134D01*
X20289Y28172D01*
X20368Y28232D01*
X20428Y28311D01*
X20466Y28402D01*
X20479Y28500D01*
X20466Y28598D01*
X20428Y28689D01*
X20368Y28768D01*
X20289Y28828D01*
X20198Y28866D01*
X20196Y28866D01*
X20180Y28914D01*
X21308Y30042D01*
X21341Y30091D01*
X21353Y30150D01*
Y32157D01*
X21389Y32172D01*
X21468Y32232D01*
X21528Y32311D01*
X21566Y32402D01*
X21572Y32450D01*
X21200D01*
X20828D01*
X20834Y32402D01*
X20872Y32311D01*
X20932Y32232D01*
X21011Y32172D01*
X21047Y32157D01*
Y30213D01*
X19887Y29053D01*
X18903D01*
Y30240D01*
X18891Y30299D01*
X18858Y30348D01*
X18508Y30698D01*
X18459Y30731D01*
X18400Y30743D01*
X17960D01*
X17901Y30731D01*
X17852Y30698D01*
X17242Y30088D01*
X17209Y30039D01*
X17197Y29980D01*
Y26051D01*
X17180Y26044D01*
X17110Y25990D01*
X17056Y25920D01*
X17022Y25838D01*
X17017Y25800D01*
X17350D01*
Y25700D01*
X17017D01*
X17022Y25662D01*
X17056Y25580D01*
X17110Y25510D01*
X17180Y25456D01*
X17197Y25449D01*
Y23711D01*
X17159Y23678D01*
X17150Y23679D01*
X17052Y23666D01*
X16961Y23628D01*
X16923Y23599D01*
X16873Y23624D01*
Y30380D01*
X16861Y30439D01*
X16828Y30488D01*
X13798Y33518D01*
X13621Y33696D01*
X13628Y33712D01*
X13639Y33800D01*
X13628Y33888D01*
X13594Y33970D01*
X13540Y34040D01*
X13470Y34094D01*
X13388Y34128D01*
X13300Y34139D01*
X13212Y34128D01*
X13130Y34094D01*
X13060Y34040D01*
X13006Y33970D01*
X12972Y33888D01*
X12961Y33800D01*
X12972Y33712D01*
X13006Y33630D01*
X13060Y33560D01*
X13130Y33506D01*
X13212Y33472D01*
X13300Y33461D01*
X13388Y33472D01*
X13404Y33479D01*
X13537Y33347D01*
Y33098D01*
X13492Y33076D01*
X13470Y33094D01*
X13388Y33128D01*
X13350Y33133D01*
Y32800D01*
X13250D01*
Y33133D01*
X13212Y33128D01*
X13130Y33094D01*
X13060Y33040D01*
X13006Y32970D01*
X12999Y32953D01*
X12803D01*
X12328Y33428D01*
X12279Y33461D01*
X12220Y33473D01*
X11518D01*
Y34148D01*
X11082D01*
Y33927D01*
X10611D01*
X10038Y33934D01*
X10037Y33934D01*
X10036Y33934D01*
X9508D01*
X9494Y33970D01*
X9440Y34040D01*
X9370Y34094D01*
X9288Y34128D01*
X9200Y34139D01*
X9112Y34128D01*
X9030Y34094D01*
X8960Y34040D01*
X8906Y33970D01*
X8872Y33888D01*
X8861Y33800D01*
X8872Y33712D01*
X8906Y33630D01*
X8960Y33560D01*
X9030Y33506D01*
X9112Y33472D01*
X9200Y33461D01*
X9288Y33472D01*
X9370Y33506D01*
X9440Y33560D01*
X9492Y33628D01*
X9883D01*
Y32500D01*
X9895Y32441D01*
X9928Y32392D01*
X12097Y30222D01*
Y29546D01*
X12109Y29488D01*
X12142Y29438D01*
X12288Y29292D01*
X12338Y29259D01*
X12396Y29247D01*
X12507D01*
X12522Y29211D01*
X12582Y29132D01*
X12661Y29072D01*
X12697Y29057D01*
Y26913D01*
X11535Y25751D01*
X11498Y25766D01*
X11400Y25779D01*
X11302Y25766D01*
X11211Y25728D01*
X11132Y25668D01*
X11072Y25589D01*
X11034Y25498D01*
X11021Y25400D01*
X11034Y25302D01*
X11049Y25265D01*
X10437Y24653D01*
X3700D01*
X3641Y24641D01*
X3592Y24608D01*
X2550Y23566D01*
X2503Y23585D01*
X2400Y23599D01*
X2297Y23585D01*
X2201Y23545D01*
X2118Y23482D01*
X2055Y23399D01*
X2015Y23303D01*
X2001Y23200D01*
X2015Y23097D01*
X2055Y23001D01*
X2118Y22918D01*
X2171Y22878D01*
Y20800D01*
X2188Y20712D01*
X2238Y20638D01*
X2500Y20376D01*
X2481Y20329D01*
X1648D01*
X1640Y20340D01*
X1570Y20394D01*
X1488Y20428D01*
X1400Y20439D01*
X1312Y20428D01*
X1230Y20394D01*
X1160Y20340D01*
X1106Y20270D01*
X1072Y20188D01*
X1061Y20100D01*
X1063Y20087D01*
X338Y19362D01*
X288Y19288D01*
X271Y19200D01*
Y16300D01*
X288Y16212D01*
X338Y16138D01*
X830Y15646D01*
Y15265D01*
X839Y15256D01*
X672Y15088D01*
X639Y15039D01*
X627Y14980D01*
Y12720D01*
X639Y12661D01*
X672Y12612D01*
X1543Y11741D01*
X1521Y11696D01*
X1500Y11699D01*
X1397Y11685D01*
X1301Y11645D01*
X1218Y11582D01*
X1155Y11499D01*
X1115Y11403D01*
X1108Y11350D01*
X1500D01*
Y11300D01*
X1550D01*
Y10908D01*
X1603Y10915D01*
X1699Y10955D01*
X1782Y11018D01*
X1845Y11101D01*
X1885Y11197D01*
X1899Y11300D01*
X1896Y11321D01*
X1941Y11343D01*
X2805Y10479D01*
Y9905D01*
X2971D01*
Y6550D01*
X2988Y6462D01*
X3038Y6388D01*
X7110Y2316D01*
X7101Y2250D01*
X7115Y2147D01*
X7155Y2051D01*
X7218Y1968D01*
X7301Y1905D01*
X7397Y1865D01*
X7500Y1851D01*
X7566Y1860D01*
X8088Y1338D01*
X8162Y1288D01*
X8250Y1271D01*
X9250D01*
X9338Y1288D01*
X9412Y1338D01*
X9951Y1877D01*
X9980Y1865D01*
X10083Y1851D01*
X10149Y1860D01*
X10671Y1338D01*
X10746Y1288D01*
X10833Y1271D01*
X11917D01*
X12004Y1288D01*
X12079Y1338D01*
X12601Y1860D01*
X12667Y1851D01*
X12770Y1865D01*
X12866Y1905D01*
X12949Y1968D01*
X13012Y2051D01*
X13052Y2147D01*
X13065Y2250D01*
X13052Y2353D01*
X13012Y2449D01*
X12949Y2532D01*
X12866Y2595D01*
X12770Y2635D01*
X12667Y2649D01*
X12601Y2640D01*
X12229Y3012D01*
Y3160D01*
X12279Y3163D01*
X12282Y3147D01*
X12321Y3051D01*
X12385Y2968D01*
X12467Y2905D01*
X12563Y2865D01*
X12667Y2851D01*
X12770Y2865D01*
X12866Y2905D01*
X12949Y2968D01*
X13012Y3051D01*
X13052Y3147D01*
X13065Y3250D01*
X13052Y3353D01*
X13012Y3449D01*
X12949Y3532D01*
X12866Y3595D01*
X12770Y3635D01*
X12667Y3649D01*
X12563Y3635D01*
X12467Y3595D01*
X12385Y3532D01*
X12321Y3449D01*
X12282Y3353D01*
X12279Y3337D01*
X12229Y3340D01*
Y4160D01*
X12279Y4163D01*
X12282Y4147D01*
X12321Y4051D01*
X12385Y3968D01*
X12467Y3905D01*
X12563Y3865D01*
X12667Y3851D01*
X12770Y3865D01*
X12816Y3884D01*
X13059Y3642D01*
X13108Y3609D01*
X13167Y3597D01*
X13388D01*
X13404Y3547D01*
X13385Y3532D01*
X13321Y3449D01*
X13282Y3353D01*
X13268Y3250D01*
X13282Y3147D01*
X13321Y3051D01*
X13385Y2968D01*
X13467Y2905D01*
X13514Y2886D01*
Y2645D01*
X13271D01*
Y1855D01*
X14062D01*
Y2645D01*
X13820D01*
Y2886D01*
X13866Y2905D01*
X13949Y2968D01*
X14012Y3051D01*
X14052Y3147D01*
X14065Y3250D01*
X14052Y3353D01*
X14012Y3449D01*
X14006Y3457D01*
X14044Y3490D01*
X14297Y3237D01*
Y2000D01*
X14309Y1941D01*
X14342Y1892D01*
X14842Y1392D01*
X14891Y1359D01*
X14950Y1347D01*
X18380D01*
X18439Y1359D01*
X18488Y1392D01*
X18773Y1677D01*
X19344D01*
X19361Y1627D01*
X19351Y1620D01*
X19295Y1547D01*
X19260Y1461D01*
X19248Y1370D01*
X19260Y1279D01*
X19295Y1193D01*
X19351Y1120D01*
X19424Y1064D01*
X19509Y1029D01*
X19601Y1017D01*
X19692Y1029D01*
X19777Y1064D01*
X19850Y1120D01*
X19906Y1193D01*
X19942Y1279D01*
X19954Y1370D01*
X19942Y1461D01*
X19932Y1485D01*
X20246Y1799D01*
X20281Y1794D01*
X20303Y1785D01*
X20332Y1742D01*
X21142Y932D01*
X21191Y899D01*
X21250Y887D01*
X26400D01*
X26459Y899D01*
X26508Y932D01*
X27058Y1482D01*
X27091Y1531D01*
X27103Y1590D01*
Y3556D01*
X27091Y3614D01*
X27058Y3664D01*
X26866Y3856D01*
X26885Y3903D01*
X26899Y4006D01*
X26885Y4109D01*
X26845Y4205D01*
X26782Y4288D01*
X26699Y4351D01*
X26685Y4357D01*
X26695Y4407D01*
X27633D01*
X27884Y4155D01*
X27865Y4109D01*
X27851Y4006D01*
X27865Y3903D01*
X27905Y3807D01*
X27968Y3724D01*
X28051Y3661D01*
X28147Y3621D01*
X28250Y3607D01*
X28353Y3621D01*
X28449Y3661D01*
X28532Y3724D01*
X28595Y3807D01*
X28635Y3903D01*
X28649Y4006D01*
X28635Y4109D01*
X28595Y4205D01*
X28532Y4288D01*
X28449Y4351D01*
X28353Y4391D01*
X28250Y4405D01*
X28147Y4391D01*
X28100Y4372D01*
X27908Y4564D01*
X27927Y4611D01*
X28645D01*
Y5401D01*
X27855D01*
Y4683D01*
X27809Y4664D01*
X27804Y4668D01*
X27754Y4701D01*
X27696Y4713D01*
X26895D01*
Y5401D01*
X26653D01*
Y9413D01*
X28419Y11179D01*
X28436Y11172D01*
X28524Y11161D01*
X28611Y11172D01*
X28628Y11179D01*
X29097Y10710D01*
Y8619D01*
X29081Y8608D01*
X28965Y8493D01*
X28963Y8494D01*
X28872Y8532D01*
X28774Y8545D01*
X28676Y8532D01*
X28584Y8494D01*
X28506Y8434D01*
X28446Y8356D01*
X28408Y8264D01*
X28395Y8166D01*
X28408Y8068D01*
X28446Y7977D01*
X28506Y7898D01*
X28584Y7838D01*
X28676Y7800D01*
X28774Y7787D01*
X28872Y7800D01*
X28963Y7838D01*
X29041Y7898D01*
X29102Y7977D01*
X29140Y8068D01*
X29152Y8166D01*
X29143Y8238D01*
X29253Y8348D01*
X29309Y8359D01*
X29358Y8392D01*
X29391Y8441D01*
X29403Y8500D01*
Y10774D01*
X29391Y10832D01*
X29358Y10882D01*
X28844Y11396D01*
X28851Y11412D01*
X28863Y11500D01*
X28851Y11588D01*
X28844Y11604D01*
X29858Y12618D01*
X29891Y12668D01*
X29903Y12726D01*
Y14000D01*
Y26524D01*
X29891Y26582D01*
X29858Y26632D01*
X29358Y27132D01*
X29358Y27132D01*
X28844Y27646D01*
X28851Y27662D01*
X28863Y27750D01*
X28851Y27838D01*
X28817Y27920D01*
X28763Y27990D01*
X28693Y28044D01*
X28611Y28078D01*
X28524Y28089D01*
X28511Y28087D01*
X28292Y28306D01*
Y29953D01*
X28331Y29982D01*
X28391Y30061D01*
X28408Y30101D01*
X28456Y30115D01*
X28465Y30109D01*
X28524Y30097D01*
X28582Y30109D01*
X28632Y30142D01*
X28665Y30191D01*
X28677Y30250D01*
Y34285D01*
X28672Y34310D01*
X28707Y34365D01*
X28760Y34372D01*
X28885Y34424D01*
X28992Y34506D01*
X29074Y34613D01*
X29126Y34738D01*
X29144Y34872D01*
X29126Y35006D01*
X29074Y35131D01*
X28992Y35238D01*
X28885Y35320D01*
X28760Y35372D01*
X28626Y35390D01*
D02*
G37*
G36*
X9533Y32750D02*
X9200D01*
X8867D01*
X8872Y32712D01*
X8879Y32696D01*
X7132Y30948D01*
X7099Y30899D01*
X7087Y30840D01*
Y26085D01*
X7041Y26065D01*
X6653Y26453D01*
Y26914D01*
X6709Y26938D01*
X6796Y27004D01*
X6862Y27091D01*
X6904Y27192D01*
X6912Y27250D01*
X6500D01*
X6088D01*
X6096Y27192D01*
X6138Y27091D01*
X6204Y27004D01*
X6291Y26938D01*
X6347Y26914D01*
Y26390D01*
X6359Y26331D01*
X6392Y26282D01*
X7132Y25542D01*
X7492Y25182D01*
X7541Y25149D01*
X7600Y25137D01*
X8800D01*
X8859Y25149D01*
X8908Y25182D01*
X9494Y25768D01*
X9527Y25817D01*
X9532Y25843D01*
X9581Y25853D01*
X9652Y25900D01*
X9698Y25970D01*
X9715Y26053D01*
Y26175D01*
X9386D01*
X9057D01*
Y26053D01*
X9073Y25970D01*
X9120Y25900D01*
X9131Y25892D01*
X9136Y25842D01*
X8737Y25443D01*
X7663D01*
X7393Y25713D01*
Y25817D01*
X7443Y25849D01*
X7506Y25836D01*
X7731D01*
X7814Y25853D01*
X7884Y25900D01*
X7931Y25970D01*
X7947Y26053D01*
Y26398D01*
X7931Y26481D01*
X7884Y26551D01*
X7814Y26598D01*
X7771Y26606D01*
Y28939D01*
X7821Y28960D01*
X7989Y28792D01*
X8038Y28759D01*
X8097Y28747D01*
X10140D01*
X10199Y28759D01*
X10248Y28792D01*
X10703Y29247D01*
X11057D01*
X11072Y29211D01*
X11132Y29132D01*
X11211Y29072D01*
X11302Y29034D01*
X11400Y29021D01*
X11498Y29034D01*
X11589Y29072D01*
X11668Y29132D01*
X11728Y29211D01*
X11766Y29302D01*
X11779Y29400D01*
X11766Y29498D01*
X11728Y29589D01*
X11668Y29668D01*
X11589Y29728D01*
X11498Y29766D01*
X11400Y29779D01*
X11302Y29766D01*
X11211Y29728D01*
X11132Y29668D01*
X11072Y29589D01*
X11057Y29553D01*
X10640D01*
X10581Y29541D01*
X10532Y29508D01*
X10077Y29053D01*
X9712D01*
X9685Y29103D01*
X9698Y29123D01*
X9715Y29206D01*
Y29329D01*
X9386D01*
X9057D01*
Y29206D01*
X9073Y29123D01*
X9087Y29103D01*
X9060Y29053D01*
X8160D01*
X7947Y29266D01*
Y29551D01*
X7931Y29634D01*
X7884Y29704D01*
X7814Y29751D01*
X7731Y29768D01*
X7506D01*
X7443Y29755D01*
X7393Y29787D01*
Y30777D01*
X9096Y32479D01*
X9112Y32472D01*
X9200Y32461D01*
X9233Y32432D01*
Y29760D01*
X9190Y29751D01*
X9120Y29704D01*
X9073Y29634D01*
X9057Y29551D01*
Y29429D01*
X9386D01*
X9715D01*
Y29551D01*
X9698Y29634D01*
X9652Y29704D01*
X9581Y29751D01*
X9539Y29760D01*
Y32614D01*
X9527Y32673D01*
X9517Y32687D01*
X9528Y32712D01*
X9533Y32750D01*
D02*
G37*
G36*
X21200Y28879D02*
X21102Y28866D01*
X21011Y28828D01*
X20932Y28768D01*
X20872Y28689D01*
X20834Y28598D01*
X20821Y28500D01*
X20834Y28402D01*
X20872Y28311D01*
X20932Y28232D01*
X21011Y28172D01*
X21102Y28134D01*
X21200Y28121D01*
X21298Y28134D01*
X21389Y28172D01*
X21468Y28232D01*
X21528Y28311D01*
X21566Y28402D01*
X21579Y28500D01*
X21566Y28598D01*
X21528Y28689D01*
X21468Y28768D01*
X21389Y28828D01*
X21298Y28866D01*
X21200Y28879D01*
D02*
G37*
G36*
X6550Y27712D02*
Y27350D01*
X6912D01*
X6904Y27408D01*
X6862Y27509D01*
X6796Y27596D01*
X6709Y27662D01*
X6608Y27704D01*
X6550Y27712D01*
D02*
G37*
G36*
X6450D02*
X6392Y27704D01*
X6291Y27662D01*
X6204Y27596D01*
X6138Y27509D01*
X6096Y27408D01*
X6088Y27350D01*
X6450D01*
Y27712D01*
D02*
G37*
G36*
X4500Y30079D02*
X4402Y30066D01*
X4311Y30028D01*
X4232Y29968D01*
X4172Y29889D01*
X4134Y29798D01*
X4121Y29700D01*
X4134Y29602D01*
X4172Y29511D01*
X4232Y29432D01*
X4311Y29372D01*
X4347Y29357D01*
Y28300D01*
X4359Y28241D01*
X4392Y28192D01*
X5119Y27465D01*
X5096Y27408D01*
X5081Y27300D01*
X5096Y27192D01*
X5138Y27091D01*
X5204Y27004D01*
X5291Y26938D01*
X5392Y26896D01*
X5500Y26881D01*
X5608Y26896D01*
X5709Y26938D01*
X5796Y27004D01*
X5862Y27091D01*
X5904Y27192D01*
X5919Y27300D01*
X5904Y27408D01*
X5862Y27509D01*
X5796Y27596D01*
X5709Y27662D01*
X5608Y27704D01*
X5500Y27719D01*
X5392Y27704D01*
X5335Y27681D01*
X4653Y28363D01*
Y29357D01*
X4689Y29372D01*
X4768Y29432D01*
X4828Y29511D01*
X4866Y29602D01*
X4879Y29700D01*
X4866Y29798D01*
X4828Y29889D01*
X4768Y29968D01*
X4689Y30028D01*
X4598Y30066D01*
X4500Y30079D01*
D02*
G37*
G36*
X1300D02*
X1202Y30066D01*
X1111Y30028D01*
X1032Y29968D01*
X972Y29889D01*
X934Y29798D01*
X921Y29700D01*
X934Y29602D01*
X972Y29511D01*
X1032Y29432D01*
X1111Y29372D01*
X1147Y29357D01*
Y28400D01*
X1159Y28341D01*
X1192Y28292D01*
X2019Y27465D01*
X1996Y27408D01*
X1981Y27300D01*
X1996Y27192D01*
X2038Y27091D01*
X2104Y27004D01*
X2191Y26938D01*
X2292Y26896D01*
X2400Y26881D01*
X2508Y26896D01*
X2609Y26938D01*
X2696Y27004D01*
X2762Y27091D01*
X2804Y27192D01*
X2819Y27300D01*
X2804Y27408D01*
X2762Y27509D01*
X2696Y27596D01*
X2609Y27662D01*
X2508Y27704D01*
X2400Y27719D01*
X2292Y27704D01*
X2235Y27681D01*
X1453Y28463D01*
Y29357D01*
X1489Y29372D01*
X1568Y29432D01*
X1628Y29511D01*
X1666Y29602D01*
X1679Y29700D01*
X1666Y29798D01*
X1628Y29889D01*
X1568Y29968D01*
X1489Y30028D01*
X1398Y30066D01*
X1300Y30079D01*
D02*
G37*
G36*
X28574Y27083D02*
Y26800D01*
X28856D01*
X28851Y26838D01*
X28817Y26920D01*
X28763Y26990D01*
X28693Y27044D01*
X28611Y27078D01*
X28574Y27083D01*
D02*
G37*
G36*
X28474D02*
X28436Y27078D01*
X28354Y27044D01*
X28284Y26990D01*
X28230Y26920D01*
X28196Y26838D01*
X28191Y26800D01*
X28474D01*
Y27083D01*
D02*
G37*
G36*
X28856Y26700D02*
X28574D01*
Y26417D01*
X28611Y26422D01*
X28693Y26456D01*
X28763Y26510D01*
X28817Y26580D01*
X28851Y26662D01*
X28856Y26700D01*
D02*
G37*
G36*
X25856D02*
X25574D01*
Y26417D01*
X25611Y26422D01*
X25693Y26456D01*
X25763Y26510D01*
X25817Y26580D01*
X25851Y26662D01*
X25856Y26700D01*
D02*
G37*
G36*
X25474D02*
X25191D01*
X25196Y26662D01*
X25230Y26580D01*
X25284Y26510D01*
X25354Y26456D01*
X25436Y26422D01*
X25474Y26417D01*
Y26700D01*
D02*
G37*
G36*
X28474D02*
X28191D01*
X28196Y26662D01*
X28230Y26580D01*
X28284Y26510D01*
X28354Y26456D01*
X28436Y26422D01*
X28474Y26417D01*
Y26700D01*
D02*
G37*
G36*
X9498Y26614D02*
X9436D01*
Y26275D01*
X9715D01*
Y26398D01*
X9698Y26481D01*
X9652Y26551D01*
X9581Y26598D01*
X9498Y26614D01*
D02*
G37*
G36*
X9336D02*
X9273D01*
X9190Y26598D01*
X9120Y26551D01*
X9073Y26481D01*
X9057Y26398D01*
Y26275D01*
X9336D01*
Y26614D01*
D02*
G37*
G36*
X4500Y26079D02*
X4402Y26066D01*
X4311Y26028D01*
X4232Y25968D01*
X4172Y25889D01*
X4134Y25798D01*
X4121Y25700D01*
X4134Y25602D01*
X4172Y25511D01*
X4232Y25432D01*
X4311Y25372D01*
X4402Y25334D01*
X4500Y25321D01*
X4598Y25334D01*
X4689Y25372D01*
X4768Y25432D01*
X4828Y25511D01*
X4866Y25602D01*
X4879Y25700D01*
X4866Y25798D01*
X4828Y25889D01*
X4768Y25968D01*
X4689Y26028D01*
X4598Y26066D01*
X4500Y26079D01*
D02*
G37*
G36*
X1300D02*
X1202Y26066D01*
X1111Y26028D01*
X1032Y25968D01*
X972Y25889D01*
X934Y25798D01*
X921Y25700D01*
X934Y25602D01*
X972Y25511D01*
X1032Y25432D01*
X1111Y25372D01*
X1202Y25334D01*
X1300Y25321D01*
X1398Y25334D01*
X1489Y25372D01*
X1568Y25432D01*
X1628Y25511D01*
X1666Y25602D01*
X1679Y25700D01*
X1666Y25798D01*
X1628Y25889D01*
X1568Y25968D01*
X1489Y26028D01*
X1398Y26066D01*
X1300Y26079D01*
D02*
G37*
G36*
X3812Y27250D02*
X3400D01*
X2988D01*
X2996Y27192D01*
X3038Y27091D01*
X3104Y27004D01*
X3191Y26938D01*
X3247Y26914D01*
Y25263D01*
X1550Y23566D01*
X1503Y23585D01*
X1450Y23592D01*
Y23250D01*
X1792D01*
X1785Y23303D01*
X1766Y23350D01*
X3508Y25092D01*
X3541Y25141D01*
X3553Y25200D01*
Y26914D01*
X3609Y26938D01*
X3696Y27004D01*
X3762Y27091D01*
X3804Y27192D01*
X3812Y27250D01*
D02*
G37*
G36*
X1350Y23592D02*
X1297Y23585D01*
X1201Y23545D01*
X1118Y23482D01*
X1055Y23399D01*
X1015Y23303D01*
X1008Y23250D01*
X1350D01*
Y23592D01*
D02*
G37*
G36*
X18350Y26089D02*
X18262Y26078D01*
X18180Y26044D01*
X18110Y25990D01*
X18056Y25920D01*
X18022Y25838D01*
X18011Y25750D01*
X18022Y25662D01*
X18056Y25580D01*
X18110Y25510D01*
X18180Y25456D01*
X18197Y25449D01*
Y23800D01*
X18209Y23741D01*
X18242Y23692D01*
X18499Y23435D01*
X18484Y23398D01*
X18471Y23300D01*
X18484Y23202D01*
X18522Y23111D01*
X18582Y23032D01*
X18661Y22972D01*
X18752Y22934D01*
X18850Y22921D01*
X18948Y22934D01*
X19039Y22972D01*
X19118Y23032D01*
X19178Y23111D01*
X19216Y23202D01*
X19229Y23300D01*
X19216Y23398D01*
X19178Y23489D01*
X19118Y23568D01*
X19039Y23628D01*
X18948Y23666D01*
X18850Y23679D01*
X18752Y23666D01*
X18715Y23651D01*
X18503Y23863D01*
Y25449D01*
X18520Y25456D01*
X18590Y25510D01*
X18644Y25580D01*
X18678Y25662D01*
X18689Y25750D01*
X18678Y25838D01*
X18644Y25920D01*
X18590Y25990D01*
X18520Y26044D01*
X18438Y26078D01*
X18350Y26089D01*
D02*
G37*
G36*
X1792Y23150D02*
X1450D01*
Y22808D01*
X1503Y22815D01*
X1599Y22855D01*
X1682Y22918D01*
X1745Y23001D01*
X1785Y23097D01*
X1792Y23150D01*
D02*
G37*
G36*
X1350D02*
X1008D01*
X1015Y23097D01*
X1055Y23001D01*
X1118Y22918D01*
X1201Y22855D01*
X1297Y22815D01*
X1350Y22808D01*
Y23150D01*
D02*
G37*
G36*
X28774Y23056D02*
X24837D01*
X24778Y23045D01*
X24728Y23012D01*
X24695Y22962D01*
X24684Y22904D01*
Y21329D01*
X24677Y21319D01*
X24632Y21313D01*
X24507Y21261D01*
X24400Y21179D01*
X24317Y21072D01*
X24266Y20947D01*
X24248Y20813D01*
X24266Y20679D01*
X24317Y20554D01*
X24400Y20447D01*
X24507Y20365D01*
X24632Y20313D01*
X24766Y20295D01*
X25018D01*
X25152Y20313D01*
X25277Y20365D01*
X25384Y20447D01*
X25466Y20554D01*
X25518Y20679D01*
X25536Y20813D01*
X25518Y20947D01*
X25466Y21072D01*
X25384Y21179D01*
X25277Y21261D01*
X25152Y21313D01*
X25018Y21331D01*
X24990D01*
Y22751D01*
X28621D01*
Y21330D01*
X28490Y21313D01*
X28365Y21261D01*
X28258Y21179D01*
X28176Y21072D01*
X28124Y20947D01*
X28106Y20813D01*
X28124Y20679D01*
X28176Y20554D01*
X28258Y20447D01*
X28365Y20365D01*
X28490Y20313D01*
X28624Y20295D01*
X28876D01*
X29010Y20313D01*
X29135Y20365D01*
X29242Y20447D01*
X29324Y20554D01*
X29376Y20679D01*
X29394Y20813D01*
X29376Y20947D01*
X29324Y21072D01*
X29242Y21179D01*
X29135Y21261D01*
X29010Y21313D01*
X28930Y21324D01*
X28927Y21329D01*
Y22904D01*
X28915Y22962D01*
X28882Y23012D01*
X28832Y23045D01*
X28774Y23056D01*
D02*
G37*
G36*
X28876Y20110D02*
X28624D01*
X28490Y20093D01*
X28365Y20041D01*
X28258Y19959D01*
X28176Y19851D01*
X28124Y19727D01*
X28106Y19593D01*
X28124Y19459D01*
X28176Y19334D01*
X28258Y19226D01*
X28365Y19144D01*
X28490Y19092D01*
X28624Y19075D01*
X28876D01*
X29010Y19092D01*
X29135Y19144D01*
X29242Y19226D01*
X29324Y19334D01*
X29376Y19459D01*
X29394Y19593D01*
X29376Y19727D01*
X29324Y19851D01*
X29242Y19959D01*
X29135Y20041D01*
X29010Y20093D01*
X28876Y20110D01*
D02*
G37*
G36*
X20450Y19679D02*
X20352Y19666D01*
X20261Y19628D01*
X20182Y19568D01*
X20122Y19489D01*
X20084Y19398D01*
X20071Y19300D01*
X20084Y19202D01*
X20122Y19111D01*
X20182Y19032D01*
X20261Y18972D01*
X20352Y18934D01*
X20450Y18921D01*
X20548Y18934D01*
X20639Y18972D01*
X20718Y19032D01*
X20778Y19111D01*
X20816Y19202D01*
X20829Y19300D01*
X20816Y19398D01*
X20778Y19489D01*
X20718Y19568D01*
X20639Y19628D01*
X20548Y19666D01*
X20450Y19679D01*
D02*
G37*
G36*
X18850D02*
X18752Y19666D01*
X18661Y19628D01*
X18582Y19568D01*
X18522Y19489D01*
X18484Y19398D01*
X18471Y19300D01*
X18484Y19202D01*
X18522Y19111D01*
X18582Y19032D01*
X18661Y18972D01*
X18752Y18934D01*
X18850Y18921D01*
X18948Y18934D01*
X19039Y18972D01*
X19118Y19032D01*
X19178Y19111D01*
X19216Y19202D01*
X19229Y19300D01*
X19216Y19398D01*
X19178Y19489D01*
X19118Y19568D01*
X19039Y19628D01*
X18948Y19666D01*
X18850Y19679D01*
D02*
G37*
G36*
X20450Y23679D02*
X20352Y23666D01*
X20261Y23628D01*
X20182Y23568D01*
X20122Y23489D01*
X20084Y23398D01*
X20071Y23300D01*
X20084Y23202D01*
X20122Y23111D01*
X20182Y23032D01*
X20261Y22972D01*
X20297Y22957D01*
Y21800D01*
X20309Y21741D01*
X20342Y21692D01*
X22584Y19450D01*
X22565Y19403D01*
X22551Y19300D01*
X22565Y19197D01*
X22605Y19101D01*
X22668Y19018D01*
X22751Y18955D01*
X22847Y18915D01*
X22950Y18901D01*
X23053Y18915D01*
X23149Y18955D01*
X23232Y19018D01*
X23295Y19101D01*
X23335Y19197D01*
X23349Y19300D01*
X23335Y19403D01*
X23295Y19499D01*
X23232Y19582D01*
X23149Y19645D01*
X23053Y19685D01*
X22950Y19699D01*
X22847Y19685D01*
X22800Y19666D01*
X20603Y21863D01*
Y22957D01*
X20639Y22972D01*
X20718Y23032D01*
X20778Y23111D01*
X20816Y23202D01*
X20829Y23300D01*
X20816Y23398D01*
X20778Y23489D01*
X20718Y23568D01*
X20639Y23628D01*
X20548Y23666D01*
X20450Y23679D01*
D02*
G37*
G36*
Y18629D02*
X20352Y18616D01*
X20261Y18578D01*
X20182Y18518D01*
X20122Y18439D01*
X20084Y18348D01*
X20071Y18250D01*
X20084Y18152D01*
X20122Y18061D01*
X20182Y17982D01*
X20261Y17922D01*
X20352Y17884D01*
X20450Y17871D01*
X20548Y17884D01*
X20639Y17922D01*
X20718Y17982D01*
X20778Y18061D01*
X20816Y18152D01*
X20829Y18250D01*
X20816Y18348D01*
X20778Y18439D01*
X20718Y18518D01*
X20639Y18578D01*
X20548Y18616D01*
X20450Y18629D01*
D02*
G37*
G36*
X18850D02*
X18752Y18616D01*
X18661Y18578D01*
X18582Y18518D01*
X18522Y18439D01*
X18484Y18348D01*
X18471Y18250D01*
X18484Y18152D01*
X18522Y18061D01*
X18582Y17982D01*
X18661Y17922D01*
X18752Y17884D01*
X18850Y17871D01*
X18948Y17884D01*
X19039Y17922D01*
X19118Y17982D01*
X19178Y18061D01*
X19216Y18152D01*
X19229Y18250D01*
X19216Y18348D01*
X19178Y18439D01*
X19118Y18518D01*
X19039Y18578D01*
X18948Y18616D01*
X18850Y18629D01*
D02*
G37*
G36*
X27863Y14872D02*
Y14550D01*
X28185D01*
X28179Y14598D01*
X28141Y14689D01*
X28081Y14768D01*
X28002Y14828D01*
X27911Y14866D01*
X27863Y14872D01*
D02*
G37*
G36*
X27763D02*
X27715Y14866D01*
X27624Y14828D01*
X27545Y14768D01*
X27485Y14689D01*
X27447Y14598D01*
X27441Y14550D01*
X27763D01*
Y14872D01*
D02*
G37*
G36*
X28185Y14450D02*
X27863D01*
Y14128D01*
X27911Y14134D01*
X28002Y14172D01*
X28081Y14232D01*
X28141Y14311D01*
X28179Y14402D01*
X28185Y14450D01*
D02*
G37*
G36*
X27763D02*
X27441D01*
X27447Y14402D01*
X27485Y14311D01*
X27545Y14232D01*
X27624Y14172D01*
X27715Y14134D01*
X27763Y14128D01*
Y14450D01*
D02*
G37*
G36*
X23345Y18695D02*
X22555D01*
Y18121D01*
X20342Y15908D01*
X20309Y15859D01*
X20297Y15800D01*
Y14593D01*
X20261Y14578D01*
X20182Y14518D01*
X20122Y14439D01*
X20084Y14348D01*
X20071Y14250D01*
X20084Y14152D01*
X20122Y14061D01*
X20182Y13982D01*
X20261Y13922D01*
X20352Y13884D01*
X20450Y13871D01*
X20548Y13884D01*
X20639Y13922D01*
X20718Y13982D01*
X20778Y14061D01*
X20816Y14152D01*
X20829Y14250D01*
X20816Y14348D01*
X20778Y14439D01*
X20718Y14518D01*
X20639Y14578D01*
X20603Y14593D01*
Y15737D01*
X22771Y17905D01*
X23345D01*
Y18695D01*
D02*
G37*
G36*
X27313Y14129D02*
X27215Y14116D01*
X27124Y14078D01*
X27045Y14018D01*
X26985Y13939D01*
X26947Y13848D01*
X26934Y13750D01*
X26947Y13652D01*
X26985Y13561D01*
X27045Y13482D01*
X27124Y13422D01*
X27215Y13384D01*
X27313Y13371D01*
X27411Y13384D01*
X27502Y13422D01*
X27581Y13482D01*
X27641Y13561D01*
X27679Y13652D01*
X27692Y13750D01*
X27679Y13848D01*
X27641Y13939D01*
X27581Y14018D01*
X27502Y14078D01*
X27411Y14116D01*
X27313Y14129D01*
D02*
G37*
G36*
X18850Y14629D02*
X18752Y14616D01*
X18661Y14578D01*
X18582Y14518D01*
X18522Y14439D01*
X18484Y14348D01*
X18471Y14250D01*
X18484Y14152D01*
X18522Y14061D01*
X18582Y13982D01*
X18661Y13922D01*
X18697Y13907D01*
Y12313D01*
X18454Y12071D01*
X18438Y12078D01*
X18350Y12089D01*
X18262Y12078D01*
X18180Y12044D01*
X18110Y11990D01*
X18056Y11920D01*
X18022Y11838D01*
X18011Y11750D01*
X18022Y11662D01*
X18056Y11580D01*
X18110Y11510D01*
X18180Y11456D01*
X18262Y11422D01*
X18350Y11411D01*
X18438Y11422D01*
X18520Y11456D01*
X18590Y11510D01*
X18644Y11580D01*
X18678Y11662D01*
X18689Y11750D01*
X18678Y11838D01*
X18671Y11854D01*
X18958Y12142D01*
X18991Y12191D01*
X19003Y12250D01*
Y13907D01*
X19039Y13922D01*
X19118Y13982D01*
X19178Y14061D01*
X19216Y14152D01*
X19229Y14250D01*
X19216Y14348D01*
X19178Y14439D01*
X19118Y14518D01*
X19039Y14578D01*
X18948Y14616D01*
X18850Y14629D01*
D02*
G37*
G36*
X25787Y12333D02*
X25749Y12328D01*
X25667Y12294D01*
X25597Y12240D01*
X25543Y12170D01*
X25509Y12088D01*
X25504Y12050D01*
X25787D01*
Y12333D01*
D02*
G37*
G36*
X24837Y12339D02*
X24749Y12328D01*
X24667Y12294D01*
X24597Y12240D01*
X24543Y12170D01*
X24509Y12088D01*
X24497Y12000D01*
X24509Y11912D01*
X24543Y11830D01*
X24597Y11760D01*
X24667Y11706D01*
X24749Y11672D01*
X24837Y11661D01*
X24924Y11672D01*
X25006Y11706D01*
X25076Y11760D01*
X25130Y11830D01*
X25164Y11912D01*
X25176Y12000D01*
X25164Y12088D01*
X25130Y12170D01*
X25076Y12240D01*
X25006Y12294D01*
X24924Y12328D01*
X24837Y12339D01*
D02*
G37*
G36*
X1450Y11250D02*
X1108D01*
X1115Y11197D01*
X1155Y11101D01*
X1218Y11018D01*
X1301Y10955D01*
X1397Y10915D01*
X1450Y10908D01*
Y11250D01*
D02*
G37*
G36*
X28574Y10833D02*
Y10550D01*
X28856D01*
X28851Y10588D01*
X28817Y10670D01*
X28763Y10740D01*
X28693Y10794D01*
X28611Y10828D01*
X28574Y10833D01*
D02*
G37*
G36*
X28474D02*
X28436Y10828D01*
X28354Y10794D01*
X28284Y10740D01*
X28230Y10670D01*
X28196Y10588D01*
X28191Y10550D01*
X28474D01*
Y10833D01*
D02*
G37*
G36*
X28856Y10450D02*
X28574D01*
Y10167D01*
X28611Y10172D01*
X28693Y10206D01*
X28763Y10260D01*
X28817Y10330D01*
X28851Y10412D01*
X28856Y10450D01*
D02*
G37*
G36*
X28474D02*
X28191D01*
X28196Y10412D01*
X28230Y10330D01*
X28284Y10260D01*
X28354Y10206D01*
X28436Y10172D01*
X28474Y10167D01*
Y10450D01*
D02*
G37*
G36*
X1895Y10695D02*
X1105D01*
Y9905D01*
X1895D01*
Y10695D01*
D02*
G37*
G36*
X28250Y3405D02*
X28147Y3391D01*
X28051Y3351D01*
X27968Y3288D01*
X27905Y3205D01*
X27865Y3109D01*
X27851Y3006D01*
X27865Y2903D01*
X27905Y2807D01*
X27968Y2724D01*
X28051Y2661D01*
X28147Y2621D01*
X28250Y2607D01*
X28353Y2621D01*
X28449Y2661D01*
X28532Y2724D01*
X28595Y2807D01*
X28635Y2903D01*
X28649Y3006D01*
X28635Y3109D01*
X28595Y3205D01*
X28532Y3288D01*
X28449Y3351D01*
X28353Y3391D01*
X28250Y3405D01*
D02*
G37*
G36*
X28300Y2398D02*
Y2056D01*
X28642D01*
X28635Y2109D01*
X28595Y2205D01*
X28532Y2288D01*
X28449Y2351D01*
X28353Y2391D01*
X28300Y2398D01*
D02*
G37*
G36*
X28200D02*
X28147Y2391D01*
X28051Y2351D01*
X27968Y2288D01*
X27905Y2205D01*
X27865Y2109D01*
X27858Y2056D01*
X28200D01*
Y2398D01*
D02*
G37*
G36*
X28642Y1956D02*
X28300D01*
Y1614D01*
X28353Y1621D01*
X28449Y1661D01*
X28532Y1724D01*
X28595Y1807D01*
X28635Y1903D01*
X28642Y1956D01*
D02*
G37*
G36*
X28200D02*
X27858D01*
X27865Y1903D01*
X27905Y1807D01*
X27968Y1724D01*
X28051Y1661D01*
X28147Y1621D01*
X28200Y1614D01*
Y1956D01*
D02*
G37*
%LPD*%
G36*
X10608Y33621D02*
X10609Y33622D01*
X10610Y33621D01*
X11082D01*
Y33377D01*
X11184D01*
X11203Y33331D01*
X11095Y33223D01*
X10976D01*
Y32887D01*
X11192D01*
X11410Y33105D01*
X11456Y33086D01*
Y32452D01*
X11531D01*
X11533Y32441D01*
X11566Y32392D01*
X11676Y32282D01*
X11725Y32249D01*
X11784Y32237D01*
X13480D01*
X13539Y32249D01*
X13588Y32282D01*
X13798Y32492D01*
X13831Y32541D01*
X13843Y32600D01*
Y32975D01*
X13889Y32995D01*
X16567Y30317D01*
Y9105D01*
X16529Y9072D01*
X16520Y9073D01*
X16429Y9061D01*
X16343Y9026D01*
X16293Y8987D01*
X16243Y9012D01*
Y24910D01*
X16231Y24969D01*
X16198Y25018D01*
X15708Y25508D01*
X15659Y25541D01*
X15600Y25553D01*
X14643D01*
X14628Y25589D01*
X14568Y25668D01*
X14489Y25728D01*
X14398Y25766D01*
X14300Y25779D01*
X14202Y25766D01*
X14111Y25728D01*
X14032Y25668D01*
X13972Y25589D01*
X13957Y25553D01*
X13803D01*
X13418Y25938D01*
X13369Y25971D01*
X13310Y25983D01*
X12650D01*
X12591Y25971D01*
X12542Y25938D01*
X12312Y25708D01*
X12279Y25659D01*
X12267Y25600D01*
Y22973D01*
X11548Y22255D01*
X11517Y22257D01*
X11442Y22314D01*
X11354Y22351D01*
X11260Y22363D01*
X10740D01*
X10646Y22351D01*
X10558Y22314D01*
X10483Y22257D01*
X10426Y22182D01*
X10389Y22094D01*
X10377Y22000D01*
X10389Y21906D01*
X10426Y21818D01*
X10483Y21743D01*
X10558Y21686D01*
X10646Y21649D01*
X10740Y21637D01*
X11260D01*
X11354Y21649D01*
X11442Y21686D01*
X11517Y21743D01*
X11574Y21818D01*
X11600Y21880D01*
X11618Y21892D01*
X12528Y22802D01*
X12561Y22851D01*
X12573Y22910D01*
Y25076D01*
X12623Y25101D01*
X12661Y25072D01*
X12697Y25057D01*
Y21513D01*
X12337Y21153D01*
X11586D01*
X11574Y21182D01*
X11517Y21257D01*
X11442Y21314D01*
X11354Y21351D01*
X11260Y21363D01*
X10740D01*
X10646Y21351D01*
X10558Y21314D01*
X10483Y21257D01*
X10426Y21182D01*
X10414Y21153D01*
X10000D01*
X9941Y21141D01*
X9892Y21108D01*
X9392Y20608D01*
X9359Y20559D01*
X9347Y20500D01*
Y19173D01*
X8737Y18563D01*
X7540D01*
X7481Y18551D01*
X7432Y18518D01*
X7222Y18308D01*
X7189Y18259D01*
X7177Y18200D01*
Y16750D01*
X7189Y16691D01*
X7222Y16642D01*
X7492Y16372D01*
X7524Y16351D01*
X7531Y16299D01*
X7529Y16292D01*
X7483Y16257D01*
X7426Y16182D01*
X7414Y16153D01*
X6738D01*
X6033Y16858D01*
X5984Y16891D01*
X5925Y16903D01*
X2550D01*
X2491Y16891D01*
X2442Y16858D01*
X1544Y15961D01*
X1535Y15970D01*
X1154D01*
X729Y16395D01*
Y19105D01*
X1387Y19763D01*
X1400Y19761D01*
X1488Y19772D01*
X1570Y19806D01*
X1640Y19860D01*
X1648Y19871D01*
X2852D01*
X2860Y19860D01*
X2930Y19806D01*
X3012Y19772D01*
X3100Y19761D01*
X3188Y19772D01*
X3270Y19806D01*
X3340Y19860D01*
X3348Y19871D01*
X4452D01*
X4460Y19860D01*
X4530Y19806D01*
X4612Y19772D01*
X4700Y19761D01*
X4788Y19772D01*
X4870Y19806D01*
X4940Y19860D01*
X4994Y19930D01*
X5028Y20012D01*
X5039Y20100D01*
X5028Y20188D01*
X4994Y20270D01*
X4940Y20340D01*
X4870Y20394D01*
X4788Y20428D01*
X4700Y20439D01*
X4612Y20428D01*
X4530Y20394D01*
X4460Y20340D01*
X4452Y20329D01*
X3348D01*
X3340Y20340D01*
X3270Y20394D01*
X3188Y20428D01*
X3100Y20439D01*
X3087Y20437D01*
X2629Y20895D01*
Y22878D01*
X2682Y22918D01*
X2745Y23001D01*
X2785Y23097D01*
X2799Y23200D01*
X2785Y23303D01*
X2766Y23350D01*
X3763Y24347D01*
X10500D01*
X10559Y24359D01*
X10608Y24392D01*
X11265Y25049D01*
X11302Y25034D01*
X11400Y25021D01*
X11498Y25034D01*
X11589Y25072D01*
X11668Y25132D01*
X11728Y25211D01*
X11766Y25302D01*
X11779Y25400D01*
X11766Y25498D01*
X11751Y25535D01*
X12958Y26742D01*
X12991Y26791D01*
X13003Y26850D01*
Y29057D01*
X13039Y29072D01*
X13118Y29132D01*
X13147Y29171D01*
X14003D01*
X14032Y29132D01*
X14111Y29072D01*
X14202Y29034D01*
X14300Y29021D01*
X14398Y29034D01*
X14489Y29072D01*
X14568Y29132D01*
X14628Y29211D01*
X14666Y29302D01*
X14679Y29400D01*
X14666Y29498D01*
X14628Y29589D01*
X14568Y29668D01*
X14489Y29728D01*
X14398Y29766D01*
X14300Y29779D01*
X14202Y29766D01*
X14111Y29728D01*
X14032Y29668D01*
X14003Y29629D01*
X13147D01*
X13118Y29668D01*
X13039Y29728D01*
X12948Y29766D01*
X12850Y29779D01*
X12752Y29766D01*
X12661Y29728D01*
X12582Y29668D01*
X12522Y29589D01*
X12507Y29553D01*
X12460D01*
X12403Y29610D01*
Y30286D01*
X12391Y30344D01*
X12358Y30394D01*
X10189Y32563D01*
Y33591D01*
X10224Y33626D01*
X10608Y33621D01*
D02*
G37*
G36*
X26795Y29982D02*
X26874Y29922D01*
X26965Y29884D01*
X27063Y29871D01*
X27161Y29884D01*
X27252Y29922D01*
X27331Y29982D01*
X27360Y30020D01*
X27410Y30003D01*
Y29663D01*
X26150Y28403D01*
X25824D01*
X25817Y28420D01*
X25763Y28490D01*
X25693Y28544D01*
X25611Y28578D01*
X25574Y28583D01*
Y28250D01*
X25474D01*
Y28583D01*
X25446Y28579D01*
X25427Y28604D01*
X25420Y28624D01*
X26671Y29875D01*
X26704Y29924D01*
X26716Y29983D01*
Y30003D01*
X26766Y30020D01*
X26795Y29982D01*
D02*
G37*
G36*
X17623Y25475D02*
Y23109D01*
X17576Y23090D01*
X17501Y23165D01*
X17516Y23202D01*
X17522Y23250D01*
X17200D01*
Y22928D01*
X17248Y22934D01*
X17285Y22949D01*
X17423Y22811D01*
Y19627D01*
X17373Y19603D01*
X17339Y19628D01*
X17248Y19666D01*
X17150Y19679D01*
X17052Y19666D01*
X16961Y19628D01*
X16923Y19599D01*
X16873Y19624D01*
Y22976D01*
X16923Y23001D01*
X16961Y22972D01*
X17052Y22934D01*
X17100Y22928D01*
Y23300D01*
X17150D01*
Y23350D01*
X17522D01*
X17516Y23398D01*
X17493Y23452D01*
X17503Y23500D01*
Y25449D01*
X17520Y25456D01*
X17573Y25497D01*
X17623Y25475D01*
D02*
G37*
G36*
X13632Y25292D02*
X13681Y25259D01*
X13740Y25247D01*
X13957D01*
X13972Y25211D01*
X14032Y25132D01*
X14111Y25072D01*
X14202Y25034D01*
X14300Y25021D01*
X14398Y25034D01*
X14489Y25072D01*
X14568Y25132D01*
X14628Y25211D01*
X14643Y25247D01*
X15537D01*
X15937Y24847D01*
Y14228D01*
X15892Y14206D01*
X15867Y14226D01*
X15781Y14261D01*
X15690Y14273D01*
X15599Y14261D01*
X15575Y14251D01*
X14793Y15033D01*
Y19600D01*
X14781Y19659D01*
X14748Y19708D01*
X14348Y20108D01*
X14299Y20141D01*
X14240Y20153D01*
X11586D01*
X11574Y20182D01*
X11517Y20257D01*
X11442Y20314D01*
X11354Y20351D01*
X11260Y20363D01*
X10740D01*
X10646Y20351D01*
X10558Y20314D01*
X10483Y20257D01*
X10426Y20182D01*
X10389Y20094D01*
X10377Y20000D01*
X10389Y19906D01*
X10426Y19818D01*
X10483Y19743D01*
X10558Y19686D01*
X10646Y19649D01*
X10740Y19637D01*
X11260D01*
X11354Y19649D01*
X11442Y19686D01*
X11517Y19743D01*
X11574Y19818D01*
X11586Y19847D01*
X14177D01*
X14487Y19537D01*
Y14970D01*
X14499Y14911D01*
X14532Y14862D01*
X15359Y14035D01*
X15349Y14011D01*
X15337Y13920D01*
X15349Y13829D01*
X15384Y13743D01*
X15440Y13670D01*
X15513Y13614D01*
X15599Y13579D01*
X15690Y13567D01*
X15781Y13579D01*
X15867Y13614D01*
X15892Y13634D01*
X15937Y13612D01*
Y8430D01*
X15949Y8371D01*
X15982Y8322D01*
X16092Y8212D01*
X16141Y8179D01*
X16200Y8167D01*
X16800D01*
X16859Y8179D01*
X16908Y8212D01*
X17228Y8532D01*
X17261Y8581D01*
X17270Y8623D01*
X17297Y8634D01*
X17370Y8690D01*
X17426Y8763D01*
X17461Y8849D01*
X17473Y8940D01*
X17461Y9031D01*
X17426Y9117D01*
X17370Y9190D01*
X17297Y9246D01*
X17211Y9281D01*
X17120Y9293D01*
X17029Y9281D01*
X16943Y9246D01*
X16918Y9226D01*
X16873Y9248D01*
Y13926D01*
X16923Y13951D01*
X16961Y13922D01*
X16997Y13907D01*
Y11950D01*
X17009Y11891D01*
X17031Y11858D01*
X17022Y11838D01*
X17017Y11800D01*
X17350D01*
Y11750D01*
X17400D01*
Y11417D01*
X17438Y11422D01*
X17520Y11456D01*
X17573Y11497D01*
X17623Y11475D01*
Y6899D01*
X17187Y6463D01*
X17154Y6414D01*
X17142Y6355D01*
Y4061D01*
X17092Y4036D01*
X17067Y4056D01*
X17043Y4065D01*
Y6790D01*
X17031Y6849D01*
X16998Y6898D01*
X15673Y8223D01*
Y12980D01*
X15661Y13038D01*
X15628Y13088D01*
X12148Y16568D01*
X12098Y16601D01*
X12040Y16613D01*
X11397D01*
X11387Y16663D01*
X11442Y16686D01*
X11517Y16743D01*
X11574Y16818D01*
X11611Y16906D01*
X11623Y17000D01*
X11611Y17094D01*
X11574Y17182D01*
X11517Y17257D01*
X11442Y17314D01*
X11354Y17351D01*
X11260Y17363D01*
X10740D01*
X10646Y17351D01*
X10558Y17314D01*
X10483Y17257D01*
X10426Y17182D01*
X10389Y17094D01*
X10378Y17009D01*
X10334Y16983D01*
X9208Y18108D01*
X9159Y18141D01*
X9100Y18153D01*
X8586D01*
X8574Y18182D01*
X8555Y18207D01*
X8580Y18257D01*
X8800D01*
X8859Y18269D01*
X8908Y18302D01*
X9608Y19002D01*
X9641Y19051D01*
X9653Y19110D01*
Y20437D01*
X10063Y20847D01*
X10414D01*
X10426Y20818D01*
X10483Y20743D01*
X10558Y20686D01*
X10646Y20649D01*
X10740Y20637D01*
X11260D01*
X11354Y20649D01*
X11442Y20686D01*
X11517Y20743D01*
X11574Y20818D01*
X11586Y20847D01*
X12400D01*
X12459Y20859D01*
X12508Y20892D01*
X12958Y21342D01*
X12991Y21391D01*
X13003Y21450D01*
Y25057D01*
X13039Y25072D01*
X13118Y25132D01*
X13178Y25211D01*
X13216Y25302D01*
X13229Y25400D01*
X13216Y25498D01*
X13178Y25589D01*
X13149Y25627D01*
X13174Y25677D01*
X13247D01*
X13632Y25292D01*
D02*
G37*
G36*
X10529Y16354D02*
X10532Y16350D01*
X10530Y16293D01*
X10483Y16257D01*
X10426Y16182D01*
X10389Y16094D01*
X10383Y16050D01*
X11617D01*
X11611Y16094D01*
X11574Y16182D01*
X11517Y16257D01*
X11513Y16260D01*
X11529Y16307D01*
X11977D01*
X13122Y15162D01*
X13102Y15116D01*
X11591Y15142D01*
X11574Y15182D01*
X11517Y15257D01*
X11442Y15314D01*
X11354Y15351D01*
X11260Y15363D01*
X10740D01*
X10646Y15351D01*
X10558Y15314D01*
X10483Y15257D01*
X10463Y15230D01*
X10413Y15247D01*
Y15520D01*
X10401Y15579D01*
X10368Y15628D01*
X9408Y16588D01*
X9359Y16621D01*
X9300Y16633D01*
X8445D01*
X8435Y16683D01*
X8442Y16686D01*
X8517Y16743D01*
X8574Y16818D01*
X8611Y16906D01*
X8623Y17000D01*
X8611Y17094D01*
X8574Y17182D01*
X8517Y17257D01*
X8442Y17314D01*
X8354Y17351D01*
X8260Y17363D01*
X7740D01*
X7646Y17351D01*
X7558Y17314D01*
X7533Y17295D01*
X7483Y17320D01*
Y17680D01*
X7533Y17705D01*
X7558Y17686D01*
X7646Y17649D01*
X7740Y17637D01*
X8260D01*
X8354Y17649D01*
X8442Y17686D01*
X8517Y17743D01*
X8574Y17818D01*
X8586Y17847D01*
X9037D01*
X10529Y16354D01*
D02*
G37*
G36*
X8335Y15424D02*
X8354Y15398D01*
X8328Y15354D01*
X8260Y15363D01*
X8050D01*
Y15000D01*
Y14637D01*
X8260D01*
X8354Y14649D01*
X8442Y14686D01*
X8467Y14705D01*
X8517Y14680D01*
Y14320D01*
X8467Y14295D01*
X8442Y14314D01*
X8354Y14351D01*
X8260Y14363D01*
X7740D01*
X7646Y14351D01*
X7558Y14314D01*
X7483Y14257D01*
X7473Y14243D01*
X7423Y14260D01*
Y14700D01*
X7442Y14718D01*
X7483Y14743D01*
X7558Y14686D01*
X7646Y14649D01*
X7740Y14637D01*
X7950D01*
Y15000D01*
Y15363D01*
X7740D01*
X7646Y15351D01*
X7558Y15314D01*
X7483Y15257D01*
X7426Y15182D01*
X7414Y15153D01*
X7103D01*
X7048Y15208D01*
X6999Y15241D01*
X6940Y15253D01*
X6310D01*
Y15427D01*
X8332D01*
X8335Y15424D01*
D02*
G37*
G36*
X6567Y15892D02*
X6616Y15859D01*
X6675Y15847D01*
X7414D01*
X7426Y15818D01*
X7453Y15783D01*
X7428Y15733D01*
X6310D01*
Y15820D01*
X5440D01*
Y15253D01*
X3815D01*
X3770Y15265D01*
Y15450D01*
X3350D01*
Y15030D01*
X3535D01*
X3544Y15039D01*
X3592Y14992D01*
X3592Y14992D01*
X3678Y14905D01*
X3677Y14899D01*
X3623Y14882D01*
X3535Y14970D01*
X3065D01*
X2830Y14735D01*
Y14265D01*
X3065Y14030D01*
X3535D01*
X3661Y14156D01*
X3707Y14137D01*
Y12023D01*
X3350Y11666D01*
X3303Y11685D01*
X3250Y11692D01*
Y11350D01*
X3592D01*
X3585Y11403D01*
X3566Y11450D01*
X3968Y11852D01*
X4001Y11901D01*
X4013Y11960D01*
Y14940D01*
X4019Y14947D01*
X5440D01*
Y14388D01*
X5717D01*
Y11130D01*
X5729Y11071D01*
X5762Y11022D01*
X7302Y9482D01*
X7351Y9449D01*
X7410Y9437D01*
X8460D01*
X8519Y9449D01*
X8568Y9482D01*
X8778Y9692D01*
X8811Y9741D01*
X8823Y9800D01*
Y12900D01*
X8811Y12959D01*
X8778Y13008D01*
X8678Y13108D01*
X8629Y13141D01*
X8588Y13149D01*
X8574Y13182D01*
X8517Y13257D01*
X8442Y13314D01*
X8354Y13351D01*
X8260Y13363D01*
X7740D01*
X7646Y13351D01*
X7558Y13314D01*
X7483Y13257D01*
X7473Y13243D01*
X7423Y13260D01*
Y13740D01*
X7473Y13757D01*
X7483Y13743D01*
X7558Y13686D01*
X7646Y13649D01*
X7740Y13637D01*
X8260D01*
X8354Y13649D01*
X8442Y13686D01*
X8517Y13743D01*
X8574Y13818D01*
X8588Y13851D01*
X8629Y13859D01*
X8678Y13892D01*
X8778Y13992D01*
X8811Y14041D01*
X8823Y14100D01*
Y15310D01*
X8811Y15369D01*
X8778Y15418D01*
X8516Y15680D01*
X8509Y15738D01*
X8517Y15743D01*
X8574Y15818D01*
X8586Y15847D01*
X9027D01*
X9337Y15537D01*
Y14400D01*
X9349Y14341D01*
X9382Y14292D01*
X9782Y13892D01*
X9831Y13859D01*
X9890Y13847D01*
X10414D01*
X10426Y13818D01*
X10483Y13743D01*
X10558Y13686D01*
X10646Y13649D01*
X10740Y13637D01*
X11260D01*
X11354Y13649D01*
X11442Y13686D01*
X11517Y13743D01*
X11574Y13818D01*
X11611Y13906D01*
X11623Y14000D01*
X11620Y14023D01*
X11667Y14046D01*
X11777Y13937D01*
Y8065D01*
X11753Y8056D01*
X11680Y8000D01*
X11624Y7927D01*
X11589Y7841D01*
X11577Y7750D01*
X11589Y7659D01*
X11624Y7573D01*
X11680Y7500D01*
X11753Y7444D01*
X11839Y7409D01*
X11930Y7397D01*
X12021Y7409D01*
X12107Y7444D01*
X12180Y7500D01*
X12236Y7573D01*
X12271Y7659D01*
X12283Y7750D01*
X12271Y7841D01*
X12236Y7927D01*
X12180Y8000D01*
X12107Y8056D01*
X12083Y8065D01*
Y14000D01*
X12071Y14059D01*
X12038Y14108D01*
X11628Y14518D01*
X11579Y14551D01*
X11520Y14563D01*
X10663D01*
X10621Y14606D01*
X10644Y14646D01*
X10648Y14649D01*
X10740Y14637D01*
X11260D01*
X11354Y14649D01*
X11442Y14686D01*
X11517Y14743D01*
X11574Y14818D01*
X11582Y14837D01*
X13097Y14810D01*
Y11301D01*
X13080Y11294D01*
X13010Y11240D01*
X12956Y11170D01*
X12922Y11088D01*
X12911Y11000D01*
X12922Y10912D01*
X12956Y10830D01*
X13010Y10760D01*
X13080Y10706D01*
X13162Y10672D01*
X13250Y10661D01*
X13338Y10672D01*
X13420Y10706D01*
X13490Y10760D01*
X13544Y10830D01*
X13578Y10912D01*
X13589Y11000D01*
X13578Y11088D01*
X13544Y11170D01*
X13490Y11240D01*
X13420Y11294D01*
X13403Y11301D01*
Y14815D01*
X13449Y14834D01*
X15367Y12917D01*
Y8160D01*
X15379Y8101D01*
X15412Y8052D01*
X16737Y6727D01*
Y4065D01*
X16713Y4056D01*
X16640Y4000D01*
X16584Y3927D01*
X16549Y3841D01*
X16537Y3750D01*
X16549Y3659D01*
X16584Y3573D01*
X16640Y3500D01*
X16702Y3453D01*
X16689Y3403D01*
X16614D01*
X16595Y3449D01*
X16532Y3532D01*
X16449Y3595D01*
X16353Y3635D01*
X16250Y3649D01*
X16147Y3635D01*
X16051Y3595D01*
X15968Y3532D01*
X15905Y3449D01*
X15865Y3353D01*
X15851Y3250D01*
X15865Y3147D01*
X15905Y3051D01*
X15968Y2968D01*
X16051Y2905D01*
X16097Y2886D01*
Y2645D01*
X15953D01*
Y2700D01*
X15941Y2759D01*
X15908Y2808D01*
X15616Y3100D01*
X15635Y3147D01*
X15649Y3250D01*
X15635Y3353D01*
X15595Y3449D01*
X15532Y3532D01*
X15449Y3595D01*
X15353Y3635D01*
X15250Y3649D01*
X15147Y3635D01*
X15051Y3595D01*
X15004Y3560D01*
X14954Y3584D01*
Y3916D01*
X15004Y3940D01*
X15051Y3905D01*
X15147Y3865D01*
X15250Y3851D01*
X15353Y3865D01*
X15449Y3905D01*
X15532Y3968D01*
X15595Y4051D01*
X15635Y4147D01*
X15649Y4250D01*
X15635Y4353D01*
X15595Y4449D01*
X15532Y4532D01*
X15449Y4595D01*
X15403Y4614D01*
Y4886D01*
X15449Y4905D01*
X15532Y4968D01*
X15595Y5051D01*
X15635Y5147D01*
X15649Y5250D01*
X15635Y5353D01*
X15595Y5449D01*
X15532Y5532D01*
X15449Y5595D01*
X15353Y5635D01*
X15250Y5649D01*
X15147Y5635D01*
X15051Y5595D01*
X15004Y5560D01*
X14954Y5584D01*
Y5585D01*
X14937Y5673D01*
X14887Y5747D01*
X14273Y6361D01*
X14199Y6411D01*
X14111Y6428D01*
X12146D01*
X12059Y6411D01*
X11984Y6361D01*
X11838Y6215D01*
X11788Y6140D01*
X11771Y6053D01*
Y2917D01*
X11788Y2829D01*
X11838Y2754D01*
X12277Y2316D01*
X12268Y2250D01*
X12277Y2184D01*
X11822Y1729D01*
X10928D01*
X10849Y1809D01*
X10868Y1855D01*
X11479D01*
Y2645D01*
X11236D01*
Y2886D01*
X11283Y2905D01*
X11365Y2968D01*
X11429Y3051D01*
X11468Y3147D01*
X11482Y3250D01*
X11468Y3353D01*
X11429Y3449D01*
X11365Y3532D01*
X11283Y3595D01*
X11187Y3635D01*
X11083Y3649D01*
X10980Y3635D01*
X10884Y3595D01*
X10801Y3532D01*
X10738Y3449D01*
X10698Y3353D01*
X10685Y3250D01*
X10698Y3147D01*
X10738Y3051D01*
X10801Y2968D01*
X10884Y2905D01*
X10930Y2886D01*
Y2645D01*
X10688D01*
Y2035D01*
X10642Y2016D01*
X10473Y2184D01*
X10482Y2250D01*
X10468Y2353D01*
X10429Y2449D01*
X10365Y2532D01*
X10283Y2595D01*
X10187Y2635D01*
X10083Y2649D01*
X9980Y2635D01*
X9884Y2595D01*
X9801Y2532D01*
X9738Y2449D01*
X9698Y2353D01*
X9686Y2260D01*
X9155Y1729D01*
X8345D01*
X8266Y1809D01*
X8285Y1855D01*
X8895D01*
Y2645D01*
X8653D01*
Y2886D01*
X8699Y2905D01*
X8782Y2968D01*
X8845Y3051D01*
X8885Y3147D01*
X8899Y3250D01*
X8885Y3353D01*
X8845Y3449D01*
X8782Y3532D01*
X8699Y3595D01*
X8603Y3635D01*
X8500Y3649D01*
X8397Y3635D01*
X8301Y3595D01*
X8218Y3532D01*
X8155Y3449D01*
X8115Y3353D01*
X8101Y3250D01*
X8115Y3147D01*
X8155Y3051D01*
X8218Y2968D01*
X8301Y2905D01*
X8347Y2886D01*
Y2645D01*
X8105D01*
Y2035D01*
X8059Y2016D01*
X7890Y2184D01*
X7899Y2250D01*
X7885Y2353D01*
X7845Y2449D01*
X7782Y2532D01*
X7699Y2595D01*
X7603Y2635D01*
X7500Y2649D01*
X7434Y2640D01*
X3429Y6645D01*
Y9905D01*
X3595D01*
Y10695D01*
X3021D01*
X933Y12783D01*
Y14097D01*
X979Y14116D01*
X1065Y14030D01*
X1535D01*
X1770Y14265D01*
Y14735D01*
X1535Y14970D01*
X1065D01*
X1017Y14922D01*
X963Y14939D01*
X962Y14945D01*
X1056Y15039D01*
X1065Y15030D01*
X1535D01*
X1770Y15265D01*
Y15735D01*
X1761Y15744D01*
X2613Y16597D01*
X5862D01*
X6567Y15892D01*
D02*
G37*
G36*
X16961Y17922D02*
X17052Y17884D01*
X17150Y17871D01*
X17248Y17884D01*
X17339Y17922D01*
X17373Y17947D01*
X17423Y17923D01*
Y14739D01*
X17285Y14601D01*
X17248Y14616D01*
X17200Y14622D01*
Y14300D01*
X17522D01*
X17516Y14348D01*
X17501Y14385D01*
X17576Y14460D01*
X17623Y14441D01*
Y12025D01*
X17573Y12003D01*
X17520Y12044D01*
X17438Y12078D01*
X17350Y12089D01*
X17341Y12088D01*
X17303Y12121D01*
Y13907D01*
X17339Y13922D01*
X17418Y13982D01*
X17478Y14061D01*
X17516Y14152D01*
X17522Y14200D01*
X17150D01*
Y14250D01*
X17100D01*
Y14622D01*
X17052Y14616D01*
X16961Y14578D01*
X16923Y14549D01*
X16873Y14574D01*
Y17926D01*
X16923Y17951D01*
X16961Y17922D01*
D02*
G37*
G36*
X7483Y12743D02*
X7558Y12686D01*
X7646Y12649D01*
X7740Y12637D01*
X8260D01*
X8354Y12649D01*
X8442Y12686D01*
X8467Y12705D01*
X8517Y12680D01*
Y12320D01*
X8467Y12295D01*
X8442Y12314D01*
X8354Y12351D01*
X8260Y12363D01*
X8050D01*
Y12000D01*
X7950D01*
Y12363D01*
X7740D01*
X7646Y12351D01*
X7558Y12314D01*
X7483Y12257D01*
X7442Y12282D01*
X7423Y12300D01*
Y12740D01*
X7473Y12757D01*
X7483Y12743D01*
D02*
G37*
G36*
X6932Y14892D02*
X6981Y14859D01*
X7040Y14847D01*
X7087D01*
X7119Y14808D01*
X7117Y14800D01*
Y12200D01*
X7129Y12141D01*
X7162Y12092D01*
X7362Y11892D01*
X7408Y11861D01*
X7426Y11818D01*
X7483Y11743D01*
X7558Y11686D01*
X7646Y11649D01*
X7740Y11637D01*
X7847D01*
Y11363D01*
X7740D01*
X7646Y11351D01*
X7558Y11314D01*
X7483Y11257D01*
X7426Y11182D01*
X7389Y11094D01*
X7383Y11050D01*
X8000D01*
Y10950D01*
X7383D01*
X7389Y10906D01*
X7426Y10818D01*
X7483Y10743D01*
X7558Y10686D01*
X7646Y10649D01*
X7740Y10637D01*
X7847D01*
Y10363D01*
X7740D01*
X7646Y10351D01*
X7558Y10314D01*
X7483Y10257D01*
X7426Y10182D01*
X7389Y10094D01*
X7383Y10050D01*
X8000D01*
Y9950D01*
X7383D01*
X7389Y9906D01*
X7395Y9892D01*
X7353Y9864D01*
X6023Y11193D01*
Y14388D01*
X6310D01*
Y14947D01*
X6877D01*
X6932Y14892D01*
D02*
G37*
G36*
X24597Y5417D02*
Y5370D01*
X24551Y5351D01*
X24468Y5288D01*
X24453Y5268D01*
X24403Y5285D01*
Y5310D01*
X24391Y5369D01*
X24358Y5418D01*
X24208Y5568D01*
X24159Y5601D01*
X24100Y5613D01*
X23200D01*
X23141Y5601D01*
X23092Y5568D01*
X21497Y3973D01*
X21450Y3997D01*
X21452Y4006D01*
X21437Y4079D01*
X21401Y4134D01*
X21437Y4188D01*
X21452Y4262D01*
X21442Y4315D01*
X21473Y4365D01*
X21488D01*
X21546Y4376D01*
X21596Y4410D01*
X21807Y4620D01*
X21840Y4670D01*
X21851Y4728D01*
Y5371D01*
X21870Y5387D01*
X21961Y5399D01*
X22047Y5434D01*
X22120Y5490D01*
X22176Y5563D01*
X22211Y5649D01*
X22216Y5690D01*
X21870D01*
Y5790D01*
X22216D01*
X22211Y5831D01*
X22176Y5917D01*
X22120Y5990D01*
X22111Y5996D01*
X22128Y6046D01*
X23968D01*
X24597Y5417D01*
D02*
G37*
G36*
X26797Y2673D02*
Y2339D01*
X26747Y2315D01*
X26699Y2351D01*
X26603Y2391D01*
X26550Y2398D01*
Y2006D01*
Y1614D01*
X26603Y1621D01*
X26699Y1661D01*
X26715Y1673D01*
X26769Y1651D01*
X26773Y1629D01*
X26337Y1193D01*
X21313D01*
X20593Y1913D01*
Y1995D01*
X20639Y2015D01*
X21202Y1452D01*
X21251Y1419D01*
X21310Y1407D01*
X25054D01*
X25113Y1419D01*
X25162Y1452D01*
X26350Y2640D01*
X26397Y2621D01*
X26500Y2607D01*
X26603Y2621D01*
X26699Y2661D01*
X26747Y2697D01*
X26797Y2673D01*
D02*
G37*
%LPC*%
G36*
X10876Y33223D02*
X10708D01*
Y32887D01*
X10876D01*
Y33223D01*
D02*
G37*
G36*
X11144Y32787D02*
X10976D01*
Y32452D01*
X11144D01*
Y32787D01*
D02*
G37*
G36*
X10876D02*
X10708D01*
Y32452D01*
X10876D01*
Y32787D01*
D02*
G37*
G36*
X4795Y23595D02*
X4005D01*
Y22805D01*
X4795D01*
Y23595D01*
D02*
G37*
G36*
X3400Y23599D02*
X3297Y23585D01*
X3201Y23545D01*
X3118Y23482D01*
X3055Y23399D01*
X3015Y23303D01*
X3001Y23200D01*
X3015Y23097D01*
X3055Y23001D01*
X3118Y22918D01*
X3201Y22855D01*
X3297Y22815D01*
X3400Y22801D01*
X3503Y22815D01*
X3599Y22855D01*
X3682Y22918D01*
X3745Y23001D01*
X3785Y23097D01*
X3799Y23200D01*
X3785Y23303D01*
X3745Y23399D01*
X3682Y23482D01*
X3599Y23545D01*
X3503Y23585D01*
X3400Y23599D01*
D02*
G37*
G36*
X8260Y22363D02*
X7740D01*
X7646Y22351D01*
X7558Y22314D01*
X7483Y22257D01*
X7426Y22182D01*
X7414Y22153D01*
X6600D01*
X6541Y22141D01*
X6492Y22108D01*
X6092Y21708D01*
X6059Y21659D01*
X6047Y21600D01*
Y17715D01*
X6023Y17706D01*
X5950Y17650D01*
X5894Y17577D01*
X5859Y17491D01*
X5847Y17400D01*
X5859Y17309D01*
X5894Y17223D01*
X5950Y17150D01*
X6023Y17094D01*
X6109Y17059D01*
X6200Y17047D01*
X6291Y17059D01*
X6377Y17094D01*
X6450Y17150D01*
X6506Y17223D01*
X6541Y17309D01*
X6553Y17400D01*
X6541Y17491D01*
X6506Y17577D01*
X6450Y17650D01*
X6377Y17706D01*
X6353Y17715D01*
Y21537D01*
X6663Y21847D01*
X7414D01*
X7426Y21818D01*
X7483Y21743D01*
X7558Y21686D01*
X7646Y21649D01*
X7740Y21637D01*
X8260D01*
X8354Y21649D01*
X8442Y21686D01*
X8517Y21743D01*
X8574Y21818D01*
X8611Y21906D01*
X8623Y22000D01*
X8611Y22094D01*
X8574Y22182D01*
X8517Y22257D01*
X8442Y22314D01*
X8354Y22351D01*
X8260Y22363D01*
D02*
G37*
G36*
Y21363D02*
X7740D01*
X7646Y21351D01*
X7558Y21314D01*
X7483Y21257D01*
X7426Y21182D01*
X7389Y21094D01*
X7377Y21000D01*
X7389Y20906D01*
X7426Y20818D01*
X7483Y20743D01*
X7558Y20686D01*
X7646Y20649D01*
X7740Y20637D01*
X8260D01*
X8354Y20649D01*
X8442Y20686D01*
X8517Y20743D01*
X8574Y20818D01*
X8611Y20906D01*
X8623Y21000D01*
X8611Y21094D01*
X8574Y21182D01*
X8517Y21257D01*
X8442Y21314D01*
X8354Y21351D01*
X8260Y21363D01*
D02*
G37*
G36*
Y20363D02*
X7740D01*
X7646Y20351D01*
X7558Y20314D01*
X7483Y20257D01*
X7426Y20182D01*
X7389Y20094D01*
X7377Y20000D01*
X7389Y19906D01*
X7426Y19818D01*
X7483Y19743D01*
X7558Y19686D01*
X7646Y19649D01*
X7740Y19637D01*
X8260D01*
X8354Y19649D01*
X8442Y19686D01*
X8517Y19743D01*
X8574Y19818D01*
X8611Y19906D01*
X8623Y20000D01*
X8611Y20094D01*
X8574Y20182D01*
X8517Y20257D01*
X8442Y20314D01*
X8354Y20351D01*
X8260Y20363D01*
D02*
G37*
G36*
X4750Y19433D02*
Y19150D01*
X5033D01*
X5028Y19188D01*
X4994Y19270D01*
X4940Y19340D01*
X4870Y19394D01*
X4788Y19428D01*
X4750Y19433D01*
D02*
G37*
G36*
X3150D02*
Y19150D01*
X3433D01*
X3428Y19188D01*
X3394Y19270D01*
X3340Y19340D01*
X3270Y19394D01*
X3188Y19428D01*
X3150Y19433D01*
D02*
G37*
G36*
X1450D02*
Y19150D01*
X1733D01*
X1728Y19188D01*
X1694Y19270D01*
X1640Y19340D01*
X1570Y19394D01*
X1488Y19428D01*
X1450Y19433D01*
D02*
G37*
G36*
X4650D02*
X4612Y19428D01*
X4530Y19394D01*
X4460Y19340D01*
X4406Y19270D01*
X4372Y19188D01*
X4367Y19150D01*
X4650D01*
Y19433D01*
D02*
G37*
G36*
X3050D02*
X3012Y19428D01*
X2930Y19394D01*
X2860Y19340D01*
X2806Y19270D01*
X2772Y19188D01*
X2767Y19150D01*
X3050D01*
Y19433D01*
D02*
G37*
G36*
X1350D02*
X1312Y19428D01*
X1230Y19394D01*
X1160Y19340D01*
X1106Y19270D01*
X1072Y19188D01*
X1067Y19150D01*
X1350D01*
Y19433D01*
D02*
G37*
G36*
X5033Y19050D02*
X4750D01*
Y18767D01*
X4788Y18772D01*
X4870Y18806D01*
X4940Y18860D01*
X4994Y18930D01*
X5028Y19012D01*
X5033Y19050D01*
D02*
G37*
G36*
X3433D02*
X3150D01*
Y18767D01*
X3188Y18772D01*
X3270Y18806D01*
X3340Y18860D01*
X3394Y18930D01*
X3428Y19012D01*
X3433Y19050D01*
D02*
G37*
G36*
X1733D02*
X1450D01*
Y18767D01*
X1488Y18772D01*
X1570Y18806D01*
X1640Y18860D01*
X1694Y18930D01*
X1728Y19012D01*
X1733Y19050D01*
D02*
G37*
G36*
X3050D02*
X2767D01*
X2772Y19012D01*
X2806Y18930D01*
X2860Y18860D01*
X2930Y18806D01*
X3012Y18772D01*
X3050Y18767D01*
Y19050D01*
D02*
G37*
G36*
X1350D02*
X1067D01*
X1072Y19012D01*
X1106Y18930D01*
X1160Y18860D01*
X1230Y18806D01*
X1312Y18772D01*
X1350Y18767D01*
Y19050D01*
D02*
G37*
G36*
X4650D02*
X4367D01*
X4372Y19012D01*
X4406Y18930D01*
X4460Y18860D01*
X4530Y18806D01*
X4612Y18772D01*
X4650Y18767D01*
Y19050D01*
D02*
G37*
G36*
X8260Y19363D02*
X7740D01*
X7646Y19351D01*
X7558Y19314D01*
X7483Y19257D01*
X7426Y19182D01*
X7389Y19094D01*
X7377Y19000D01*
X7389Y18906D01*
X7426Y18818D01*
X7483Y18743D01*
X7558Y18686D01*
X7646Y18649D01*
X7740Y18637D01*
X8260D01*
X8354Y18649D01*
X8442Y18686D01*
X8517Y18743D01*
X8574Y18818D01*
X8611Y18906D01*
X8623Y19000D01*
X8611Y19094D01*
X8574Y19182D01*
X8517Y19257D01*
X8442Y19314D01*
X8354Y19351D01*
X8260Y19363D01*
D02*
G37*
G36*
X11260D02*
X10740D01*
X10646Y19351D01*
X10558Y19314D01*
X10483Y19257D01*
X10426Y19182D01*
X10389Y19094D01*
X10377Y19000D01*
X10389Y18906D01*
X10426Y18818D01*
X10483Y18743D01*
X10558Y18686D01*
X10646Y18649D01*
X10740Y18637D01*
X11260D01*
X11354Y18649D01*
X11442Y18686D01*
X11517Y18743D01*
X11574Y18818D01*
X11611Y18906D01*
X11623Y19000D01*
X11611Y19094D01*
X11574Y19182D01*
X11517Y19257D01*
X11442Y19314D01*
X11354Y19351D01*
X11260Y19363D01*
D02*
G37*
G36*
Y18363D02*
X10740D01*
X10646Y18351D01*
X10558Y18314D01*
X10483Y18257D01*
X10426Y18182D01*
X10389Y18094D01*
X10377Y18000D01*
X10389Y17906D01*
X10426Y17818D01*
X10483Y17743D01*
X10558Y17686D01*
X10646Y17649D01*
X10740Y17637D01*
X11260D01*
X11354Y17649D01*
X11442Y17686D01*
X11517Y17743D01*
X11574Y17818D01*
X11611Y17906D01*
X11623Y18000D01*
X11611Y18094D01*
X11574Y18182D01*
X11517Y18257D01*
X11442Y18314D01*
X11354Y18351D01*
X11260Y18363D01*
D02*
G37*
G36*
X17300Y11700D02*
X17017D01*
X17022Y11662D01*
X17056Y11580D01*
X17110Y11510D01*
X17180Y11456D01*
X17262Y11422D01*
X17300Y11417D01*
Y11700D01*
D02*
G37*
G36*
X11617Y15950D02*
X11050D01*
Y15637D01*
X11260D01*
X11354Y15649D01*
X11442Y15686D01*
X11517Y15743D01*
X11574Y15818D01*
X11611Y15906D01*
X11617Y15950D01*
D02*
G37*
G36*
X10950D02*
X10383D01*
X10389Y15906D01*
X10426Y15818D01*
X10483Y15743D01*
X10558Y15686D01*
X10646Y15649D01*
X10740Y15637D01*
X10950D01*
Y15950D01*
D02*
G37*
G36*
X3535Y15970D02*
X3350D01*
Y15550D01*
X3770D01*
Y15735D01*
X3535Y15970D01*
D02*
G37*
G36*
X3250D02*
X3065D01*
X2830Y15735D01*
Y15550D01*
X3250D01*
Y15970D01*
D02*
G37*
G36*
Y15450D02*
X2830D01*
Y15265D01*
X3065Y15030D01*
X3250D01*
Y15450D01*
D02*
G37*
G36*
X2535Y15970D02*
X2065D01*
X1830Y15735D01*
Y15265D01*
X2065Y15030D01*
X2535D01*
X2770Y15265D01*
Y15735D01*
X2535Y15970D01*
D02*
G37*
G36*
Y14970D02*
X2065D01*
X1830Y14735D01*
Y14265D01*
X2065Y14030D01*
X2535D01*
X2770Y14265D01*
Y14735D01*
X2535Y14970D01*
D02*
G37*
G36*
X11260Y13363D02*
X10740D01*
X10646Y13351D01*
X10558Y13314D01*
X10483Y13257D01*
X10426Y13182D01*
X10389Y13094D01*
X10377Y13000D01*
X10389Y12906D01*
X10426Y12818D01*
X10483Y12743D01*
X10558Y12686D01*
X10646Y12649D01*
X10740Y12637D01*
X11260D01*
X11354Y12649D01*
X11442Y12686D01*
X11517Y12743D01*
X11574Y12818D01*
X11611Y12906D01*
X11623Y13000D01*
X11611Y13094D01*
X11574Y13182D01*
X11517Y13257D01*
X11442Y13314D01*
X11354Y13351D01*
X11260Y13363D01*
D02*
G37*
G36*
Y12363D02*
X10740D01*
X10646Y12351D01*
X10558Y12314D01*
X10483Y12257D01*
X10426Y12182D01*
X10389Y12094D01*
X10377Y12000D01*
X10389Y11906D01*
X10426Y11818D01*
X10483Y11743D01*
X10558Y11686D01*
X10646Y11649D01*
X10740Y11637D01*
X11260D01*
X11354Y11649D01*
X11442Y11686D01*
X11517Y11743D01*
X11574Y11818D01*
X11611Y11906D01*
X11623Y12000D01*
X11611Y12094D01*
X11574Y12182D01*
X11517Y12257D01*
X11442Y12314D01*
X11354Y12351D01*
X11260Y12363D01*
D02*
G37*
G36*
X3150Y11692D02*
X3097Y11685D01*
X3001Y11645D01*
X2918Y11582D01*
X2855Y11499D01*
X2815Y11403D01*
X2808Y11350D01*
X3150D01*
Y11692D01*
D02*
G37*
G36*
X3592Y11250D02*
X3250D01*
Y10908D01*
X3303Y10915D01*
X3399Y10955D01*
X3482Y11018D01*
X3545Y11101D01*
X3585Y11197D01*
X3592Y11250D01*
D02*
G37*
G36*
X3150D02*
X2808D01*
X2815Y11197D01*
X2855Y11101D01*
X2918Y11018D01*
X3001Y10955D01*
X3097Y10915D01*
X3150Y10908D01*
Y11250D01*
D02*
G37*
G36*
X11260Y11363D02*
X10740D01*
X10646Y11351D01*
X10558Y11314D01*
X10483Y11257D01*
X10426Y11182D01*
X10389Y11094D01*
X10377Y11000D01*
X10389Y10906D01*
X10426Y10818D01*
X10483Y10743D01*
X10558Y10686D01*
X10646Y10649D01*
X10740Y10637D01*
X11260D01*
X11354Y10649D01*
X11442Y10686D01*
X11517Y10743D01*
X11574Y10818D01*
X11611Y10906D01*
X11623Y11000D01*
X11611Y11094D01*
X11574Y11182D01*
X11517Y11257D01*
X11442Y11314D01*
X11354Y11351D01*
X11260Y11363D01*
D02*
G37*
G36*
X13300Y10333D02*
Y10050D01*
X13583D01*
X13578Y10088D01*
X13544Y10170D01*
X13490Y10240D01*
X13420Y10294D01*
X13338Y10328D01*
X13300Y10333D01*
D02*
G37*
G36*
X11260Y10363D02*
X11050D01*
Y10050D01*
X11617D01*
X11611Y10094D01*
X11574Y10182D01*
X11517Y10257D01*
X11442Y10314D01*
X11354Y10351D01*
X11260Y10363D01*
D02*
G37*
G36*
X10950D02*
X10740D01*
X10646Y10351D01*
X10558Y10314D01*
X10483Y10257D01*
X10426Y10182D01*
X10389Y10094D01*
X10383Y10050D01*
X10950D01*
Y10363D01*
D02*
G37*
G36*
X13200Y10333D02*
X13162Y10328D01*
X13080Y10294D01*
X13010Y10240D01*
X12956Y10170D01*
X12922Y10088D01*
X12917Y10050D01*
X13200D01*
Y10333D01*
D02*
G37*
G36*
X13583Y9950D02*
X13300D01*
Y9667D01*
X13338Y9672D01*
X13420Y9706D01*
X13490Y9760D01*
X13544Y9830D01*
X13578Y9912D01*
X13583Y9950D01*
D02*
G37*
G36*
X13200D02*
X12917D01*
X12922Y9912D01*
X12956Y9830D01*
X13010Y9760D01*
X13080Y9706D01*
X13162Y9672D01*
X13200Y9667D01*
Y9950D01*
D02*
G37*
G36*
X11617D02*
X10383D01*
X10389Y9906D01*
X10426Y9818D01*
X10483Y9743D01*
X10558Y9686D01*
X10646Y9649D01*
X10740Y9637D01*
X10847D01*
Y9363D01*
X10740D01*
X10646Y9351D01*
X10558Y9314D01*
X10483Y9257D01*
X10426Y9182D01*
X10389Y9094D01*
X10383Y9050D01*
X11617D01*
X11611Y9094D01*
X11574Y9182D01*
X11517Y9257D01*
X11442Y9314D01*
X11354Y9351D01*
X11260Y9363D01*
X11153D01*
Y9637D01*
X11260D01*
X11354Y9649D01*
X11442Y9686D01*
X11517Y9743D01*
X11574Y9818D01*
X11611Y9906D01*
X11617Y9950D01*
D02*
G37*
G36*
Y8950D02*
X11050D01*
Y8637D01*
X11260D01*
X11354Y8649D01*
X11442Y8686D01*
X11517Y8743D01*
X11574Y8818D01*
X11611Y8906D01*
X11617Y8950D01*
D02*
G37*
G36*
X10950D02*
X10383D01*
X10389Y8906D01*
X10426Y8818D01*
X10483Y8743D01*
X10558Y8686D01*
X10646Y8649D01*
X10740Y8637D01*
X10950D01*
Y8950D01*
D02*
G37*
G36*
X16250Y5649D02*
X16147Y5635D01*
X16051Y5595D01*
X15968Y5532D01*
X15905Y5449D01*
X15865Y5353D01*
X15851Y5250D01*
X15865Y5147D01*
X15905Y5051D01*
X15968Y4968D01*
X16051Y4905D01*
X16147Y4865D01*
X16250Y4851D01*
X16353Y4865D01*
X16449Y4905D01*
X16532Y4968D01*
X16595Y5051D01*
X16635Y5147D01*
X16649Y5250D01*
X16635Y5353D01*
X16595Y5449D01*
X16532Y5532D01*
X16449Y5595D01*
X16353Y5635D01*
X16250Y5649D01*
D02*
G37*
G36*
X11083D02*
X10980Y5635D01*
X10884Y5595D01*
X10801Y5532D01*
X10738Y5449D01*
X10698Y5353D01*
X10685Y5250D01*
X10698Y5147D01*
X10738Y5051D01*
X10801Y4968D01*
X10884Y4905D01*
X10980Y4865D01*
X11083Y4851D01*
X11187Y4865D01*
X11283Y4905D01*
X11365Y4968D01*
X11429Y5051D01*
X11468Y5147D01*
X11482Y5250D01*
X11468Y5353D01*
X11429Y5449D01*
X11365Y5532D01*
X11283Y5595D01*
X11187Y5635D01*
X11083Y5649D01*
D02*
G37*
G36*
X8260Y9363D02*
X7740D01*
X7646Y9351D01*
X7558Y9314D01*
X7483Y9257D01*
X7426Y9182D01*
X7389Y9094D01*
X7377Y9000D01*
X7389Y8906D01*
X7426Y8818D01*
X7483Y8743D01*
X7558Y8686D01*
X7646Y8649D01*
X7740Y8637D01*
X7847D01*
Y5750D01*
X7859Y5691D01*
X7892Y5642D01*
X8134Y5400D01*
X8115Y5353D01*
X8101Y5250D01*
X8115Y5147D01*
X8155Y5051D01*
X8218Y4968D01*
X8301Y4905D01*
X8397Y4865D01*
X8500Y4851D01*
X8603Y4865D01*
X8699Y4905D01*
X8782Y4968D01*
X8845Y5051D01*
X8885Y5147D01*
X8899Y5250D01*
X8885Y5353D01*
X8845Y5449D01*
X8782Y5532D01*
X8699Y5595D01*
X8603Y5635D01*
X8500Y5649D01*
X8397Y5635D01*
X8350Y5616D01*
X8153Y5813D01*
Y8637D01*
X8260D01*
X8354Y8649D01*
X8442Y8686D01*
X8517Y8743D01*
X8574Y8818D01*
X8611Y8906D01*
X8623Y9000D01*
X8611Y9094D01*
X8574Y9182D01*
X8517Y9257D01*
X8442Y9314D01*
X8354Y9351D01*
X8260Y9363D01*
D02*
G37*
G36*
X16250Y4649D02*
X16147Y4635D01*
X16051Y4595D01*
X15968Y4532D01*
X15905Y4449D01*
X15865Y4353D01*
X15851Y4250D01*
X15865Y4147D01*
X15905Y4051D01*
X15968Y3968D01*
X16051Y3905D01*
X16147Y3865D01*
X16250Y3851D01*
X16353Y3865D01*
X16449Y3905D01*
X16532Y3968D01*
X16595Y4051D01*
X16635Y4147D01*
X16649Y4250D01*
X16635Y4353D01*
X16595Y4449D01*
X16532Y4532D01*
X16449Y4595D01*
X16353Y4635D01*
X16250Y4649D01*
D02*
G37*
G36*
X11083D02*
X10980Y4635D01*
X10884Y4595D01*
X10801Y4532D01*
X10738Y4449D01*
X10698Y4353D01*
X10685Y4250D01*
X10698Y4147D01*
X10738Y4051D01*
X10801Y3968D01*
X10884Y3905D01*
X10980Y3865D01*
X11083Y3851D01*
X11187Y3865D01*
X11283Y3905D01*
X11365Y3968D01*
X11429Y4051D01*
X11468Y4147D01*
X11482Y4250D01*
X11468Y4353D01*
X11429Y4449D01*
X11365Y4532D01*
X11283Y4595D01*
X11187Y4635D01*
X11083Y4649D01*
D02*
G37*
G36*
X10083Y5649D02*
X9980Y5635D01*
X9884Y5595D01*
X9801Y5532D01*
X9738Y5449D01*
X9698Y5353D01*
X9685Y5250D01*
X9698Y5147D01*
X9738Y5051D01*
X9801Y4968D01*
X9884Y4905D01*
X9930Y4886D01*
Y4614D01*
X9884Y4595D01*
X9801Y4532D01*
X9738Y4449D01*
X9698Y4353D01*
X9685Y4250D01*
X9698Y4147D01*
X9738Y4051D01*
X9801Y3968D01*
X9884Y3905D01*
X9980Y3865D01*
X10083Y3851D01*
X10187Y3865D01*
X10283Y3905D01*
X10365Y3968D01*
X10429Y4051D01*
X10468Y4147D01*
X10482Y4250D01*
X10468Y4353D01*
X10429Y4449D01*
X10365Y4532D01*
X10283Y4595D01*
X10236Y4614D01*
Y4886D01*
X10283Y4905D01*
X10365Y4968D01*
X10429Y5051D01*
X10468Y5147D01*
X10482Y5250D01*
X10468Y5353D01*
X10429Y5449D01*
X10365Y5532D01*
X10283Y5595D01*
X10187Y5635D01*
X10083Y5649D01*
D02*
G37*
G36*
X8500Y4649D02*
X8397Y4635D01*
X8301Y4595D01*
X8218Y4532D01*
X8155Y4449D01*
X8115Y4353D01*
X8101Y4250D01*
X8115Y4147D01*
X8155Y4051D01*
X8218Y3968D01*
X8301Y3905D01*
X8397Y3865D01*
X8500Y3851D01*
X8603Y3865D01*
X8699Y3905D01*
X8782Y3968D01*
X8845Y4051D01*
X8885Y4147D01*
X8899Y4250D01*
X8885Y4353D01*
X8845Y4449D01*
X8782Y4532D01*
X8699Y4595D01*
X8603Y4635D01*
X8500Y4649D01*
D02*
G37*
G36*
X7500Y5649D02*
X7397Y5635D01*
X7301Y5595D01*
X7218Y5532D01*
X7155Y5449D01*
X7115Y5353D01*
X7101Y5250D01*
X7115Y5147D01*
X7155Y5051D01*
X7218Y4968D01*
X7301Y4905D01*
X7347Y4886D01*
Y4614D01*
X7301Y4595D01*
X7218Y4532D01*
X7155Y4449D01*
X7115Y4353D01*
X7101Y4250D01*
X7115Y4147D01*
X7155Y4051D01*
X7218Y3968D01*
X7301Y3905D01*
X7397Y3865D01*
X7500Y3851D01*
X7603Y3865D01*
X7699Y3905D01*
X7782Y3968D01*
X7845Y4051D01*
X7885Y4147D01*
X7899Y4250D01*
X7885Y4353D01*
X7845Y4449D01*
X7782Y4532D01*
X7699Y4595D01*
X7653Y4614D01*
Y4886D01*
X7699Y4905D01*
X7782Y4968D01*
X7845Y5051D01*
X7885Y5147D01*
X7899Y5250D01*
X7885Y5353D01*
X7845Y5449D01*
X7782Y5532D01*
X7699Y5595D01*
X7603Y5635D01*
X7500Y5649D01*
D02*
G37*
G36*
X10083Y3649D02*
X9980Y3635D01*
X9884Y3595D01*
X9801Y3532D01*
X9738Y3449D01*
X9698Y3353D01*
X9685Y3250D01*
X9698Y3147D01*
X9738Y3051D01*
X9801Y2968D01*
X9884Y2905D01*
X9980Y2865D01*
X10083Y2851D01*
X10187Y2865D01*
X10283Y2905D01*
X10365Y2968D01*
X10429Y3051D01*
X10468Y3147D01*
X10482Y3250D01*
X10468Y3353D01*
X10429Y3449D01*
X10365Y3532D01*
X10283Y3595D01*
X10187Y3635D01*
X10083Y3649D01*
D02*
G37*
G36*
X7500D02*
X7397Y3635D01*
X7301Y3595D01*
X7218Y3532D01*
X7155Y3449D01*
X7115Y3353D01*
X7101Y3250D01*
X7115Y3147D01*
X7155Y3051D01*
X7218Y2968D01*
X7301Y2905D01*
X7397Y2865D01*
X7500Y2851D01*
X7603Y2865D01*
X7699Y2905D01*
X7782Y2968D01*
X7845Y3051D01*
X7885Y3147D01*
X7899Y3250D01*
X7885Y3353D01*
X7845Y3449D01*
X7782Y3532D01*
X7699Y3595D01*
X7603Y3635D01*
X7500Y3649D01*
D02*
G37*
G36*
X26450Y2398D02*
X26397Y2391D01*
X26301Y2351D01*
X26218Y2288D01*
X26155Y2205D01*
X26115Y2109D01*
X26108Y2056D01*
X26450D01*
Y2398D01*
D02*
G37*
G36*
Y1956D02*
X26108D01*
X26115Y1903D01*
X26155Y1807D01*
X26218Y1724D01*
X26301Y1661D01*
X26397Y1621D01*
X26450Y1614D01*
Y1956D01*
D02*
G37*
%LPD*%
D12*
X14950Y1500D02*
X18380D01*
X14450Y2000D02*
X14950Y1500D01*
X18380D02*
X18710Y1830D01*
X16600Y1720D02*
X16840Y1960D01*
X15800Y1720D02*
X16600D01*
X15800D02*
Y2700D01*
X16840Y1960D02*
Y2206D01*
X14450Y2000D02*
Y3300D01*
X29250Y27024D02*
X29750Y26524D01*
Y12726D02*
Y14000D01*
X28774Y8085D02*
X29189Y8500D01*
X20847Y5285D02*
Y5399D01*
X10610Y33774D02*
X11300D01*
X13690Y33410D02*
X16720Y30380D01*
X18650Y28900D02*
X19950D01*
X7240Y25650D02*
X7600Y25290D01*
X6500Y26390D02*
X7240Y25650D01*
X7470Y15000D02*
X8000D01*
X7040D02*
X7470D01*
X3700Y15100D02*
X3860Y14940D01*
X3300Y15500D02*
X3700Y15100D01*
X5870Y11130D02*
Y14628D01*
X25780Y30050D02*
Y30250D01*
X26500Y9476D02*
X28524Y11500D01*
X26500Y5006D02*
Y9476D01*
X28524Y11500D02*
X29750Y12726D01*
X28313Y13750D02*
X28663Y13400D01*
X29150D01*
X29750Y14000D01*
Y26524D01*
X28524Y27750D02*
X29250Y27024D01*
Y26163D02*
Y27024D01*
X27837Y24750D02*
X29250Y26163D01*
X28774Y8085D02*
Y8166D01*
X29189Y8500D02*
X29250D01*
Y10774D01*
X28524Y11500D02*
X29250Y10774D01*
X8000Y16000D02*
X9090D01*
X9490Y15600D01*
Y14400D02*
Y15600D01*
Y14400D02*
X9890Y14000D01*
X11000D01*
X10500Y24500D02*
X11400Y25400D01*
X3700Y24500D02*
X10500D01*
X2400Y23200D02*
X3700Y24500D01*
X11400Y25400D02*
X12850Y26850D01*
Y29400D01*
X9200Y33800D02*
X9219Y33781D01*
X10036D01*
X12396Y29400D02*
X12850D01*
X12250Y29546D02*
X12396Y29400D01*
X12250Y29546D02*
Y30286D01*
X10036Y32500D02*
X12250Y30286D01*
X10036Y32500D02*
Y33781D01*
X10610Y33774D01*
X11300Y33763D02*
Y33774D01*
X16720Y8920D02*
Y30380D01*
X16520Y8720D02*
X16720Y8920D01*
X18350Y23800D02*
Y25750D01*
Y23800D02*
X18850Y23300D01*
X8000Y5750D02*
Y9000D01*
Y5750D02*
X8500Y5250D01*
X27563Y29600D02*
Y31000D01*
X26213Y28250D02*
X27563Y29600D01*
X25524Y28250D02*
X26213D01*
X17350Y23500D02*
Y25750D01*
X17150Y23300D02*
X17350Y23500D01*
X22216Y6879D02*
X25837Y10500D01*
X18800Y6879D02*
X22216D01*
X18389Y6468D02*
X18800Y6879D01*
X18389Y5285D02*
Y6468D01*
Y5285D02*
X18750D01*
X17150Y11950D02*
Y14250D01*
Y11950D02*
X17350Y11750D01*
X17150Y23300D02*
X17576Y22874D01*
Y14676D02*
Y22874D01*
X17150Y14250D02*
X17576Y14676D01*
X3860Y11960D02*
Y14940D01*
X3200Y11300D02*
X3860Y11960D01*
X6940Y15100D02*
X7040Y15000D01*
X5875Y15100D02*
X6940D01*
X3400Y25200D02*
Y27300D01*
X1400Y23200D02*
X3400Y25200D01*
X9386Y25876D02*
Y26225D01*
X7600Y25290D02*
X8800D01*
X6500Y26390D02*
Y27300D01*
X12740Y32800D02*
X13300D01*
X12220Y33320D02*
X12740Y32800D01*
X11409Y33320D02*
X12220D01*
X10926Y32837D02*
X11409Y33320D01*
X9386Y29379D02*
Y32614D01*
X9200Y32800D02*
X9386Y32614D01*
X18750Y3750D02*
X19600D01*
X19770Y3580D01*
X19601Y1370D02*
X20170Y1939D01*
Y4006D01*
X18750Y4006D02*
X20170Y4006D01*
X13250Y11000D02*
Y14960D01*
X11000Y15000D02*
X13250Y14960D01*
X24200Y11137D02*
X24837Y10500D01*
X24200Y11137D02*
Y18740D01*
X24400Y18940D01*
X25400D01*
X26813Y17527D01*
Y14500D02*
Y17527D01*
X6500Y32900D02*
Y33300D01*
X4500Y35300D02*
X6500Y33300D01*
X4500Y28300D02*
Y29700D01*
Y28300D02*
X5500Y27300D01*
X24774Y8166D02*
X26313Y9706D01*
Y13750D01*
X20722Y3494D02*
X21073D01*
X20450Y3766D02*
X20722Y3494D01*
X20450Y3766D02*
Y4680D01*
X10640Y29400D02*
X11400D01*
X10140Y28900D02*
X10640Y29400D01*
X8097Y28900D02*
X10140D01*
X7618Y29379D02*
X8097Y28900D01*
X21073Y4774D02*
X21420D01*
X21498Y4852D01*
Y5472D01*
X21200Y5770D02*
X21498Y5472D01*
X17120Y8640D02*
Y8940D01*
X16800Y8320D02*
X17120Y8640D01*
X16200Y8320D02*
X16800D01*
X16090Y8430D02*
X16200Y8320D01*
X16090Y8430D02*
Y24910D01*
X15600Y25400D02*
X16090Y24910D01*
X14300Y25400D02*
X15600D01*
X18750Y4262D02*
X19242D01*
X19580Y4600D01*
Y4820D01*
X18750Y4518D02*
X19180D01*
Y5580D01*
X18950Y5810D02*
X19180Y5580D01*
X15250Y3250D02*
X15800Y2700D01*
X16840Y2206D02*
X17000Y2366D01*
X17740D01*
X17874Y2232D01*
X19176D01*
Y2600D01*
X19049Y2726D02*
X19176Y2600D01*
X18750Y2726D02*
X19049D01*
X18850Y12250D02*
Y14250D01*
X18350Y11750D02*
X18850Y12250D01*
X18364Y4774D02*
X18750D01*
X18090Y4500D02*
X18364Y4774D01*
X16890Y3750D02*
Y6790D01*
X15520Y8160D02*
X16890Y6790D01*
X15520Y8160D02*
Y12980D01*
X12040Y16460D02*
X15520Y12980D01*
X10640Y16460D02*
X12040D01*
X9100Y18000D02*
X10640Y16460D01*
X8000Y18000D02*
X9100D01*
X11000Y20000D02*
X14240D01*
X14640Y19600D01*
Y14970D02*
Y19600D01*
Y14970D02*
X15690Y13920D01*
X18750Y3494D02*
X19137D01*
X19580Y3051D01*
Y1830D02*
Y3051D01*
X18710Y1830D02*
X19580D01*
X14000Y3750D02*
X14450Y3300D01*
X13167Y3750D02*
X14000D01*
X12667Y4250D02*
X13167Y3750D01*
X17746Y5030D02*
X18750D01*
X17687Y4970D02*
X17746Y5030D01*
X17687Y2633D02*
Y4970D01*
Y2633D02*
X17754Y2566D01*
X18354D01*
X18450Y2470D01*
X18750D01*
X18132Y2982D02*
X18750D01*
X18120Y2970D02*
X18132Y2982D01*
X18750Y3238D02*
X19110D01*
X19376Y2973D01*
Y2032D02*
Y2973D01*
X17312Y2032D02*
X19376D01*
X17246Y1966D02*
X17312Y2032D01*
X20700Y5030D02*
X21073D01*
X19520Y6210D02*
X20700Y5030D01*
X11930Y7750D02*
Y14000D01*
X11520Y14410D02*
X11930Y14000D01*
X10600Y14410D02*
X11520D01*
X10260Y14750D02*
X10600Y14410D01*
X10260Y14750D02*
Y15520D01*
X9300Y16480D02*
X10260Y15520D01*
X7600Y16480D02*
X9300D01*
X7330Y16750D02*
X7600Y16480D01*
X7330Y16750D02*
Y18200D01*
X7540Y18410D01*
X8800D01*
X9500Y19110D01*
Y20500D01*
X10000Y21000D01*
X11000D01*
X20847Y5285D02*
X21073D01*
X20800Y5447D02*
X20847Y5399D01*
X20800Y5447D02*
Y5999D01*
X21000Y6199D01*
X24031D01*
X24750Y5480D01*
Y5006D02*
Y5480D01*
X21073Y4518D02*
X21488D01*
X21698Y4728D01*
Y5568D01*
X21870Y5740D01*
X17750Y29900D02*
X18200D01*
X17650Y29800D02*
X17750Y29900D01*
X17650Y26980D02*
Y29800D01*
Y26980D02*
X17776Y26854D01*
Y6836D02*
Y26854D01*
X17295Y6355D02*
X17776Y6836D01*
X17295Y3556D02*
Y6355D01*
X16989Y3250D02*
X17295Y3556D01*
X16250Y3250D02*
X16989D01*
X21073Y3750D02*
X21490D01*
X23200Y5460D01*
X24100D01*
X24250Y5310D01*
Y4800D02*
Y5310D01*
Y4800D02*
X24490Y4560D01*
X27696D01*
X28250Y4006D01*
X17350Y25750D02*
Y29980D01*
X17960Y30590D01*
X18400D01*
X18750Y30240D01*
Y29000D02*
Y30240D01*
X18650Y28900D02*
X18750Y29000D01*
X18200Y28900D02*
X18650D01*
X21200Y30150D02*
Y32500D01*
X19950Y28900D02*
X21200Y30150D01*
X20578Y3238D02*
X21073D01*
X20440Y3100D02*
X20578Y3238D01*
X20440Y1850D02*
Y3100D01*
Y1850D02*
X21250Y1040D01*
X26400D01*
X26950Y1590D01*
Y3556D01*
X26500Y4006D02*
X26950Y3556D01*
X21073Y2726D02*
X22576D01*
X23360Y3510D01*
X24254D01*
X24750Y4006D01*
X11674Y32500D02*
Y32837D01*
Y32500D02*
X11784Y32390D01*
X13480D01*
X13690Y32600D01*
Y33410D01*
X13300Y33800D02*
X13690Y33410D01*
X5870Y14628D02*
X5875D01*
X5870Y11130D02*
X7410Y9590D01*
X8460D01*
X8670Y9800D01*
Y12900D01*
X8570Y13000D02*
X8670Y12900D01*
X8000Y13000D02*
X8570D01*
X8800Y25290D02*
X9386Y25876D01*
X7240Y25650D02*
Y30840D01*
X9200Y32800D01*
X3700Y15100D02*
X5875D01*
X20640Y2982D02*
X21073D01*
X20640Y2230D02*
Y2982D01*
Y2230D02*
X21310Y1560D01*
X25054D01*
X26500Y3006D01*
X1300Y15500D02*
X2550Y16750D01*
X5925D01*
X6675Y16000D01*
X8000D01*
X6200Y17400D02*
Y21600D01*
X6600Y22000D01*
X8000D01*
X5875Y15580D02*
X8400D01*
X8670Y15310D01*
Y14100D02*
Y15310D01*
X8570Y14000D02*
X8670Y14100D01*
X8000Y14000D02*
X8570D01*
X13740Y25400D02*
X14300D01*
X13310Y25830D02*
X13740Y25400D01*
X12650Y25830D02*
X13310D01*
X12420Y25600D02*
X12650Y25830D01*
X12420Y22910D02*
Y25600D01*
X11510Y22000D02*
X12420Y22910D01*
X11000Y22000D02*
X11510D01*
X3400Y32400D02*
Y33000D01*
Y32400D02*
X4500Y31300D01*
X20450Y21800D02*
Y23300D01*
Y21800D02*
X22950Y19300D01*
X20450Y14250D02*
Y15800D01*
X22950Y18300D01*
X1250Y34150D02*
Y35300D01*
Y34150D02*
X2400Y33000D01*
X24524Y26750D02*
X25030Y27256D01*
Y28450D01*
X26563Y29983D01*
Y31000D01*
X1300Y28400D02*
Y29700D01*
Y28400D02*
X2400Y27300D01*
X12850Y21450D02*
Y25400D01*
X12400Y21000D02*
X12850Y21450D01*
X11000Y21000D02*
X12400D01*
X25780Y30250D02*
X26063D01*
X24290Y30050D02*
X25780D01*
X23837Y29597D02*
X24290Y30050D01*
X23837Y24750D02*
Y29597D01*
X780Y14980D02*
X1300Y15500D01*
X780Y12720D02*
Y14980D01*
Y12720D02*
X3200Y10300D01*
X3400Y27300D02*
Y30200D01*
X4500Y31300D01*
X21073Y2470D02*
X24285D01*
X24750Y2006D01*
X7270Y14800D02*
X7470Y15000D01*
X7270Y12200D02*
Y14800D01*
Y12200D02*
X7470Y12000D01*
X8000D01*
X24750Y2006D02*
Y3006D01*
X23750Y4006D02*
Y5006D01*
X8500Y2250D02*
Y3250D01*
X16250Y2250D02*
Y3250D01*
X13667Y2250D02*
Y3250D01*
X11083Y2250D02*
Y3250D01*
X25524Y26750D02*
Y28250D01*
X25837Y10500D02*
Y12000D01*
X18750Y5030D02*
Y5285D01*
X11000Y9000D02*
Y10000D01*
X8000D02*
Y11000D01*
Y12000D01*
X10083Y4250D02*
Y5250D01*
X7618Y26225D02*
Y29379D01*
X12667Y4250D02*
Y5250D01*
X7500Y4250D02*
Y5250D01*
X15250Y4250D02*
Y5250D01*
X28524Y30250D02*
Y34285D01*
Y37829D02*
Y39404D01*
X24587D02*
X28524D01*
X24587Y37829D02*
Y39404D01*
Y30250D02*
Y34285D01*
Y30250D02*
X25571D01*
X28774Y13750D02*
Y17785D01*
Y21329D02*
Y22904D01*
X24837D02*
X28774D01*
X24837Y21329D02*
Y22904D01*
Y13750D02*
Y17785D01*
Y13750D02*
X25821D01*
X0Y0D02*
Y40000D01*
X31500D01*
X31500Y0D01*
X0D02*
X31500D01*
D17*
X11300Y33763D02*
D03*
X11674Y32837D02*
D03*
X10926D02*
D03*
D18*
X9386Y26225D02*
D03*
Y29379D02*
D03*
X7618Y26225D02*
D03*
Y29379D02*
D03*
D19*
X5875Y14628D02*
D03*
Y15100D02*
D03*
Y15580D02*
D03*
D20*
X21073Y2470D02*
D03*
Y2726D02*
D03*
Y2982D02*
D03*
Y3238D02*
D03*
Y3494D02*
D03*
Y3750D02*
D03*
Y4006D02*
D03*
Y4262D02*
D03*
Y4518D02*
D03*
Y4774D02*
D03*
Y5030D02*
D03*
Y5285D02*
D03*
X18750Y2470D02*
D03*
Y2726D02*
D03*
Y2982D02*
D03*
Y3238D02*
D03*
Y3494D02*
D03*
Y3750D02*
D03*
Y4006D02*
D03*
Y4262D02*
D03*
Y4518D02*
D03*
Y4774D02*
D03*
Y5030D02*
D03*
Y5285D02*
D03*
D38*
X14725Y2591D02*
X14817D01*
X15158Y2250D01*
X15250D01*
X14725Y2591D02*
Y5585D01*
X14111Y6199D02*
X14725Y5585D01*
X12146Y6199D02*
X14111D01*
X12000Y6053D02*
X12146Y6199D01*
X12000Y2917D02*
Y6053D01*
Y2917D02*
X12667Y2250D01*
X9250Y1500D02*
X10000Y2250D01*
X10083D01*
X8250Y1500D02*
X9250D01*
X7500Y2250D02*
X8250Y1500D01*
X24750Y5006D02*
X26500D01*
X28063Y28211D02*
X28524Y27750D01*
X28063Y28211D02*
Y30250D01*
X3200Y6550D02*
X7500Y2250D01*
X3200Y6550D02*
Y10300D01*
X10083Y2250D02*
X10833Y1500D01*
X11917D01*
X12667Y2250D01*
X500Y16300D02*
X1300Y15500D01*
X500Y16300D02*
Y19200D01*
X1400Y20100D01*
X3100D01*
X4700D01*
X2400Y20800D02*
X3100Y20100D01*
X2400Y20800D02*
Y23200D01*
X12850Y29400D02*
X14300D01*
D39*
X3200Y10300D02*
D03*
X1500D02*
D03*
X28250Y5006D02*
D03*
X26500D02*
D03*
X22950Y18300D02*
D03*
X23750Y5006D02*
D03*
X16250Y2250D02*
D03*
X11083D02*
D03*
X13667D02*
D03*
X8500D02*
D03*
D40*
X3200Y11300D02*
D03*
X1500D02*
D03*
X28250Y2006D02*
D03*
Y3006D02*
D03*
Y4006D02*
D03*
X26500Y2006D02*
D03*
Y3006D02*
D03*
Y4006D02*
D03*
X1400Y23200D02*
D03*
X2400D02*
D03*
X3400D02*
D03*
X22950Y19300D02*
D03*
X24750Y2006D02*
D03*
X23750D02*
D03*
X24750Y3006D02*
D03*
X23750D02*
D03*
X24750Y4006D02*
D03*
X23750D02*
D03*
X24750Y5006D02*
D03*
X15250Y5250D02*
D03*
X16250D02*
D03*
X15250Y4250D02*
D03*
X16250D02*
D03*
X15250Y3250D02*
D03*
X16250D02*
D03*
X15250Y2250D02*
D03*
X10083Y5250D02*
D03*
X11083D02*
D03*
X10083Y4250D02*
D03*
X11083D02*
D03*
X10083Y3250D02*
D03*
X11083D02*
D03*
X10083Y2250D02*
D03*
X12667Y5250D02*
D03*
X13667D02*
D03*
X12667Y4250D02*
D03*
X13667D02*
D03*
X12667Y3250D02*
D03*
X13667D02*
D03*
X12667Y2250D02*
D03*
X7500Y5250D02*
D03*
X8500D02*
D03*
X7500Y4250D02*
D03*
X8500D02*
D03*
X7500Y3250D02*
D03*
X8500D02*
D03*
X7500Y2250D02*
D03*
D41*
X13300Y32800D02*
D03*
Y33800D02*
D03*
X9200Y32800D02*
D03*
Y33800D02*
D03*
X13250Y11000D02*
D03*
Y10000D02*
D03*
X1400Y20100D02*
D03*
Y19100D02*
D03*
X3100Y20100D02*
D03*
Y19100D02*
D03*
X4700Y20100D02*
D03*
Y19100D02*
D03*
X28524Y26750D02*
D03*
Y27750D02*
D03*
Y10500D02*
D03*
Y11500D02*
D03*
X24524Y28250D02*
D03*
X25524D02*
D03*
X24524Y26750D02*
D03*
X25524D02*
D03*
X24837Y12000D02*
D03*
X25837D02*
D03*
X24837Y10500D02*
D03*
X25837D02*
D03*
X17350Y11750D02*
D03*
X18350D02*
D03*
X17350Y25750D02*
D03*
X18350D02*
D03*
D42*
X1300Y14500D02*
D03*
Y15500D02*
D03*
X2300Y14500D02*
D03*
Y15500D02*
D03*
X3300Y14500D02*
D03*
Y15500D02*
D03*
D43*
X5500Y32900D02*
D03*
X6500D02*
D03*
X2400Y33000D02*
D03*
X3400D02*
D03*
X5500Y27300D02*
D03*
X6500D02*
D03*
X2400D02*
D03*
X3400D02*
D03*
D44*
X4500Y35300D02*
D03*
Y31300D02*
D03*
X14300Y25400D02*
D03*
Y29400D02*
D03*
X12850Y25400D02*
D03*
Y29400D02*
D03*
X20100Y28500D02*
D03*
Y32500D02*
D03*
X21200Y28500D02*
D03*
Y32500D02*
D03*
X11400Y25400D02*
D03*
Y29400D02*
D03*
X1250Y31300D02*
D03*
Y35300D02*
D03*
X4500Y25700D02*
D03*
Y29700D02*
D03*
X1300Y25700D02*
D03*
Y29700D02*
D03*
X27563Y31000D02*
D03*
X26563D02*
D03*
X27063Y30250D02*
D03*
X28063D02*
D03*
X27813Y14500D02*
D03*
X26813D02*
D03*
X27313Y13750D02*
D03*
X28313D02*
D03*
X23837Y24750D02*
D03*
X27837D02*
D03*
X24774Y8166D02*
D03*
X28774D02*
D03*
X18850Y14250D02*
D03*
Y18250D02*
D03*
X20450D02*
D03*
Y14250D02*
D03*
X18850Y23300D02*
D03*
Y19300D02*
D03*
X20450D02*
D03*
Y23300D02*
D03*
X17150Y18250D02*
D03*
Y14250D02*
D03*
Y19300D02*
D03*
Y23300D02*
D03*
D45*
X18200Y29900D02*
D03*
D46*
Y29400D02*
D03*
Y28900D02*
D03*
D47*
X11000Y22000D02*
D03*
Y21000D02*
D03*
Y20000D02*
D03*
Y19000D02*
D03*
Y18000D02*
D03*
Y17000D02*
D03*
Y16000D02*
D03*
Y15000D02*
D03*
Y14000D02*
D03*
Y13000D02*
D03*
Y12000D02*
D03*
Y11000D02*
D03*
Y10000D02*
D03*
Y9000D02*
D03*
X8000D02*
D03*
Y10000D02*
D03*
Y11000D02*
D03*
Y12000D02*
D03*
Y13000D02*
D03*
Y14000D02*
D03*
Y15000D02*
D03*
Y16000D02*
D03*
Y17000D02*
D03*
Y18000D02*
D03*
Y19000D02*
D03*
Y20000D02*
D03*
Y21000D02*
D03*
Y22000D02*
D03*
D48*
X4400Y23200D02*
D03*
D49*
X24642Y37313D02*
D03*
Y36093D02*
D03*
Y34872D02*
D03*
X28500D02*
D03*
Y36093D02*
D03*
Y37313D02*
D03*
X24892Y20813D02*
D03*
Y19593D02*
D03*
Y18372D02*
D03*
X28750D02*
D03*
Y19593D02*
D03*
Y20813D02*
D03*
D50*
X26063Y30250D02*
D03*
X26313Y13750D02*
D03*
D51*
X16520Y8720D02*
D03*
X19770Y3580D02*
D03*
X19601Y1370D02*
D03*
X20450Y4680D02*
D03*
X21200Y5770D02*
D03*
X17120Y8940D02*
D03*
X19580Y4820D02*
D03*
X18950Y5810D02*
D03*
X18090Y4500D02*
D03*
X16890Y3750D02*
D03*
X15690Y13920D02*
D03*
X18120Y2970D02*
D03*
X17246Y1966D02*
D03*
X19520Y6210D02*
D03*
X11930Y7750D02*
D03*
X21870Y5740D02*
D03*
X6200Y17400D02*
D03*
M02*
