G04*
G04 #@! TF.GenerationSoftware,Altium Limited,Altium Designer,20.0.10 (225)*
G04*
G04 Layer_Color=32768*
%FSLAX24Y24*%
%MOIN*%
G70*
G01*
G75*
%ADD12C,0.0100*%
%ADD52C,0.0039*%
G36*
X7673Y27590D02*
X7437D01*
X7437Y27590D01*
X7439Y27588D01*
X7442Y27585D01*
X7445Y27581D01*
X7449Y27576D01*
X7453Y27570D01*
X7458Y27563D01*
X7463Y27555D01*
Y27555D01*
X7463Y27554D01*
X7465Y27552D01*
X7467Y27547D01*
X7470Y27542D01*
X7473Y27536D01*
X7476Y27529D01*
X7479Y27523D01*
X7481Y27516D01*
X7446D01*
Y27517D01*
X7445Y27517D01*
X7444Y27519D01*
X7443Y27521D01*
X7442Y27524D01*
X7440Y27527D01*
X7436Y27534D01*
X7431Y27543D01*
X7425Y27552D01*
X7418Y27561D01*
X7410Y27570D01*
X7410Y27571D01*
X7409Y27571D01*
X7408Y27572D01*
X7407Y27574D01*
X7402Y27578D01*
X7397Y27583D01*
X7391Y27589D01*
X7384Y27594D01*
X7377Y27599D01*
X7370Y27603D01*
Y27628D01*
X7673D01*
Y27590D01*
D02*
G37*
G36*
X7407Y27362D02*
X7673D01*
Y27322D01*
X7407D01*
Y27222D01*
X7371D01*
Y27461D01*
X7407D01*
Y27362D01*
D02*
G37*
G36*
X7597Y27189D02*
X7603Y27188D01*
X7610Y27186D01*
X7618Y27184D01*
X7626Y27180D01*
X7634Y27176D01*
X7634D01*
X7635Y27175D01*
X7637Y27173D01*
X7641Y27170D01*
X7646Y27166D01*
X7651Y27160D01*
X7657Y27153D01*
X7662Y27145D01*
X7667Y27136D01*
Y27135D01*
X7667Y27135D01*
X7668Y27133D01*
X7668Y27132D01*
X7669Y27129D01*
X7671Y27126D01*
X7672Y27119D01*
X7675Y27111D01*
X7677Y27101D01*
X7678Y27090D01*
X7678Y27078D01*
Y27071D01*
X7678Y27067D01*
Y27063D01*
X7678Y27059D01*
X7677Y27054D01*
X7675Y27043D01*
X7674Y27031D01*
X7671Y27020D01*
X7667Y27009D01*
Y27009D01*
X7666Y27008D01*
X7665Y27007D01*
X7664Y27005D01*
X7662Y27000D01*
X7658Y26993D01*
X7653Y26986D01*
X7647Y26979D01*
X7639Y26972D01*
X7631Y26965D01*
X7630D01*
X7630Y26965D01*
X7628Y26964D01*
X7626Y26963D01*
X7624Y26962D01*
X7622Y26961D01*
X7615Y26958D01*
X7607Y26955D01*
X7598Y26952D01*
X7587Y26950D01*
X7576Y26949D01*
X7573Y26987D01*
X7573D01*
X7574D01*
X7575Y26987D01*
X7577D01*
X7581Y26988D01*
X7586Y26990D01*
X7592Y26991D01*
X7599Y26993D01*
X7605Y26996D01*
X7610Y26999D01*
X7611Y27000D01*
X7612Y27001D01*
X7616Y27003D01*
X7619Y27007D01*
X7623Y27011D01*
X7626Y27016D01*
X7630Y27022D01*
X7634Y27029D01*
Y27030D01*
X7634Y27030D01*
X7635Y27031D01*
X7635Y27033D01*
X7637Y27037D01*
X7638Y27043D01*
X7640Y27050D01*
X7641Y27058D01*
X7642Y27066D01*
X7643Y27076D01*
Y27080D01*
X7642Y27084D01*
X7642Y27090D01*
X7641Y27096D01*
X7640Y27103D01*
X7638Y27110D01*
X7636Y27116D01*
X7636Y27117D01*
X7635Y27119D01*
X7633Y27122D01*
X7631Y27126D01*
X7628Y27130D01*
X7625Y27135D01*
X7622Y27139D01*
X7617Y27142D01*
X7617Y27143D01*
X7615Y27144D01*
X7613Y27145D01*
X7609Y27147D01*
X7606Y27149D01*
X7602Y27150D01*
X7597Y27151D01*
X7592Y27151D01*
X7591D01*
X7589D01*
X7586Y27151D01*
X7583Y27150D01*
X7579Y27149D01*
X7575Y27148D01*
X7571Y27146D01*
X7567Y27142D01*
X7566Y27142D01*
X7565Y27141D01*
X7563Y27139D01*
X7560Y27136D01*
X7558Y27132D01*
X7555Y27128D01*
X7552Y27122D01*
X7549Y27115D01*
X7549Y27115D01*
X7548Y27113D01*
X7547Y27109D01*
X7546Y27107D01*
X7546Y27104D01*
X7544Y27101D01*
X7543Y27097D01*
X7542Y27093D01*
X7541Y27087D01*
X7540Y27082D01*
X7538Y27076D01*
X7536Y27069D01*
X7534Y27062D01*
Y27061D01*
X7534Y27060D01*
X7533Y27058D01*
X7533Y27055D01*
X7532Y27052D01*
X7531Y27048D01*
X7528Y27039D01*
X7525Y27029D01*
X7522Y27019D01*
X7519Y27010D01*
X7517Y27007D01*
X7515Y27003D01*
Y27003D01*
X7515Y27002D01*
X7513Y27000D01*
X7511Y26996D01*
X7508Y26991D01*
X7504Y26986D01*
X7499Y26981D01*
X7493Y26976D01*
X7487Y26971D01*
X7486Y26971D01*
X7484Y26969D01*
X7481Y26968D01*
X7476Y26966D01*
X7470Y26964D01*
X7464Y26962D01*
X7457Y26961D01*
X7449Y26961D01*
X7449D01*
X7449D01*
X7447D01*
X7446D01*
X7441Y26962D01*
X7436Y26962D01*
X7429Y26964D01*
X7422Y26966D01*
X7414Y26969D01*
X7407Y26973D01*
X7406D01*
X7406Y26974D01*
X7403Y26976D01*
X7400Y26979D01*
X7395Y26983D01*
X7390Y26988D01*
X7385Y26995D01*
X7380Y27003D01*
X7376Y27011D01*
Y27012D01*
X7376Y27013D01*
X7375Y27014D01*
X7374Y27016D01*
X7373Y27018D01*
X7373Y27021D01*
X7371Y27028D01*
X7369Y27036D01*
X7367Y27045D01*
X7366Y27055D01*
X7366Y27067D01*
Y27073D01*
X7366Y27076D01*
Y27079D01*
X7367Y27087D01*
X7368Y27096D01*
X7370Y27106D01*
X7373Y27116D01*
X7376Y27126D01*
Y27126D01*
X7377Y27127D01*
X7378Y27128D01*
X7379Y27130D01*
X7381Y27135D01*
X7385Y27140D01*
X7389Y27147D01*
X7395Y27153D01*
X7401Y27160D01*
X7409Y27165D01*
X7409D01*
X7410Y27166D01*
X7411Y27167D01*
X7412Y27167D01*
X7417Y27170D01*
X7422Y27172D01*
X7429Y27175D01*
X7438Y27177D01*
X7446Y27180D01*
X7456Y27180D01*
X7459Y27142D01*
X7459D01*
X7458D01*
X7456Y27142D01*
X7454Y27141D01*
X7449Y27140D01*
X7443Y27138D01*
X7436Y27135D01*
X7429Y27132D01*
X7422Y27127D01*
X7416Y27121D01*
X7416Y27120D01*
X7414Y27118D01*
X7411Y27113D01*
X7409Y27108D01*
X7406Y27100D01*
X7404Y27091D01*
X7402Y27080D01*
X7401Y27068D01*
Y27062D01*
X7402Y27059D01*
X7402Y27056D01*
X7403Y27048D01*
X7405Y27039D01*
X7407Y27031D01*
X7411Y27022D01*
X7413Y27019D01*
X7415Y27015D01*
X7415Y27014D01*
X7417Y27013D01*
X7420Y27010D01*
X7424Y27007D01*
X7429Y27004D01*
X7434Y27002D01*
X7440Y27000D01*
X7447Y26999D01*
X7448D01*
X7449D01*
X7453Y27000D01*
X7456Y27000D01*
X7460Y27002D01*
X7465Y27004D01*
X7469Y27007D01*
X7474Y27010D01*
X7474Y27011D01*
X7475Y27013D01*
X7477Y27015D01*
X7477Y27017D01*
X7479Y27019D01*
X7481Y27022D01*
X7482Y27026D01*
X7484Y27031D01*
X7485Y27035D01*
X7487Y27041D01*
X7489Y27047D01*
X7491Y27054D01*
X7493Y27062D01*
X7495Y27071D01*
Y27071D01*
X7496Y27073D01*
X7496Y27076D01*
X7497Y27079D01*
X7498Y27083D01*
X7499Y27087D01*
X7501Y27092D01*
X7502Y27097D01*
X7505Y27109D01*
X7508Y27120D01*
X7510Y27125D01*
X7512Y27130D01*
X7513Y27134D01*
X7515Y27138D01*
Y27138D01*
X7515Y27139D01*
X7516Y27140D01*
X7517Y27142D01*
X7519Y27147D01*
X7523Y27153D01*
X7528Y27159D01*
X7533Y27166D01*
X7539Y27172D01*
X7546Y27177D01*
X7546Y27177D01*
X7549Y27179D01*
X7553Y27181D01*
X7558Y27184D01*
X7564Y27186D01*
X7571Y27188D01*
X7580Y27189D01*
X7588Y27190D01*
X7589D01*
X7589D01*
X7591D01*
X7592D01*
X7597Y27189D01*
D02*
G37*
G36*
X7673Y26874D02*
X7610Y26834D01*
X7610D01*
X7609Y26834D01*
X7608Y26833D01*
X7606Y26831D01*
X7601Y26828D01*
X7595Y26824D01*
X7588Y26820D01*
X7581Y26815D01*
X7575Y26810D01*
X7569Y26806D01*
X7568Y26805D01*
X7567Y26804D01*
X7564Y26802D01*
X7561Y26799D01*
X7554Y26792D01*
X7551Y26788D01*
X7549Y26785D01*
X7548Y26785D01*
X7548Y26784D01*
X7547Y26782D01*
X7546Y26779D01*
X7544Y26777D01*
X7543Y26774D01*
X7541Y26767D01*
Y26766D01*
X7540Y26765D01*
Y26764D01*
X7540Y26761D01*
X7540Y26758D01*
Y26755D01*
X7539Y26750D01*
Y26698D01*
X7673D01*
Y26658D01*
X7371D01*
Y26799D01*
X7371Y26802D01*
Y26806D01*
X7372Y26815D01*
X7373Y26825D01*
X7374Y26835D01*
X7376Y26845D01*
X7378Y26850D01*
X7379Y26854D01*
Y26854D01*
X7380Y26854D01*
X7381Y26857D01*
X7383Y26861D01*
X7386Y26866D01*
X7390Y26871D01*
X7395Y26877D01*
X7401Y26882D01*
X7408Y26887D01*
X7408D01*
X7409Y26888D01*
X7411Y26889D01*
X7416Y26891D01*
X7422Y26894D01*
X7428Y26896D01*
X7436Y26898D01*
X7444Y26899D01*
X7453Y26900D01*
X7454D01*
X7455D01*
X7456D01*
X7459Y26899D01*
X7462D01*
X7465Y26899D01*
X7472Y26897D01*
X7481Y26895D01*
X7490Y26891D01*
X7499Y26886D01*
X7504Y26882D01*
X7508Y26879D01*
X7508Y26879D01*
X7509Y26878D01*
X7510Y26877D01*
X7512Y26875D01*
X7513Y26873D01*
X7515Y26870D01*
X7517Y26867D01*
X7520Y26863D01*
X7522Y26859D01*
X7524Y26854D01*
X7527Y26849D01*
X7529Y26843D01*
X7531Y26837D01*
X7533Y26830D01*
X7534Y26823D01*
X7536Y26815D01*
X7536Y26816D01*
X7537Y26817D01*
X7539Y26820D01*
X7540Y26823D01*
X7545Y26831D01*
X7548Y26835D01*
X7551Y26839D01*
X7552Y26840D01*
X7554Y26842D01*
X7557Y26845D01*
X7562Y26850D01*
X7568Y26854D01*
X7574Y26860D01*
X7582Y26866D01*
X7591Y26872D01*
X7673Y26924D01*
Y26874D01*
D02*
G37*
G36*
X9448Y31747D02*
X9454Y31746D01*
X9461Y31745D01*
X9468Y31742D01*
X9476Y31739D01*
X9484Y31734D01*
X9485D01*
X9485Y31734D01*
X9488Y31731D01*
X9492Y31728D01*
X9496Y31724D01*
X9501Y31718D01*
X9507Y31711D01*
X9512Y31703D01*
X9517Y31694D01*
Y31694D01*
X9517Y31693D01*
X9518Y31692D01*
X9519Y31690D01*
X9520Y31687D01*
X9521Y31684D01*
X9523Y31677D01*
X9525Y31669D01*
X9527Y31659D01*
X9528Y31648D01*
X9529Y31636D01*
Y31629D01*
X9528Y31626D01*
Y31622D01*
X9528Y31617D01*
X9528Y31612D01*
X9526Y31601D01*
X9524Y31590D01*
X9521Y31578D01*
X9517Y31568D01*
Y31567D01*
X9517Y31566D01*
X9516Y31565D01*
X9515Y31563D01*
X9512Y31558D01*
X9508Y31552D01*
X9503Y31545D01*
X9497Y31537D01*
X9490Y31530D01*
X9481Y31524D01*
X9481D01*
X9480Y31523D01*
X9479Y31523D01*
X9477Y31521D01*
X9475Y31520D01*
X9472Y31519D01*
X9466Y31516D01*
X9457Y31513D01*
X9448Y31510D01*
X9438Y31509D01*
X9427Y31508D01*
X9423Y31545D01*
X9424D01*
X9424D01*
X9425Y31546D01*
X9427D01*
X9431Y31547D01*
X9437Y31548D01*
X9442Y31550D01*
X9449Y31551D01*
X9455Y31554D01*
X9461Y31557D01*
X9461Y31558D01*
X9463Y31559D01*
X9466Y31561D01*
X9469Y31565D01*
X9473Y31569D01*
X9477Y31574D01*
X9481Y31581D01*
X9484Y31588D01*
Y31588D01*
X9485Y31588D01*
X9485Y31590D01*
X9486Y31591D01*
X9487Y31595D01*
X9489Y31601D01*
X9490Y31608D01*
X9492Y31616D01*
X9493Y31625D01*
X9493Y31634D01*
Y31638D01*
X9493Y31643D01*
X9492Y31648D01*
X9491Y31654D01*
X9490Y31661D01*
X9489Y31668D01*
X9486Y31675D01*
X9486Y31675D01*
X9485Y31678D01*
X9483Y31681D01*
X9482Y31685D01*
X9479Y31689D01*
X9476Y31693D01*
X9472Y31697D01*
X9468Y31701D01*
X9467Y31701D01*
X9466Y31702D01*
X9463Y31703D01*
X9460Y31705D01*
X9456Y31707D01*
X9452Y31708D01*
X9447Y31709D01*
X9442Y31710D01*
X9441D01*
X9439D01*
X9437Y31709D01*
X9433Y31709D01*
X9430Y31707D01*
X9425Y31706D01*
X9421Y31704D01*
X9417Y31701D01*
X9417Y31700D01*
X9415Y31699D01*
X9413Y31697D01*
X9411Y31694D01*
X9408Y31691D01*
X9405Y31686D01*
X9402Y31680D01*
X9400Y31674D01*
X9399Y31673D01*
X9399Y31671D01*
X9397Y31668D01*
X9397Y31665D01*
X9396Y31662D01*
X9395Y31659D01*
X9394Y31655D01*
X9393Y31651D01*
X9391Y31646D01*
X9390Y31641D01*
X9388Y31634D01*
X9386Y31627D01*
X9385Y31620D01*
Y31620D01*
X9384Y31618D01*
X9384Y31616D01*
X9383Y31613D01*
X9382Y31610D01*
X9381Y31606D01*
X9379Y31597D01*
X9375Y31588D01*
X9372Y31578D01*
X9369Y31569D01*
X9368Y31565D01*
X9366Y31561D01*
Y31561D01*
X9365Y31561D01*
X9364Y31558D01*
X9361Y31554D01*
X9358Y31550D01*
X9354Y31544D01*
X9349Y31539D01*
X9344Y31534D01*
X9337Y31530D01*
X9337Y31529D01*
X9334Y31528D01*
X9331Y31526D01*
X9327Y31524D01*
X9321Y31523D01*
X9314Y31521D01*
X9307Y31519D01*
X9300Y31519D01*
X9299D01*
X9299D01*
X9298D01*
X9296D01*
X9292Y31520D01*
X9286Y31521D01*
X9279Y31522D01*
X9272Y31524D01*
X9264Y31527D01*
X9257Y31532D01*
X9257D01*
X9256Y31532D01*
X9254Y31534D01*
X9250Y31537D01*
X9246Y31541D01*
X9241Y31547D01*
X9236Y31553D01*
X9231Y31561D01*
X9226Y31570D01*
Y31570D01*
X9226Y31571D01*
X9226Y31572D01*
X9225Y31574D01*
X9224Y31576D01*
X9223Y31579D01*
X9221Y31586D01*
X9219Y31594D01*
X9218Y31604D01*
X9216Y31614D01*
X9216Y31625D01*
Y31631D01*
X9216Y31634D01*
Y31637D01*
X9217Y31645D01*
X9219Y31654D01*
X9221Y31664D01*
X9223Y31675D01*
X9227Y31684D01*
Y31685D01*
X9227Y31686D01*
X9228Y31687D01*
X9229Y31689D01*
X9231Y31693D01*
X9235Y31699D01*
X9240Y31705D01*
X9245Y31712D01*
X9252Y31718D01*
X9259Y31724D01*
X9260D01*
X9260Y31724D01*
X9261Y31725D01*
X9263Y31726D01*
X9267Y31728D01*
X9273Y31731D01*
X9280Y31734D01*
X9288Y31736D01*
X9297Y31738D01*
X9306Y31739D01*
X9309Y31700D01*
X9309D01*
X9308D01*
X9307Y31700D01*
X9305Y31700D01*
X9300Y31698D01*
X9293Y31696D01*
X9286Y31694D01*
X9279Y31690D01*
X9273Y31685D01*
X9267Y31679D01*
X9266Y31678D01*
X9264Y31676D01*
X9262Y31672D01*
X9259Y31666D01*
X9257Y31658D01*
X9254Y31650D01*
X9252Y31639D01*
X9252Y31627D01*
Y31620D01*
X9252Y31618D01*
X9253Y31614D01*
X9254Y31606D01*
X9255Y31598D01*
X9257Y31589D01*
X9261Y31581D01*
X9263Y31577D01*
X9265Y31574D01*
X9266Y31573D01*
X9268Y31571D01*
X9271Y31568D01*
X9274Y31566D01*
X9279Y31563D01*
X9284Y31560D01*
X9290Y31558D01*
X9297Y31557D01*
X9298D01*
X9300D01*
X9303Y31558D01*
X9306Y31559D01*
X9311Y31560D01*
X9315Y31562D01*
X9320Y31565D01*
X9324Y31569D01*
X9324Y31569D01*
X9326Y31571D01*
X9327Y31573D01*
X9328Y31575D01*
X9329Y31578D01*
X9331Y31581D01*
X9332Y31585D01*
X9334Y31589D01*
X9336Y31594D01*
X9338Y31599D01*
X9340Y31606D01*
X9342Y31613D01*
X9344Y31620D01*
X9346Y31629D01*
Y31630D01*
X9346Y31631D01*
X9347Y31634D01*
X9348Y31637D01*
X9348Y31641D01*
X9350Y31646D01*
X9351Y31651D01*
X9352Y31656D01*
X9355Y31667D01*
X9358Y31678D01*
X9360Y31683D01*
X9362Y31688D01*
X9363Y31693D01*
X9365Y31696D01*
Y31696D01*
X9365Y31697D01*
X9366Y31699D01*
X9367Y31700D01*
X9370Y31705D01*
X9373Y31711D01*
X9378Y31717D01*
X9383Y31724D01*
X9389Y31730D01*
X9396Y31735D01*
X9397Y31736D01*
X9399Y31738D01*
X9403Y31739D01*
X9408Y31742D01*
X9414Y31744D01*
X9422Y31746D01*
X9430Y31748D01*
X9439Y31748D01*
X9439D01*
X9440D01*
X9441D01*
X9443D01*
X9448Y31747D01*
D02*
G37*
G36*
X9257Y31305D02*
X9351D01*
Y31447D01*
X9386D01*
Y31305D01*
X9524D01*
Y31265D01*
X9221D01*
Y31469D01*
X9257D01*
Y31305D01*
D02*
G37*
G36*
X9524Y31026D02*
X9221D01*
Y31066D01*
X9488D01*
Y31215D01*
X9524D01*
Y31026D01*
D02*
G37*
G36*
Y30655D02*
X9523D01*
X9521D01*
X9519D01*
X9515Y30655D01*
X9511Y30656D01*
X9507Y30656D01*
X9503Y30657D01*
X9498Y30659D01*
X9497D01*
X9497Y30659D01*
X9494Y30660D01*
X9490Y30662D01*
X9485Y30665D01*
X9479Y30668D01*
X9472Y30673D01*
X9465Y30677D01*
X9458Y30683D01*
X9457D01*
X9457Y30684D01*
X9454Y30687D01*
X9450Y30690D01*
X9445Y30696D01*
X9438Y30703D01*
X9430Y30711D01*
X9421Y30721D01*
X9412Y30732D01*
X9412Y30732D01*
X9410Y30734D01*
X9408Y30737D01*
X9406Y30740D01*
X9402Y30744D01*
X9398Y30749D01*
X9394Y30753D01*
X9389Y30759D01*
X9379Y30770D01*
X9368Y30781D01*
X9363Y30786D01*
X9358Y30791D01*
X9353Y30795D01*
X9348Y30799D01*
X9348D01*
X9347Y30800D01*
X9346Y30801D01*
X9344Y30801D01*
X9339Y30805D01*
X9334Y30808D01*
X9327Y30811D01*
X9319Y30814D01*
X9311Y30816D01*
X9303Y30817D01*
X9302D01*
X9302D01*
X9299Y30816D01*
X9295Y30816D01*
X9290Y30815D01*
X9284Y30813D01*
X9278Y30810D01*
X9272Y30806D01*
X9266Y30801D01*
X9265Y30800D01*
X9263Y30798D01*
X9261Y30794D01*
X9258Y30790D01*
X9255Y30784D01*
X9253Y30777D01*
X9251Y30768D01*
X9251Y30759D01*
Y30756D01*
X9251Y30755D01*
X9251Y30749D01*
X9253Y30743D01*
X9254Y30737D01*
X9257Y30729D01*
X9261Y30722D01*
X9267Y30716D01*
X9268Y30715D01*
X9270Y30713D01*
X9273Y30711D01*
X9278Y30708D01*
X9285Y30705D01*
X9292Y30702D01*
X9301Y30701D01*
X9311Y30700D01*
X9307Y30662D01*
X9307D01*
X9306Y30662D01*
X9303D01*
X9300Y30663D01*
X9297Y30663D01*
X9293Y30664D01*
X9288Y30666D01*
X9283Y30667D01*
X9273Y30670D01*
X9262Y30676D01*
X9257Y30679D01*
X9252Y30683D01*
X9247Y30687D01*
X9243Y30691D01*
X9242Y30691D01*
X9242Y30692D01*
X9240Y30694D01*
X9239Y30696D01*
X9237Y30698D01*
X9236Y30701D01*
X9233Y30705D01*
X9231Y30709D01*
X9229Y30714D01*
X9227Y30719D01*
X9225Y30725D01*
X9223Y30731D01*
X9222Y30738D01*
X9221Y30745D01*
X9220Y30752D01*
X9220Y30760D01*
Y30764D01*
X9220Y30767D01*
X9221Y30771D01*
X9221Y30775D01*
X9222Y30780D01*
X9223Y30785D01*
X9226Y30796D01*
X9230Y30808D01*
X9233Y30813D01*
X9236Y30819D01*
X9240Y30824D01*
X9244Y30829D01*
X9245Y30829D01*
X9245Y30830D01*
X9247Y30831D01*
X9249Y30833D01*
X9251Y30835D01*
X9254Y30837D01*
X9257Y30839D01*
X9261Y30842D01*
X9269Y30846D01*
X9280Y30851D01*
X9285Y30853D01*
X9291Y30853D01*
X9297Y30854D01*
X9304Y30855D01*
X9305D01*
X9307D01*
X9310Y30854D01*
X9315Y30854D01*
X9320Y30853D01*
X9327Y30851D01*
X9333Y30850D01*
X9340Y30847D01*
X9341Y30846D01*
X9343Y30846D01*
X9346Y30844D01*
X9351Y30841D01*
X9356Y30838D01*
X9363Y30833D01*
X9369Y30828D01*
X9377Y30822D01*
X9378Y30821D01*
X9380Y30819D01*
X9382Y30817D01*
X9385Y30815D01*
X9387Y30812D01*
X9391Y30808D01*
X9394Y30805D01*
X9398Y30801D01*
X9403Y30796D01*
X9407Y30791D01*
X9412Y30785D01*
X9418Y30779D01*
X9424Y30772D01*
X9430Y30765D01*
X9430Y30765D01*
X9431Y30764D01*
X9432Y30762D01*
X9434Y30760D01*
X9437Y30757D01*
X9439Y30754D01*
X9445Y30747D01*
X9452Y30740D01*
X9458Y30733D01*
X9464Y30727D01*
X9466Y30724D01*
X9468Y30722D01*
X9469Y30721D01*
X9470Y30720D01*
X9472Y30718D01*
X9474Y30716D01*
X9477Y30714D01*
X9480Y30711D01*
X9488Y30706D01*
Y30855D01*
X9524D01*
Y30655D01*
D02*
G37*
G36*
X9381Y30623D02*
X9386D01*
X9393Y30623D01*
X9400Y30622D01*
X9414Y30621D01*
X9430Y30618D01*
X9445Y30615D01*
X9452Y30613D01*
X9459Y30611D01*
X9459D01*
X9460Y30610D01*
X9462Y30610D01*
X9465Y30609D01*
X9467Y30607D01*
X9471Y30606D01*
X9478Y30601D01*
X9486Y30596D01*
X9495Y30590D01*
X9504Y30582D01*
X9511Y30573D01*
Y30573D01*
X9512Y30572D01*
X9513Y30571D01*
X9514Y30569D01*
X9515Y30566D01*
X9517Y30564D01*
X9518Y30560D01*
X9520Y30557D01*
X9523Y30548D01*
X9526Y30538D01*
X9528Y30527D01*
X9529Y30515D01*
Y30512D01*
X9528Y30510D01*
Y30506D01*
X9528Y30503D01*
X9526Y30495D01*
X9524Y30486D01*
X9521Y30476D01*
X9516Y30466D01*
X9513Y30461D01*
X9509Y30457D01*
X9509Y30457D01*
X9508Y30456D01*
X9507Y30455D01*
X9506Y30454D01*
X9504Y30452D01*
X9501Y30450D01*
X9495Y30445D01*
X9487Y30441D01*
X9477Y30437D01*
X9466Y30433D01*
X9454Y30430D01*
X9451Y30466D01*
X9451D01*
X9452Y30467D01*
X9453D01*
X9455Y30467D01*
X9459Y30468D01*
X9465Y30470D01*
X9471Y30472D01*
X9477Y30475D01*
X9483Y30479D01*
X9487Y30483D01*
X9488Y30484D01*
X9489Y30486D01*
X9491Y30489D01*
X9493Y30492D01*
X9495Y30497D01*
X9497Y30503D01*
X9498Y30509D01*
X9498Y30516D01*
Y30519D01*
X9498Y30522D01*
X9497Y30526D01*
X9497Y30531D01*
X9495Y30536D01*
X9493Y30541D01*
X9491Y30546D01*
X9490Y30546D01*
X9490Y30548D01*
X9488Y30551D01*
X9485Y30553D01*
X9482Y30557D01*
X9479Y30560D01*
X9475Y30564D01*
X9470Y30567D01*
X9469Y30568D01*
X9467Y30569D01*
X9464Y30570D01*
X9460Y30572D01*
X9455Y30574D01*
X9449Y30576D01*
X9442Y30579D01*
X9434Y30581D01*
X9434D01*
X9433Y30581D01*
X9432D01*
X9430Y30582D01*
X9426Y30583D01*
X9420Y30584D01*
X9413Y30585D01*
X9406Y30586D01*
X9397Y30586D01*
X9389Y30586D01*
X9388D01*
X9387D01*
X9385D01*
X9381D01*
X9382Y30586D01*
X9384Y30584D01*
X9387Y30582D01*
X9392Y30579D01*
X9396Y30574D01*
X9401Y30569D01*
X9406Y30563D01*
X9410Y30556D01*
X9410Y30555D01*
X9412Y30552D01*
X9413Y30548D01*
X9415Y30544D01*
X9417Y30537D01*
X9419Y30530D01*
X9420Y30522D01*
X9421Y30514D01*
Y30510D01*
X9420Y30508D01*
X9420Y30504D01*
X9420Y30501D01*
X9419Y30496D01*
X9417Y30492D01*
X9414Y30482D01*
X9412Y30477D01*
X9410Y30472D01*
X9407Y30466D01*
X9403Y30461D01*
X9399Y30455D01*
X9394Y30451D01*
X9393Y30450D01*
X9393Y30449D01*
X9391Y30448D01*
X9389Y30447D01*
X9386Y30444D01*
X9383Y30442D01*
X9379Y30440D01*
X9375Y30438D01*
X9370Y30435D01*
X9365Y30433D01*
X9358Y30431D01*
X9352Y30429D01*
X9345Y30427D01*
X9338Y30426D01*
X9330Y30425D01*
X9322Y30425D01*
X9322D01*
X9320D01*
X9318D01*
X9315Y30425D01*
X9311Y30426D01*
X9306Y30426D01*
X9301Y30427D01*
X9296Y30428D01*
X9284Y30431D01*
X9278Y30434D01*
X9271Y30436D01*
X9265Y30439D01*
X9260Y30443D01*
X9254Y30447D01*
X9248Y30452D01*
X9248Y30452D01*
X9247Y30453D01*
X9246Y30454D01*
X9244Y30457D01*
X9242Y30459D01*
X9239Y30463D01*
X9237Y30466D01*
X9234Y30471D01*
X9231Y30475D01*
X9229Y30480D01*
X9224Y30492D01*
X9223Y30498D01*
X9221Y30505D01*
X9220Y30512D01*
X9220Y30520D01*
Y30523D01*
X9220Y30525D01*
Y30527D01*
X9221Y30530D01*
X9222Y30538D01*
X9224Y30546D01*
X9227Y30555D01*
X9231Y30564D01*
X9236Y30573D01*
Y30574D01*
X9237Y30574D01*
X9238Y30576D01*
X9239Y30577D01*
X9243Y30582D01*
X9247Y30587D01*
X9254Y30593D01*
X9262Y30600D01*
X9271Y30605D01*
X9282Y30610D01*
X9282D01*
X9283Y30611D01*
X9285Y30612D01*
X9287Y30613D01*
X9290Y30614D01*
X9294Y30615D01*
X9298Y30616D01*
X9303Y30617D01*
X9309Y30618D01*
X9315Y30620D01*
X9322Y30621D01*
X9330Y30621D01*
X9338Y30622D01*
X9347Y30623D01*
X9356Y30624D01*
X9366D01*
X9367D01*
X9369D01*
X9372D01*
X9376D01*
X9381Y30623D01*
D02*
G37*
G36*
X9524Y30351D02*
X9461Y30312D01*
X9460D01*
X9459Y30311D01*
X9458Y30310D01*
X9456Y30309D01*
X9452Y30305D01*
X9445Y30302D01*
X9439Y30297D01*
X9432Y30292D01*
X9425Y30287D01*
X9419Y30283D01*
X9419Y30282D01*
X9417Y30281D01*
X9414Y30279D01*
X9411Y30276D01*
X9405Y30269D01*
X9402Y30266D01*
X9399Y30262D01*
X9399Y30262D01*
X9398Y30261D01*
X9397Y30259D01*
X9396Y30257D01*
X9395Y30254D01*
X9393Y30251D01*
X9391Y30244D01*
Y30243D01*
X9391Y30243D01*
Y30241D01*
X9390Y30239D01*
X9390Y30236D01*
Y30232D01*
X9389Y30227D01*
Y30176D01*
X9524D01*
Y30135D01*
X9221D01*
Y30276D01*
X9222Y30279D01*
Y30283D01*
X9222Y30292D01*
X9223Y30302D01*
X9225Y30312D01*
X9227Y30322D01*
X9228Y30327D01*
X9230Y30331D01*
Y30331D01*
X9230Y30332D01*
X9231Y30334D01*
X9233Y30338D01*
X9236Y30343D01*
X9240Y30348D01*
X9245Y30354D01*
X9251Y30359D01*
X9258Y30364D01*
X9259D01*
X9259Y30365D01*
X9262Y30367D01*
X9266Y30368D01*
X9272Y30371D01*
X9278Y30373D01*
X9286Y30375D01*
X9295Y30377D01*
X9304Y30377D01*
X9304D01*
X9305D01*
X9307D01*
X9309Y30377D01*
X9312D01*
X9315Y30376D01*
X9323Y30375D01*
X9331Y30372D01*
X9341Y30368D01*
X9350Y30363D01*
X9354Y30360D01*
X9358Y30356D01*
X9359Y30356D01*
X9359Y30355D01*
X9361Y30354D01*
X9362Y30352D01*
X9364Y30350D01*
X9365Y30347D01*
X9368Y30344D01*
X9370Y30340D01*
X9372Y30336D01*
X9375Y30331D01*
X9377Y30326D01*
X9379Y30320D01*
X9381Y30314D01*
X9383Y30307D01*
X9385Y30300D01*
X9386Y30292D01*
X9386Y30293D01*
X9387Y30295D01*
X9389Y30297D01*
X9391Y30301D01*
X9396Y30309D01*
X9399Y30312D01*
X9401Y30316D01*
X9402Y30317D01*
X9404Y30319D01*
X9408Y30323D01*
X9412Y30327D01*
X9418Y30332D01*
X9425Y30337D01*
X9433Y30343D01*
X9441Y30349D01*
X9524Y30401D01*
Y30351D01*
D02*
G37*
G36*
X9257Y29994D02*
X9524D01*
Y29954D01*
X9257D01*
Y29854D01*
X9221D01*
Y30094D01*
X9257D01*
Y29994D01*
D02*
G37*
G36*
X9524Y29773D02*
X9271D01*
X9524Y29685D01*
Y29649D01*
X9266Y29562D01*
X9524D01*
Y29523D01*
X9221D01*
Y29583D01*
X9436Y29655D01*
X9436D01*
X9437Y29655D01*
X9438Y29656D01*
X9441Y29657D01*
X9446Y29658D01*
X9452Y29660D01*
X9460Y29663D01*
X9467Y29665D01*
X9474Y29667D01*
X9480Y29669D01*
X9479Y29670D01*
X9477Y29670D01*
X9473Y29671D01*
X9468Y29673D01*
X9461Y29675D01*
X9453Y29678D01*
X9443Y29681D01*
X9432Y29685D01*
X9221Y29758D01*
Y29812D01*
X9524D01*
Y29773D01*
D02*
G37*
G36*
X9448Y29469D02*
X9454Y29468D01*
X9461Y29466D01*
X9468Y29464D01*
X9476Y29460D01*
X9484Y29455D01*
X9485D01*
X9485Y29455D01*
X9488Y29453D01*
X9492Y29450D01*
X9496Y29445D01*
X9501Y29440D01*
X9507Y29433D01*
X9512Y29425D01*
X9517Y29416D01*
Y29415D01*
X9517Y29414D01*
X9518Y29413D01*
X9519Y29411D01*
X9520Y29409D01*
X9521Y29406D01*
X9523Y29399D01*
X9525Y29390D01*
X9527Y29380D01*
X9528Y29369D01*
X9529Y29358D01*
Y29351D01*
X9528Y29347D01*
Y29343D01*
X9528Y29339D01*
X9528Y29334D01*
X9526Y29323D01*
X9524Y29311D01*
X9521Y29300D01*
X9517Y29289D01*
Y29289D01*
X9517Y29288D01*
X9516Y29286D01*
X9515Y29285D01*
X9512Y29279D01*
X9508Y29273D01*
X9503Y29266D01*
X9497Y29259D01*
X9490Y29252D01*
X9481Y29245D01*
X9481D01*
X9480Y29244D01*
X9479Y29244D01*
X9477Y29243D01*
X9475Y29242D01*
X9472Y29241D01*
X9466Y29237D01*
X9457Y29234D01*
X9448Y29232D01*
X9438Y29230D01*
X9427Y29229D01*
X9423Y29267D01*
X9424D01*
X9424D01*
X9425Y29267D01*
X9427D01*
X9431Y29268D01*
X9437Y29269D01*
X9442Y29271D01*
X9449Y29273D01*
X9455Y29276D01*
X9461Y29279D01*
X9461Y29279D01*
X9463Y29281D01*
X9466Y29283D01*
X9469Y29286D01*
X9473Y29291D01*
X9477Y29296D01*
X9481Y29302D01*
X9484Y29309D01*
Y29310D01*
X9485Y29310D01*
X9485Y29311D01*
X9486Y29313D01*
X9487Y29317D01*
X9489Y29323D01*
X9490Y29330D01*
X9492Y29338D01*
X9493Y29346D01*
X9493Y29356D01*
Y29360D01*
X9493Y29364D01*
X9492Y29369D01*
X9491Y29376D01*
X9490Y29383D01*
X9489Y29390D01*
X9486Y29396D01*
X9486Y29397D01*
X9485Y29399D01*
X9483Y29402D01*
X9482Y29406D01*
X9479Y29410D01*
X9476Y29414D01*
X9472Y29419D01*
X9468Y29422D01*
X9467Y29423D01*
X9466Y29424D01*
X9463Y29425D01*
X9460Y29427D01*
X9456Y29428D01*
X9452Y29430D01*
X9447Y29431D01*
X9442Y29431D01*
X9441D01*
X9439D01*
X9437Y29431D01*
X9433Y29430D01*
X9430Y29429D01*
X9425Y29428D01*
X9421Y29425D01*
X9417Y29422D01*
X9417Y29422D01*
X9415Y29421D01*
X9413Y29419D01*
X9411Y29416D01*
X9408Y29412D01*
X9405Y29407D01*
X9402Y29402D01*
X9400Y29395D01*
X9399Y29395D01*
X9399Y29393D01*
X9397Y29389D01*
X9397Y29387D01*
X9396Y29384D01*
X9395Y29381D01*
X9394Y29377D01*
X9393Y29372D01*
X9391Y29367D01*
X9390Y29362D01*
X9388Y29356D01*
X9386Y29349D01*
X9385Y29341D01*
Y29341D01*
X9384Y29340D01*
X9384Y29338D01*
X9383Y29335D01*
X9382Y29331D01*
X9381Y29327D01*
X9379Y29319D01*
X9375Y29309D01*
X9372Y29299D01*
X9369Y29290D01*
X9368Y29286D01*
X9366Y29283D01*
Y29282D01*
X9365Y29282D01*
X9364Y29279D01*
X9361Y29275D01*
X9358Y29271D01*
X9354Y29266D01*
X9349Y29261D01*
X9344Y29255D01*
X9337Y29251D01*
X9337Y29251D01*
X9334Y29249D01*
X9331Y29247D01*
X9327Y29246D01*
X9321Y29244D01*
X9314Y29242D01*
X9307Y29241D01*
X9300Y29241D01*
X9299D01*
X9299D01*
X9298D01*
X9296D01*
X9292Y29241D01*
X9286Y29242D01*
X9279Y29244D01*
X9272Y29246D01*
X9264Y29249D01*
X9257Y29253D01*
X9257D01*
X9256Y29254D01*
X9254Y29256D01*
X9250Y29259D01*
X9246Y29263D01*
X9241Y29268D01*
X9236Y29275D01*
X9231Y29282D01*
X9226Y29291D01*
Y29292D01*
X9226Y29293D01*
X9226Y29294D01*
X9225Y29296D01*
X9224Y29298D01*
X9223Y29301D01*
X9221Y29307D01*
X9219Y29316D01*
X9218Y29325D01*
X9216Y29335D01*
X9216Y29347D01*
Y29352D01*
X9216Y29355D01*
Y29358D01*
X9217Y29367D01*
X9219Y29376D01*
X9221Y29386D01*
X9223Y29396D01*
X9227Y29406D01*
Y29406D01*
X9227Y29407D01*
X9228Y29408D01*
X9229Y29410D01*
X9231Y29414D01*
X9235Y29420D01*
X9240Y29427D01*
X9245Y29433D01*
X9252Y29439D01*
X9259Y29445D01*
X9260D01*
X9260Y29445D01*
X9261Y29446D01*
X9263Y29447D01*
X9267Y29449D01*
X9273Y29452D01*
X9280Y29455D01*
X9288Y29457D01*
X9297Y29459D01*
X9306Y29460D01*
X9309Y29422D01*
X9309D01*
X9308D01*
X9307Y29421D01*
X9305Y29421D01*
X9300Y29420D01*
X9293Y29418D01*
X9286Y29415D01*
X9279Y29411D01*
X9273Y29407D01*
X9267Y29400D01*
X9266Y29400D01*
X9264Y29397D01*
X9262Y29393D01*
X9259Y29387D01*
X9257Y29380D01*
X9254Y29371D01*
X9252Y29360D01*
X9252Y29348D01*
Y29342D01*
X9252Y29339D01*
X9253Y29336D01*
X9254Y29328D01*
X9255Y29319D01*
X9257Y29310D01*
X9261Y29302D01*
X9263Y29299D01*
X9265Y29295D01*
X9266Y29294D01*
X9268Y29293D01*
X9271Y29290D01*
X9274Y29287D01*
X9279Y29284D01*
X9284Y29282D01*
X9290Y29280D01*
X9297Y29279D01*
X9298D01*
X9300D01*
X9303Y29279D01*
X9306Y29280D01*
X9311Y29282D01*
X9315Y29284D01*
X9320Y29286D01*
X9324Y29290D01*
X9324Y29291D01*
X9326Y29293D01*
X9327Y29295D01*
X9328Y29296D01*
X9329Y29299D01*
X9331Y29302D01*
X9332Y29306D01*
X9334Y29310D01*
X9336Y29315D01*
X9338Y29321D01*
X9340Y29327D01*
X9342Y29334D01*
X9344Y29342D01*
X9346Y29351D01*
Y29351D01*
X9346Y29353D01*
X9347Y29355D01*
X9348Y29358D01*
X9348Y29362D01*
X9350Y29367D01*
X9351Y29372D01*
X9352Y29377D01*
X9355Y29389D01*
X9358Y29400D01*
X9360Y29405D01*
X9362Y29410D01*
X9363Y29414D01*
X9365Y29417D01*
Y29418D01*
X9365Y29419D01*
X9366Y29420D01*
X9367Y29422D01*
X9370Y29427D01*
X9373Y29432D01*
X9378Y29439D01*
X9383Y29445D01*
X9389Y29452D01*
X9396Y29457D01*
X9397Y29457D01*
X9399Y29459D01*
X9403Y29461D01*
X9408Y29463D01*
X9414Y29466D01*
X9422Y29468D01*
X9430Y29469D01*
X9439Y29469D01*
X9439D01*
X9440D01*
X9441D01*
X9443D01*
X9448Y29469D01*
D02*
G37*
G36*
X9388Y29189D02*
X9393D01*
X9399Y29189D01*
X9405Y29188D01*
X9419Y29187D01*
X9434Y29185D01*
X9448Y29182D01*
X9454Y29181D01*
X9461Y29178D01*
X9461D01*
X9462Y29178D01*
X9464Y29177D01*
X9466Y29176D01*
X9469Y29175D01*
X9472Y29174D01*
X9479Y29170D01*
X9487Y29166D01*
X9496Y29160D01*
X9504Y29154D01*
X9511Y29146D01*
Y29145D01*
X9512Y29145D01*
X9513Y29143D01*
X9514Y29142D01*
X9515Y29140D01*
X9517Y29137D01*
X9520Y29131D01*
X9523Y29123D01*
X9526Y29114D01*
X9528Y29103D01*
X9529Y29091D01*
Y29087D01*
X9528Y29084D01*
X9528Y29080D01*
X9527Y29076D01*
X9526Y29071D01*
X9525Y29066D01*
X9523Y29060D01*
X9521Y29055D01*
X9519Y29049D01*
X9516Y29043D01*
X9512Y29038D01*
X9508Y29032D01*
X9503Y29027D01*
X9498Y29022D01*
X9497Y29022D01*
X9496Y29021D01*
X9494Y29019D01*
X9490Y29017D01*
X9486Y29015D01*
X9481Y29013D01*
X9475Y29010D01*
X9468Y29007D01*
X9460Y29005D01*
X9451Y29002D01*
X9441Y28999D01*
X9430Y28997D01*
X9417Y28995D01*
X9404Y28994D01*
X9390Y28993D01*
X9375Y28992D01*
X9374D01*
X9372D01*
X9369D01*
X9366D01*
X9361Y28993D01*
X9356D01*
X9350Y28993D01*
X9344Y28994D01*
X9330Y28995D01*
X9316Y28997D01*
X9301Y29000D01*
X9295Y29001D01*
X9288Y29003D01*
X9288D01*
X9287Y29004D01*
X9285Y29005D01*
X9283Y29005D01*
X9280Y29006D01*
X9277Y29008D01*
X9269Y29012D01*
X9261Y29016D01*
X9253Y29022D01*
X9245Y29028D01*
X9238Y29036D01*
Y29036D01*
X9237Y29037D01*
X9236Y29038D01*
X9235Y29040D01*
X9233Y29042D01*
X9232Y29045D01*
X9229Y29051D01*
X9226Y29059D01*
X9223Y29068D01*
X9221Y29079D01*
X9220Y29091D01*
Y29095D01*
X9220Y29100D01*
X9221Y29105D01*
X9223Y29112D01*
X9224Y29119D01*
X9226Y29126D01*
X9230Y29133D01*
Y29134D01*
X9230Y29134D01*
X9232Y29136D01*
X9234Y29140D01*
X9237Y29144D01*
X9241Y29149D01*
X9246Y29154D01*
X9252Y29159D01*
X9258Y29164D01*
X9259Y29164D01*
X9261Y29166D01*
X9265Y29168D01*
X9271Y29171D01*
X9278Y29174D01*
X9285Y29177D01*
X9294Y29180D01*
X9303Y29183D01*
X9304D01*
X9305Y29183D01*
X9306Y29184D01*
X9308Y29184D01*
X9311Y29185D01*
X9314Y29185D01*
X9318Y29186D01*
X9322Y29186D01*
X9327Y29187D01*
X9332Y29188D01*
X9338Y29188D01*
X9344Y29189D01*
X9351Y29189D01*
X9358D01*
X9366Y29190D01*
X9375D01*
X9375D01*
X9377D01*
X9380D01*
X9383D01*
X9388Y29189D01*
D02*
G37*
G36*
X9428Y28957D02*
X9432Y28957D01*
X9436Y28956D01*
X9441Y28956D01*
X9445Y28955D01*
X9457Y28952D01*
X9469Y28948D01*
X9475Y28945D01*
X9480Y28942D01*
X9486Y28938D01*
X9492Y28934D01*
X9493Y28933D01*
X9494Y28932D01*
X9496Y28931D01*
X9498Y28928D01*
X9500Y28925D01*
X9504Y28922D01*
X9507Y28918D01*
X9511Y28913D01*
X9514Y28908D01*
X9517Y28901D01*
X9520Y28895D01*
X9523Y28888D01*
X9525Y28880D01*
X9527Y28872D01*
X9528Y28863D01*
X9529Y28854D01*
Y28850D01*
X9528Y28847D01*
X9528Y28844D01*
X9528Y28840D01*
X9527Y28835D01*
X9526Y28830D01*
X9523Y28819D01*
X9519Y28808D01*
X9517Y28803D01*
X9514Y28797D01*
X9510Y28792D01*
X9506Y28786D01*
X9506Y28786D01*
X9505Y28785D01*
X9504Y28784D01*
X9502Y28783D01*
X9500Y28780D01*
X9497Y28778D01*
X9493Y28776D01*
X9490Y28773D01*
X9486Y28771D01*
X9481Y28768D01*
X9470Y28763D01*
X9458Y28759D01*
X9452Y28758D01*
X9445Y28757D01*
X9441Y28796D01*
X9442D01*
X9443D01*
X9444Y28797D01*
X9446Y28797D01*
X9451Y28798D01*
X9458Y28800D01*
X9464Y28803D01*
X9472Y28806D01*
X9478Y28810D01*
X9484Y28816D01*
X9485Y28817D01*
X9486Y28818D01*
X9489Y28822D01*
X9491Y28827D01*
X9494Y28832D01*
X9496Y28838D01*
X9498Y28846D01*
X9498Y28854D01*
Y28857D01*
X9498Y28859D01*
X9497Y28864D01*
X9496Y28870D01*
X9493Y28877D01*
X9490Y28885D01*
X9485Y28893D01*
X9482Y28896D01*
X9478Y28900D01*
X9478Y28900D01*
X9477Y28901D01*
X9476Y28901D01*
X9475Y28903D01*
X9470Y28906D01*
X9464Y28909D01*
X9456Y28912D01*
X9447Y28915D01*
X9436Y28918D01*
X9431Y28918D01*
X9424D01*
X9424D01*
X9423D01*
X9421D01*
X9419Y28918D01*
X9417D01*
X9413Y28918D01*
X9407Y28916D01*
X9398Y28914D01*
X9390Y28911D01*
X9382Y28907D01*
X9375Y28901D01*
X9374D01*
X9374Y28900D01*
X9372Y28897D01*
X9368Y28894D01*
X9365Y28888D01*
X9362Y28881D01*
X9359Y28873D01*
X9357Y28864D01*
X9356Y28859D01*
Y28851D01*
X9356Y28847D01*
X9357Y28843D01*
X9358Y28838D01*
X9359Y28832D01*
X9361Y28827D01*
X9364Y28821D01*
X9365Y28821D01*
X9365Y28819D01*
X9368Y28816D01*
X9370Y28813D01*
X9373Y28809D01*
X9377Y28806D01*
X9381Y28802D01*
X9386Y28799D01*
X9381Y28764D01*
X9225Y28793D01*
Y28943D01*
X9261D01*
Y28822D01*
X9342Y28806D01*
X9342Y28807D01*
X9341Y28807D01*
X9341Y28809D01*
X9339Y28811D01*
X9338Y28814D01*
X9336Y28817D01*
X9333Y28824D01*
X9329Y28832D01*
X9326Y28842D01*
X9324Y28852D01*
X9323Y28858D01*
Y28867D01*
X9323Y28870D01*
X9324Y28873D01*
X9324Y28877D01*
X9325Y28882D01*
X9327Y28887D01*
X9330Y28897D01*
X9332Y28903D01*
X9335Y28908D01*
X9338Y28914D01*
X9341Y28920D01*
X9346Y28925D01*
X9351Y28930D01*
X9351Y28931D01*
X9352Y28932D01*
X9353Y28933D01*
X9355Y28935D01*
X9358Y28937D01*
X9361Y28939D01*
X9365Y28942D01*
X9370Y28944D01*
X9375Y28946D01*
X9380Y28949D01*
X9386Y28951D01*
X9392Y28953D01*
X9399Y28955D01*
X9406Y28956D01*
X9413Y28957D01*
X9421Y28958D01*
X9422D01*
X9423D01*
X9425D01*
X9428Y28957D01*
D02*
G37*
G36*
X9524Y28665D02*
X9381D01*
Y28509D01*
X9524D01*
Y28469D01*
X9221D01*
Y28509D01*
X9345D01*
Y28665D01*
X9221D01*
Y28706D01*
X9524D01*
Y28665D01*
D02*
G37*
G36*
X9448Y28412D02*
X9454Y28411D01*
X9461Y28409D01*
X9468Y28407D01*
X9476Y28403D01*
X9484Y28398D01*
X9485D01*
X9485Y28398D01*
X9488Y28396D01*
X9492Y28393D01*
X9496Y28388D01*
X9501Y28383D01*
X9507Y28376D01*
X9512Y28368D01*
X9517Y28359D01*
Y28358D01*
X9517Y28357D01*
X9518Y28356D01*
X9519Y28354D01*
X9520Y28352D01*
X9521Y28349D01*
X9523Y28342D01*
X9525Y28333D01*
X9527Y28323D01*
X9528Y28312D01*
X9529Y28301D01*
Y28294D01*
X9528Y28290D01*
Y28286D01*
X9528Y28282D01*
X9528Y28276D01*
X9526Y28266D01*
X9524Y28254D01*
X9521Y28243D01*
X9517Y28232D01*
Y28231D01*
X9517Y28231D01*
X9516Y28229D01*
X9515Y28228D01*
X9512Y28222D01*
X9508Y28216D01*
X9503Y28209D01*
X9497Y28202D01*
X9490Y28195D01*
X9481Y28188D01*
X9481D01*
X9480Y28187D01*
X9479Y28187D01*
X9477Y28186D01*
X9475Y28185D01*
X9472Y28183D01*
X9466Y28180D01*
X9457Y28177D01*
X9448Y28175D01*
X9438Y28173D01*
X9427Y28172D01*
X9423Y28210D01*
X9424D01*
X9424D01*
X9425Y28210D01*
X9427D01*
X9431Y28211D01*
X9437Y28212D01*
X9442Y28214D01*
X9449Y28216D01*
X9455Y28219D01*
X9461Y28222D01*
X9461Y28222D01*
X9463Y28224D01*
X9466Y28226D01*
X9469Y28229D01*
X9473Y28234D01*
X9477Y28238D01*
X9481Y28245D01*
X9484Y28252D01*
Y28252D01*
X9485Y28253D01*
X9485Y28254D01*
X9486Y28256D01*
X9487Y28260D01*
X9489Y28266D01*
X9490Y28273D01*
X9492Y28280D01*
X9493Y28289D01*
X9493Y28299D01*
Y28303D01*
X9493Y28307D01*
X9492Y28312D01*
X9491Y28318D01*
X9490Y28325D01*
X9489Y28332D01*
X9486Y28339D01*
X9486Y28340D01*
X9485Y28342D01*
X9483Y28345D01*
X9482Y28349D01*
X9479Y28353D01*
X9476Y28357D01*
X9472Y28362D01*
X9468Y28365D01*
X9467Y28366D01*
X9466Y28366D01*
X9463Y28368D01*
X9460Y28370D01*
X9456Y28371D01*
X9452Y28373D01*
X9447Y28373D01*
X9442Y28374D01*
X9441D01*
X9439D01*
X9437Y28373D01*
X9433Y28373D01*
X9430Y28372D01*
X9425Y28370D01*
X9421Y28368D01*
X9417Y28365D01*
X9417Y28365D01*
X9415Y28363D01*
X9413Y28362D01*
X9411Y28359D01*
X9408Y28355D01*
X9405Y28350D01*
X9402Y28345D01*
X9400Y28338D01*
X9399Y28338D01*
X9399Y28335D01*
X9397Y28332D01*
X9397Y28330D01*
X9396Y28327D01*
X9395Y28324D01*
X9394Y28320D01*
X9393Y28315D01*
X9391Y28310D01*
X9390Y28305D01*
X9388Y28299D01*
X9386Y28292D01*
X9385Y28284D01*
Y28284D01*
X9384Y28283D01*
X9384Y28280D01*
X9383Y28278D01*
X9382Y28274D01*
X9381Y28270D01*
X9379Y28262D01*
X9375Y28252D01*
X9372Y28242D01*
X9369Y28233D01*
X9368Y28229D01*
X9366Y28226D01*
Y28225D01*
X9365Y28225D01*
X9364Y28222D01*
X9361Y28218D01*
X9358Y28214D01*
X9354Y28209D01*
X9349Y28203D01*
X9344Y28198D01*
X9337Y28194D01*
X9337Y28193D01*
X9334Y28192D01*
X9331Y28190D01*
X9327Y28189D01*
X9321Y28187D01*
X9314Y28185D01*
X9307Y28184D01*
X9300Y28183D01*
X9299D01*
X9299D01*
X9298D01*
X9296D01*
X9292Y28184D01*
X9286Y28185D01*
X9279Y28186D01*
X9272Y28189D01*
X9264Y28192D01*
X9257Y28196D01*
X9257D01*
X9256Y28197D01*
X9254Y28199D01*
X9250Y28202D01*
X9246Y28206D01*
X9241Y28211D01*
X9236Y28217D01*
X9231Y28225D01*
X9226Y28234D01*
Y28235D01*
X9226Y28235D01*
X9226Y28237D01*
X9225Y28238D01*
X9224Y28241D01*
X9223Y28244D01*
X9221Y28250D01*
X9219Y28259D01*
X9218Y28268D01*
X9216Y28278D01*
X9216Y28290D01*
Y28295D01*
X9216Y28298D01*
Y28301D01*
X9217Y28310D01*
X9219Y28319D01*
X9221Y28328D01*
X9223Y28339D01*
X9227Y28349D01*
Y28349D01*
X9227Y28350D01*
X9228Y28351D01*
X9229Y28353D01*
X9231Y28357D01*
X9235Y28363D01*
X9240Y28370D01*
X9245Y28376D01*
X9252Y28382D01*
X9259Y28388D01*
X9260D01*
X9260Y28388D01*
X9261Y28389D01*
X9263Y28390D01*
X9267Y28392D01*
X9273Y28395D01*
X9280Y28398D01*
X9288Y28400D01*
X9297Y28402D01*
X9306Y28403D01*
X9309Y28365D01*
X9309D01*
X9308D01*
X9307Y28364D01*
X9305Y28364D01*
X9300Y28363D01*
X9293Y28361D01*
X9286Y28358D01*
X9279Y28354D01*
X9273Y28349D01*
X9267Y28343D01*
X9266Y28342D01*
X9264Y28340D01*
X9262Y28336D01*
X9259Y28330D01*
X9257Y28323D01*
X9254Y28314D01*
X9252Y28303D01*
X9252Y28291D01*
Y28285D01*
X9252Y28282D01*
X9253Y28279D01*
X9254Y28271D01*
X9255Y28262D01*
X9257Y28253D01*
X9261Y28245D01*
X9263Y28242D01*
X9265Y28238D01*
X9266Y28237D01*
X9268Y28235D01*
X9271Y28233D01*
X9274Y28230D01*
X9279Y28227D01*
X9284Y28224D01*
X9290Y28223D01*
X9297Y28222D01*
X9298D01*
X9300D01*
X9303Y28222D01*
X9306Y28223D01*
X9311Y28224D01*
X9315Y28227D01*
X9320Y28229D01*
X9324Y28233D01*
X9324Y28234D01*
X9326Y28236D01*
X9327Y28238D01*
X9328Y28239D01*
X9329Y28242D01*
X9331Y28245D01*
X9332Y28249D01*
X9334Y28253D01*
X9336Y28258D01*
X9338Y28264D01*
X9340Y28270D01*
X9342Y28277D01*
X9344Y28285D01*
X9346Y28294D01*
Y28294D01*
X9346Y28296D01*
X9347Y28298D01*
X9348Y28301D01*
X9348Y28305D01*
X9350Y28310D01*
X9351Y28315D01*
X9352Y28320D01*
X9355Y28332D01*
X9358Y28342D01*
X9360Y28348D01*
X9362Y28353D01*
X9363Y28357D01*
X9365Y28360D01*
Y28361D01*
X9365Y28362D01*
X9366Y28363D01*
X9367Y28365D01*
X9370Y28370D01*
X9373Y28375D01*
X9378Y28382D01*
X9383Y28388D01*
X9389Y28394D01*
X9396Y28400D01*
X9397Y28400D01*
X9399Y28402D01*
X9403Y28404D01*
X9408Y28406D01*
X9414Y28408D01*
X9422Y28411D01*
X9430Y28412D01*
X9439Y28412D01*
X9439D01*
X9440D01*
X9441D01*
X9443D01*
X9448Y28412D01*
D02*
G37*
G36*
X9428Y28135D02*
X9432Y28135D01*
X9436Y28134D01*
X9441Y28134D01*
X9445Y28133D01*
X9457Y28130D01*
X9469Y28126D01*
X9475Y28123D01*
X9480Y28120D01*
X9486Y28116D01*
X9492Y28112D01*
X9493Y28111D01*
X9494Y28110D01*
X9496Y28109D01*
X9498Y28106D01*
X9500Y28103D01*
X9504Y28100D01*
X9507Y28096D01*
X9511Y28091D01*
X9514Y28086D01*
X9517Y28079D01*
X9520Y28073D01*
X9523Y28066D01*
X9525Y28058D01*
X9527Y28050D01*
X9528Y28041D01*
X9529Y28032D01*
Y28028D01*
X9528Y28025D01*
X9528Y28022D01*
X9528Y28018D01*
X9527Y28013D01*
X9526Y28008D01*
X9523Y27997D01*
X9519Y27986D01*
X9517Y27981D01*
X9514Y27975D01*
X9510Y27970D01*
X9506Y27964D01*
X9506Y27964D01*
X9505Y27963D01*
X9504Y27962D01*
X9502Y27961D01*
X9500Y27958D01*
X9497Y27956D01*
X9493Y27954D01*
X9490Y27951D01*
X9486Y27949D01*
X9481Y27946D01*
X9470Y27941D01*
X9458Y27937D01*
X9452Y27936D01*
X9445Y27935D01*
X9441Y27974D01*
X9442D01*
X9443D01*
X9444Y27975D01*
X9446Y27975D01*
X9451Y27976D01*
X9458Y27978D01*
X9464Y27981D01*
X9472Y27984D01*
X9478Y27989D01*
X9484Y27994D01*
X9485Y27995D01*
X9486Y27996D01*
X9489Y28000D01*
X9491Y28005D01*
X9494Y28010D01*
X9496Y28016D01*
X9498Y28024D01*
X9498Y28032D01*
Y28035D01*
X9498Y28037D01*
X9497Y28042D01*
X9496Y28048D01*
X9493Y28055D01*
X9490Y28063D01*
X9485Y28071D01*
X9482Y28074D01*
X9478Y28078D01*
X9478Y28078D01*
X9477Y28079D01*
X9476Y28079D01*
X9475Y28081D01*
X9470Y28084D01*
X9464Y28087D01*
X9456Y28090D01*
X9447Y28093D01*
X9436Y28096D01*
X9431Y28096D01*
X9424D01*
X9424D01*
X9423D01*
X9421D01*
X9419Y28096D01*
X9417D01*
X9413Y28096D01*
X9407Y28094D01*
X9398Y28092D01*
X9390Y28089D01*
X9382Y28085D01*
X9375Y28079D01*
X9374D01*
X9374Y28078D01*
X9372Y28075D01*
X9368Y28072D01*
X9365Y28066D01*
X9362Y28059D01*
X9359Y28051D01*
X9357Y28042D01*
X9356Y28037D01*
Y28029D01*
X9356Y28025D01*
X9357Y28021D01*
X9358Y28016D01*
X9359Y28010D01*
X9361Y28005D01*
X9364Y27999D01*
X9365Y27999D01*
X9365Y27997D01*
X9368Y27994D01*
X9370Y27991D01*
X9373Y27987D01*
X9377Y27984D01*
X9381Y27980D01*
X9386Y27977D01*
X9381Y27942D01*
X9225Y27971D01*
Y28121D01*
X9261D01*
Y28000D01*
X9342Y27984D01*
X9342Y27985D01*
X9341Y27985D01*
X9341Y27987D01*
X9339Y27989D01*
X9338Y27992D01*
X9336Y27995D01*
X9333Y28002D01*
X9329Y28010D01*
X9326Y28020D01*
X9324Y28030D01*
X9323Y28036D01*
Y28045D01*
X9323Y28048D01*
X9324Y28051D01*
X9324Y28055D01*
X9325Y28060D01*
X9327Y28065D01*
X9330Y28075D01*
X9332Y28081D01*
X9335Y28086D01*
X9338Y28092D01*
X9341Y28098D01*
X9346Y28103D01*
X9351Y28108D01*
X9351Y28109D01*
X9352Y28110D01*
X9353Y28111D01*
X9355Y28113D01*
X9358Y28115D01*
X9361Y28117D01*
X9365Y28120D01*
X9370Y28122D01*
X9375Y28124D01*
X9380Y28127D01*
X9386Y28129D01*
X9392Y28131D01*
X9399Y28133D01*
X9406Y28134D01*
X9413Y28135D01*
X9421Y28136D01*
X9422D01*
X9423D01*
X9425D01*
X9428Y28135D01*
D02*
G37*
G36*
X9451Y27856D02*
X9524D01*
Y27819D01*
X9451D01*
Y27687D01*
X9417D01*
X9221Y27826D01*
Y27856D01*
X9417D01*
Y27897D01*
X9451D01*
Y27856D01*
D02*
G37*
G36*
X9433Y27663D02*
X9436D01*
X9443Y27662D01*
X9451Y27660D01*
X9460Y27658D01*
X9469Y27655D01*
X9479Y27651D01*
X9479D01*
X9479Y27650D01*
X9481Y27649D01*
X9483Y27649D01*
X9487Y27646D01*
X9493Y27642D01*
X9499Y27637D01*
X9505Y27631D01*
X9511Y27624D01*
X9516Y27617D01*
Y27617D01*
X9517Y27616D01*
X9517Y27615D01*
X9518Y27613D01*
X9520Y27609D01*
X9522Y27603D01*
X9525Y27596D01*
X9527Y27587D01*
X9528Y27578D01*
X9529Y27568D01*
Y27566D01*
X9528Y27564D01*
Y27560D01*
X9528Y27556D01*
X9527Y27552D01*
X9526Y27547D01*
X9524Y27541D01*
X9523Y27535D01*
X9521Y27529D01*
X9518Y27523D01*
X9514Y27517D01*
X9511Y27510D01*
X9506Y27504D01*
X9501Y27498D01*
X9495Y27492D01*
X9494Y27492D01*
X9493Y27491D01*
X9491Y27490D01*
X9488Y27488D01*
X9484Y27486D01*
X9480Y27483D01*
X9474Y27481D01*
X9468Y27478D01*
X9461Y27475D01*
X9452Y27472D01*
X9443Y27470D01*
X9433Y27468D01*
X9422Y27466D01*
X9410Y27465D01*
X9396Y27464D01*
X9382Y27463D01*
X9382D01*
X9382D01*
X9380D01*
X9379D01*
X9374Y27464D01*
X9368D01*
X9361Y27464D01*
X9353Y27465D01*
X9344Y27466D01*
X9334Y27467D01*
X9323Y27469D01*
X9313Y27471D01*
X9302Y27474D01*
X9292Y27477D01*
X9282Y27481D01*
X9272Y27485D01*
X9263Y27490D01*
X9255Y27496D01*
X9254Y27496D01*
X9254Y27497D01*
X9252Y27499D01*
X9249Y27501D01*
X9247Y27503D01*
X9244Y27507D01*
X9240Y27511D01*
X9237Y27516D01*
X9234Y27521D01*
X9231Y27527D01*
X9228Y27533D01*
X9225Y27540D01*
X9223Y27547D01*
X9221Y27555D01*
X9220Y27563D01*
X9220Y27572D01*
Y27576D01*
X9220Y27578D01*
Y27581D01*
X9221Y27585D01*
X9223Y27593D01*
X9225Y27602D01*
X9228Y27612D01*
X9233Y27621D01*
X9237Y27626D01*
X9240Y27631D01*
X9240Y27631D01*
X9241Y27631D01*
X9242Y27633D01*
X9244Y27634D01*
X9246Y27636D01*
X9248Y27638D01*
X9254Y27643D01*
X9262Y27648D01*
X9272Y27652D01*
X9283Y27656D01*
X9295Y27659D01*
X9298Y27621D01*
X9298D01*
X9297Y27621D01*
X9295Y27621D01*
X9291Y27619D01*
X9286Y27617D01*
X9281Y27616D01*
X9275Y27613D01*
X9271Y27610D01*
X9267Y27607D01*
X9266Y27606D01*
X9264Y27604D01*
X9261Y27601D01*
X9258Y27597D01*
X9256Y27591D01*
X9253Y27585D01*
X9251Y27578D01*
X9251Y27570D01*
Y27567D01*
X9251Y27563D01*
X9252Y27559D01*
X9253Y27554D01*
X9255Y27549D01*
X9257Y27544D01*
X9261Y27538D01*
X9261Y27538D01*
X9263Y27535D01*
X9266Y27532D01*
X9270Y27528D01*
X9275Y27524D01*
X9282Y27519D01*
X9289Y27515D01*
X9298Y27510D01*
X9299D01*
X9299Y27510D01*
X9301Y27510D01*
X9302Y27509D01*
X9305Y27508D01*
X9308Y27507D01*
X9312Y27506D01*
X9316Y27506D01*
X9321Y27504D01*
X9326Y27503D01*
X9332Y27503D01*
X9338Y27502D01*
X9345Y27501D01*
X9352Y27501D01*
X9360Y27500D01*
X9368D01*
X9367Y27501D01*
X9365Y27503D01*
X9361Y27506D01*
X9357Y27510D01*
X9351Y27514D01*
X9347Y27520D01*
X9342Y27526D01*
X9337Y27533D01*
Y27533D01*
X9337Y27534D01*
X9336Y27536D01*
X9334Y27540D01*
X9332Y27545D01*
X9330Y27552D01*
X9329Y27558D01*
X9328Y27566D01*
X9327Y27574D01*
Y27577D01*
X9328Y27580D01*
X9328Y27583D01*
X9329Y27587D01*
X9330Y27591D01*
X9331Y27596D01*
X9334Y27606D01*
X9336Y27611D01*
X9339Y27616D01*
X9342Y27621D01*
X9346Y27627D01*
X9350Y27632D01*
X9355Y27637D01*
X9355Y27638D01*
X9356Y27638D01*
X9358Y27640D01*
X9360Y27641D01*
X9363Y27643D01*
X9366Y27645D01*
X9370Y27648D01*
X9374Y27650D01*
X9379Y27653D01*
X9384Y27655D01*
X9390Y27657D01*
X9396Y27659D01*
X9403Y27661D01*
X9410Y27662D01*
X9418Y27663D01*
X9426Y27663D01*
X9426D01*
X9427D01*
X9428D01*
X9431D01*
X9433Y27663D01*
D02*
G37*
G36*
X9448Y27424D02*
X9454Y27423D01*
X9461Y27422D01*
X9468Y27420D01*
X9476Y27416D01*
X9484Y27411D01*
X9485D01*
X9485Y27411D01*
X9488Y27409D01*
X9492Y27406D01*
X9496Y27401D01*
X9501Y27395D01*
X9507Y27388D01*
X9512Y27381D01*
X9517Y27371D01*
Y27371D01*
X9517Y27370D01*
X9518Y27369D01*
X9519Y27367D01*
X9520Y27364D01*
X9521Y27361D01*
X9523Y27354D01*
X9525Y27346D01*
X9527Y27336D01*
X9528Y27325D01*
X9529Y27313D01*
Y27306D01*
X9528Y27303D01*
Y27299D01*
X9528Y27295D01*
X9528Y27289D01*
X9526Y27278D01*
X9524Y27267D01*
X9521Y27256D01*
X9517Y27245D01*
Y27244D01*
X9517Y27243D01*
X9516Y27242D01*
X9515Y27240D01*
X9512Y27235D01*
X9508Y27229D01*
X9503Y27222D01*
X9497Y27215D01*
X9490Y27208D01*
X9481Y27201D01*
X9481D01*
X9480Y27200D01*
X9479Y27200D01*
X9477Y27198D01*
X9475Y27198D01*
X9472Y27196D01*
X9466Y27193D01*
X9457Y27190D01*
X9448Y27187D01*
X9438Y27186D01*
X9427Y27185D01*
X9423Y27222D01*
X9424D01*
X9424D01*
X9425Y27223D01*
X9427D01*
X9431Y27224D01*
X9437Y27225D01*
X9442Y27227D01*
X9449Y27229D01*
X9455Y27232D01*
X9461Y27235D01*
X9461Y27235D01*
X9463Y27236D01*
X9466Y27239D01*
X9469Y27242D01*
X9473Y27246D01*
X9477Y27251D01*
X9481Y27258D01*
X9484Y27265D01*
Y27265D01*
X9485Y27266D01*
X9485Y27267D01*
X9486Y27268D01*
X9487Y27273D01*
X9489Y27278D01*
X9490Y27285D01*
X9492Y27293D01*
X9493Y27302D01*
X9493Y27312D01*
Y27316D01*
X9493Y27320D01*
X9492Y27325D01*
X9491Y27331D01*
X9490Y27338D01*
X9489Y27345D01*
X9486Y27352D01*
X9486Y27353D01*
X9485Y27355D01*
X9483Y27358D01*
X9482Y27362D01*
X9479Y27366D01*
X9476Y27370D01*
X9472Y27375D01*
X9468Y27378D01*
X9467Y27378D01*
X9466Y27379D01*
X9463Y27381D01*
X9460Y27382D01*
X9456Y27384D01*
X9452Y27385D01*
X9447Y27386D01*
X9442Y27387D01*
X9441D01*
X9439D01*
X9437Y27386D01*
X9433Y27386D01*
X9430Y27385D01*
X9425Y27383D01*
X9421Y27381D01*
X9417Y27378D01*
X9417Y27378D01*
X9415Y27376D01*
X9413Y27375D01*
X9411Y27371D01*
X9408Y27368D01*
X9405Y27363D01*
X9402Y27357D01*
X9400Y27351D01*
X9399Y27350D01*
X9399Y27348D01*
X9397Y27345D01*
X9397Y27343D01*
X9396Y27340D01*
X9395Y27336D01*
X9394Y27333D01*
X9393Y27328D01*
X9391Y27323D01*
X9390Y27318D01*
X9388Y27312D01*
X9386Y27305D01*
X9385Y27297D01*
Y27297D01*
X9384Y27295D01*
X9384Y27293D01*
X9383Y27291D01*
X9382Y27287D01*
X9381Y27283D01*
X9379Y27274D01*
X9375Y27265D01*
X9372Y27255D01*
X9369Y27246D01*
X9368Y27242D01*
X9366Y27239D01*
Y27238D01*
X9365Y27238D01*
X9364Y27235D01*
X9361Y27231D01*
X9358Y27227D01*
X9354Y27222D01*
X9349Y27216D01*
X9344Y27211D01*
X9337Y27207D01*
X9337Y27206D01*
X9334Y27205D01*
X9331Y27203D01*
X9327Y27201D01*
X9321Y27200D01*
X9314Y27198D01*
X9307Y27197D01*
X9300Y27196D01*
X9299D01*
X9299D01*
X9298D01*
X9296D01*
X9292Y27197D01*
X9286Y27198D01*
X9279Y27199D01*
X9272Y27201D01*
X9264Y27205D01*
X9257Y27209D01*
X9257D01*
X9256Y27209D01*
X9254Y27212D01*
X9250Y27215D01*
X9246Y27218D01*
X9241Y27224D01*
X9236Y27230D01*
X9231Y27238D01*
X9226Y27247D01*
Y27247D01*
X9226Y27248D01*
X9226Y27250D01*
X9225Y27251D01*
X9224Y27253D01*
X9223Y27257D01*
X9221Y27263D01*
X9219Y27271D01*
X9218Y27281D01*
X9216Y27291D01*
X9216Y27302D01*
Y27308D01*
X9216Y27311D01*
Y27314D01*
X9217Y27323D01*
X9219Y27332D01*
X9221Y27341D01*
X9223Y27352D01*
X9227Y27361D01*
Y27362D01*
X9227Y27363D01*
X9228Y27364D01*
X9229Y27366D01*
X9231Y27370D01*
X9235Y27376D01*
X9240Y27382D01*
X9245Y27389D01*
X9252Y27395D01*
X9259Y27401D01*
X9260D01*
X9260Y27401D01*
X9261Y27402D01*
X9263Y27403D01*
X9267Y27405D01*
X9273Y27408D01*
X9280Y27411D01*
X9288Y27413D01*
X9297Y27415D01*
X9306Y27416D01*
X9309Y27378D01*
X9309D01*
X9308D01*
X9307Y27377D01*
X9305Y27377D01*
X9300Y27375D01*
X9293Y27374D01*
X9286Y27371D01*
X9279Y27367D01*
X9273Y27362D01*
X9267Y27356D01*
X9266Y27355D01*
X9264Y27353D01*
X9262Y27349D01*
X9259Y27343D01*
X9257Y27336D01*
X9254Y27327D01*
X9252Y27316D01*
X9252Y27304D01*
Y27298D01*
X9252Y27295D01*
X9253Y27291D01*
X9254Y27284D01*
X9255Y27275D01*
X9257Y27266D01*
X9261Y27258D01*
X9263Y27254D01*
X9265Y27251D01*
X9266Y27250D01*
X9268Y27248D01*
X9271Y27246D01*
X9274Y27243D01*
X9279Y27240D01*
X9284Y27237D01*
X9290Y27236D01*
X9297Y27235D01*
X9298D01*
X9300D01*
X9303Y27235D01*
X9306Y27236D01*
X9311Y27237D01*
X9315Y27239D01*
X9320Y27242D01*
X9324Y27246D01*
X9324Y27246D01*
X9326Y27249D01*
X9327Y27250D01*
X9328Y27252D01*
X9329Y27255D01*
X9331Y27258D01*
X9332Y27262D01*
X9334Y27266D01*
X9336Y27271D01*
X9338Y27277D01*
X9340Y27283D01*
X9342Y27290D01*
X9344Y27298D01*
X9346Y27306D01*
Y27307D01*
X9346Y27309D01*
X9347Y27311D01*
X9348Y27314D01*
X9348Y27318D01*
X9350Y27323D01*
X9351Y27328D01*
X9352Y27333D01*
X9355Y27344D01*
X9358Y27355D01*
X9360Y27361D01*
X9362Y27365D01*
X9363Y27370D01*
X9365Y27373D01*
Y27374D01*
X9365Y27375D01*
X9366Y27376D01*
X9367Y27378D01*
X9370Y27382D01*
X9373Y27388D01*
X9378Y27395D01*
X9383Y27401D01*
X9389Y27407D01*
X9396Y27413D01*
X9397Y27413D01*
X9399Y27415D01*
X9403Y27416D01*
X9408Y27419D01*
X9414Y27421D01*
X9422Y27423D01*
X9430Y27425D01*
X9439Y27425D01*
X9439D01*
X9440D01*
X9441D01*
X9443D01*
X9448Y27424D01*
D02*
G37*
G36*
X9257Y27057D02*
X9524D01*
Y27017D01*
X9257D01*
Y26917D01*
X9221D01*
Y27157D01*
X9257D01*
Y27057D01*
D02*
G37*
G36*
X9316Y26889D02*
X9319Y26888D01*
X9323Y26888D01*
X9327Y26887D01*
X9332Y26886D01*
X9342Y26883D01*
X9347Y26881D01*
X9353Y26879D01*
X9358Y26875D01*
X9364Y26872D01*
X9369Y26868D01*
X9374Y26864D01*
X9375Y26864D01*
X9375Y26863D01*
X9377Y26861D01*
X9378Y26859D01*
X9380Y26857D01*
X9382Y26853D01*
X9385Y26849D01*
X9387Y26844D01*
X9390Y26838D01*
X9393Y26832D01*
X9395Y26825D01*
X9396Y26816D01*
X9398Y26808D01*
X9400Y26798D01*
X9400Y26787D01*
X9401Y26776D01*
Y26698D01*
X9524D01*
Y26658D01*
X9221D01*
Y26782D01*
X9222Y26789D01*
X9222Y26796D01*
X9223Y26804D01*
X9223Y26812D01*
X9224Y26818D01*
Y26819D01*
X9225Y26822D01*
X9226Y26826D01*
X9227Y26831D01*
X9230Y26837D01*
X9232Y26843D01*
X9235Y26850D01*
X9239Y26855D01*
X9239Y26856D01*
X9240Y26858D01*
X9243Y26861D01*
X9246Y26864D01*
X9250Y26868D01*
X9255Y26872D01*
X9261Y26876D01*
X9268Y26880D01*
X9268Y26880D01*
X9271Y26881D01*
X9275Y26883D01*
X9280Y26885D01*
X9286Y26886D01*
X9293Y26888D01*
X9301Y26889D01*
X9309Y26889D01*
X9309D01*
X9311D01*
X9313D01*
X9316Y26889D01*
D02*
G37*
%LPC*%
G36*
X7454Y26859D02*
X7453D01*
X7453D01*
X7450Y26858D01*
X7446Y26858D01*
X7441Y26857D01*
X7436Y26855D01*
X7430Y26852D01*
X7424Y26848D01*
X7418Y26843D01*
X7418Y26842D01*
X7416Y26840D01*
X7414Y26837D01*
X7411Y26831D01*
X7409Y26824D01*
X7407Y26816D01*
X7405Y26806D01*
X7404Y26794D01*
Y26698D01*
X7505D01*
Y26788D01*
X7504Y26794D01*
X7504Y26800D01*
X7503Y26807D01*
X7502Y26814D01*
X7501Y26821D01*
X7499Y26827D01*
X7499Y26828D01*
X7498Y26830D01*
X7497Y26832D01*
X7495Y26836D01*
X7492Y26840D01*
X7489Y26844D01*
X7485Y26847D01*
X7481Y26851D01*
X7481Y26851D01*
X7479Y26852D01*
X7476Y26853D01*
X7473Y26855D01*
X7469Y26856D01*
X7464Y26858D01*
X7459Y26858D01*
X7454Y26859D01*
D02*
G37*
G36*
X9320Y30583D02*
X9320D01*
X9319D01*
X9317D01*
X9315Y30582D01*
X9312D01*
X9309Y30582D01*
X9302Y30580D01*
X9294Y30579D01*
X9285Y30576D01*
X9277Y30571D01*
X9269Y30565D01*
X9269D01*
X9268Y30565D01*
X9266Y30562D01*
X9263Y30559D01*
X9260Y30554D01*
X9257Y30548D01*
X9254Y30541D01*
X9251Y30533D01*
X9251Y30529D01*
Y30522D01*
X9251Y30520D01*
X9251Y30515D01*
X9253Y30510D01*
X9255Y30503D01*
X9259Y30495D01*
X9264Y30488D01*
X9268Y30484D01*
X9271Y30481D01*
X9271D01*
X9272Y30480D01*
X9273Y30479D01*
X9275Y30478D01*
X9279Y30475D01*
X9285Y30472D01*
X9292Y30468D01*
X9302Y30465D01*
X9312Y30464D01*
X9323Y30463D01*
X9324D01*
X9325D01*
X9326D01*
X9328Y30463D01*
X9331D01*
X9334Y30464D01*
X9340Y30465D01*
X9348Y30467D01*
X9355Y30470D01*
X9363Y30474D01*
X9370Y30480D01*
X9371Y30481D01*
X9373Y30483D01*
X9376Y30487D01*
X9379Y30492D01*
X9382Y30498D01*
X9386Y30506D01*
X9387Y30514D01*
X9388Y30523D01*
Y30526D01*
X9388Y30527D01*
X9387Y30532D01*
X9386Y30538D01*
X9384Y30545D01*
X9381Y30552D01*
X9376Y30559D01*
X9370Y30565D01*
X9369Y30566D01*
X9367Y30568D01*
X9363Y30571D01*
X9357Y30574D01*
X9350Y30577D01*
X9342Y30580D01*
X9332Y30582D01*
X9320Y30583D01*
D02*
G37*
G36*
X9304Y30336D02*
X9304D01*
X9303D01*
X9301Y30336D01*
X9297Y30335D01*
X9292Y30334D01*
X9286Y30332D01*
X9280Y30329D01*
X9275Y30326D01*
X9269Y30320D01*
X9268Y30319D01*
X9267Y30317D01*
X9264Y30314D01*
X9262Y30308D01*
X9259Y30302D01*
X9257Y30293D01*
X9255Y30283D01*
X9255Y30271D01*
Y30176D01*
X9355D01*
Y30266D01*
X9355Y30271D01*
X9354Y30277D01*
X9354Y30284D01*
X9353Y30291D01*
X9351Y30298D01*
X9350Y30304D01*
X9349Y30305D01*
X9348Y30307D01*
X9347Y30309D01*
X9345Y30313D01*
X9343Y30317D01*
X9340Y30321D01*
X9336Y30325D01*
X9331Y30328D01*
X9331Y30328D01*
X9329Y30329D01*
X9327Y30330D01*
X9323Y30332D01*
X9319Y30333D01*
X9315Y30335D01*
X9309Y30336D01*
X9304Y30336D01*
D02*
G37*
G36*
X9388Y29152D02*
X9375D01*
X9374D01*
X9374D01*
X9372D01*
X9368D01*
X9362Y29151D01*
X9357D01*
X9350Y29151D01*
X9342Y29150D01*
X9334Y29150D01*
X9317Y29147D01*
X9309Y29146D01*
X9301Y29144D01*
X9294Y29143D01*
X9287Y29140D01*
X9281Y29137D01*
X9275Y29134D01*
X9275D01*
X9275Y29133D01*
X9273Y29133D01*
X9271Y29131D01*
X9268Y29127D01*
X9263Y29123D01*
X9258Y29116D01*
X9254Y29109D01*
X9253Y29105D01*
X9251Y29100D01*
X9251Y29095D01*
X9251Y29091D01*
Y29088D01*
X9251Y29086D01*
X9252Y29081D01*
X9253Y29076D01*
X9256Y29069D01*
X9260Y29062D01*
X9262Y29059D01*
X9265Y29055D01*
X9268Y29052D01*
X9272Y29049D01*
X9273D01*
X9274Y29048D01*
X9275Y29047D01*
X9278Y29046D01*
X9281Y29045D01*
X9285Y29043D01*
X9290Y29042D01*
X9296Y29040D01*
X9302Y29038D01*
X9309Y29036D01*
X9318Y29035D01*
X9327Y29033D01*
X9337Y29032D01*
X9349Y29031D01*
X9361Y29031D01*
X9375Y29030D01*
X9375D01*
X9378D01*
X9382D01*
X9387Y29031D01*
X9393D01*
X9400Y29031D01*
X9407Y29032D01*
X9415Y29032D01*
X9432Y29035D01*
X9440Y29036D01*
X9448Y29038D01*
X9455Y29039D01*
X9462Y29042D01*
X9469Y29045D01*
X9474Y29048D01*
X9474D01*
X9475Y29049D01*
X9478Y29051D01*
X9482Y29055D01*
X9486Y29060D01*
X9490Y29066D01*
X9494Y29074D01*
X9497Y29082D01*
X9498Y29086D01*
X9498Y29091D01*
Y29094D01*
X9498Y29095D01*
X9497Y29100D01*
X9495Y29106D01*
X9492Y29112D01*
X9488Y29120D01*
X9485Y29123D01*
X9482Y29127D01*
X9478Y29130D01*
X9474Y29134D01*
X9473D01*
X9472Y29135D01*
X9471Y29136D01*
X9469Y29136D01*
X9466Y29138D01*
X9462Y29140D01*
X9458Y29141D01*
X9452Y29143D01*
X9446Y29144D01*
X9439Y29146D01*
X9431Y29148D01*
X9422Y29149D01*
X9411Y29150D01*
X9400Y29151D01*
X9388Y29152D01*
D02*
G37*
G36*
X9417Y27819D02*
X9282D01*
X9417Y27724D01*
Y27819D01*
D02*
G37*
G36*
X9428Y27625D02*
X9427D01*
X9427D01*
X9425D01*
X9423Y27625D01*
X9420D01*
X9417Y27624D01*
X9410Y27623D01*
X9402Y27621D01*
X9394Y27618D01*
X9386Y27614D01*
X9379Y27608D01*
X9378Y27607D01*
X9375Y27605D01*
X9373Y27602D01*
X9369Y27597D01*
X9366Y27591D01*
X9363Y27584D01*
X9361Y27576D01*
X9360Y27566D01*
Y27564D01*
X9361Y27562D01*
X9361Y27558D01*
X9362Y27552D01*
X9365Y27545D01*
X9368Y27538D01*
X9372Y27531D01*
X9379Y27524D01*
X9379Y27523D01*
X9382Y27521D01*
X9386Y27518D01*
X9391Y27515D01*
X9398Y27512D01*
X9406Y27509D01*
X9415Y27507D01*
X9426Y27506D01*
X9427D01*
X9429D01*
X9433Y27506D01*
X9438Y27507D01*
X9443Y27508D01*
X9449Y27510D01*
X9456Y27511D01*
X9462Y27514D01*
X9463Y27514D01*
X9466Y27516D01*
X9469Y27517D01*
X9472Y27520D01*
X9476Y27523D01*
X9481Y27527D01*
X9485Y27531D01*
X9489Y27537D01*
X9490Y27538D01*
X9490Y27539D01*
X9492Y27542D01*
X9493Y27546D01*
X9495Y27551D01*
X9497Y27556D01*
X9498Y27562D01*
X9498Y27568D01*
Y27570D01*
X9498Y27572D01*
X9497Y27576D01*
X9496Y27582D01*
X9493Y27588D01*
X9490Y27595D01*
X9486Y27602D01*
X9483Y27605D01*
X9479Y27608D01*
X9479D01*
X9479Y27609D01*
X9476Y27611D01*
X9472Y27614D01*
X9466Y27617D01*
X9459Y27620D01*
X9450Y27623D01*
X9440Y27624D01*
X9428Y27625D01*
D02*
G37*
G36*
X9310Y26848D02*
X9310D01*
X9309D01*
X9307D01*
X9303Y26847D01*
X9299Y26847D01*
X9294Y26846D01*
X9289Y26844D01*
X9283Y26841D01*
X9278Y26838D01*
X9278Y26838D01*
X9276Y26837D01*
X9274Y26834D01*
X9271Y26832D01*
X9268Y26828D01*
X9265Y26823D01*
X9262Y26819D01*
X9260Y26813D01*
Y26813D01*
X9260Y26811D01*
X9259Y26808D01*
X9258Y26805D01*
X9258Y26799D01*
X9257Y26793D01*
X9257Y26785D01*
Y26698D01*
X9365D01*
Y26780D01*
X9365Y26783D01*
Y26786D01*
X9364Y26789D01*
X9363Y26798D01*
X9361Y26807D01*
X9359Y26816D01*
X9355Y26824D01*
X9353Y26828D01*
X9351Y26831D01*
X9350Y26832D01*
X9348Y26834D01*
X9344Y26837D01*
X9340Y26840D01*
X9334Y26843D01*
X9327Y26845D01*
X9320Y26847D01*
X9310Y26848D01*
D02*
G37*
%LPD*%
D12*
X0Y0D02*
Y40000D01*
X31500D01*
X31500Y0D01*
X0D02*
X31500D01*
D52*
X9091Y27800D02*
X9082Y27900D01*
X9057Y27997D01*
X9016Y28088D01*
X8959Y28171D01*
X8890Y28243D01*
X8810Y28303D01*
X8720Y28348D01*
X8624Y28377D01*
X8525Y28390D01*
X8425Y28386D01*
X8327Y28365D01*
X8234Y28327D01*
X8149Y28275D01*
X8074Y28209D01*
X8011Y28131D01*
X7962Y28043D01*
X7929Y27949D01*
X7912Y27850D01*
Y27750D01*
X7929Y27651D01*
X7962Y27557D01*
X8011Y27469D01*
X8074Y27391D01*
X8149Y27325D01*
X8234Y27273D01*
X8327Y27235D01*
X8425Y27214D01*
X8525Y27210D01*
X8624Y27223D01*
X8720Y27252D01*
X8810Y27297D01*
X8890Y27357D01*
X8959Y27429D01*
X9016Y27512D01*
X9057Y27603D01*
X9082Y27700D01*
X9091Y27800D01*
X9100Y29040D02*
Y29700D01*
X9650D01*
Y29040D02*
Y29700D01*
X9100Y25900D02*
Y26556D01*
Y25900D02*
X9650D01*
Y26556D01*
X7900Y25900D02*
Y26556D01*
X7350Y25900D02*
X7900D01*
X7350D02*
Y26556D01*
X7900Y29040D02*
Y29700D01*
X7350D02*
X7900D01*
X7350Y29040D02*
Y29700D01*
X7260Y26556D02*
X9744D01*
X7260D02*
Y29040D01*
X9744D01*
Y26556D02*
Y29040D01*
M02*
