G04*
G04 #@! TF.GenerationSoftware,Altium Limited,Altium Designer,19.0.10 (269)*
G04*
G04 Layer_Color=255*
%FSLAX24Y24*%
%MOIN*%
G70*
G01*
G75*
%ADD17R,0.0571X0.0236*%
G04:AMPARAMS|DCode=18|XSize=57mil|YSize=45mil|CornerRadius=11.3mil|HoleSize=0mil|Usage=FLASHONLY|Rotation=90.000|XOffset=0mil|YOffset=0mil|HoleType=Round|Shape=RoundedRectangle|*
%AMROUNDEDRECTD18*
21,1,0.0570,0.0225,0,0,90.0*
21,1,0.0345,0.0450,0,0,90.0*
1,1,0.0225,0.0113,0.0173*
1,1,0.0225,0.0113,-0.0173*
1,1,0.0225,-0.0113,-0.0173*
1,1,0.0225,-0.0113,0.0173*
%
%ADD18ROUNDEDRECTD18*%
%ADD19R,0.0670X0.0280*%
%ADD20O,0.0551X0.0177*%
%ADD38C,0.0472*%
%ADD39R,0.0591X0.0591*%
%ADD40C,0.0591*%
%ADD41P,0.0801X8X202.5*%
%ADD42C,0.0630*%
%ADD43C,0.0551*%
%ADD44O,0.0787X0.0394*%
%ADD45O,0.0787X0.0394*%
%ADD46O,0.1040X0.0520*%
%ADD47R,0.0551X0.0551*%
%ADD48O,0.1079X0.0827*%
D17*
X20925Y29124D02*
D03*
X20000Y28750D02*
D03*
Y29498D02*
D03*
D18*
X2768Y27250D02*
D03*
Y30404D02*
D03*
X1000Y27250D02*
D03*
Y30404D02*
D03*
D19*
X3000Y12778D02*
D03*
Y13250D02*
D03*
Y13730D02*
D03*
D20*
X21250Y6226D02*
D03*
Y6482D02*
D03*
Y6738D02*
D03*
Y6994D02*
D03*
Y7250D02*
D03*
Y7506D02*
D03*
Y7762D02*
D03*
Y8018D02*
D03*
Y8274D02*
D03*
Y8530D02*
D03*
Y8785D02*
D03*
Y9041D02*
D03*
X18927Y6226D02*
D03*
Y6482D02*
D03*
Y6738D02*
D03*
Y6994D02*
D03*
Y7250D02*
D03*
Y7506D02*
D03*
Y7762D02*
D03*
Y8018D02*
D03*
Y8274D02*
D03*
Y8530D02*
D03*
Y8785D02*
D03*
Y9041D02*
D03*
D38*
X14077Y28628D02*
D03*
Y29628D02*
D03*
X18077D02*
D03*
Y28628D02*
D03*
X16077Y29628D02*
D03*
Y28628D02*
D03*
X1000Y17000D02*
D03*
Y16000D02*
D03*
X3000Y17000D02*
D03*
Y16000D02*
D03*
X5000Y17000D02*
D03*
Y16000D02*
D03*
X34063Y23000D02*
D03*
X35063D02*
D03*
X31250Y6250D02*
D03*
Y7250D02*
D03*
X32500Y22500D02*
D03*
Y21500D02*
D03*
X35063D02*
D03*
X34063D02*
D03*
X35250Y8000D02*
D03*
X34250D02*
D03*
X35250Y6250D02*
D03*
X34250D02*
D03*
X15250Y17250D02*
D03*
X14250D02*
D03*
X15250Y19000D02*
D03*
X14250D02*
D03*
D39*
X2750Y6657D02*
D03*
X1250D02*
D03*
X27750Y3829D02*
D03*
X26000D02*
D03*
X20000Y18000D02*
D03*
X24250Y3829D02*
D03*
X17750Y3750D02*
D03*
X12500D02*
D03*
X15250D02*
D03*
X9750D02*
D03*
D40*
X2750Y5657D02*
D03*
X1250D02*
D03*
X27750Y6829D02*
D03*
Y5829D02*
D03*
Y4829D02*
D03*
X26000Y6829D02*
D03*
Y5829D02*
D03*
Y4829D02*
D03*
X20000Y19000D02*
D03*
X23250Y6829D02*
D03*
X24250D02*
D03*
X23250Y5829D02*
D03*
X24250D02*
D03*
X23250Y4829D02*
D03*
X24250D02*
D03*
X23250Y3829D02*
D03*
X16750Y6750D02*
D03*
X17750D02*
D03*
X16750Y5750D02*
D03*
X17750D02*
D03*
X16750Y4750D02*
D03*
X17750D02*
D03*
X16750Y3750D02*
D03*
X11500Y6750D02*
D03*
X12500D02*
D03*
X11500Y5750D02*
D03*
X12500D02*
D03*
X11500Y4750D02*
D03*
X12500D02*
D03*
X11500Y3750D02*
D03*
X14250Y6750D02*
D03*
X15250D02*
D03*
X14250Y5750D02*
D03*
X15250D02*
D03*
X14250Y4750D02*
D03*
X15250D02*
D03*
X14250Y3750D02*
D03*
X8750Y6750D02*
D03*
X9750D02*
D03*
X8750Y5750D02*
D03*
X9750D02*
D03*
X8750Y4750D02*
D03*
X9750D02*
D03*
X8750Y3750D02*
D03*
D41*
X6500Y6657D02*
D03*
Y5657D02*
D03*
X5500Y6657D02*
D03*
Y5657D02*
D03*
X4500Y6657D02*
D03*
Y5657D02*
D03*
D42*
X28250Y23750D02*
D03*
X29250D02*
D03*
X21250D02*
D03*
X22250D02*
D03*
X24750D02*
D03*
X25750D02*
D03*
D43*
X27000Y22250D02*
D03*
Y26250D02*
D03*
X12000Y27250D02*
D03*
Y31250D02*
D03*
X10000Y27250D02*
D03*
Y31250D02*
D03*
X1000Y25000D02*
D03*
Y21000D02*
D03*
X2750Y25000D02*
D03*
Y21000D02*
D03*
X8000Y31250D02*
D03*
Y27250D02*
D03*
X20000Y22250D02*
D03*
Y26250D02*
D03*
X23500Y22250D02*
D03*
Y26250D02*
D03*
X35563Y24878D02*
D03*
X34563D02*
D03*
X34063Y25628D02*
D03*
X35063D02*
D03*
X35671Y9907D02*
D03*
X34671D02*
D03*
X34171Y10657D02*
D03*
X35171D02*
D03*
X38250Y24000D02*
D03*
Y20000D02*
D03*
X37250Y9750D02*
D03*
Y5750D02*
D03*
X13750Y16000D02*
D03*
Y12000D02*
D03*
X17238D02*
D03*
Y16000D02*
D03*
X13750Y20250D02*
D03*
Y24250D02*
D03*
X17238D02*
D03*
Y20250D02*
D03*
X15500Y12000D02*
D03*
Y16000D02*
D03*
Y24250D02*
D03*
Y20250D02*
D03*
D44*
X4750Y23500D02*
D03*
D45*
Y23000D02*
D03*
Y22500D02*
D03*
D46*
X11000Y23000D02*
D03*
Y22000D02*
D03*
Y21000D02*
D03*
Y20000D02*
D03*
Y19000D02*
D03*
Y18000D02*
D03*
Y17000D02*
D03*
Y16000D02*
D03*
Y15000D02*
D03*
Y14000D02*
D03*
Y13000D02*
D03*
Y12000D02*
D03*
Y11000D02*
D03*
Y10000D02*
D03*
X8000D02*
D03*
Y11000D02*
D03*
Y12000D02*
D03*
Y13000D02*
D03*
Y14000D02*
D03*
Y15000D02*
D03*
Y16000D02*
D03*
Y17000D02*
D03*
Y18000D02*
D03*
Y19000D02*
D03*
Y20000D02*
D03*
Y21000D02*
D03*
Y22000D02*
D03*
Y23000D02*
D03*
D47*
X33563Y24878D02*
D03*
X33671Y9907D02*
D03*
D48*
X36000Y31941D02*
D03*
Y30720D02*
D03*
Y29500D02*
D03*
X32142D02*
D03*
Y30720D02*
D03*
Y31941D02*
D03*
X36108Y16970D02*
D03*
Y15750D02*
D03*
Y14530D02*
D03*
X32250D02*
D03*
Y15750D02*
D03*
Y16970D02*
D03*
M02*
