M48
;Layer_Color=9474304
;FILE_FORMAT=2:5
INCH,LZ
;TYPE=PLATED
T1F00S00C0.02756
T2F00S00C0.02800
T3F00S00C0.03200
T4F00S00C0.03543
T5F00S00C0.04000
%
T01
X0091Y0041
Y0051
X0111
Y0041
T02
X02377Y00905
X0238Y0175
X0206Y01629
X00819Y017
X0062Y0179
X0056Y0152916
X00472Y01469
X00585Y01353
X0052Y01086
T03
X0135Y0045
Y0055
Y0065
Y0075
Y0085
Y0095
Y0105
Y0115
Y0125
Y0135
Y0145
Y0155
Y0165
Y0175
X0165
Y0165
Y0155
Y0145
Y0135
Y0125
Y0115
Y0105
Y0095
Y0085
Y0075
Y0065
Y0055
Y0045
T04
X02235Y01145
X02135
X02035
X01935
X0194Y00565
X0204
X009Y008
Y009
X0067Y0088
Y0078
Y0068
Y0058
Y0048
X009Y012
Y013
X0057Y0088
Y0078
Y0068
Y0058
Y0048
T05
X0057Y0013
Y0023
X0067
X0077
Y0013
X0067
M30
