G04*
G04 #@! TF.GenerationSoftware,Altium Limited,Altium Designer,19.0.10 (269)*
G04*
G04 Layer_Color=32768*
%FSLAX24Y24*%
%MOIN*%
G70*
G01*
G75*
%ADD12C,0.0100*%
%ADD62C,0.0039*%
G36*
X12233Y26078D02*
X12237D01*
X12241Y26078D01*
X12246Y26077D01*
X12257Y26075D01*
X12269Y26074D01*
X12280Y26071D01*
X12291Y26067D01*
X12291D01*
X12292Y26066D01*
X12293Y26065D01*
X12295Y26064D01*
X12300Y26062D01*
X12307Y26058D01*
X12314Y26053D01*
X12321Y26047D01*
X12328Y26039D01*
X12335Y26031D01*
Y26030D01*
X12335Y26030D01*
X12336Y26028D01*
X12337Y26026D01*
X12338Y26024D01*
X12339Y26022D01*
X12342Y26015D01*
X12345Y26007D01*
X12348Y25998D01*
X12350Y25987D01*
X12351Y25976D01*
X12313Y25973D01*
Y25973D01*
Y25974D01*
X12313Y25975D01*
Y25977D01*
X12312Y25981D01*
X12310Y25986D01*
X12309Y25992D01*
X12307Y25998D01*
X12304Y26005D01*
X12301Y26010D01*
X12300Y26011D01*
X12299Y26012D01*
X12297Y26016D01*
X12293Y26019D01*
X12289Y26023D01*
X12284Y26026D01*
X12278Y26030D01*
X12271Y26034D01*
X12270D01*
X12270Y26034D01*
X12269Y26035D01*
X12267Y26035D01*
X12263Y26037D01*
X12257Y26038D01*
X12250Y26040D01*
X12242Y26041D01*
X12234Y26042D01*
X12224Y26043D01*
X12220D01*
X12216Y26042D01*
X12210Y26042D01*
X12204Y26041D01*
X12197Y26040D01*
X12190Y26038D01*
X12184Y26036D01*
X12183Y26036D01*
X12181Y26035D01*
X12178Y26033D01*
X12174Y26031D01*
X12170Y26028D01*
X12165Y26025D01*
X12161Y26022D01*
X12158Y26017D01*
X12157Y26017D01*
X12156Y26015D01*
X12155Y26013D01*
X12153Y26009D01*
X12151Y26006D01*
X12150Y26002D01*
X12149Y25997D01*
X12149Y25992D01*
Y25991D01*
Y25989D01*
X12149Y25986D01*
X12150Y25983D01*
X12151Y25979D01*
X12152Y25975D01*
X12154Y25971D01*
X12158Y25967D01*
X12158Y25966D01*
X12159Y25965D01*
X12161Y25963D01*
X12164Y25960D01*
X12168Y25958D01*
X12172Y25955D01*
X12178Y25952D01*
X12185Y25949D01*
X12185Y25949D01*
X12187Y25948D01*
X12191Y25947D01*
X12193Y25947D01*
X12196Y25946D01*
X12199Y25944D01*
X12203Y25943D01*
X12207Y25942D01*
X12213Y25941D01*
X12218Y25940D01*
X12224Y25938D01*
X12231Y25936D01*
X12238Y25934D01*
X12239D01*
X12240Y25934D01*
X12242Y25933D01*
X12245Y25933D01*
X12248Y25932D01*
X12252Y25931D01*
X12261Y25928D01*
X12271Y25925D01*
X12281Y25922D01*
X12290Y25919D01*
X12293Y25917D01*
X12297Y25915D01*
X12297D01*
X12298Y25915D01*
X12300Y25913D01*
X12304Y25911D01*
X12309Y25908D01*
X12314Y25904D01*
X12319Y25899D01*
X12324Y25893D01*
X12329Y25887D01*
X12329Y25886D01*
X12331Y25884D01*
X12332Y25881D01*
X12334Y25876D01*
X12336Y25870D01*
X12338Y25864D01*
X12339Y25857D01*
X12339Y25849D01*
Y25849D01*
Y25849D01*
Y25847D01*
Y25846D01*
X12338Y25841D01*
X12338Y25835D01*
X12336Y25829D01*
X12334Y25822D01*
X12331Y25814D01*
X12327Y25807D01*
Y25806D01*
X12326Y25806D01*
X12324Y25803D01*
X12321Y25800D01*
X12317Y25795D01*
X12312Y25790D01*
X12305Y25785D01*
X12297Y25780D01*
X12289Y25776D01*
X12288D01*
X12287Y25776D01*
X12286Y25775D01*
X12284Y25774D01*
X12282Y25773D01*
X12279Y25773D01*
X12272Y25771D01*
X12264Y25769D01*
X12255Y25767D01*
X12244Y25766D01*
X12233Y25766D01*
X12227D01*
X12224Y25766D01*
X12221D01*
X12213Y25767D01*
X12204Y25768D01*
X12194Y25770D01*
X12184Y25773D01*
X12174Y25777D01*
X12174D01*
X12173Y25777D01*
X12172Y25778D01*
X12170Y25779D01*
X12165Y25781D01*
X12160Y25785D01*
X12153Y25789D01*
X12147Y25795D01*
X12140Y25801D01*
X12135Y25809D01*
Y25809D01*
X12134Y25810D01*
X12134Y25811D01*
X12133Y25812D01*
X12130Y25817D01*
X12128Y25822D01*
X12125Y25829D01*
X12123Y25838D01*
X12120Y25846D01*
X12120Y25856D01*
X12158Y25859D01*
Y25859D01*
Y25858D01*
X12158Y25856D01*
X12159Y25854D01*
X12160Y25849D01*
X12162Y25843D01*
X12165Y25836D01*
X12168Y25829D01*
X12173Y25822D01*
X12179Y25816D01*
X12180Y25816D01*
X12182Y25814D01*
X12187Y25811D01*
X12192Y25809D01*
X12200Y25806D01*
X12209Y25804D01*
X12220Y25802D01*
X12232Y25801D01*
X12238D01*
X12241Y25802D01*
X12244Y25802D01*
X12252Y25803D01*
X12261Y25805D01*
X12269Y25807D01*
X12278Y25811D01*
X12281Y25813D01*
X12285Y25815D01*
X12286Y25815D01*
X12287Y25817D01*
X12290Y25820D01*
X12293Y25824D01*
X12296Y25829D01*
X12298Y25834D01*
X12300Y25840D01*
X12301Y25847D01*
Y25848D01*
Y25849D01*
X12300Y25853D01*
X12300Y25856D01*
X12298Y25860D01*
X12296Y25865D01*
X12293Y25869D01*
X12290Y25874D01*
X12289Y25874D01*
X12287Y25875D01*
X12285Y25877D01*
X12283Y25877D01*
X12281Y25879D01*
X12278Y25881D01*
X12274Y25882D01*
X12269Y25884D01*
X12265Y25885D01*
X12259Y25887D01*
X12253Y25889D01*
X12246Y25891D01*
X12238Y25893D01*
X12229Y25895D01*
X12229D01*
X12227Y25896D01*
X12224Y25896D01*
X12221Y25897D01*
X12217Y25898D01*
X12213Y25899D01*
X12208Y25901D01*
X12203Y25902D01*
X12191Y25905D01*
X12180Y25908D01*
X12175Y25910D01*
X12170Y25912D01*
X12166Y25913D01*
X12162Y25915D01*
X12162D01*
X12161Y25915D01*
X12160Y25916D01*
X12158Y25917D01*
X12153Y25919D01*
X12147Y25923D01*
X12141Y25928D01*
X12134Y25933D01*
X12128Y25939D01*
X12123Y25946D01*
X12123Y25947D01*
X12121Y25949D01*
X12119Y25953D01*
X12116Y25958D01*
X12114Y25964D01*
X12112Y25971D01*
X12111Y25980D01*
X12110Y25988D01*
Y25989D01*
Y25989D01*
Y25991D01*
Y25992D01*
X12111Y25997D01*
X12112Y26003D01*
X12114Y26010D01*
X12116Y26018D01*
X12120Y26026D01*
X12124Y26034D01*
Y26034D01*
X12125Y26035D01*
X12127Y26037D01*
X12130Y26041D01*
X12134Y26046D01*
X12140Y26051D01*
X12147Y26057D01*
X12155Y26062D01*
X12164Y26067D01*
X12165D01*
X12165Y26067D01*
X12167Y26068D01*
X12168Y26068D01*
X12171Y26069D01*
X12174Y26071D01*
X12181Y26072D01*
X12189Y26075D01*
X12199Y26077D01*
X12210Y26078D01*
X12222Y26078D01*
X12229D01*
X12233Y26078D01*
D02*
G37*
G36*
X12642Y25771D02*
X12501D01*
X12498Y25771D01*
X12494D01*
X12485Y25772D01*
X12475Y25773D01*
X12465Y25774D01*
X12455Y25777D01*
X12450Y25778D01*
X12446Y25779D01*
X12446D01*
X12446Y25780D01*
X12443Y25781D01*
X12439Y25783D01*
X12434Y25786D01*
X12429Y25790D01*
X12423Y25795D01*
X12418Y25801D01*
X12413Y25808D01*
Y25808D01*
X12412Y25809D01*
X12411Y25811D01*
X12409Y25816D01*
X12406Y25822D01*
X12404Y25828D01*
X12402Y25836D01*
X12401Y25844D01*
X12400Y25853D01*
Y25854D01*
Y25855D01*
Y25856D01*
X12401Y25859D01*
Y25862D01*
X12401Y25865D01*
X12403Y25872D01*
X12405Y25881D01*
X12409Y25890D01*
X12414Y25899D01*
X12418Y25904D01*
X12421Y25908D01*
X12421Y25908D01*
X12422Y25909D01*
X12423Y25910D01*
X12425Y25912D01*
X12427Y25913D01*
X12430Y25915D01*
X12433Y25917D01*
X12437Y25920D01*
X12441Y25922D01*
X12446Y25924D01*
X12451Y25927D01*
X12457Y25929D01*
X12463Y25931D01*
X12470Y25933D01*
X12477Y25934D01*
X12485Y25936D01*
X12484Y25936D01*
X12483Y25937D01*
X12480Y25939D01*
X12477Y25940D01*
X12469Y25945D01*
X12465Y25948D01*
X12461Y25951D01*
X12460Y25952D01*
X12458Y25954D01*
X12455Y25957D01*
X12450Y25962D01*
X12446Y25968D01*
X12440Y25974D01*
X12434Y25982D01*
X12428Y25991D01*
X12376Y26073D01*
X12426D01*
X12466Y26010D01*
Y26010D01*
X12466Y26009D01*
X12467Y26008D01*
X12469Y26006D01*
X12472Y26001D01*
X12476Y25995D01*
X12480Y25988D01*
X12485Y25981D01*
X12490Y25975D01*
X12494Y25969D01*
X12495Y25968D01*
X12496Y25967D01*
X12498Y25964D01*
X12501Y25961D01*
X12508Y25954D01*
X12512Y25951D01*
X12515Y25949D01*
X12515Y25948D01*
X12516Y25948D01*
X12518Y25947D01*
X12521Y25946D01*
X12523Y25944D01*
X12526Y25943D01*
X12533Y25941D01*
X12534D01*
X12535Y25940D01*
X12536D01*
X12539Y25940D01*
X12542Y25940D01*
X12545D01*
X12550Y25939D01*
X12602D01*
Y26073D01*
X12642D01*
Y25771D01*
D02*
G37*
G36*
X11978Y25807D02*
X12078D01*
Y25771D01*
X11839D01*
Y25807D01*
X11938D01*
Y26073D01*
X11978D01*
Y25807D01*
D02*
G37*
G36*
X11710Y25837D02*
X11710Y25837D01*
X11712Y25839D01*
X11715Y25842D01*
X11719Y25845D01*
X11724Y25849D01*
X11730Y25853D01*
X11737Y25858D01*
X11745Y25863D01*
X11745D01*
X11746Y25863D01*
X11748Y25865D01*
X11753Y25867D01*
X11758Y25870D01*
X11764Y25873D01*
X11771Y25876D01*
X11777Y25879D01*
X11784Y25881D01*
Y25846D01*
X11783D01*
X11783Y25845D01*
X11781Y25844D01*
X11779Y25843D01*
X11776Y25842D01*
X11773Y25840D01*
X11766Y25835D01*
X11757Y25831D01*
X11748Y25825D01*
X11739Y25818D01*
X11730Y25810D01*
X11729Y25810D01*
X11729Y25809D01*
X11728Y25808D01*
X11726Y25807D01*
X11722Y25802D01*
X11717Y25797D01*
X11711Y25791D01*
X11706Y25784D01*
X11701Y25777D01*
X11696Y25770D01*
X11672D01*
Y26073D01*
X11710D01*
Y25837D01*
D02*
G37*
G36*
X8790Y27928D02*
X8794D01*
X8797Y27928D01*
X8805Y27926D01*
X8814Y27924D01*
X8824Y27921D01*
X8834Y27916D01*
X8839Y27913D01*
X8843Y27909D01*
X8843Y27909D01*
X8844Y27908D01*
X8845Y27907D01*
X8846Y27906D01*
X8848Y27904D01*
X8850Y27901D01*
X8855Y27895D01*
X8859Y27887D01*
X8863Y27877D01*
X8867Y27866D01*
X8870Y27854D01*
X8834Y27851D01*
Y27851D01*
X8833Y27852D01*
Y27853D01*
X8833Y27855D01*
X8832Y27859D01*
X8830Y27865D01*
X8828Y27871D01*
X8825Y27877D01*
X8821Y27883D01*
X8817Y27887D01*
X8816Y27888D01*
X8814Y27889D01*
X8811Y27891D01*
X8808Y27893D01*
X8803Y27895D01*
X8797Y27897D01*
X8791Y27898D01*
X8784Y27898D01*
X8781D01*
X8778Y27898D01*
X8774Y27897D01*
X8769Y27897D01*
X8764Y27895D01*
X8759Y27893D01*
X8754Y27891D01*
X8754Y27890D01*
X8752Y27890D01*
X8749Y27888D01*
X8747Y27885D01*
X8743Y27882D01*
X8740Y27879D01*
X8736Y27875D01*
X8733Y27870D01*
X8732Y27869D01*
X8731Y27867D01*
X8730Y27864D01*
X8728Y27860D01*
X8726Y27855D01*
X8724Y27849D01*
X8721Y27842D01*
X8719Y27834D01*
Y27834D01*
X8719Y27833D01*
Y27832D01*
X8718Y27830D01*
X8717Y27826D01*
X8716Y27820D01*
X8715Y27813D01*
X8714Y27806D01*
X8714Y27797D01*
X8714Y27789D01*
Y27788D01*
Y27787D01*
Y27785D01*
Y27781D01*
X8714Y27782D01*
X8716Y27784D01*
X8718Y27787D01*
X8721Y27792D01*
X8726Y27796D01*
X8731Y27801D01*
X8737Y27806D01*
X8744Y27810D01*
X8745Y27810D01*
X8748Y27812D01*
X8752Y27813D01*
X8756Y27815D01*
X8763Y27817D01*
X8770Y27819D01*
X8778Y27820D01*
X8786Y27821D01*
X8790D01*
X8792Y27820D01*
X8796Y27820D01*
X8799Y27820D01*
X8804Y27819D01*
X8808Y27817D01*
X8818Y27814D01*
X8823Y27812D01*
X8828Y27810D01*
X8834Y27807D01*
X8839Y27803D01*
X8845Y27799D01*
X8849Y27794D01*
X8850Y27793D01*
X8851Y27793D01*
X8852Y27791D01*
X8853Y27789D01*
X8856Y27786D01*
X8858Y27783D01*
X8860Y27779D01*
X8862Y27775D01*
X8865Y27770D01*
X8867Y27765D01*
X8869Y27758D01*
X8871Y27752D01*
X8873Y27745D01*
X8874Y27738D01*
X8875Y27730D01*
X8875Y27722D01*
Y27722D01*
Y27720D01*
Y27718D01*
X8875Y27715D01*
X8874Y27711D01*
X8874Y27706D01*
X8873Y27701D01*
X8872Y27696D01*
X8869Y27684D01*
X8866Y27678D01*
X8864Y27671D01*
X8861Y27665D01*
X8857Y27660D01*
X8853Y27654D01*
X8848Y27648D01*
X8848Y27648D01*
X8847Y27647D01*
X8846Y27646D01*
X8843Y27644D01*
X8841Y27642D01*
X8837Y27639D01*
X8834Y27637D01*
X8829Y27634D01*
X8825Y27631D01*
X8820Y27629D01*
X8808Y27624D01*
X8802Y27623D01*
X8795Y27621D01*
X8788Y27620D01*
X8780Y27620D01*
X8777D01*
X8775Y27620D01*
X8773D01*
X8770Y27621D01*
X8762Y27622D01*
X8754Y27624D01*
X8745Y27627D01*
X8736Y27631D01*
X8727Y27636D01*
X8726D01*
X8726Y27637D01*
X8724Y27638D01*
X8723Y27639D01*
X8718Y27643D01*
X8713Y27647D01*
X8707Y27654D01*
X8700Y27662D01*
X8695Y27671D01*
X8690Y27682D01*
Y27682D01*
X8689Y27683D01*
X8688Y27685D01*
X8687Y27687D01*
X8686Y27690D01*
X8685Y27694D01*
X8684Y27698D01*
X8683Y27703D01*
X8682Y27709D01*
X8680Y27715D01*
X8679Y27722D01*
X8679Y27730D01*
X8678Y27738D01*
X8677Y27747D01*
X8676Y27756D01*
Y27766D01*
Y27767D01*
Y27769D01*
Y27772D01*
Y27776D01*
X8677Y27781D01*
Y27786D01*
X8677Y27793D01*
X8678Y27800D01*
X8679Y27814D01*
X8682Y27830D01*
X8685Y27845D01*
X8687Y27852D01*
X8689Y27859D01*
Y27859D01*
X8690Y27860D01*
X8690Y27862D01*
X8691Y27865D01*
X8693Y27867D01*
X8694Y27871D01*
X8699Y27878D01*
X8704Y27886D01*
X8710Y27895D01*
X8718Y27904D01*
X8727Y27911D01*
X8727D01*
X8728Y27912D01*
X8729Y27913D01*
X8731Y27914D01*
X8734Y27915D01*
X8736Y27917D01*
X8740Y27918D01*
X8743Y27920D01*
X8752Y27923D01*
X8762Y27926D01*
X8773Y27928D01*
X8785Y27929D01*
X8788D01*
X8790Y27928D01*
D02*
G37*
G36*
X11275D02*
X11278Y27928D01*
X11282Y27928D01*
X11287Y27927D01*
X11292Y27926D01*
X11303Y27923D01*
X11314Y27919D01*
X11319Y27917D01*
X11325Y27914D01*
X11330Y27910D01*
X11336Y27906D01*
X11336Y27906D01*
X11337Y27905D01*
X11338Y27904D01*
X11339Y27902D01*
X11342Y27900D01*
X11344Y27897D01*
X11346Y27893D01*
X11349Y27890D01*
X11351Y27886D01*
X11354Y27881D01*
X11359Y27870D01*
X11363Y27858D01*
X11364Y27852D01*
X11365Y27845D01*
X11326Y27841D01*
Y27842D01*
Y27843D01*
X11325Y27844D01*
X11325Y27846D01*
X11324Y27851D01*
X11322Y27858D01*
X11319Y27864D01*
X11316Y27872D01*
X11312Y27878D01*
X11306Y27884D01*
X11305Y27885D01*
X11304Y27886D01*
X11300Y27889D01*
X11295Y27891D01*
X11290Y27894D01*
X11284Y27896D01*
X11276Y27898D01*
X11268Y27898D01*
X11265D01*
X11263Y27898D01*
X11258Y27897D01*
X11252Y27896D01*
X11245Y27893D01*
X11237Y27890D01*
X11229Y27885D01*
X11226Y27882D01*
X11222Y27878D01*
X11222Y27878D01*
X11221Y27877D01*
X11221Y27876D01*
X11219Y27875D01*
X11216Y27870D01*
X11213Y27864D01*
X11210Y27856D01*
X11207Y27847D01*
X11204Y27836D01*
X11204Y27831D01*
Y27824D01*
Y27824D01*
Y27823D01*
Y27821D01*
X11204Y27819D01*
Y27817D01*
X11204Y27813D01*
X11206Y27807D01*
X11208Y27798D01*
X11211Y27790D01*
X11215Y27782D01*
X11221Y27775D01*
Y27774D01*
X11222Y27774D01*
X11225Y27772D01*
X11228Y27768D01*
X11234Y27765D01*
X11241Y27762D01*
X11249Y27759D01*
X11258Y27757D01*
X11263Y27756D01*
X11271D01*
X11275Y27756D01*
X11279Y27757D01*
X11284Y27758D01*
X11290Y27759D01*
X11295Y27761D01*
X11301Y27764D01*
X11301Y27765D01*
X11303Y27765D01*
X11306Y27768D01*
X11309Y27770D01*
X11313Y27773D01*
X11316Y27777D01*
X11320Y27781D01*
X11323Y27786D01*
X11358Y27781D01*
X11329Y27625D01*
X11179D01*
Y27661D01*
X11300D01*
X11316Y27742D01*
X11315Y27742D01*
X11315Y27741D01*
X11313Y27741D01*
X11311Y27739D01*
X11308Y27738D01*
X11305Y27736D01*
X11298Y27733D01*
X11290Y27729D01*
X11280Y27726D01*
X11270Y27724D01*
X11264Y27723D01*
X11255D01*
X11252Y27723D01*
X11249Y27724D01*
X11245Y27724D01*
X11240Y27725D01*
X11235Y27727D01*
X11225Y27730D01*
X11219Y27732D01*
X11214Y27735D01*
X11208Y27738D01*
X11202Y27741D01*
X11197Y27746D01*
X11192Y27751D01*
X11191Y27751D01*
X11190Y27752D01*
X11189Y27753D01*
X11187Y27755D01*
X11185Y27758D01*
X11183Y27761D01*
X11180Y27765D01*
X11178Y27770D01*
X11176Y27775D01*
X11173Y27780D01*
X11171Y27786D01*
X11169Y27792D01*
X11167Y27799D01*
X11166Y27806D01*
X11165Y27813D01*
X11164Y27821D01*
Y27822D01*
Y27823D01*
Y27825D01*
X11165Y27828D01*
X11165Y27832D01*
X11166Y27836D01*
X11166Y27841D01*
X11167Y27845D01*
X11170Y27857D01*
X11174Y27869D01*
X11177Y27875D01*
X11180Y27880D01*
X11184Y27886D01*
X11188Y27892D01*
X11189Y27893D01*
X11190Y27894D01*
X11191Y27896D01*
X11194Y27898D01*
X11197Y27900D01*
X11200Y27904D01*
X11204Y27907D01*
X11209Y27911D01*
X11214Y27914D01*
X11221Y27917D01*
X11227Y27920D01*
X11234Y27923D01*
X11242Y27925D01*
X11250Y27927D01*
X11259Y27928D01*
X11268Y27929D01*
X11272D01*
X11275Y27928D01*
D02*
G37*
G36*
X10453D02*
X10456Y27928D01*
X10460Y27928D01*
X10465Y27927D01*
X10470Y27926D01*
X10481Y27923D01*
X10492Y27919D01*
X10497Y27917D01*
X10503Y27914D01*
X10508Y27910D01*
X10514Y27906D01*
X10514Y27906D01*
X10515Y27905D01*
X10516Y27904D01*
X10517Y27902D01*
X10520Y27900D01*
X10522Y27897D01*
X10524Y27893D01*
X10527Y27890D01*
X10529Y27886D01*
X10532Y27881D01*
X10537Y27870D01*
X10541Y27858D01*
X10542Y27852D01*
X10543Y27845D01*
X10504Y27841D01*
Y27842D01*
Y27843D01*
X10503Y27844D01*
X10503Y27846D01*
X10502Y27851D01*
X10500Y27858D01*
X10497Y27864D01*
X10494Y27872D01*
X10490Y27878D01*
X10484Y27884D01*
X10483Y27885D01*
X10482Y27886D01*
X10478Y27889D01*
X10473Y27891D01*
X10468Y27894D01*
X10462Y27896D01*
X10454Y27898D01*
X10446Y27898D01*
X10443D01*
X10441Y27898D01*
X10436Y27897D01*
X10430Y27896D01*
X10423Y27893D01*
X10415Y27890D01*
X10407Y27885D01*
X10404Y27882D01*
X10400Y27878D01*
X10400Y27878D01*
X10399Y27877D01*
X10399Y27876D01*
X10397Y27875D01*
X10394Y27870D01*
X10391Y27864D01*
X10388Y27856D01*
X10385Y27847D01*
X10382Y27836D01*
X10382Y27831D01*
Y27824D01*
Y27824D01*
Y27823D01*
Y27821D01*
X10382Y27819D01*
Y27817D01*
X10382Y27813D01*
X10384Y27807D01*
X10386Y27798D01*
X10389Y27790D01*
X10393Y27782D01*
X10399Y27775D01*
Y27774D01*
X10400Y27774D01*
X10403Y27772D01*
X10406Y27768D01*
X10412Y27765D01*
X10419Y27762D01*
X10427Y27759D01*
X10436Y27757D01*
X10441Y27756D01*
X10449D01*
X10453Y27756D01*
X10457Y27757D01*
X10462Y27758D01*
X10468Y27759D01*
X10473Y27761D01*
X10479Y27764D01*
X10479Y27765D01*
X10481Y27765D01*
X10484Y27768D01*
X10487Y27770D01*
X10491Y27773D01*
X10494Y27777D01*
X10498Y27781D01*
X10501Y27786D01*
X10536Y27781D01*
X10507Y27625D01*
X10357D01*
Y27661D01*
X10478D01*
X10494Y27742D01*
X10493Y27742D01*
X10493Y27741D01*
X10491Y27741D01*
X10489Y27739D01*
X10486Y27738D01*
X10483Y27736D01*
X10476Y27733D01*
X10468Y27729D01*
X10458Y27726D01*
X10448Y27724D01*
X10442Y27723D01*
X10433D01*
X10430Y27723D01*
X10427Y27724D01*
X10423Y27724D01*
X10418Y27725D01*
X10413Y27727D01*
X10403Y27730D01*
X10397Y27732D01*
X10392Y27735D01*
X10386Y27738D01*
X10380Y27741D01*
X10375Y27746D01*
X10370Y27751D01*
X10369Y27751D01*
X10368Y27752D01*
X10367Y27753D01*
X10365Y27755D01*
X10363Y27758D01*
X10361Y27761D01*
X10358Y27765D01*
X10356Y27770D01*
X10354Y27775D01*
X10351Y27780D01*
X10349Y27786D01*
X10347Y27792D01*
X10345Y27799D01*
X10344Y27806D01*
X10343Y27813D01*
X10342Y27821D01*
Y27822D01*
Y27823D01*
Y27825D01*
X10343Y27828D01*
X10343Y27832D01*
X10344Y27836D01*
X10344Y27841D01*
X10345Y27845D01*
X10348Y27857D01*
X10352Y27869D01*
X10355Y27875D01*
X10358Y27880D01*
X10362Y27886D01*
X10366Y27892D01*
X10367Y27893D01*
X10368Y27894D01*
X10369Y27896D01*
X10372Y27898D01*
X10375Y27900D01*
X10378Y27904D01*
X10382Y27907D01*
X10387Y27911D01*
X10392Y27914D01*
X10399Y27917D01*
X10405Y27920D01*
X10412Y27923D01*
X10420Y27925D01*
X10428Y27927D01*
X10437Y27928D01*
X10446Y27929D01*
X10450D01*
X10453Y27928D01*
D02*
G37*
G36*
X11997D02*
X12001D01*
X12005Y27928D01*
X12011Y27928D01*
X12022Y27926D01*
X12033Y27924D01*
X12044Y27921D01*
X12055Y27917D01*
X12056D01*
X12057Y27917D01*
X12058Y27916D01*
X12060Y27915D01*
X12065Y27912D01*
X12071Y27908D01*
X12078Y27903D01*
X12085Y27897D01*
X12092Y27890D01*
X12099Y27881D01*
Y27881D01*
X12100Y27880D01*
X12100Y27879D01*
X12102Y27877D01*
X12102Y27875D01*
X12104Y27872D01*
X12107Y27866D01*
X12110Y27857D01*
X12113Y27848D01*
X12114Y27838D01*
X12115Y27827D01*
X12078Y27823D01*
Y27824D01*
Y27824D01*
X12077Y27825D01*
Y27827D01*
X12076Y27831D01*
X12075Y27837D01*
X12073Y27842D01*
X12071Y27849D01*
X12068Y27855D01*
X12065Y27861D01*
X12065Y27861D01*
X12064Y27863D01*
X12061Y27866D01*
X12058Y27869D01*
X12054Y27873D01*
X12049Y27877D01*
X12042Y27881D01*
X12035Y27884D01*
X12035D01*
X12034Y27885D01*
X12033Y27885D01*
X12032Y27886D01*
X12027Y27887D01*
X12022Y27889D01*
X12015Y27890D01*
X12007Y27892D01*
X11998Y27893D01*
X11988Y27893D01*
X11984D01*
X11980Y27893D01*
X11975Y27892D01*
X11969Y27891D01*
X11962Y27890D01*
X11955Y27889D01*
X11948Y27886D01*
X11947Y27886D01*
X11945Y27885D01*
X11942Y27883D01*
X11938Y27882D01*
X11934Y27879D01*
X11930Y27876D01*
X11925Y27872D01*
X11922Y27868D01*
X11922Y27867D01*
X11921Y27866D01*
X11919Y27863D01*
X11918Y27860D01*
X11916Y27856D01*
X11915Y27852D01*
X11914Y27847D01*
X11913Y27842D01*
Y27841D01*
Y27839D01*
X11914Y27837D01*
X11914Y27833D01*
X11915Y27830D01*
X11917Y27825D01*
X11919Y27821D01*
X11922Y27817D01*
X11922Y27817D01*
X11924Y27815D01*
X11925Y27813D01*
X11929Y27811D01*
X11932Y27808D01*
X11937Y27805D01*
X11943Y27802D01*
X11949Y27800D01*
X11950Y27799D01*
X11952Y27799D01*
X11955Y27797D01*
X11957Y27797D01*
X11960Y27796D01*
X11964Y27795D01*
X11967Y27794D01*
X11972Y27793D01*
X11977Y27791D01*
X11982Y27790D01*
X11988Y27788D01*
X11995Y27786D01*
X12003Y27785D01*
X12003D01*
X12005Y27784D01*
X12007Y27784D01*
X12009Y27783D01*
X12013Y27782D01*
X12017Y27781D01*
X12026Y27779D01*
X12035Y27775D01*
X12045Y27772D01*
X12054Y27769D01*
X12058Y27768D01*
X12061Y27766D01*
X12062D01*
X12062Y27765D01*
X12065Y27764D01*
X12069Y27761D01*
X12073Y27758D01*
X12078Y27754D01*
X12084Y27749D01*
X12089Y27744D01*
X12093Y27737D01*
X12094Y27737D01*
X12095Y27734D01*
X12097Y27731D01*
X12099Y27727D01*
X12100Y27721D01*
X12102Y27714D01*
X12103Y27707D01*
X12104Y27700D01*
Y27699D01*
Y27699D01*
Y27698D01*
Y27696D01*
X12103Y27692D01*
X12102Y27686D01*
X12101Y27679D01*
X12099Y27672D01*
X12095Y27664D01*
X12091Y27657D01*
Y27657D01*
X12091Y27656D01*
X12088Y27654D01*
X12085Y27650D01*
X12082Y27646D01*
X12076Y27641D01*
X12070Y27636D01*
X12062Y27631D01*
X12053Y27626D01*
X12053D01*
X12052Y27626D01*
X12050Y27626D01*
X12049Y27625D01*
X12047Y27624D01*
X12043Y27623D01*
X12037Y27621D01*
X12029Y27619D01*
X12019Y27618D01*
X12009Y27616D01*
X11998Y27616D01*
X11992D01*
X11989Y27616D01*
X11986D01*
X11977Y27617D01*
X11968Y27619D01*
X11959Y27621D01*
X11948Y27623D01*
X11939Y27627D01*
X11938D01*
X11937Y27627D01*
X11936Y27628D01*
X11934Y27629D01*
X11930Y27631D01*
X11924Y27635D01*
X11918Y27640D01*
X11911Y27645D01*
X11905Y27652D01*
X11899Y27659D01*
Y27660D01*
X11899Y27660D01*
X11898Y27661D01*
X11897Y27663D01*
X11895Y27667D01*
X11892Y27673D01*
X11889Y27680D01*
X11887Y27688D01*
X11885Y27697D01*
X11884Y27706D01*
X11922Y27709D01*
Y27709D01*
Y27708D01*
X11923Y27707D01*
X11923Y27705D01*
X11925Y27700D01*
X11926Y27693D01*
X11929Y27686D01*
X11933Y27679D01*
X11938Y27673D01*
X11944Y27667D01*
X11945Y27666D01*
X11947Y27664D01*
X11951Y27662D01*
X11957Y27659D01*
X11964Y27657D01*
X11973Y27654D01*
X11984Y27652D01*
X11996Y27652D01*
X12002D01*
X12005Y27652D01*
X12009Y27653D01*
X12016Y27654D01*
X12025Y27655D01*
X12034Y27657D01*
X12042Y27661D01*
X12046Y27663D01*
X12049Y27665D01*
X12050Y27666D01*
X12052Y27668D01*
X12054Y27671D01*
X12057Y27674D01*
X12060Y27679D01*
X12063Y27684D01*
X12064Y27690D01*
X12065Y27697D01*
Y27698D01*
Y27700D01*
X12065Y27703D01*
X12064Y27706D01*
X12063Y27711D01*
X12061Y27715D01*
X12058Y27720D01*
X12054Y27724D01*
X12054Y27724D01*
X12051Y27726D01*
X12050Y27727D01*
X12048Y27728D01*
X12045Y27729D01*
X12042Y27731D01*
X12038Y27732D01*
X12034Y27734D01*
X12029Y27736D01*
X12023Y27738D01*
X12017Y27740D01*
X12010Y27742D01*
X12002Y27744D01*
X11994Y27746D01*
X11993D01*
X11991Y27746D01*
X11989Y27747D01*
X11986Y27748D01*
X11982Y27748D01*
X11977Y27750D01*
X11972Y27751D01*
X11967Y27752D01*
X11956Y27755D01*
X11945Y27758D01*
X11939Y27760D01*
X11935Y27762D01*
X11930Y27763D01*
X11927Y27765D01*
X11926D01*
X11925Y27765D01*
X11924Y27766D01*
X11922Y27767D01*
X11918Y27770D01*
X11912Y27773D01*
X11905Y27778D01*
X11899Y27783D01*
X11893Y27789D01*
X11887Y27796D01*
X11887Y27797D01*
X11885Y27799D01*
X11884Y27803D01*
X11881Y27808D01*
X11879Y27814D01*
X11877Y27822D01*
X11875Y27830D01*
X11875Y27839D01*
Y27839D01*
Y27840D01*
Y27841D01*
Y27843D01*
X11876Y27848D01*
X11877Y27854D01*
X11878Y27861D01*
X11880Y27868D01*
X11884Y27876D01*
X11889Y27884D01*
Y27885D01*
X11889Y27885D01*
X11891Y27888D01*
X11894Y27892D01*
X11899Y27896D01*
X11905Y27901D01*
X11911Y27907D01*
X11919Y27912D01*
X11929Y27917D01*
X11929D01*
X11930Y27917D01*
X11931Y27918D01*
X11933Y27919D01*
X11936Y27920D01*
X11939Y27921D01*
X11946Y27923D01*
X11954Y27925D01*
X11964Y27927D01*
X11975Y27928D01*
X11987Y27929D01*
X11994D01*
X11997Y27928D01*
D02*
G37*
G36*
X11010D02*
X11014D01*
X11018Y27928D01*
X11024Y27928D01*
X11034Y27926D01*
X11046Y27924D01*
X11057Y27921D01*
X11068Y27917D01*
X11069D01*
X11069Y27917D01*
X11071Y27916D01*
X11072Y27915D01*
X11078Y27912D01*
X11084Y27908D01*
X11091Y27903D01*
X11098Y27897D01*
X11105Y27890D01*
X11112Y27881D01*
Y27881D01*
X11113Y27880D01*
X11113Y27879D01*
X11114Y27877D01*
X11115Y27875D01*
X11117Y27872D01*
X11120Y27866D01*
X11123Y27857D01*
X11125Y27848D01*
X11127Y27838D01*
X11128Y27827D01*
X11090Y27823D01*
Y27824D01*
Y27824D01*
X11090Y27825D01*
Y27827D01*
X11089Y27831D01*
X11088Y27837D01*
X11086Y27842D01*
X11084Y27849D01*
X11081Y27855D01*
X11078Y27861D01*
X11078Y27861D01*
X11076Y27863D01*
X11074Y27866D01*
X11071Y27869D01*
X11066Y27873D01*
X11062Y27877D01*
X11055Y27881D01*
X11048Y27884D01*
X11048D01*
X11047Y27885D01*
X11046Y27885D01*
X11044Y27886D01*
X11040Y27887D01*
X11034Y27889D01*
X11027Y27890D01*
X11020Y27892D01*
X11011Y27893D01*
X11001Y27893D01*
X10997D01*
X10993Y27893D01*
X10988Y27892D01*
X10982Y27891D01*
X10975Y27890D01*
X10968Y27889D01*
X10961Y27886D01*
X10960Y27886D01*
X10958Y27885D01*
X10955Y27883D01*
X10951Y27882D01*
X10947Y27879D01*
X10943Y27876D01*
X10938Y27872D01*
X10935Y27868D01*
X10934Y27867D01*
X10934Y27866D01*
X10932Y27863D01*
X10930Y27860D01*
X10929Y27856D01*
X10927Y27852D01*
X10927Y27847D01*
X10926Y27842D01*
Y27841D01*
Y27839D01*
X10927Y27837D01*
X10927Y27833D01*
X10928Y27830D01*
X10930Y27825D01*
X10932Y27821D01*
X10935Y27817D01*
X10935Y27817D01*
X10937Y27815D01*
X10938Y27813D01*
X10941Y27811D01*
X10945Y27808D01*
X10950Y27805D01*
X10955Y27802D01*
X10962Y27800D01*
X10962Y27799D01*
X10965Y27799D01*
X10968Y27797D01*
X10970Y27797D01*
X10973Y27796D01*
X10976Y27795D01*
X10980Y27794D01*
X10985Y27793D01*
X10990Y27791D01*
X10995Y27790D01*
X11001Y27788D01*
X11008Y27786D01*
X11016Y27785D01*
X11016D01*
X11017Y27784D01*
X11020Y27784D01*
X11022Y27783D01*
X11026Y27782D01*
X11030Y27781D01*
X11038Y27779D01*
X11048Y27775D01*
X11058Y27772D01*
X11067Y27769D01*
X11071Y27768D01*
X11074Y27766D01*
X11075D01*
X11075Y27765D01*
X11078Y27764D01*
X11082Y27761D01*
X11086Y27758D01*
X11091Y27754D01*
X11097Y27749D01*
X11102Y27744D01*
X11106Y27737D01*
X11107Y27737D01*
X11108Y27734D01*
X11110Y27731D01*
X11111Y27727D01*
X11113Y27721D01*
X11115Y27714D01*
X11116Y27707D01*
X11117Y27700D01*
Y27699D01*
Y27699D01*
Y27698D01*
Y27696D01*
X11116Y27692D01*
X11115Y27686D01*
X11114Y27679D01*
X11111Y27672D01*
X11108Y27664D01*
X11104Y27657D01*
Y27657D01*
X11103Y27656D01*
X11101Y27654D01*
X11098Y27650D01*
X11094Y27646D01*
X11089Y27641D01*
X11083Y27636D01*
X11075Y27631D01*
X11066Y27626D01*
X11065D01*
X11065Y27626D01*
X11063Y27626D01*
X11062Y27625D01*
X11059Y27624D01*
X11056Y27623D01*
X11050Y27621D01*
X11041Y27619D01*
X11032Y27618D01*
X11022Y27616D01*
X11010Y27616D01*
X11005D01*
X11002Y27616D01*
X10999D01*
X10990Y27617D01*
X10981Y27619D01*
X10972Y27621D01*
X10961Y27623D01*
X10951Y27627D01*
X10951D01*
X10950Y27627D01*
X10949Y27628D01*
X10947Y27629D01*
X10943Y27631D01*
X10937Y27635D01*
X10930Y27640D01*
X10924Y27645D01*
X10918Y27652D01*
X10912Y27659D01*
Y27660D01*
X10912Y27660D01*
X10911Y27661D01*
X10910Y27663D01*
X10908Y27667D01*
X10905Y27673D01*
X10902Y27680D01*
X10900Y27688D01*
X10898Y27697D01*
X10897Y27706D01*
X10935Y27709D01*
Y27709D01*
Y27708D01*
X10936Y27707D01*
X10936Y27705D01*
X10937Y27700D01*
X10939Y27693D01*
X10942Y27686D01*
X10946Y27679D01*
X10951Y27673D01*
X10957Y27667D01*
X10958Y27666D01*
X10960Y27664D01*
X10964Y27662D01*
X10970Y27659D01*
X10977Y27657D01*
X10986Y27654D01*
X10997Y27652D01*
X11009Y27652D01*
X11015D01*
X11018Y27652D01*
X11021Y27653D01*
X11029Y27654D01*
X11038Y27655D01*
X11047Y27657D01*
X11055Y27661D01*
X11058Y27663D01*
X11062Y27665D01*
X11063Y27666D01*
X11065Y27668D01*
X11067Y27671D01*
X11070Y27674D01*
X11073Y27679D01*
X11076Y27684D01*
X11077Y27690D01*
X11078Y27697D01*
Y27698D01*
Y27700D01*
X11078Y27703D01*
X11077Y27706D01*
X11076Y27711D01*
X11073Y27715D01*
X11071Y27720D01*
X11067Y27724D01*
X11066Y27724D01*
X11064Y27726D01*
X11062Y27727D01*
X11061Y27728D01*
X11058Y27729D01*
X11055Y27731D01*
X11051Y27732D01*
X11047Y27734D01*
X11042Y27736D01*
X11036Y27738D01*
X11030Y27740D01*
X11023Y27742D01*
X11015Y27744D01*
X11006Y27746D01*
X11006D01*
X11004Y27746D01*
X11002Y27747D01*
X10999Y27748D01*
X10995Y27748D01*
X10990Y27750D01*
X10985Y27751D01*
X10980Y27752D01*
X10968Y27755D01*
X10958Y27758D01*
X10952Y27760D01*
X10947Y27762D01*
X10943Y27763D01*
X10940Y27765D01*
X10939D01*
X10938Y27765D01*
X10937Y27766D01*
X10935Y27767D01*
X10930Y27770D01*
X10925Y27773D01*
X10918Y27778D01*
X10912Y27783D01*
X10906Y27789D01*
X10900Y27796D01*
X10900Y27797D01*
X10898Y27799D01*
X10896Y27803D01*
X10894Y27808D01*
X10892Y27814D01*
X10889Y27822D01*
X10888Y27830D01*
X10888Y27839D01*
Y27839D01*
Y27840D01*
Y27841D01*
Y27843D01*
X10888Y27848D01*
X10889Y27854D01*
X10891Y27861D01*
X10893Y27868D01*
X10897Y27876D01*
X10902Y27884D01*
Y27885D01*
X10902Y27885D01*
X10904Y27888D01*
X10907Y27892D01*
X10912Y27896D01*
X10917Y27901D01*
X10924Y27907D01*
X10932Y27912D01*
X10941Y27917D01*
X10942D01*
X10943Y27917D01*
X10944Y27918D01*
X10946Y27919D01*
X10948Y27920D01*
X10951Y27921D01*
X10958Y27923D01*
X10967Y27925D01*
X10977Y27927D01*
X10988Y27928D01*
X10999Y27929D01*
X11006D01*
X11010Y27928D01*
D02*
G37*
G36*
X9953D02*
X9957D01*
X9961Y27928D01*
X9966Y27928D01*
X9977Y27926D01*
X9989Y27924D01*
X10000Y27921D01*
X10011Y27917D01*
X10011D01*
X10012Y27917D01*
X10014Y27916D01*
X10015Y27915D01*
X10021Y27912D01*
X10027Y27908D01*
X10034Y27903D01*
X10041Y27897D01*
X10048Y27890D01*
X10055Y27881D01*
Y27881D01*
X10056Y27880D01*
X10056Y27879D01*
X10057Y27877D01*
X10058Y27875D01*
X10059Y27872D01*
X10063Y27866D01*
X10066Y27857D01*
X10068Y27848D01*
X10070Y27838D01*
X10071Y27827D01*
X10033Y27823D01*
Y27824D01*
Y27824D01*
X10033Y27825D01*
Y27827D01*
X10032Y27831D01*
X10031Y27837D01*
X10029Y27842D01*
X10027Y27849D01*
X10024Y27855D01*
X10021Y27861D01*
X10021Y27861D01*
X10019Y27863D01*
X10017Y27866D01*
X10014Y27869D01*
X10009Y27873D01*
X10004Y27877D01*
X9998Y27881D01*
X9991Y27884D01*
X9990D01*
X9990Y27885D01*
X9989Y27885D01*
X9987Y27886D01*
X9983Y27887D01*
X9977Y27889D01*
X9970Y27890D01*
X9962Y27892D01*
X9954Y27893D01*
X9944Y27893D01*
X9940D01*
X9936Y27893D01*
X9931Y27892D01*
X9924Y27891D01*
X9917Y27890D01*
X9910Y27889D01*
X9904Y27886D01*
X9903Y27886D01*
X9901Y27885D01*
X9898Y27883D01*
X9894Y27882D01*
X9890Y27879D01*
X9886Y27876D01*
X9881Y27872D01*
X9878Y27868D01*
X9877Y27867D01*
X9876Y27866D01*
X9875Y27863D01*
X9873Y27860D01*
X9872Y27856D01*
X9870Y27852D01*
X9869Y27847D01*
X9869Y27842D01*
Y27841D01*
Y27839D01*
X9869Y27837D01*
X9870Y27833D01*
X9871Y27830D01*
X9872Y27825D01*
X9875Y27821D01*
X9878Y27817D01*
X9878Y27817D01*
X9879Y27815D01*
X9881Y27813D01*
X9884Y27811D01*
X9888Y27808D01*
X9893Y27805D01*
X9898Y27802D01*
X9905Y27800D01*
X9905Y27799D01*
X9907Y27799D01*
X9911Y27797D01*
X9913Y27797D01*
X9916Y27796D01*
X9919Y27795D01*
X9923Y27794D01*
X9928Y27793D01*
X9933Y27791D01*
X9938Y27790D01*
X9944Y27788D01*
X9951Y27786D01*
X9959Y27785D01*
X9959D01*
X9960Y27784D01*
X9962Y27784D01*
X9965Y27783D01*
X9969Y27782D01*
X9973Y27781D01*
X9981Y27779D01*
X9991Y27775D01*
X10001Y27772D01*
X10010Y27769D01*
X10014Y27768D01*
X10017Y27766D01*
X10018D01*
X10018Y27765D01*
X10021Y27764D01*
X10025Y27761D01*
X10029Y27758D01*
X10034Y27754D01*
X10039Y27749D01*
X10045Y27744D01*
X10049Y27737D01*
X10049Y27737D01*
X10051Y27734D01*
X10053Y27731D01*
X10054Y27727D01*
X10056Y27721D01*
X10058Y27714D01*
X10059Y27707D01*
X10059Y27700D01*
Y27699D01*
Y27699D01*
Y27698D01*
Y27696D01*
X10059Y27692D01*
X10058Y27686D01*
X10056Y27679D01*
X10054Y27672D01*
X10051Y27664D01*
X10047Y27657D01*
Y27657D01*
X10046Y27656D01*
X10044Y27654D01*
X10041Y27650D01*
X10037Y27646D01*
X10032Y27641D01*
X10025Y27636D01*
X10018Y27631D01*
X10009Y27626D01*
X10008D01*
X10007Y27626D01*
X10006Y27626D01*
X10004Y27625D01*
X10002Y27624D01*
X9999Y27623D01*
X9993Y27621D01*
X9984Y27619D01*
X9975Y27618D01*
X9965Y27616D01*
X9953Y27616D01*
X9948D01*
X9945Y27616D01*
X9942D01*
X9933Y27617D01*
X9924Y27619D01*
X9914Y27621D01*
X9904Y27623D01*
X9894Y27627D01*
X9894D01*
X9893Y27627D01*
X9892Y27628D01*
X9890Y27629D01*
X9886Y27631D01*
X9880Y27635D01*
X9873Y27640D01*
X9867Y27645D01*
X9861Y27652D01*
X9855Y27659D01*
Y27660D01*
X9855Y27660D01*
X9854Y27661D01*
X9853Y27663D01*
X9851Y27667D01*
X9848Y27673D01*
X9845Y27680D01*
X9843Y27688D01*
X9841Y27697D01*
X9840Y27706D01*
X9878Y27709D01*
Y27709D01*
Y27708D01*
X9879Y27707D01*
X9879Y27705D01*
X9880Y27700D01*
X9882Y27693D01*
X9885Y27686D01*
X9889Y27679D01*
X9893Y27673D01*
X9900Y27667D01*
X9900Y27666D01*
X9903Y27664D01*
X9907Y27662D01*
X9913Y27659D01*
X9920Y27657D01*
X9929Y27654D01*
X9940Y27652D01*
X9952Y27652D01*
X9958D01*
X9961Y27652D01*
X9964Y27653D01*
X9972Y27654D01*
X9981Y27655D01*
X9990Y27657D01*
X9998Y27661D01*
X10001Y27663D01*
X10005Y27665D01*
X10006Y27666D01*
X10007Y27668D01*
X10010Y27671D01*
X10013Y27674D01*
X10016Y27679D01*
X10018Y27684D01*
X10020Y27690D01*
X10021Y27697D01*
Y27698D01*
Y27700D01*
X10021Y27703D01*
X10020Y27706D01*
X10018Y27711D01*
X10016Y27715D01*
X10014Y27720D01*
X10010Y27724D01*
X10009Y27724D01*
X10007Y27726D01*
X10005Y27727D01*
X10004Y27728D01*
X10001Y27729D01*
X9998Y27731D01*
X9994Y27732D01*
X9990Y27734D01*
X9985Y27736D01*
X9979Y27738D01*
X9973Y27740D01*
X9966Y27742D01*
X9958Y27744D01*
X9949Y27746D01*
X9949D01*
X9947Y27746D01*
X9945Y27747D01*
X9942Y27748D01*
X9938Y27748D01*
X9933Y27750D01*
X9928Y27751D01*
X9923Y27752D01*
X9911Y27755D01*
X9900Y27758D01*
X9895Y27760D01*
X9890Y27762D01*
X9886Y27763D01*
X9883Y27765D01*
X9882D01*
X9881Y27765D01*
X9880Y27766D01*
X9878Y27767D01*
X9873Y27770D01*
X9868Y27773D01*
X9861Y27778D01*
X9855Y27783D01*
X9848Y27789D01*
X9843Y27796D01*
X9843Y27797D01*
X9841Y27799D01*
X9839Y27803D01*
X9837Y27808D01*
X9834Y27814D01*
X9832Y27822D01*
X9831Y27830D01*
X9831Y27839D01*
Y27839D01*
Y27840D01*
Y27841D01*
Y27843D01*
X9831Y27848D01*
X9832Y27854D01*
X9834Y27861D01*
X9836Y27868D01*
X9840Y27876D01*
X9844Y27884D01*
Y27885D01*
X9845Y27885D01*
X9847Y27888D01*
X9850Y27892D01*
X9855Y27896D01*
X9860Y27901D01*
X9867Y27907D01*
X9875Y27912D01*
X9884Y27917D01*
X9885D01*
X9886Y27917D01*
X9887Y27918D01*
X9889Y27919D01*
X9891Y27920D01*
X9894Y27921D01*
X9901Y27923D01*
X9910Y27925D01*
X9920Y27927D01*
X9931Y27928D01*
X9942Y27929D01*
X9949D01*
X9953Y27928D01*
D02*
G37*
G36*
X7674D02*
X7678D01*
X7683Y27928D01*
X7688Y27928D01*
X7699Y27926D01*
X7710Y27924D01*
X7722Y27921D01*
X7732Y27917D01*
X7733D01*
X7734Y27917D01*
X7735Y27916D01*
X7737Y27915D01*
X7742Y27912D01*
X7748Y27908D01*
X7755Y27903D01*
X7763Y27897D01*
X7770Y27890D01*
X7776Y27881D01*
Y27881D01*
X7777Y27880D01*
X7777Y27879D01*
X7779Y27877D01*
X7780Y27875D01*
X7781Y27872D01*
X7784Y27866D01*
X7787Y27857D01*
X7790Y27848D01*
X7791Y27838D01*
X7792Y27827D01*
X7755Y27823D01*
Y27824D01*
Y27824D01*
X7754Y27825D01*
Y27827D01*
X7753Y27831D01*
X7752Y27837D01*
X7750Y27842D01*
X7749Y27849D01*
X7746Y27855D01*
X7743Y27861D01*
X7742Y27861D01*
X7741Y27863D01*
X7739Y27866D01*
X7735Y27869D01*
X7731Y27873D01*
X7726Y27877D01*
X7719Y27881D01*
X7712Y27884D01*
X7712D01*
X7711Y27885D01*
X7710Y27885D01*
X7709Y27886D01*
X7705Y27887D01*
X7699Y27889D01*
X7692Y27890D01*
X7684Y27892D01*
X7675Y27893D01*
X7666Y27893D01*
X7662D01*
X7657Y27893D01*
X7652Y27892D01*
X7646Y27891D01*
X7639Y27890D01*
X7632Y27889D01*
X7625Y27886D01*
X7625Y27886D01*
X7622Y27885D01*
X7619Y27883D01*
X7615Y27882D01*
X7611Y27879D01*
X7607Y27876D01*
X7603Y27872D01*
X7599Y27868D01*
X7599Y27867D01*
X7598Y27866D01*
X7597Y27863D01*
X7595Y27860D01*
X7593Y27856D01*
X7592Y27852D01*
X7591Y27847D01*
X7590Y27842D01*
Y27841D01*
Y27839D01*
X7591Y27837D01*
X7591Y27833D01*
X7593Y27830D01*
X7594Y27825D01*
X7596Y27821D01*
X7599Y27817D01*
X7600Y27817D01*
X7601Y27815D01*
X7603Y27813D01*
X7606Y27811D01*
X7609Y27808D01*
X7614Y27805D01*
X7620Y27802D01*
X7626Y27800D01*
X7627Y27799D01*
X7629Y27799D01*
X7632Y27797D01*
X7635Y27797D01*
X7638Y27796D01*
X7641Y27795D01*
X7645Y27794D01*
X7649Y27793D01*
X7654Y27791D01*
X7659Y27790D01*
X7666Y27788D01*
X7673Y27786D01*
X7680Y27785D01*
X7680D01*
X7682Y27784D01*
X7684Y27784D01*
X7687Y27783D01*
X7690Y27782D01*
X7694Y27781D01*
X7703Y27779D01*
X7712Y27775D01*
X7722Y27772D01*
X7731Y27769D01*
X7735Y27768D01*
X7739Y27766D01*
X7739D01*
X7739Y27765D01*
X7742Y27764D01*
X7746Y27761D01*
X7750Y27758D01*
X7756Y27754D01*
X7761Y27749D01*
X7766Y27744D01*
X7770Y27737D01*
X7771Y27737D01*
X7772Y27734D01*
X7774Y27731D01*
X7776Y27727D01*
X7777Y27721D01*
X7779Y27714D01*
X7781Y27707D01*
X7781Y27700D01*
Y27699D01*
Y27699D01*
Y27698D01*
Y27696D01*
X7780Y27692D01*
X7779Y27686D01*
X7778Y27679D01*
X7776Y27672D01*
X7773Y27664D01*
X7768Y27657D01*
Y27657D01*
X7768Y27656D01*
X7766Y27654D01*
X7763Y27650D01*
X7759Y27646D01*
X7753Y27641D01*
X7747Y27636D01*
X7739Y27631D01*
X7730Y27626D01*
X7730D01*
X7729Y27626D01*
X7728Y27626D01*
X7726Y27625D01*
X7724Y27624D01*
X7721Y27623D01*
X7714Y27621D01*
X7706Y27619D01*
X7696Y27618D01*
X7686Y27616D01*
X7675Y27616D01*
X7669D01*
X7666Y27616D01*
X7663D01*
X7655Y27617D01*
X7646Y27619D01*
X7636Y27621D01*
X7625Y27623D01*
X7616Y27627D01*
X7615D01*
X7614Y27627D01*
X7613Y27628D01*
X7611Y27629D01*
X7607Y27631D01*
X7601Y27635D01*
X7595Y27640D01*
X7588Y27645D01*
X7582Y27652D01*
X7576Y27659D01*
Y27660D01*
X7576Y27660D01*
X7575Y27661D01*
X7574Y27663D01*
X7572Y27667D01*
X7569Y27673D01*
X7566Y27680D01*
X7564Y27688D01*
X7562Y27697D01*
X7561Y27706D01*
X7600Y27709D01*
Y27709D01*
Y27708D01*
X7600Y27707D01*
X7600Y27705D01*
X7602Y27700D01*
X7604Y27693D01*
X7606Y27686D01*
X7610Y27679D01*
X7615Y27673D01*
X7621Y27667D01*
X7622Y27666D01*
X7624Y27664D01*
X7628Y27662D01*
X7634Y27659D01*
X7642Y27657D01*
X7650Y27654D01*
X7661Y27652D01*
X7673Y27652D01*
X7680D01*
X7682Y27652D01*
X7686Y27653D01*
X7694Y27654D01*
X7702Y27655D01*
X7711Y27657D01*
X7719Y27661D01*
X7723Y27663D01*
X7726Y27665D01*
X7727Y27666D01*
X7729Y27668D01*
X7732Y27671D01*
X7734Y27674D01*
X7737Y27679D01*
X7740Y27684D01*
X7742Y27690D01*
X7743Y27697D01*
Y27698D01*
Y27700D01*
X7742Y27703D01*
X7741Y27706D01*
X7740Y27711D01*
X7738Y27715D01*
X7735Y27720D01*
X7731Y27724D01*
X7731Y27724D01*
X7729Y27726D01*
X7727Y27727D01*
X7725Y27728D01*
X7722Y27729D01*
X7719Y27731D01*
X7715Y27732D01*
X7711Y27734D01*
X7706Y27736D01*
X7701Y27738D01*
X7694Y27740D01*
X7687Y27742D01*
X7680Y27744D01*
X7671Y27746D01*
X7670D01*
X7669Y27746D01*
X7666Y27747D01*
X7663Y27748D01*
X7659Y27748D01*
X7654Y27750D01*
X7649Y27751D01*
X7644Y27752D01*
X7633Y27755D01*
X7622Y27758D01*
X7617Y27760D01*
X7612Y27762D01*
X7607Y27763D01*
X7604Y27765D01*
X7604D01*
X7603Y27765D01*
X7601Y27766D01*
X7600Y27767D01*
X7595Y27770D01*
X7589Y27773D01*
X7583Y27778D01*
X7576Y27783D01*
X7570Y27789D01*
X7565Y27796D01*
X7564Y27797D01*
X7562Y27799D01*
X7561Y27803D01*
X7558Y27808D01*
X7556Y27814D01*
X7554Y27822D01*
X7552Y27830D01*
X7552Y27839D01*
Y27839D01*
Y27840D01*
Y27841D01*
Y27843D01*
X7553Y27848D01*
X7554Y27854D01*
X7555Y27861D01*
X7558Y27868D01*
X7561Y27876D01*
X7566Y27884D01*
Y27885D01*
X7566Y27885D01*
X7569Y27888D01*
X7572Y27892D01*
X7576Y27896D01*
X7582Y27901D01*
X7589Y27907D01*
X7597Y27912D01*
X7606Y27917D01*
X7606D01*
X7607Y27917D01*
X7608Y27918D01*
X7610Y27919D01*
X7613Y27920D01*
X7616Y27921D01*
X7623Y27923D01*
X7631Y27925D01*
X7641Y27927D01*
X7652Y27928D01*
X7664Y27929D01*
X7671D01*
X7674Y27928D01*
D02*
G37*
G36*
X9165Y27621D02*
X9024D01*
X9021Y27622D01*
X9017D01*
X9008Y27622D01*
X8998Y27623D01*
X8988Y27625D01*
X8978Y27627D01*
X8973Y27628D01*
X8969Y27630D01*
X8969D01*
X8968Y27630D01*
X8966Y27631D01*
X8962Y27633D01*
X8957Y27636D01*
X8952Y27640D01*
X8946Y27645D01*
X8941Y27651D01*
X8936Y27658D01*
Y27659D01*
X8935Y27659D01*
X8933Y27662D01*
X8932Y27666D01*
X8929Y27672D01*
X8927Y27678D01*
X8925Y27686D01*
X8923Y27695D01*
X8923Y27704D01*
Y27704D01*
Y27705D01*
Y27707D01*
X8923Y27709D01*
Y27712D01*
X8924Y27715D01*
X8925Y27723D01*
X8928Y27731D01*
X8932Y27741D01*
X8937Y27750D01*
X8940Y27754D01*
X8944Y27758D01*
X8944Y27759D01*
X8945Y27759D01*
X8946Y27761D01*
X8948Y27762D01*
X8950Y27764D01*
X8953Y27765D01*
X8956Y27768D01*
X8960Y27770D01*
X8964Y27772D01*
X8969Y27775D01*
X8974Y27777D01*
X8980Y27779D01*
X8986Y27781D01*
X8993Y27783D01*
X9000Y27785D01*
X9008Y27786D01*
X9007Y27786D01*
X9005Y27787D01*
X9003Y27789D01*
X8999Y27791D01*
X8991Y27796D01*
X8988Y27799D01*
X8984Y27801D01*
X8983Y27802D01*
X8981Y27804D01*
X8977Y27808D01*
X8973Y27812D01*
X8968Y27818D01*
X8963Y27825D01*
X8957Y27833D01*
X8951Y27841D01*
X8899Y27924D01*
X8949D01*
X8988Y27861D01*
Y27860D01*
X8989Y27859D01*
X8990Y27858D01*
X8991Y27856D01*
X8995Y27852D01*
X8998Y27845D01*
X9003Y27839D01*
X9008Y27832D01*
X9013Y27825D01*
X9017Y27819D01*
X9018Y27819D01*
X9019Y27817D01*
X9021Y27814D01*
X9024Y27811D01*
X9031Y27805D01*
X9034Y27802D01*
X9038Y27799D01*
X9038Y27799D01*
X9039Y27798D01*
X9041Y27797D01*
X9043Y27796D01*
X9046Y27795D01*
X9049Y27793D01*
X9056Y27791D01*
X9057D01*
X9057Y27791D01*
X9059D01*
X9061Y27790D01*
X9064Y27790D01*
X9068D01*
X9073Y27789D01*
X9124D01*
Y27924D01*
X9165D01*
Y27621D01*
D02*
G37*
G36*
X10831D02*
X10791D01*
Y27745D01*
X10635D01*
Y27621D01*
X10594D01*
Y27924D01*
X10635D01*
Y27781D01*
X10791D01*
Y27924D01*
X10831D01*
Y27621D01*
D02*
G37*
G36*
X9777D02*
X9717D01*
X9645Y27836D01*
Y27836D01*
X9645Y27837D01*
X9644Y27838D01*
X9643Y27841D01*
X9642Y27846D01*
X9640Y27852D01*
X9637Y27860D01*
X9635Y27867D01*
X9633Y27874D01*
X9631Y27880D01*
X9630Y27879D01*
X9630Y27877D01*
X9629Y27873D01*
X9627Y27868D01*
X9625Y27861D01*
X9622Y27853D01*
X9619Y27843D01*
X9615Y27832D01*
X9542Y27621D01*
X9488D01*
Y27924D01*
X9527D01*
Y27671D01*
X9615Y27924D01*
X9651D01*
X9738Y27666D01*
Y27924D01*
X9777D01*
Y27621D01*
D02*
G37*
G36*
X11736Y27928D02*
X11740D01*
X11744Y27928D01*
X11748Y27927D01*
X11753Y27926D01*
X11759Y27924D01*
X11765Y27923D01*
X11771Y27921D01*
X11777Y27918D01*
X11783Y27914D01*
X11790Y27911D01*
X11796Y27906D01*
X11802Y27901D01*
X11808Y27895D01*
X11808Y27894D01*
X11809Y27893D01*
X11810Y27891D01*
X11812Y27888D01*
X11814Y27884D01*
X11817Y27880D01*
X11819Y27874D01*
X11822Y27868D01*
X11825Y27861D01*
X11828Y27852D01*
X11830Y27843D01*
X11832Y27833D01*
X11834Y27822D01*
X11835Y27810D01*
X11836Y27796D01*
X11837Y27782D01*
Y27782D01*
Y27782D01*
Y27780D01*
Y27779D01*
X11836Y27774D01*
Y27768D01*
X11836Y27761D01*
X11835Y27753D01*
X11834Y27744D01*
X11833Y27734D01*
X11831Y27723D01*
X11829Y27713D01*
X11826Y27702D01*
X11823Y27692D01*
X11819Y27682D01*
X11815Y27672D01*
X11810Y27663D01*
X11804Y27655D01*
X11804Y27654D01*
X11803Y27654D01*
X11801Y27652D01*
X11799Y27649D01*
X11797Y27647D01*
X11793Y27644D01*
X11789Y27640D01*
X11784Y27637D01*
X11779Y27634D01*
X11773Y27631D01*
X11767Y27628D01*
X11760Y27625D01*
X11753Y27623D01*
X11745Y27621D01*
X11737Y27620D01*
X11728Y27620D01*
X11724D01*
X11722Y27620D01*
X11719D01*
X11715Y27621D01*
X11707Y27623D01*
X11698Y27625D01*
X11688Y27628D01*
X11679Y27633D01*
X11674Y27637D01*
X11669Y27640D01*
X11669Y27640D01*
X11669Y27641D01*
X11667Y27642D01*
X11666Y27644D01*
X11664Y27646D01*
X11662Y27648D01*
X11657Y27654D01*
X11652Y27662D01*
X11648Y27672D01*
X11644Y27683D01*
X11641Y27695D01*
X11679Y27698D01*
Y27698D01*
X11679Y27697D01*
X11679Y27695D01*
X11681Y27691D01*
X11683Y27686D01*
X11684Y27681D01*
X11687Y27675D01*
X11690Y27671D01*
X11693Y27667D01*
X11694Y27666D01*
X11696Y27664D01*
X11699Y27661D01*
X11703Y27658D01*
X11709Y27656D01*
X11715Y27653D01*
X11722Y27651D01*
X11730Y27650D01*
X11733D01*
X11737Y27651D01*
X11741Y27652D01*
X11746Y27653D01*
X11751Y27655D01*
X11756Y27657D01*
X11762Y27661D01*
X11762Y27661D01*
X11765Y27663D01*
X11768Y27666D01*
X11772Y27670D01*
X11776Y27675D01*
X11781Y27682D01*
X11785Y27689D01*
X11790Y27698D01*
Y27699D01*
X11790Y27699D01*
X11790Y27701D01*
X11791Y27703D01*
X11792Y27705D01*
X11793Y27708D01*
X11794Y27712D01*
X11794Y27716D01*
X11796Y27721D01*
X11797Y27726D01*
X11797Y27732D01*
X11798Y27738D01*
X11799Y27745D01*
X11799Y27752D01*
X11800Y27760D01*
Y27768D01*
X11799Y27767D01*
X11797Y27765D01*
X11794Y27761D01*
X11790Y27757D01*
X11786Y27751D01*
X11780Y27747D01*
X11774Y27742D01*
X11767Y27737D01*
X11767D01*
X11766Y27737D01*
X11764Y27736D01*
X11760Y27734D01*
X11755Y27732D01*
X11748Y27730D01*
X11742Y27729D01*
X11734Y27728D01*
X11726Y27727D01*
X11723D01*
X11720Y27728D01*
X11717Y27728D01*
X11713Y27729D01*
X11709Y27730D01*
X11704Y27731D01*
X11694Y27734D01*
X11689Y27736D01*
X11684Y27739D01*
X11679Y27742D01*
X11673Y27746D01*
X11668Y27750D01*
X11663Y27755D01*
X11662Y27755D01*
X11662Y27756D01*
X11660Y27758D01*
X11659Y27760D01*
X11657Y27763D01*
X11655Y27766D01*
X11652Y27770D01*
X11650Y27774D01*
X11647Y27779D01*
X11645Y27784D01*
X11643Y27790D01*
X11641Y27796D01*
X11639Y27803D01*
X11638Y27810D01*
X11637Y27818D01*
X11637Y27826D01*
Y27826D01*
Y27827D01*
Y27828D01*
Y27831D01*
X11637Y27833D01*
Y27836D01*
X11638Y27843D01*
X11640Y27851D01*
X11642Y27860D01*
X11645Y27869D01*
X11649Y27879D01*
Y27879D01*
X11650Y27879D01*
X11651Y27881D01*
X11651Y27883D01*
X11654Y27887D01*
X11658Y27893D01*
X11663Y27899D01*
X11669Y27905D01*
X11676Y27911D01*
X11683Y27916D01*
X11683D01*
X11684Y27917D01*
X11685Y27917D01*
X11687Y27918D01*
X11691Y27920D01*
X11697Y27922D01*
X11704Y27925D01*
X11713Y27927D01*
X11722Y27928D01*
X11732Y27929D01*
X11734D01*
X11736Y27928D01*
D02*
G37*
G36*
X12642Y27621D02*
X12518D01*
X12511Y27622D01*
X12504Y27622D01*
X12496Y27623D01*
X12488Y27623D01*
X12482Y27624D01*
X12481D01*
X12478Y27625D01*
X12474Y27626D01*
X12469Y27627D01*
X12463Y27630D01*
X12457Y27632D01*
X12450Y27635D01*
X12445Y27639D01*
X12444Y27639D01*
X12442Y27640D01*
X12439Y27643D01*
X12436Y27646D01*
X12432Y27650D01*
X12428Y27655D01*
X12424Y27661D01*
X12420Y27668D01*
X12420Y27668D01*
X12419Y27671D01*
X12417Y27675D01*
X12415Y27680D01*
X12414Y27686D01*
X12412Y27693D01*
X12411Y27701D01*
X12411Y27709D01*
Y27709D01*
Y27711D01*
Y27713D01*
X12411Y27716D01*
X12412Y27719D01*
X12412Y27723D01*
X12413Y27727D01*
X12414Y27732D01*
X12417Y27742D01*
X12419Y27747D01*
X12421Y27753D01*
X12425Y27758D01*
X12428Y27764D01*
X12432Y27769D01*
X12436Y27774D01*
X12436Y27775D01*
X12437Y27775D01*
X12439Y27777D01*
X12441Y27778D01*
X12443Y27780D01*
X12447Y27782D01*
X12451Y27785D01*
X12456Y27787D01*
X12462Y27790D01*
X12468Y27793D01*
X12475Y27795D01*
X12484Y27796D01*
X12492Y27798D01*
X12502Y27800D01*
X12513Y27800D01*
X12524Y27801D01*
X12602D01*
Y27924D01*
X12642D01*
Y27621D01*
D02*
G37*
G36*
X12283Y27657D02*
X12383D01*
Y27621D01*
X12143D01*
Y27657D01*
X12243D01*
Y27924D01*
X12283D01*
Y27657D01*
D02*
G37*
G36*
X11481Y27851D02*
X11613D01*
Y27817D01*
X11474Y27621D01*
X11444D01*
Y27817D01*
X11403D01*
Y27851D01*
X11444D01*
Y27924D01*
X11481D01*
Y27851D01*
D02*
G37*
G36*
X9346Y27657D02*
X9446D01*
Y27621D01*
X9206D01*
Y27657D01*
X9306D01*
Y27924D01*
X9346D01*
Y27657D01*
D02*
G37*
G36*
X8274Y27621D02*
X8234D01*
Y27888D01*
X8085D01*
Y27924D01*
X8274D01*
Y27621D01*
D02*
G37*
G36*
X8035D02*
X7831D01*
Y27657D01*
X7995D01*
Y27751D01*
X7853D01*
Y27786D01*
X7995D01*
Y27924D01*
X8035D01*
Y27621D01*
D02*
G37*
G36*
X10216Y27928D02*
X10220Y27928D01*
X10224Y27927D01*
X10229Y27926D01*
X10234Y27925D01*
X10240Y27923D01*
X10245Y27921D01*
X10251Y27919D01*
X10257Y27916D01*
X10262Y27912D01*
X10268Y27908D01*
X10273Y27903D01*
X10278Y27898D01*
X10278Y27897D01*
X10279Y27896D01*
X10281Y27894D01*
X10283Y27890D01*
X10285Y27886D01*
X10287Y27881D01*
X10290Y27875D01*
X10293Y27868D01*
X10295Y27860D01*
X10298Y27851D01*
X10301Y27841D01*
X10303Y27830D01*
X10305Y27817D01*
X10306Y27804D01*
X10307Y27790D01*
X10308Y27775D01*
Y27774D01*
Y27772D01*
Y27769D01*
Y27766D01*
X10307Y27761D01*
Y27756D01*
X10307Y27750D01*
X10306Y27744D01*
X10305Y27730D01*
X10303Y27716D01*
X10300Y27701D01*
X10299Y27695D01*
X10297Y27688D01*
Y27688D01*
X10296Y27687D01*
X10295Y27685D01*
X10295Y27683D01*
X10294Y27680D01*
X10292Y27677D01*
X10288Y27669D01*
X10284Y27661D01*
X10278Y27653D01*
X10272Y27645D01*
X10264Y27638D01*
X10264D01*
X10263Y27637D01*
X10262Y27636D01*
X10260Y27635D01*
X10258Y27633D01*
X10255Y27632D01*
X10249Y27629D01*
X10241Y27626D01*
X10232Y27623D01*
X10221Y27621D01*
X10209Y27620D01*
X10205D01*
X10200Y27620D01*
X10195Y27621D01*
X10188Y27623D01*
X10181Y27624D01*
X10174Y27626D01*
X10167Y27630D01*
X10166D01*
X10166Y27630D01*
X10164Y27632D01*
X10160Y27634D01*
X10156Y27637D01*
X10151Y27641D01*
X10146Y27646D01*
X10141Y27652D01*
X10136Y27658D01*
X10136Y27659D01*
X10134Y27661D01*
X10132Y27665D01*
X10129Y27671D01*
X10126Y27678D01*
X10123Y27685D01*
X10120Y27694D01*
X10117Y27703D01*
Y27704D01*
X10117Y27705D01*
X10116Y27706D01*
X10116Y27708D01*
X10115Y27711D01*
X10115Y27714D01*
X10114Y27718D01*
X10114Y27722D01*
X10113Y27727D01*
X10112Y27732D01*
X10112Y27738D01*
X10111Y27744D01*
X10111Y27751D01*
Y27758D01*
X10110Y27766D01*
Y27775D01*
Y27775D01*
Y27777D01*
Y27780D01*
Y27783D01*
X10111Y27788D01*
Y27793D01*
X10111Y27799D01*
X10112Y27805D01*
X10113Y27819D01*
X10115Y27834D01*
X10118Y27848D01*
X10119Y27854D01*
X10122Y27861D01*
Y27861D01*
X10122Y27862D01*
X10123Y27864D01*
X10124Y27866D01*
X10125Y27869D01*
X10126Y27872D01*
X10130Y27879D01*
X10134Y27887D01*
X10140Y27896D01*
X10146Y27904D01*
X10154Y27911D01*
X10155D01*
X10155Y27912D01*
X10157Y27913D01*
X10158Y27914D01*
X10160Y27915D01*
X10163Y27917D01*
X10169Y27920D01*
X10177Y27923D01*
X10186Y27926D01*
X10197Y27928D01*
X10209Y27929D01*
X10213D01*
X10216Y27928D01*
D02*
G37*
G36*
X8645Y27923D02*
Y27921D01*
Y27919D01*
X8645Y27915D01*
X8644Y27911D01*
X8644Y27907D01*
X8643Y27903D01*
X8641Y27898D01*
Y27897D01*
X8641Y27897D01*
X8640Y27894D01*
X8638Y27890D01*
X8635Y27885D01*
X8632Y27879D01*
X8627Y27872D01*
X8623Y27865D01*
X8617Y27858D01*
Y27857D01*
X8616Y27857D01*
X8613Y27854D01*
X8610Y27850D01*
X8604Y27845D01*
X8597Y27838D01*
X8589Y27830D01*
X8579Y27821D01*
X8568Y27812D01*
X8568Y27812D01*
X8566Y27810D01*
X8563Y27808D01*
X8560Y27806D01*
X8556Y27802D01*
X8551Y27798D01*
X8547Y27794D01*
X8541Y27789D01*
X8530Y27779D01*
X8519Y27768D01*
X8514Y27763D01*
X8509Y27758D01*
X8505Y27753D01*
X8501Y27748D01*
Y27748D01*
X8500Y27747D01*
X8499Y27746D01*
X8499Y27744D01*
X8495Y27739D01*
X8492Y27734D01*
X8489Y27727D01*
X8486Y27719D01*
X8484Y27711D01*
X8483Y27703D01*
Y27703D01*
Y27702D01*
X8484Y27699D01*
X8484Y27695D01*
X8485Y27690D01*
X8487Y27684D01*
X8490Y27678D01*
X8494Y27672D01*
X8499Y27666D01*
X8500Y27665D01*
X8502Y27663D01*
X8506Y27661D01*
X8510Y27658D01*
X8516Y27655D01*
X8523Y27653D01*
X8532Y27651D01*
X8541Y27650D01*
X8544D01*
X8545Y27651D01*
X8551Y27651D01*
X8557Y27653D01*
X8563Y27654D01*
X8571Y27657D01*
X8578Y27661D01*
X8584Y27667D01*
X8585Y27668D01*
X8587Y27670D01*
X8589Y27673D01*
X8592Y27678D01*
X8595Y27685D01*
X8598Y27692D01*
X8599Y27701D01*
X8600Y27711D01*
X8638Y27707D01*
Y27707D01*
X8638Y27706D01*
Y27703D01*
X8637Y27700D01*
X8637Y27697D01*
X8636Y27693D01*
X8634Y27688D01*
X8633Y27683D01*
X8630Y27673D01*
X8624Y27662D01*
X8621Y27657D01*
X8617Y27652D01*
X8613Y27647D01*
X8609Y27643D01*
X8609Y27642D01*
X8608Y27642D01*
X8606Y27640D01*
X8604Y27639D01*
X8602Y27637D01*
X8599Y27636D01*
X8595Y27633D01*
X8591Y27631D01*
X8586Y27629D01*
X8581Y27627D01*
X8575Y27625D01*
X8569Y27623D01*
X8562Y27622D01*
X8555Y27621D01*
X8548Y27620D01*
X8540Y27620D01*
X8536D01*
X8533Y27620D01*
X8529Y27621D01*
X8525Y27621D01*
X8520Y27622D01*
X8515Y27623D01*
X8504Y27626D01*
X8492Y27630D01*
X8487Y27633D01*
X8481Y27636D01*
X8476Y27640D01*
X8471Y27644D01*
X8471Y27645D01*
X8470Y27645D01*
X8469Y27647D01*
X8467Y27649D01*
X8465Y27651D01*
X8463Y27654D01*
X8461Y27657D01*
X8458Y27661D01*
X8454Y27669D01*
X8449Y27680D01*
X8447Y27685D01*
X8447Y27691D01*
X8446Y27697D01*
X8445Y27704D01*
Y27705D01*
Y27707D01*
X8446Y27710D01*
X8446Y27715D01*
X8447Y27720D01*
X8449Y27727D01*
X8450Y27733D01*
X8453Y27740D01*
X8454Y27741D01*
X8454Y27743D01*
X8456Y27746D01*
X8459Y27751D01*
X8462Y27756D01*
X8467Y27763D01*
X8472Y27769D01*
X8478Y27777D01*
X8479Y27778D01*
X8481Y27780D01*
X8483Y27782D01*
X8485Y27785D01*
X8488Y27787D01*
X8492Y27791D01*
X8495Y27794D01*
X8499Y27798D01*
X8504Y27803D01*
X8509Y27807D01*
X8515Y27812D01*
X8521Y27818D01*
X8528Y27824D01*
X8535Y27830D01*
X8535Y27830D01*
X8536Y27831D01*
X8538Y27832D01*
X8540Y27834D01*
X8543Y27837D01*
X8546Y27839D01*
X8553Y27845D01*
X8560Y27852D01*
X8567Y27858D01*
X8573Y27864D01*
X8576Y27866D01*
X8578Y27868D01*
X8579Y27869D01*
X8580Y27870D01*
X8582Y27872D01*
X8584Y27874D01*
X8586Y27877D01*
X8589Y27880D01*
X8594Y27888D01*
X8445D01*
Y27924D01*
X8645D01*
Y27923D01*
D02*
G37*
%LPC*%
G36*
X12602Y25905D02*
X12512D01*
X12506Y25904D01*
X12500Y25904D01*
X12493Y25903D01*
X12486Y25902D01*
X12479Y25901D01*
X12473Y25899D01*
X12472Y25899D01*
X12470Y25898D01*
X12468Y25897D01*
X12464Y25895D01*
X12460Y25892D01*
X12456Y25889D01*
X12453Y25885D01*
X12449Y25881D01*
X12449Y25881D01*
X12448Y25879D01*
X12447Y25876D01*
X12445Y25873D01*
X12444Y25869D01*
X12442Y25864D01*
X12442Y25859D01*
X12441Y25854D01*
Y25853D01*
Y25853D01*
X12442Y25850D01*
X12442Y25846D01*
X12443Y25841D01*
X12445Y25836D01*
X12448Y25830D01*
X12452Y25824D01*
X12457Y25818D01*
X12458Y25818D01*
X12460Y25816D01*
X12463Y25814D01*
X12469Y25811D01*
X12476Y25809D01*
X12484Y25807D01*
X12494Y25805D01*
X12506Y25804D01*
X12602D01*
Y25905D01*
D02*
G37*
G36*
X8777Y27788D02*
X8774D01*
X8773Y27788D01*
X8768Y27787D01*
X8762Y27786D01*
X8755Y27784D01*
X8748Y27781D01*
X8741Y27776D01*
X8735Y27770D01*
X8734Y27769D01*
X8732Y27767D01*
X8729Y27763D01*
X8726Y27757D01*
X8723Y27750D01*
X8720Y27742D01*
X8718Y27732D01*
X8717Y27720D01*
Y27720D01*
Y27719D01*
Y27717D01*
X8718Y27715D01*
Y27712D01*
X8718Y27709D01*
X8720Y27702D01*
X8721Y27694D01*
X8724Y27685D01*
X8729Y27677D01*
X8735Y27669D01*
Y27669D01*
X8735Y27668D01*
X8738Y27666D01*
X8741Y27663D01*
X8746Y27660D01*
X8752Y27657D01*
X8759Y27654D01*
X8767Y27651D01*
X8771Y27650D01*
X8778D01*
X8780Y27651D01*
X8785Y27651D01*
X8790Y27653D01*
X8797Y27655D01*
X8805Y27659D01*
X8812Y27664D01*
X8816Y27668D01*
X8819Y27671D01*
Y27671D01*
X8820Y27672D01*
X8821Y27673D01*
X8822Y27675D01*
X8825Y27679D01*
X8828Y27685D01*
X8832Y27692D01*
X8835Y27702D01*
X8836Y27712D01*
X8837Y27723D01*
Y27724D01*
Y27725D01*
Y27726D01*
X8837Y27728D01*
Y27731D01*
X8836Y27734D01*
X8835Y27740D01*
X8833Y27748D01*
X8830Y27755D01*
X8826Y27763D01*
X8820Y27770D01*
X8819Y27771D01*
X8817Y27773D01*
X8813Y27776D01*
X8808Y27779D01*
X8802Y27782D01*
X8794Y27786D01*
X8786Y27787D01*
X8777Y27788D01*
D02*
G37*
G36*
X9124Y27755D02*
X9034D01*
X9029Y27754D01*
X9023Y27754D01*
X9016Y27754D01*
X9009Y27753D01*
X9002Y27751D01*
X8996Y27750D01*
X8995Y27749D01*
X8993Y27748D01*
X8991Y27747D01*
X8987Y27745D01*
X8983Y27743D01*
X8979Y27740D01*
X8975Y27736D01*
X8972Y27731D01*
X8972Y27731D01*
X8971Y27729D01*
X8970Y27727D01*
X8968Y27723D01*
X8967Y27719D01*
X8965Y27715D01*
X8964Y27709D01*
X8964Y27704D01*
Y27704D01*
Y27703D01*
X8964Y27701D01*
X8965Y27697D01*
X8966Y27692D01*
X8968Y27686D01*
X8970Y27680D01*
X8974Y27675D01*
X8980Y27669D01*
X8981Y27668D01*
X8983Y27667D01*
X8986Y27664D01*
X8992Y27662D01*
X8998Y27659D01*
X9007Y27657D01*
X9017Y27655D01*
X9029Y27655D01*
X9124D01*
Y27755D01*
D02*
G37*
G36*
X11732Y27898D02*
X11730D01*
X11728Y27898D01*
X11724Y27897D01*
X11718Y27896D01*
X11712Y27893D01*
X11705Y27890D01*
X11698Y27886D01*
X11695Y27883D01*
X11692Y27879D01*
Y27879D01*
X11691Y27879D01*
X11689Y27876D01*
X11686Y27872D01*
X11683Y27866D01*
X11680Y27859D01*
X11677Y27850D01*
X11676Y27840D01*
X11675Y27828D01*
Y27827D01*
Y27827D01*
Y27825D01*
X11675Y27823D01*
Y27820D01*
X11676Y27817D01*
X11677Y27810D01*
X11679Y27802D01*
X11682Y27794D01*
X11686Y27786D01*
X11692Y27779D01*
X11693Y27778D01*
X11695Y27775D01*
X11698Y27773D01*
X11703Y27769D01*
X11709Y27766D01*
X11716Y27763D01*
X11724Y27761D01*
X11734Y27760D01*
X11736D01*
X11738Y27761D01*
X11742Y27761D01*
X11748Y27762D01*
X11755Y27765D01*
X11762Y27768D01*
X11769Y27772D01*
X11776Y27779D01*
X11777Y27779D01*
X11779Y27782D01*
X11782Y27786D01*
X11785Y27791D01*
X11788Y27798D01*
X11791Y27806D01*
X11793Y27815D01*
X11794Y27826D01*
Y27827D01*
Y27829D01*
X11794Y27833D01*
X11793Y27838D01*
X11792Y27843D01*
X11790Y27849D01*
X11789Y27856D01*
X11786Y27862D01*
X11786Y27863D01*
X11784Y27866D01*
X11783Y27869D01*
X11780Y27872D01*
X11777Y27876D01*
X11773Y27881D01*
X11769Y27885D01*
X11763Y27889D01*
X11762Y27890D01*
X11761Y27890D01*
X11758Y27892D01*
X11754Y27893D01*
X11749Y27895D01*
X11744Y27897D01*
X11738Y27898D01*
X11732Y27898D01*
D02*
G37*
G36*
X12602Y27765D02*
X12520D01*
X12517Y27765D01*
X12514D01*
X12511Y27764D01*
X12502Y27763D01*
X12493Y27761D01*
X12484Y27759D01*
X12476Y27755D01*
X12472Y27753D01*
X12469Y27751D01*
X12468Y27750D01*
X12466Y27748D01*
X12463Y27744D01*
X12460Y27740D01*
X12457Y27734D01*
X12455Y27727D01*
X12453Y27720D01*
X12452Y27710D01*
Y27710D01*
Y27709D01*
Y27707D01*
X12453Y27703D01*
X12453Y27699D01*
X12454Y27694D01*
X12456Y27689D01*
X12459Y27683D01*
X12462Y27678D01*
X12462Y27678D01*
X12463Y27676D01*
X12466Y27674D01*
X12468Y27671D01*
X12472Y27668D01*
X12477Y27665D01*
X12481Y27662D01*
X12487Y27660D01*
X12487D01*
X12489Y27660D01*
X12492Y27659D01*
X12495Y27658D01*
X12501Y27658D01*
X12507Y27657D01*
X12515Y27657D01*
X12602D01*
Y27765D01*
D02*
G37*
G36*
X11576Y27817D02*
X11481D01*
Y27682D01*
X11576Y27817D01*
D02*
G37*
G36*
X10209Y27898D02*
X10206D01*
X10205Y27898D01*
X10200Y27897D01*
X10194Y27895D01*
X10188Y27892D01*
X10180Y27888D01*
X10177Y27885D01*
X10173Y27882D01*
X10170Y27878D01*
X10166Y27874D01*
Y27873D01*
X10165Y27872D01*
X10164Y27871D01*
X10164Y27869D01*
X10162Y27866D01*
X10160Y27862D01*
X10159Y27858D01*
X10157Y27852D01*
X10156Y27846D01*
X10154Y27839D01*
X10152Y27831D01*
X10151Y27822D01*
X10150Y27811D01*
X10149Y27800D01*
X10148Y27788D01*
Y27775D01*
Y27774D01*
Y27774D01*
Y27772D01*
Y27768D01*
X10149Y27762D01*
Y27757D01*
X10149Y27750D01*
X10150Y27742D01*
X10150Y27734D01*
X10153Y27717D01*
X10154Y27709D01*
X10156Y27701D01*
X10157Y27694D01*
X10160Y27687D01*
X10163Y27681D01*
X10166Y27675D01*
Y27675D01*
X10167Y27675D01*
X10167Y27673D01*
X10169Y27671D01*
X10173Y27668D01*
X10177Y27663D01*
X10184Y27658D01*
X10191Y27654D01*
X10195Y27653D01*
X10200Y27651D01*
X10205Y27651D01*
X10209Y27650D01*
X10212D01*
X10214Y27651D01*
X10219Y27652D01*
X10224Y27653D01*
X10231Y27656D01*
X10238Y27660D01*
X10241Y27662D01*
X10245Y27665D01*
X10248Y27668D01*
X10251Y27672D01*
Y27673D01*
X10252Y27674D01*
X10253Y27675D01*
X10254Y27678D01*
X10255Y27681D01*
X10257Y27685D01*
X10258Y27690D01*
X10260Y27696D01*
X10262Y27702D01*
X10264Y27709D01*
X10265Y27718D01*
X10267Y27727D01*
X10268Y27737D01*
X10269Y27749D01*
X10269Y27761D01*
X10270Y27775D01*
Y27775D01*
Y27778D01*
Y27782D01*
X10269Y27787D01*
Y27793D01*
X10269Y27800D01*
X10268Y27807D01*
X10268Y27815D01*
X10265Y27832D01*
X10264Y27840D01*
X10262Y27848D01*
X10261Y27855D01*
X10258Y27862D01*
X10255Y27869D01*
X10252Y27874D01*
Y27874D01*
X10251Y27875D01*
X10249Y27878D01*
X10245Y27882D01*
X10240Y27886D01*
X10234Y27890D01*
X10226Y27894D01*
X10218Y27897D01*
X10214Y27898D01*
X10209Y27898D01*
D02*
G37*
%LPD*%
D12*
X3200Y37600D02*
X3200Y4600D01*
X3200Y37600D02*
X32600D01*
X32600Y4600D01*
X3200D02*
X32600D01*
D62*
X12091Y26900D02*
X12082Y27000D01*
X12057Y27097D01*
X12016Y27188D01*
X11959Y27271D01*
X11890Y27343D01*
X11810Y27403D01*
X11720Y27448D01*
X11624Y27477D01*
X11525Y27490D01*
X11425Y27486D01*
X11327Y27465D01*
X11234Y27427D01*
X11149Y27375D01*
X11074Y27309D01*
X11011Y27231D01*
X10962Y27143D01*
X10928Y27049D01*
X10912Y26950D01*
Y26850D01*
X10928Y26751D01*
X10962Y26657D01*
X11011Y26569D01*
X11074Y26491D01*
X11149Y26425D01*
X11234Y26373D01*
X11327Y26335D01*
X11425Y26314D01*
X11525Y26310D01*
X11624Y26323D01*
X11720Y26352D01*
X11810Y26397D01*
X11890Y26457D01*
X11959Y26529D01*
X12016Y26612D01*
X12057Y26703D01*
X12082Y26800D01*
X12091Y26900D01*
X9600Y27500D02*
X10260D01*
X9600D02*
Y28050D01*
X10260D01*
X12744Y27500D02*
X13400D01*
Y28050D01*
X12744D02*
X13400D01*
X12744Y26300D02*
X13400D01*
Y25750D02*
Y26300D01*
X12744Y25750D02*
X13400D01*
X9600Y26300D02*
X10260D01*
X9600Y25750D02*
Y26300D01*
Y25750D02*
X10260D01*
X12744Y25660D02*
Y28144D01*
X10260Y25660D02*
X12744D01*
X10260D02*
Y28144D01*
X12744D01*
X18085Y12143D02*
Y12457D01*
X18715D01*
Y12143D02*
Y12457D01*
X18085Y12143D02*
X18715D01*
X7550Y18143D02*
Y18457D01*
X6920Y18143D02*
X7550D01*
X6920D02*
Y18457D01*
X7550D01*
X18050Y10643D02*
Y10957D01*
X18680D01*
Y10643D02*
Y10957D01*
X18050Y10643D02*
X18680D01*
M02*
