G04*
G04 #@! TF.GenerationSoftware,Altium Limited,Altium Designer,19.1.8 (144)*
G04*
G04 Layer_Color=32768*
%FSLAX25Y25*%
%MOIN*%
G70*
G01*
G75*
%ADD54C,0.00394*%
G36*
X84067Y165618D02*
X86732D01*
Y165216D01*
X84067D01*
Y164220D01*
X83708D01*
Y166615D01*
X84067D01*
Y165618D01*
D02*
G37*
G36*
X85972Y163888D02*
X86033Y163879D01*
X86103Y163862D01*
X86177Y163840D01*
X86256Y163805D01*
X86339Y163757D01*
X86343D01*
X86348Y163752D01*
X86374Y163731D01*
X86413Y163700D01*
X86457Y163656D01*
X86509Y163599D01*
X86566Y163530D01*
X86619Y163451D01*
X86667Y163359D01*
Y163355D01*
X86671Y163346D01*
X86676Y163333D01*
X86684Y163315D01*
X86693Y163289D01*
X86706Y163259D01*
X86724Y163189D01*
X86745Y163106D01*
X86767Y163005D01*
X86780Y162896D01*
X86785Y162778D01*
Y162708D01*
X86780Y162673D01*
Y162634D01*
X86776Y162590D01*
X86772Y162538D01*
X86754Y162428D01*
X86737Y162315D01*
X86706Y162201D01*
X86667Y162092D01*
Y162087D01*
X86662Y162079D01*
X86654Y162066D01*
X86645Y162048D01*
X86619Y161996D01*
X86579Y161934D01*
X86527Y161865D01*
X86466Y161790D01*
X86391Y161720D01*
X86308Y161655D01*
X86304D01*
X86295Y161646D01*
X86282Y161642D01*
X86265Y161629D01*
X86243Y161620D01*
X86217Y161607D01*
X86151Y161576D01*
X86068Y161546D01*
X85976Y161519D01*
X85871Y161502D01*
X85762Y161493D01*
X85727Y161869D01*
X85732D01*
X85736D01*
X85749Y161873D01*
X85767D01*
X85806Y161882D01*
X85863Y161895D01*
X85919Y161913D01*
X85985Y161930D01*
X86046Y161961D01*
X86103Y161991D01*
X86107Y161996D01*
X86125Y162009D01*
X86155Y162031D01*
X86186Y162066D01*
X86225Y162109D01*
X86265Y162157D01*
X86304Y162223D01*
X86339Y162293D01*
Y162297D01*
X86343Y162302D01*
X86348Y162315D01*
X86352Y162328D01*
X86365Y162372D01*
X86383Y162428D01*
X86400Y162498D01*
X86413Y162577D01*
X86422Y162664D01*
X86426Y162760D01*
Y162800D01*
X86422Y162843D01*
X86418Y162896D01*
X86409Y162957D01*
X86400Y163027D01*
X86383Y163097D01*
X86361Y163162D01*
X86357Y163171D01*
X86348Y163193D01*
X86330Y163224D01*
X86313Y163263D01*
X86282Y163302D01*
X86252Y163346D01*
X86217Y163390D01*
X86173Y163425D01*
X86169Y163429D01*
X86151Y163438D01*
X86129Y163451D01*
X86094Y163468D01*
X86059Y163486D01*
X86016Y163499D01*
X85967Y163508D01*
X85915Y163512D01*
X85911D01*
X85889D01*
X85863Y163508D01*
X85828Y163503D01*
X85793Y163490D01*
X85749Y163477D01*
X85705Y163455D01*
X85666Y163425D01*
X85662Y163420D01*
X85649Y163407D01*
X85631Y163390D01*
X85605Y163359D01*
X85579Y163324D01*
X85548Y163276D01*
X85517Y163219D01*
X85491Y163154D01*
X85487Y163149D01*
X85483Y163128D01*
X85469Y163093D01*
X85465Y163071D01*
X85456Y163040D01*
X85443Y163010D01*
X85434Y162970D01*
X85421Y162926D01*
X85408Y162874D01*
X85395Y162822D01*
X85378Y162760D01*
X85360Y162690D01*
X85343Y162616D01*
Y162612D01*
X85338Y162599D01*
X85334Y162577D01*
X85325Y162551D01*
X85316Y162516D01*
X85308Y162476D01*
X85281Y162389D01*
X85251Y162293D01*
X85220Y162192D01*
X85190Y162105D01*
X85172Y162066D01*
X85155Y162031D01*
Y162026D01*
X85150Y162022D01*
X85133Y161996D01*
X85111Y161956D01*
X85076Y161913D01*
X85037Y161860D01*
X84989Y161808D01*
X84932Y161755D01*
X84871Y161712D01*
X84862Y161707D01*
X84840Y161694D01*
X84805Y161677D01*
X84761Y161659D01*
X84705Y161642D01*
X84639Y161624D01*
X84569Y161611D01*
X84495Y161607D01*
X84491D01*
X84486D01*
X84473D01*
X84456D01*
X84412Y161616D01*
X84355Y161624D01*
X84289Y161637D01*
X84215Y161659D01*
X84141Y161690D01*
X84067Y161733D01*
X84062D01*
X84058Y161738D01*
X84032Y161760D01*
X83997Y161790D01*
X83953Y161830D01*
X83905Y161882D01*
X83852Y161948D01*
X83804Y162026D01*
X83761Y162114D01*
Y162118D01*
X83756Y162127D01*
X83752Y162140D01*
X83743Y162157D01*
X83735Y162179D01*
X83726Y162210D01*
X83708Y162275D01*
X83691Y162358D01*
X83673Y162454D01*
X83660Y162555D01*
X83656Y162669D01*
Y162725D01*
X83660Y162756D01*
Y162787D01*
X83669Y162870D01*
X83682Y162961D01*
X83704Y163058D01*
X83730Y163162D01*
X83765Y163259D01*
Y163263D01*
X83769Y163272D01*
X83778Y163285D01*
X83787Y163302D01*
X83809Y163346D01*
X83848Y163403D01*
X83892Y163468D01*
X83949Y163534D01*
X84014Y163595D01*
X84088Y163652D01*
X84093D01*
X84097Y163656D01*
X84110Y163665D01*
X84123Y163674D01*
X84167Y163696D01*
X84224Y163722D01*
X84294Y163752D01*
X84377Y163774D01*
X84464Y163796D01*
X84560Y163805D01*
X84591Y163420D01*
X84587D01*
X84578D01*
X84565Y163416D01*
X84543Y163411D01*
X84495Y163398D01*
X84429Y163381D01*
X84359Y163355D01*
X84289Y163315D01*
X84224Y163267D01*
X84163Y163206D01*
X84158Y163197D01*
X84141Y163175D01*
X84115Y163132D01*
X84088Y163075D01*
X84062Y163001D01*
X84036Y162913D01*
X84018Y162804D01*
X84014Y162682D01*
Y162621D01*
X84018Y162594D01*
X84023Y162559D01*
X84032Y162481D01*
X84049Y162393D01*
X84071Y162306D01*
X84106Y162223D01*
X84128Y162188D01*
X84150Y162153D01*
X84154Y162144D01*
X84171Y162127D01*
X84202Y162101D01*
X84237Y162074D01*
X84285Y162044D01*
X84338Y162018D01*
X84399Y162000D01*
X84469Y161991D01*
X84477D01*
X84495D01*
X84525Y161996D01*
X84560Y162004D01*
X84604Y162018D01*
X84648Y162039D01*
X84692Y162066D01*
X84735Y162105D01*
X84740Y162109D01*
X84753Y162131D01*
X84766Y162149D01*
X84775Y162166D01*
X84788Y162192D01*
X84805Y162223D01*
X84818Y162262D01*
X84836Y162306D01*
X84853Y162354D01*
X84875Y162411D01*
X84892Y162472D01*
X84914Y162542D01*
X84932Y162621D01*
X84954Y162708D01*
Y162712D01*
X84958Y162730D01*
X84962Y162756D01*
X84971Y162787D01*
X84980Y162826D01*
X84993Y162874D01*
X85006Y162922D01*
X85019Y162975D01*
X85050Y163088D01*
X85080Y163197D01*
X85098Y163250D01*
X85115Y163298D01*
X85128Y163342D01*
X85146Y163377D01*
Y163381D01*
X85150Y163390D01*
X85159Y163403D01*
X85168Y163420D01*
X85194Y163468D01*
X85229Y163525D01*
X85277Y163591D01*
X85330Y163656D01*
X85391Y163717D01*
X85456Y163770D01*
X85465Y163774D01*
X85487Y163792D01*
X85526Y163809D01*
X85579Y163835D01*
X85640Y163857D01*
X85714Y163879D01*
X85797Y163892D01*
X85884Y163897D01*
X85889D01*
X85893D01*
X85906D01*
X85924D01*
X85972Y163888D01*
D02*
G37*
G36*
X86732Y160741D02*
X86103Y160344D01*
X86099D01*
X86090Y160335D01*
X86077Y160326D01*
X86059Y160313D01*
X86011Y160283D01*
X85950Y160243D01*
X85884Y160195D01*
X85815Y160147D01*
X85749Y160099D01*
X85688Y160055D01*
X85684Y160051D01*
X85666Y160038D01*
X85640Y160016D01*
X85609Y159985D01*
X85544Y159920D01*
X85513Y159885D01*
X85487Y159850D01*
X85483Y159846D01*
X85478Y159837D01*
X85469Y159819D01*
X85456Y159793D01*
X85443Y159767D01*
X85430Y159736D01*
X85408Y159666D01*
Y159662D01*
X85404Y159653D01*
Y159636D01*
X85399Y159614D01*
X85395Y159583D01*
Y159548D01*
X85391Y159500D01*
Y158985D01*
X86732D01*
Y158583D01*
X83708D01*
Y159985D01*
X83713Y160020D01*
Y160060D01*
X83717Y160152D01*
X83730Y160248D01*
X83743Y160353D01*
X83765Y160449D01*
X83778Y160497D01*
X83791Y160536D01*
Y160540D01*
X83796Y160545D01*
X83809Y160571D01*
X83826Y160610D01*
X83857Y160658D01*
X83896Y160711D01*
X83949Y160768D01*
X84010Y160820D01*
X84080Y160873D01*
X84084D01*
X84088Y160877D01*
X84115Y160894D01*
X84158Y160912D01*
X84215Y160938D01*
X84281Y160960D01*
X84359Y160982D01*
X84442Y160995D01*
X84534Y160999D01*
X84539D01*
X84547D01*
X84565D01*
X84587Y160995D01*
X84617D01*
X84648Y160991D01*
X84722Y160973D01*
X84809Y160947D01*
X84901Y160912D01*
X84993Y160859D01*
X85037Y160825D01*
X85080Y160790D01*
X85085Y160785D01*
X85089Y160781D01*
X85102Y160768D01*
X85115Y160750D01*
X85133Y160728D01*
X85150Y160702D01*
X85172Y160667D01*
X85198Y160632D01*
X85220Y160589D01*
X85242Y160540D01*
X85268Y160488D01*
X85290Y160431D01*
X85308Y160366D01*
X85330Y160300D01*
X85343Y160226D01*
X85356Y160147D01*
X85360Y160156D01*
X85369Y160173D01*
X85386Y160200D01*
X85404Y160234D01*
X85452Y160313D01*
X85483Y160353D01*
X85509Y160388D01*
X85517Y160396D01*
X85539Y160418D01*
X85574Y160453D01*
X85618Y160497D01*
X85679Y160545D01*
X85745Y160602D01*
X85823Y160658D01*
X85911Y160720D01*
X86732Y161240D01*
Y160741D01*
D02*
G37*
%LPC*%
G36*
X84539Y160589D02*
X84534D01*
X84530D01*
X84504Y160584D01*
X84464Y160580D01*
X84412Y160571D01*
X84359Y160549D01*
X84298Y160523D01*
X84241Y160484D01*
X84185Y160431D01*
X84180Y160423D01*
X84163Y160401D01*
X84141Y160366D01*
X84115Y160309D01*
X84088Y160243D01*
X84067Y160156D01*
X84049Y160055D01*
X84045Y159937D01*
Y158985D01*
X85045D01*
Y159885D01*
X85041Y159937D01*
X85037Y159999D01*
X85032Y160069D01*
X85024Y160138D01*
X85010Y160208D01*
X84993Y160269D01*
X84989Y160278D01*
X84980Y160296D01*
X84967Y160322D01*
X84949Y160357D01*
X84923Y160396D01*
X84892Y160436D01*
X84853Y160475D01*
X84809Y160505D01*
X84805Y160510D01*
X84788Y160519D01*
X84761Y160532D01*
X84726Y160549D01*
X84687Y160562D01*
X84643Y160575D01*
X84591Y160584D01*
X84539Y160589D01*
D02*
G37*
%LPD*%
D54*
X100906Y170000D02*
X100821Y170998D01*
X100568Y171967D01*
X100156Y172880D01*
X99595Y173710D01*
X98902Y174433D01*
X98096Y175029D01*
X97202Y175480D01*
X96244Y175773D01*
X95251Y175900D01*
X94250Y175858D01*
X93271Y175647D01*
X92341Y175273D01*
X91488Y174748D01*
X90737Y174086D01*
X90107Y173307D01*
X89619Y172432D01*
X89285Y171488D01*
X89116Y170501D01*
Y169499D01*
X89285Y168512D01*
X89619Y167568D01*
X90107Y166693D01*
X90737Y165914D01*
X91488Y165252D01*
X92341Y164727D01*
X93271Y164353D01*
X94250Y164142D01*
X95251Y164100D01*
X96244Y164227D01*
X97202Y164520D01*
X98096Y164971D01*
X98902Y165567D01*
X99595Y166290D01*
X100156Y167120D01*
X100568Y168033D01*
X100821Y169002D01*
X100906Y170000D01*
X118425Y145197D02*
X121575D01*
X118425D02*
Y151496D01*
X121575D01*
Y145197D02*
Y151496D01*
X101000Y182402D02*
Y189000D01*
X106500D01*
Y182402D02*
Y189000D01*
X101000Y151000D02*
Y157559D01*
Y151000D02*
X106500D01*
Y157559D01*
X89000Y151000D02*
Y157559D01*
X83500Y151000D02*
X89000D01*
X83500D02*
Y157559D01*
X89000Y182402D02*
Y189000D01*
X83500D02*
X89000D01*
X83500Y182402D02*
Y189000D01*
X82598Y157559D02*
X107441D01*
X82598D02*
Y182402D01*
X107441D01*
Y157559D02*
Y182402D01*
X43150Y188425D02*
Y191575D01*
X36850Y188425D02*
X43150D01*
X36850D02*
Y191575D01*
X43150D01*
M02*
