G04*
G04 #@! TF.GenerationSoftware,Altium Limited,Altium Designer,19.0.10 (269)*
G04*
G04 Layer_Color=32768*
%FSLAX24Y24*%
%MOIN*%
G70*
G01*
G75*
%ADD12C,0.0100*%
%ADD62C,0.0039*%
%ADD63C,0.0020*%
D12*
X3200Y37600D02*
X3200Y4600D01*
X3200Y37600D02*
X32600D01*
X32600Y4600D01*
X3200D02*
X32600D01*
D62*
X16361Y26196D02*
Y26589D01*
X16165Y26393D02*
X16558D01*
X6800Y32103D02*
Y32497D01*
X6603Y32300D02*
X6997D01*
X5855Y33087D02*
X7745D01*
X5855Y31513D02*
X7745D01*
X5855D02*
Y33087D01*
X7745Y31513D02*
Y33087D01*
X16844Y20532D02*
X17277D01*
X16844Y21477D02*
X17277D01*
X16844Y20532D02*
Y21477D01*
X17277Y20532D02*
Y21477D01*
X17061Y20818D02*
Y21192D01*
X16874Y21005D02*
X17248D01*
X4703Y23500D02*
X5097D01*
X4900Y23303D02*
Y23697D01*
X30808Y23572D02*
X31792D01*
X30808Y21840D02*
X31792D01*
Y23572D01*
X30808Y21840D02*
Y23572D01*
X31300Y22509D02*
Y22903D01*
X31103Y22706D02*
X31497D01*
X15082Y21103D02*
X15318D01*
X15200Y20985D02*
Y21221D01*
X15062Y20749D02*
Y21457D01*
X15338Y20749D02*
Y21457D01*
X15062Y20749D02*
X15338D01*
X15062Y21457D02*
X15338D01*
X5200Y20682D02*
Y20918D01*
X5082Y20800D02*
X5318D01*
X4846Y20938D02*
X5554D01*
X4846Y20662D02*
X5554D01*
X4846D02*
Y20938D01*
X5554Y20662D02*
Y20938D01*
X15300Y15182D02*
Y15418D01*
X15182Y15300D02*
X15418D01*
X14946Y15438D02*
X15654D01*
X14946Y15162D02*
X15654D01*
X14946D02*
Y15438D01*
X15654Y15162D02*
Y15438D01*
X29797Y8782D02*
Y9018D01*
X29679Y8900D02*
X29915D01*
X29443Y8762D02*
X30151D01*
X29443Y9038D02*
X30151D01*
Y8762D02*
Y9038D01*
X29443Y8762D02*
Y9038D01*
X28603Y8782D02*
Y9018D01*
X28485Y8900D02*
X28721D01*
X28249Y8762D02*
X28957D01*
X28249Y9038D02*
X28957D01*
Y8762D02*
Y9038D01*
X28249Y8762D02*
Y9038D01*
X29003Y7982D02*
Y8218D01*
X28885Y8100D02*
X29121D01*
X28649Y7962D02*
X29357D01*
X28649Y8238D02*
X29357D01*
Y7962D02*
Y8238D01*
X28649Y7962D02*
Y8238D01*
X15082Y18003D02*
X15318D01*
X15200Y17885D02*
Y18121D01*
X15062Y17649D02*
Y18357D01*
X15338Y17649D02*
Y18357D01*
X15062Y17649D02*
X15338D01*
X15062Y18357D02*
X15338D01*
X29800Y23282D02*
Y23518D01*
X29682Y23400D02*
X29918D01*
X29446Y23262D02*
X30154D01*
X29446Y23538D02*
X30154D01*
Y23262D02*
Y23538D01*
X29446Y23262D02*
Y23538D01*
X28603Y23282D02*
Y23518D01*
X28485Y23400D02*
X28721D01*
X28249Y23262D02*
X28957D01*
X28249Y23538D02*
X28957D01*
Y23262D02*
Y23538D01*
X28249Y23262D02*
Y23538D01*
X28997Y22582D02*
Y22818D01*
X28879Y22700D02*
X29115D01*
X28643Y22562D02*
X29351D01*
X28643Y22838D02*
X29351D01*
Y22562D02*
Y22838D01*
X28643Y22562D02*
Y22838D01*
X4140Y17808D02*
Y18792D01*
X5872Y17808D02*
Y18792D01*
X4140D02*
X5872D01*
X4140Y17808D02*
X5872D01*
X4809Y18300D02*
X5203D01*
X5006Y18103D02*
Y18497D01*
X15034Y10308D02*
Y11292D01*
X16766Y10308D02*
Y11292D01*
X15034D02*
X16766D01*
X15034Y10308D02*
X16766D01*
X15703Y10800D02*
X16097D01*
X15900Y10603D02*
Y10997D01*
X15034Y11808D02*
Y12792D01*
X16766Y11808D02*
Y12792D01*
X15034D02*
X16766D01*
X15034Y11808D02*
X16766D01*
X15703Y12300D02*
X16097D01*
X15900Y12103D02*
Y12497D01*
X6728Y23008D02*
Y23992D01*
X8460Y23008D02*
Y23992D01*
X6728D02*
X8460D01*
X6728Y23008D02*
X8460D01*
X7397Y23500D02*
X7791D01*
X7594Y23303D02*
Y23697D01*
X7908Y25934D02*
X8892D01*
X7908Y27666D02*
X8892D01*
X7908Y25934D02*
Y27666D01*
X8892Y25934D02*
Y27666D01*
X8400Y26603D02*
Y26997D01*
X8203Y26800D02*
X8597D01*
X20408Y16740D02*
X21392D01*
X20408Y18472D02*
X21392D01*
X20408Y16740D02*
Y18472D01*
X21392Y16740D02*
Y18472D01*
X20900Y17409D02*
Y17803D01*
X20703Y17606D02*
X21097D01*
X18626Y16740D02*
X19610D01*
X18626Y18472D02*
X19610D01*
X18626Y16740D02*
Y18472D01*
X19610Y16740D02*
Y18472D01*
X19118Y17409D02*
Y17803D01*
X18921Y17606D02*
X19315D01*
X16844Y18377D02*
X17277D01*
X16844Y17432D02*
X17277D01*
Y18377D01*
X16844Y17432D02*
Y18377D01*
X17061Y17718D02*
Y18092D01*
X16874Y17905D02*
X17248D01*
X30608Y9072D02*
X31592D01*
X30608Y7340D02*
X31592D01*
Y9072D01*
X30608Y7340D02*
Y9072D01*
X31100Y8009D02*
Y8403D01*
X30903Y8206D02*
X31297D01*
X20408Y19840D02*
X21392D01*
X20408Y21572D02*
X21392D01*
X20408Y19840D02*
Y21572D01*
X21392Y19840D02*
Y21572D01*
X20900Y20509D02*
Y20903D01*
X20703Y20706D02*
X21097D01*
X18626Y19840D02*
X19610D01*
X18626Y21572D02*
X19610D01*
X18626Y19840D02*
Y21572D01*
X19610Y19840D02*
Y21572D01*
X19118Y20509D02*
Y20903D01*
X18921Y20706D02*
X19315D01*
D63*
X14826Y24739D02*
X17897D01*
X14826Y28046D02*
X17897D01*
Y24739D02*
Y28046D01*
X14826Y24739D02*
Y28046D01*
M02*
