G04*
G04 #@! TF.GenerationSoftware,Altium Limited,Altium Designer,19.1.8 (144)*
G04*
G04 Layer_Physical_Order=2*
G04 Layer_Color=16711680*
%FSLAX25Y25*%
%MOIN*%
G70*
G01*
G75*
%ADD12C,0.01000*%
%ADD47O,0.10400X0.05200*%
%ADD48C,0.04724*%
%ADD49R,0.05906X0.05906*%
%ADD50C,0.05906*%
%ADD51P,0.08010X8X202.5*%
%ADD52R,0.05906X0.05906*%
%ADD53C,0.05000*%
D12*
X76900Y175000D02*
X135000D01*
X68900Y183000D02*
X76900Y175000D01*
X58000Y183000D02*
X68900D01*
X57200Y170400D02*
X58000Y183000D01*
X57200Y170400D02*
X73800Y153800D01*
Y106200D02*
Y153800D01*
Y106200D02*
X90000Y90000D01*
X115000Y55000D02*
X135000D01*
X111000Y51000D02*
X115000Y55000D01*
X158749D02*
X165000D01*
X126749Y23000D02*
X158749Y55000D01*
X77000Y23000D02*
X126749D01*
X67000Y58000D02*
Y61800D01*
X64900D02*
X67000D01*
X63200Y63500D02*
X64900Y61800D01*
X53100Y63500D02*
X63200D01*
X52000Y64600D02*
X53100Y63500D01*
X52000Y64600D02*
Y108600D01*
X146000Y65000D02*
X154000D01*
X141700Y60700D02*
X146000Y65000D01*
X141700Y42000D02*
Y60700D01*
X140600Y40900D02*
X141700Y42000D01*
X137600Y40900D02*
X140600D01*
X128000Y31300D02*
X137600Y40900D01*
X75300Y31300D02*
X128000D01*
X67000Y23000D02*
X75300Y31300D01*
X62000Y179000D02*
X69449Y171551D01*
Y169551D02*
Y171551D01*
Y169551D02*
X126000Y113000D01*
Y84900D02*
Y113000D01*
Y84900D02*
X130000Y80900D01*
X146000D01*
X150000Y76900D01*
Y69000D02*
Y76900D01*
Y69000D02*
X154000Y65000D01*
X165000D01*
X47200Y146900D02*
X53600D01*
X62500Y138000D01*
Y83500D02*
Y138000D01*
X57000Y78000D02*
X62500Y83500D01*
X165000Y165000D02*
X170700D01*
X171700Y166000D01*
Y178000D01*
X164700Y185000D02*
X171700Y178000D01*
X56158Y185000D02*
X164700D01*
X55158Y184000D02*
X56158Y185000D01*
X55158Y153757D02*
Y184000D01*
Y153757D02*
X56000Y152916D01*
X91000Y51000D02*
X111000D01*
X89000Y53000D02*
X91000Y51000D01*
X64000Y53000D02*
X89000D01*
X62000Y51000D02*
X64000Y53000D01*
X62000Y46000D02*
Y51000D01*
X51800Y35800D02*
X62000Y46000D01*
X51800Y18200D02*
Y35800D01*
Y18200D02*
X57000Y13000D01*
X135000Y155000D02*
X150000D01*
X154100Y150900D01*
X194000D01*
X206000Y162900D01*
X213500Y114500D02*
Y150500D01*
X238000Y175000D01*
X227500Y90500D02*
X237700D01*
X203500Y114500D02*
X227500Y90500D01*
X57000Y88000D02*
Y133800D01*
X58500Y135300D01*
X155000Y175000D02*
X165000D01*
X150000Y170000D02*
X155000Y175000D01*
X81900Y170000D02*
X150000D01*
X67000Y13000D02*
X73400Y6600D01*
X113200D01*
X151600Y45000D01*
X165000D01*
X91000Y41000D02*
X111000D01*
X135000Y85000D02*
X165000D01*
D47*
X135000Y175000D02*
D03*
Y165000D02*
D03*
Y155000D02*
D03*
Y145000D02*
D03*
Y135000D02*
D03*
Y125000D02*
D03*
Y115000D02*
D03*
Y105000D02*
D03*
Y95000D02*
D03*
Y85000D02*
D03*
Y75000D02*
D03*
Y65000D02*
D03*
Y55000D02*
D03*
Y45000D02*
D03*
X165000D02*
D03*
Y55000D02*
D03*
Y65000D02*
D03*
Y75000D02*
D03*
Y85000D02*
D03*
Y95000D02*
D03*
Y105000D02*
D03*
Y115000D02*
D03*
Y125000D02*
D03*
Y135000D02*
D03*
Y145000D02*
D03*
Y155000D02*
D03*
Y165000D02*
D03*
Y175000D02*
D03*
D48*
X111000Y41000D02*
D03*
Y51000D02*
D03*
X91000Y41000D02*
D03*
Y51000D02*
D03*
D49*
X90000Y90000D02*
D03*
Y120000D02*
D03*
X57000Y88000D02*
D03*
D50*
X90000Y80000D02*
D03*
Y130000D02*
D03*
X67000Y48000D02*
D03*
X57000D02*
D03*
X67000Y58000D02*
D03*
X57000D02*
D03*
X67000Y68000D02*
D03*
X57000D02*
D03*
X67000Y78000D02*
D03*
X57000D02*
D03*
X67000Y88000D02*
D03*
X193500Y114500D02*
D03*
X203500D02*
D03*
X213500D02*
D03*
X194000Y56500D02*
D03*
D51*
X77000Y23000D02*
D03*
Y13000D02*
D03*
X67000Y23000D02*
D03*
Y13000D02*
D03*
X57000Y23000D02*
D03*
Y13000D02*
D03*
D52*
X223500Y114500D02*
D03*
X204000Y56500D02*
D03*
D53*
X52000Y108600D02*
D03*
X62000Y179000D02*
D03*
X47200Y146900D02*
D03*
X56000Y152916D02*
D03*
X206000Y162900D02*
D03*
X238000Y175000D02*
D03*
X237700Y90500D02*
D03*
X58500Y135300D02*
D03*
X81900Y170000D02*
D03*
M02*
