G04*
G04 #@! TF.GenerationSoftware,Altium Limited,Altium Designer,20.0.10 (225)*
G04*
G04 Layer_Color=32768*
%FSLAX24Y24*%
%MOIN*%
G70*
G01*
G75*
%ADD12C,0.0100*%
%ADD50C,0.0039*%
G36*
X5673Y26490D02*
X5437D01*
X5437Y26490D01*
X5439Y26488D01*
X5442Y26485D01*
X5445Y26481D01*
X5449Y26476D01*
X5453Y26470D01*
X5458Y26463D01*
X5463Y26455D01*
Y26455D01*
X5463Y26454D01*
X5465Y26451D01*
X5467Y26447D01*
X5470Y26442D01*
X5473Y26436D01*
X5476Y26429D01*
X5479Y26423D01*
X5481Y26416D01*
X5446D01*
Y26417D01*
X5445Y26417D01*
X5444Y26419D01*
X5443Y26421D01*
X5442Y26424D01*
X5440Y26427D01*
X5436Y26434D01*
X5431Y26443D01*
X5425Y26452D01*
X5418Y26461D01*
X5410Y26470D01*
X5410Y26471D01*
X5409Y26471D01*
X5408Y26472D01*
X5407Y26474D01*
X5402Y26478D01*
X5397Y26483D01*
X5391Y26489D01*
X5384Y26494D01*
X5377Y26499D01*
X5370Y26504D01*
Y26528D01*
X5673D01*
Y26490D01*
D02*
G37*
G36*
X5407Y26262D02*
X5673D01*
Y26222D01*
X5407D01*
Y26122D01*
X5371D01*
Y26361D01*
X5407D01*
Y26262D01*
D02*
G37*
G36*
X5597Y26089D02*
X5603Y26088D01*
X5610Y26086D01*
X5618Y26084D01*
X5626Y26080D01*
X5634Y26076D01*
X5634D01*
X5635Y26075D01*
X5637Y26073D01*
X5641Y26070D01*
X5646Y26066D01*
X5651Y26060D01*
X5657Y26053D01*
X5662Y26045D01*
X5667Y26036D01*
Y26035D01*
X5667Y26035D01*
X5668Y26033D01*
X5668Y26032D01*
X5669Y26029D01*
X5671Y26026D01*
X5672Y26019D01*
X5675Y26011D01*
X5677Y26001D01*
X5678Y25990D01*
X5678Y25978D01*
Y25971D01*
X5678Y25967D01*
Y25963D01*
X5678Y25959D01*
X5677Y25954D01*
X5675Y25943D01*
X5674Y25931D01*
X5671Y25920D01*
X5667Y25909D01*
Y25909D01*
X5666Y25908D01*
X5665Y25907D01*
X5664Y25905D01*
X5662Y25900D01*
X5658Y25893D01*
X5653Y25886D01*
X5647Y25879D01*
X5639Y25872D01*
X5631Y25865D01*
X5630D01*
X5630Y25865D01*
X5628Y25864D01*
X5626Y25863D01*
X5624Y25862D01*
X5622Y25861D01*
X5615Y25858D01*
X5607Y25855D01*
X5598Y25852D01*
X5587Y25850D01*
X5576Y25849D01*
X5573Y25887D01*
X5573D01*
X5574D01*
X5575Y25887D01*
X5577D01*
X5581Y25888D01*
X5586Y25890D01*
X5592Y25891D01*
X5598Y25893D01*
X5605Y25896D01*
X5610Y25899D01*
X5611Y25900D01*
X5612Y25901D01*
X5616Y25903D01*
X5619Y25907D01*
X5623Y25911D01*
X5626Y25916D01*
X5630Y25922D01*
X5634Y25929D01*
Y25930D01*
X5634Y25930D01*
X5635Y25931D01*
X5635Y25933D01*
X5637Y25937D01*
X5638Y25943D01*
X5640Y25950D01*
X5641Y25958D01*
X5642Y25966D01*
X5643Y25976D01*
Y25980D01*
X5642Y25984D01*
X5642Y25990D01*
X5641Y25996D01*
X5640Y26003D01*
X5638Y26010D01*
X5636Y26016D01*
X5636Y26017D01*
X5635Y26019D01*
X5633Y26022D01*
X5631Y26026D01*
X5628Y26030D01*
X5625Y26035D01*
X5622Y26039D01*
X5617Y26042D01*
X5617Y26043D01*
X5615Y26044D01*
X5613Y26045D01*
X5609Y26047D01*
X5606Y26049D01*
X5602Y26050D01*
X5597Y26051D01*
X5592Y26051D01*
X5591D01*
X5589D01*
X5586Y26051D01*
X5583Y26050D01*
X5579Y26049D01*
X5575Y26048D01*
X5571Y26046D01*
X5567Y26042D01*
X5566Y26042D01*
X5565Y26041D01*
X5563Y26039D01*
X5560Y26036D01*
X5558Y26032D01*
X5555Y26028D01*
X5552Y26022D01*
X5549Y26015D01*
X5549Y26015D01*
X5548Y26013D01*
X5547Y26009D01*
X5547Y26007D01*
X5546Y26004D01*
X5544Y26001D01*
X5543Y25997D01*
X5542Y25993D01*
X5541Y25987D01*
X5540Y25982D01*
X5538Y25976D01*
X5536Y25969D01*
X5534Y25962D01*
Y25961D01*
X5534Y25960D01*
X5533Y25958D01*
X5533Y25955D01*
X5532Y25952D01*
X5531Y25948D01*
X5528Y25939D01*
X5525Y25929D01*
X5522Y25919D01*
X5519Y25910D01*
X5517Y25907D01*
X5515Y25903D01*
Y25903D01*
X5515Y25902D01*
X5513Y25900D01*
X5511Y25896D01*
X5508Y25891D01*
X5504Y25886D01*
X5499Y25881D01*
X5493Y25876D01*
X5487Y25871D01*
X5486Y25871D01*
X5484Y25869D01*
X5481Y25868D01*
X5476Y25866D01*
X5470Y25864D01*
X5464Y25862D01*
X5457Y25861D01*
X5449Y25861D01*
X5449D01*
X5449D01*
X5447D01*
X5446D01*
X5441Y25862D01*
X5436Y25862D01*
X5429Y25864D01*
X5422Y25866D01*
X5414Y25869D01*
X5407Y25873D01*
X5406D01*
X5406Y25874D01*
X5403Y25876D01*
X5400Y25879D01*
X5395Y25883D01*
X5390Y25888D01*
X5385Y25895D01*
X5380Y25903D01*
X5376Y25911D01*
Y25912D01*
X5376Y25913D01*
X5375Y25914D01*
X5374Y25916D01*
X5373Y25918D01*
X5373Y25921D01*
X5371Y25928D01*
X5369Y25936D01*
X5367Y25945D01*
X5366Y25956D01*
X5366Y25967D01*
Y25973D01*
X5366Y25976D01*
Y25979D01*
X5367Y25987D01*
X5368Y25996D01*
X5370Y26006D01*
X5373Y26016D01*
X5376Y26026D01*
Y26026D01*
X5377Y26027D01*
X5378Y26028D01*
X5379Y26030D01*
X5381Y26035D01*
X5385Y26040D01*
X5389Y26047D01*
X5395Y26053D01*
X5401Y26060D01*
X5409Y26065D01*
X5409D01*
X5410Y26066D01*
X5411Y26067D01*
X5412Y26067D01*
X5417Y26070D01*
X5422Y26072D01*
X5429Y26075D01*
X5438Y26077D01*
X5446Y26080D01*
X5456Y26080D01*
X5459Y26042D01*
X5459D01*
X5458D01*
X5456Y26042D01*
X5454Y26041D01*
X5449Y26040D01*
X5443Y26038D01*
X5436Y26035D01*
X5429Y26032D01*
X5422Y26027D01*
X5416Y26021D01*
X5416Y26020D01*
X5414Y26018D01*
X5411Y26013D01*
X5409Y26007D01*
X5406Y26000D01*
X5404Y25991D01*
X5402Y25980D01*
X5401Y25968D01*
Y25962D01*
X5402Y25959D01*
X5402Y25956D01*
X5403Y25948D01*
X5405Y25939D01*
X5407Y25931D01*
X5411Y25922D01*
X5413Y25919D01*
X5415Y25915D01*
X5415Y25914D01*
X5417Y25913D01*
X5420Y25910D01*
X5424Y25907D01*
X5429Y25904D01*
X5434Y25902D01*
X5440Y25900D01*
X5447Y25899D01*
X5448D01*
X5449D01*
X5453Y25900D01*
X5456Y25900D01*
X5460Y25902D01*
X5465Y25904D01*
X5469Y25907D01*
X5474Y25910D01*
X5474Y25911D01*
X5475Y25913D01*
X5477Y25915D01*
X5477Y25917D01*
X5479Y25919D01*
X5481Y25922D01*
X5482Y25926D01*
X5484Y25931D01*
X5485Y25935D01*
X5487Y25941D01*
X5489Y25947D01*
X5491Y25954D01*
X5493Y25962D01*
X5495Y25971D01*
Y25971D01*
X5496Y25973D01*
X5496Y25976D01*
X5497Y25979D01*
X5498Y25983D01*
X5499Y25987D01*
X5501Y25992D01*
X5502Y25997D01*
X5505Y26009D01*
X5508Y26020D01*
X5510Y26025D01*
X5512Y26030D01*
X5513Y26034D01*
X5515Y26038D01*
Y26038D01*
X5515Y26039D01*
X5516Y26040D01*
X5517Y26042D01*
X5519Y26047D01*
X5523Y26053D01*
X5528Y26059D01*
X5533Y26066D01*
X5539Y26072D01*
X5546Y26077D01*
X5547Y26077D01*
X5549Y26079D01*
X5553Y26081D01*
X5558Y26084D01*
X5564Y26086D01*
X5571Y26088D01*
X5580Y26089D01*
X5588Y26090D01*
X5589D01*
X5589D01*
X5591D01*
X5592D01*
X5597Y26089D01*
D02*
G37*
G36*
X5673Y25774D02*
X5610Y25734D01*
X5610D01*
X5609Y25734D01*
X5608Y25733D01*
X5606Y25731D01*
X5601Y25728D01*
X5595Y25724D01*
X5588Y25720D01*
X5581Y25715D01*
X5575Y25710D01*
X5569Y25706D01*
X5568Y25705D01*
X5567Y25704D01*
X5564Y25702D01*
X5561Y25699D01*
X5554Y25692D01*
X5551Y25688D01*
X5549Y25685D01*
X5548Y25685D01*
X5548Y25684D01*
X5547Y25682D01*
X5546Y25679D01*
X5544Y25677D01*
X5543Y25674D01*
X5541Y25667D01*
Y25666D01*
X5540Y25665D01*
Y25664D01*
X5540Y25661D01*
X5540Y25658D01*
Y25655D01*
X5539Y25650D01*
Y25598D01*
X5673D01*
Y25558D01*
X5371D01*
Y25699D01*
X5371Y25702D01*
Y25706D01*
X5372Y25715D01*
X5373Y25725D01*
X5374Y25735D01*
X5376Y25745D01*
X5378Y25750D01*
X5379Y25754D01*
Y25754D01*
X5380Y25754D01*
X5381Y25757D01*
X5383Y25761D01*
X5386Y25766D01*
X5390Y25771D01*
X5395Y25777D01*
X5401Y25782D01*
X5408Y25787D01*
X5408D01*
X5409Y25788D01*
X5411Y25789D01*
X5416Y25791D01*
X5422Y25794D01*
X5428Y25796D01*
X5436Y25798D01*
X5444Y25799D01*
X5453Y25800D01*
X5454D01*
X5455D01*
X5456D01*
X5459Y25799D01*
X5462D01*
X5465Y25799D01*
X5472Y25797D01*
X5481Y25795D01*
X5490Y25791D01*
X5499Y25786D01*
X5504Y25782D01*
X5508Y25779D01*
X5508Y25779D01*
X5509Y25778D01*
X5510Y25777D01*
X5512Y25775D01*
X5513Y25773D01*
X5515Y25770D01*
X5517Y25767D01*
X5520Y25763D01*
X5522Y25759D01*
X5524Y25754D01*
X5527Y25749D01*
X5529Y25743D01*
X5531Y25737D01*
X5533Y25730D01*
X5534Y25723D01*
X5536Y25715D01*
X5536Y25716D01*
X5537Y25717D01*
X5539Y25720D01*
X5540Y25723D01*
X5545Y25731D01*
X5548Y25735D01*
X5551Y25739D01*
X5552Y25740D01*
X5554Y25742D01*
X5557Y25745D01*
X5562Y25750D01*
X5568Y25754D01*
X5574Y25760D01*
X5582Y25766D01*
X5591Y25772D01*
X5673Y25824D01*
Y25774D01*
D02*
G37*
G36*
X7448Y30647D02*
X7454Y30646D01*
X7461Y30645D01*
X7468Y30642D01*
X7476Y30639D01*
X7484Y30634D01*
X7485D01*
X7485Y30634D01*
X7488Y30631D01*
X7492Y30628D01*
X7496Y30624D01*
X7501Y30618D01*
X7507Y30611D01*
X7512Y30603D01*
X7517Y30594D01*
Y30594D01*
X7517Y30593D01*
X7518Y30592D01*
X7519Y30590D01*
X7520Y30587D01*
X7521Y30584D01*
X7523Y30577D01*
X7525Y30569D01*
X7527Y30559D01*
X7528Y30548D01*
X7529Y30536D01*
Y30529D01*
X7528Y30526D01*
Y30522D01*
X7528Y30517D01*
X7528Y30512D01*
X7526Y30501D01*
X7524Y30490D01*
X7521Y30478D01*
X7517Y30468D01*
Y30467D01*
X7517Y30466D01*
X7516Y30465D01*
X7515Y30463D01*
X7512Y30458D01*
X7508Y30452D01*
X7503Y30445D01*
X7497Y30437D01*
X7490Y30430D01*
X7481Y30424D01*
X7481D01*
X7480Y30423D01*
X7479Y30423D01*
X7477Y30421D01*
X7475Y30420D01*
X7472Y30419D01*
X7466Y30416D01*
X7457Y30413D01*
X7448Y30410D01*
X7438Y30409D01*
X7427Y30408D01*
X7423Y30445D01*
X7424D01*
X7424D01*
X7425Y30446D01*
X7427D01*
X7431Y30447D01*
X7437Y30448D01*
X7442Y30450D01*
X7449Y30451D01*
X7455Y30454D01*
X7461Y30457D01*
X7461Y30458D01*
X7463Y30459D01*
X7466Y30461D01*
X7469Y30465D01*
X7473Y30469D01*
X7477Y30474D01*
X7481Y30481D01*
X7484Y30488D01*
Y30488D01*
X7485Y30489D01*
X7485Y30490D01*
X7486Y30491D01*
X7487Y30495D01*
X7489Y30501D01*
X7490Y30508D01*
X7492Y30516D01*
X7493Y30525D01*
X7493Y30534D01*
Y30538D01*
X7493Y30543D01*
X7492Y30548D01*
X7491Y30554D01*
X7490Y30561D01*
X7489Y30568D01*
X7486Y30575D01*
X7486Y30575D01*
X7485Y30578D01*
X7483Y30581D01*
X7482Y30585D01*
X7479Y30589D01*
X7476Y30593D01*
X7472Y30597D01*
X7468Y30601D01*
X7467Y30601D01*
X7466Y30602D01*
X7463Y30603D01*
X7460Y30605D01*
X7456Y30607D01*
X7452Y30608D01*
X7447Y30609D01*
X7442Y30610D01*
X7441D01*
X7439D01*
X7437Y30609D01*
X7433Y30609D01*
X7430Y30607D01*
X7425Y30606D01*
X7421Y30604D01*
X7417Y30601D01*
X7417Y30600D01*
X7415Y30599D01*
X7413Y30597D01*
X7411Y30594D01*
X7408Y30591D01*
X7405Y30586D01*
X7402Y30580D01*
X7400Y30574D01*
X7399Y30573D01*
X7399Y30571D01*
X7397Y30568D01*
X7397Y30565D01*
X7396Y30562D01*
X7395Y30559D01*
X7394Y30555D01*
X7393Y30551D01*
X7391Y30546D01*
X7390Y30540D01*
X7388Y30534D01*
X7386Y30527D01*
X7385Y30520D01*
Y30520D01*
X7384Y30518D01*
X7384Y30516D01*
X7383Y30513D01*
X7382Y30510D01*
X7381Y30506D01*
X7379Y30497D01*
X7375Y30488D01*
X7372Y30478D01*
X7369Y30469D01*
X7368Y30465D01*
X7366Y30461D01*
Y30461D01*
X7365Y30461D01*
X7364Y30458D01*
X7361Y30454D01*
X7358Y30450D01*
X7354Y30444D01*
X7349Y30439D01*
X7344Y30434D01*
X7337Y30430D01*
X7337Y30429D01*
X7334Y30428D01*
X7331Y30426D01*
X7327Y30424D01*
X7321Y30423D01*
X7314Y30421D01*
X7307Y30419D01*
X7300Y30419D01*
X7299D01*
X7299D01*
X7298D01*
X7296D01*
X7292Y30420D01*
X7286Y30421D01*
X7279Y30422D01*
X7272Y30424D01*
X7264Y30427D01*
X7257Y30432D01*
X7257D01*
X7256Y30432D01*
X7254Y30434D01*
X7250Y30437D01*
X7246Y30441D01*
X7241Y30447D01*
X7236Y30453D01*
X7231Y30461D01*
X7226Y30470D01*
Y30470D01*
X7226Y30471D01*
X7226Y30472D01*
X7225Y30474D01*
X7224Y30476D01*
X7223Y30479D01*
X7221Y30486D01*
X7219Y30494D01*
X7218Y30504D01*
X7216Y30514D01*
X7216Y30525D01*
Y30531D01*
X7216Y30534D01*
Y30537D01*
X7217Y30545D01*
X7219Y30554D01*
X7221Y30564D01*
X7223Y30575D01*
X7227Y30584D01*
Y30585D01*
X7227Y30586D01*
X7228Y30587D01*
X7229Y30589D01*
X7231Y30593D01*
X7235Y30599D01*
X7240Y30605D01*
X7245Y30612D01*
X7252Y30618D01*
X7259Y30624D01*
X7260D01*
X7260Y30624D01*
X7261Y30625D01*
X7263Y30626D01*
X7267Y30628D01*
X7273Y30631D01*
X7280Y30634D01*
X7288Y30636D01*
X7297Y30638D01*
X7306Y30639D01*
X7309Y30600D01*
X7309D01*
X7308D01*
X7307Y30600D01*
X7305Y30600D01*
X7300Y30598D01*
X7293Y30596D01*
X7286Y30594D01*
X7279Y30590D01*
X7273Y30585D01*
X7267Y30579D01*
X7266Y30578D01*
X7264Y30576D01*
X7262Y30572D01*
X7259Y30566D01*
X7257Y30558D01*
X7254Y30550D01*
X7252Y30539D01*
X7252Y30527D01*
Y30520D01*
X7252Y30518D01*
X7253Y30514D01*
X7254Y30506D01*
X7255Y30498D01*
X7257Y30489D01*
X7261Y30481D01*
X7263Y30477D01*
X7265Y30474D01*
X7266Y30473D01*
X7268Y30471D01*
X7271Y30468D01*
X7274Y30466D01*
X7279Y30463D01*
X7284Y30460D01*
X7290Y30458D01*
X7297Y30457D01*
X7298D01*
X7300D01*
X7303Y30458D01*
X7306Y30459D01*
X7311Y30460D01*
X7315Y30462D01*
X7320Y30465D01*
X7324Y30469D01*
X7324Y30469D01*
X7326Y30471D01*
X7327Y30473D01*
X7328Y30475D01*
X7329Y30478D01*
X7331Y30481D01*
X7332Y30485D01*
X7334Y30489D01*
X7336Y30494D01*
X7338Y30499D01*
X7340Y30506D01*
X7342Y30513D01*
X7344Y30520D01*
X7346Y30529D01*
Y30530D01*
X7346Y30531D01*
X7347Y30534D01*
X7348Y30537D01*
X7348Y30541D01*
X7350Y30546D01*
X7351Y30551D01*
X7352Y30556D01*
X7355Y30567D01*
X7358Y30578D01*
X7360Y30583D01*
X7362Y30588D01*
X7363Y30593D01*
X7365Y30596D01*
Y30596D01*
X7365Y30597D01*
X7366Y30599D01*
X7367Y30600D01*
X7370Y30605D01*
X7373Y30611D01*
X7378Y30617D01*
X7383Y30624D01*
X7389Y30630D01*
X7396Y30635D01*
X7397Y30636D01*
X7399Y30638D01*
X7403Y30639D01*
X7408Y30642D01*
X7414Y30644D01*
X7422Y30646D01*
X7430Y30648D01*
X7439Y30648D01*
X7439D01*
X7440D01*
X7441D01*
X7443D01*
X7448Y30647D01*
D02*
G37*
G36*
X7257Y30205D02*
X7351D01*
Y30347D01*
X7386D01*
Y30205D01*
X7524D01*
Y30165D01*
X7221D01*
Y30369D01*
X7257D01*
Y30205D01*
D02*
G37*
G36*
X7524Y29926D02*
X7221D01*
Y29966D01*
X7488D01*
Y30115D01*
X7524D01*
Y29926D01*
D02*
G37*
G36*
Y29555D02*
X7523D01*
X7521D01*
X7519D01*
X7515Y29555D01*
X7511Y29556D01*
X7507Y29556D01*
X7503Y29557D01*
X7498Y29559D01*
X7497D01*
X7497Y29559D01*
X7494Y29560D01*
X7490Y29562D01*
X7485Y29565D01*
X7479Y29568D01*
X7472Y29573D01*
X7465Y29577D01*
X7458Y29583D01*
X7457D01*
X7457Y29584D01*
X7454Y29587D01*
X7450Y29590D01*
X7445Y29596D01*
X7438Y29603D01*
X7430Y29611D01*
X7421Y29621D01*
X7412Y29632D01*
X7412Y29632D01*
X7410Y29634D01*
X7408Y29637D01*
X7406Y29640D01*
X7402Y29644D01*
X7398Y29649D01*
X7394Y29653D01*
X7389Y29659D01*
X7379Y29670D01*
X7368Y29681D01*
X7363Y29686D01*
X7358Y29691D01*
X7353Y29695D01*
X7348Y29699D01*
X7348D01*
X7347Y29700D01*
X7346Y29701D01*
X7344Y29701D01*
X7339Y29705D01*
X7334Y29708D01*
X7327Y29711D01*
X7319Y29714D01*
X7311Y29716D01*
X7303Y29717D01*
X7303D01*
X7302D01*
X7299Y29716D01*
X7295Y29716D01*
X7290Y29715D01*
X7284Y29713D01*
X7278Y29710D01*
X7272Y29706D01*
X7266Y29701D01*
X7265Y29700D01*
X7263Y29698D01*
X7261Y29694D01*
X7258Y29690D01*
X7255Y29684D01*
X7253Y29677D01*
X7251Y29668D01*
X7250Y29659D01*
Y29656D01*
X7251Y29655D01*
X7251Y29649D01*
X7253Y29643D01*
X7254Y29637D01*
X7257Y29629D01*
X7261Y29622D01*
X7267Y29616D01*
X7268Y29615D01*
X7270Y29613D01*
X7273Y29611D01*
X7278Y29608D01*
X7285Y29605D01*
X7292Y29602D01*
X7301Y29601D01*
X7311Y29600D01*
X7307Y29562D01*
X7307D01*
X7306Y29562D01*
X7303D01*
X7300Y29562D01*
X7297Y29563D01*
X7293Y29564D01*
X7288Y29566D01*
X7283Y29567D01*
X7273Y29570D01*
X7262Y29576D01*
X7257Y29579D01*
X7252Y29583D01*
X7247Y29587D01*
X7243Y29591D01*
X7242Y29591D01*
X7242Y29592D01*
X7240Y29594D01*
X7239Y29596D01*
X7237Y29598D01*
X7236Y29601D01*
X7233Y29605D01*
X7231Y29609D01*
X7229Y29614D01*
X7227Y29619D01*
X7225Y29625D01*
X7223Y29631D01*
X7222Y29638D01*
X7221Y29645D01*
X7220Y29652D01*
X7220Y29660D01*
Y29664D01*
X7220Y29667D01*
X7221Y29671D01*
X7221Y29675D01*
X7222Y29680D01*
X7223Y29685D01*
X7226Y29696D01*
X7230Y29708D01*
X7233Y29713D01*
X7236Y29719D01*
X7240Y29724D01*
X7244Y29729D01*
X7245Y29729D01*
X7245Y29730D01*
X7247Y29731D01*
X7249Y29733D01*
X7251Y29735D01*
X7254Y29737D01*
X7257Y29739D01*
X7261Y29742D01*
X7269Y29746D01*
X7280Y29751D01*
X7285Y29753D01*
X7291Y29753D01*
X7297Y29754D01*
X7304Y29755D01*
X7305D01*
X7307D01*
X7310Y29754D01*
X7315Y29754D01*
X7320Y29753D01*
X7327Y29751D01*
X7333Y29750D01*
X7340Y29747D01*
X7341Y29746D01*
X7343Y29746D01*
X7346Y29744D01*
X7351Y29741D01*
X7356Y29738D01*
X7363Y29733D01*
X7369Y29728D01*
X7377Y29722D01*
X7378Y29721D01*
X7380Y29719D01*
X7382Y29717D01*
X7385Y29715D01*
X7387Y29712D01*
X7391Y29708D01*
X7394Y29705D01*
X7398Y29701D01*
X7403Y29696D01*
X7407Y29691D01*
X7412Y29685D01*
X7418Y29679D01*
X7424Y29672D01*
X7430Y29665D01*
X7430Y29665D01*
X7431Y29664D01*
X7432Y29662D01*
X7434Y29660D01*
X7437Y29657D01*
X7439Y29654D01*
X7445Y29647D01*
X7452Y29640D01*
X7458Y29633D01*
X7464Y29627D01*
X7466Y29624D01*
X7468Y29622D01*
X7469Y29621D01*
X7470Y29620D01*
X7472Y29618D01*
X7474Y29616D01*
X7477Y29614D01*
X7480Y29611D01*
X7488Y29606D01*
Y29755D01*
X7524D01*
Y29555D01*
D02*
G37*
G36*
X7381Y29523D02*
X7386D01*
X7393Y29523D01*
X7400Y29522D01*
X7414Y29521D01*
X7430Y29518D01*
X7445Y29515D01*
X7452Y29513D01*
X7459Y29511D01*
X7459D01*
X7460Y29511D01*
X7462Y29510D01*
X7465Y29509D01*
X7467Y29507D01*
X7471Y29506D01*
X7478Y29501D01*
X7486Y29496D01*
X7495Y29490D01*
X7504Y29482D01*
X7511Y29473D01*
Y29473D01*
X7512Y29472D01*
X7513Y29471D01*
X7514Y29469D01*
X7515Y29466D01*
X7517Y29464D01*
X7518Y29460D01*
X7520Y29457D01*
X7523Y29448D01*
X7526Y29438D01*
X7528Y29427D01*
X7529Y29415D01*
Y29412D01*
X7528Y29410D01*
Y29406D01*
X7528Y29403D01*
X7526Y29395D01*
X7524Y29386D01*
X7521Y29376D01*
X7516Y29366D01*
X7513Y29361D01*
X7509Y29357D01*
X7509Y29357D01*
X7508Y29356D01*
X7507Y29355D01*
X7506Y29354D01*
X7504Y29352D01*
X7501Y29350D01*
X7495Y29345D01*
X7487Y29341D01*
X7477Y29337D01*
X7466Y29333D01*
X7454Y29330D01*
X7451Y29366D01*
X7451D01*
X7452Y29367D01*
X7453D01*
X7455Y29367D01*
X7459Y29368D01*
X7465Y29370D01*
X7471Y29372D01*
X7477Y29375D01*
X7483Y29379D01*
X7487Y29383D01*
X7488Y29384D01*
X7489Y29386D01*
X7491Y29389D01*
X7493Y29392D01*
X7495Y29397D01*
X7497Y29403D01*
X7498Y29409D01*
X7498Y29416D01*
Y29419D01*
X7498Y29422D01*
X7497Y29426D01*
X7497Y29431D01*
X7495Y29436D01*
X7493Y29441D01*
X7491Y29446D01*
X7490Y29446D01*
X7490Y29448D01*
X7488Y29451D01*
X7485Y29453D01*
X7482Y29457D01*
X7479Y29460D01*
X7475Y29464D01*
X7470Y29467D01*
X7469Y29468D01*
X7467Y29469D01*
X7464Y29470D01*
X7460Y29472D01*
X7455Y29474D01*
X7449Y29476D01*
X7442Y29479D01*
X7434Y29481D01*
X7434D01*
X7433Y29481D01*
X7432D01*
X7430Y29482D01*
X7426Y29483D01*
X7420Y29484D01*
X7413Y29485D01*
X7406Y29486D01*
X7397Y29486D01*
X7389Y29486D01*
X7388D01*
X7387D01*
X7385D01*
X7381D01*
X7382Y29486D01*
X7384Y29484D01*
X7387Y29482D01*
X7392Y29479D01*
X7396Y29474D01*
X7401Y29469D01*
X7406Y29463D01*
X7410Y29456D01*
X7410Y29455D01*
X7412Y29452D01*
X7413Y29448D01*
X7415Y29444D01*
X7417Y29437D01*
X7419Y29430D01*
X7420Y29422D01*
X7421Y29414D01*
Y29410D01*
X7420Y29408D01*
X7420Y29404D01*
X7420Y29401D01*
X7419Y29396D01*
X7417Y29392D01*
X7414Y29382D01*
X7412Y29377D01*
X7410Y29372D01*
X7407Y29366D01*
X7403Y29361D01*
X7399Y29355D01*
X7394Y29351D01*
X7393Y29350D01*
X7393Y29349D01*
X7391Y29348D01*
X7389Y29347D01*
X7386Y29344D01*
X7383Y29342D01*
X7379Y29340D01*
X7375Y29338D01*
X7370Y29335D01*
X7365Y29333D01*
X7358Y29331D01*
X7352Y29329D01*
X7345Y29327D01*
X7338Y29326D01*
X7330Y29325D01*
X7322Y29325D01*
X7322D01*
X7320D01*
X7318D01*
X7315Y29325D01*
X7311Y29326D01*
X7306Y29326D01*
X7301Y29327D01*
X7296Y29328D01*
X7284Y29331D01*
X7278Y29334D01*
X7271Y29336D01*
X7265Y29339D01*
X7260Y29343D01*
X7254Y29347D01*
X7248Y29352D01*
X7248Y29352D01*
X7247Y29353D01*
X7246Y29354D01*
X7244Y29357D01*
X7242Y29359D01*
X7239Y29363D01*
X7237Y29366D01*
X7234Y29371D01*
X7231Y29375D01*
X7229Y29380D01*
X7224Y29392D01*
X7223Y29398D01*
X7221Y29405D01*
X7220Y29412D01*
X7220Y29420D01*
Y29423D01*
X7220Y29425D01*
Y29427D01*
X7221Y29430D01*
X7222Y29438D01*
X7224Y29446D01*
X7227Y29455D01*
X7231Y29464D01*
X7236Y29473D01*
Y29474D01*
X7237Y29474D01*
X7238Y29476D01*
X7239Y29477D01*
X7243Y29482D01*
X7247Y29487D01*
X7254Y29493D01*
X7262Y29500D01*
X7271Y29505D01*
X7282Y29511D01*
X7282D01*
X7283Y29511D01*
X7285Y29512D01*
X7287Y29513D01*
X7290Y29514D01*
X7294Y29515D01*
X7298Y29516D01*
X7303Y29517D01*
X7309Y29518D01*
X7315Y29520D01*
X7322Y29521D01*
X7330Y29521D01*
X7338Y29522D01*
X7347Y29523D01*
X7356Y29524D01*
X7366D01*
X7367D01*
X7369D01*
X7372D01*
X7376D01*
X7381Y29523D01*
D02*
G37*
G36*
X7524Y29251D02*
X7461Y29212D01*
X7460D01*
X7459Y29211D01*
X7458Y29210D01*
X7456Y29209D01*
X7452Y29205D01*
X7445Y29202D01*
X7439Y29197D01*
X7432Y29192D01*
X7425Y29187D01*
X7419Y29183D01*
X7419Y29182D01*
X7417Y29181D01*
X7414Y29179D01*
X7411Y29176D01*
X7405Y29169D01*
X7402Y29166D01*
X7399Y29162D01*
X7399Y29162D01*
X7398Y29161D01*
X7397Y29159D01*
X7396Y29157D01*
X7395Y29154D01*
X7393Y29151D01*
X7391Y29144D01*
Y29143D01*
X7391Y29143D01*
Y29141D01*
X7390Y29139D01*
X7390Y29136D01*
Y29132D01*
X7389Y29127D01*
Y29076D01*
X7524D01*
Y29035D01*
X7221D01*
Y29176D01*
X7222Y29179D01*
Y29183D01*
X7222Y29192D01*
X7223Y29202D01*
X7225Y29212D01*
X7227Y29222D01*
X7228Y29227D01*
X7230Y29231D01*
Y29231D01*
X7230Y29232D01*
X7231Y29234D01*
X7233Y29238D01*
X7236Y29243D01*
X7240Y29248D01*
X7245Y29254D01*
X7251Y29259D01*
X7258Y29264D01*
X7259D01*
X7259Y29265D01*
X7262Y29267D01*
X7266Y29268D01*
X7272Y29271D01*
X7278Y29273D01*
X7286Y29275D01*
X7295Y29277D01*
X7304Y29277D01*
X7304D01*
X7305D01*
X7307D01*
X7309Y29277D01*
X7312D01*
X7315Y29276D01*
X7323Y29275D01*
X7331Y29272D01*
X7341Y29268D01*
X7350Y29263D01*
X7354Y29260D01*
X7358Y29256D01*
X7359Y29256D01*
X7359Y29255D01*
X7361Y29254D01*
X7362Y29252D01*
X7364Y29250D01*
X7365Y29247D01*
X7368Y29244D01*
X7370Y29240D01*
X7372Y29236D01*
X7375Y29231D01*
X7377Y29226D01*
X7379Y29220D01*
X7381Y29214D01*
X7383Y29207D01*
X7385Y29200D01*
X7386Y29192D01*
X7386Y29193D01*
X7387Y29195D01*
X7389Y29197D01*
X7391Y29201D01*
X7396Y29209D01*
X7399Y29212D01*
X7401Y29216D01*
X7402Y29217D01*
X7404Y29219D01*
X7408Y29223D01*
X7412Y29227D01*
X7418Y29232D01*
X7425Y29237D01*
X7433Y29243D01*
X7441Y29249D01*
X7524Y29301D01*
Y29251D01*
D02*
G37*
G36*
X7257Y28894D02*
X7524D01*
Y28854D01*
X7257D01*
Y28754D01*
X7221D01*
Y28994D01*
X7257D01*
Y28894D01*
D02*
G37*
G36*
X7524Y28673D02*
X7271D01*
X7524Y28585D01*
Y28549D01*
X7266Y28462D01*
X7524D01*
Y28423D01*
X7221D01*
Y28483D01*
X7436Y28555D01*
X7436D01*
X7437Y28555D01*
X7438Y28556D01*
X7441Y28557D01*
X7446Y28558D01*
X7452Y28560D01*
X7460Y28563D01*
X7467Y28565D01*
X7474Y28567D01*
X7480Y28569D01*
X7479Y28570D01*
X7477Y28570D01*
X7473Y28571D01*
X7468Y28573D01*
X7461Y28575D01*
X7453Y28578D01*
X7443Y28581D01*
X7432Y28585D01*
X7221Y28658D01*
Y28712D01*
X7524D01*
Y28673D01*
D02*
G37*
G36*
X7448Y28369D02*
X7454Y28368D01*
X7461Y28366D01*
X7468Y28364D01*
X7476Y28360D01*
X7484Y28356D01*
X7485D01*
X7485Y28355D01*
X7488Y28353D01*
X7492Y28350D01*
X7496Y28345D01*
X7501Y28340D01*
X7507Y28333D01*
X7512Y28325D01*
X7517Y28316D01*
Y28315D01*
X7517Y28314D01*
X7518Y28313D01*
X7519Y28311D01*
X7520Y28309D01*
X7521Y28306D01*
X7523Y28299D01*
X7525Y28290D01*
X7527Y28280D01*
X7528Y28269D01*
X7529Y28258D01*
Y28251D01*
X7528Y28247D01*
Y28243D01*
X7528Y28239D01*
X7528Y28234D01*
X7526Y28223D01*
X7524Y28211D01*
X7521Y28200D01*
X7517Y28189D01*
Y28189D01*
X7517Y28188D01*
X7516Y28186D01*
X7515Y28185D01*
X7512Y28179D01*
X7508Y28173D01*
X7503Y28166D01*
X7497Y28159D01*
X7490Y28152D01*
X7481Y28145D01*
X7481D01*
X7480Y28144D01*
X7479Y28144D01*
X7477Y28143D01*
X7475Y28142D01*
X7472Y28140D01*
X7466Y28137D01*
X7457Y28134D01*
X7448Y28132D01*
X7438Y28130D01*
X7427Y28129D01*
X7423Y28167D01*
X7424D01*
X7424D01*
X7425Y28167D01*
X7427D01*
X7431Y28168D01*
X7437Y28169D01*
X7442Y28171D01*
X7449Y28173D01*
X7455Y28176D01*
X7461Y28179D01*
X7461Y28179D01*
X7463Y28181D01*
X7466Y28183D01*
X7469Y28186D01*
X7473Y28191D01*
X7477Y28196D01*
X7481Y28202D01*
X7484Y28209D01*
Y28210D01*
X7485Y28210D01*
X7485Y28211D01*
X7486Y28213D01*
X7487Y28217D01*
X7489Y28223D01*
X7490Y28230D01*
X7492Y28238D01*
X7493Y28246D01*
X7493Y28256D01*
Y28260D01*
X7493Y28264D01*
X7492Y28269D01*
X7491Y28276D01*
X7490Y28283D01*
X7489Y28290D01*
X7486Y28296D01*
X7486Y28297D01*
X7485Y28299D01*
X7483Y28302D01*
X7482Y28306D01*
X7479Y28310D01*
X7476Y28314D01*
X7472Y28319D01*
X7468Y28322D01*
X7467Y28323D01*
X7466Y28324D01*
X7463Y28325D01*
X7460Y28327D01*
X7456Y28328D01*
X7452Y28330D01*
X7447Y28331D01*
X7442Y28331D01*
X7441D01*
X7439D01*
X7437Y28331D01*
X7433Y28330D01*
X7430Y28329D01*
X7425Y28328D01*
X7421Y28325D01*
X7417Y28322D01*
X7417Y28322D01*
X7415Y28321D01*
X7413Y28319D01*
X7411Y28316D01*
X7408Y28312D01*
X7405Y28307D01*
X7402Y28302D01*
X7400Y28295D01*
X7399Y28295D01*
X7399Y28293D01*
X7397Y28289D01*
X7397Y28287D01*
X7396Y28284D01*
X7395Y28281D01*
X7394Y28277D01*
X7393Y28272D01*
X7391Y28267D01*
X7390Y28262D01*
X7388Y28256D01*
X7386Y28249D01*
X7385Y28241D01*
Y28241D01*
X7384Y28240D01*
X7384Y28238D01*
X7383Y28235D01*
X7382Y28231D01*
X7381Y28227D01*
X7379Y28219D01*
X7375Y28209D01*
X7372Y28199D01*
X7369Y28190D01*
X7368Y28186D01*
X7366Y28183D01*
Y28182D01*
X7365Y28182D01*
X7364Y28179D01*
X7361Y28175D01*
X7358Y28171D01*
X7354Y28166D01*
X7349Y28161D01*
X7344Y28155D01*
X7337Y28151D01*
X7337Y28151D01*
X7334Y28149D01*
X7331Y28147D01*
X7327Y28146D01*
X7321Y28144D01*
X7314Y28142D01*
X7307Y28141D01*
X7300Y28140D01*
X7299D01*
X7299D01*
X7298D01*
X7296D01*
X7292Y28141D01*
X7286Y28142D01*
X7279Y28144D01*
X7272Y28146D01*
X7264Y28149D01*
X7257Y28153D01*
X7257D01*
X7256Y28154D01*
X7254Y28156D01*
X7250Y28159D01*
X7246Y28163D01*
X7241Y28168D01*
X7236Y28175D01*
X7231Y28182D01*
X7226Y28191D01*
Y28192D01*
X7226Y28193D01*
X7226Y28194D01*
X7225Y28196D01*
X7224Y28198D01*
X7223Y28201D01*
X7221Y28207D01*
X7219Y28216D01*
X7218Y28225D01*
X7216Y28235D01*
X7216Y28247D01*
Y28252D01*
X7216Y28255D01*
Y28258D01*
X7217Y28267D01*
X7219Y28276D01*
X7221Y28286D01*
X7223Y28296D01*
X7227Y28306D01*
Y28306D01*
X7227Y28307D01*
X7228Y28308D01*
X7229Y28310D01*
X7231Y28314D01*
X7235Y28320D01*
X7240Y28327D01*
X7245Y28333D01*
X7252Y28339D01*
X7259Y28345D01*
X7260D01*
X7260Y28345D01*
X7261Y28346D01*
X7263Y28347D01*
X7267Y28349D01*
X7273Y28352D01*
X7280Y28355D01*
X7288Y28357D01*
X7297Y28359D01*
X7306Y28360D01*
X7309Y28322D01*
X7309D01*
X7308D01*
X7307Y28321D01*
X7305Y28321D01*
X7300Y28320D01*
X7293Y28318D01*
X7286Y28315D01*
X7279Y28311D01*
X7273Y28307D01*
X7267Y28300D01*
X7266Y28300D01*
X7264Y28297D01*
X7262Y28293D01*
X7259Y28287D01*
X7257Y28280D01*
X7254Y28271D01*
X7252Y28260D01*
X7252Y28248D01*
Y28242D01*
X7252Y28239D01*
X7253Y28236D01*
X7254Y28228D01*
X7255Y28219D01*
X7257Y28210D01*
X7261Y28202D01*
X7263Y28199D01*
X7265Y28195D01*
X7266Y28194D01*
X7268Y28193D01*
X7271Y28190D01*
X7274Y28187D01*
X7279Y28184D01*
X7284Y28182D01*
X7290Y28180D01*
X7297Y28179D01*
X7298D01*
X7300D01*
X7303Y28179D01*
X7306Y28180D01*
X7311Y28182D01*
X7315Y28184D01*
X7320Y28186D01*
X7324Y28190D01*
X7324Y28191D01*
X7326Y28193D01*
X7327Y28195D01*
X7328Y28196D01*
X7329Y28199D01*
X7331Y28202D01*
X7332Y28206D01*
X7334Y28210D01*
X7336Y28215D01*
X7338Y28221D01*
X7340Y28227D01*
X7342Y28234D01*
X7344Y28242D01*
X7346Y28251D01*
Y28251D01*
X7346Y28253D01*
X7347Y28255D01*
X7348Y28258D01*
X7348Y28262D01*
X7350Y28267D01*
X7351Y28272D01*
X7352Y28277D01*
X7355Y28289D01*
X7358Y28300D01*
X7360Y28305D01*
X7362Y28310D01*
X7363Y28314D01*
X7365Y28317D01*
Y28318D01*
X7365Y28319D01*
X7366Y28320D01*
X7367Y28322D01*
X7370Y28327D01*
X7373Y28332D01*
X7378Y28339D01*
X7383Y28345D01*
X7389Y28352D01*
X7396Y28357D01*
X7397Y28357D01*
X7399Y28359D01*
X7403Y28361D01*
X7408Y28363D01*
X7414Y28366D01*
X7422Y28368D01*
X7430Y28369D01*
X7439Y28369D01*
X7439D01*
X7440D01*
X7441D01*
X7443D01*
X7448Y28369D01*
D02*
G37*
G36*
X7388Y28089D02*
X7393D01*
X7399Y28089D01*
X7405Y28089D01*
X7419Y28087D01*
X7434Y28085D01*
X7448Y28082D01*
X7454Y28081D01*
X7461Y28078D01*
X7461D01*
X7462Y28078D01*
X7464Y28077D01*
X7466Y28076D01*
X7469Y28075D01*
X7472Y28074D01*
X7479Y28070D01*
X7487Y28066D01*
X7496Y28060D01*
X7504Y28054D01*
X7511Y28046D01*
Y28045D01*
X7512Y28045D01*
X7513Y28043D01*
X7514Y28042D01*
X7515Y28040D01*
X7517Y28037D01*
X7520Y28031D01*
X7523Y28023D01*
X7526Y28014D01*
X7528Y28003D01*
X7529Y27991D01*
Y27987D01*
X7528Y27984D01*
X7528Y27980D01*
X7527Y27976D01*
X7526Y27971D01*
X7525Y27966D01*
X7523Y27960D01*
X7521Y27955D01*
X7519Y27949D01*
X7516Y27943D01*
X7512Y27938D01*
X7508Y27932D01*
X7503Y27927D01*
X7498Y27922D01*
X7497Y27922D01*
X7496Y27921D01*
X7494Y27919D01*
X7490Y27917D01*
X7486Y27915D01*
X7481Y27913D01*
X7475Y27910D01*
X7468Y27907D01*
X7460Y27905D01*
X7451Y27902D01*
X7441Y27899D01*
X7430Y27897D01*
X7417Y27895D01*
X7404Y27894D01*
X7390Y27893D01*
X7375Y27892D01*
X7374D01*
X7372D01*
X7369D01*
X7366D01*
X7361Y27893D01*
X7356D01*
X7350Y27893D01*
X7344Y27894D01*
X7330Y27895D01*
X7316Y27897D01*
X7301Y27900D01*
X7295Y27901D01*
X7288Y27903D01*
X7288D01*
X7287Y27904D01*
X7285Y27905D01*
X7283Y27905D01*
X7280Y27906D01*
X7277Y27908D01*
X7269Y27912D01*
X7261Y27916D01*
X7253Y27922D01*
X7245Y27928D01*
X7238Y27936D01*
Y27936D01*
X7237Y27937D01*
X7236Y27938D01*
X7235Y27940D01*
X7233Y27942D01*
X7232Y27945D01*
X7229Y27951D01*
X7226Y27959D01*
X7223Y27968D01*
X7221Y27979D01*
X7220Y27991D01*
Y27995D01*
X7220Y28000D01*
X7221Y28005D01*
X7223Y28012D01*
X7224Y28019D01*
X7226Y28026D01*
X7230Y28033D01*
Y28034D01*
X7230Y28034D01*
X7232Y28036D01*
X7234Y28040D01*
X7237Y28044D01*
X7241Y28049D01*
X7246Y28054D01*
X7252Y28059D01*
X7258Y28064D01*
X7259Y28064D01*
X7261Y28066D01*
X7265Y28068D01*
X7271Y28071D01*
X7278Y28074D01*
X7285Y28077D01*
X7294Y28080D01*
X7303Y28083D01*
X7304D01*
X7305Y28083D01*
X7306Y28084D01*
X7308Y28084D01*
X7311Y28085D01*
X7314Y28085D01*
X7318Y28086D01*
X7322Y28086D01*
X7327Y28087D01*
X7332Y28088D01*
X7338Y28088D01*
X7344Y28089D01*
X7351Y28089D01*
X7358D01*
X7366Y28090D01*
X7375D01*
X7375D01*
X7377D01*
X7380D01*
X7383D01*
X7388Y28089D01*
D02*
G37*
G36*
X7428Y27857D02*
X7432Y27857D01*
X7436Y27856D01*
X7441Y27856D01*
X7445Y27855D01*
X7457Y27852D01*
X7469Y27848D01*
X7475Y27845D01*
X7480Y27842D01*
X7486Y27838D01*
X7492Y27834D01*
X7493Y27833D01*
X7494Y27832D01*
X7496Y27831D01*
X7498Y27828D01*
X7500Y27825D01*
X7504Y27822D01*
X7507Y27818D01*
X7511Y27813D01*
X7514Y27808D01*
X7517Y27801D01*
X7520Y27795D01*
X7523Y27788D01*
X7525Y27780D01*
X7527Y27772D01*
X7528Y27763D01*
X7529Y27754D01*
Y27750D01*
X7528Y27747D01*
X7528Y27744D01*
X7528Y27740D01*
X7527Y27735D01*
X7526Y27730D01*
X7523Y27719D01*
X7519Y27708D01*
X7517Y27703D01*
X7514Y27697D01*
X7510Y27692D01*
X7506Y27686D01*
X7506Y27686D01*
X7505Y27685D01*
X7504Y27684D01*
X7502Y27683D01*
X7500Y27680D01*
X7497Y27678D01*
X7493Y27676D01*
X7490Y27673D01*
X7486Y27671D01*
X7481Y27668D01*
X7470Y27663D01*
X7458Y27659D01*
X7452Y27658D01*
X7445Y27657D01*
X7441Y27696D01*
X7442D01*
X7443D01*
X7444Y27697D01*
X7446Y27697D01*
X7451Y27698D01*
X7458Y27700D01*
X7464Y27703D01*
X7472Y27706D01*
X7478Y27710D01*
X7484Y27716D01*
X7485Y27717D01*
X7486Y27718D01*
X7489Y27722D01*
X7491Y27727D01*
X7494Y27732D01*
X7496Y27738D01*
X7498Y27746D01*
X7498Y27754D01*
Y27757D01*
X7498Y27759D01*
X7497Y27764D01*
X7496Y27770D01*
X7493Y27777D01*
X7490Y27785D01*
X7485Y27793D01*
X7482Y27796D01*
X7478Y27800D01*
X7478Y27800D01*
X7477Y27801D01*
X7476Y27801D01*
X7475Y27803D01*
X7470Y27806D01*
X7464Y27809D01*
X7456Y27812D01*
X7447Y27815D01*
X7436Y27818D01*
X7431Y27818D01*
X7424D01*
X7424D01*
X7423D01*
X7421D01*
X7419Y27818D01*
X7417D01*
X7413Y27818D01*
X7407Y27816D01*
X7398Y27814D01*
X7390Y27811D01*
X7382Y27807D01*
X7375Y27801D01*
X7374D01*
X7374Y27800D01*
X7372Y27797D01*
X7368Y27794D01*
X7365Y27788D01*
X7362Y27781D01*
X7359Y27773D01*
X7357Y27764D01*
X7356Y27759D01*
Y27751D01*
X7356Y27747D01*
X7357Y27743D01*
X7358Y27738D01*
X7359Y27732D01*
X7361Y27727D01*
X7364Y27721D01*
X7365Y27721D01*
X7365Y27719D01*
X7368Y27716D01*
X7370Y27713D01*
X7373Y27709D01*
X7377Y27706D01*
X7381Y27702D01*
X7386Y27699D01*
X7381Y27664D01*
X7225Y27693D01*
Y27843D01*
X7261D01*
Y27722D01*
X7342Y27706D01*
X7342Y27707D01*
X7341Y27707D01*
X7341Y27709D01*
X7339Y27711D01*
X7338Y27714D01*
X7336Y27717D01*
X7333Y27724D01*
X7329Y27732D01*
X7326Y27742D01*
X7324Y27752D01*
X7323Y27758D01*
Y27767D01*
X7323Y27770D01*
X7324Y27773D01*
X7324Y27777D01*
X7325Y27782D01*
X7327Y27787D01*
X7330Y27797D01*
X7332Y27803D01*
X7335Y27808D01*
X7338Y27814D01*
X7341Y27820D01*
X7346Y27825D01*
X7351Y27830D01*
X7351Y27831D01*
X7352Y27832D01*
X7353Y27833D01*
X7355Y27835D01*
X7358Y27837D01*
X7361Y27839D01*
X7365Y27842D01*
X7370Y27844D01*
X7375Y27846D01*
X7380Y27849D01*
X7386Y27851D01*
X7392Y27853D01*
X7399Y27855D01*
X7406Y27856D01*
X7413Y27857D01*
X7421Y27858D01*
X7422D01*
X7423D01*
X7425D01*
X7428Y27857D01*
D02*
G37*
G36*
X7524Y27565D02*
X7381D01*
Y27409D01*
X7524D01*
Y27369D01*
X7221D01*
Y27409D01*
X7345D01*
Y27565D01*
X7221D01*
Y27606D01*
X7524D01*
Y27565D01*
D02*
G37*
G36*
X7448Y27312D02*
X7454Y27311D01*
X7461Y27309D01*
X7468Y27307D01*
X7476Y27303D01*
X7484Y27298D01*
X7485D01*
X7485Y27298D01*
X7488Y27296D01*
X7492Y27293D01*
X7496Y27288D01*
X7501Y27283D01*
X7507Y27276D01*
X7512Y27268D01*
X7517Y27259D01*
Y27258D01*
X7517Y27257D01*
X7518Y27256D01*
X7519Y27254D01*
X7520Y27252D01*
X7521Y27249D01*
X7523Y27242D01*
X7525Y27233D01*
X7527Y27223D01*
X7528Y27212D01*
X7529Y27201D01*
Y27194D01*
X7528Y27190D01*
Y27186D01*
X7528Y27182D01*
X7528Y27176D01*
X7526Y27166D01*
X7524Y27154D01*
X7521Y27143D01*
X7517Y27132D01*
Y27131D01*
X7517Y27131D01*
X7516Y27129D01*
X7515Y27128D01*
X7512Y27122D01*
X7508Y27116D01*
X7503Y27109D01*
X7497Y27102D01*
X7490Y27095D01*
X7481Y27088D01*
X7481D01*
X7480Y27087D01*
X7479Y27087D01*
X7477Y27086D01*
X7475Y27085D01*
X7472Y27083D01*
X7466Y27080D01*
X7457Y27077D01*
X7448Y27075D01*
X7438Y27073D01*
X7427Y27072D01*
X7423Y27110D01*
X7424D01*
X7424D01*
X7425Y27110D01*
X7427D01*
X7431Y27111D01*
X7437Y27112D01*
X7442Y27114D01*
X7449Y27116D01*
X7455Y27119D01*
X7461Y27122D01*
X7461Y27122D01*
X7463Y27124D01*
X7466Y27126D01*
X7469Y27129D01*
X7473Y27134D01*
X7477Y27138D01*
X7481Y27145D01*
X7484Y27152D01*
Y27152D01*
X7485Y27153D01*
X7485Y27154D01*
X7486Y27155D01*
X7487Y27160D01*
X7489Y27166D01*
X7490Y27173D01*
X7492Y27180D01*
X7493Y27189D01*
X7493Y27199D01*
Y27203D01*
X7493Y27207D01*
X7492Y27212D01*
X7491Y27218D01*
X7490Y27225D01*
X7489Y27232D01*
X7486Y27239D01*
X7486Y27240D01*
X7485Y27242D01*
X7483Y27245D01*
X7482Y27249D01*
X7479Y27253D01*
X7476Y27257D01*
X7472Y27262D01*
X7468Y27265D01*
X7467Y27266D01*
X7466Y27266D01*
X7463Y27268D01*
X7460Y27270D01*
X7456Y27271D01*
X7452Y27273D01*
X7447Y27273D01*
X7442Y27274D01*
X7441D01*
X7439D01*
X7437Y27273D01*
X7433Y27273D01*
X7430Y27272D01*
X7425Y27270D01*
X7421Y27268D01*
X7417Y27265D01*
X7417Y27265D01*
X7415Y27263D01*
X7413Y27262D01*
X7411Y27259D01*
X7408Y27255D01*
X7405Y27250D01*
X7402Y27245D01*
X7400Y27238D01*
X7399Y27238D01*
X7399Y27235D01*
X7397Y27232D01*
X7397Y27230D01*
X7396Y27227D01*
X7395Y27224D01*
X7394Y27220D01*
X7393Y27215D01*
X7391Y27210D01*
X7390Y27205D01*
X7388Y27199D01*
X7386Y27192D01*
X7385Y27184D01*
Y27184D01*
X7384Y27183D01*
X7384Y27180D01*
X7383Y27178D01*
X7382Y27174D01*
X7381Y27170D01*
X7379Y27162D01*
X7375Y27152D01*
X7372Y27142D01*
X7369Y27133D01*
X7368Y27129D01*
X7366Y27126D01*
Y27125D01*
X7365Y27125D01*
X7364Y27122D01*
X7361Y27118D01*
X7358Y27114D01*
X7354Y27109D01*
X7349Y27104D01*
X7344Y27098D01*
X7337Y27094D01*
X7337Y27093D01*
X7334Y27092D01*
X7331Y27090D01*
X7327Y27089D01*
X7321Y27087D01*
X7314Y27085D01*
X7307Y27084D01*
X7300Y27083D01*
X7299D01*
X7299D01*
X7298D01*
X7296D01*
X7292Y27084D01*
X7286Y27085D01*
X7279Y27086D01*
X7272Y27089D01*
X7264Y27092D01*
X7257Y27096D01*
X7257D01*
X7256Y27097D01*
X7254Y27099D01*
X7250Y27102D01*
X7246Y27106D01*
X7241Y27111D01*
X7236Y27117D01*
X7231Y27125D01*
X7226Y27134D01*
Y27135D01*
X7226Y27135D01*
X7226Y27137D01*
X7225Y27138D01*
X7224Y27141D01*
X7223Y27144D01*
X7221Y27150D01*
X7219Y27159D01*
X7218Y27168D01*
X7216Y27178D01*
X7216Y27190D01*
Y27195D01*
X7216Y27198D01*
Y27201D01*
X7217Y27210D01*
X7219Y27219D01*
X7221Y27228D01*
X7223Y27239D01*
X7227Y27249D01*
Y27249D01*
X7227Y27250D01*
X7228Y27251D01*
X7229Y27253D01*
X7231Y27257D01*
X7235Y27263D01*
X7240Y27270D01*
X7245Y27276D01*
X7252Y27282D01*
X7259Y27288D01*
X7260D01*
X7260Y27288D01*
X7261Y27289D01*
X7263Y27290D01*
X7267Y27292D01*
X7273Y27295D01*
X7280Y27298D01*
X7288Y27300D01*
X7297Y27302D01*
X7306Y27303D01*
X7309Y27265D01*
X7309D01*
X7308D01*
X7307Y27264D01*
X7305Y27264D01*
X7300Y27263D01*
X7293Y27261D01*
X7286Y27258D01*
X7279Y27254D01*
X7273Y27249D01*
X7267Y27243D01*
X7266Y27242D01*
X7264Y27240D01*
X7262Y27236D01*
X7259Y27230D01*
X7257Y27223D01*
X7254Y27214D01*
X7252Y27203D01*
X7252Y27191D01*
Y27185D01*
X7252Y27182D01*
X7253Y27179D01*
X7254Y27171D01*
X7255Y27162D01*
X7257Y27153D01*
X7261Y27145D01*
X7263Y27142D01*
X7265Y27138D01*
X7266Y27137D01*
X7268Y27135D01*
X7271Y27133D01*
X7274Y27130D01*
X7279Y27127D01*
X7284Y27124D01*
X7290Y27123D01*
X7297Y27122D01*
X7298D01*
X7300D01*
X7303Y27122D01*
X7306Y27123D01*
X7311Y27124D01*
X7315Y27127D01*
X7320Y27129D01*
X7324Y27133D01*
X7324Y27134D01*
X7326Y27136D01*
X7327Y27138D01*
X7328Y27139D01*
X7329Y27142D01*
X7331Y27145D01*
X7332Y27149D01*
X7334Y27153D01*
X7336Y27158D01*
X7338Y27164D01*
X7340Y27170D01*
X7342Y27177D01*
X7344Y27185D01*
X7346Y27194D01*
Y27194D01*
X7346Y27196D01*
X7347Y27198D01*
X7348Y27201D01*
X7348Y27205D01*
X7350Y27210D01*
X7351Y27215D01*
X7352Y27220D01*
X7355Y27232D01*
X7358Y27242D01*
X7360Y27248D01*
X7362Y27253D01*
X7363Y27257D01*
X7365Y27260D01*
Y27261D01*
X7365Y27262D01*
X7366Y27263D01*
X7367Y27265D01*
X7370Y27270D01*
X7373Y27275D01*
X7378Y27282D01*
X7383Y27288D01*
X7389Y27294D01*
X7396Y27300D01*
X7397Y27300D01*
X7399Y27302D01*
X7403Y27304D01*
X7408Y27306D01*
X7414Y27308D01*
X7422Y27311D01*
X7430Y27312D01*
X7439Y27312D01*
X7439D01*
X7440D01*
X7441D01*
X7443D01*
X7448Y27312D01*
D02*
G37*
G36*
X7428Y27035D02*
X7432Y27035D01*
X7436Y27034D01*
X7441Y27034D01*
X7445Y27033D01*
X7457Y27030D01*
X7469Y27026D01*
X7475Y27023D01*
X7480Y27020D01*
X7486Y27016D01*
X7492Y27012D01*
X7493Y27011D01*
X7494Y27010D01*
X7496Y27009D01*
X7498Y27006D01*
X7500Y27003D01*
X7504Y27000D01*
X7507Y26996D01*
X7511Y26991D01*
X7514Y26986D01*
X7517Y26979D01*
X7520Y26973D01*
X7523Y26966D01*
X7525Y26958D01*
X7527Y26950D01*
X7528Y26941D01*
X7529Y26932D01*
Y26928D01*
X7528Y26925D01*
X7528Y26922D01*
X7528Y26918D01*
X7527Y26913D01*
X7526Y26908D01*
X7523Y26897D01*
X7519Y26886D01*
X7517Y26881D01*
X7514Y26875D01*
X7510Y26870D01*
X7506Y26864D01*
X7506Y26864D01*
X7505Y26863D01*
X7504Y26862D01*
X7502Y26861D01*
X7500Y26858D01*
X7497Y26856D01*
X7493Y26854D01*
X7490Y26851D01*
X7486Y26849D01*
X7481Y26846D01*
X7470Y26841D01*
X7458Y26837D01*
X7452Y26836D01*
X7445Y26835D01*
X7441Y26874D01*
X7442D01*
X7443D01*
X7444Y26875D01*
X7446Y26875D01*
X7451Y26876D01*
X7458Y26878D01*
X7464Y26881D01*
X7472Y26884D01*
X7478Y26888D01*
X7484Y26894D01*
X7485Y26895D01*
X7486Y26896D01*
X7489Y26900D01*
X7491Y26905D01*
X7494Y26910D01*
X7496Y26916D01*
X7498Y26924D01*
X7498Y26932D01*
Y26935D01*
X7498Y26937D01*
X7497Y26942D01*
X7496Y26948D01*
X7493Y26955D01*
X7490Y26963D01*
X7485Y26971D01*
X7482Y26974D01*
X7478Y26978D01*
X7478Y26978D01*
X7477Y26979D01*
X7476Y26979D01*
X7475Y26981D01*
X7470Y26984D01*
X7464Y26987D01*
X7456Y26990D01*
X7447Y26993D01*
X7436Y26996D01*
X7431Y26996D01*
X7424D01*
X7424D01*
X7423D01*
X7421D01*
X7419Y26996D01*
X7417D01*
X7413Y26996D01*
X7407Y26994D01*
X7398Y26992D01*
X7390Y26989D01*
X7382Y26985D01*
X7375Y26979D01*
X7374D01*
X7374Y26978D01*
X7372Y26975D01*
X7368Y26972D01*
X7365Y26966D01*
X7362Y26959D01*
X7359Y26951D01*
X7357Y26942D01*
X7356Y26937D01*
Y26929D01*
X7356Y26925D01*
X7357Y26921D01*
X7358Y26916D01*
X7359Y26910D01*
X7361Y26905D01*
X7364Y26899D01*
X7365Y26899D01*
X7365Y26897D01*
X7368Y26894D01*
X7370Y26891D01*
X7373Y26887D01*
X7377Y26884D01*
X7381Y26880D01*
X7386Y26877D01*
X7381Y26842D01*
X7225Y26871D01*
Y27021D01*
X7261D01*
Y26900D01*
X7342Y26884D01*
X7342Y26885D01*
X7341Y26885D01*
X7341Y26887D01*
X7339Y26889D01*
X7338Y26892D01*
X7336Y26895D01*
X7333Y26902D01*
X7329Y26910D01*
X7326Y26920D01*
X7324Y26930D01*
X7323Y26936D01*
Y26945D01*
X7323Y26948D01*
X7324Y26951D01*
X7324Y26955D01*
X7325Y26960D01*
X7327Y26965D01*
X7330Y26975D01*
X7332Y26981D01*
X7335Y26986D01*
X7338Y26992D01*
X7341Y26998D01*
X7346Y27003D01*
X7351Y27008D01*
X7351Y27009D01*
X7352Y27010D01*
X7353Y27011D01*
X7355Y27013D01*
X7358Y27015D01*
X7361Y27017D01*
X7365Y27020D01*
X7370Y27022D01*
X7375Y27024D01*
X7380Y27027D01*
X7386Y27029D01*
X7392Y27031D01*
X7399Y27033D01*
X7406Y27034D01*
X7413Y27035D01*
X7421Y27036D01*
X7422D01*
X7423D01*
X7425D01*
X7428Y27035D01*
D02*
G37*
G36*
X7451Y26756D02*
X7524D01*
Y26719D01*
X7451D01*
Y26587D01*
X7417D01*
X7221Y26726D01*
Y26756D01*
X7417D01*
Y26797D01*
X7451D01*
Y26756D01*
D02*
G37*
G36*
X7433Y26563D02*
X7436D01*
X7443Y26562D01*
X7451Y26560D01*
X7460Y26558D01*
X7469Y26555D01*
X7479Y26551D01*
X7479D01*
X7479Y26550D01*
X7481Y26549D01*
X7483Y26549D01*
X7487Y26546D01*
X7493Y26542D01*
X7499Y26537D01*
X7505Y26531D01*
X7511Y26524D01*
X7516Y26517D01*
Y26517D01*
X7517Y26516D01*
X7517Y26515D01*
X7518Y26513D01*
X7520Y26509D01*
X7522Y26503D01*
X7525Y26496D01*
X7527Y26487D01*
X7528Y26478D01*
X7529Y26468D01*
Y26466D01*
X7528Y26464D01*
Y26460D01*
X7528Y26456D01*
X7527Y26452D01*
X7526Y26447D01*
X7524Y26441D01*
X7523Y26435D01*
X7521Y26429D01*
X7518Y26423D01*
X7514Y26417D01*
X7511Y26410D01*
X7506Y26404D01*
X7501Y26398D01*
X7495Y26393D01*
X7494Y26392D01*
X7493Y26391D01*
X7491Y26390D01*
X7488Y26388D01*
X7484Y26386D01*
X7480Y26383D01*
X7474Y26381D01*
X7468Y26378D01*
X7461Y26375D01*
X7452Y26372D01*
X7443Y26370D01*
X7433Y26368D01*
X7422Y26366D01*
X7410Y26365D01*
X7396Y26364D01*
X7382Y26363D01*
X7382D01*
X7382D01*
X7380D01*
X7379D01*
X7374Y26364D01*
X7368D01*
X7361Y26364D01*
X7353Y26365D01*
X7344Y26366D01*
X7334Y26367D01*
X7323Y26369D01*
X7313Y26371D01*
X7302Y26374D01*
X7292Y26377D01*
X7282Y26381D01*
X7272Y26385D01*
X7263Y26390D01*
X7255Y26396D01*
X7254Y26396D01*
X7254Y26397D01*
X7252Y26399D01*
X7249Y26401D01*
X7247Y26403D01*
X7244Y26407D01*
X7240Y26411D01*
X7237Y26416D01*
X7234Y26421D01*
X7231Y26427D01*
X7228Y26433D01*
X7225Y26440D01*
X7223Y26447D01*
X7221Y26455D01*
X7220Y26463D01*
X7220Y26472D01*
Y26476D01*
X7220Y26478D01*
Y26481D01*
X7221Y26485D01*
X7223Y26493D01*
X7225Y26502D01*
X7228Y26512D01*
X7233Y26521D01*
X7237Y26526D01*
X7240Y26531D01*
X7240Y26531D01*
X7241Y26531D01*
X7242Y26533D01*
X7244Y26534D01*
X7246Y26536D01*
X7248Y26538D01*
X7254Y26543D01*
X7262Y26548D01*
X7272Y26552D01*
X7283Y26556D01*
X7295Y26559D01*
X7298Y26521D01*
X7298D01*
X7297Y26521D01*
X7295Y26521D01*
X7291Y26519D01*
X7286Y26517D01*
X7281Y26516D01*
X7275Y26513D01*
X7271Y26510D01*
X7267Y26507D01*
X7266Y26506D01*
X7264Y26504D01*
X7261Y26501D01*
X7258Y26497D01*
X7256Y26491D01*
X7253Y26485D01*
X7251Y26478D01*
X7250Y26470D01*
Y26467D01*
X7251Y26463D01*
X7252Y26459D01*
X7253Y26454D01*
X7255Y26449D01*
X7257Y26444D01*
X7261Y26438D01*
X7261Y26438D01*
X7263Y26435D01*
X7266Y26432D01*
X7270Y26428D01*
X7275Y26424D01*
X7282Y26419D01*
X7289Y26415D01*
X7298Y26410D01*
X7299D01*
X7299Y26410D01*
X7301Y26410D01*
X7303Y26409D01*
X7305Y26408D01*
X7308Y26407D01*
X7312Y26406D01*
X7316Y26406D01*
X7321Y26404D01*
X7326Y26403D01*
X7332Y26403D01*
X7338Y26402D01*
X7345Y26401D01*
X7352Y26401D01*
X7360Y26400D01*
X7368D01*
X7367Y26401D01*
X7365Y26403D01*
X7361Y26406D01*
X7357Y26410D01*
X7351Y26414D01*
X7347Y26420D01*
X7342Y26426D01*
X7337Y26433D01*
Y26433D01*
X7337Y26434D01*
X7336Y26436D01*
X7334Y26440D01*
X7332Y26445D01*
X7330Y26451D01*
X7329Y26458D01*
X7328Y26466D01*
X7327Y26474D01*
Y26477D01*
X7328Y26480D01*
X7328Y26483D01*
X7329Y26487D01*
X7330Y26491D01*
X7331Y26496D01*
X7334Y26506D01*
X7336Y26511D01*
X7339Y26516D01*
X7342Y26521D01*
X7346Y26527D01*
X7350Y26532D01*
X7355Y26537D01*
X7355Y26538D01*
X7356Y26538D01*
X7358Y26540D01*
X7360Y26541D01*
X7363Y26543D01*
X7366Y26545D01*
X7370Y26548D01*
X7374Y26550D01*
X7379Y26553D01*
X7384Y26555D01*
X7390Y26557D01*
X7396Y26559D01*
X7403Y26561D01*
X7410Y26562D01*
X7418Y26563D01*
X7426Y26563D01*
X7426D01*
X7427D01*
X7428D01*
X7431D01*
X7433Y26563D01*
D02*
G37*
G36*
X7448Y26324D02*
X7454Y26323D01*
X7461Y26322D01*
X7468Y26320D01*
X7476Y26316D01*
X7484Y26311D01*
X7485D01*
X7485Y26311D01*
X7488Y26309D01*
X7492Y26306D01*
X7496Y26301D01*
X7501Y26295D01*
X7507Y26288D01*
X7512Y26281D01*
X7517Y26271D01*
Y26271D01*
X7517Y26270D01*
X7518Y26269D01*
X7519Y26267D01*
X7520Y26264D01*
X7521Y26261D01*
X7523Y26254D01*
X7525Y26246D01*
X7527Y26236D01*
X7528Y26225D01*
X7529Y26213D01*
Y26206D01*
X7528Y26203D01*
Y26199D01*
X7528Y26195D01*
X7528Y26189D01*
X7526Y26178D01*
X7524Y26167D01*
X7521Y26156D01*
X7517Y26145D01*
Y26144D01*
X7517Y26143D01*
X7516Y26142D01*
X7515Y26140D01*
X7512Y26135D01*
X7508Y26129D01*
X7503Y26122D01*
X7497Y26115D01*
X7490Y26108D01*
X7481Y26101D01*
X7481D01*
X7480Y26100D01*
X7479Y26100D01*
X7477Y26098D01*
X7475Y26098D01*
X7472Y26096D01*
X7466Y26093D01*
X7457Y26090D01*
X7448Y26087D01*
X7438Y26086D01*
X7427Y26085D01*
X7423Y26122D01*
X7424D01*
X7424D01*
X7425Y26123D01*
X7427D01*
X7431Y26124D01*
X7437Y26125D01*
X7442Y26127D01*
X7449Y26129D01*
X7455Y26132D01*
X7461Y26135D01*
X7461Y26135D01*
X7463Y26136D01*
X7466Y26139D01*
X7469Y26142D01*
X7473Y26146D01*
X7477Y26151D01*
X7481Y26158D01*
X7484Y26165D01*
Y26165D01*
X7485Y26166D01*
X7485Y26167D01*
X7486Y26168D01*
X7487Y26173D01*
X7489Y26178D01*
X7490Y26185D01*
X7492Y26193D01*
X7493Y26202D01*
X7493Y26212D01*
Y26216D01*
X7493Y26220D01*
X7492Y26225D01*
X7491Y26231D01*
X7490Y26238D01*
X7489Y26245D01*
X7486Y26252D01*
X7486Y26253D01*
X7485Y26255D01*
X7483Y26258D01*
X7482Y26262D01*
X7479Y26266D01*
X7476Y26270D01*
X7472Y26275D01*
X7468Y26278D01*
X7467Y26278D01*
X7466Y26279D01*
X7463Y26281D01*
X7460Y26282D01*
X7456Y26284D01*
X7452Y26285D01*
X7447Y26286D01*
X7442Y26287D01*
X7441D01*
X7439D01*
X7437Y26286D01*
X7433Y26286D01*
X7430Y26285D01*
X7425Y26283D01*
X7421Y26281D01*
X7417Y26278D01*
X7417Y26278D01*
X7415Y26276D01*
X7413Y26275D01*
X7411Y26271D01*
X7408Y26268D01*
X7405Y26263D01*
X7402Y26257D01*
X7400Y26251D01*
X7399Y26250D01*
X7399Y26248D01*
X7397Y26245D01*
X7397Y26243D01*
X7396Y26240D01*
X7395Y26236D01*
X7394Y26233D01*
X7393Y26228D01*
X7391Y26223D01*
X7390Y26218D01*
X7388Y26212D01*
X7386Y26205D01*
X7385Y26197D01*
Y26197D01*
X7384Y26195D01*
X7384Y26193D01*
X7383Y26191D01*
X7382Y26187D01*
X7381Y26183D01*
X7379Y26174D01*
X7375Y26165D01*
X7372Y26155D01*
X7369Y26146D01*
X7368Y26142D01*
X7366Y26139D01*
Y26138D01*
X7365Y26138D01*
X7364Y26135D01*
X7361Y26131D01*
X7358Y26127D01*
X7354Y26122D01*
X7349Y26116D01*
X7344Y26111D01*
X7337Y26107D01*
X7337Y26106D01*
X7334Y26105D01*
X7331Y26103D01*
X7327Y26101D01*
X7321Y26100D01*
X7314Y26098D01*
X7307Y26097D01*
X7300Y26096D01*
X7299D01*
X7299D01*
X7298D01*
X7296D01*
X7292Y26097D01*
X7286Y26098D01*
X7279Y26099D01*
X7272Y26101D01*
X7264Y26105D01*
X7257Y26109D01*
X7257D01*
X7256Y26109D01*
X7254Y26112D01*
X7250Y26115D01*
X7246Y26119D01*
X7241Y26124D01*
X7236Y26130D01*
X7231Y26138D01*
X7226Y26147D01*
Y26147D01*
X7226Y26148D01*
X7226Y26150D01*
X7225Y26151D01*
X7224Y26153D01*
X7223Y26157D01*
X7221Y26163D01*
X7219Y26171D01*
X7218Y26181D01*
X7216Y26191D01*
X7216Y26202D01*
Y26208D01*
X7216Y26211D01*
Y26214D01*
X7217Y26223D01*
X7219Y26232D01*
X7221Y26241D01*
X7223Y26252D01*
X7227Y26261D01*
Y26262D01*
X7227Y26263D01*
X7228Y26264D01*
X7229Y26266D01*
X7231Y26270D01*
X7235Y26276D01*
X7240Y26282D01*
X7245Y26289D01*
X7252Y26295D01*
X7259Y26301D01*
X7260D01*
X7260Y26301D01*
X7261Y26302D01*
X7263Y26303D01*
X7267Y26305D01*
X7273Y26308D01*
X7280Y26311D01*
X7288Y26313D01*
X7297Y26315D01*
X7306Y26316D01*
X7309Y26278D01*
X7309D01*
X7308D01*
X7307Y26277D01*
X7305Y26277D01*
X7300Y26275D01*
X7293Y26274D01*
X7286Y26271D01*
X7279Y26267D01*
X7273Y26262D01*
X7267Y26256D01*
X7266Y26255D01*
X7264Y26253D01*
X7262Y26249D01*
X7259Y26243D01*
X7257Y26236D01*
X7254Y26227D01*
X7252Y26216D01*
X7252Y26204D01*
Y26198D01*
X7252Y26195D01*
X7253Y26191D01*
X7254Y26184D01*
X7255Y26175D01*
X7257Y26166D01*
X7261Y26158D01*
X7263Y26154D01*
X7265Y26151D01*
X7266Y26150D01*
X7268Y26148D01*
X7271Y26146D01*
X7274Y26143D01*
X7279Y26140D01*
X7284Y26137D01*
X7290Y26136D01*
X7297Y26135D01*
X7298D01*
X7300D01*
X7303Y26135D01*
X7306Y26136D01*
X7311Y26137D01*
X7315Y26139D01*
X7320Y26142D01*
X7324Y26146D01*
X7324Y26146D01*
X7326Y26149D01*
X7327Y26150D01*
X7328Y26152D01*
X7329Y26155D01*
X7331Y26158D01*
X7332Y26162D01*
X7334Y26166D01*
X7336Y26171D01*
X7338Y26177D01*
X7340Y26183D01*
X7342Y26190D01*
X7344Y26198D01*
X7346Y26206D01*
Y26207D01*
X7346Y26209D01*
X7347Y26211D01*
X7348Y26214D01*
X7348Y26218D01*
X7350Y26223D01*
X7351Y26228D01*
X7352Y26233D01*
X7355Y26244D01*
X7358Y26255D01*
X7360Y26261D01*
X7362Y26265D01*
X7363Y26270D01*
X7365Y26273D01*
Y26274D01*
X7365Y26275D01*
X7366Y26276D01*
X7367Y26278D01*
X7370Y26282D01*
X7373Y26288D01*
X7378Y26295D01*
X7383Y26301D01*
X7389Y26307D01*
X7396Y26313D01*
X7397Y26313D01*
X7399Y26315D01*
X7403Y26316D01*
X7408Y26319D01*
X7414Y26321D01*
X7422Y26323D01*
X7430Y26325D01*
X7439Y26325D01*
X7439D01*
X7440D01*
X7441D01*
X7443D01*
X7448Y26324D01*
D02*
G37*
G36*
X7257Y25957D02*
X7524D01*
Y25917D01*
X7257D01*
Y25817D01*
X7221D01*
Y26057D01*
X7257D01*
Y25957D01*
D02*
G37*
G36*
X7316Y25789D02*
X7319Y25788D01*
X7323Y25788D01*
X7327Y25787D01*
X7332Y25786D01*
X7342Y25783D01*
X7347Y25781D01*
X7353Y25779D01*
X7358Y25775D01*
X7364Y25772D01*
X7369Y25768D01*
X7374Y25764D01*
X7375Y25764D01*
X7375Y25763D01*
X7377Y25761D01*
X7378Y25759D01*
X7380Y25757D01*
X7382Y25753D01*
X7385Y25749D01*
X7387Y25744D01*
X7390Y25738D01*
X7393Y25732D01*
X7395Y25725D01*
X7396Y25716D01*
X7398Y25708D01*
X7400Y25698D01*
X7400Y25687D01*
X7401Y25676D01*
Y25598D01*
X7524D01*
Y25558D01*
X7221D01*
Y25682D01*
X7222Y25689D01*
X7222Y25696D01*
X7223Y25704D01*
X7223Y25712D01*
X7224Y25718D01*
Y25719D01*
X7225Y25722D01*
X7226Y25726D01*
X7227Y25731D01*
X7230Y25737D01*
X7232Y25743D01*
X7235Y25750D01*
X7239Y25755D01*
X7239Y25756D01*
X7240Y25758D01*
X7243Y25761D01*
X7246Y25764D01*
X7250Y25768D01*
X7255Y25772D01*
X7261Y25776D01*
X7268Y25780D01*
X7268Y25780D01*
X7271Y25781D01*
X7275Y25783D01*
X7280Y25785D01*
X7286Y25786D01*
X7293Y25788D01*
X7301Y25789D01*
X7309Y25789D01*
X7309D01*
X7311D01*
X7313D01*
X7316Y25789D01*
D02*
G37*
%LPC*%
G36*
X5454Y25759D02*
X5453D01*
X5453D01*
X5450Y25758D01*
X5446Y25758D01*
X5441Y25757D01*
X5436Y25755D01*
X5430Y25752D01*
X5424Y25748D01*
X5418Y25743D01*
X5418Y25742D01*
X5416Y25740D01*
X5414Y25737D01*
X5411Y25731D01*
X5409Y25724D01*
X5407Y25716D01*
X5405Y25706D01*
X5404Y25694D01*
Y25598D01*
X5505D01*
Y25688D01*
X5504Y25694D01*
X5504Y25700D01*
X5503Y25707D01*
X5502Y25714D01*
X5501Y25721D01*
X5499Y25727D01*
X5499Y25728D01*
X5498Y25730D01*
X5497Y25732D01*
X5495Y25736D01*
X5492Y25740D01*
X5489Y25744D01*
X5485Y25747D01*
X5481Y25751D01*
X5481Y25751D01*
X5479Y25752D01*
X5476Y25753D01*
X5473Y25755D01*
X5469Y25756D01*
X5464Y25758D01*
X5459Y25758D01*
X5454Y25759D01*
D02*
G37*
G36*
X7320Y29483D02*
X7320D01*
X7319D01*
X7317D01*
X7315Y29482D01*
X7312D01*
X7309Y29482D01*
X7302Y29480D01*
X7294Y29479D01*
X7285Y29476D01*
X7277Y29471D01*
X7269Y29465D01*
X7269D01*
X7268Y29465D01*
X7266Y29462D01*
X7263Y29459D01*
X7260Y29454D01*
X7257Y29448D01*
X7254Y29441D01*
X7251Y29433D01*
X7250Y29429D01*
Y29422D01*
X7251Y29420D01*
X7251Y29415D01*
X7253Y29410D01*
X7255Y29403D01*
X7259Y29395D01*
X7264Y29388D01*
X7268Y29384D01*
X7271Y29381D01*
X7271D01*
X7272Y29380D01*
X7273Y29379D01*
X7275Y29378D01*
X7279Y29375D01*
X7285Y29372D01*
X7292Y29368D01*
X7302Y29365D01*
X7312Y29364D01*
X7323Y29363D01*
X7324D01*
X7325D01*
X7326D01*
X7328Y29363D01*
X7331D01*
X7334Y29364D01*
X7340Y29365D01*
X7348Y29367D01*
X7355Y29370D01*
X7363Y29374D01*
X7370Y29380D01*
X7371Y29381D01*
X7373Y29383D01*
X7376Y29387D01*
X7379Y29392D01*
X7382Y29398D01*
X7386Y29406D01*
X7387Y29414D01*
X7388Y29423D01*
Y29426D01*
X7388Y29427D01*
X7387Y29432D01*
X7386Y29438D01*
X7384Y29445D01*
X7381Y29452D01*
X7376Y29459D01*
X7370Y29465D01*
X7369Y29466D01*
X7367Y29468D01*
X7363Y29471D01*
X7357Y29474D01*
X7350Y29477D01*
X7342Y29480D01*
X7332Y29482D01*
X7320Y29483D01*
D02*
G37*
G36*
X7304Y29236D02*
X7304D01*
X7303D01*
X7301Y29236D01*
X7297Y29235D01*
X7292Y29234D01*
X7286Y29232D01*
X7280Y29230D01*
X7275Y29226D01*
X7269Y29220D01*
X7268Y29219D01*
X7267Y29217D01*
X7264Y29214D01*
X7262Y29208D01*
X7259Y29202D01*
X7257Y29193D01*
X7255Y29183D01*
X7255Y29171D01*
Y29076D01*
X7355D01*
Y29166D01*
X7355Y29171D01*
X7354Y29177D01*
X7354Y29184D01*
X7353Y29191D01*
X7351Y29198D01*
X7350Y29204D01*
X7349Y29205D01*
X7348Y29207D01*
X7347Y29209D01*
X7345Y29213D01*
X7343Y29217D01*
X7340Y29221D01*
X7336Y29225D01*
X7331Y29228D01*
X7331Y29228D01*
X7329Y29229D01*
X7327Y29230D01*
X7323Y29232D01*
X7319Y29233D01*
X7315Y29235D01*
X7309Y29236D01*
X7304Y29236D01*
D02*
G37*
G36*
X7388Y28052D02*
X7375D01*
X7374D01*
X7374D01*
X7372D01*
X7368D01*
X7362Y28051D01*
X7357D01*
X7350Y28051D01*
X7342Y28050D01*
X7334Y28050D01*
X7317Y28047D01*
X7309Y28046D01*
X7301Y28044D01*
X7294Y28043D01*
X7287Y28040D01*
X7281Y28037D01*
X7275Y28034D01*
X7275D01*
X7275Y28033D01*
X7273Y28033D01*
X7271Y28031D01*
X7268Y28027D01*
X7263Y28023D01*
X7258Y28016D01*
X7254Y28009D01*
X7253Y28005D01*
X7251Y28000D01*
X7251Y27995D01*
X7250Y27991D01*
Y27988D01*
X7251Y27986D01*
X7252Y27981D01*
X7253Y27976D01*
X7256Y27969D01*
X7260Y27962D01*
X7262Y27959D01*
X7265Y27955D01*
X7268Y27952D01*
X7272Y27949D01*
X7273D01*
X7274Y27948D01*
X7275Y27947D01*
X7278Y27946D01*
X7281Y27945D01*
X7285Y27943D01*
X7290Y27942D01*
X7296Y27940D01*
X7302Y27938D01*
X7309Y27936D01*
X7318Y27935D01*
X7327Y27933D01*
X7337Y27932D01*
X7349Y27931D01*
X7361Y27931D01*
X7375Y27930D01*
X7375D01*
X7378D01*
X7382D01*
X7387Y27931D01*
X7393D01*
X7400Y27931D01*
X7407Y27932D01*
X7415Y27932D01*
X7432Y27935D01*
X7440Y27936D01*
X7448Y27938D01*
X7455Y27939D01*
X7462Y27942D01*
X7469Y27945D01*
X7474Y27948D01*
X7474D01*
X7475Y27949D01*
X7478Y27951D01*
X7482Y27955D01*
X7486Y27960D01*
X7490Y27966D01*
X7494Y27974D01*
X7497Y27982D01*
X7498Y27986D01*
X7498Y27991D01*
Y27994D01*
X7498Y27995D01*
X7497Y28000D01*
X7495Y28006D01*
X7492Y28012D01*
X7488Y28020D01*
X7485Y28023D01*
X7482Y28027D01*
X7478Y28030D01*
X7474Y28034D01*
X7473D01*
X7472Y28035D01*
X7471Y28036D01*
X7469Y28036D01*
X7466Y28038D01*
X7462Y28040D01*
X7458Y28041D01*
X7452Y28043D01*
X7446Y28044D01*
X7439Y28046D01*
X7431Y28048D01*
X7422Y28049D01*
X7411Y28050D01*
X7400Y28051D01*
X7388Y28052D01*
D02*
G37*
G36*
X7417Y26719D02*
X7282D01*
X7417Y26624D01*
Y26719D01*
D02*
G37*
G36*
X7428Y26525D02*
X7427D01*
X7427D01*
X7425D01*
X7423Y26525D01*
X7420D01*
X7417Y26524D01*
X7410Y26523D01*
X7402Y26521D01*
X7394Y26518D01*
X7386Y26514D01*
X7379Y26508D01*
X7378Y26507D01*
X7375Y26505D01*
X7373Y26502D01*
X7369Y26497D01*
X7366Y26491D01*
X7363Y26484D01*
X7361Y26476D01*
X7360Y26466D01*
Y26464D01*
X7361Y26462D01*
X7361Y26458D01*
X7362Y26451D01*
X7365Y26445D01*
X7368Y26438D01*
X7372Y26431D01*
X7379Y26424D01*
X7379Y26423D01*
X7382Y26421D01*
X7386Y26418D01*
X7391Y26415D01*
X7398Y26412D01*
X7406Y26409D01*
X7415Y26407D01*
X7426Y26406D01*
X7427D01*
X7429D01*
X7433Y26406D01*
X7438Y26407D01*
X7443Y26408D01*
X7449Y26410D01*
X7456Y26411D01*
X7462Y26414D01*
X7463Y26414D01*
X7466Y26416D01*
X7469Y26417D01*
X7472Y26420D01*
X7476Y26423D01*
X7481Y26427D01*
X7485Y26431D01*
X7489Y26437D01*
X7490Y26438D01*
X7490Y26439D01*
X7492Y26442D01*
X7493Y26446D01*
X7495Y26451D01*
X7497Y26456D01*
X7498Y26462D01*
X7498Y26468D01*
Y26470D01*
X7498Y26472D01*
X7497Y26476D01*
X7496Y26482D01*
X7493Y26488D01*
X7490Y26495D01*
X7486Y26502D01*
X7483Y26505D01*
X7479Y26508D01*
X7479D01*
X7479Y26509D01*
X7476Y26511D01*
X7472Y26514D01*
X7466Y26517D01*
X7459Y26520D01*
X7450Y26523D01*
X7440Y26524D01*
X7428Y26525D01*
D02*
G37*
G36*
X7310Y25748D02*
X7310D01*
X7309D01*
X7307D01*
X7303Y25747D01*
X7299Y25747D01*
X7294Y25746D01*
X7289Y25744D01*
X7283Y25741D01*
X7278Y25738D01*
X7278Y25738D01*
X7276Y25737D01*
X7274Y25734D01*
X7271Y25732D01*
X7268Y25728D01*
X7265Y25723D01*
X7262Y25719D01*
X7260Y25713D01*
Y25713D01*
X7260Y25711D01*
X7259Y25708D01*
X7258Y25705D01*
X7258Y25699D01*
X7257Y25693D01*
X7257Y25685D01*
Y25598D01*
X7365D01*
Y25680D01*
X7365Y25683D01*
Y25686D01*
X7364Y25689D01*
X7363Y25698D01*
X7361Y25707D01*
X7359Y25716D01*
X7355Y25724D01*
X7353Y25728D01*
X7351Y25731D01*
X7350Y25732D01*
X7348Y25734D01*
X7344Y25737D01*
X7340Y25740D01*
X7334Y25743D01*
X7327Y25745D01*
X7320Y25747D01*
X7310Y25748D01*
D02*
G37*
%LPD*%
D12*
X0Y0D02*
Y36900D01*
X36800D01*
Y0D02*
Y36900D01*
X0Y0D02*
X36800D01*
D50*
X7091Y26700D02*
X7082Y26800D01*
X7057Y26897D01*
X7016Y26988D01*
X6959Y27071D01*
X6890Y27143D01*
X6810Y27203D01*
X6720Y27248D01*
X6624Y27277D01*
X6525Y27290D01*
X6425Y27286D01*
X6327Y27265D01*
X6234Y27227D01*
X6149Y27175D01*
X6074Y27109D01*
X6011Y27031D01*
X5962Y26943D01*
X5929Y26849D01*
X5912Y26750D01*
Y26650D01*
X5929Y26551D01*
X5962Y26457D01*
X6011Y26369D01*
X6074Y26291D01*
X6149Y26225D01*
X6234Y26173D01*
X6327Y26135D01*
X6425Y26114D01*
X6525Y26110D01*
X6624Y26123D01*
X6720Y26152D01*
X6810Y26197D01*
X6890Y26257D01*
X6959Y26329D01*
X7016Y26412D01*
X7057Y26503D01*
X7082Y26600D01*
X7091Y26700D01*
X7100Y27940D02*
Y28600D01*
X7650D01*
Y27940D02*
Y28600D01*
X7100Y24800D02*
Y25456D01*
Y24800D02*
X7650D01*
Y25456D01*
X5900Y24800D02*
Y25456D01*
X5350Y24800D02*
X5900D01*
X5350D02*
Y25456D01*
X5900Y27940D02*
Y28600D01*
X5350D02*
X5900D01*
X5350Y27940D02*
Y28600D01*
X5260Y25456D02*
X7744D01*
X5260D02*
Y27940D01*
X7744D01*
Y25456D02*
Y27940D01*
M02*
