M48
;Layer_Color=9474304
;FILE_FORMAT=2:5
INCH,LZ
;TYPE=PLATED
T1F00S00C0.02756
T2F00S00C0.02800
T3F00S00C0.03150
T4F00S00C0.03200
T5F00S00C0.03346
T6F00S00C0.03543
T7F00S00C0.04000
T8F00S00C0.05906
%
T01
X0248366Y0105
X0258366
Y012
X0248366
X0285236Y0115
Y0105
X01835Y01175
X01735
X01325Y011
Y01
X0047Y0191
Y0201
X0031
Y0191
X0014
Y0201
X0092Y0328
Y0338
X0133
Y0328
X01735Y02575
X01835
X0245236Y02675
X0255236
Y02825
X0245236
X0285236Y02775
Y02675
T02
X0172462Y0019662
X01812Y00297
X01809Y0045
X01958Y00482
X02045Y00468
X01977Y00358
X0196007Y00137
X01689Y00375
X02187Y00574
X0212Y00577
X01952Y00621
X01895Y00581
X01712Y00894
X01652Y00872
X01193Y00775
X01569Y01392
X0062Y0174
T03
X0024Y0273
X0034
X0055
Y0329
X0034Y033
X0024
X0065Y0329
Y0273
X0182Y0289
Y0294
Y0299
T04
X008Y009
Y01
Y011
Y012
Y013
Y014
Y015
Y016
Y017
Y018
Y019
Y02
Y021
X011
Y02
Y019
Y018
Y017
Y016
Y015
Y014
Y013
Y012
Y011
Y01
Y009
Y022
X008
T05
X0247736Y0081661
X0287736
X02045Y01425
X01885
X01715
Y01825
Y0193
X01885
Y01825
X02045
Y0193
X0045Y0257
X0013
Y0297
X00125Y0313
X0045
Y0297
Y0353
X00125
X0114Y0294
X01285
X0143
Y0254
X01285
X0114
X01715Y0233
X01885
X02045
X0201Y0285
X0212
Y0325
X0201
X0238366Y02475
X0278366
T06
X0075Y00225
Y00325
Y00425
Y00525
X0085
Y00425
Y00325
Y00225
X0100833
Y00325
Y00425
Y00525
X0110833
Y00425
Y00325
Y00225
X0126667
Y00325
Y00425
Y00525
X0136667
Y00425
Y00325
Y00225
X01525
Y00325
Y00425
Y00525
X01625
Y00425
Y00325
Y00225
X02375Y0020059
X02475
Y0030059
X02375
Y0040059
X02475
Y0050059
X02375
X0265
Y0040059
Y0030059
Y0020059
X02825
Y0030059
Y0040059
Y0050059
X028313Y01375
X027313
X026313
X026813Y0145
X027813
X02295Y0183
Y0193
X0032Y0113
Y0103
X0015
Y0113
X0014Y0232
X0024
X0034
X0044
X026063Y03025
X027063
X028063
X027563Y031
X026563
T07
X0013Y0145
Y0155
X0023
Y0145
X0033
Y0155
T08
X0248917Y018372
Y0195925
Y020813
X02875
Y0195925
Y018372
X0285Y034872
Y0360925
X0246417
Y034872
Y037313
X0285
M30
