G04*
G04 #@! TF.GenerationSoftware,Altium Limited,Altium Designer,19.0.10 (269)*
G04*
G04 Layer_Physical_Order=1*
G04 Layer_Color=255*
%FSLAX24Y24*%
%MOIN*%
G70*
G01*
G75*
%ADD12C,0.0100*%
%ADD17R,0.0571X0.0236*%
G04:AMPARAMS|DCode=18|XSize=57mil|YSize=45mil|CornerRadius=11.3mil|HoleSize=0mil|Usage=FLASHONLY|Rotation=90.000|XOffset=0mil|YOffset=0mil|HoleType=Round|Shape=RoundedRectangle|*
%AMROUNDEDRECTD18*
21,1,0.0570,0.0225,0,0,90.0*
21,1,0.0345,0.0450,0,0,90.0*
1,1,0.0225,0.0113,0.0173*
1,1,0.0225,0.0113,-0.0173*
1,1,0.0225,-0.0113,-0.0173*
1,1,0.0225,-0.0113,0.0173*
%
%ADD18ROUNDEDRECTD18*%
%ADD19R,0.0670X0.0280*%
%ADD20O,0.0551X0.0177*%
%ADD37C,0.0250*%
%ADD38C,0.0472*%
%ADD39R,0.0591X0.0591*%
%ADD40C,0.0591*%
%ADD41P,0.0801X8X202.5*%
%ADD42C,0.0630*%
%ADD43C,0.0551*%
%ADD44O,0.0787X0.0394*%
%ADD45O,0.0787X0.0394*%
%ADD46O,0.1040X0.0520*%
%ADD47R,0.0551X0.0551*%
%ADD48O,0.1079X0.0827*%
%ADD49C,0.0500*%
G36*
X40000Y1750D02*
X0D01*
Y36000D01*
X40000D01*
Y1750D01*
D02*
G37*
%LPC*%
G36*
X36024Y34184D02*
X32087D01*
X32028Y34173D01*
X31978Y34140D01*
X31945Y34090D01*
X31934Y34032D01*
Y32457D01*
X31927Y32447D01*
X31882Y32441D01*
X31757Y32389D01*
X31650Y32307D01*
X31567Y32200D01*
X31516Y32075D01*
X31498Y31941D01*
X31516Y31807D01*
X31567Y31682D01*
X31650Y31575D01*
X31757Y31493D01*
X31882Y31441D01*
X32016Y31423D01*
X32268D01*
X32402Y31441D01*
X32527Y31493D01*
X32634Y31575D01*
X32716Y31682D01*
X32768Y31807D01*
X32786Y31941D01*
X32768Y32075D01*
X32716Y32200D01*
X32634Y32307D01*
X32527Y32389D01*
X32402Y32441D01*
X32268Y32459D01*
X32240D01*
Y33879D01*
X35871D01*
Y32458D01*
X35740Y32441D01*
X35615Y32389D01*
X35508Y32307D01*
X35426Y32200D01*
X35374Y32075D01*
X35356Y31941D01*
X35374Y31807D01*
X35426Y31682D01*
X35508Y31575D01*
X35615Y31493D01*
X35740Y31441D01*
X35874Y31423D01*
X36126D01*
X36260Y31441D01*
X36385Y31493D01*
X36492Y31575D01*
X36574Y31682D01*
X36626Y31807D01*
X36644Y31941D01*
X36626Y32075D01*
X36574Y32200D01*
X36492Y32307D01*
X36385Y32389D01*
X36260Y32441D01*
X36180Y32452D01*
X36177Y32457D01*
Y34032D01*
X36165Y34090D01*
X36132Y34140D01*
X36082Y34173D01*
X36024Y34184D01*
D02*
G37*
G36*
X36126Y31238D02*
X35874D01*
X35740Y31221D01*
X35615Y31169D01*
X35508Y31087D01*
X35426Y30979D01*
X35374Y30854D01*
X35356Y30720D01*
X35374Y30586D01*
X35426Y30462D01*
X35508Y30354D01*
X35615Y30272D01*
X35740Y30220D01*
X35874Y30203D01*
X36126D01*
X36260Y30220D01*
X36385Y30272D01*
X36492Y30354D01*
X36574Y30462D01*
X36626Y30586D01*
X36644Y30720D01*
X36626Y30854D01*
X36574Y30979D01*
X36492Y31087D01*
X36385Y31169D01*
X36260Y31221D01*
X36126Y31238D01*
D02*
G37*
G36*
X32268D02*
X32016D01*
X31882Y31221D01*
X31757Y31169D01*
X31650Y31087D01*
X31567Y30979D01*
X31516Y30854D01*
X31498Y30720D01*
X31516Y30586D01*
X31567Y30462D01*
X31650Y30354D01*
X31757Y30272D01*
X31882Y30220D01*
X32016Y30203D01*
X32268D01*
X32402Y30220D01*
X32527Y30272D01*
X32634Y30354D01*
X32716Y30462D01*
X32768Y30586D01*
X32786Y30720D01*
X32768Y30854D01*
X32716Y30979D01*
X32634Y31087D01*
X32527Y31169D01*
X32402Y31221D01*
X32268Y31238D01*
D02*
G37*
G36*
X27050Y26622D02*
Y26300D01*
X27372D01*
X27366Y26348D01*
X27328Y26439D01*
X27268Y26518D01*
X27189Y26578D01*
X27098Y26616D01*
X27050Y26622D01*
D02*
G37*
G36*
X26950D02*
X26902Y26616D01*
X26811Y26578D01*
X26732Y26518D01*
X26672Y26439D01*
X26634Y26348D01*
X26628Y26300D01*
X26950D01*
Y26622D01*
D02*
G37*
G36*
X27372Y26200D02*
X27050D01*
Y25878D01*
X27098Y25884D01*
X27189Y25922D01*
X27268Y25982D01*
X27328Y26061D01*
X27366Y26152D01*
X27372Y26200D01*
D02*
G37*
G36*
X26950D02*
X26628D01*
X26634Y26152D01*
X26649Y26115D01*
X25642Y25108D01*
X25609Y25059D01*
X25597Y25000D01*
Y24136D01*
X25541Y24112D01*
X25454Y24046D01*
X25388Y23959D01*
X25346Y23858D01*
X25338Y23800D01*
X25750D01*
X26162D01*
X26154Y23858D01*
X26112Y23959D01*
X26046Y24046D01*
X25959Y24112D01*
X25903Y24136D01*
Y24937D01*
X26865Y25899D01*
X26902Y25884D01*
X26950Y25878D01*
Y26200D01*
D02*
G37*
G36*
X34113Y26000D02*
Y25678D01*
X34435D01*
X34429Y25726D01*
X34391Y25817D01*
X34331Y25896D01*
X34252Y25956D01*
X34161Y25994D01*
X34113Y26000D01*
D02*
G37*
G36*
X34013D02*
X33965Y25994D01*
X33874Y25956D01*
X33795Y25896D01*
X33735Y25817D01*
X33697Y25726D01*
X33691Y25678D01*
X34013D01*
Y26000D01*
D02*
G37*
G36*
X34435Y25578D02*
X34113D01*
Y25256D01*
X34161Y25262D01*
X34252Y25300D01*
X34331Y25360D01*
X34391Y25439D01*
X34429Y25530D01*
X34435Y25578D01*
D02*
G37*
G36*
X13600Y31903D02*
X1600D01*
X1541Y31891D01*
X1492Y31858D01*
X462Y30828D01*
X429Y30779D01*
X417Y30720D01*
Y23180D01*
X429Y23121D01*
X462Y23072D01*
X2399Y21135D01*
X2384Y21098D01*
X2378Y21050D01*
X2700D01*
Y21372D01*
X2652Y21366D01*
X2615Y21351D01*
X723Y23243D01*
Y24676D01*
X773Y24701D01*
X811Y24672D01*
X902Y24634D01*
X1000Y24621D01*
X1098Y24634D01*
X1189Y24672D01*
X1268Y24732D01*
X1328Y24811D01*
X1366Y24902D01*
X1379Y25000D01*
X1366Y25098D01*
X1328Y25189D01*
X1268Y25268D01*
X1189Y25328D01*
X1098Y25366D01*
X1000Y25379D01*
X902Y25366D01*
X811Y25328D01*
X773Y25299D01*
X723Y25324D01*
Y26872D01*
X773Y26898D01*
X805Y26877D01*
X887Y26861D01*
X932D01*
X951Y26776D01*
X956Y26764D01*
X959Y26751D01*
X968Y26737D01*
X975Y26722D01*
X985Y26713D01*
X992Y26702D01*
X1006Y26692D01*
X1019Y26681D01*
X1031Y26676D01*
X1041Y26669D01*
X1058Y26665D01*
X1074Y26659D01*
X1087Y26660D01*
X1100Y26657D01*
X7560D01*
X7619Y26669D01*
X7668Y26702D01*
X7801Y26835D01*
X7847Y26815D01*
Y23363D01*
X7740D01*
X7646Y23351D01*
X7558Y23314D01*
X7483Y23257D01*
X7426Y23182D01*
X7389Y23094D01*
X7377Y23000D01*
X7389Y22906D01*
X7426Y22818D01*
X7483Y22743D01*
X7558Y22686D01*
X7646Y22649D01*
X7740Y22637D01*
X8260D01*
X8354Y22649D01*
X8442Y22686D01*
X8517Y22743D01*
X8571Y22813D01*
X8582Y22819D01*
X8631Y22823D01*
X8717Y22737D01*
Y21133D01*
X8667Y21116D01*
X8629Y21141D01*
X8588Y21149D01*
X8574Y21182D01*
X8517Y21257D01*
X8442Y21314D01*
X8354Y21351D01*
X8260Y21363D01*
X8050D01*
Y21000D01*
Y20637D01*
X8260D01*
X8354Y20649D01*
X8442Y20686D01*
X8467Y20705D01*
X8517Y20680D01*
Y20320D01*
X8467Y20295D01*
X8442Y20314D01*
X8354Y20351D01*
X8260Y20363D01*
X7740D01*
X7646Y20351D01*
X7558Y20314D01*
X7483Y20257D01*
X7426Y20182D01*
X7414Y20153D01*
X2700D01*
X2641Y20141D01*
X2592Y20108D01*
X302Y17818D01*
X269Y17769D01*
X257Y17710D01*
Y7497D01*
X269Y7439D01*
X302Y7389D01*
X855Y6836D01*
Y6262D01*
X1645D01*
Y7053D01*
X1071D01*
X563Y7561D01*
Y8563D01*
X609Y8582D01*
X2355Y6836D01*
Y6262D01*
X2821D01*
X3342Y5741D01*
Y5713D01*
X3359Y5625D01*
X3409Y5551D01*
X4060Y4900D01*
X4134Y4851D01*
X4222Y4833D01*
X5905D01*
X5993Y4851D01*
X6067Y4900D01*
X6354Y5187D01*
X6735D01*
X6744Y5197D01*
X8299Y3642D01*
X8349Y3609D01*
X8384Y3602D01*
X8405Y3551D01*
X8468Y3468D01*
X8551Y3405D01*
X8647Y3365D01*
X8750Y3351D01*
X8816Y3360D01*
X9108Y3067D01*
X9182Y3018D01*
X9270Y3000D01*
X10980D01*
X11068Y3018D01*
X11142Y3067D01*
X11434Y3360D01*
X11500Y3351D01*
X11514Y3353D01*
X11523Y3307D01*
X11556Y3257D01*
X11892Y2922D01*
X11941Y2888D01*
X12000Y2877D01*
X13530D01*
X13588Y2888D01*
X13638Y2922D01*
X14100Y3384D01*
X14147Y3365D01*
X14250Y3351D01*
X14316Y3360D01*
X14608Y3067D01*
X14682Y3018D01*
X14770Y3000D01*
X16230D01*
X16318Y3018D01*
X16392Y3067D01*
X16684Y3360D01*
X16750Y3351D01*
X16853Y3365D01*
X16949Y3405D01*
X17032Y3468D01*
X17095Y3551D01*
X17135Y3647D01*
X17149Y3750D01*
X17135Y3853D01*
X17095Y3949D01*
X17032Y4032D01*
X16949Y4095D01*
X16853Y4135D01*
X16750Y4149D01*
X16647Y4135D01*
X16551Y4095D01*
X16468Y4032D01*
X16405Y3949D01*
X16365Y3853D01*
X16351Y3750D01*
X16360Y3684D01*
X16135Y3459D01*
X15645D01*
Y4145D01*
X15403D01*
Y4386D01*
X15449Y4405D01*
X15532Y4468D01*
X15595Y4551D01*
X15635Y4647D01*
X15649Y4750D01*
X15635Y4853D01*
X15595Y4949D01*
X15532Y5032D01*
X15449Y5095D01*
X15445Y5097D01*
X15455Y5147D01*
X15600D01*
X15659Y5159D01*
X15708Y5192D01*
X16309Y5793D01*
X16354Y5771D01*
X16351Y5750D01*
X16365Y5647D01*
X16405Y5551D01*
X16468Y5468D01*
X16551Y5405D01*
X16647Y5365D01*
X16750Y5351D01*
X16853Y5365D01*
X16949Y5405D01*
X17032Y5468D01*
X17095Y5551D01*
X17135Y5647D01*
X17149Y5750D01*
X17135Y5853D01*
X17095Y5949D01*
X17032Y6032D01*
X16949Y6095D01*
X16903Y6114D01*
Y6315D01*
X16949Y6335D01*
X17132Y6152D01*
X17181Y6119D01*
X17240Y6107D01*
X17484D01*
X17501Y6057D01*
X17468Y6032D01*
X17405Y5949D01*
X17365Y5853D01*
X17351Y5750D01*
X17365Y5647D01*
X17405Y5551D01*
X17468Y5468D01*
X17488Y5453D01*
X17471Y5403D01*
X17250D01*
X17191Y5391D01*
X17142Y5358D01*
X16900Y5116D01*
X16853Y5135D01*
X16750Y5149D01*
X16647Y5135D01*
X16551Y5095D01*
X16468Y5032D01*
X16405Y4949D01*
X16365Y4853D01*
X16351Y4750D01*
X16365Y4647D01*
X16405Y4551D01*
X16468Y4468D01*
X16551Y4405D01*
X16647Y4365D01*
X16750Y4351D01*
X16853Y4365D01*
X16949Y4405D01*
X17032Y4468D01*
X17095Y4551D01*
X17135Y4647D01*
X17149Y4750D01*
X17135Y4853D01*
X17116Y4900D01*
X17313Y5097D01*
X17471D01*
X17488Y5047D01*
X17468Y5032D01*
X17405Y4949D01*
X17365Y4853D01*
X17351Y4750D01*
X17365Y4647D01*
X17405Y4551D01*
X17468Y4468D01*
X17551Y4405D01*
X17597Y4386D01*
Y4145D01*
X17355D01*
Y3355D01*
X18145D01*
Y4145D01*
X17903D01*
Y4386D01*
X17949Y4405D01*
X18032Y4468D01*
X18095Y4551D01*
X18135Y4647D01*
X18149Y4750D01*
X18135Y4853D01*
X18095Y4949D01*
X18032Y5032D01*
X18011Y5048D01*
X18023Y5102D01*
X18059Y5109D01*
X18108Y5142D01*
X18608Y5642D01*
X18641Y5691D01*
X18653Y5750D01*
Y6002D01*
X18703Y6041D01*
X18740Y6034D01*
X18877D01*
Y6226D01*
X18977D01*
Y6034D01*
X19114D01*
X19188Y6049D01*
X19225Y6073D01*
X19360D01*
X19419Y6085D01*
X19468Y6118D01*
X19501Y6168D01*
X19513Y6226D01*
Y8785D01*
X19501Y8844D01*
X19468Y8894D01*
X19419Y8927D01*
X19360Y8938D01*
X19328D01*
X19296Y8988D01*
X19296Y8991D01*
X18927D01*
X18558D01*
X18563Y8968D01*
X18599Y8913D01*
X18563Y8860D01*
X18558Y8852D01*
X18509Y8844D01*
X17584Y9768D01*
X17535Y9801D01*
X17476Y9813D01*
X17043D01*
X14903Y11953D01*
Y17079D01*
X14953Y17089D01*
X14956Y17080D01*
X15010Y17010D01*
X15080Y16956D01*
X15097Y16949D01*
Y16250D01*
X15109Y16191D01*
X15142Y16142D01*
X15149Y16135D01*
X15134Y16098D01*
X15128Y16050D01*
X15450D01*
Y16372D01*
X15441Y16371D01*
X15403Y16404D01*
Y16949D01*
X15420Y16956D01*
X15490Y17010D01*
X15544Y17080D01*
X15578Y17162D01*
X15583Y17200D01*
X15250D01*
Y17300D01*
X15583D01*
X15578Y17338D01*
X15544Y17420D01*
X15490Y17490D01*
X15420Y17544D01*
X15403Y17551D01*
Y18699D01*
X15420Y18706D01*
X15490Y18760D01*
X15544Y18830D01*
X15578Y18912D01*
X15583Y18950D01*
X15250D01*
Y19000D01*
X15200D01*
Y19333D01*
X15162Y19328D01*
X15144Y19320D01*
X15098Y19355D01*
X15103Y19390D01*
X15091Y19481D01*
X15056Y19567D01*
X15000Y19640D01*
X14927Y19696D01*
X14841Y19731D01*
X14750Y19743D01*
X14659Y19731D01*
X14573Y19696D01*
X14500Y19640D01*
X14444Y19567D01*
X14409Y19481D01*
X14397Y19390D01*
X14402Y19355D01*
X14356Y19320D01*
X14338Y19328D01*
X14250Y19339D01*
X14162Y19328D01*
X14146Y19321D01*
X13903Y19563D01*
Y19907D01*
X13939Y19922D01*
X14018Y19982D01*
X14078Y20061D01*
X14116Y20152D01*
X14129Y20250D01*
X14116Y20348D01*
X14078Y20439D01*
X14018Y20518D01*
X13939Y20578D01*
X13848Y20616D01*
X13750Y20629D01*
X13652Y20616D01*
X13561Y20578D01*
X13482Y20518D01*
X13422Y20439D01*
X13384Y20348D01*
X13371Y20250D01*
X13384Y20152D01*
X13422Y20061D01*
X13482Y19982D01*
X13561Y19922D01*
X13597Y19907D01*
Y19500D01*
X13609Y19441D01*
X13642Y19392D01*
X13929Y19104D01*
X13922Y19088D01*
X13911Y19000D01*
X13922Y18912D01*
X13956Y18830D01*
X14010Y18760D01*
X14080Y18706D01*
X14162Y18672D01*
X14250Y18661D01*
X14338Y18672D01*
X14420Y18706D01*
X14490Y18760D01*
X14544Y18830D01*
X14547Y18839D01*
X14597Y18829D01*
Y17421D01*
X14547Y17411D01*
X14544Y17420D01*
X14490Y17490D01*
X14420Y17544D01*
X14338Y17578D01*
X14250Y17589D01*
X14162Y17578D01*
X14080Y17544D01*
X14010Y17490D01*
X13956Y17420D01*
X13922Y17338D01*
X13911Y17250D01*
X13922Y17162D01*
X13956Y17080D01*
X14010Y17010D01*
X14080Y16956D01*
X14097Y16949D01*
Y16563D01*
X13885Y16351D01*
X13848Y16366D01*
X13750Y16379D01*
X13652Y16366D01*
X13561Y16328D01*
X13482Y16268D01*
X13422Y16189D01*
X13384Y16098D01*
X13371Y16000D01*
X13384Y15902D01*
X13399Y15865D01*
X13277Y15743D01*
X11580D01*
X11555Y15793D01*
X11574Y15818D01*
X11586Y15847D01*
X12620D01*
X12679Y15859D01*
X12728Y15892D01*
X12988Y16152D01*
X13021Y16201D01*
X13033Y16260D01*
Y27368D01*
X13972Y28307D01*
X13989Y28300D01*
X14077Y28289D01*
X14165Y28300D01*
X14246Y28334D01*
X14317Y28388D01*
X14370Y28458D01*
X14404Y28540D01*
X14416Y28628D01*
X14404Y28716D01*
X14370Y28798D01*
X14317Y28868D01*
X14247Y28921D01*
X14247Y28923D01*
X14258Y28971D01*
X15517D01*
X15756Y28732D01*
X15749Y28716D01*
X15738Y28628D01*
X15749Y28540D01*
X15783Y28458D01*
X15837Y28388D01*
X15907Y28334D01*
X15989Y28300D01*
X16077Y28289D01*
X16165Y28300D01*
X16246Y28334D01*
X16317Y28388D01*
X16370Y28458D01*
X16404Y28540D01*
X16416Y28628D01*
X16404Y28716D01*
X16397Y28732D01*
X16636Y28971D01*
X17896D01*
X17907Y28923D01*
X17906Y28921D01*
X17837Y28868D01*
X17783Y28798D01*
X17749Y28716D01*
X17738Y28628D01*
X17749Y28540D01*
X17783Y28458D01*
X17837Y28388D01*
X17907Y28334D01*
X17924Y28327D01*
Y16843D01*
X17935Y16785D01*
X17969Y16735D01*
X26492Y8211D01*
Y5507D01*
X26476Y5500D01*
X26442Y5492D01*
X26398Y5521D01*
X26339Y5533D01*
X26334D01*
X26310Y5583D01*
X26345Y5629D01*
X26385Y5726D01*
X26399Y5829D01*
X26385Y5932D01*
X26345Y6028D01*
X26282Y6111D01*
X26199Y6174D01*
X26103Y6214D01*
X26000Y6227D01*
X25897Y6214D01*
X25801Y6174D01*
X25718Y6111D01*
X25655Y6028D01*
X25615Y5932D01*
X25602Y5835D01*
X25566Y5811D01*
X25559Y5808D01*
X25103Y6263D01*
Y7340D01*
X25091Y7399D01*
X25058Y7448D01*
X24892Y7614D01*
X24843Y7647D01*
X24784Y7659D01*
X21651D01*
X21619Y7709D01*
X21629Y7762D01*
X21615Y7835D01*
X21578Y7890D01*
X21615Y7944D01*
X21629Y8018D01*
X21619Y8071D01*
X21651Y8121D01*
X24492D01*
X25634Y6978D01*
X25615Y6932D01*
X25608Y6879D01*
X25950D01*
Y7221D01*
X25897Y7214D01*
X25850Y7195D01*
X24663Y8382D01*
X24614Y8415D01*
X24555Y8427D01*
X21651D01*
X21619Y8477D01*
X21629Y8530D01*
X21615Y8603D01*
X21640Y8655D01*
X21674Y8677D01*
X21788Y8792D01*
X21821Y8841D01*
X21833Y8900D01*
Y10940D01*
X21821Y10999D01*
X21788Y11048D01*
X17262Y15574D01*
X17280Y15627D01*
X17336Y15634D01*
X17428Y15672D01*
X17506Y15732D01*
X17566Y15811D01*
X17604Y15902D01*
X17617Y16000D01*
X17604Y16098D01*
X17566Y16189D01*
X17506Y16268D01*
X17428Y16328D01*
X17336Y16366D01*
X17238Y16379D01*
X17140Y16366D01*
X17049Y16328D01*
X17013Y16301D01*
X16963Y16325D01*
Y19925D01*
X17013Y19949D01*
X17049Y19922D01*
X17140Y19884D01*
X17238Y19871D01*
X17336Y19884D01*
X17428Y19922D01*
X17506Y19982D01*
X17566Y20061D01*
X17604Y20152D01*
X17617Y20250D01*
X17604Y20348D01*
X17566Y20439D01*
X17506Y20518D01*
X17428Y20578D01*
X17336Y20616D01*
X17238Y20629D01*
X17140Y20616D01*
X17049Y20578D01*
X16970Y20518D01*
X16910Y20439D01*
X16872Y20348D01*
X16870Y20330D01*
X16823Y20314D01*
X15251Y21885D01*
X15261Y21909D01*
X15273Y22000D01*
X15261Y22091D01*
X15226Y22177D01*
X15170Y22250D01*
X15097Y22306D01*
X15011Y22341D01*
X14920Y22353D01*
X14829Y22341D01*
X14743Y22306D01*
X14670Y22250D01*
X14614Y22177D01*
X14579Y22091D01*
X14567Y22000D01*
X14579Y21909D01*
X14614Y21823D01*
X14670Y21750D01*
X14743Y21694D01*
X14829Y21659D01*
X14920Y21647D01*
X15011Y21659D01*
X15035Y21669D01*
X16657Y20047D01*
Y15810D01*
X16669Y15751D01*
X16702Y15702D01*
X21527Y10877D01*
Y9264D01*
X21477Y9226D01*
X21437Y9234D01*
X21063D01*
X20989Y9219D01*
X20952Y9194D01*
X20627D01*
X20568Y9183D01*
X20519Y9149D01*
X19621Y8252D01*
X19588Y8202D01*
X19576Y8144D01*
Y6238D01*
X19588Y6180D01*
X19621Y6130D01*
X22030Y3721D01*
X22080Y3687D01*
X22139Y3676D01*
X22886D01*
X22905Y3629D01*
X22968Y3547D01*
X23051Y3483D01*
X23147Y3444D01*
X23250Y3430D01*
X23316Y3439D01*
X23608Y3146D01*
X23682Y3097D01*
X23770Y3079D01*
X25480D01*
X25568Y3097D01*
X25642Y3146D01*
X25929Y3433D01*
X26179D01*
X26537Y3075D01*
X26587Y3042D01*
X26645Y3031D01*
X28279D01*
X28337Y3042D01*
X28387Y3075D01*
X28503Y3192D01*
X28537Y3241D01*
X28548Y3300D01*
Y4332D01*
X31146Y6929D01*
X31162Y6922D01*
X31250Y6911D01*
X31338Y6922D01*
X31420Y6956D01*
X31490Y7010D01*
X31498Y7021D01*
X35655D01*
X36878Y5798D01*
X36871Y5750D01*
X36884Y5652D01*
X36922Y5561D01*
X36982Y5482D01*
X37061Y5422D01*
X37152Y5384D01*
X37250Y5371D01*
X37348Y5384D01*
X37439Y5422D01*
X37518Y5482D01*
X37578Y5561D01*
X37616Y5652D01*
X37629Y5750D01*
X37622Y5798D01*
X38412Y6588D01*
X38462Y6662D01*
X38479Y6750D01*
Y19703D01*
X38518Y19732D01*
X38578Y19811D01*
X38616Y19902D01*
X38629Y20000D01*
X38616Y20098D01*
X38578Y20189D01*
X38518Y20268D01*
X38439Y20328D01*
X38348Y20366D01*
X38250Y20379D01*
X38152Y20366D01*
X38115Y20351D01*
X35392Y23074D01*
X35391Y23088D01*
X35357Y23170D01*
X35303Y23240D01*
X35233Y23294D01*
X35151Y23328D01*
X35137Y23329D01*
X33939Y24528D01*
Y25219D01*
X33944Y25228D01*
X33986Y25259D01*
X34013Y25256D01*
Y25578D01*
X33691D01*
X33697Y25530D01*
X33735Y25439D01*
X33795Y25360D01*
X33869Y25304D01*
X33869Y25287D01*
X33855Y25254D01*
X33187D01*
Y25041D01*
X33137Y25014D01*
X33129Y25019D01*
X33071Y25031D01*
X32240D01*
Y28913D01*
X32236Y28932D01*
X32262Y28973D01*
X32276Y28983D01*
X32402Y29000D01*
X32527Y29052D01*
X32634Y29134D01*
X32716Y29241D01*
X32768Y29366D01*
X32786Y29500D01*
X32768Y29634D01*
X32716Y29759D01*
X32634Y29866D01*
X32527Y29948D01*
X32402Y30000D01*
X32268Y30018D01*
X32016D01*
X31882Y30000D01*
X31757Y29948D01*
X31650Y29866D01*
X31567Y29759D01*
X31516Y29634D01*
X31498Y29500D01*
X31516Y29366D01*
X31567Y29241D01*
X31650Y29134D01*
X31757Y29052D01*
X31882Y29000D01*
X31906Y28997D01*
X31939Y28942D01*
X31934Y28913D01*
Y24878D01*
X31945Y24819D01*
X31978Y24770D01*
X32028Y24737D01*
X32087Y24725D01*
X33071D01*
X33129Y24737D01*
X33153Y24694D01*
X33155Y24686D01*
X33122Y24653D01*
X29000D01*
X28941Y24641D01*
X28892Y24608D01*
X28415Y24131D01*
X28358Y24154D01*
X28250Y24169D01*
X28142Y24154D01*
X28041Y24112D01*
X27954Y24046D01*
X27888Y23959D01*
X27864Y23903D01*
X27110D01*
X27051Y23891D01*
X27002Y23858D01*
X26577Y23433D01*
X26093D01*
X26068Y23483D01*
X26112Y23541D01*
X26154Y23642D01*
X26162Y23700D01*
X25750D01*
X25338D01*
X25346Y23642D01*
X25388Y23541D01*
X25432Y23483D01*
X25407Y23433D01*
X25093D01*
X25068Y23483D01*
X25112Y23541D01*
X25154Y23642D01*
X25169Y23750D01*
X25154Y23858D01*
X25112Y23959D01*
X25046Y24046D01*
X24959Y24112D01*
X24858Y24154D01*
X24750Y24169D01*
X24642Y24154D01*
X24585Y24131D01*
X23653Y25063D01*
Y25907D01*
X23689Y25922D01*
X23768Y25982D01*
X23828Y26061D01*
X23866Y26152D01*
X23879Y26250D01*
X23866Y26348D01*
X23828Y26439D01*
X23768Y26518D01*
X23689Y26578D01*
X23598Y26616D01*
X23500Y26629D01*
X23402Y26616D01*
X23311Y26578D01*
X23232Y26518D01*
X23172Y26439D01*
X23134Y26348D01*
X23121Y26250D01*
X23134Y26152D01*
X23172Y26061D01*
X23232Y25982D01*
X23311Y25922D01*
X23347Y25907D01*
Y25000D01*
X23359Y24941D01*
X23392Y24892D01*
X24369Y23915D01*
X24346Y23858D01*
X24331Y23750D01*
X24346Y23642D01*
X24388Y23541D01*
X24432Y23483D01*
X24407Y23433D01*
X22593D01*
X22568Y23483D01*
X22612Y23541D01*
X22654Y23642D01*
X22662Y23700D01*
X22250D01*
Y23800D01*
X22662D01*
X22654Y23858D01*
X22612Y23959D01*
X22546Y24046D01*
X22459Y24112D01*
X22403Y24136D01*
Y28848D01*
X22391Y28907D01*
X22358Y28956D01*
X21708Y29606D01*
X21659Y29639D01*
X21600Y29651D01*
X20385D01*
Y29716D01*
X20050D01*
Y29498D01*
X19950D01*
Y29716D01*
X19615D01*
Y29651D01*
X18413D01*
X18404Y29716D01*
X18370Y29798D01*
X18317Y29868D01*
X18246Y29922D01*
X18165Y29956D01*
X18127Y29960D01*
Y29628D01*
X18027D01*
Y29960D01*
X17989Y29956D01*
X17907Y29922D01*
X17837Y29868D01*
X17829Y29857D01*
X16325D01*
X16317Y29868D01*
X16246Y29922D01*
X16165Y29956D01*
X16127Y29960D01*
Y29628D01*
Y29295D01*
X16165Y29300D01*
X16246Y29334D01*
X16317Y29388D01*
X16325Y29399D01*
X17829D01*
X17837Y29388D01*
X17907Y29334D01*
X17925Y29327D01*
X17915Y29277D01*
X16573D01*
X16514Y29265D01*
X16465Y29232D01*
X16181Y28949D01*
X16165Y28956D01*
X16077Y28967D01*
X15989Y28956D01*
X15972Y28949D01*
X15689Y29232D01*
X15639Y29265D01*
X15581Y29277D01*
X14239D01*
X14229Y29327D01*
X14246Y29334D01*
X14317Y29388D01*
X14325Y29399D01*
X15829D01*
X15837Y29388D01*
X15907Y29334D01*
X15989Y29300D01*
X16027Y29295D01*
Y29628D01*
Y29960D01*
X15989Y29956D01*
X15907Y29922D01*
X15837Y29868D01*
X15829Y29857D01*
X14325D01*
X14317Y29868D01*
X14246Y29922D01*
X14230Y29929D01*
Y31273D01*
X14218Y31332D01*
X14185Y31381D01*
X13708Y31858D01*
X13659Y31891D01*
X13600Y31903D01*
D02*
G37*
G36*
X35063Y26007D02*
X34965Y25994D01*
X34874Y25956D01*
X34795Y25896D01*
X34735Y25817D01*
X34697Y25726D01*
X34684Y25628D01*
X34697Y25530D01*
X34735Y25439D01*
X34795Y25360D01*
X34874Y25300D01*
X34965Y25262D01*
X35063Y25249D01*
X35161Y25262D01*
X35252Y25300D01*
X35331Y25360D01*
X35391Y25439D01*
X35429Y25530D01*
X35442Y25628D01*
X35429Y25726D01*
X35391Y25817D01*
X35331Y25896D01*
X35252Y25956D01*
X35161Y25994D01*
X35063Y26007D01*
D02*
G37*
G36*
X36126Y30018D02*
X35874D01*
X35740Y30000D01*
X35615Y29948D01*
X35508Y29866D01*
X35426Y29759D01*
X35374Y29634D01*
X35356Y29500D01*
X35374Y29366D01*
X35426Y29241D01*
X35508Y29134D01*
X35615Y29052D01*
X35740Y29000D01*
X35837Y28987D01*
X35874Y28935D01*
X35874Y28932D01*
X35871Y28913D01*
Y25169D01*
X35821Y25154D01*
X35752Y25206D01*
X35661Y25244D01*
X35563Y25257D01*
X35465Y25244D01*
X35374Y25206D01*
X35295Y25146D01*
X35235Y25067D01*
X35197Y24976D01*
X35184Y24878D01*
X35197Y24780D01*
X35235Y24689D01*
X35295Y24610D01*
X35374Y24550D01*
X35465Y24512D01*
X35563Y24499D01*
X35661Y24512D01*
X35752Y24550D01*
X35831Y24610D01*
X35891Y24689D01*
X35908Y24729D01*
X35956Y24743D01*
X35965Y24737D01*
X36024Y24725D01*
X36082Y24737D01*
X36132Y24770D01*
X36165Y24819D01*
X36177Y24878D01*
Y28913D01*
X36172Y28938D01*
X36207Y28993D01*
X36260Y29000D01*
X36385Y29052D01*
X36492Y29134D01*
X36574Y29241D01*
X36626Y29366D01*
X36644Y29500D01*
X36626Y29634D01*
X36574Y29759D01*
X36492Y29866D01*
X36385Y29948D01*
X36260Y30000D01*
X36126Y30018D01*
D02*
G37*
G36*
X34563Y25257D02*
X34465Y25244D01*
X34374Y25206D01*
X34295Y25146D01*
X34235Y25067D01*
X34197Y24976D01*
X34184Y24878D01*
X34197Y24780D01*
X34235Y24689D01*
X34295Y24610D01*
X34374Y24550D01*
X34465Y24512D01*
X34563Y24499D01*
X34661Y24512D01*
X34752Y24550D01*
X34831Y24610D01*
X34891Y24689D01*
X34929Y24780D01*
X34942Y24878D01*
X34929Y24976D01*
X34891Y25067D01*
X34831Y25146D01*
X34752Y25206D01*
X34661Y25244D01*
X34563Y25257D01*
D02*
G37*
G36*
X17238Y24629D02*
X17140Y24616D01*
X17049Y24578D01*
X16970Y24518D01*
X16910Y24439D01*
X16872Y24348D01*
X16859Y24250D01*
X16872Y24152D01*
X16910Y24061D01*
X16970Y23982D01*
X17049Y23922D01*
X17140Y23884D01*
X17238Y23871D01*
X17336Y23884D01*
X17428Y23922D01*
X17506Y23982D01*
X17566Y24061D01*
X17604Y24152D01*
X17617Y24250D01*
X17604Y24348D01*
X17566Y24439D01*
X17506Y24518D01*
X17428Y24578D01*
X17336Y24616D01*
X17238Y24629D01*
D02*
G37*
G36*
X15500D02*
X15402Y24616D01*
X15311Y24578D01*
X15232Y24518D01*
X15172Y24439D01*
X15134Y24348D01*
X15121Y24250D01*
X15134Y24152D01*
X15172Y24061D01*
X15232Y23982D01*
X15311Y23922D01*
X15402Y23884D01*
X15500Y23871D01*
X15598Y23884D01*
X15689Y23922D01*
X15768Y23982D01*
X15828Y24061D01*
X15866Y24152D01*
X15879Y24250D01*
X15866Y24348D01*
X15828Y24439D01*
X15768Y24518D01*
X15689Y24578D01*
X15598Y24616D01*
X15500Y24629D01*
D02*
G37*
G36*
X13750D02*
X13652Y24616D01*
X13561Y24578D01*
X13482Y24518D01*
X13422Y24439D01*
X13384Y24348D01*
X13371Y24250D01*
X13384Y24152D01*
X13422Y24061D01*
X13482Y23982D01*
X13561Y23922D01*
X13652Y23884D01*
X13750Y23871D01*
X13848Y23884D01*
X13939Y23922D01*
X14018Y23982D01*
X14078Y24061D01*
X14116Y24152D01*
X14129Y24250D01*
X14116Y24348D01*
X14078Y24439D01*
X14018Y24518D01*
X13939Y24578D01*
X13848Y24616D01*
X13750Y24629D01*
D02*
G37*
G36*
X38250Y24379D02*
X38152Y24366D01*
X38061Y24328D01*
X37982Y24268D01*
X37922Y24189D01*
X37884Y24098D01*
X37871Y24000D01*
X37884Y23902D01*
X37922Y23811D01*
X37982Y23732D01*
X38061Y23672D01*
X38152Y23634D01*
X38250Y23621D01*
X38348Y23634D01*
X38439Y23672D01*
X38518Y23732D01*
X38578Y23811D01*
X38616Y23902D01*
X38629Y24000D01*
X38616Y24098D01*
X38578Y24189D01*
X38518Y24268D01*
X38439Y24328D01*
X38348Y24366D01*
X38250Y24379D01*
D02*
G37*
G36*
X8260Y22363D02*
X7740D01*
X7646Y22351D01*
X7558Y22314D01*
X7483Y22257D01*
X7426Y22182D01*
X7389Y22094D01*
X7377Y22000D01*
X7389Y21906D01*
X7426Y21818D01*
X7483Y21743D01*
X7558Y21686D01*
X7646Y21649D01*
X7740Y21637D01*
X8260D01*
X8354Y21649D01*
X8442Y21686D01*
X8517Y21743D01*
X8574Y21818D01*
X8611Y21906D01*
X8623Y22000D01*
X8611Y22094D01*
X8574Y22182D01*
X8517Y22257D01*
X8442Y22314D01*
X8354Y22351D01*
X8260Y22363D01*
D02*
G37*
G36*
X4700Y22450D02*
X4260D01*
X4264Y22423D01*
X4294Y22350D01*
X4333Y22299D01*
X3187Y21153D01*
X3093D01*
X3078Y21189D01*
X3018Y21268D01*
X2939Y21328D01*
X2848Y21366D01*
X2800Y21372D01*
Y21000D01*
Y20628D01*
X2848Y20634D01*
X2939Y20672D01*
X3018Y20732D01*
X3078Y20811D01*
X3093Y20847D01*
X3250D01*
X3309Y20859D01*
X3358Y20892D01*
X4667Y22201D01*
X4700D01*
Y22450D01*
D02*
G37*
G36*
X2750Y25379D02*
X2652Y25366D01*
X2561Y25328D01*
X2482Y25268D01*
X2422Y25189D01*
X2384Y25098D01*
X2371Y25000D01*
X2384Y24902D01*
X2422Y24811D01*
X2482Y24732D01*
X2561Y24672D01*
X2597Y24657D01*
Y23450D01*
X2609Y23391D01*
X2642Y23342D01*
X3092Y22892D01*
X3141Y22859D01*
X3200Y22847D01*
X4296D01*
X4341Y22788D01*
X4359Y22775D01*
Y22725D01*
X4341Y22712D01*
X4294Y22650D01*
X4264Y22577D01*
X4260Y22550D01*
X4750D01*
Y22500D01*
X4800D01*
Y22201D01*
X4947D01*
X5024Y22211D01*
X5097Y22241D01*
X5159Y22288D01*
X5204Y22347D01*
X5317D01*
X6772Y20892D01*
X6821Y20859D01*
X6880Y20847D01*
X7414D01*
X7426Y20818D01*
X7483Y20743D01*
X7558Y20686D01*
X7646Y20649D01*
X7740Y20637D01*
X7950D01*
Y21000D01*
Y21363D01*
X7740D01*
X7646Y21351D01*
X7558Y21314D01*
X7483Y21257D01*
X7426Y21182D01*
X7414Y21153D01*
X6943D01*
X5488Y22608D01*
X5439Y22641D01*
X5380Y22653D01*
X5204D01*
X5159Y22712D01*
X5141Y22725D01*
Y22775D01*
X5159Y22788D01*
X5206Y22850D01*
X5236Y22923D01*
X5246Y23000D01*
X5236Y23077D01*
X5206Y23150D01*
X5159Y23212D01*
X5141Y23225D01*
Y23275D01*
X5159Y23288D01*
X5206Y23350D01*
X5236Y23423D01*
X5246Y23500D01*
X5236Y23577D01*
X5206Y23650D01*
X5159Y23712D01*
X5097Y23759D01*
X5024Y23789D01*
X4947Y23799D01*
X4553D01*
X4476Y23789D01*
X4403Y23759D01*
X4341Y23712D01*
X4294Y23650D01*
X4264Y23577D01*
X4254Y23500D01*
X4264Y23423D01*
X4294Y23350D01*
X4341Y23288D01*
X4359Y23275D01*
Y23225D01*
X4341Y23212D01*
X4296Y23153D01*
X3263D01*
X2903Y23513D01*
Y24657D01*
X2939Y24672D01*
X3018Y24732D01*
X3078Y24811D01*
X3116Y24902D01*
X3129Y25000D01*
X3116Y25098D01*
X3078Y25189D01*
X3018Y25268D01*
X2939Y25328D01*
X2848Y25366D01*
X2750Y25379D01*
D02*
G37*
G36*
X2700Y20950D02*
X2378D01*
X2384Y20902D01*
X2422Y20811D01*
X2482Y20732D01*
X2561Y20672D01*
X2652Y20634D01*
X2700Y20628D01*
Y20950D01*
D02*
G37*
G36*
X1000Y21379D02*
X902Y21366D01*
X811Y21328D01*
X732Y21268D01*
X672Y21189D01*
X634Y21098D01*
X621Y21000D01*
X634Y20902D01*
X672Y20811D01*
X732Y20732D01*
X811Y20672D01*
X902Y20634D01*
X1000Y20621D01*
X1098Y20634D01*
X1189Y20672D01*
X1268Y20732D01*
X1328Y20811D01*
X1366Y20902D01*
X1379Y21000D01*
X1366Y21098D01*
X1328Y21189D01*
X1268Y21268D01*
X1189Y21328D01*
X1098Y21366D01*
X1000Y21379D01*
D02*
G37*
G36*
X15550Y20622D02*
Y20300D01*
X15872D01*
X15866Y20348D01*
X15828Y20439D01*
X15768Y20518D01*
X15689Y20578D01*
X15598Y20616D01*
X15550Y20622D01*
D02*
G37*
G36*
X15450D02*
X15402Y20616D01*
X15311Y20578D01*
X15232Y20518D01*
X15172Y20439D01*
X15134Y20348D01*
X15128Y20300D01*
X15450D01*
Y20622D01*
D02*
G37*
G36*
X15872Y20200D02*
X15500D01*
X15128D01*
X15134Y20152D01*
X15172Y20061D01*
X15232Y19982D01*
X15311Y19922D01*
X15347Y19907D01*
Y19376D01*
X15300Y19335D01*
Y19050D01*
X15583D01*
X15578Y19088D01*
X15571Y19104D01*
X15608Y19142D01*
X15641Y19191D01*
X15653Y19250D01*
Y19907D01*
X15689Y19922D01*
X15768Y19982D01*
X15828Y20061D01*
X15866Y20152D01*
X15872Y20200D01*
D02*
G37*
G36*
X15550Y16372D02*
Y16050D01*
X15872D01*
X15866Y16098D01*
X15828Y16189D01*
X15768Y16268D01*
X15689Y16328D01*
X15598Y16366D01*
X15550Y16372D01*
D02*
G37*
G36*
X15450Y15950D02*
X15128D01*
X15134Y15902D01*
X15172Y15811D01*
X15232Y15732D01*
X15311Y15672D01*
X15402Y15634D01*
X15450Y15628D01*
Y15950D01*
D02*
G37*
G36*
X17238Y12379D02*
X17140Y12366D01*
X17049Y12328D01*
X16970Y12268D01*
X16910Y12189D01*
X16872Y12098D01*
X16859Y12000D01*
X16872Y11902D01*
X16910Y11811D01*
X16970Y11732D01*
X17049Y11672D01*
X17140Y11634D01*
X17238Y11621D01*
X17336Y11634D01*
X17428Y11672D01*
X17506Y11732D01*
X17566Y11811D01*
X17604Y11902D01*
X17617Y12000D01*
X17604Y12098D01*
X17566Y12189D01*
X17506Y12268D01*
X17428Y12328D01*
X17336Y12366D01*
X17238Y12379D01*
D02*
G37*
G36*
X15500D02*
X15402Y12366D01*
X15311Y12328D01*
X15232Y12268D01*
X15172Y12189D01*
X15134Y12098D01*
X15121Y12000D01*
X15134Y11902D01*
X15172Y11811D01*
X15232Y11732D01*
X15311Y11672D01*
X15402Y11634D01*
X15500Y11621D01*
X15598Y11634D01*
X15689Y11672D01*
X15768Y11732D01*
X15828Y11811D01*
X15866Y11902D01*
X15879Y12000D01*
X15866Y12098D01*
X15828Y12189D01*
X15768Y12268D01*
X15689Y12328D01*
X15598Y12366D01*
X15500Y12379D01*
D02*
G37*
G36*
X15872Y15950D02*
X15550D01*
Y15628D01*
X15598Y15634D01*
X15635Y15649D01*
X18767Y12517D01*
Y9234D01*
X18740D01*
X18667Y9219D01*
X18604Y9177D01*
X18563Y9115D01*
X18558Y9091D01*
X18927D01*
X19296D01*
X19292Y9115D01*
X19250Y9177D01*
X19188Y9219D01*
X19114Y9234D01*
X19073D01*
Y12580D01*
X19061Y12639D01*
X19028Y12688D01*
X15851Y15865D01*
X15866Y15902D01*
X15872Y15950D01*
D02*
G37*
G36*
X26050Y7221D02*
Y6879D01*
X26392D01*
X26385Y6932D01*
X26345Y7028D01*
X26282Y7111D01*
X26199Y7174D01*
X26103Y7214D01*
X26050Y7221D01*
D02*
G37*
G36*
X26392Y6779D02*
X26050D01*
Y6437D01*
X26103Y6444D01*
X26199Y6483D01*
X26282Y6547D01*
X26345Y6629D01*
X26385Y6726D01*
X26392Y6779D01*
D02*
G37*
G36*
X25950D02*
X25608D01*
X25615Y6726D01*
X25655Y6629D01*
X25718Y6547D01*
X25801Y6483D01*
X25897Y6444D01*
X25950Y6437D01*
Y6779D01*
D02*
G37*
G36*
X34300Y6583D02*
Y6300D01*
X34583D01*
X34578Y6338D01*
X34544Y6420D01*
X34490Y6490D01*
X34420Y6544D01*
X34338Y6578D01*
X34300Y6583D01*
D02*
G37*
G36*
X31300D02*
Y6300D01*
X31583D01*
X31578Y6338D01*
X31544Y6420D01*
X31490Y6490D01*
X31420Y6544D01*
X31338Y6578D01*
X31300Y6583D01*
D02*
G37*
G36*
X31200D02*
X31162Y6578D01*
X31080Y6544D01*
X31010Y6490D01*
X30956Y6420D01*
X30922Y6338D01*
X30917Y6300D01*
X31200D01*
Y6583D01*
D02*
G37*
G36*
X34200D02*
X34162Y6578D01*
X34080Y6544D01*
X34010Y6490D01*
X33956Y6420D01*
X33922Y6338D01*
X33917Y6300D01*
X34200D01*
Y6583D01*
D02*
G37*
G36*
X34583Y6200D02*
X34300D01*
Y5917D01*
X34338Y5922D01*
X34420Y5956D01*
X34490Y6010D01*
X34544Y6080D01*
X34578Y6162D01*
X34583Y6200D01*
D02*
G37*
G36*
X31583D02*
X31300D01*
Y5917D01*
X31338Y5922D01*
X31420Y5956D01*
X31490Y6010D01*
X31544Y6080D01*
X31578Y6162D01*
X31583Y6200D01*
D02*
G37*
G36*
X31200D02*
X30917D01*
X30922Y6162D01*
X30956Y6080D01*
X31010Y6010D01*
X31080Y5956D01*
X31162Y5922D01*
X31200Y5917D01*
Y6200D01*
D02*
G37*
G36*
X34200D02*
X33917D01*
X33922Y6162D01*
X33956Y6080D01*
X34010Y6010D01*
X34080Y5956D01*
X34162Y5922D01*
X34200Y5917D01*
Y6200D01*
D02*
G37*
G36*
X35250Y6589D02*
X35162Y6578D01*
X35080Y6544D01*
X35010Y6490D01*
X34956Y6420D01*
X34922Y6338D01*
X34911Y6250D01*
X34922Y6162D01*
X34956Y6080D01*
X35010Y6010D01*
X35080Y5956D01*
X35162Y5922D01*
X35250Y5911D01*
X35338Y5922D01*
X35420Y5956D01*
X35490Y6010D01*
X35544Y6080D01*
X35578Y6162D01*
X35589Y6250D01*
X35578Y6338D01*
X35544Y6420D01*
X35490Y6490D01*
X35420Y6544D01*
X35338Y6578D01*
X35250Y6589D01*
D02*
G37*
G36*
X2800Y6050D02*
Y5707D01*
X3142D01*
X3135Y5761D01*
X3095Y5857D01*
X3032Y5939D01*
X2949Y6003D01*
X2853Y6043D01*
X2800Y6050D01*
D02*
G37*
G36*
X1300D02*
Y5707D01*
X1642D01*
X1635Y5761D01*
X1595Y5857D01*
X1532Y5939D01*
X1449Y6003D01*
X1353Y6043D01*
X1300Y6050D01*
D02*
G37*
G36*
X2700D02*
X2647Y6043D01*
X2551Y6003D01*
X2468Y5939D01*
X2405Y5857D01*
X2365Y5761D01*
X2358Y5707D01*
X2700D01*
Y6050D01*
D02*
G37*
G36*
X1200D02*
X1147Y6043D01*
X1051Y6003D01*
X968Y5939D01*
X905Y5857D01*
X865Y5761D01*
X858Y5707D01*
X1200D01*
Y6050D01*
D02*
G37*
G36*
X1642Y5607D02*
X1300D01*
Y5265D01*
X1353Y5272D01*
X1449Y5312D01*
X1532Y5376D01*
X1595Y5458D01*
X1635Y5554D01*
X1642Y5607D01*
D02*
G37*
G36*
X3142D02*
X2800D01*
Y5265D01*
X2853Y5272D01*
X2949Y5312D01*
X3032Y5376D01*
X3095Y5458D01*
X3135Y5554D01*
X3142Y5607D01*
D02*
G37*
G36*
X2700D02*
X2358D01*
X2365Y5554D01*
X2405Y5458D01*
X2468Y5376D01*
X2551Y5312D01*
X2647Y5272D01*
X2700Y5265D01*
Y5607D01*
D02*
G37*
G36*
X1200D02*
X858D01*
X865Y5554D01*
X905Y5458D01*
X968Y5376D01*
X1051Y5312D01*
X1147Y5272D01*
X1200Y5265D01*
Y5607D01*
D02*
G37*
%LPD*%
G36*
X7770Y31547D02*
X7732Y31518D01*
X7672Y31439D01*
X7634Y31348D01*
X7621Y31250D01*
X7634Y31152D01*
X7672Y31061D01*
X7732Y30982D01*
X7811Y30922D01*
X7902Y30884D01*
X8000Y30871D01*
X8098Y30884D01*
X8189Y30922D01*
X8268Y30982D01*
X8297Y31021D01*
X9703D01*
X9732Y30982D01*
X9811Y30922D01*
X9902Y30884D01*
X10000Y30871D01*
X10098Y30884D01*
X10189Y30922D01*
X10268Y30982D01*
X10297Y31021D01*
X11703D01*
X11732Y30982D01*
X11811Y30922D01*
X11847Y30907D01*
Y30850D01*
X11859Y30791D01*
X11892Y30742D01*
X13618Y29016D01*
X13667Y28983D01*
X13726Y28971D01*
X13896D01*
X13907Y28923D01*
X13906Y28921D01*
X13837Y28868D01*
X13783Y28798D01*
X13749Y28716D01*
X13738Y28628D01*
X13749Y28540D01*
X13756Y28524D01*
X12772Y27539D01*
X12739Y27490D01*
X12727Y27431D01*
Y16323D01*
X12557Y16153D01*
X11586D01*
X11574Y16182D01*
X11517Y16257D01*
X11442Y16314D01*
X11354Y16351D01*
X11260Y16363D01*
X10740D01*
X10646Y16351D01*
X10558Y16314D01*
X10533Y16295D01*
X10483Y16320D01*
Y16680D01*
X10533Y16705D01*
X10558Y16686D01*
X10646Y16649D01*
X10740Y16637D01*
X10950D01*
Y17000D01*
Y17363D01*
X10740D01*
X10646Y17351D01*
X10558Y17314D01*
X10533Y17295D01*
X10483Y17320D01*
Y17680D01*
X10533Y17705D01*
X10558Y17686D01*
X10646Y17649D01*
X10740Y17637D01*
X11260D01*
X11354Y17649D01*
X11442Y17686D01*
X11517Y17743D01*
X11574Y17818D01*
X11611Y17906D01*
X11623Y18000D01*
X11611Y18094D01*
X11574Y18182D01*
X11517Y18257D01*
X11442Y18314D01*
X11354Y18351D01*
X11260Y18363D01*
X10740D01*
X10646Y18351D01*
X10558Y18314D01*
X10533Y18295D01*
X10483Y18320D01*
Y18680D01*
X10533Y18705D01*
X10558Y18686D01*
X10646Y18649D01*
X10740Y18637D01*
X11260D01*
X11354Y18649D01*
X11442Y18686D01*
X11517Y18743D01*
X11574Y18818D01*
X11611Y18906D01*
X11623Y19000D01*
X11611Y19094D01*
X11574Y19182D01*
X11517Y19257D01*
X11442Y19314D01*
X11354Y19351D01*
X11260Y19363D01*
X10740D01*
X10646Y19351D01*
X10558Y19314D01*
X10483Y19257D01*
X10426Y19182D01*
X10412Y19149D01*
X10371Y19141D01*
X10322Y19108D01*
X10222Y19008D01*
X10189Y18959D01*
X10177Y18900D01*
Y15800D01*
X10189Y15741D01*
X10222Y15692D01*
X10432Y15482D01*
X10481Y15449D01*
X10540Y15437D01*
X13340D01*
X13399Y15449D01*
X13448Y15482D01*
X13615Y15649D01*
X13652Y15634D01*
X13750Y15621D01*
X13848Y15634D01*
X13939Y15672D01*
X14018Y15732D01*
X14078Y15811D01*
X14116Y15902D01*
X14129Y16000D01*
X14116Y16098D01*
X14101Y16135D01*
X14358Y16392D01*
X14391Y16441D01*
X14403Y16500D01*
Y16949D01*
X14420Y16956D01*
X14490Y17010D01*
X14544Y17080D01*
X14547Y17089D01*
X14597Y17079D01*
Y11890D01*
X14609Y11831D01*
X14642Y11782D01*
X16872Y9552D01*
X16921Y9519D01*
X16980Y9507D01*
X17413D01*
X17537Y9383D01*
X17513Y9336D01*
X17480Y9343D01*
X15240D01*
X15181Y9331D01*
X15132Y9298D01*
X14615Y8781D01*
X14591Y8791D01*
X14500Y8803D01*
X14409Y8791D01*
X14323Y8756D01*
X14250Y8700D01*
X14194Y8627D01*
X14159Y8541D01*
X14147Y8450D01*
X14159Y8359D01*
X14194Y8273D01*
X14250Y8200D01*
X14323Y8144D01*
X14409Y8109D01*
X14500Y8097D01*
X14591Y8109D01*
X14677Y8144D01*
X14750Y8200D01*
X14806Y8273D01*
X14841Y8359D01*
X14853Y8450D01*
X14841Y8541D01*
X14831Y8565D01*
X15303Y9037D01*
X15939D01*
X15956Y8987D01*
X15920Y8960D01*
X15864Y8887D01*
X15829Y8801D01*
X15817Y8710D01*
X15829Y8619D01*
X15864Y8533D01*
X15920Y8460D01*
X15993Y8404D01*
X16079Y8369D01*
X16170Y8357D01*
X16261Y8369D01*
X16285Y8379D01*
X16575Y8089D01*
X16555Y8043D01*
X13600D01*
X13541Y8031D01*
X13492Y7998D01*
X13032Y7538D01*
X12999Y7489D01*
X12987Y7430D01*
Y6515D01*
X12963Y6506D01*
X12890Y6450D01*
X12834Y6377D01*
X12799Y6291D01*
X12787Y6200D01*
X12799Y6109D01*
X12817Y6065D01*
X12803Y6051D01*
X12774Y6038D01*
X12699Y6095D01*
X12603Y6135D01*
X12500Y6149D01*
X12397Y6135D01*
X12301Y6095D01*
X12253Y6059D01*
X12203Y6083D01*
Y6417D01*
X12253Y6441D01*
X12301Y6405D01*
X12397Y6365D01*
X12500Y6351D01*
X12603Y6365D01*
X12699Y6405D01*
X12782Y6468D01*
X12845Y6551D01*
X12885Y6647D01*
X12899Y6750D01*
X12885Y6853D01*
X12845Y6949D01*
X12782Y7032D01*
X12699Y7095D01*
X12603Y7135D01*
X12500Y7149D01*
X12397Y7135D01*
X12301Y7095D01*
X12253Y7059D01*
X12203Y7083D01*
Y14020D01*
X12191Y14079D01*
X12158Y14128D01*
X11768Y14518D01*
X11719Y14551D01*
X11660Y14563D01*
X10463D01*
X9863Y15163D01*
Y20415D01*
X9887Y20424D01*
X9960Y20480D01*
X10016Y20553D01*
X10051Y20639D01*
X10063Y20730D01*
X10051Y20821D01*
X10016Y20907D01*
X9960Y20980D01*
X9887Y21036D01*
X9801Y21071D01*
X9710Y21083D01*
X9619Y21071D01*
X9533Y21036D01*
X9460Y20980D01*
X9404Y20907D01*
X9369Y20821D01*
X9357Y20730D01*
X9369Y20639D01*
X9404Y20553D01*
X9460Y20480D01*
X9533Y20424D01*
X9557Y20415D01*
Y15100D01*
X9569Y15041D01*
X9602Y14992D01*
X10292Y14302D01*
X10341Y14269D01*
X10400Y14257D01*
X10420D01*
X10445Y14207D01*
X10426Y14182D01*
X10389Y14094D01*
X10377Y14000D01*
X10389Y13906D01*
X10426Y13818D01*
X10483Y13743D01*
X10558Y13686D01*
X10646Y13649D01*
X10740Y13637D01*
X11260D01*
X11354Y13649D01*
X11442Y13686D01*
X11517Y13743D01*
X11574Y13818D01*
X11611Y13906D01*
X11623Y14000D01*
X11611Y14094D01*
X11578Y14173D01*
X11587Y14203D01*
X11602Y14228D01*
X11623Y14231D01*
X11897Y13957D01*
Y6955D01*
X11847Y6945D01*
X11845Y6949D01*
X11782Y7032D01*
X11699Y7095D01*
X11603Y7135D01*
X11500Y7149D01*
X11397Y7135D01*
X11301Y7095D01*
X11218Y7032D01*
X11155Y6949D01*
X11115Y6853D01*
X11101Y6750D01*
X11115Y6647D01*
X11155Y6551D01*
X11218Y6468D01*
X11301Y6405D01*
X11347Y6386D01*
Y6114D01*
X11301Y6095D01*
X11218Y6032D01*
X11155Y5949D01*
X11115Y5853D01*
X11101Y5750D01*
X11115Y5647D01*
X11155Y5551D01*
X11218Y5468D01*
X11301Y5405D01*
X11397Y5365D01*
X11500Y5351D01*
X11603Y5365D01*
X11699Y5405D01*
X11782Y5468D01*
X11845Y5551D01*
X11847Y5555D01*
X11897Y5545D01*
Y5200D01*
X11909Y5141D01*
X11942Y5092D01*
X12134Y4900D01*
X12115Y4853D01*
X12101Y4750D01*
X12115Y4647D01*
X12155Y4551D01*
X12218Y4468D01*
X12301Y4405D01*
X12347Y4386D01*
Y4145D01*
X12203D01*
Y4200D01*
X12191Y4259D01*
X12158Y4308D01*
X11866Y4600D01*
X11885Y4647D01*
X11899Y4750D01*
X11885Y4853D01*
X11845Y4949D01*
X11782Y5032D01*
X11699Y5095D01*
X11603Y5135D01*
X11500Y5149D01*
X11397Y5135D01*
X11301Y5095D01*
X11218Y5032D01*
X11155Y4949D01*
X11115Y4853D01*
X11101Y4750D01*
X11115Y4647D01*
X11155Y4551D01*
X11218Y4468D01*
X11301Y4405D01*
X11397Y4365D01*
X11500Y4351D01*
X11603Y4365D01*
X11650Y4384D01*
X11897Y4137D01*
Y3955D01*
X11847Y3945D01*
X11845Y3949D01*
X11782Y4032D01*
X11699Y4095D01*
X11603Y4135D01*
X11500Y4149D01*
X11397Y4135D01*
X11301Y4095D01*
X11218Y4032D01*
X11155Y3949D01*
X11115Y3853D01*
X11101Y3750D01*
X11110Y3684D01*
X10885Y3459D01*
X10145D01*
Y4145D01*
X9903D01*
Y4386D01*
X9949Y4405D01*
X10032Y4468D01*
X10095Y4551D01*
X10135Y4647D01*
X10149Y4750D01*
X10135Y4853D01*
X10095Y4949D01*
X10032Y5032D01*
X9949Y5095D01*
X9853Y5135D01*
X9750Y5149D01*
X9647Y5135D01*
X9551Y5095D01*
X9468Y5032D01*
X9405Y4949D01*
X9365Y4853D01*
X9351Y4750D01*
X9365Y4647D01*
X9405Y4551D01*
X9468Y4468D01*
X9551Y4405D01*
X9597Y4386D01*
Y4145D01*
X9355D01*
Y3535D01*
X9309Y3516D01*
X9140Y3684D01*
X9149Y3750D01*
X9135Y3853D01*
X9095Y3949D01*
X9032Y4032D01*
X8949Y4095D01*
X8853Y4135D01*
X8750Y4149D01*
X8647Y4135D01*
X8551Y4095D01*
X8468Y4032D01*
X8436Y3991D01*
X8386Y3987D01*
X6961Y5413D01*
X6970Y5422D01*
Y5892D01*
X6735Y6127D01*
X6265D01*
X6030Y5892D01*
Y5547D01*
X6020Y5540D01*
X5970Y5567D01*
Y5892D01*
X5735Y6127D01*
X5265D01*
X5030Y5892D01*
Y5422D01*
X5114Y5338D01*
X5095Y5292D01*
X4905D01*
X4886Y5338D01*
X4970Y5422D01*
Y5607D01*
X4500D01*
Y5657D01*
X4450D01*
Y6127D01*
X4265D01*
X4030Y5892D01*
Y5644D01*
X3984Y5625D01*
X3800Y5808D01*
Y5836D01*
X3783Y5924D01*
X3733Y5999D01*
X3145Y6587D01*
Y7053D01*
X2571D01*
X763Y8861D01*
Y15702D01*
X808Y15724D01*
X830Y15706D01*
X912Y15672D01*
X950Y15667D01*
Y16000D01*
Y16333D01*
X912Y16328D01*
X830Y16294D01*
X808Y16276D01*
X763Y16298D01*
Y16547D01*
X896Y16679D01*
X912Y16672D01*
X1000Y16661D01*
X1088Y16672D01*
X1170Y16706D01*
X1240Y16760D01*
X1294Y16830D01*
X1301Y16847D01*
X2699D01*
X2706Y16830D01*
X2760Y16760D01*
X2830Y16706D01*
X2912Y16672D01*
X3000Y16661D01*
X3088Y16672D01*
X3170Y16706D01*
X3240Y16760D01*
X3248Y16771D01*
X4752D01*
X4760Y16760D01*
X4830Y16706D01*
X4912Y16672D01*
X5000Y16661D01*
X5088Y16672D01*
X5170Y16706D01*
X5240Y16760D01*
X5248Y16771D01*
X7462D01*
X7483Y16743D01*
X7558Y16686D01*
X7646Y16649D01*
X7740Y16637D01*
X8260D01*
X8354Y16649D01*
X8442Y16686D01*
X8467Y16705D01*
X8517Y16680D01*
Y16320D01*
X8467Y16295D01*
X8442Y16314D01*
X8354Y16351D01*
X8260Y16363D01*
X8050D01*
Y16000D01*
Y15637D01*
X8260D01*
X8354Y15649D01*
X8442Y15686D01*
X8517Y15743D01*
X8574Y15818D01*
X8588Y15851D01*
X8629Y15859D01*
X8667Y15884D01*
X8717Y15867D01*
Y11033D01*
X8666Y10983D01*
X8622Y11009D01*
X8611Y11094D01*
X8574Y11182D01*
X8517Y11257D01*
X8442Y11314D01*
X8354Y11351D01*
X8260Y11363D01*
X8153D01*
Y11637D01*
X8260D01*
X8354Y11649D01*
X8442Y11686D01*
X8517Y11743D01*
X8574Y11818D01*
X8611Y11906D01*
X8617Y11950D01*
X7383D01*
X7389Y11906D01*
X7426Y11818D01*
X7483Y11743D01*
X7558Y11686D01*
X7646Y11649D01*
X7740Y11637D01*
X7847D01*
Y11363D01*
X7740D01*
X7646Y11351D01*
X7558Y11314D01*
X7483Y11257D01*
X7426Y11182D01*
X7389Y11094D01*
X7383Y11050D01*
X8000D01*
Y10950D01*
X7383D01*
X7389Y10906D01*
X7426Y10818D01*
X7483Y10743D01*
X7536Y10703D01*
X7519Y10653D01*
X7070D01*
X7011Y10641D01*
X6962Y10608D01*
X4392Y8038D01*
X4359Y7989D01*
X4347Y7930D01*
Y7127D01*
X4265D01*
X4030Y6892D01*
Y6422D01*
X4265Y6187D01*
X4735D01*
X4970Y6422D01*
Y6892D01*
X4735Y7127D01*
X4653D01*
Y7867D01*
X7133Y10347D01*
X7519D01*
X7536Y10297D01*
X7483Y10257D01*
X7426Y10182D01*
X7389Y10094D01*
X7377Y10000D01*
X7389Y9906D01*
X7426Y9818D01*
X7483Y9743D01*
X7558Y9686D01*
X7646Y9649D01*
X7740Y9637D01*
X8260D01*
X8354Y9649D01*
X8442Y9686D01*
X8517Y9743D01*
X8574Y9818D01*
X8586Y9847D01*
X9287D01*
X9597Y9537D01*
Y7114D01*
X9551Y7095D01*
X9494Y7052D01*
X9462Y7057D01*
X9436Y7069D01*
X9408Y7111D01*
X9108Y7411D01*
X9059Y7444D01*
X9000Y7455D01*
X7145D01*
X7087Y7444D01*
X7037Y7411D01*
X6744Y7118D01*
X6735Y7127D01*
X6265D01*
X6030Y6892D01*
Y6422D01*
X6265Y6187D01*
X6735D01*
X6970Y6422D01*
Y6892D01*
X6961Y6902D01*
X7208Y7150D01*
X8551D01*
X8561Y7100D01*
X8551Y7095D01*
X8468Y7032D01*
X8405Y6949D01*
X8365Y6853D01*
X8351Y6750D01*
X8365Y6647D01*
X8405Y6551D01*
X8468Y6468D01*
X8551Y6405D01*
X8597Y6386D01*
Y6114D01*
X8551Y6095D01*
X8468Y6032D01*
X8405Y5949D01*
X8365Y5853D01*
X8351Y5750D01*
X8365Y5647D01*
X8405Y5551D01*
X8468Y5468D01*
X8551Y5405D01*
X8647Y5365D01*
X8750Y5351D01*
X8853Y5365D01*
X8949Y5405D01*
X9032Y5468D01*
X9095Y5551D01*
X9135Y5647D01*
X9149Y5750D01*
X9135Y5853D01*
X9095Y5949D01*
X9032Y6032D01*
X8949Y6095D01*
X8903Y6114D01*
Y6386D01*
X8949Y6405D01*
X9032Y6468D01*
X9095Y6551D01*
X9097Y6555D01*
X9147Y6545D01*
Y6400D01*
X9159Y6341D01*
X9192Y6292D01*
X9292Y6192D01*
X9341Y6159D01*
X9400Y6147D01*
X9545D01*
X9555Y6097D01*
X9551Y6095D01*
X9468Y6032D01*
X9405Y5949D01*
X9365Y5853D01*
X9351Y5750D01*
X9365Y5647D01*
X9405Y5551D01*
X9468Y5468D01*
X9551Y5405D01*
X9647Y5365D01*
X9750Y5351D01*
X9853Y5365D01*
X9949Y5405D01*
X10032Y5468D01*
X10095Y5551D01*
X10135Y5647D01*
X10149Y5750D01*
X10135Y5853D01*
X10095Y5949D01*
X10032Y6032D01*
X9949Y6095D01*
X9945Y6097D01*
X9955Y6147D01*
X10000D01*
X10059Y6159D01*
X10108Y6192D01*
X10308Y6392D01*
X10341Y6441D01*
X10353Y6500D01*
Y9863D01*
X10403Y9873D01*
X10426Y9818D01*
X10483Y9743D01*
X10558Y9686D01*
X10646Y9649D01*
X10740Y9637D01*
X10950D01*
Y10000D01*
X11000D01*
Y10050D01*
X11617D01*
X11611Y10094D01*
X11574Y10182D01*
X11517Y10257D01*
X11442Y10314D01*
X11354Y10351D01*
X11260Y10363D01*
X11153D01*
Y10637D01*
X11260D01*
X11354Y10649D01*
X11442Y10686D01*
X11517Y10743D01*
X11574Y10818D01*
X11611Y10906D01*
X11617Y10950D01*
X11000D01*
Y11000D01*
X10950D01*
Y11363D01*
X10740D01*
X10646Y11351D01*
X10558Y11314D01*
X10483Y11257D01*
X10426Y11182D01*
X10403Y11127D01*
X10353Y11137D01*
Y11863D01*
X10403Y11873D01*
X10426Y11818D01*
X10483Y11743D01*
X10558Y11686D01*
X10646Y11649D01*
X10740Y11637D01*
X11260D01*
X11354Y11649D01*
X11442Y11686D01*
X11517Y11743D01*
X11574Y11818D01*
X11611Y11906D01*
X11623Y12000D01*
X11611Y12094D01*
X11574Y12182D01*
X11517Y12257D01*
X11442Y12314D01*
X11354Y12351D01*
X11260Y12363D01*
X10740D01*
X10646Y12351D01*
X10558Y12314D01*
X10483Y12257D01*
X10426Y12182D01*
X10403Y12127D01*
X10353Y12137D01*
Y12737D01*
X10403Y12786D01*
X10453Y12783D01*
X10483Y12743D01*
X10558Y12686D01*
X10646Y12649D01*
X10740Y12637D01*
X11260D01*
X11354Y12649D01*
X11442Y12686D01*
X11517Y12743D01*
X11574Y12818D01*
X11611Y12906D01*
X11623Y13000D01*
X11611Y13094D01*
X11574Y13182D01*
X11517Y13257D01*
X11442Y13314D01*
X11354Y13351D01*
X11260Y13363D01*
X10740D01*
X10646Y13351D01*
X10558Y13314D01*
X10483Y13257D01*
X10426Y13182D01*
X10414Y13153D01*
X10400D01*
X10341Y13141D01*
X10292Y13108D01*
X10092Y12908D01*
X10059Y12859D01*
X10047Y12800D01*
Y7083D01*
X9997Y7059D01*
X9949Y7095D01*
X9903Y7114D01*
Y9600D01*
X9891Y9659D01*
X9858Y9708D01*
X9458Y10108D01*
X9409Y10141D01*
X9350Y10153D01*
X8586D01*
X8574Y10182D01*
X8517Y10257D01*
X8452Y10306D01*
X8456Y10352D01*
X8459Y10359D01*
X8508Y10392D01*
X8978Y10862D01*
X9011Y10911D01*
X9023Y10970D01*
Y22800D01*
X9011Y22859D01*
X8978Y22908D01*
X8778Y23108D01*
X8729Y23141D01*
X8670Y23153D01*
X8586D01*
X8574Y23182D01*
X8517Y23257D01*
X8442Y23314D01*
X8354Y23351D01*
X8260Y23363D01*
X8153D01*
Y26907D01*
X8189Y26922D01*
X8268Y26982D01*
X8328Y27061D01*
X8366Y27152D01*
X8379Y27250D01*
X8366Y27348D01*
X8328Y27439D01*
X8268Y27518D01*
X8189Y27578D01*
X8098Y27616D01*
X8000Y27629D01*
X7902Y27616D01*
X7811Y27578D01*
X7732Y27518D01*
X7672Y27439D01*
X7634Y27348D01*
X7621Y27250D01*
X7634Y27152D01*
X7649Y27115D01*
X7497Y26963D01*
X3115D01*
X3084Y27013D01*
X3097Y27078D01*
Y27200D01*
X2768D01*
X2439D01*
Y27078D01*
X2451Y27013D01*
X2421Y26963D01*
X1347D01*
X1316Y27013D01*
X1329Y27078D01*
Y27422D01*
X1313Y27505D01*
X1266Y27576D01*
X1195Y27623D01*
X1153Y27631D01*
Y30022D01*
X1195Y30031D01*
X1266Y30078D01*
X1313Y30148D01*
X1329Y30231D01*
Y30576D01*
X1313Y30659D01*
X1266Y30729D01*
X1195Y30776D01*
X1112Y30793D01*
X930D01*
X909Y30843D01*
X1663Y31597D01*
X4435D01*
X4455Y31551D01*
X3517Y30613D01*
X3090D01*
X3080Y30659D01*
X3033Y30729D01*
X2963Y30776D01*
X2880Y30793D01*
X2818D01*
Y30404D01*
X2768D01*
Y30354D01*
X2439D01*
Y30231D01*
X2455Y30148D01*
X2502Y30078D01*
X2572Y30031D01*
X2615Y30022D01*
Y27631D01*
X2572Y27623D01*
X2502Y27576D01*
X2455Y27505D01*
X2439Y27422D01*
Y27300D01*
X2768D01*
X3097D01*
Y27422D01*
X3080Y27505D01*
X3033Y27576D01*
X2963Y27623D01*
X2921Y27631D01*
Y30022D01*
X2963Y30031D01*
X3033Y30078D01*
X3080Y30148D01*
X3097Y30231D01*
Y30307D01*
X3580D01*
X3639Y30319D01*
X3688Y30352D01*
X4933Y31597D01*
X7753D01*
X7770Y31547D01*
D02*
G37*
G36*
X13924Y31210D02*
Y29929D01*
X13907Y29922D01*
X13837Y29868D01*
X13783Y29798D01*
X13749Y29716D01*
X13744Y29678D01*
X14077D01*
Y29578D01*
X13744D01*
X13749Y29540D01*
X13783Y29458D01*
X13837Y29388D01*
X13907Y29334D01*
X13925Y29327D01*
X13915Y29277D01*
X13789D01*
X12192Y30875D01*
X12204Y30933D01*
X12268Y30982D01*
X12328Y31061D01*
X12366Y31152D01*
X12379Y31250D01*
X12366Y31348D01*
X12328Y31439D01*
X12268Y31518D01*
X12230Y31547D01*
X12247Y31597D01*
X13537D01*
X13924Y31210D01*
D02*
G37*
G36*
X20540Y28906D02*
X20932D01*
X21597Y28241D01*
Y24057D01*
X21550Y24041D01*
X21546Y24046D01*
X21459Y24112D01*
X21358Y24154D01*
X21250Y24169D01*
X21142Y24154D01*
X21085Y24131D01*
X20153Y25063D01*
Y25907D01*
X20189Y25922D01*
X20268Y25982D01*
X20328Y26061D01*
X20366Y26152D01*
X20379Y26250D01*
X20366Y26348D01*
X20328Y26439D01*
X20268Y26518D01*
X20189Y26578D01*
X20098Y26616D01*
X20000Y26629D01*
X19902Y26616D01*
X19811Y26578D01*
X19732Y26518D01*
X19672Y26439D01*
X19634Y26348D01*
X19621Y26250D01*
X19634Y26152D01*
X19672Y26061D01*
X19732Y25982D01*
X19811Y25922D01*
X19847Y25907D01*
Y25000D01*
X19859Y24941D01*
X19892Y24892D01*
X20869Y23915D01*
X20846Y23858D01*
X20831Y23750D01*
X20846Y23642D01*
X20888Y23541D01*
X20954Y23454D01*
X21041Y23388D01*
X21142Y23346D01*
X21250Y23331D01*
X21358Y23346D01*
X21459Y23388D01*
X21546Y23454D01*
X21561Y23474D01*
X21615Y23462D01*
X21642Y23422D01*
X21892Y23172D01*
X21941Y23139D01*
X22000Y23127D01*
X26640D01*
X26699Y23139D01*
X26748Y23172D01*
X27173Y23597D01*
X27864D01*
X27888Y23541D01*
X27954Y23454D01*
X28041Y23388D01*
X28142Y23346D01*
X28250Y23331D01*
X28358Y23346D01*
X28459Y23388D01*
X28546Y23454D01*
X28612Y23541D01*
X28654Y23642D01*
X28669Y23750D01*
X28654Y23858D01*
X28631Y23915D01*
X29063Y24347D01*
X33500D01*
X34742Y23104D01*
X34735Y23088D01*
X34724Y23000D01*
X34735Y22912D01*
X34769Y22830D01*
X34823Y22760D01*
X34893Y22706D01*
X34975Y22672D01*
X35063Y22661D01*
X35151Y22672D01*
X35233Y22706D01*
X35286Y22747D01*
X37899Y20135D01*
X37884Y20098D01*
X37871Y20000D01*
X37884Y19902D01*
X37922Y19811D01*
X37982Y19732D01*
X38021Y19703D01*
Y6845D01*
X37298Y6122D01*
X37250Y6129D01*
X37202Y6122D01*
X35912Y7412D01*
X35838Y7462D01*
X35750Y7479D01*
X31633D01*
X31614Y7526D01*
X33620Y9532D01*
X34018D01*
Y9359D01*
X34030Y9300D01*
X34063Y9251D01*
X34097Y9217D01*
Y8301D01*
X34080Y8294D01*
X34010Y8240D01*
X33956Y8170D01*
X33922Y8088D01*
X33917Y8050D01*
X34250D01*
X34583D01*
X34578Y8088D01*
X34544Y8170D01*
X34490Y8240D01*
X34420Y8294D01*
X34403Y8301D01*
Y9280D01*
X34391Y9339D01*
X34358Y9388D01*
X34324Y9422D01*
Y9661D01*
X34374Y9678D01*
X34403Y9640D01*
X34482Y9579D01*
X34518Y9564D01*
Y8579D01*
X34530Y8520D01*
X34563Y8471D01*
X34929Y8104D01*
X34922Y8088D01*
X34911Y8000D01*
X34922Y7912D01*
X34956Y7830D01*
X35010Y7760D01*
X35080Y7706D01*
X35162Y7672D01*
X35250Y7661D01*
X35338Y7672D01*
X35420Y7706D01*
X35490Y7760D01*
X35544Y7830D01*
X35578Y7912D01*
X35589Y8000D01*
X35578Y8088D01*
X35544Y8170D01*
X35490Y8240D01*
X35420Y8294D01*
X35338Y8328D01*
X35250Y8339D01*
X35162Y8328D01*
X35146Y8321D01*
X34824Y8642D01*
Y9564D01*
X34861Y9579D01*
X34939Y9640D01*
X34999Y9718D01*
X35037Y9809D01*
X35050Y9907D01*
X35037Y10006D01*
X34999Y10097D01*
X34939Y10175D01*
X34861Y10236D01*
X34769Y10273D01*
X34671Y10286D01*
X34573Y10273D01*
X34482Y10236D01*
X34403Y10175D01*
X34374Y10137D01*
X34324Y10154D01*
Y10314D01*
X34361Y10329D01*
X34439Y10390D01*
X34499Y10468D01*
X34537Y10559D01*
X34544Y10607D01*
X34171D01*
X33799D01*
X33805Y10559D01*
X33843Y10468D01*
X33903Y10390D01*
X33977Y10333D01*
X33977Y10317D01*
X33963Y10283D01*
X33296D01*
Y10070D01*
X33246Y10043D01*
X33238Y10049D01*
X33179Y10060D01*
X32348D01*
Y13943D01*
X32344Y13962D01*
X32370Y14003D01*
X32384Y14013D01*
X32510Y14029D01*
X32635Y14081D01*
X32742Y14163D01*
X32824Y14271D01*
X32876Y14396D01*
X32894Y14530D01*
X32876Y14664D01*
X32824Y14788D01*
X32742Y14896D01*
X32635Y14978D01*
X32510Y15030D01*
X32376Y15047D01*
X32124D01*
X31990Y15030D01*
X31865Y14978D01*
X31758Y14896D01*
X31676Y14788D01*
X31624Y14664D01*
X31606Y14530D01*
X31624Y14396D01*
X31676Y14271D01*
X31758Y14163D01*
X31865Y14081D01*
X31990Y14029D01*
X32015Y14026D01*
X32048Y13971D01*
X32042Y13943D01*
Y9907D01*
X32054Y9849D01*
X32087Y9799D01*
X32136Y9766D01*
X32195Y9755D01*
X33123D01*
X33144Y9705D01*
X31130Y7691D01*
X31081Y7617D01*
X31064Y7531D01*
X31010Y7490D01*
X30956Y7420D01*
X30922Y7338D01*
X30911Y7250D01*
X30922Y7162D01*
X30929Y7146D01*
X28289Y4506D01*
X28116Y4679D01*
X28135Y4726D01*
X28149Y4829D01*
X28135Y4932D01*
X28095Y5028D01*
X28032Y5111D01*
X27949Y5174D01*
X27853Y5214D01*
X27750Y5227D01*
X27647Y5214D01*
X27551Y5174D01*
X27468Y5111D01*
X27405Y5028D01*
X27365Y4932D01*
X27351Y4829D01*
X27365Y4726D01*
X27405Y4629D01*
X27468Y4547D01*
X27551Y4483D01*
X27647Y4444D01*
X27750Y4430D01*
X27853Y4444D01*
X27900Y4463D01*
X28042Y4320D01*
Y4224D01*
X27571D01*
X26798Y4997D01*
Y8275D01*
X26787Y8333D01*
X26753Y8383D01*
X18230Y16907D01*
Y28327D01*
X18246Y28334D01*
X18317Y28388D01*
X18370Y28458D01*
X18377Y28475D01*
X18918D01*
X18926Y28477D01*
X18935Y28476D01*
X19594Y28550D01*
X19615Y28532D01*
Y28532D01*
X20385D01*
Y28968D01*
X20434Y28971D01*
X20540D01*
Y28906D01*
D02*
G37*
G36*
X805Y30031D02*
X847Y30022D01*
Y27631D01*
X805Y27623D01*
X773Y27602D01*
X723Y27628D01*
Y30025D01*
X773Y30052D01*
X805Y30031D01*
D02*
G37*
G36*
X22097Y28785D02*
Y24136D01*
X22041Y24112D01*
X21954Y24046D01*
X21950Y24041D01*
X21903Y24057D01*
Y28304D01*
X21891Y28363D01*
X21858Y28412D01*
X21311Y28960D01*
Y29342D01*
X21359Y29345D01*
X21537D01*
X22097Y28785D01*
D02*
G37*
G36*
X7426Y19818D02*
X7483Y19743D01*
X7558Y19686D01*
X7646Y19649D01*
X7740Y19637D01*
X8260D01*
X8354Y19649D01*
X8442Y19686D01*
X8467Y19705D01*
X8517Y19680D01*
Y19320D01*
X8467Y19295D01*
X8442Y19314D01*
X8354Y19351D01*
X8260Y19363D01*
X7740D01*
X7646Y19351D01*
X7558Y19314D01*
X7483Y19257D01*
X7426Y19182D01*
X7389Y19094D01*
X7377Y19000D01*
X7389Y18906D01*
X7426Y18818D01*
X7483Y18743D01*
X7558Y18686D01*
X7646Y18649D01*
X7740Y18637D01*
X8260D01*
X8354Y18649D01*
X8442Y18686D01*
X8467Y18705D01*
X8517Y18680D01*
Y18320D01*
X8467Y18295D01*
X8442Y18314D01*
X8354Y18351D01*
X8260Y18363D01*
X7740D01*
X7646Y18351D01*
X7558Y18314D01*
X7483Y18257D01*
X7426Y18182D01*
X7389Y18094D01*
X7377Y18000D01*
X7389Y17906D01*
X7426Y17818D01*
X7483Y17743D01*
X7558Y17686D01*
X7646Y17649D01*
X7740Y17637D01*
X8260D01*
X8354Y17649D01*
X8442Y17686D01*
X8467Y17705D01*
X8517Y17680D01*
Y17320D01*
X8467Y17295D01*
X8442Y17314D01*
X8354Y17351D01*
X8260Y17363D01*
X7740D01*
X7646Y17351D01*
X7558Y17314D01*
X7483Y17257D01*
X7462Y17229D01*
X5248D01*
X5240Y17240D01*
X5170Y17294D01*
X5088Y17328D01*
X5000Y17339D01*
X4912Y17328D01*
X4830Y17294D01*
X4760Y17240D01*
X4752Y17229D01*
X3248D01*
X3240Y17240D01*
X3170Y17294D01*
X3088Y17328D01*
X3000Y17339D01*
X2912Y17328D01*
X2830Y17294D01*
X2760Y17240D01*
X2706Y17170D01*
X2699Y17153D01*
X1301D01*
X1294Y17170D01*
X1240Y17240D01*
X1170Y17294D01*
X1088Y17328D01*
X1000Y17339D01*
X912Y17328D01*
X830Y17294D01*
X760Y17240D01*
X706Y17170D01*
X672Y17088D01*
X661Y17000D01*
X672Y16912D01*
X679Y16896D01*
X609Y16825D01*
X563Y16845D01*
Y17647D01*
X2763Y19847D01*
X7414D01*
X7426Y19818D01*
D02*
G37*
G36*
X14956Y18830D02*
X15010Y18760D01*
X15080Y18706D01*
X15097Y18699D01*
Y17551D01*
X15080Y17544D01*
X15010Y17490D01*
X14956Y17420D01*
X14953Y17411D01*
X14903Y17421D01*
Y18829D01*
X14953Y18839D01*
X14956Y18830D01*
D02*
G37*
G36*
X18164Y8290D02*
X18145Y8244D01*
X16852D01*
X16501Y8595D01*
X16511Y8619D01*
X16523Y8710D01*
X16511Y8801D01*
X16476Y8887D01*
X16420Y8960D01*
X16384Y8987D01*
X16401Y9037D01*
X17417D01*
X18164Y8290D01*
D02*
G37*
G36*
X20881Y8838D02*
X20871Y8785D01*
X20885Y8712D01*
X20880Y8699D01*
X20855Y8667D01*
X20811Y8638D01*
X20245Y8071D01*
X20221Y8081D01*
X20130Y8093D01*
X20039Y8081D01*
X19953Y8046D01*
X19950Y8043D01*
X19898Y8066D01*
X19895Y8093D01*
X20690Y8888D01*
X20849D01*
X20881Y8838D01*
D02*
G37*
G36*
X20883Y8214D02*
X20885Y8200D01*
X20922Y8146D01*
X20885Y8091D01*
X20871Y8018D01*
X20885Y7944D01*
X20922Y7890D01*
X20885Y7835D01*
X20871Y7762D01*
X20885Y7688D01*
X20922Y7634D01*
X20885Y7579D01*
X20871Y7506D01*
X20881Y7453D01*
X20874Y7422D01*
X20848Y7399D01*
X20811Y7391D01*
X20762Y7358D01*
X20312Y6908D01*
X20279Y6859D01*
X20268Y6806D01*
X20243Y6796D01*
X20170Y6740D01*
X20114Y6667D01*
X20079Y6581D01*
X20067Y6490D01*
X20079Y6399D01*
X20114Y6313D01*
X20170Y6240D01*
X20243Y6184D01*
X20329Y6149D01*
X20420Y6137D01*
X20511Y6149D01*
X20597Y6184D01*
X20621Y6203D01*
X20671Y6179D01*
Y6100D01*
X20683Y6041D01*
X20716Y5992D01*
X21988Y4721D01*
X22037Y4687D01*
X22096Y4676D01*
X22886D01*
X22905Y4629D01*
X22968Y4547D01*
X23051Y4483D01*
X23147Y4444D01*
X23250Y4430D01*
X23353Y4444D01*
X23449Y4483D01*
X23532Y4547D01*
X23595Y4629D01*
X23635Y4726D01*
X23649Y4829D01*
X23635Y4932D01*
X23595Y5028D01*
X23532Y5111D01*
X23449Y5174D01*
X23353Y5214D01*
X23250Y5227D01*
X23147Y5214D01*
X23051Y5174D01*
X22968Y5111D01*
X22905Y5028D01*
X22886Y4982D01*
X22159D01*
X21153Y5988D01*
X21172Y6034D01*
X21437D01*
X21511Y6049D01*
X21548Y6073D01*
X22789D01*
X22884Y5978D01*
X22865Y5932D01*
X22851Y5829D01*
X22865Y5726D01*
X22905Y5629D01*
X22968Y5547D01*
X23051Y5483D01*
X23147Y5444D01*
X23250Y5430D01*
X23353Y5444D01*
X23449Y5483D01*
X23532Y5547D01*
X23595Y5629D01*
X23635Y5726D01*
X23649Y5829D01*
X23635Y5932D01*
X23595Y6028D01*
X23532Y6111D01*
X23449Y6174D01*
X23403Y6193D01*
Y6464D01*
X23449Y6483D01*
X23532Y6547D01*
X23595Y6629D01*
X23635Y6726D01*
X23649Y6829D01*
X23635Y6932D01*
X23595Y7028D01*
X23558Y7077D01*
X23582Y7127D01*
X23918D01*
X23942Y7077D01*
X23905Y7028D01*
X23865Y6932D01*
X23851Y6829D01*
X23865Y6726D01*
X23905Y6629D01*
X23968Y6547D01*
X24051Y6483D01*
X24147Y6444D01*
X24250Y6430D01*
X24353Y6444D01*
X24449Y6483D01*
X24503Y6524D01*
X24553Y6500D01*
Y6158D01*
X24503Y6133D01*
X24449Y6174D01*
X24353Y6214D01*
X24250Y6227D01*
X24147Y6214D01*
X24051Y6174D01*
X23968Y6111D01*
X23905Y6028D01*
X23865Y5932D01*
X23851Y5829D01*
X23865Y5726D01*
X23905Y5629D01*
X23968Y5547D01*
X24051Y5483D01*
X24147Y5444D01*
X24250Y5430D01*
X24353Y5444D01*
X24449Y5483D01*
X24532Y5547D01*
X24595Y5629D01*
X24635Y5726D01*
X24649Y5829D01*
X24639Y5903D01*
X24686Y5926D01*
X25634Y4978D01*
X25615Y4932D01*
X25601Y4829D01*
X25615Y4726D01*
X25655Y4629D01*
X25718Y4547D01*
X25801Y4483D01*
X25897Y4444D01*
X26000Y4430D01*
X26103Y4444D01*
X26199Y4483D01*
X26242Y4516D01*
X26292Y4492D01*
Y4238D01*
X26281Y4224D01*
X25605D01*
Y3758D01*
X25385Y3538D01*
X24645D01*
Y4224D01*
X24403D01*
Y4464D01*
X24449Y4483D01*
X24532Y4547D01*
X24595Y4629D01*
X24635Y4726D01*
X24649Y4829D01*
X24635Y4932D01*
X24595Y5028D01*
X24532Y5111D01*
X24449Y5174D01*
X24353Y5214D01*
X24250Y5227D01*
X24147Y5214D01*
X24051Y5174D01*
X23968Y5111D01*
X23905Y5028D01*
X23865Y4932D01*
X23851Y4829D01*
X23865Y4726D01*
X23905Y4629D01*
X23968Y4547D01*
X24051Y4483D01*
X24097Y4464D01*
Y4224D01*
X23855D01*
Y3614D01*
X23809Y3595D01*
X23640Y3763D01*
X23649Y3829D01*
X23635Y3932D01*
X23595Y4028D01*
X23532Y4111D01*
X23449Y4174D01*
X23353Y4214D01*
X23250Y4227D01*
X23147Y4214D01*
X23051Y4174D01*
X22968Y4111D01*
X22905Y4028D01*
X22886Y3982D01*
X22202D01*
X19882Y6301D01*
Y7433D01*
X19927Y7455D01*
X19953Y7434D01*
X20039Y7399D01*
X20130Y7387D01*
X20221Y7399D01*
X20307Y7434D01*
X20380Y7490D01*
X20436Y7563D01*
X20471Y7649D01*
X20483Y7740D01*
X20471Y7831D01*
X20461Y7855D01*
X20835Y8228D01*
X20883Y8214D01*
D02*
G37*
G36*
X14341Y7687D02*
X13436Y6782D01*
X13403Y6733D01*
X13391Y6674D01*
Y6511D01*
X13341Y6487D01*
X13317Y6506D01*
X13293Y6515D01*
Y7367D01*
X13663Y7737D01*
X14320D01*
X14341Y7687D01*
D02*
G37*
G36*
X22942Y7077D02*
X22905Y7028D01*
X22865Y6932D01*
X22851Y6829D01*
X22865Y6726D01*
X22905Y6629D01*
X22968Y6547D01*
X23051Y6483D01*
X23097Y6464D01*
Y6263D01*
X23051Y6244D01*
X22961Y6335D01*
X22911Y6368D01*
X22852Y6379D01*
X22519D01*
X22509Y6429D01*
X22517Y6432D01*
X22590Y6489D01*
X22646Y6562D01*
X22681Y6647D01*
X22693Y6738D01*
X22681Y6830D01*
X22646Y6915D01*
X22590Y6988D01*
X22517Y7044D01*
X22431Y7079D01*
X22441Y7127D01*
X22918D01*
X22942Y7077D01*
D02*
G37*
G36*
X16184Y7192D02*
X16159Y7154D01*
X16147Y7095D01*
Y6063D01*
X15660Y5576D01*
X15618Y5605D01*
X15635Y5647D01*
X15649Y5750D01*
X15635Y5853D01*
X15595Y5949D01*
X15532Y6032D01*
X15449Y6095D01*
X15353Y6135D01*
X15250Y6149D01*
X15147Y6135D01*
X15051Y6095D01*
X14968Y6032D01*
X14905Y5949D01*
X14865Y5853D01*
X14851Y5750D01*
X14865Y5647D01*
X14905Y5551D01*
X14941Y5503D01*
X14917Y5453D01*
X14800D01*
X14741Y5441D01*
X14692Y5408D01*
X14400Y5116D01*
X14353Y5135D01*
X14250Y5149D01*
X14147Y5135D01*
X14051Y5095D01*
X13968Y5032D01*
X13905Y4949D01*
X13865Y4853D01*
X13851Y4750D01*
X13865Y4647D01*
X13905Y4551D01*
X13968Y4468D01*
X14051Y4405D01*
X14147Y4365D01*
X14250Y4351D01*
X14353Y4365D01*
X14449Y4405D01*
X14532Y4468D01*
X14595Y4551D01*
X14635Y4647D01*
X14649Y4750D01*
X14635Y4853D01*
X14616Y4900D01*
X14863Y5147D01*
X15045D01*
X15055Y5097D01*
X15051Y5095D01*
X14968Y5032D01*
X14905Y4949D01*
X14865Y4853D01*
X14851Y4750D01*
X14865Y4647D01*
X14905Y4551D01*
X14968Y4468D01*
X15051Y4405D01*
X15097Y4386D01*
Y4145D01*
X14855D01*
Y3535D01*
X14809Y3516D01*
X14640Y3684D01*
X14649Y3750D01*
X14635Y3853D01*
X14595Y3949D01*
X14532Y4032D01*
X14449Y4095D01*
X14353Y4135D01*
X14250Y4149D01*
X14147Y4135D01*
X14051Y4095D01*
X13968Y4032D01*
X13905Y3949D01*
X13865Y3853D01*
X13851Y3750D01*
X13865Y3647D01*
X13884Y3600D01*
X13466Y3183D01*
X13115D01*
X13094Y3233D01*
X13652Y3791D01*
X13685Y3840D01*
X13697Y3899D01*
Y6611D01*
X13805Y6719D01*
X13858Y6701D01*
X13865Y6647D01*
X13905Y6551D01*
X13968Y6468D01*
X14051Y6405D01*
X14097Y6386D01*
Y6114D01*
X14051Y6095D01*
X13968Y6032D01*
X13905Y5949D01*
X13865Y5853D01*
X13851Y5750D01*
X13865Y5647D01*
X13905Y5551D01*
X13968Y5468D01*
X14051Y5405D01*
X14147Y5365D01*
X14250Y5351D01*
X14353Y5365D01*
X14449Y5405D01*
X14532Y5468D01*
X14595Y5551D01*
X14635Y5647D01*
X14649Y5750D01*
X14635Y5853D01*
X14595Y5949D01*
X14532Y6032D01*
X14449Y6095D01*
X14403Y6114D01*
Y6386D01*
X14449Y6405D01*
X14532Y6468D01*
X14595Y6551D01*
X14635Y6647D01*
X14649Y6750D01*
X14635Y6853D01*
X14616Y6900D01*
X14959Y7242D01*
X16167D01*
X16184Y7192D01*
D02*
G37*
G36*
X12963Y5894D02*
X13049Y5859D01*
X13140Y5847D01*
X13231Y5859D01*
X13317Y5894D01*
X13341Y5913D01*
X13391Y5889D01*
Y3962D01*
X12941Y3512D01*
X12895Y3532D01*
Y4145D01*
X12653D01*
Y4386D01*
X12699Y4405D01*
X12782Y4468D01*
X12845Y4551D01*
X12885Y4647D01*
X12899Y4750D01*
X12885Y4853D01*
X12845Y4949D01*
X12782Y5032D01*
X12699Y5095D01*
X12603Y5135D01*
X12500Y5149D01*
X12397Y5135D01*
X12350Y5116D01*
X12203Y5263D01*
Y5417D01*
X12253Y5441D01*
X12301Y5405D01*
X12397Y5365D01*
X12500Y5351D01*
X12603Y5365D01*
X12699Y5405D01*
X12782Y5468D01*
X12845Y5551D01*
X12885Y5647D01*
X12899Y5750D01*
X12885Y5853D01*
X12862Y5909D01*
X12903Y5941D01*
X12963Y5894D01*
D02*
G37*
G36*
X27355Y4008D02*
Y3610D01*
X27309Y3591D01*
X26598Y4302D01*
Y4699D01*
X26644Y4718D01*
X27355Y4008D01*
D02*
G37*
%LPC*%
G36*
X2718Y30793D02*
X2655D01*
X2572Y30776D01*
X2502Y30729D01*
X2455Y30659D01*
X2439Y30576D01*
Y30454D01*
X2718D01*
Y30793D01*
D02*
G37*
G36*
X12000Y27629D02*
X11902Y27616D01*
X11811Y27578D01*
X11732Y27518D01*
X11672Y27439D01*
X11634Y27348D01*
X11621Y27250D01*
X11634Y27152D01*
X11672Y27061D01*
X11732Y26982D01*
X11811Y26922D01*
X11902Y26884D01*
X12000Y26871D01*
X12098Y26884D01*
X12189Y26922D01*
X12268Y26982D01*
X12328Y27061D01*
X12366Y27152D01*
X12379Y27250D01*
X12366Y27348D01*
X12328Y27439D01*
X12268Y27518D01*
X12189Y27578D01*
X12098Y27616D01*
X12000Y27629D01*
D02*
G37*
G36*
X10000D02*
X9902Y27616D01*
X9811Y27578D01*
X9732Y27518D01*
X9672Y27439D01*
X9634Y27348D01*
X9621Y27250D01*
X9634Y27152D01*
X9672Y27061D01*
X9732Y26982D01*
X9811Y26922D01*
X9902Y26884D01*
X10000Y26871D01*
X10098Y26884D01*
X10135Y26899D01*
X11557Y25477D01*
Y23279D01*
X11507Y23264D01*
X11442Y23314D01*
X11354Y23351D01*
X11260Y23363D01*
X10740D01*
X10646Y23351D01*
X10558Y23314D01*
X10483Y23257D01*
X10426Y23182D01*
X10389Y23094D01*
X10377Y23000D01*
X10389Y22906D01*
X10426Y22818D01*
X10483Y22743D01*
X10558Y22686D01*
X10646Y22649D01*
X10740Y22637D01*
X11260D01*
X11354Y22649D01*
X11442Y22686D01*
X11507Y22736D01*
X11557Y22721D01*
Y22279D01*
X11507Y22264D01*
X11442Y22314D01*
X11354Y22351D01*
X11260Y22363D01*
X10740D01*
X10646Y22351D01*
X10558Y22314D01*
X10483Y22257D01*
X10426Y22182D01*
X10389Y22094D01*
X10377Y22000D01*
X10389Y21906D01*
X10426Y21818D01*
X10483Y21743D01*
X10558Y21686D01*
X10646Y21649D01*
X10740Y21637D01*
X11260D01*
X11354Y21649D01*
X11442Y21686D01*
X11517Y21743D01*
X11574Y21818D01*
X11586Y21847D01*
X11610D01*
X11669Y21859D01*
X11718Y21892D01*
X11818Y21992D01*
X11851Y22041D01*
X11863Y22100D01*
Y25540D01*
X11851Y25599D01*
X11818Y25648D01*
X10351Y27115D01*
X10366Y27152D01*
X10379Y27250D01*
X10366Y27348D01*
X10328Y27439D01*
X10268Y27518D01*
X10189Y27578D01*
X10098Y27616D01*
X10000Y27629D01*
D02*
G37*
G36*
X11260Y21363D02*
X10740D01*
X10646Y21351D01*
X10558Y21314D01*
X10483Y21257D01*
X10426Y21182D01*
X10389Y21094D01*
X10377Y21000D01*
X10389Y20906D01*
X10426Y20818D01*
X10483Y20743D01*
X10558Y20686D01*
X10646Y20649D01*
X10740Y20637D01*
X11260D01*
X11354Y20649D01*
X11442Y20686D01*
X11517Y20743D01*
X11574Y20818D01*
X11611Y20906D01*
X11623Y21000D01*
X11611Y21094D01*
X11574Y21182D01*
X11517Y21257D01*
X11442Y21314D01*
X11354Y21351D01*
X11260Y21363D01*
D02*
G37*
G36*
Y20363D02*
X10740D01*
X10646Y20351D01*
X10558Y20314D01*
X10483Y20257D01*
X10426Y20182D01*
X10389Y20094D01*
X10377Y20000D01*
X10389Y19906D01*
X10426Y19818D01*
X10483Y19743D01*
X10558Y19686D01*
X10646Y19649D01*
X10740Y19637D01*
X11260D01*
X11354Y19649D01*
X11442Y19686D01*
X11517Y19743D01*
X11574Y19818D01*
X11611Y19906D01*
X11623Y20000D01*
X11611Y20094D01*
X11574Y20182D01*
X11517Y20257D01*
X11442Y20314D01*
X11354Y20351D01*
X11260Y20363D01*
D02*
G37*
G36*
Y17363D02*
X11050D01*
Y17050D01*
X11617D01*
X11611Y17094D01*
X11574Y17182D01*
X11517Y17257D01*
X11442Y17314D01*
X11354Y17351D01*
X11260Y17363D01*
D02*
G37*
G36*
X11617Y16950D02*
X11050D01*
Y16637D01*
X11260D01*
X11354Y16649D01*
X11442Y16686D01*
X11517Y16743D01*
X11574Y16818D01*
X11611Y16906D01*
X11617Y16950D01*
D02*
G37*
G36*
X7950Y16363D02*
X7740D01*
X7646Y16351D01*
X7558Y16314D01*
X7483Y16257D01*
X7448Y16211D01*
X7448Y16212D01*
X7360Y16229D01*
X5248D01*
X5240Y16240D01*
X5170Y16294D01*
X5088Y16328D01*
X5050Y16333D01*
Y16000D01*
Y15667D01*
X5088Y15672D01*
X5170Y15706D01*
X5240Y15760D01*
X5248Y15771D01*
X7007D01*
Y13200D01*
X7019Y13141D01*
X7052Y13092D01*
X7252Y12892D01*
X7301Y12859D01*
X7360Y12847D01*
X7414D01*
X7426Y12818D01*
X7483Y12743D01*
X7558Y12686D01*
X7646Y12649D01*
X7740Y12637D01*
X7847D01*
Y12363D01*
X7740D01*
X7646Y12351D01*
X7558Y12314D01*
X7483Y12257D01*
X7426Y12182D01*
X7389Y12094D01*
X7383Y12050D01*
X8617D01*
X8611Y12094D01*
X8574Y12182D01*
X8517Y12257D01*
X8442Y12314D01*
X8354Y12351D01*
X8260Y12363D01*
X8153D01*
Y12637D01*
X8260D01*
X8354Y12649D01*
X8442Y12686D01*
X8517Y12743D01*
X8574Y12818D01*
X8611Y12906D01*
X8617Y12950D01*
X8000D01*
Y13000D01*
X7950D01*
Y13363D01*
X7740D01*
X7646Y13351D01*
X7558Y13314D01*
X7483Y13257D01*
X7443Y13204D01*
X7381Y13195D01*
X7313Y13263D01*
Y15737D01*
X7347Y15771D01*
X7360D01*
X7448Y15788D01*
X7448Y15789D01*
X7483Y15743D01*
X7558Y15686D01*
X7646Y15649D01*
X7740Y15637D01*
X7950D01*
Y16000D01*
Y16363D01*
D02*
G37*
G36*
X3050Y16333D02*
Y16000D01*
Y15667D01*
X3088Y15672D01*
X3104Y15679D01*
X3337Y15447D01*
Y15308D01*
X3292Y15286D01*
X3267Y15306D01*
X3181Y15341D01*
X3090Y15353D01*
X2999Y15341D01*
X2913Y15306D01*
X2840Y15250D01*
X2784Y15177D01*
X2749Y15091D01*
X2737Y15000D01*
X2749Y14909D01*
X2784Y14823D01*
X2840Y14750D01*
X2913Y14694D01*
X2937Y14685D01*
Y13970D01*
X2565D01*
Y13490D01*
Y13300D01*
X3000D01*
Y13200D01*
X2565D01*
Y13010D01*
Y12538D01*
X3435D01*
Y12625D01*
X4210D01*
X4269Y12636D01*
X4318Y12669D01*
X5318Y13669D01*
X5341Y13659D01*
X5432Y13647D01*
X5524Y13659D01*
X5609Y13694D01*
X5682Y13750D01*
X5738Y13823D01*
X5773Y13909D01*
X5785Y14000D01*
X5773Y14091D01*
X5738Y14177D01*
X5682Y14250D01*
X5609Y14306D01*
X5524Y14341D01*
X5432Y14353D01*
X5341Y14341D01*
X5256Y14306D01*
X5183Y14250D01*
X5127Y14177D01*
X5091Y14091D01*
X5079Y14000D01*
X5091Y13909D01*
X5101Y13885D01*
X4147Y12931D01*
X3435D01*
Y13133D01*
X3448Y13142D01*
X3598Y13292D01*
X3631Y13341D01*
X3643Y13400D01*
Y15510D01*
X3631Y15569D01*
X3598Y15618D01*
X3492Y15724D01*
X3511Y15771D01*
X4752D01*
X4760Y15760D01*
X4830Y15706D01*
X4912Y15672D01*
X4950Y15667D01*
Y16000D01*
Y16333D01*
X4912Y16328D01*
X4830Y16294D01*
X4760Y16240D01*
X4752Y16229D01*
X3248D01*
X3240Y16240D01*
X3170Y16294D01*
X3088Y16328D01*
X3050Y16333D01*
D02*
G37*
G36*
X1050D02*
Y16000D01*
Y15667D01*
X1088Y15672D01*
X1170Y15706D01*
X1240Y15760D01*
X1248Y15771D01*
X2752D01*
X2760Y15760D01*
X2830Y15706D01*
X2912Y15672D01*
X2950Y15667D01*
Y16000D01*
Y16333D01*
X2912Y16328D01*
X2830Y16294D01*
X2760Y16240D01*
X2752Y16229D01*
X1248D01*
X1240Y16240D01*
X1170Y16294D01*
X1088Y16328D01*
X1050Y16333D01*
D02*
G37*
G36*
X11260Y15363D02*
X10740D01*
X10646Y15351D01*
X10558Y15314D01*
X10483Y15257D01*
X10426Y15182D01*
X10389Y15094D01*
X10377Y15000D01*
X10389Y14906D01*
X10426Y14818D01*
X10483Y14743D01*
X10558Y14686D01*
X10646Y14649D01*
X10740Y14637D01*
X11260D01*
X11354Y14649D01*
X11442Y14686D01*
X11517Y14743D01*
X11574Y14818D01*
X11611Y14906D01*
X11623Y15000D01*
X11611Y15094D01*
X11574Y15182D01*
X11517Y15257D01*
X11442Y15314D01*
X11354Y15351D01*
X11260Y15363D01*
D02*
G37*
G36*
X8260D02*
X7740D01*
X7646Y15351D01*
X7558Y15314D01*
X7483Y15257D01*
X7426Y15182D01*
X7389Y15094D01*
X7377Y15000D01*
X7389Y14906D01*
X7426Y14818D01*
X7483Y14743D01*
X7558Y14686D01*
X7646Y14649D01*
X7740Y14637D01*
X8260D01*
X8354Y14649D01*
X8442Y14686D01*
X8517Y14743D01*
X8574Y14818D01*
X8611Y14906D01*
X8623Y15000D01*
X8611Y15094D01*
X8574Y15182D01*
X8517Y15257D01*
X8442Y15314D01*
X8354Y15351D01*
X8260Y15363D01*
D02*
G37*
G36*
Y14363D02*
X7740D01*
X7646Y14351D01*
X7558Y14314D01*
X7483Y14257D01*
X7426Y14182D01*
X7389Y14094D01*
X7377Y14000D01*
X7389Y13906D01*
X7426Y13818D01*
X7483Y13743D01*
X7558Y13686D01*
X7646Y13649D01*
X7740Y13637D01*
X8260D01*
X8354Y13649D01*
X8442Y13686D01*
X8517Y13743D01*
X8574Y13818D01*
X8611Y13906D01*
X8623Y14000D01*
X8611Y14094D01*
X8574Y14182D01*
X8517Y14257D01*
X8442Y14314D01*
X8354Y14351D01*
X8260Y14363D01*
D02*
G37*
G36*
Y13363D02*
X8050D01*
Y13050D01*
X8617D01*
X8611Y13094D01*
X8574Y13182D01*
X8517Y13257D01*
X8442Y13314D01*
X8354Y13351D01*
X8260Y13363D01*
D02*
G37*
G36*
X13750Y12379D02*
X13652Y12366D01*
X13561Y12328D01*
X13482Y12268D01*
X13422Y12189D01*
X13384Y12098D01*
X13371Y12000D01*
X13384Y11902D01*
X13422Y11811D01*
X13482Y11732D01*
X13561Y11672D01*
X13652Y11634D01*
X13750Y11621D01*
X13848Y11634D01*
X13939Y11672D01*
X14018Y11732D01*
X14078Y11811D01*
X14116Y11902D01*
X14129Y12000D01*
X14116Y12098D01*
X14078Y12189D01*
X14018Y12268D01*
X13939Y12328D01*
X13848Y12366D01*
X13750Y12379D01*
D02*
G37*
G36*
X11260Y11363D02*
X11050D01*
Y11050D01*
X11617D01*
X11611Y11094D01*
X11574Y11182D01*
X11517Y11257D01*
X11442Y11314D01*
X11354Y11351D01*
X11260Y11363D01*
D02*
G37*
G36*
X11617Y9950D02*
X11050D01*
Y9637D01*
X11260D01*
X11354Y9649D01*
X11442Y9686D01*
X11517Y9743D01*
X11574Y9818D01*
X11611Y9906D01*
X11617Y9950D01*
D02*
G37*
G36*
X5735Y7127D02*
X5265D01*
X5030Y6892D01*
Y6422D01*
X5265Y6187D01*
X5735D01*
X5970Y6422D01*
Y6892D01*
X5735Y7127D01*
D02*
G37*
G36*
X4735Y6127D02*
X4550D01*
Y5707D01*
X4970D01*
Y5892D01*
X4735Y6127D01*
D02*
G37*
G36*
X8750Y5149D02*
X8647Y5135D01*
X8551Y5095D01*
X8468Y5032D01*
X8405Y4949D01*
X8365Y4853D01*
X8351Y4750D01*
X8365Y4647D01*
X8405Y4551D01*
X8468Y4468D01*
X8551Y4405D01*
X8647Y4365D01*
X8750Y4351D01*
X8853Y4365D01*
X8949Y4405D01*
X9032Y4468D01*
X9095Y4551D01*
X9135Y4647D01*
X9149Y4750D01*
X9135Y4853D01*
X9095Y4949D01*
X9032Y5032D01*
X8949Y5095D01*
X8853Y5135D01*
X8750Y5149D01*
D02*
G37*
G36*
X29250Y24169D02*
X29142Y24154D01*
X29041Y24112D01*
X28954Y24046D01*
X28888Y23959D01*
X28846Y23858D01*
X28831Y23750D01*
X28846Y23642D01*
X28888Y23541D01*
X28954Y23454D01*
X29041Y23388D01*
X29142Y23346D01*
X29250Y23331D01*
X29358Y23346D01*
X29459Y23388D01*
X29546Y23454D01*
X29612Y23541D01*
X29654Y23642D01*
X29669Y23750D01*
X29654Y23858D01*
X29612Y23959D01*
X29546Y24046D01*
X29459Y24112D01*
X29358Y24154D01*
X29250Y24169D01*
D02*
G37*
G36*
X34113Y23333D02*
Y23050D01*
X34396D01*
X34391Y23088D01*
X34357Y23170D01*
X34303Y23240D01*
X34233Y23294D01*
X34151Y23328D01*
X34113Y23333D01*
D02*
G37*
G36*
X34013D02*
X33975Y23328D01*
X33893Y23294D01*
X33823Y23240D01*
X33769Y23170D01*
X33735Y23088D01*
X33730Y23050D01*
X34013D01*
Y23333D01*
D02*
G37*
G36*
X32500Y22839D02*
X32412Y22828D01*
X32330Y22794D01*
X32260Y22740D01*
X32206Y22670D01*
X32172Y22588D01*
X32161Y22500D01*
X32172Y22412D01*
X32206Y22330D01*
X32260Y22260D01*
X32330Y22206D01*
X32412Y22172D01*
X32500Y22161D01*
X32588Y22172D01*
X32670Y22206D01*
X32740Y22260D01*
X32794Y22330D01*
X32828Y22412D01*
X32839Y22500D01*
X32828Y22588D01*
X32794Y22670D01*
X32740Y22740D01*
X32670Y22794D01*
X32588Y22828D01*
X32500Y22839D01*
D02*
G37*
G36*
X27000Y22629D02*
X26902Y22616D01*
X26811Y22578D01*
X26732Y22518D01*
X26672Y22439D01*
X26634Y22348D01*
X26621Y22250D01*
X26634Y22152D01*
X26672Y22061D01*
X26732Y21982D01*
X26811Y21922D01*
X26902Y21884D01*
X27000Y21871D01*
X27098Y21884D01*
X27189Y21922D01*
X27268Y21982D01*
X27328Y22061D01*
X27366Y22152D01*
X27379Y22250D01*
X27366Y22348D01*
X27328Y22439D01*
X27268Y22518D01*
X27189Y22578D01*
X27098Y22616D01*
X27000Y22629D01*
D02*
G37*
G36*
X23500D02*
X23402Y22616D01*
X23311Y22578D01*
X23232Y22518D01*
X23172Y22439D01*
X23134Y22348D01*
X23121Y22250D01*
X23134Y22152D01*
X23172Y22061D01*
X23232Y21982D01*
X23311Y21922D01*
X23402Y21884D01*
X23500Y21871D01*
X23598Y21884D01*
X23689Y21922D01*
X23768Y21982D01*
X23828Y22061D01*
X23866Y22152D01*
X23879Y22250D01*
X23866Y22348D01*
X23828Y22439D01*
X23768Y22518D01*
X23689Y22578D01*
X23598Y22616D01*
X23500Y22629D01*
D02*
G37*
G36*
X32550Y21833D02*
Y21550D01*
X32833D01*
X32828Y21588D01*
X32794Y21670D01*
X32740Y21740D01*
X32670Y21794D01*
X32588Y21828D01*
X32550Y21833D01*
D02*
G37*
G36*
X32450D02*
X32412Y21828D01*
X32330Y21794D01*
X32260Y21740D01*
X32206Y21670D01*
X32172Y21588D01*
X32167Y21550D01*
X32450D01*
Y21833D01*
D02*
G37*
G36*
X34396Y22950D02*
X33730D01*
X33735Y22912D01*
X33769Y22830D01*
X33823Y22760D01*
X33893Y22706D01*
X33910Y22699D01*
Y21801D01*
X33893Y21794D01*
X33823Y21740D01*
X33769Y21670D01*
X33735Y21588D01*
X33730Y21550D01*
X34063D01*
X34396D01*
X34391Y21588D01*
X34357Y21670D01*
X34303Y21740D01*
X34233Y21794D01*
X34216Y21801D01*
Y22699D01*
X34233Y22706D01*
X34303Y22760D01*
X34357Y22830D01*
X34391Y22912D01*
X34396Y22950D01*
D02*
G37*
G36*
Y21450D02*
X34113D01*
Y21167D01*
X34151Y21172D01*
X34233Y21206D01*
X34303Y21260D01*
X34357Y21330D01*
X34391Y21412D01*
X34396Y21450D01*
D02*
G37*
G36*
X32833D02*
X32550D01*
Y21167D01*
X32588Y21172D01*
X32670Y21206D01*
X32740Y21260D01*
X32794Y21330D01*
X32828Y21412D01*
X32833Y21450D01*
D02*
G37*
G36*
X32450D02*
X32167D01*
X32172Y21412D01*
X32179Y21396D01*
X31452Y20668D01*
X31419Y20619D01*
X31407Y20560D01*
Y16600D01*
X31419Y16541D01*
X31452Y16492D01*
X31682Y16262D01*
X31731Y16229D01*
X31790Y16217D01*
X31807D01*
X31824Y16167D01*
X31758Y16116D01*
X31676Y16009D01*
X31624Y15884D01*
X31606Y15750D01*
X31624Y15616D01*
X31676Y15491D01*
X31758Y15384D01*
X31865Y15302D01*
X31990Y15250D01*
X32124Y15232D01*
X32376D01*
X32510Y15250D01*
X32635Y15302D01*
X32742Y15384D01*
X32824Y15491D01*
X32876Y15616D01*
X32894Y15750D01*
X32876Y15884D01*
X32824Y16009D01*
X32742Y16116D01*
X32676Y16167D01*
X32693Y16217D01*
X33137D01*
X34018Y15335D01*
Y11001D01*
X33982Y10986D01*
X33903Y10925D01*
X33843Y10847D01*
X33805Y10756D01*
X33799Y10707D01*
X34171D01*
X34544D01*
X34537Y10756D01*
X34499Y10847D01*
X34439Y10925D01*
X34361Y10986D01*
X34324Y11001D01*
Y15399D01*
X34313Y15457D01*
X34279Y15507D01*
X33308Y16478D01*
X33259Y16511D01*
X33200Y16523D01*
X32714D01*
X32698Y16570D01*
X32742Y16604D01*
X32824Y16712D01*
X32876Y16836D01*
X32894Y16970D01*
X32876Y17105D01*
X32824Y17229D01*
X32742Y17337D01*
X32635Y17419D01*
X32510Y17471D01*
X32376Y17488D01*
X32348D01*
Y18908D01*
X35979D01*
Y17488D01*
X35848Y17471D01*
X35723Y17419D01*
X35616Y17337D01*
X35534Y17229D01*
X35482Y17105D01*
X35464Y16970D01*
X35482Y16836D01*
X35534Y16712D01*
X35616Y16604D01*
X35723Y16522D01*
X35848Y16470D01*
X35982Y16453D01*
X36234D01*
X36368Y16470D01*
X36493Y16522D01*
X36600Y16604D01*
X36683Y16712D01*
X36734Y16836D01*
X36752Y16970D01*
X36734Y17105D01*
X36683Y17229D01*
X36600Y17337D01*
X36493Y17419D01*
X36368Y17471D01*
X36288Y17481D01*
X36285Y17486D01*
Y19061D01*
X36273Y19120D01*
X36240Y19169D01*
X36190Y19202D01*
X36132Y19214D01*
X32195D01*
X32136Y19202D01*
X32087Y19169D01*
X32054Y19120D01*
X32042Y19061D01*
Y17486D01*
X32035Y17477D01*
X31990Y17471D01*
X31865Y17419D01*
X31763Y17341D01*
X31718Y17350D01*
X31713Y17352D01*
Y20497D01*
X32396Y21179D01*
X32412Y21172D01*
X32450Y21167D01*
Y21450D01*
D02*
G37*
G36*
X34013D02*
X33730D01*
X33735Y21412D01*
X33769Y21330D01*
X33823Y21260D01*
X33893Y21206D01*
X33975Y21172D01*
X34013Y21167D01*
Y21450D01*
D02*
G37*
G36*
X35063Y21839D02*
X34975Y21828D01*
X34893Y21794D01*
X34823Y21740D01*
X34769Y21670D01*
X34735Y21588D01*
X34724Y21500D01*
X34735Y21412D01*
X34769Y21330D01*
X34823Y21260D01*
X34893Y21206D01*
X34975Y21172D01*
X35063Y21161D01*
X35151Y21172D01*
X35233Y21206D01*
X35303Y21260D01*
X35357Y21330D01*
X35391Y21412D01*
X35402Y21500D01*
X35391Y21588D01*
X35357Y21670D01*
X35303Y21740D01*
X35233Y21794D01*
X35151Y21828D01*
X35063Y21839D01*
D02*
G37*
G36*
X20000Y22629D02*
X19902Y22616D01*
X19811Y22578D01*
X19732Y22518D01*
X19672Y22439D01*
X19634Y22348D01*
X19621Y22250D01*
X19634Y22152D01*
X19672Y22061D01*
X19732Y21982D01*
X19811Y21922D01*
X19902Y21884D01*
X20000Y21871D01*
X20098Y21884D01*
X20135Y21899D01*
X20297Y21737D01*
Y19333D01*
X20247Y19309D01*
X20199Y19345D01*
X20103Y19385D01*
X20000Y19399D01*
X19897Y19385D01*
X19801Y19345D01*
X19718Y19282D01*
X19655Y19199D01*
X19615Y19103D01*
X19601Y19000D01*
X19615Y18897D01*
X19655Y18801D01*
X19718Y18718D01*
X19801Y18655D01*
X19897Y18615D01*
X20000Y18601D01*
X20103Y18615D01*
X20199Y18655D01*
X20247Y18691D01*
X20297Y18667D01*
Y18395D01*
X19605D01*
Y17605D01*
X20297D01*
Y17413D01*
X19645Y16761D01*
X19621Y16771D01*
X19530Y16783D01*
X19439Y16771D01*
X19353Y16736D01*
X19280Y16680D01*
X19224Y16607D01*
X19189Y16521D01*
X19177Y16430D01*
X19189Y16339D01*
X19224Y16253D01*
X19280Y16180D01*
X19353Y16124D01*
X19439Y16089D01*
X19530Y16077D01*
X19621Y16089D01*
X19707Y16124D01*
X19780Y16180D01*
X19836Y16253D01*
X19871Y16339D01*
X19883Y16430D01*
X19871Y16521D01*
X19861Y16545D01*
X20558Y17242D01*
X20591Y17291D01*
X20603Y17350D01*
Y21800D01*
X20591Y21859D01*
X20558Y21908D01*
X20351Y22115D01*
X20366Y22152D01*
X20379Y22250D01*
X20366Y22348D01*
X20328Y22439D01*
X20268Y22518D01*
X20189Y22578D01*
X20098Y22616D01*
X20000Y22629D01*
D02*
G37*
G36*
X36234Y16268D02*
X35982D01*
X35848Y16250D01*
X35723Y16198D01*
X35616Y16116D01*
X35534Y16009D01*
X35482Y15884D01*
X35464Y15750D01*
X35482Y15616D01*
X35534Y15491D01*
X35616Y15384D01*
X35723Y15302D01*
X35848Y15250D01*
X35982Y15232D01*
X36234D01*
X36368Y15250D01*
X36493Y15302D01*
X36600Y15384D01*
X36683Y15491D01*
X36734Y15616D01*
X36752Y15750D01*
X36734Y15884D01*
X36683Y16009D01*
X36600Y16116D01*
X36493Y16198D01*
X36368Y16250D01*
X36234Y16268D01*
D02*
G37*
G36*
X35171Y11036D02*
X35073Y11023D01*
X34982Y10986D01*
X34903Y10925D01*
X34843Y10847D01*
X34805Y10756D01*
X34792Y10657D01*
X34805Y10559D01*
X34843Y10468D01*
X34903Y10390D01*
X34982Y10329D01*
X35073Y10292D01*
X35171Y10279D01*
X35269Y10292D01*
X35361Y10329D01*
X35439Y10390D01*
X35499Y10468D01*
X35537Y10559D01*
X35550Y10657D01*
X35537Y10756D01*
X35499Y10847D01*
X35439Y10925D01*
X35361Y10986D01*
X35269Y11023D01*
X35171Y11036D01*
D02*
G37*
G36*
X36234Y15047D02*
X35982D01*
X35848Y15030D01*
X35723Y14978D01*
X35616Y14896D01*
X35534Y14788D01*
X35482Y14664D01*
X35464Y14530D01*
X35482Y14396D01*
X35534Y14271D01*
X35616Y14163D01*
X35723Y14081D01*
X35848Y14029D01*
X35945Y14017D01*
X35983Y13965D01*
X35983Y13962D01*
X35979Y13943D01*
Y10199D01*
X35929Y10183D01*
X35861Y10236D01*
X35769Y10273D01*
X35671Y10286D01*
X35573Y10273D01*
X35482Y10236D01*
X35403Y10175D01*
X35343Y10097D01*
X35305Y10006D01*
X35292Y9907D01*
X35305Y9809D01*
X35343Y9718D01*
X35403Y9640D01*
X35482Y9579D01*
X35573Y9542D01*
X35671Y9529D01*
X35769Y9542D01*
X35861Y9579D01*
X35939Y9640D01*
X35999Y9718D01*
X36016Y9758D01*
X36064Y9773D01*
X36073Y9766D01*
X36132Y9755D01*
X36190Y9766D01*
X36240Y9799D01*
X36273Y9849D01*
X36285Y9907D01*
Y13943D01*
X36280Y13967D01*
X36315Y14022D01*
X36368Y14029D01*
X36493Y14081D01*
X36600Y14163D01*
X36683Y14271D01*
X36734Y14396D01*
X36752Y14530D01*
X36734Y14664D01*
X36683Y14788D01*
X36600Y14896D01*
X36493Y14978D01*
X36368Y15030D01*
X36234Y15047D01*
D02*
G37*
G36*
X37250Y10129D02*
X37152Y10116D01*
X37061Y10078D01*
X36982Y10018D01*
X36922Y9939D01*
X36884Y9848D01*
X36871Y9750D01*
X36884Y9652D01*
X36922Y9561D01*
X36982Y9482D01*
X37061Y9422D01*
X37152Y9384D01*
X37250Y9371D01*
X37348Y9384D01*
X37439Y9422D01*
X37518Y9482D01*
X37578Y9561D01*
X37616Y9652D01*
X37629Y9750D01*
X37616Y9848D01*
X37578Y9939D01*
X37518Y10018D01*
X37439Y10078D01*
X37348Y10116D01*
X37250Y10129D01*
D02*
G37*
G36*
X34583Y7950D02*
X34300D01*
Y7667D01*
X34338Y7672D01*
X34420Y7706D01*
X34490Y7760D01*
X34544Y7830D01*
X34578Y7912D01*
X34583Y7950D01*
D02*
G37*
G36*
X34200D02*
X33917D01*
X33922Y7912D01*
X33956Y7830D01*
X34010Y7760D01*
X34080Y7706D01*
X34162Y7672D01*
X34200Y7667D01*
Y7950D01*
D02*
G37*
G36*
X27800Y7221D02*
Y6879D01*
X28142D01*
X28135Y6932D01*
X28095Y7028D01*
X28032Y7111D01*
X27949Y7174D01*
X27853Y7214D01*
X27800Y7221D01*
D02*
G37*
G36*
X27700D02*
X27647Y7214D01*
X27551Y7174D01*
X27468Y7111D01*
X27405Y7028D01*
X27365Y6932D01*
X27358Y6879D01*
X27700D01*
Y7221D01*
D02*
G37*
G36*
X28142Y6779D02*
X27800D01*
Y6437D01*
X27853Y6444D01*
X27949Y6483D01*
X28032Y6547D01*
X28095Y6629D01*
X28135Y6726D01*
X28142Y6779D01*
D02*
G37*
G36*
X27700D02*
X27358D01*
X27365Y6726D01*
X27405Y6629D01*
X27468Y6547D01*
X27551Y6483D01*
X27647Y6444D01*
X27700Y6437D01*
Y6779D01*
D02*
G37*
G36*
X27750Y6227D02*
X27647Y6214D01*
X27551Y6174D01*
X27468Y6111D01*
X27405Y6028D01*
X27365Y5932D01*
X27351Y5829D01*
X27365Y5726D01*
X27405Y5629D01*
X27468Y5547D01*
X27551Y5483D01*
X27647Y5444D01*
X27750Y5430D01*
X27853Y5444D01*
X27949Y5483D01*
X28032Y5547D01*
X28095Y5629D01*
X28135Y5726D01*
X28149Y5829D01*
X28135Y5932D01*
X28095Y6028D01*
X28032Y6111D01*
X27949Y6174D01*
X27853Y6214D01*
X27750Y6227D01*
D02*
G37*
G36*
X15250Y7149D02*
X15147Y7135D01*
X15051Y7095D01*
X14968Y7032D01*
X14905Y6949D01*
X14865Y6853D01*
X14851Y6750D01*
X14865Y6647D01*
X14905Y6551D01*
X14968Y6468D01*
X15051Y6405D01*
X15147Y6365D01*
X15250Y6351D01*
X15353Y6365D01*
X15449Y6405D01*
X15532Y6468D01*
X15595Y6551D01*
X15635Y6647D01*
X15649Y6750D01*
X15635Y6853D01*
X15595Y6949D01*
X15532Y7032D01*
X15449Y7095D01*
X15353Y7135D01*
X15250Y7149D01*
D02*
G37*
%LPD*%
D12*
X33750Y24500D02*
X38250Y20000D01*
X33563Y24500D02*
X33750D01*
X33185D02*
X33563D01*
X29000D02*
X33185D01*
X18920Y9041D02*
Y12580D01*
X4870Y31750D02*
X13600D01*
X1600D02*
X4870D01*
X2768Y30460D02*
X3580D01*
X3090Y13730D02*
Y15000D01*
X22139Y3829D02*
X23250D01*
X19729Y6238D02*
X22139Y3829D01*
X19729Y6238D02*
Y8144D01*
X20627Y9041D01*
X21250D01*
X20420Y6490D02*
Y6800D01*
X20870Y7250D01*
X21250D01*
X6500Y5657D02*
X8407Y3750D01*
X8750D01*
X610Y8797D02*
X2750Y6657D01*
X610Y8797D02*
Y16610D01*
X1000Y17000D01*
X3000D01*
X11500Y3750D02*
X11664Y3586D01*
Y3366D02*
Y3586D01*
Y3366D02*
X12000Y3030D01*
X13530D01*
X14250Y3750D01*
X26000Y3829D02*
X26645Y3183D01*
X28279D01*
X28395Y3300D01*
Y4395D01*
X31250Y7250D01*
X33563Y24500D02*
X35063Y23000D01*
X33185Y24500D02*
X33563Y24878D01*
X28250Y23750D02*
X29000Y24500D01*
X27110Y23750D02*
X28250D01*
X26640Y23280D02*
X27110Y23750D01*
X22000Y23280D02*
X26640D01*
X21750Y23530D02*
X22000Y23280D01*
X21750Y23530D02*
Y28304D01*
X20930Y29124D02*
X21750Y28304D01*
X20925Y29124D02*
X20930D01*
X16573D02*
X20925D01*
X16077Y28628D02*
X16573Y29124D01*
X15581D02*
X16077Y28628D01*
X13726Y29124D02*
X15581D01*
X12000Y30850D02*
X13726Y29124D01*
X12000Y30850D02*
Y31250D01*
X18077Y28628D02*
X18918D01*
X20000Y28750D01*
X18077Y16843D02*
Y28628D01*
Y16843D02*
X26645Y8275D01*
Y4933D02*
Y8275D01*
Y4933D02*
X27750Y3829D01*
X21250Y6994D02*
X21604D01*
X21890Y7280D01*
X24650D01*
X24706Y7224D01*
Y6123D02*
Y7224D01*
Y6123D02*
X26000Y4829D01*
X21250Y6738D02*
X22340D01*
X410Y7497D02*
X1250Y6657D01*
X410Y7497D02*
Y17710D01*
X2700Y20000D01*
X8000D01*
X22096Y4829D02*
X23250D01*
X20824Y6100D02*
X22096Y4829D01*
X20824Y6100D02*
Y6482D01*
X21250D01*
X22852Y6226D02*
X23250Y5829D01*
X21250Y6226D02*
X22852D01*
X23250Y5829D02*
Y6829D01*
X13750Y19500D02*
X14250Y19000D01*
X13750Y19500D02*
Y20250D01*
X9750Y3750D02*
Y4750D01*
X12500Y3750D02*
Y4750D01*
X15250Y3750D02*
Y4750D01*
X12050Y5200D02*
X12500Y4750D01*
X12050Y5200D02*
Y14020D01*
X11660Y14410D02*
X12050Y14020D01*
X10400Y14410D02*
X11660D01*
X9710Y15100D02*
X10400Y14410D01*
X9710Y15100D02*
Y20730D01*
X17750Y3750D02*
Y4750D01*
X24250Y3829D02*
Y4829D01*
X9750Y6750D02*
Y9600D01*
X9350Y10000D02*
X9750Y9600D01*
X8000Y10000D02*
X9350D01*
X11000D02*
Y11000D01*
X8000D02*
Y12000D01*
Y13000D01*
X7360D02*
X8000D01*
X7160Y13200D02*
X7360Y13000D01*
X7160Y13200D02*
Y15800D01*
X7360Y16000D01*
X8000D01*
X3000D02*
X3490Y15510D01*
Y13400D02*
Y15510D01*
X3340Y13250D02*
X3490Y13400D01*
X3000Y13250D02*
X3340D01*
X8000Y16000D02*
X8570D01*
X8670Y16100D01*
Y20900D01*
X8570Y21000D02*
X8670Y20900D01*
X8000Y21000D02*
X8570D01*
X6880D02*
X8000D01*
X5380Y22500D02*
X6880Y21000D01*
X4750Y22500D02*
X5380D01*
X3250Y21000D02*
X4750Y22500D01*
X2750Y21000D02*
X3250D01*
X15250Y17250D02*
Y19000D01*
Y16250D02*
Y17250D01*
Y16250D02*
X15500Y16000D01*
X15250Y19000D02*
X15500Y19250D01*
Y20250D01*
Y16000D02*
X18920Y12580D01*
Y9041D02*
X18927D01*
Y8785D02*
Y9041D01*
X570Y23180D02*
X2750Y21000D01*
X570Y23180D02*
Y30720D01*
X1600Y31750D01*
X14077Y29628D02*
Y31273D01*
X2768Y30404D02*
Y30460D01*
X3580D02*
X4870Y31750D01*
X13600D02*
X14077Y31273D01*
X2768Y27250D02*
Y30404D01*
X18927Y8785D02*
X19360D01*
Y6226D02*
Y8785D01*
X18927Y6226D02*
X19360D01*
X18077Y29628D02*
X18207Y29498D01*
X20000D01*
X21600D01*
X22250Y28848D01*
Y23750D02*
Y28848D01*
X25750Y23750D02*
Y25000D01*
X27000Y26250D01*
X34063Y21500D02*
Y23000D01*
X31560Y20560D02*
X32500Y21500D01*
X31560Y16600D02*
Y20560D01*
Y16600D02*
X31790Y16370D01*
X33200D01*
X34171Y15399D01*
Y10657D02*
Y15399D01*
Y9359D02*
Y10657D01*
Y9359D02*
X34250Y9280D01*
Y8000D02*
Y9280D01*
X24555Y8274D02*
X26000Y6829D01*
X21250Y8274D02*
X24555D01*
X11500Y4750D02*
X12050Y4200D01*
Y3305D02*
Y4200D01*
Y3305D02*
X12950D01*
X13544Y3899D01*
Y6674D01*
X14470Y7600D01*
X18302D01*
X18396Y7506D01*
X18927D01*
X11500Y5750D02*
Y6750D01*
X13140Y6200D02*
Y7430D01*
X13600Y7890D01*
X18293D01*
X18422Y7762D01*
X18927D01*
X6500Y6657D02*
X7145Y7303D01*
X9000D01*
X9300Y7003D01*
Y6400D02*
Y7003D01*
Y6400D02*
X9400Y6300D01*
X10000D01*
X10200Y6500D01*
Y12800D01*
X10400Y13000D01*
X11000D01*
X14750Y11890D02*
Y19390D01*
Y11890D02*
X16980Y9660D01*
X17476D01*
X18607Y8530D01*
X18927D01*
X11000Y16000D02*
X12620D01*
X12880Y16260D01*
Y27431D01*
X14077Y28628D01*
X20000Y25000D02*
X21250Y23750D01*
X20000Y25000D02*
Y26250D01*
X23500Y25000D02*
X24750Y23750D01*
X23500Y25000D02*
Y26250D01*
X3000Y13730D02*
X3090D01*
X3000Y12778D02*
X4210D01*
X5432Y14000D01*
X2750Y23450D02*
Y25000D01*
Y23450D02*
X3200Y23000D01*
X4750D01*
X21250Y7506D02*
X24784D01*
X24950Y7340D01*
Y6200D02*
Y7340D01*
Y6200D02*
X25770Y5380D01*
X26339D01*
X26445Y5274D01*
Y4238D02*
Y5274D01*
Y4238D02*
X27300Y3383D01*
X28195D01*
Y4383D01*
X27750Y4829D02*
X28195Y4383D01*
X4500Y6657D02*
Y7930D01*
X7070Y10500D01*
X8400D01*
X8870Y10970D01*
Y22800D01*
X8670Y23000D02*
X8870Y22800D01*
X8000Y23000D02*
X8670D01*
X8000D02*
Y27250D01*
X7560Y26810D02*
X8000Y27250D01*
X1100Y26810D02*
X7560D01*
X1000Y27250D02*
X1100Y26810D01*
X1000Y27250D02*
Y30404D01*
X19530Y16430D02*
X20450Y17350D01*
Y21800D01*
X20000Y22250D02*
X20450Y21800D01*
X20130Y7740D02*
X20920Y8530D01*
X21250D01*
X11000Y22000D02*
X11610D01*
X11710Y22100D01*
Y25540D01*
X10000Y27250D02*
X11710Y25540D01*
X14920Y22000D02*
X16810Y20110D01*
Y15810D02*
Y20110D01*
Y15810D02*
X21680Y10940D01*
Y8900D02*
Y10940D01*
X21565Y8785D02*
X21680Y8900D01*
X21250Y8785D02*
X21565D01*
X14250Y4750D02*
X14800Y5300D01*
X15600D01*
X16300Y6000D01*
Y7095D01*
X16400Y7195D01*
X17999D01*
X18200Y6994D01*
X18927D01*
X14250Y5750D02*
Y6750D01*
X14895Y7395D01*
X18168D01*
X18313Y7250D01*
X18927D01*
X16170Y8710D02*
X16789Y8091D01*
X18537D01*
X18610Y8018D01*
X18927D01*
X8750Y5750D02*
Y6750D01*
X14500Y8450D02*
X15240Y9190D01*
X17480D01*
X18379Y8291D01*
X18723D01*
X18927Y8274D01*
X16750Y4750D02*
X17250Y5250D01*
X18000D01*
X18500Y5750D01*
Y6382D01*
X18600Y6482D01*
X18927D01*
X34671Y8579D02*
Y9907D01*
Y8579D02*
X35250Y8000D01*
X16750Y5750D02*
Y6750D01*
X17240Y6260D01*
X18090D01*
X18568Y6738D01*
X18927D01*
X10430Y19000D02*
X11000D01*
X10330Y18900D02*
X10430Y19000D01*
X10330Y15800D02*
Y18900D01*
Y15800D02*
X10540Y15590D01*
X13340D01*
X13750Y16000D01*
X14250Y16500D01*
Y17250D01*
X32087Y24878D02*
X33071D01*
X32087D02*
Y28913D01*
Y32457D02*
Y34032D01*
X36024D01*
Y32457D02*
Y34032D01*
Y24878D02*
Y28913D01*
X32195Y9907D02*
X33179D01*
X32195D02*
Y13943D01*
Y17486D02*
Y19061D01*
X36132D01*
Y17486D02*
Y19061D01*
Y9907D02*
Y13943D01*
D17*
X20925Y29124D02*
D03*
X20000Y28750D02*
D03*
Y29498D02*
D03*
D18*
X2768Y27250D02*
D03*
Y30404D02*
D03*
X1000Y27250D02*
D03*
Y30404D02*
D03*
D19*
X3000Y12778D02*
D03*
Y13250D02*
D03*
Y13730D02*
D03*
D20*
X21250Y6226D02*
D03*
Y6482D02*
D03*
Y6738D02*
D03*
Y6994D02*
D03*
Y7250D02*
D03*
Y7506D02*
D03*
Y7762D02*
D03*
Y8018D02*
D03*
Y8274D02*
D03*
Y8530D02*
D03*
Y8785D02*
D03*
Y9041D02*
D03*
X18927Y6226D02*
D03*
Y6482D02*
D03*
Y6738D02*
D03*
Y6994D02*
D03*
Y7250D02*
D03*
Y7506D02*
D03*
Y7762D02*
D03*
Y8018D02*
D03*
Y8274D02*
D03*
Y8530D02*
D03*
Y8785D02*
D03*
Y9041D02*
D03*
D37*
X8750Y3750D02*
X9270Y3230D01*
X10980D01*
X11500Y3750D01*
X5905Y5062D02*
X6500Y5657D01*
X4222Y5062D02*
X5905D01*
X3571Y5713D02*
X4222Y5062D01*
X3571Y5713D02*
Y5836D01*
X2750Y6657D02*
X3571Y5836D01*
X3000Y17000D02*
X5000D01*
X8000D01*
X14250Y3750D02*
X14770Y3230D01*
X16230D01*
X16750Y3750D01*
X23250Y3829D02*
X23770Y3308D01*
X25480D01*
X26000Y3829D01*
X31250Y7250D02*
X35750D01*
X37250Y5750D01*
X31250Y7250D02*
X31293Y7293D01*
Y7529D01*
X33671Y9907D01*
X37250Y5750D02*
X38250Y6750D01*
Y20000D01*
X10000Y31250D02*
X12000D01*
X8000D02*
X10000D01*
X5000Y16000D02*
X7360D01*
X3000D02*
X5000D01*
X1000D02*
X3000D01*
X14077Y29628D02*
X16077D01*
X18077D01*
D38*
X14077Y28628D02*
D03*
Y29628D02*
D03*
X18077D02*
D03*
Y28628D02*
D03*
X16077Y29628D02*
D03*
Y28628D02*
D03*
X1000Y17000D02*
D03*
Y16000D02*
D03*
X3000Y17000D02*
D03*
Y16000D02*
D03*
X5000Y17000D02*
D03*
Y16000D02*
D03*
X34063Y23000D02*
D03*
X35063D02*
D03*
X31250Y6250D02*
D03*
Y7250D02*
D03*
X32500Y22500D02*
D03*
Y21500D02*
D03*
X35063D02*
D03*
X34063D02*
D03*
X35250Y8000D02*
D03*
X34250D02*
D03*
X35250Y6250D02*
D03*
X34250D02*
D03*
X15250Y17250D02*
D03*
X14250D02*
D03*
X15250Y19000D02*
D03*
X14250D02*
D03*
D39*
X2750Y6657D02*
D03*
X1250D02*
D03*
X27750Y3829D02*
D03*
X26000D02*
D03*
X20000Y18000D02*
D03*
X24250Y3829D02*
D03*
X17750Y3750D02*
D03*
X12500D02*
D03*
X15250D02*
D03*
X9750D02*
D03*
D40*
X2750Y5657D02*
D03*
X1250D02*
D03*
X27750Y6829D02*
D03*
Y5829D02*
D03*
Y4829D02*
D03*
X26000Y6829D02*
D03*
Y5829D02*
D03*
Y4829D02*
D03*
X20000Y19000D02*
D03*
X23250Y6829D02*
D03*
X24250D02*
D03*
X23250Y5829D02*
D03*
X24250D02*
D03*
X23250Y4829D02*
D03*
X24250D02*
D03*
X23250Y3829D02*
D03*
X16750Y6750D02*
D03*
X17750D02*
D03*
X16750Y5750D02*
D03*
X17750D02*
D03*
X16750Y4750D02*
D03*
X17750D02*
D03*
X16750Y3750D02*
D03*
X11500Y6750D02*
D03*
X12500D02*
D03*
X11500Y5750D02*
D03*
X12500D02*
D03*
X11500Y4750D02*
D03*
X12500D02*
D03*
X11500Y3750D02*
D03*
X14250Y6750D02*
D03*
X15250D02*
D03*
X14250Y5750D02*
D03*
X15250D02*
D03*
X14250Y4750D02*
D03*
X15250D02*
D03*
X14250Y3750D02*
D03*
X8750Y6750D02*
D03*
X9750D02*
D03*
X8750Y5750D02*
D03*
X9750D02*
D03*
X8750Y4750D02*
D03*
X9750D02*
D03*
X8750Y3750D02*
D03*
D41*
X6500Y6657D02*
D03*
Y5657D02*
D03*
X5500Y6657D02*
D03*
Y5657D02*
D03*
X4500Y6657D02*
D03*
Y5657D02*
D03*
D42*
X28250Y23750D02*
D03*
X29250D02*
D03*
X21250D02*
D03*
X22250D02*
D03*
X24750D02*
D03*
X25750D02*
D03*
D43*
X27000Y22250D02*
D03*
Y26250D02*
D03*
X12000Y27250D02*
D03*
Y31250D02*
D03*
X10000Y27250D02*
D03*
Y31250D02*
D03*
X1000Y25000D02*
D03*
Y21000D02*
D03*
X2750Y25000D02*
D03*
Y21000D02*
D03*
X8000Y31250D02*
D03*
Y27250D02*
D03*
X20000Y22250D02*
D03*
Y26250D02*
D03*
X23500Y22250D02*
D03*
Y26250D02*
D03*
X35563Y24878D02*
D03*
X34563D02*
D03*
X34063Y25628D02*
D03*
X35063D02*
D03*
X35671Y9907D02*
D03*
X34671D02*
D03*
X34171Y10657D02*
D03*
X35171D02*
D03*
X38250Y24000D02*
D03*
Y20000D02*
D03*
X37250Y9750D02*
D03*
Y5750D02*
D03*
X13750Y16000D02*
D03*
Y12000D02*
D03*
X17238D02*
D03*
Y16000D02*
D03*
X13750Y20250D02*
D03*
Y24250D02*
D03*
X17238D02*
D03*
Y20250D02*
D03*
X15500Y12000D02*
D03*
Y16000D02*
D03*
Y24250D02*
D03*
Y20250D02*
D03*
D44*
X4750Y23500D02*
D03*
D45*
Y23000D02*
D03*
Y22500D02*
D03*
D46*
X11000Y23000D02*
D03*
Y22000D02*
D03*
Y21000D02*
D03*
Y20000D02*
D03*
Y19000D02*
D03*
Y18000D02*
D03*
Y17000D02*
D03*
Y16000D02*
D03*
Y15000D02*
D03*
Y14000D02*
D03*
Y13000D02*
D03*
Y12000D02*
D03*
Y11000D02*
D03*
Y10000D02*
D03*
X8000D02*
D03*
Y11000D02*
D03*
Y12000D02*
D03*
Y13000D02*
D03*
Y14000D02*
D03*
Y15000D02*
D03*
Y16000D02*
D03*
Y17000D02*
D03*
Y18000D02*
D03*
Y19000D02*
D03*
Y20000D02*
D03*
Y21000D02*
D03*
Y22000D02*
D03*
Y23000D02*
D03*
D47*
X33563Y24878D02*
D03*
X33671Y9907D02*
D03*
D48*
X36000Y31941D02*
D03*
Y30720D02*
D03*
Y29500D02*
D03*
X32142D02*
D03*
Y30720D02*
D03*
Y31941D02*
D03*
X36108Y16970D02*
D03*
Y15750D02*
D03*
Y14530D02*
D03*
X32250D02*
D03*
Y15750D02*
D03*
Y16970D02*
D03*
D49*
X20420Y6490D02*
D03*
X22340Y6738D02*
D03*
X9710Y20730D02*
D03*
X13140Y6200D02*
D03*
X14750Y19390D02*
D03*
X3090Y15000D02*
D03*
X5432Y14000D02*
D03*
X19530Y16430D02*
D03*
X20130Y7740D02*
D03*
X14920Y22000D02*
D03*
X16170Y8710D02*
D03*
X14500Y8450D02*
D03*
M02*
