G04*
G04 #@! TF.GenerationSoftware,Altium Limited,Altium Designer,20.0.10 (225)*
G04*
G04 Layer_Color=65535*
%FSLAX24Y24*%
%MOIN*%
G70*
G01*
G75*
%ADD10C,0.0098*%
%ADD11C,0.0050*%
%ADD12C,0.0100*%
%ADD13C,0.0236*%
%ADD14C,0.0079*%
%ADD15C,0.0080*%
%ADD16C,0.0059*%
D10*
X11015Y33832D02*
X10941Y33874D01*
Y33789D01*
X11015Y33832D01*
X18799Y5591D02*
X18725Y5633D01*
Y5548D01*
X18799Y5591D01*
D11*
X6571Y35065D02*
X6562Y35164D01*
X6536Y35261D01*
X6494Y35351D01*
X6437Y35432D01*
X6367Y35503D01*
X6285Y35560D01*
X6195Y35602D01*
X6099Y35628D01*
X6000Y35636D01*
X5901Y35628D01*
X5805Y35602D01*
X5715Y35560D01*
X5633Y35503D01*
X5563Y35432D01*
X5506Y35351D01*
X5464Y35261D01*
X5438Y35164D01*
X5429Y35065D01*
X9250Y22800D02*
X9269Y22704D01*
X9323Y22623D01*
X9404Y22569D01*
X9500Y22550D01*
X9596Y22569D01*
X9677Y22623D01*
X9731Y22704D01*
X9750Y22800D01*
X3471Y35165D02*
X3462Y35264D01*
X3436Y35361D01*
X3394Y35451D01*
X3337Y35532D01*
X3267Y35603D01*
X3185Y35660D01*
X3095Y35702D01*
X2999Y35728D01*
X2900Y35736D01*
X2801Y35728D01*
X2705Y35702D01*
X2615Y35660D01*
X2533Y35603D01*
X2463Y35532D01*
X2406Y35451D01*
X2364Y35361D01*
X2338Y35264D01*
X2329Y35165D01*
X6571Y29465D02*
X6562Y29564D01*
X6536Y29661D01*
X6494Y29751D01*
X6437Y29832D01*
X6367Y29903D01*
X6285Y29960D01*
X6195Y30002D01*
X6099Y30028D01*
X6000Y30036D01*
X5901Y30028D01*
X5805Y30002D01*
X5715Y29960D01*
X5633Y29903D01*
X5563Y29832D01*
X5506Y29751D01*
X5464Y29661D01*
X5438Y29564D01*
X5429Y29465D01*
X3471D02*
X3462Y29564D01*
X3436Y29661D01*
X3394Y29751D01*
X3337Y29832D01*
X3267Y29903D01*
X3185Y29960D01*
X3095Y30002D01*
X2999Y30028D01*
X2900Y30036D01*
X2801Y30028D01*
X2705Y30002D01*
X2615Y29960D01*
X2533Y29903D01*
X2463Y29832D01*
X2406Y29751D01*
X2364Y29661D01*
X2338Y29564D01*
X2329Y29465D01*
X5134Y32113D02*
X6866D01*
X5134D02*
Y34632D01*
X6866D01*
Y32113D02*
Y34632D01*
X5429D02*
Y35065D01*
X6571Y34632D02*
Y35065D01*
X8400Y8200D02*
X10600D01*
Y22800D01*
X9750D02*
X10600D01*
X8400Y8200D02*
Y22800D01*
X9250D01*
X2034Y32213D02*
X3766D01*
X2034D02*
Y34732D01*
X3766D01*
Y32213D02*
Y34732D01*
X2329D02*
Y35165D01*
X3471Y34732D02*
Y35165D01*
X5134Y26513D02*
X6866D01*
X5134D02*
Y29032D01*
X6866D01*
Y26513D02*
Y29032D01*
X5429D02*
Y29465D01*
X6571Y29032D02*
Y29465D01*
X2034Y26513D02*
X3766D01*
X2034D02*
Y29032D01*
X3766D01*
Y26513D02*
Y29032D01*
X2329D02*
Y29465D01*
X3471Y29032D02*
Y29465D01*
D12*
X9091Y27800D02*
X9082Y27900D01*
X9057Y27997D01*
X9016Y28088D01*
X8959Y28171D01*
X8890Y28243D01*
X8810Y28303D01*
X8720Y28348D01*
X8624Y28377D01*
X8525Y28390D01*
X8425Y28386D01*
X8327Y28365D01*
X8234Y28327D01*
X8149Y28275D01*
X8074Y28209D01*
X8011Y28131D01*
X7962Y28043D01*
X7929Y27949D01*
X7912Y27850D01*
Y27750D01*
X7929Y27651D01*
X7962Y27557D01*
X8011Y27469D01*
X8074Y27391D01*
X8149Y27325D01*
X8234Y27273D01*
X8327Y27235D01*
X8425Y27214D01*
X8525Y27210D01*
X8624Y27223D01*
X8720Y27252D01*
X8810Y27297D01*
X8890Y27357D01*
X8959Y27429D01*
X9016Y27512D01*
X9057Y27603D01*
X9082Y27700D01*
X9091Y27800D01*
X23250Y39350D02*
X23650D01*
Y39250D01*
X23250Y38850D01*
Y38750D01*
X23650D01*
X24250D02*
X23850D01*
X24250Y39150D01*
Y39250D01*
X24150Y39350D01*
X23950D01*
X23850Y39250D01*
X24416Y23985D02*
X24816D01*
Y23885D01*
X24416Y23485D01*
Y23385D01*
X24816D01*
X25016D02*
X25216D01*
X25116D01*
Y23985D01*
X25016Y23885D01*
X4600Y14449D02*
X5200Y14849D01*
X4600D02*
X5200Y14449D01*
Y15049D02*
Y15249D01*
Y15149D01*
X4600D01*
X4700Y15049D01*
X18466Y6593D02*
Y6093D01*
X18566Y5993D01*
X18766D01*
X18866Y6093D01*
Y6593D01*
X19066Y5993D02*
X19266D01*
X19166D01*
Y6593D01*
X19066Y6493D01*
X7325Y30015D02*
Y30615D01*
X7625D01*
X7725Y30515D01*
Y30315D01*
X7625Y30215D01*
X7325D01*
X7525D02*
X7725Y30015D01*
X8325Y30515D02*
X8225Y30615D01*
X8025D01*
X7925Y30515D01*
Y30415D01*
X8025Y30315D01*
X8225D01*
X8325Y30215D01*
Y30115D01*
X8225Y30015D01*
X8025D01*
X7925Y30115D01*
X8525Y30615D02*
X8924D01*
X8725D01*
Y30015D01*
X9124D02*
X9324D01*
X9224D01*
Y30615D01*
X9124Y30515D01*
X28774Y24750D02*
Y25350D01*
X29074D01*
X29173Y25250D01*
Y25050D01*
X29074Y24950D01*
X28774D01*
X28974D02*
X29173Y24750D01*
X29373D02*
X29573D01*
X29473D01*
Y25350D01*
X29373Y25250D01*
X29873Y25350D02*
X30273D01*
Y25250D01*
X29873Y24850D01*
Y24750D01*
X18100Y13000D02*
Y13600D01*
X18400D01*
X18500Y13500D01*
Y13300D01*
X18400Y13200D01*
X18100D01*
X18300D02*
X18500Y13000D01*
X18700D02*
X18900D01*
X18800D01*
Y13600D01*
X18700Y13500D01*
X19600Y13600D02*
X19400Y13500D01*
X19200Y13300D01*
Y13100D01*
X19300Y13000D01*
X19500D01*
X19600Y13100D01*
Y13200D01*
X19500Y13300D01*
X19200D01*
X16350Y13000D02*
Y13600D01*
X16650D01*
X16750Y13500D01*
Y13300D01*
X16650Y13200D01*
X16350D01*
X16550D02*
X16750Y13000D01*
X16950D02*
X17150D01*
X17050D01*
Y13600D01*
X16950Y13500D01*
X17850Y13600D02*
X17450D01*
Y13300D01*
X17650Y13400D01*
X17750D01*
X17850Y13300D01*
Y13100D01*
X17750Y13000D01*
X17550D01*
X17450Y13100D01*
X20100Y13000D02*
Y13600D01*
X20400D01*
X20500Y13500D01*
Y13300D01*
X20400Y13200D01*
X20100D01*
X20300D02*
X20500Y13000D01*
X20700D02*
X20900D01*
X20800D01*
Y13600D01*
X20700Y13500D01*
X21500Y13000D02*
Y13600D01*
X21200Y13300D01*
X21600D01*
X29524Y7750D02*
Y8350D01*
X29824D01*
X29923Y8250D01*
Y8050D01*
X29824Y7950D01*
X29524D01*
X29724D02*
X29923Y7750D01*
X30123D02*
X30323D01*
X30223D01*
Y8350D01*
X30123Y8250D01*
X30623D02*
X30723Y8350D01*
X30923D01*
X31023Y8250D01*
Y8150D01*
X30923Y8050D01*
X30823D01*
X30923D01*
X31023Y7950D01*
Y7850D01*
X30923Y7750D01*
X30723D01*
X30623Y7850D01*
X18600Y24000D02*
Y24600D01*
X18900D01*
X19000Y24500D01*
Y24300D01*
X18900Y24200D01*
X18600D01*
X18800D02*
X19000Y24000D01*
X19200D02*
X19400D01*
X19300D01*
Y24600D01*
X19200Y24500D01*
X20100Y24000D02*
X19700D01*
X20100Y24400D01*
Y24500D01*
X20000Y24600D01*
X19800D01*
X19700Y24500D01*
X16600Y24000D02*
Y24600D01*
X16900D01*
X17000Y24500D01*
Y24300D01*
X16900Y24200D01*
X16600D01*
X16800D02*
X17000Y24000D01*
X17200D02*
X17400D01*
X17300D01*
Y24600D01*
X17200Y24500D01*
X17700Y24000D02*
X17900D01*
X17800D01*
Y24600D01*
X17700Y24500D01*
X20850Y24000D02*
Y24600D01*
X21150D01*
X21250Y24500D01*
Y24300D01*
X21150Y24200D01*
X20850D01*
X21050D02*
X21250Y24000D01*
X21450D02*
X21650D01*
X21550D01*
Y24600D01*
X21450Y24500D01*
X21950D02*
X22050Y24600D01*
X22250D01*
X22350Y24500D01*
Y24100D01*
X22250Y24000D01*
X22050D01*
X21950Y24100D01*
Y24500D01*
X3900Y30300D02*
Y30900D01*
X4200D01*
X4300Y30800D01*
Y30600D01*
X4200Y30500D01*
X3900D01*
X4100D02*
X4300Y30300D01*
X4500Y30400D02*
X4600Y30300D01*
X4800D01*
X4900Y30400D01*
Y30800D01*
X4800Y30900D01*
X4600D01*
X4500Y30800D01*
Y30700D01*
X4600Y30600D01*
X4900D01*
X400Y30300D02*
Y30900D01*
X700D01*
X800Y30800D01*
Y30600D01*
X700Y30500D01*
X400D01*
X600D02*
X800Y30300D01*
X1000Y30800D02*
X1100Y30900D01*
X1300D01*
X1400Y30800D01*
Y30700D01*
X1300Y30600D01*
X1400Y30500D01*
Y30400D01*
X1300Y30300D01*
X1100D01*
X1000Y30400D01*
Y30500D01*
X1100Y30600D01*
X1000Y30700D01*
Y30800D01*
X1100Y30600D02*
X1300D01*
X20865Y33115D02*
Y33715D01*
X21165D01*
X21265Y33615D01*
Y33415D01*
X21165Y33315D01*
X20865D01*
X21065D02*
X21265Y33115D01*
X21465Y33715D02*
X21865D01*
Y33615D01*
X21465Y33215D01*
Y33115D01*
X19765D02*
Y33715D01*
X20065D01*
X20165Y33615D01*
Y33415D01*
X20065Y33315D01*
X19765D01*
X19965D02*
X20165Y33115D01*
X20765Y33715D02*
X20565Y33615D01*
X20365Y33415D01*
Y33215D01*
X20465Y33115D01*
X20665D01*
X20765Y33215D01*
Y33315D01*
X20665Y33415D01*
X20365D01*
X750Y35900D02*
Y36500D01*
X1050D01*
X1150Y36400D01*
Y36200D01*
X1050Y36100D01*
X750D01*
X950D02*
X1150Y35900D01*
X1750Y36500D02*
X1350D01*
Y36200D01*
X1550Y36300D01*
X1650D01*
X1750Y36200D01*
Y36000D01*
X1650Y35900D01*
X1450D01*
X1350Y36000D01*
X13965Y30015D02*
Y30615D01*
X14265D01*
X14365Y30515D01*
Y30315D01*
X14265Y30215D01*
X13965D01*
X14165D02*
X14365Y30015D01*
X14865D02*
Y30615D01*
X14565Y30315D01*
X14965D01*
X12515Y30015D02*
Y30615D01*
X12815D01*
X12915Y30515D01*
Y30315D01*
X12815Y30215D01*
X12515D01*
X12715D02*
X12915Y30015D01*
X13115Y30515D02*
X13215Y30615D01*
X13415D01*
X13515Y30515D01*
Y30415D01*
X13415Y30315D01*
X13315D01*
X13415D01*
X13515Y30215D01*
Y30115D01*
X13415Y30015D01*
X13215D01*
X13115Y30115D01*
X11065Y30015D02*
Y30615D01*
X11365D01*
X11465Y30515D01*
Y30315D01*
X11365Y30215D01*
X11065D01*
X11265D02*
X11465Y30015D01*
X12065D02*
X11665D01*
X12065Y30415D01*
Y30515D01*
X11965Y30615D01*
X11765D01*
X11665Y30515D01*
X4300Y35900D02*
Y36500D01*
X4600D01*
X4700Y36400D01*
Y36200D01*
X4600Y36100D01*
X4300D01*
X4500D02*
X4700Y35900D01*
X4900D02*
X5100D01*
X5000D01*
Y36500D01*
X4900Y36400D01*
X18105Y30785D02*
Y31185D01*
X18005Y31285D01*
X17805D01*
X17705Y31185D01*
Y30785D01*
X17805Y30685D01*
X18005D01*
X17905Y30885D02*
X18105Y30685D01*
X18005D02*
X18105Y30785D01*
X18705Y30685D02*
X18305D01*
X18705Y31085D01*
Y31185D01*
X18605Y31285D01*
X18405D01*
X18305Y31185D01*
X11200Y34600D02*
Y35000D01*
X11100Y35100D01*
X10900D01*
X10800Y35000D01*
Y34600D01*
X10900Y34500D01*
X11100D01*
X11000Y34700D02*
X11200Y34500D01*
X11100D02*
X11200Y34600D01*
X11400Y34500D02*
X11600D01*
X11500D01*
Y35100D01*
X11400Y35000D01*
X9648Y6565D02*
Y7165D01*
X9948D01*
X10048Y7065D01*
Y6865D01*
X9948Y6765D01*
X9648D01*
X10248Y6565D02*
X10448D01*
X10348D01*
Y7165D01*
X10248Y7065D01*
X11148Y6565D02*
X10748D01*
X11148Y6965D01*
Y7065D01*
X11048Y7165D01*
X10848D01*
X10748Y7065D01*
X24000Y6250D02*
Y6850D01*
X24300D01*
X24400Y6750D01*
Y6550D01*
X24300Y6450D01*
X24000D01*
X24600Y6250D02*
X24800D01*
X24700D01*
Y6850D01*
X24600Y6750D01*
X25100Y6250D02*
X25300D01*
X25200D01*
Y6850D01*
X25100Y6750D01*
X7065Y6565D02*
Y7165D01*
X7365D01*
X7465Y7065D01*
Y6865D01*
X7365Y6765D01*
X7065D01*
X7665Y6565D02*
X7865D01*
X7765D01*
Y7165D01*
X7665Y7065D01*
X8165D02*
X8265Y7165D01*
X8465D01*
X8565Y7065D01*
Y6665D01*
X8465Y6565D01*
X8265D01*
X8165Y6665D01*
Y7065D01*
X12232Y6565D02*
Y7165D01*
X12532D01*
X12632Y7065D01*
Y6865D01*
X12532Y6765D01*
X12232D01*
X12831Y6665D02*
X12931Y6565D01*
X13131D01*
X13231Y6665D01*
Y7065D01*
X13131Y7165D01*
X12931D01*
X12831Y7065D01*
Y6965D01*
X12931Y6865D01*
X13231D01*
X14815Y6565D02*
Y7165D01*
X15115D01*
X15215Y7065D01*
Y6865D01*
X15115Y6765D01*
X14815D01*
X15415Y7065D02*
X15515Y7165D01*
X15715D01*
X15815Y7065D01*
Y6965D01*
X15715Y6865D01*
X15815Y6765D01*
Y6665D01*
X15715Y6565D01*
X15515D01*
X15415Y6665D01*
Y6765D01*
X15515Y6865D01*
X15415Y6965D01*
Y7065D01*
X15515Y6865D02*
X15715D01*
X22515Y20135D02*
Y20735D01*
X22815D01*
X22915Y20635D01*
Y20435D01*
X22815Y20335D01*
X22515D01*
X23115Y20735D02*
X23515D01*
Y20635D01*
X23115Y20235D01*
Y20135D01*
X26179Y5756D02*
Y6356D01*
X26479D01*
X26579Y6256D01*
Y6056D01*
X26479Y5956D01*
X26179D01*
X27179Y6356D02*
X26979Y6256D01*
X26779Y6056D01*
Y5856D01*
X26879Y5756D01*
X27079D01*
X27179Y5856D01*
Y5956D01*
X27079Y6056D01*
X26779D01*
X28000Y5756D02*
Y6356D01*
X28300D01*
X28400Y6256D01*
Y6056D01*
X28300Y5956D01*
X28000D01*
X29000Y6356D02*
X28600D01*
Y6056D01*
X28800Y6156D01*
X28900D01*
X29000Y6056D01*
Y5856D01*
X28900Y5756D01*
X28700D01*
X28600Y5856D01*
X1065Y12135D02*
Y12735D01*
X1365D01*
X1465Y12635D01*
Y12435D01*
X1365Y12335D01*
X1065D01*
X1965Y12135D02*
Y12735D01*
X1665Y12435D01*
X2065D01*
X2765Y12135D02*
Y12735D01*
X3065D01*
X3165Y12635D01*
Y12435D01*
X3065Y12335D01*
X2765D01*
X3365Y12635D02*
X3465Y12735D01*
X3665D01*
X3765Y12635D01*
Y12535D01*
X3665Y12435D01*
X3565D01*
X3665D01*
X3765Y12335D01*
Y12235D01*
X3665Y12135D01*
X3465D01*
X3365Y12235D01*
X1300Y24100D02*
Y24700D01*
X1600D01*
X1700Y24600D01*
Y24400D01*
X1600Y24300D01*
X1300D01*
X2300Y24100D02*
X1900D01*
X2300Y24500D01*
Y24600D01*
X2200Y24700D01*
X2000D01*
X1900Y24600D01*
X865Y16345D02*
Y16945D01*
X1165D01*
X1265Y16845D01*
Y16645D01*
X1165Y16545D01*
X865D01*
X1465Y16345D02*
X1665D01*
X1565D01*
Y16945D01*
X1465Y16845D01*
X8900Y23800D02*
X9100D01*
X9000D01*
Y23200D01*
X8900D01*
X9100D01*
X9800Y23700D02*
X9700Y23800D01*
X9500D01*
X9400Y23700D01*
Y23300D01*
X9500Y23200D01*
X9700D01*
X9800Y23300D01*
X10000Y23200D02*
X10200D01*
X10100D01*
Y23800D01*
X10000Y23700D01*
X5205Y30965D02*
Y30365D01*
X5505D01*
X5605Y30465D01*
Y30865D01*
X5505Y30965D01*
X5205D01*
X6205Y30865D02*
X6105Y30965D01*
X5905D01*
X5805Y30865D01*
Y30765D01*
X5905Y30665D01*
X6105D01*
X6205Y30565D01*
Y30465D01*
X6105Y30365D01*
X5905D01*
X5805Y30465D01*
X6705Y30365D02*
Y30965D01*
X6405Y30665D01*
X6804D01*
X1900Y30900D02*
Y30300D01*
X2200D01*
X2300Y30400D01*
Y30800D01*
X2200Y30900D01*
X1900D01*
X2900Y30800D02*
X2800Y30900D01*
X2600D01*
X2500Y30800D01*
Y30700D01*
X2600Y30600D01*
X2800D01*
X2900Y30500D01*
Y30400D01*
X2800Y30300D01*
X2600D01*
X2500Y30400D01*
X3100Y30800D02*
X3200Y30900D01*
X3400D01*
X3499Y30800D01*
Y30700D01*
X3400Y30600D01*
X3300D01*
X3400D01*
X3499Y30500D01*
Y30400D01*
X3400Y30300D01*
X3200D01*
X3100Y30400D01*
X2105Y36665D02*
Y36065D01*
X2405D01*
X2505Y36165D01*
Y36565D01*
X2405Y36665D01*
X2105D01*
X3105Y36565D02*
X3005Y36665D01*
X2805D01*
X2705Y36565D01*
Y36465D01*
X2805Y36365D01*
X3005D01*
X3105Y36265D01*
Y36165D01*
X3005Y36065D01*
X2805D01*
X2705Y36165D01*
X3704Y36065D02*
X3305D01*
X3704Y36465D01*
Y36565D01*
X3605Y36665D01*
X3405D01*
X3305Y36565D01*
X5205Y36565D02*
Y35965D01*
X5505D01*
X5605Y36065D01*
Y36465D01*
X5505Y36565D01*
X5205D01*
X6205Y36465D02*
X6105Y36565D01*
X5905D01*
X5805Y36465D01*
Y36365D01*
X5905Y36265D01*
X6105D01*
X6205Y36165D01*
Y36065D01*
X6105Y35965D01*
X5905D01*
X5805Y36065D01*
X6405Y35965D02*
X6605D01*
X6505D01*
Y36565D01*
X6405Y36465D01*
X19500Y11800D02*
X19400Y11900D01*
X19200D01*
X19100Y11800D01*
Y11400D01*
X19200Y11300D01*
X19400D01*
X19500Y11400D01*
X19700Y11300D02*
X19900D01*
X19800D01*
Y11900D01*
X19700Y11800D01*
X20500Y11300D02*
Y11900D01*
X20200Y11600D01*
X20600D01*
X26697Y28500D02*
X26597Y28600D01*
X26397D01*
X26297Y28500D01*
Y28100D01*
X26397Y28000D01*
X26597D01*
X26697Y28100D01*
X26897Y28000D02*
X27097D01*
X26997D01*
Y28600D01*
X26897Y28500D01*
X27397D02*
X27497Y28600D01*
X27697D01*
X27797Y28500D01*
Y28400D01*
X27697Y28300D01*
X27597D01*
X27697D01*
X27797Y28200D01*
Y28100D01*
X27697Y28000D01*
X27497D01*
X27397Y28100D01*
X28488Y29085D02*
X28389Y29185D01*
X28189D01*
X28089Y29085D01*
Y28685D01*
X28189Y28585D01*
X28389D01*
X28488Y28685D01*
X28688Y28585D02*
X28888D01*
X28788D01*
Y29185D01*
X28688Y29085D01*
X29588Y28585D02*
X29188D01*
X29588Y28985D01*
Y29085D01*
X29488Y29185D01*
X29288D01*
X29188Y29085D01*
X26697Y27000D02*
X26597Y27100D01*
X26397D01*
X26297Y27000D01*
Y26600D01*
X26397Y26500D01*
X26597D01*
X26697Y26600D01*
X26897Y26500D02*
X27097D01*
X26997D01*
Y27100D01*
X26897Y27000D01*
X27397Y26500D02*
X27597D01*
X27497D01*
Y27100D01*
X27397Y27000D01*
X19500Y25900D02*
X19400Y26000D01*
X19200D01*
X19100Y25900D01*
Y25500D01*
X19200Y25400D01*
X19400D01*
X19500Y25500D01*
X19700Y25400D02*
X19900D01*
X19800D01*
Y26000D01*
X19700Y25900D01*
X20200D02*
X20300Y26000D01*
X20500D01*
X20600Y25900D01*
Y25500D01*
X20500Y25400D01*
X20300D01*
X20200Y25500D01*
Y25900D01*
X27173Y12250D02*
X27074Y12350D01*
X26874D01*
X26774Y12250D01*
Y11850D01*
X26874Y11750D01*
X27074D01*
X27173Y11850D01*
X27373D02*
X27473Y11750D01*
X27673D01*
X27773Y11850D01*
Y12250D01*
X27673Y12350D01*
X27473D01*
X27373Y12250D01*
Y12150D01*
X27473Y12050D01*
X27773D01*
X28488Y12835D02*
X28389Y12935D01*
X28189D01*
X28089Y12835D01*
Y12435D01*
X28189Y12335D01*
X28389D01*
X28488Y12435D01*
X28688Y12835D02*
X28788Y12935D01*
X28988D01*
X29088Y12835D01*
Y12735D01*
X28988Y12635D01*
X29088Y12535D01*
Y12435D01*
X28988Y12335D01*
X28788D01*
X28688Y12435D01*
Y12535D01*
X28788Y12635D01*
X28688Y12735D01*
Y12835D01*
X28788Y12635D02*
X28988D01*
X27173Y10750D02*
X27074Y10850D01*
X26874D01*
X26774Y10750D01*
Y10350D01*
X26874Y10250D01*
X27074D01*
X27173Y10350D01*
X27373Y10850D02*
X27773D01*
Y10750D01*
X27373Y10350D01*
Y10250D01*
X13265Y35135D02*
X13165Y35235D01*
X12965D01*
X12865Y35135D01*
Y34735D01*
X12965Y34635D01*
X13165D01*
X13265Y34735D01*
X13865Y35235D02*
X13665Y35135D01*
X13465Y34935D01*
Y34735D01*
X13565Y34635D01*
X13765D01*
X13865Y34735D01*
Y34835D01*
X13765Y34935D01*
X13465D01*
X9165Y35135D02*
X9065Y35235D01*
X8865D01*
X8765Y35135D01*
Y34735D01*
X8865Y34635D01*
X9065D01*
X9165Y34735D01*
X9765Y35235D02*
X9365D01*
Y34935D01*
X9565Y35035D01*
X9665D01*
X9765Y34935D01*
Y34735D01*
X9665Y34635D01*
X9465D01*
X9365Y34735D01*
X15400Y11250D02*
X15300Y11350D01*
X15100D01*
X15000Y11250D01*
Y10850D01*
X15100Y10750D01*
X15300D01*
X15400Y10850D01*
X15900Y10750D02*
Y11350D01*
X15600Y11050D01*
X16000D01*
X1300Y21400D02*
X1200Y21500D01*
X1000D01*
X900Y21400D01*
Y21000D01*
X1000Y20900D01*
X1200D01*
X1300Y21000D01*
X1500Y21400D02*
X1600Y21500D01*
X1800D01*
X1900Y21400D01*
Y21300D01*
X1800Y21200D01*
X1700D01*
X1800D01*
X1900Y21100D01*
Y21000D01*
X1800Y20900D01*
X1600D01*
X1500Y21000D01*
X3000Y21400D02*
X2900Y21500D01*
X2700D01*
X2600Y21400D01*
Y21000D01*
X2700Y20900D01*
X2900D01*
X3000Y21000D01*
X3600Y20900D02*
X3200D01*
X3600Y21300D01*
Y21400D01*
X3500Y21500D01*
X3300D01*
X3200Y21400D01*
X4600Y21350D02*
X4500Y21450D01*
X4300D01*
X4200Y21350D01*
Y20950D01*
X4300Y20850D01*
X4500D01*
X4600Y20950D01*
X4800Y20850D02*
X5000D01*
X4900D01*
Y21450D01*
X4800Y21350D01*
X0Y0D02*
Y40000D01*
X31500D01*
X31500Y0D01*
X0D02*
X31500D01*
D13*
X19695Y5039D02*
X19650Y5132D01*
X19550Y5155D01*
X19470Y5091D01*
Y4988D01*
X19550Y4924D01*
X19650Y4947D01*
X19695Y5039D01*
D14*
X2700Y11800D02*
X3700D01*
Y9800D02*
Y11800D01*
X2700Y9800D02*
X3700D01*
X2700D02*
Y11800D01*
X11576Y33576D02*
X11891D01*
Y33261D02*
Y33576D01*
X10709D02*
X11024D01*
X10709Y33261D02*
Y33576D01*
X12800Y32300D02*
Y34300D01*
Y32300D02*
X13800D01*
Y34300D01*
X12800D02*
X13800D01*
X8700Y32300D02*
Y34300D01*
Y32300D02*
X9700D01*
Y34300D01*
X8700D02*
X9700D01*
X1000Y11800D02*
X2000D01*
Y9800D02*
Y11800D01*
X1000Y9800D02*
X2000D01*
X1000D02*
Y11800D01*
X4100Y34500D02*
X4900D01*
Y32100D02*
Y34500D01*
X4100Y32100D02*
X4900D01*
X4100D02*
Y34500D01*
X4500D02*
Y34900D01*
Y31700D02*
Y32100D01*
X13900Y26200D02*
X14700D01*
X13900D02*
Y28600D01*
X14700D01*
Y26200D02*
Y28600D01*
X14300Y25800D02*
Y26200D01*
Y28600D02*
Y29000D01*
X12450Y26200D02*
X13250D01*
X12450D02*
Y28600D01*
X13250D01*
Y26200D02*
Y28600D01*
X12850Y25800D02*
Y26200D01*
Y28600D02*
Y29000D01*
X27750Y5506D02*
X28750D01*
Y1506D02*
Y5506D01*
X27750Y1506D02*
Y5506D01*
Y1506D02*
X28750D01*
X19700Y29300D02*
X20500D01*
X19700D02*
Y31700D01*
X20500D01*
Y29300D02*
Y31700D01*
X20100Y28900D02*
Y29300D01*
Y31700D02*
Y32100D01*
X17645Y28624D02*
X17818Y28451D01*
X17645Y30176D02*
X17818Y30349D01*
Y30345D02*
X18755D01*
X17818Y28455D02*
X18755D01*
X17645Y28624D02*
Y30176D01*
X18755Y28455D02*
Y30345D01*
X26000Y5506D02*
X27000D01*
Y1506D02*
Y5506D01*
X26000Y1506D02*
Y5506D01*
Y1506D02*
X27000D01*
X20800Y29300D02*
X21600D01*
X20800D02*
Y31700D01*
X21600D01*
Y29300D02*
Y31700D01*
X21200Y28900D02*
Y29300D01*
Y31700D02*
Y32100D01*
X11000Y26200D02*
X11800D01*
X11000D02*
Y28600D01*
X11800D01*
Y26200D02*
Y28600D01*
X11400Y25800D02*
Y26200D01*
Y28600D02*
Y29000D01*
X9744Y26556D02*
Y29040D01*
X7260D02*
X9744D01*
X7260Y26556D02*
Y29040D01*
Y26556D02*
X9744D01*
X850Y32100D02*
X1650D01*
X850D02*
Y34500D01*
X1650D01*
Y32100D02*
Y34500D01*
X1250Y31700D02*
Y32100D01*
Y34500D02*
Y34900D01*
X13750Y9500D02*
Y11500D01*
X12750D02*
X13750D01*
X12750Y9500D02*
Y11500D01*
Y9500D02*
X13750D01*
X4100Y26500D02*
X4900D01*
X4100D02*
Y28900D01*
X4900D01*
Y26500D02*
Y28900D01*
X4500Y26100D02*
Y26500D01*
Y28900D02*
Y29300D01*
X900Y26500D02*
X1700D01*
X900D02*
Y28900D01*
X1700D01*
Y26500D02*
Y28900D01*
X1300Y26100D02*
Y26500D01*
Y28900D02*
Y29300D01*
X1900Y18600D02*
Y20600D01*
X900D02*
X1900D01*
X900Y18600D02*
Y20600D01*
Y18600D02*
X1900D01*
X3600D02*
Y20600D01*
X2600D02*
X3600D01*
X2600Y18600D02*
Y20600D01*
Y18600D02*
X3600D01*
X5200D02*
Y20600D01*
X4200D02*
X5200D01*
X4200Y18600D02*
Y20600D01*
Y18600D02*
X5200D01*
X19183Y2323D02*
X20640D01*
X19183Y5433D02*
X20640D01*
Y2323D02*
Y5433D01*
X19183Y2323D02*
Y5433D01*
X4900Y22700D02*
Y23700D01*
X900Y22700D02*
X4900D01*
X900Y23700D02*
X4900D01*
X900Y22700D02*
Y23700D01*
X28024Y26250D02*
Y28250D01*
Y26250D02*
X29024D01*
Y28250D01*
X28024D02*
X29024D01*
X28024Y10000D02*
Y12000D01*
Y10000D02*
X29024D01*
Y12000D01*
X28024D02*
X29024D01*
X24637Y24350D02*
Y25150D01*
X27037D01*
Y24350D02*
Y25150D01*
X24637Y24350D02*
X27037D01*
X24237Y24750D02*
X24637D01*
X27037D02*
X27437D01*
X25574Y7766D02*
Y8566D01*
X27974D01*
Y7766D02*
Y8566D01*
X25574Y7766D02*
X27974D01*
X25174Y8166D02*
X25574D01*
X27974D02*
X28374D01*
X24024Y28750D02*
X26024D01*
X24024Y27750D02*
Y28750D01*
Y27750D02*
X26024D01*
Y28750D01*
X24024Y27250D02*
X26024D01*
X24024Y26250D02*
Y27250D01*
Y26250D02*
X26024D01*
Y27250D01*
X24337Y12500D02*
X26337D01*
X24337Y11500D02*
Y12500D01*
Y11500D02*
X26337D01*
Y12500D01*
X24337Y11000D02*
X26337D01*
X24337Y10000D02*
Y11000D01*
Y10000D02*
X26337D01*
Y11000D01*
X18450Y15050D02*
X19250D01*
X18450D02*
Y17450D01*
X19250D01*
Y15050D02*
Y17450D01*
X18850Y14650D02*
Y15050D01*
Y17450D02*
Y17850D01*
X20050Y17450D02*
X20850D01*
Y15050D02*
Y17450D01*
X20050Y15050D02*
X20850D01*
X20050D02*
Y17450D01*
X20450D02*
Y17850D01*
Y14650D02*
Y15050D01*
X18450Y22500D02*
X19250D01*
Y20100D02*
Y22500D01*
X18450Y20100D02*
X19250D01*
X18450D02*
Y22500D01*
X18850D02*
Y22900D01*
Y19700D02*
Y20100D01*
X20050D02*
X20850D01*
X20050D02*
Y22500D01*
X20850D01*
Y20100D02*
Y22500D01*
X20450Y19700D02*
Y20100D01*
Y22500D02*
Y22900D01*
X16750Y17450D02*
X17550D01*
Y15050D02*
Y17450D01*
X16750Y15050D02*
X17550D01*
X16750D02*
Y17450D01*
X17150D02*
Y17850D01*
Y14650D02*
Y15050D01*
X16750Y20100D02*
X17550D01*
X16750D02*
Y22500D01*
X17550D01*
Y20100D02*
Y22500D01*
X17150Y19700D02*
Y20100D01*
Y22500D02*
Y22900D01*
X16850Y12250D02*
X18850D01*
X16850Y11250D02*
Y12250D01*
Y11250D02*
X18850D01*
Y12250D01*
X16850Y26250D02*
X18850D01*
X16850Y25250D02*
Y26250D01*
Y25250D02*
X18850D01*
Y26250D01*
X22450Y19800D02*
X23450D01*
Y17800D02*
Y19800D01*
X22450Y17800D02*
X23450D01*
X22450D02*
Y19800D01*
X23250Y1506D02*
Y5506D01*
X25250Y1506D02*
Y5506D01*
X23250D02*
X25250D01*
X23250Y1506D02*
X25250D01*
X16750Y1750D02*
Y5750D01*
X14750Y1750D02*
Y5750D01*
Y1750D02*
X16750D01*
X14750Y5750D02*
X16750D01*
X11583Y1750D02*
Y5750D01*
X9583Y1750D02*
Y5750D01*
Y1750D02*
X11583D01*
X9583Y5750D02*
X11583D01*
X14167Y1750D02*
Y5750D01*
X12167Y1750D02*
Y5750D01*
Y1750D02*
X14167D01*
X12167Y5750D02*
X14167D01*
X9000Y1750D02*
Y5750D01*
X7000Y1750D02*
Y5750D01*
Y1750D02*
X9000D01*
X7000Y5750D02*
X9000D01*
D15*
X800Y14250D02*
X1050Y14000D01*
X1550D02*
X1800Y14250D01*
X2050Y14000D01*
X2550D02*
X2800Y14250D01*
X3050Y14000D01*
X3550D02*
X3800Y14250D01*
X800D02*
Y15750D01*
X1050Y16000D01*
X1550D01*
X1800Y15750D01*
X2050Y16000D01*
X2550D01*
X2800Y15750D01*
X3050Y16000D01*
X3550D01*
X3800Y15750D01*
X1800Y14250D02*
Y15750D01*
X2800Y14250D02*
Y15750D01*
X3800Y14250D02*
Y15750D01*
X3050Y14000D02*
X3550D01*
X2050D02*
X2550D01*
X1050D02*
X1550D01*
X1050Y13868D02*
X1550D01*
X5615Y15810D02*
X6131D01*
X5615Y14391D02*
X6131D01*
X24550Y5673D02*
Y6006D01*
X24883Y5673D01*
X24967D01*
X25050Y5756D01*
Y5923D01*
X24967Y6006D01*
X23550Y5806D02*
Y5639D01*
Y5723D01*
X24050D01*
X23967Y5806D01*
X24050Y1406D02*
Y1073D01*
X23967D01*
X23633Y1406D01*
X23550D01*
X24967D02*
X25050Y1323D01*
Y1156D01*
X24967Y1073D01*
X24883D01*
X24800Y1156D01*
X24717Y1073D01*
X24633D01*
X24550Y1156D01*
Y1323D01*
X24633Y1406D01*
X24717D01*
X24800Y1323D01*
X24883Y1406D01*
X24967D01*
X24800Y1323D02*
Y1156D01*
X15450Y1583D02*
Y1250D01*
X15117Y1583D01*
X15033D01*
X14950Y1500D01*
Y1333D01*
X15033Y1250D01*
X16450Y1450D02*
Y1617D01*
Y1533D01*
X15950D01*
X16033Y1450D01*
X15950Y5850D02*
Y6183D01*
X16033D01*
X16367Y5850D01*
X16450D01*
X15033D02*
X14950Y5933D01*
Y6100D01*
X15033Y6183D01*
X15117D01*
X15200Y6100D01*
X15283Y6183D01*
X15367D01*
X15450Y6100D01*
Y5933D01*
X15367Y5850D01*
X15283D01*
X15200Y5933D01*
X15117Y5850D01*
X15033D01*
X15200Y5933D02*
Y6100D01*
X10283Y1583D02*
Y1250D01*
X9950Y1583D01*
X9867D01*
X9783Y1500D01*
Y1333D01*
X9867Y1250D01*
X11283Y1450D02*
Y1617D01*
Y1533D01*
X10783D01*
X10867Y1450D01*
X10783Y5850D02*
Y6183D01*
X10867D01*
X11200Y5850D01*
X11283D01*
X9867D02*
X9783Y5933D01*
Y6100D01*
X9867Y6183D01*
X9950D01*
X10033Y6100D01*
X10117Y6183D01*
X10200D01*
X10283Y6100D01*
Y5933D01*
X10200Y5850D01*
X10117D01*
X10033Y5933D01*
X9950Y5850D01*
X9867D01*
X10033Y5933D02*
Y6100D01*
X12867Y1583D02*
Y1250D01*
X12533Y1583D01*
X12450D01*
X12367Y1500D01*
Y1333D01*
X12450Y1250D01*
X13867Y1450D02*
Y1617D01*
Y1533D01*
X13367D01*
X13450Y1450D01*
X13367Y5850D02*
Y6183D01*
X13450D01*
X13783Y5850D01*
X13867D01*
X12450D02*
X12367Y5933D01*
Y6100D01*
X12450Y6183D01*
X12533D01*
X12617Y6100D01*
X12700Y6183D01*
X12783D01*
X12867Y6100D01*
Y5933D01*
X12783Y5850D01*
X12700D01*
X12617Y5933D01*
X12533Y5850D01*
X12450D01*
X12617Y5933D02*
Y6100D01*
X7700Y1583D02*
Y1250D01*
X7367Y1583D01*
X7283D01*
X7200Y1500D01*
Y1333D01*
X7283Y1250D01*
X8700Y1450D02*
Y1617D01*
Y1533D01*
X8200D01*
X8283Y1450D01*
X8200Y5850D02*
Y6183D01*
X8283D01*
X8617Y5850D01*
X8700D01*
X7283D02*
X7200Y5933D01*
Y6100D01*
X7283Y6183D01*
X7367D01*
X7450Y6100D01*
X7533Y6183D01*
X7617D01*
X7700Y6100D01*
Y5933D01*
X7617Y5850D01*
X7533D01*
X7450Y5933D01*
X7367Y5850D01*
X7283D01*
X7450Y5933D02*
Y6100D01*
D16*
X19096Y29618D02*
X19292D01*
X19194D01*
Y30209D01*
X19096Y30110D01*
Y29119D02*
X19194Y29218D01*
X19391D01*
X19489Y29119D01*
Y29021D01*
X19391Y28922D01*
X19292D01*
X19391D01*
X19489Y28824D01*
Y28726D01*
X19391Y28627D01*
X19194D01*
X19096Y28726D01*
M02*
