G04*
G04 #@! TF.GenerationSoftware,Altium Limited,Altium Designer,19.0.10 (269)*
G04*
G04 Layer_Color=65535*
%FSLAX24Y24*%
%MOIN*%
G70*
G01*
G75*
%ADD10C,0.0236*%
%ADD11C,0.0098*%
%ADD12C,0.0100*%
%ADD13C,0.0080*%
%ADD14C,0.0050*%
%ADD15C,0.0079*%
%ADD16C,0.0059*%
%ADD17R,0.0230X0.0065*%
%ADD18R,0.0180X0.0670*%
%ADD19R,0.0256X0.0073*%
D10*
X16145Y27554D02*
X16100Y27646D01*
X16000Y27669D01*
X15920Y27605D01*
Y27503D01*
X16000Y27439D01*
X16100Y27462D01*
X16145Y27554D01*
D11*
X15249Y28105D02*
X15175Y28148D01*
Y28063D01*
X15249Y28105D01*
X6318Y31965D02*
X6244Y32008D01*
Y31923D01*
X6318Y31965D01*
D12*
X12091Y26900D02*
X12082Y27000D01*
X12057Y27097D01*
X12016Y27188D01*
X11959Y27271D01*
X11890Y27343D01*
X11810Y27403D01*
X11720Y27448D01*
X11624Y27477D01*
X11525Y27490D01*
X11425Y27486D01*
X11327Y27465D01*
X11234Y27427D01*
X11149Y27375D01*
X11074Y27309D01*
X11011Y27231D01*
X10962Y27143D01*
X10928Y27049D01*
X10912Y26950D01*
Y26850D01*
X10928Y26751D01*
X10962Y26657D01*
X11011Y26569D01*
X11074Y26491D01*
X11149Y26425D01*
X11234Y26373D01*
X11327Y26335D01*
X11425Y26314D01*
X11525Y26310D01*
X11624Y26323D01*
X11720Y26352D01*
X11810Y26397D01*
X11890Y26457D01*
X11959Y26529D01*
X12016Y26612D01*
X12057Y26703D01*
X12082Y26800D01*
X12091Y26900D01*
X14000Y28200D02*
Y27700D01*
X14100Y27600D01*
X14300D01*
X14400Y27700D01*
Y28200D01*
X14600Y27600D02*
X14800D01*
X14700D01*
Y28200D01*
X14600Y28100D01*
X10700Y28600D02*
Y29200D01*
X11000D01*
X11100Y29100D01*
Y28900D01*
X11000Y28800D01*
X10700D01*
X10900D02*
X11100Y28600D01*
X11700Y29100D02*
X11600Y29200D01*
X11400D01*
X11300Y29100D01*
Y29000D01*
X11400Y28900D01*
X11600D01*
X11700Y28800D01*
Y28700D01*
X11600Y28600D01*
X11400D01*
X11300Y28700D01*
X11900Y29200D02*
X12299D01*
X12100D01*
Y28600D01*
X12499D02*
X12699D01*
X12599D01*
Y29200D01*
X12499Y29100D01*
X7162Y33674D02*
Y34074D01*
X7063Y34174D01*
X6863D01*
X6763Y34074D01*
Y33674D01*
X6863Y33574D01*
X7063D01*
X6963Y33774D02*
X7162Y33574D01*
X7063D02*
X7162Y33674D01*
X7762Y33574D02*
X7362D01*
X7762Y33974D01*
Y34074D01*
X7662Y34174D01*
X7462D01*
X7362Y34074D01*
X6749Y16875D02*
X7149Y16275D01*
Y16875D02*
X6749Y16275D01*
X7348D02*
X7548D01*
X7448D01*
Y16875D01*
X7348Y16775D01*
X6765Y22635D02*
X6665Y22735D01*
X6465D01*
X6365Y22635D01*
Y22235D01*
X6465Y22135D01*
X6665D01*
X6765Y22235D01*
X7365Y22135D02*
X6965D01*
X7365Y22535D01*
Y22635D01*
X7265Y22735D01*
X7065D01*
X6965Y22635D01*
X17700Y13700D02*
Y13100D01*
X18000D01*
X18100Y13200D01*
Y13600D01*
X18000Y13700D01*
X17700D01*
X18700Y13600D02*
X18600Y13700D01*
X18400D01*
X18300Y13600D01*
Y13500D01*
X18400Y13400D01*
X18600D01*
X18700Y13300D01*
Y13200D01*
X18600Y13100D01*
X18400D01*
X18300Y13200D01*
X18900Y13600D02*
X19000Y13700D01*
X19200D01*
X19299Y13600D01*
Y13500D01*
X19200Y13400D01*
X19100D01*
X19200D01*
X19299Y13300D01*
Y13200D01*
X19200Y13100D01*
X19000D01*
X18900Y13200D01*
X6560Y19535D02*
Y18935D01*
X6860D01*
X6960Y19035D01*
Y19435D01*
X6860Y19535D01*
X6560D01*
X7559Y19435D02*
X7459Y19535D01*
X7259D01*
X7159Y19435D01*
Y19335D01*
X7259Y19235D01*
X7459D01*
X7559Y19135D01*
Y19035D01*
X7459Y18935D01*
X7259D01*
X7159Y19035D01*
X7759Y18935D02*
X7959D01*
X7859D01*
Y19535D01*
X7759Y19435D01*
X16926Y21800D02*
Y22400D01*
X17226D01*
X17326Y22300D01*
Y22100D01*
X17226Y22000D01*
X16926D01*
X17126D02*
X17326Y21800D01*
X17525D02*
X17725D01*
X17625D01*
Y22400D01*
X17525Y22300D01*
X18425Y21800D02*
X18025D01*
X18425Y22200D01*
Y22300D01*
X18325Y22400D01*
X18125D01*
X18025Y22300D01*
X26524Y35513D02*
X26924D01*
Y35413D01*
X26524Y35013D01*
Y34913D01*
X26924D01*
X27524D02*
X27124D01*
X27524Y35313D01*
Y35413D01*
X27424Y35513D01*
X27224D01*
X27124Y35413D01*
X17340Y28300D02*
Y28900D01*
X17640D01*
X17740Y28800D01*
Y28600D01*
X17640Y28500D01*
X17340D01*
X18340Y28900D02*
X18140Y28800D01*
X17940Y28600D01*
Y28400D01*
X18040Y28300D01*
X18240D01*
X18340Y28400D01*
Y28500D01*
X18240Y28600D01*
X17940D01*
X24100Y20300D02*
Y20900D01*
X24400D01*
X24500Y20800D01*
Y20600D01*
X24400Y20500D01*
X24100D01*
X24700Y20900D02*
X25100D01*
Y20800D01*
X24700Y20400D01*
Y20300D01*
X4805Y24885D02*
Y25285D01*
X4705Y25385D01*
X4505D01*
X4405Y25285D01*
Y24885D01*
X4505Y24785D01*
X4705D01*
X4605Y24985D02*
X4805Y24785D01*
X4705D02*
X4805Y24885D01*
X5005Y25285D02*
X5105Y25385D01*
X5305D01*
X5405Y25285D01*
Y25185D01*
X5305Y25085D01*
X5205D01*
X5305D01*
X5405Y24985D01*
Y24885D01*
X5305Y24785D01*
X5105D01*
X5005Y24885D01*
X31900Y23553D02*
X32500D01*
Y23253D01*
X32400Y23153D01*
X32200D01*
X32100Y23253D01*
Y23553D01*
Y23353D02*
X31900Y23153D01*
Y22953D02*
Y22753D01*
Y22853D01*
X32500D01*
X32400Y22953D01*
Y22453D02*
X32500Y22353D01*
Y22153D01*
X32400Y22053D01*
X32300D01*
X32200Y22153D01*
Y22253D01*
Y22153D01*
X32100Y22053D01*
X32000D01*
X31900Y22153D01*
Y22353D01*
X32000Y22453D01*
X12400Y7900D02*
Y8500D01*
X12700D01*
X12800Y8400D01*
Y8200D01*
X12700Y8100D01*
X12400D01*
X13000Y7900D02*
X13200D01*
X13100D01*
Y8500D01*
X13000Y8400D01*
X14800Y22300D02*
X14700Y22400D01*
X14500D01*
X14400Y22300D01*
Y21900D01*
X14500Y21800D01*
X14700D01*
X14800Y21900D01*
X15000Y21800D02*
X15200D01*
X15100D01*
Y22400D01*
X15000Y22300D01*
X15900Y21800D02*
X15500D01*
X15900Y22200D01*
Y22300D01*
X15800Y22400D01*
X15600D01*
X15500Y22300D01*
X8745Y24525D02*
Y24925D01*
X8645Y25025D01*
X8445D01*
X8345Y24925D01*
Y24525D01*
X8445Y24425D01*
X8645D01*
X8545Y24625D02*
X8745Y24425D01*
X8645D02*
X8745Y24525D01*
X8945Y24425D02*
X9145D01*
X9045D01*
Y25025D01*
X8945Y24925D01*
X8265Y22635D02*
X8165Y22735D01*
X7965D01*
X7865Y22635D01*
Y22235D01*
X7965Y22135D01*
X8165D01*
X8265Y22235D01*
X8465Y22135D02*
X8665D01*
X8565D01*
Y22735D01*
X8465Y22635D01*
X5097Y21600D02*
X4997Y21700D01*
X4797D01*
X4697Y21600D01*
Y21200D01*
X4797Y21100D01*
X4997D01*
X5097Y21200D01*
X5297Y21600D02*
X5397Y21700D01*
X5597D01*
X5697Y21600D01*
Y21500D01*
X5597Y21400D01*
X5497D01*
X5597D01*
X5697Y21300D01*
Y21200D01*
X5597Y21100D01*
X5397D01*
X5297Y21200D01*
X15500Y16200D02*
X15400Y16300D01*
X15200D01*
X15100Y16200D01*
Y15800D01*
X15200Y15700D01*
X15400D01*
X15500Y15800D01*
X16000Y15700D02*
Y16300D01*
X15700Y16000D01*
X16100D01*
X29922Y9855D02*
X29822Y9955D01*
X29622D01*
X29522Y9855D01*
Y9455D01*
X29622Y9355D01*
X29822D01*
X29922Y9455D01*
X30522Y9955D02*
X30122D01*
Y9655D01*
X30322Y9755D01*
X30422D01*
X30522Y9655D01*
Y9455D01*
X30422Y9355D01*
X30222D01*
X30122Y9455D01*
X28300Y9855D02*
X28200Y9955D01*
X28000D01*
X27900Y9855D01*
Y9455D01*
X28000Y9355D01*
X28200D01*
X28300Y9455D01*
X28900Y9955D02*
X28700Y9855D01*
X28500Y9655D01*
Y9455D01*
X28600Y9355D01*
X28800D01*
X28900Y9455D01*
Y9555D01*
X28800Y9655D01*
X28500D01*
X28900Y7700D02*
X28800Y7800D01*
X28600D01*
X28500Y7700D01*
Y7300D01*
X28600Y7200D01*
X28800D01*
X28900Y7300D01*
X29100Y7800D02*
X29500D01*
Y7700D01*
X29100Y7300D01*
Y7200D01*
X15100Y19003D02*
X15000Y19103D01*
X14800D01*
X14700Y19003D01*
Y18603D01*
X14800Y18503D01*
X15000D01*
X15100Y18603D01*
X15300Y19003D02*
X15400Y19103D01*
X15600D01*
X15700Y19003D01*
Y18903D01*
X15600Y18803D01*
X15700Y18703D01*
Y18603D01*
X15600Y18503D01*
X15400D01*
X15300Y18603D01*
Y18703D01*
X15400Y18803D01*
X15300Y18903D01*
Y19003D01*
X15400Y18803D02*
X15600D01*
X29900Y24300D02*
X29800Y24400D01*
X29600D01*
X29500Y24300D01*
Y23900D01*
X29600Y23800D01*
X29800D01*
X29900Y23900D01*
X30100D02*
X30200Y23800D01*
X30400D01*
X30500Y23900D01*
Y24300D01*
X30400Y24400D01*
X30200D01*
X30100Y24300D01*
Y24200D01*
X30200Y24100D01*
X30500D01*
X28100Y24300D02*
X28000Y24400D01*
X27800D01*
X27700Y24300D01*
Y23900D01*
X27800Y23800D01*
X28000D01*
X28100Y23900D01*
X28300Y23800D02*
X28500D01*
X28400D01*
Y24400D01*
X28300Y24300D01*
X28800D02*
X28900Y24400D01*
X29100D01*
X29200Y24300D01*
Y23900D01*
X29100Y23800D01*
X28900D01*
X28800Y23900D01*
Y24300D01*
X28821Y22300D02*
X28721Y22400D01*
X28521D01*
X28421Y22300D01*
Y21900D01*
X28521Y21800D01*
X28721D01*
X28821Y21900D01*
X29021Y21800D02*
X29221D01*
X29121D01*
Y22400D01*
X29021Y22300D01*
X29521Y21800D02*
X29721D01*
X29621D01*
Y22400D01*
X29521Y22300D01*
X17800Y10100D02*
Y9500D01*
X18100D01*
X18200Y9600D01*
Y10000D01*
X18100Y10100D01*
X17800D01*
X18800Y10000D02*
X18700Y10100D01*
X18500D01*
X18400Y10000D01*
Y9900D01*
X18500Y9800D01*
X18700D01*
X18800Y9700D01*
Y9600D01*
X18700Y9500D01*
X18500D01*
X18400Y9600D01*
X19399Y9500D02*
X19000D01*
X19399Y9900D01*
Y10000D01*
X19300Y10100D01*
X19100D01*
X19000Y10000D01*
X4465Y30335D02*
Y30935D01*
X4765D01*
X4865Y30835D01*
Y30635D01*
X4765Y30535D01*
X4465D01*
X5465Y30335D02*
X5065D01*
X5465Y30735D01*
Y30835D01*
X5365Y30935D01*
X5165D01*
X5065Y30835D01*
X4465Y33535D02*
Y34135D01*
X4765D01*
X4865Y34035D01*
Y33835D01*
X4765Y33735D01*
X4465D01*
X5065Y34035D02*
X5165Y34135D01*
X5365D01*
X5465Y34035D01*
Y33935D01*
X5365Y33835D01*
X5265D01*
X5365D01*
X5465Y33735D01*
Y33635D01*
X5365Y33535D01*
X5165D01*
X5065Y33635D01*
X8565Y33635D02*
Y34235D01*
X8865D01*
X8965Y34135D01*
Y33935D01*
X8865Y33835D01*
X8565D01*
X9465Y33635D02*
Y34235D01*
X9165Y33935D01*
X9565D01*
X4465Y36735D02*
Y37335D01*
X4765D01*
X4865Y37235D01*
Y37035D01*
X4765Y36935D01*
X4465D01*
X5465Y37335D02*
X5065D01*
Y37035D01*
X5265Y37135D01*
X5365D01*
X5465Y37035D01*
Y36835D01*
X5365Y36735D01*
X5165D01*
X5065Y36835D01*
X4221Y19115D02*
Y19715D01*
X4521D01*
X4621Y19615D01*
Y19415D01*
X4521Y19315D01*
X4221D01*
X4421D02*
X4621Y19115D01*
X4821D02*
X5021D01*
X4921D01*
Y19715D01*
X4821Y19615D01*
X15400Y9600D02*
Y10200D01*
X15700D01*
X15800Y10100D01*
Y9900D01*
X15700Y9800D01*
X15400D01*
X15600D02*
X15800Y9600D01*
X16400D02*
X16000D01*
X16400Y10000D01*
Y10100D01*
X16300Y10200D01*
X16100D01*
X16000Y10100D01*
X15115Y13115D02*
Y13715D01*
X15415D01*
X15515Y13615D01*
Y13415D01*
X15415Y13315D01*
X15115D01*
X15315D02*
X15515Y13115D01*
X15715Y13615D02*
X15815Y13715D01*
X16015D01*
X16115Y13615D01*
Y13515D01*
X16015Y13415D01*
X15915D01*
X16015D01*
X16115Y13315D01*
Y13215D01*
X16015Y13115D01*
X15815D01*
X15715Y13215D01*
X6809Y24315D02*
Y24915D01*
X7109D01*
X7209Y24815D01*
Y24615D01*
X7109Y24515D01*
X6809D01*
X7009D02*
X7209Y24315D01*
X7708D02*
Y24915D01*
X7409Y24615D01*
X7808D01*
X7900Y27894D02*
Y28494D01*
X8200D01*
X8300Y28394D01*
Y28194D01*
X8200Y28094D01*
X7900D01*
X8100D02*
X8300Y27894D01*
X8900Y28494D02*
X8500D01*
Y28194D01*
X8700Y28294D01*
X8800D01*
X8900Y28194D01*
Y27994D01*
X8800Y27894D01*
X8600D01*
X8500Y27994D01*
X21000Y18800D02*
Y19400D01*
X21300D01*
X21400Y19300D01*
Y19100D01*
X21300Y19000D01*
X21000D01*
X21200D02*
X21400Y18800D01*
X22000Y19400D02*
X21800Y19300D01*
X21600Y19100D01*
Y18900D01*
X21700Y18800D01*
X21900D01*
X22000Y18900D01*
Y19000D01*
X21900Y19100D01*
X21600D01*
X19418Y18813D02*
Y19412D01*
X19718D01*
X19818Y19312D01*
Y19112D01*
X19718Y19013D01*
X19418D01*
X19618D02*
X19818Y18813D01*
X20018Y19412D02*
X20418D01*
Y19312D01*
X20018Y18913D01*
Y18813D01*
X16961Y18500D02*
Y19100D01*
X17261D01*
X17361Y19000D01*
Y18800D01*
X17261Y18700D01*
X16961D01*
X17161D02*
X17361Y18500D01*
X17560Y19000D02*
X17660Y19100D01*
X17860D01*
X17960Y19000D01*
Y18900D01*
X17860Y18800D01*
X17960Y18700D01*
Y18600D01*
X17860Y18500D01*
X17660D01*
X17560Y18600D01*
Y18700D01*
X17660Y18800D01*
X17560Y18900D01*
Y19000D01*
X17660Y18800D02*
X17860D01*
X31915Y8991D02*
X32515D01*
Y8691D01*
X32415Y8591D01*
X32215D01*
X32115Y8691D01*
Y8991D01*
Y8791D02*
X31915Y8591D01*
X32015Y8391D02*
X31915Y8292D01*
Y8092D01*
X32015Y7992D01*
X32415D01*
X32515Y8092D01*
Y8292D01*
X32415Y8391D01*
X32315D01*
X32215Y8292D01*
Y7992D01*
X21100Y21700D02*
Y22300D01*
X21400D01*
X21500Y22200D01*
Y22000D01*
X21400Y21900D01*
X21100D01*
X21300D02*
X21500Y21700D01*
X21700D02*
X21900D01*
X21800D01*
Y22300D01*
X21700Y22200D01*
X22200D02*
X22300Y22300D01*
X22500D01*
X22600Y22200D01*
Y21800D01*
X22500Y21700D01*
X22300D01*
X22200Y21800D01*
Y22200D01*
X19118Y21700D02*
Y22300D01*
X19418D01*
X19518Y22200D01*
Y22000D01*
X19418Y21900D01*
X19118D01*
X19318D02*
X19518Y21700D01*
X19718D02*
X19918D01*
X19818D01*
Y22300D01*
X19718Y22200D01*
X20218Y21700D02*
X20418D01*
X20318D01*
Y22300D01*
X20218Y22200D01*
X26366Y21013D02*
X26766D01*
Y20913D01*
X26366Y20513D01*
Y20413D01*
X26766D01*
X26966D02*
X27166D01*
X27066D01*
Y21013D01*
X26966Y20913D01*
X3200Y37600D02*
X3200Y4600D01*
X3200Y37600D02*
X32600D01*
X32600Y4600D01*
X3200D02*
X32600D01*
D13*
X19031Y12510D02*
X18946Y12595D01*
Y12005D02*
X19031Y12090D01*
X17854Y12595D02*
X17769Y12510D01*
Y12090D02*
X17854Y12005D01*
X6604Y18090D02*
X6689Y18005D01*
Y18595D02*
X6604Y18510D01*
X7780Y18005D02*
X7865Y18090D01*
Y18510D02*
X7780Y18595D01*
X18996Y11010D02*
X18911Y11095D01*
Y10505D02*
X18996Y10590D01*
X17820Y11095D02*
X17735Y11010D01*
Y10590D02*
X17820Y10505D01*
X8110Y15344D02*
Y15860D01*
X6691Y15344D02*
Y15860D01*
X19031Y12090D02*
Y12510D01*
X17769Y12090D02*
Y12510D01*
X17854Y12595D02*
X18946D01*
X17854Y12005D02*
X18946D01*
X6604Y18090D02*
Y18510D01*
X7865Y18090D02*
Y18510D01*
X6689Y18005D02*
X7780D01*
X6689Y18595D02*
X7780D01*
X12850Y7400D02*
X13100Y7150D01*
X12100D02*
X12350Y7400D01*
X11850D02*
X12100Y7150D01*
X11100D02*
X11350Y7400D01*
X10850D02*
X11100Y7150D01*
X10100D02*
X10350Y7400D01*
X13100Y5650D02*
Y7150D01*
X12850Y5400D02*
X13100Y5650D01*
X12350Y5400D02*
X12850D01*
X12100Y5650D02*
X12350Y5400D01*
X11850D02*
X12100Y5650D01*
X11350Y5400D02*
X11850D01*
X11100Y5650D02*
X11350Y5400D01*
X10850D02*
X11100Y5650D01*
X10350Y5400D02*
X10850D01*
X10100Y5650D02*
X10350Y5400D01*
X12100Y5650D02*
Y7150D01*
X11100Y5650D02*
Y7150D01*
X10100Y5650D02*
Y7150D01*
X10350Y7400D02*
X10850D01*
X11350D02*
X11850D01*
X12350D02*
X12850D01*
X12350Y7532D02*
X12850D01*
X18996Y10590D02*
Y11010D01*
X17735Y10590D02*
Y11010D01*
X17820Y11095D02*
X18911D01*
X17820Y10505D02*
X18911D01*
X16500Y37167D02*
Y37500D01*
X16833Y37167D01*
X16917D01*
X17000Y37250D01*
Y37417D01*
X16917Y37500D01*
X15500D02*
Y37333D01*
Y37417D01*
X16000D01*
X15917Y37500D01*
X16500Y29500D02*
Y29333D01*
Y29417D01*
X17000D01*
X16917Y29500D01*
X16500Y28834D02*
X17000D01*
X16750Y29083D01*
Y28750D01*
X15500Y29500D02*
Y29333D01*
Y29417D01*
X16000D01*
X15917Y29500D01*
Y29083D02*
X16000Y29000D01*
Y28834D01*
X15917Y28750D01*
X15833D01*
X15750Y28834D01*
Y28917D01*
Y28834D01*
X15667Y28750D01*
X15583D01*
X15500Y28834D01*
Y29000D01*
X15583Y29083D01*
D14*
X11150Y24100D02*
X11169Y24004D01*
X11223Y23923D01*
X11304Y23869D01*
X11400Y23850D01*
X11496Y23869D01*
X11577Y23923D01*
X11631Y24004D01*
X11650Y24100D01*
X10300Y9500D02*
X12500D01*
Y24100D01*
X11650D02*
X12500D01*
X10300Y9500D02*
Y24100D01*
X11150D01*
D15*
X15633Y24837D02*
X17090D01*
X15633Y27948D02*
X17090D01*
Y24837D02*
Y27948D01*
X15633Y24837D02*
Y27948D01*
X10260Y28144D02*
X12744D01*
X10260Y25660D02*
Y28144D01*
Y25660D02*
X12744D01*
Y28144D01*
X6524Y32576D02*
Y32891D01*
X6839D01*
X6524Y31709D02*
Y32024D01*
Y31709D02*
X6839D01*
X6300Y19800D02*
Y21800D01*
Y19800D02*
X7300D01*
Y21800D01*
X6300D02*
X7300D01*
X16923Y20926D02*
Y21083D01*
X17198Y20926D02*
Y21083D01*
X15200Y29800D02*
X17200D01*
X15200Y36800D02*
X17200D01*
Y29800D02*
Y36800D01*
X15200Y29800D02*
Y36800D01*
X24000Y18100D02*
X25000D01*
X24000D02*
Y20100D01*
X25000D01*
Y18100D02*
Y20100D01*
X4345Y22724D02*
X4518Y22551D01*
X4345Y24276D02*
X4518Y24449D01*
Y24445D02*
X5455D01*
X4518Y22555D02*
X5455D01*
X4345Y22724D02*
Y24276D01*
X5455Y22555D02*
Y24445D01*
X31044Y22706D02*
X31556D01*
X7800Y19800D02*
Y21800D01*
Y19800D02*
X8800D01*
Y21800D01*
X7800D02*
X8800D01*
X4400Y30000D02*
X5400D01*
Y28000D02*
Y30000D01*
X4400Y28000D02*
X5400D01*
X4400D02*
Y30000D01*
Y33200D02*
X5400D01*
Y31200D02*
Y33200D01*
X4400Y31200D02*
X5400D01*
X4400D02*
Y33200D01*
X8500Y33300D02*
X9500D01*
Y31300D02*
Y33300D01*
X8500Y31300D02*
X9500D01*
X8500D02*
Y33300D01*
X4400Y36400D02*
X5400D01*
Y34400D02*
Y36400D01*
X4400Y34400D02*
X5400D01*
X4400D02*
Y36400D01*
X5006Y18044D02*
Y18556D01*
X15900Y10544D02*
Y11056D01*
Y12044D02*
Y12556D01*
X7594Y23244D02*
Y23756D01*
X8144Y26800D02*
X8656D01*
X20644Y17606D02*
X21156D01*
X18862D02*
X19374D01*
X17198Y17826D02*
Y17983D01*
X16923Y17826D02*
Y17983D01*
X30844Y8206D02*
X31356D01*
X20644Y20706D02*
X21156D01*
X18862D02*
X19374D01*
D16*
X5796Y23719D02*
X5992D01*
X5894D01*
Y24309D01*
X5796Y24210D01*
Y23219D02*
X5894Y23318D01*
X6091D01*
X6189Y23219D01*
Y23121D01*
X6091Y23022D01*
X5992D01*
X6091D01*
X6189Y22924D01*
Y22826D01*
X6091Y22727D01*
X5894D01*
X5796Y22826D01*
D17*
X18987Y12603D02*
D03*
X6648Y17997D02*
D03*
X18952Y11103D02*
D03*
D18*
X19087Y12300D02*
D03*
X6548Y18300D02*
D03*
X19052Y10800D02*
D03*
D19*
X18974Y12002D02*
D03*
X6661Y18598D02*
D03*
X18939Y10502D02*
D03*
M02*
