G04*
G04 #@! TF.GenerationSoftware,Altium Limited,Altium Designer,19.1.8 (144)*
G04*
G04 Layer_Color=65535*
%FSLAX25Y25*%
%MOIN*%
G70*
G01*
G75*
%ADD10C,0.00500*%
%ADD11C,0.00800*%
%ADD12C,0.01000*%
%ADD13C,0.02362*%
%ADD14C,0.00984*%
%ADD15C,0.00787*%
%ADD16R,0.00650X0.02300*%
%ADD17R,0.06700X0.01800*%
%ADD18R,0.00730X0.02560*%
%ADD19R,0.02300X0.00650*%
%ADD20R,0.01800X0.06700*%
%ADD21R,0.02560X0.00730*%
D10*
X147500Y183000D02*
X147690Y182043D01*
X148232Y181232D01*
X149043Y180690D01*
X150000Y180500D01*
X150957Y180690D01*
X151768Y181232D01*
X152310Y182043D01*
X152500Y183000D01*
X139000D02*
X147500D01*
X139000Y37000D02*
Y183000D01*
X152500D02*
X161000D01*
Y37000D02*
Y183000D01*
X139000Y37000D02*
X161000D01*
D11*
X117900Y154652D02*
X117050Y153802D01*
X122950D02*
X122100Y154652D01*
X117050Y142891D02*
X117900Y142041D01*
X122100D02*
X122950Y142891D01*
X33694Y187900D02*
X34544Y187050D01*
Y192950D02*
X33694Y192100D01*
X45456Y187050D02*
X46306Y187900D01*
Y192100D02*
X45456Y192950D01*
X79500Y28000D02*
X82000Y25500D01*
X72000D02*
X74500Y28000D01*
X69500D02*
X72000Y25500D01*
X62000D02*
X64500Y28000D01*
X59500D02*
X62000Y25500D01*
X52000D02*
X54500Y28000D01*
X82000Y10500D02*
Y25500D01*
X79500Y8000D02*
X82000Y10500D01*
X74500Y8000D02*
X79500D01*
X72000Y10500D02*
X74500Y8000D01*
X69500D02*
X72000Y10500D01*
X64500Y8000D02*
X69500D01*
X62000Y10500D02*
X64500Y8000D01*
X59500D02*
X62000Y10500D01*
X54500Y8000D02*
X59500D01*
X52000Y10500D02*
X54500Y8000D01*
X72000Y10500D02*
Y25500D01*
X62000Y10500D02*
Y25500D01*
X52000Y10500D02*
Y25500D01*
X54500Y28000D02*
X59500D01*
X64500D02*
X69500D01*
X74500D02*
X79500D01*
X74500Y29319D02*
X79500D01*
X117900Y154652D02*
X122100D01*
X117900Y142041D02*
X122100D01*
X117050Y142891D02*
Y153802D01*
X122950Y142891D02*
Y153802D01*
X33694Y187900D02*
Y192100D01*
X46306Y187900D02*
Y192100D01*
X34544Y187050D02*
X45456D01*
X34544Y192950D02*
X45456D01*
X107441Y102938D02*
X112600D01*
X107441Y117124D02*
X112600D01*
X65000Y42000D02*
Y40334D01*
Y41167D01*
X69998D01*
X69165Y42000D01*
Y37835D02*
X69998Y37002D01*
Y35335D01*
X69165Y34502D01*
X65833D01*
X65000Y35335D01*
Y37002D01*
X65833Y37835D01*
X69165D01*
X55833Y42000D02*
X55000Y41167D01*
Y39501D01*
X55833Y38668D01*
X59165D01*
X59998Y39501D01*
Y41167D01*
X59165Y42000D01*
X58332D01*
X57499Y41167D01*
Y38668D01*
X55000Y96000D02*
Y94334D01*
Y95167D01*
X59998D01*
X59165Y96000D01*
X65000Y94668D02*
Y98000D01*
X68332Y94668D01*
X69165D01*
X69998Y95501D01*
Y97167D01*
X69165Y98000D01*
D12*
X100906Y170000D02*
X100821Y170998D01*
X100568Y171967D01*
X100156Y172880D01*
X99595Y173710D01*
X98902Y174433D01*
X98096Y175029D01*
X97202Y175480D01*
X96244Y175773D01*
X95251Y175900D01*
X94250Y175858D01*
X93271Y175647D01*
X92341Y175273D01*
X91488Y174748D01*
X90737Y174086D01*
X90107Y173307D01*
X89619Y172432D01*
X89285Y171488D01*
X89116Y170501D01*
Y169499D01*
X89285Y168512D01*
X89619Y167568D01*
X90107Y166693D01*
X90737Y165914D01*
X91488Y165252D01*
X92341Y164727D01*
X93271Y164353D01*
X94250Y164142D01*
X95251Y164100D01*
X96244Y164227D01*
X97202Y164520D01*
X98096Y164971D01*
X98902Y165567D01*
X99595Y166290D01*
X100156Y167120D01*
X100568Y168033D01*
X100821Y169002D01*
X100906Y170000D01*
X221500Y174000D02*
Y177999D01*
X223499D01*
X224166Y177332D01*
Y175999D01*
X223499Y175333D01*
X221500D01*
X222833D02*
X224166Y174000D01*
X225499D02*
X226832D01*
X226165D01*
Y177999D01*
X225499Y177332D01*
X228831D02*
X229497Y177999D01*
X230830D01*
X231497Y177332D01*
Y174667D01*
X230830Y174000D01*
X229497D01*
X228831Y174667D01*
Y177332D01*
X181000Y142000D02*
Y145999D01*
X182999D01*
X183666Y145332D01*
Y143999D01*
X182999Y143333D01*
X181000D01*
X182333D02*
X183666Y142000D01*
X187664Y145999D02*
X186332Y145332D01*
X184999Y143999D01*
Y142666D01*
X185665Y142000D01*
X186998D01*
X187664Y142666D01*
Y143333D01*
X186998Y143999D01*
X184999D01*
X234000Y173937D02*
Y177936D01*
X235999D01*
X236666Y177269D01*
Y175936D01*
X235999Y175270D01*
X234000D01*
X235333D02*
X236666Y173937D01*
X237999D02*
X239332D01*
X238665D01*
Y177936D01*
X237999Y177269D01*
X241331Y173937D02*
X242664D01*
X241997D01*
Y177936D01*
X241331Y177269D01*
X221000Y149437D02*
Y153436D01*
X222999D01*
X223666Y152769D01*
Y151436D01*
X222999Y150770D01*
X221000D01*
X222333D02*
X223666Y149437D01*
X224999Y150103D02*
X225665Y149437D01*
X226998D01*
X227664Y150103D01*
Y152769D01*
X226998Y153436D01*
X225665D01*
X224999Y152769D01*
Y152103D01*
X225665Y151436D01*
X227664D01*
X211500Y85000D02*
Y88999D01*
X213499D01*
X214166Y88332D01*
Y86999D01*
X213499Y86333D01*
X211500D01*
X212833D02*
X214166Y85000D01*
X215499D02*
X216832D01*
X216165D01*
Y88999D01*
X215499Y88332D01*
X221497Y88999D02*
X220164Y88332D01*
X218831Y86999D01*
Y85666D01*
X219497Y85000D01*
X220830D01*
X221497Y85666D01*
Y86333D01*
X220830Y86999D01*
X218831D01*
X194000Y85000D02*
Y88999D01*
X195999D01*
X196666Y88332D01*
Y86999D01*
X195999Y86333D01*
X194000D01*
X195333D02*
X196666Y85000D01*
X197999D02*
X199332D01*
X198665D01*
Y88999D01*
X197999Y88332D01*
X203330Y85000D02*
Y88999D01*
X201331Y86999D01*
X203997D01*
X214000Y103000D02*
Y106999D01*
X215999D01*
X216666Y106332D01*
Y104999D01*
X215999Y104333D01*
X214000D01*
X215333D02*
X216666Y103000D01*
X217999D02*
X219332D01*
X218665D01*
Y106999D01*
X217999Y106332D01*
X221331Y106999D02*
X223997D01*
Y106332D01*
X221331Y103666D01*
Y103000D01*
X194000D02*
Y106999D01*
X195999D01*
X196666Y106332D01*
Y104999D01*
X195999Y104333D01*
X194000D01*
X195333D02*
X196666Y103000D01*
X197999D02*
X199332D01*
X198665D01*
Y106999D01*
X197999Y106332D01*
X203997Y106999D02*
X201331D01*
Y104999D01*
X202664Y105666D01*
X203330D01*
X203997Y104999D01*
Y103666D01*
X203330Y103000D01*
X201997D01*
X201331Y103666D01*
X119999Y65998D02*
X118999Y66998D01*
X117000D01*
X116000Y65998D01*
Y62000D01*
X117000Y61000D01*
X118999D01*
X119999Y62000D01*
X125997Y61000D02*
X121998D01*
X125997Y64999D01*
Y65998D01*
X124997Y66998D01*
X122998D01*
X121998Y65998D01*
X104999Y70998D02*
X103999Y71998D01*
X102000D01*
X101000Y70998D01*
Y67000D01*
X102000Y66000D01*
X103999D01*
X104999Y67000D01*
X106998Y70998D02*
X107998Y71998D01*
X109997D01*
X110997Y70998D01*
Y69999D01*
X109997Y68999D01*
X108997D01*
X109997D01*
X110997Y67999D01*
Y67000D01*
X109997Y66000D01*
X107998D01*
X106998Y67000D01*
X65000Y170000D02*
X70998D01*
Y167001D01*
X69998Y166001D01*
X67999D01*
X66999Y167001D01*
Y170000D01*
Y168001D02*
X65000Y166001D01*
Y164002D02*
Y162003D01*
Y163002D01*
X70998D01*
X69998Y164002D01*
X65000Y195000D02*
X70998D01*
Y192001D01*
X69998Y191001D01*
X67999D01*
X66999Y192001D01*
Y195000D01*
Y193001D02*
X65000Y191001D01*
Y186003D02*
X70998D01*
X67999Y189002D01*
Y185003D01*
X85600Y98400D02*
Y104398D01*
X88599D01*
X89599Y103398D01*
Y101399D01*
X88599Y100399D01*
X85600D01*
X95597Y98400D02*
X91598D01*
X95597Y102399D01*
Y103398D01*
X94597Y104398D01*
X92598D01*
X91598Y103398D01*
X85600Y138400D02*
Y144398D01*
X88599D01*
X89599Y143398D01*
Y141399D01*
X88599Y140399D01*
X85600D01*
X91598Y138400D02*
X93597D01*
X92598D01*
Y144398D01*
X91598Y143398D01*
X52600Y32700D02*
Y38698D01*
X55599D01*
X56599Y37698D01*
Y35699D01*
X55599Y34699D01*
X52600D01*
X58598Y37698D02*
X59598Y38698D01*
X61597D01*
X62597Y37698D01*
Y36699D01*
X61597Y35699D01*
X60597D01*
X61597D01*
X62597Y34699D01*
Y33700D01*
X61597Y32700D01*
X59598D01*
X58598Y33700D01*
X115900Y181900D02*
Y187898D01*
X118899D01*
X119899Y186898D01*
Y184899D01*
X118899Y183899D01*
X115900D01*
X117899D02*
X119899Y181900D01*
X125897Y187898D02*
X121898D01*
Y184899D01*
X123897Y185899D01*
X124897D01*
X125897Y184899D01*
Y182900D01*
X124897Y181900D01*
X122898D01*
X121898Y182900D01*
X117600Y165098D02*
Y159100D01*
X120599D01*
X121599Y160100D01*
Y164098D01*
X120599Y165098D01*
X117600D01*
X127597Y164098D02*
X126597Y165098D01*
X124598D01*
X123598Y164098D01*
Y163099D01*
X124598Y162099D01*
X126597D01*
X127597Y161099D01*
Y160100D01*
X126597Y159100D01*
X124598D01*
X123598Y160100D01*
X129596Y164098D02*
X130596Y165098D01*
X132595D01*
X133595Y164098D01*
Y163099D01*
X131596Y161099D01*
Y160100D02*
Y159100D01*
X142100Y199100D02*
Y205098D01*
X145099D01*
X146099Y204098D01*
Y202099D01*
X145099Y201099D01*
X142100D01*
X144099D02*
X146099Y199100D01*
X148098Y198100D02*
X152097D01*
X154096Y205098D02*
Y199100D01*
X157095D01*
X158095Y200100D01*
Y201099D01*
Y202099D01*
X157095Y203099D01*
X154096D01*
X52600Y101800D02*
Y107798D01*
X55599D01*
X56599Y106798D01*
Y104799D01*
X55599Y103799D01*
X52600D01*
X61597Y101800D02*
Y107798D01*
X58598Y104799D01*
X62597D01*
X90599Y64398D02*
X89599Y65398D01*
X87600D01*
X86600Y64398D01*
Y60400D01*
X87600Y59400D01*
X89599D01*
X90599Y60400D01*
X92598Y59400D02*
X94597D01*
X93598D01*
Y65398D01*
X92598Y64398D01*
X97596D02*
X98596Y65398D01*
X100595D01*
X101595Y64398D01*
Y60400D01*
X100595Y59400D01*
X98596D01*
X97596Y60400D01*
Y64398D01*
X134449Y187250D02*
Y191248D01*
X133449Y192248D01*
X131450D01*
X130450Y191248D01*
Y187250D01*
X131450Y186250D01*
X133449D01*
X132449Y188249D02*
X134449Y186250D01*
X133449D02*
X134449Y187250D01*
X136448Y186250D02*
X138447D01*
X137448D01*
Y192248D01*
X136448Y191248D01*
X178899Y111698D02*
X177899Y112698D01*
X175900D01*
X174900Y111698D01*
Y107700D01*
X175900Y106700D01*
X177899D01*
X178899Y107700D01*
X180898Y106700D02*
X182897D01*
X181898D01*
Y112698D01*
X180898Y111698D01*
X83250Y192150D02*
Y198148D01*
X86249D01*
X87249Y197148D01*
Y195149D01*
X86249Y194149D01*
X83250D01*
X85249D02*
X87249Y192150D01*
X93247Y197148D02*
X92247Y198148D01*
X90248D01*
X89248Y197148D01*
Y196149D01*
X90248Y195149D01*
X92247D01*
X93247Y194149D01*
Y193150D01*
X92247Y192150D01*
X90248D01*
X89248Y193150D01*
X95246Y198148D02*
X99245D01*
X97246D01*
Y192150D01*
X33250Y202348D02*
Y196350D01*
X36249D01*
X37249Y197350D01*
Y201348D01*
X36249Y202348D01*
X33250D01*
X43247Y201348D02*
X42247Y202348D01*
X40248D01*
X39248Y201348D01*
Y200349D01*
X40248Y199349D01*
X42247D01*
X43247Y198349D01*
Y197350D01*
X42247Y196350D01*
X40248D01*
X39248Y197350D01*
X45246Y196350D02*
X47245D01*
X46246D01*
Y202348D01*
X45246Y201348D01*
X47500Y155098D02*
Y150100D01*
X48500Y149100D01*
X50499D01*
X51499Y150100D01*
Y155098D01*
X53498Y149100D02*
X55497D01*
X54498D01*
Y155098D01*
X53498Y154098D01*
X107200Y126498D02*
X111199Y120500D01*
Y126498D02*
X107200Y120500D01*
X113198D02*
X115197D01*
X114198D01*
Y126498D01*
X113198Y125498D01*
X190000Y189744D02*
Y184745D01*
X191000Y183746D01*
X192999D01*
X193999Y184745D01*
Y189744D01*
X199997Y183746D02*
X195998D01*
X199997Y187744D01*
Y188744D01*
X198997Y189744D01*
X196998D01*
X195998Y188744D01*
X221400Y198900D02*
Y202899D01*
X223399D01*
X224066Y202232D01*
Y200899D01*
X223399Y200233D01*
X221400D01*
X222733D02*
X224066Y198900D01*
X225399D02*
X226732D01*
X226065D01*
Y202899D01*
X225399Y202232D01*
X228731D02*
X229397Y202899D01*
X230730D01*
X231397Y202232D01*
Y201566D01*
X230730Y200899D01*
X230064D01*
X230730D01*
X231397Y200233D01*
Y199566D01*
X230730Y198900D01*
X229397D01*
X228731Y199566D01*
X201137Y142100D02*
Y146099D01*
X203136D01*
X203803Y145432D01*
Y144099D01*
X203136Y143433D01*
X201137D01*
X202470D02*
X203803Y142100D01*
X205136Y146099D02*
X207802D01*
Y145432D01*
X205136Y142766D01*
Y142100D01*
X233900Y198900D02*
Y202899D01*
X235899D01*
X236566Y202232D01*
Y200899D01*
X235899Y200233D01*
X233900D01*
X235233D02*
X236566Y198900D01*
X237899D02*
X239232D01*
X238565D01*
Y202899D01*
X237899Y202232D01*
X243897Y198900D02*
X241231D01*
X243897Y201566D01*
Y202232D01*
X243230Y202899D01*
X241897D01*
X241231Y202232D01*
X234400Y149400D02*
Y153399D01*
X236399D01*
X237066Y152732D01*
Y151399D01*
X236399Y150733D01*
X234400D01*
X235733D02*
X237066Y149400D01*
X238399Y152732D02*
X239065Y153399D01*
X240398D01*
X241065Y152732D01*
Y152066D01*
X240398Y151399D01*
X241065Y150733D01*
Y150066D01*
X240398Y149400D01*
X239065D01*
X238399Y150066D01*
Y150733D01*
X239065Y151399D01*
X238399Y152066D01*
Y152732D01*
X239065Y151399D02*
X240398D01*
X189100Y122900D02*
Y128898D01*
X192099D01*
X193099Y127898D01*
Y125899D01*
X192099Y124899D01*
X189100D01*
X199097Y128898D02*
X195098D01*
Y125899D01*
X197097Y126899D01*
X198097D01*
X199097Y125899D01*
Y123900D01*
X198097Y122900D01*
X196098D01*
X195098Y123900D01*
X189600Y64900D02*
Y70898D01*
X192599D01*
X193599Y69898D01*
Y67899D01*
X192599Y66899D01*
X189600D01*
X199597Y70898D02*
X197597Y69898D01*
X195598Y67899D01*
Y65900D01*
X196598Y64900D01*
X198597D01*
X199597Y65900D01*
Y66899D01*
X198597Y67899D01*
X195598D01*
D13*
X59835Y139614D02*
X59390Y140538D01*
X58391Y140766D01*
X57589Y140127D01*
Y139102D01*
X58391Y138463D01*
X59390Y138691D01*
X59835Y139614D01*
D14*
X50878Y145126D02*
X50140Y145552D01*
Y144700D01*
X50878Y145126D01*
X190449Y154354D02*
X189711Y154780D01*
Y153928D01*
X190449Y154354D01*
D15*
X188000Y131441D02*
Y136559D01*
X235441Y163000D02*
X240559D01*
X222941D02*
X228059D01*
X223441Y138000D02*
X228559D01*
X217937Y74941D02*
Y80059D01*
X197563Y74941D02*
Y80059D01*
X217937Y92941D02*
Y98059D01*
X197563Y92941D02*
Y98059D01*
X106000Y36000D02*
Y56000D01*
Y36000D02*
X116000D01*
Y56000D01*
X106000D02*
X116000D01*
X57441Y163937D02*
X62559D01*
X57441Y190000D02*
X62559D01*
X85000Y75000D02*
X95000D01*
X85000D02*
Y95000D01*
X95000D01*
Y75000D02*
Y95000D01*
X85000Y135000D02*
X95000D01*
Y115000D02*
Y135000D01*
X85000Y115000D02*
X95000D01*
X85000D02*
Y135000D01*
X117441Y170000D02*
X122559D01*
X150000Y187441D02*
Y192559D01*
X52000Y43000D02*
Y93000D01*
X72000Y43000D02*
Y93000D01*
X52000D02*
X72000D01*
X52000Y43000D02*
X72000D01*
X86000Y36000D02*
Y56000D01*
Y36000D02*
X96000D01*
Y56000D01*
X86000D02*
X96000D01*
X107441Y157559D02*
Y182402D01*
X82598D02*
X107441D01*
X82598Y157559D02*
Y182402D01*
Y157559D02*
X107441D01*
X54717Y112449D02*
X69283D01*
X54717Y143551D02*
X69283D01*
Y112449D02*
Y143551D01*
X54717Y112449D02*
Y143551D01*
X210843Y160850D02*
Y167150D01*
X191157Y160850D02*
Y167150D01*
X210843D01*
X191157Y160850D02*
X210843D01*
X222941Y187063D02*
X228059D01*
X209000Y131441D02*
Y136559D01*
X235441Y187000D02*
X240559D01*
X235941Y137563D02*
X241059D01*
X228500Y109500D02*
Y119500D01*
X188500Y109500D02*
X228500D01*
X188500Y119500D02*
X228500D01*
X188500Y109500D02*
Y119500D01*
X189000Y51500D02*
Y61500D01*
X209000D01*
Y51500D02*
Y61500D01*
X189000Y51500D02*
X209000D01*
D16*
X116975Y154213D02*
D03*
D17*
X120000Y155213D02*
D03*
D18*
X122985Y154083D02*
D03*
D19*
X34133Y186975D02*
D03*
D20*
X33133Y190000D02*
D03*
D21*
X34263Y192985D02*
D03*
M02*
