G04*
G04 #@! TF.GenerationSoftware,Altium Limited,Altium Designer,19.1.8 (144)*
G04*
G04 Layer_Physical_Order=1*
G04 Layer_Color=255*
%FSLAX25Y25*%
%MOIN*%
G70*
G01*
G75*
%ADD12C,0.01000*%
%ADD25R,0.03937X0.03937*%
%ADD28R,0.03937X0.03937*%
%ADD39R,0.05512X0.05906*%
%ADD40R,0.05906X0.05512*%
%ADD41R,0.02362X0.01968*%
%ADD42R,0.01968X0.02362*%
G04:AMPARAMS|DCode=43|XSize=57mil|YSize=45mil|CornerRadius=11.25mil|HoleSize=0mil|Usage=FLASHONLY|Rotation=90.000|XOffset=0mil|YOffset=0mil|HoleType=Round|Shape=RoundedRectangle|*
%AMROUNDEDRECTD43*
21,1,0.05700,0.02250,0,0,90.0*
21,1,0.03450,0.04500,0,0,90.0*
1,1,0.02250,0.01125,0.01725*
1,1,0.02250,0.01125,-0.01725*
1,1,0.02250,-0.01125,-0.01725*
1,1,0.02250,-0.01125,0.01725*
%
%ADD43ROUNDEDRECTD43*%
%ADD44O,0.05512X0.01772*%
%ADD45R,0.06700X0.02800*%
%ADD46O,0.02756X0.09843*%
%ADD47O,0.10400X0.05200*%
%ADD48C,0.04724*%
%ADD49R,0.05906X0.05906*%
%ADD50C,0.05906*%
%ADD51P,0.08010X8X202.5*%
%ADD52R,0.05906X0.05906*%
%ADD53C,0.05000*%
D12*
X153937Y174163D02*
Y190000D01*
Y150000D02*
Y174163D01*
X158000Y170100D02*
X193500D01*
X115000Y145000D02*
X120000D01*
X99200D02*
X115000D01*
X73600Y142075D02*
Y194500D01*
Y142075D02*
X73614D01*
X71418D02*
X73600D01*
X71418D02*
Y154582D01*
X201800Y137100D02*
X205063D01*
X193500Y145400D02*
Y148000D01*
X221874Y88026D02*
Y95500D01*
Y85900D02*
Y88026D01*
X226200Y81574D02*
Y83700D01*
Y69900D02*
Y81574D01*
X208300Y52000D02*
X226200Y69900D01*
X208000Y51700D02*
X208300Y52000D01*
X226200Y65200D02*
Y69900D01*
X199700Y52000D02*
X200000Y51700D01*
X199000Y52700D02*
X199700Y52000D01*
X208300D02*
X213000D01*
X199700D02*
X208300D01*
X190000D02*
X199700D01*
X110000Y135000D02*
X112300D01*
X47150Y142075D02*
Y142883D01*
X105100Y127800D02*
Y130100D01*
Y110038D02*
Y127800D01*
Y99900D02*
Y110038D01*
X103858Y185787D02*
Y198000D01*
X74100Y202400D02*
X99458D01*
X40200D02*
X74100D01*
X73700Y46000D02*
Y113925D01*
X135000Y145000D02*
X142100Y137900D01*
Y132100D02*
Y137900D01*
X135000Y125000D02*
X142100Y132100D01*
X90000Y120000D02*
X115000Y145000D01*
X213209Y159063D02*
X225500D01*
X208500Y154354D02*
X213209Y159063D01*
X157900Y97900D02*
X165000Y105000D01*
X157900Y92100D02*
Y97900D01*
Y92100D02*
X165000Y85000D01*
X86181Y133819D02*
Y154252D01*
Y133819D02*
X90000Y130000D01*
X47283Y193937D02*
X60000D01*
X43346Y190000D02*
X47283Y193937D01*
X122738Y105000D02*
X135000D01*
X122500Y105238D02*
X122738Y105000D01*
X110000Y105238D02*
X122500D01*
X99458Y202400D02*
X103858Y198000D01*
X31900Y194100D02*
X40200Y202400D01*
X31900Y170929D02*
Y194100D01*
Y170929D02*
X43150Y159679D01*
Y36850D02*
Y159679D01*
Y36850D02*
X57000Y23000D01*
X50386Y121602D02*
X54870D01*
X58700Y117772D01*
Y102300D02*
Y117772D01*
X50500Y94100D02*
X58700Y102300D01*
X50500Y66000D02*
Y94100D01*
Y66000D02*
X53000Y63500D01*
X62500D01*
X67000Y68000D01*
X52000Y108600D02*
X54642Y111242D01*
Y114942D01*
X53100Y116484D02*
X54642Y114942D01*
X50386Y116484D02*
X53100D01*
X60000Y181000D02*
Y186063D01*
Y181000D02*
X62000Y179000D01*
X46870Y129280D02*
X50386D01*
X45150Y131000D02*
X46870Y129280D01*
X45150Y131000D02*
Y144850D01*
X47200Y146900D01*
X50386Y124161D02*
X56539D01*
X62100Y118600D01*
Y94453D02*
Y118600D01*
X60547Y92900D02*
X62100Y94453D01*
X52500Y92900D02*
X60547D01*
X52500Y72500D02*
Y92900D01*
Y72500D02*
X57000Y68000D01*
X56000Y152916D02*
X69400Y139516D01*
X73614D01*
X150000Y71000D02*
X154000Y75000D01*
X150000Y41200D02*
Y71000D01*
X146000Y37200D02*
X150000Y41200D01*
X114800Y37200D02*
X146000D01*
X111000Y41000D02*
X114800Y37200D01*
X104937Y61000D02*
Y91463D01*
X90000Y106400D02*
X104937Y91463D01*
X90000Y106400D02*
Y120000D01*
X203500Y191000D02*
X225500D01*
X198500Y186000D02*
X203500Y191000D01*
X198500Y173646D02*
Y186000D01*
X203500Y173646D02*
Y180626D01*
X206000Y183126D01*
X225500D01*
X84400Y85600D02*
X90000Y80000D01*
X84400Y85600D02*
Y124400D01*
X90000Y130000D01*
X101000Y61000D02*
Y69000D01*
X90000Y80000D02*
X101000Y69000D01*
X206000Y162900D02*
X208500Y160400D01*
Y154354D02*
Y160400D01*
X165000Y85000D02*
X172900D01*
X186000Y71900D01*
Y56000D02*
Y71900D01*
Y56000D02*
X190000Y52000D01*
X213000D02*
X226200Y65200D01*
X221874Y85900D02*
X226200Y81574D01*
X203500Y149000D02*
Y154354D01*
Y149000D02*
X204700Y147800D01*
X216637D01*
X222500Y141937D01*
X226000D01*
X238000Y175000D02*
Y183063D01*
X112300Y135000D02*
X135000D01*
X105100Y127800D02*
X112300Y135000D01*
X105100Y110038D02*
X110000D01*
X223500Y114500D02*
X228900Y109100D01*
Y89700D02*
Y109100D01*
Y89700D02*
X234000Y84600D01*
X238000D01*
X243000Y89600D01*
Y148600D01*
X238000Y153600D02*
X243000Y148600D01*
X238000Y153600D02*
Y159063D01*
X238500Y91300D02*
Y133626D01*
X237700Y90500D02*
X238500Y91300D01*
X205063Y134000D02*
Y137100D01*
X193500Y145400D02*
X201800Y137100D01*
X50386Y119043D02*
X54600D01*
X56700Y116943D01*
Y105300D02*
Y116943D01*
X48100Y96700D02*
X56700Y105300D01*
X48100Y63619D02*
Y96700D01*
Y63619D02*
X53719Y58000D01*
X57000D01*
X50386Y126720D02*
X58880D01*
X65000Y120600D01*
Y92500D02*
Y120600D01*
X62547Y90047D02*
X65000Y92500D01*
X62547Y82453D02*
Y90047D01*
Y82453D02*
X67000Y78000D01*
X91000Y48100D02*
Y51000D01*
X82100Y39200D02*
X91000Y48100D01*
X54000Y39200D02*
X82100D01*
X46100Y47100D02*
X54000Y39200D01*
X46100Y47100D02*
Y111925D01*
X48100Y113925D01*
X50386D01*
X36653Y171747D02*
Y190000D01*
Y171747D02*
X51200Y157200D01*
Y144000D02*
Y157200D01*
X50083Y142883D02*
X51200Y144000D01*
X47150Y142883D02*
X50083D01*
X47150Y142075D02*
X50386D01*
X67000Y88000D02*
Y126839D01*
X62539Y131300D02*
X67000Y126839D01*
X55039Y131300D02*
X62539D01*
X54500Y131839D02*
X55039Y131300D01*
X50386Y131839D02*
X54500D01*
X66000Y160000D02*
X71418Y154582D01*
X60000Y160000D02*
X66000D01*
X50386Y139516D02*
X63682D01*
X68800Y134398D01*
X73614D01*
X57598D02*
X58500Y135300D01*
X50386Y134398D02*
X57598D01*
X73614Y113925D02*
X73700D01*
X70700Y43000D02*
X73700Y46000D01*
X62000Y43000D02*
X70700D01*
X57000Y48000D02*
X62000Y43000D01*
X81900Y142000D02*
Y170000D01*
X76857Y136957D02*
X81900Y142000D01*
X73614Y136957D02*
X76857D01*
X67000Y48000D02*
X71500Y52500D01*
Y99591D01*
X69300Y101791D02*
X71500Y99591D01*
X69300Y101791D02*
Y115000D01*
X70784Y116484D01*
X73614D01*
X60000Y167874D02*
X66000D01*
X68000Y169874D01*
Y196300D01*
X74100Y202400D01*
X221874Y74374D02*
Y77500D01*
X204000Y56500D02*
X221874Y74374D01*
X194000Y56500D02*
Y62600D01*
X201500Y70100D01*
Y77500D01*
Y91700D02*
Y95500D01*
Y91700D02*
X206700Y86500D01*
Y72400D02*
Y86500D01*
X199000Y64700D02*
X206700Y72400D01*
X199000Y52700D02*
Y64700D01*
X200000Y51700D02*
X208000D01*
X221874Y88026D02*
X226200Y83700D01*
X154000Y75000D02*
X165000D01*
X150000Y79000D02*
X154000Y75000D01*
X150000Y79000D02*
Y121000D01*
X146000Y125000D02*
X150000Y121000D01*
X135000Y125000D02*
X146000D01*
X98000Y61000D02*
X101000D01*
X91000Y54000D02*
X98000Y61000D01*
X91000Y51000D02*
Y54000D01*
X165000Y125000D02*
X170900D01*
X171900Y124000D01*
Y110800D02*
Y124000D01*
Y110800D02*
X187200Y95500D01*
X193626D01*
X165000Y135000D02*
X172000D01*
X174500Y132500D01*
Y111400D02*
Y132500D01*
Y111400D02*
X182000Y103900D01*
X210000D01*
X214000Y99900D01*
Y95500D02*
Y99900D01*
X146063Y179063D02*
Y190000D01*
X142000Y175000D02*
X146063Y179063D01*
X135000Y175000D02*
X142000D01*
X198500Y146000D02*
Y154354D01*
Y146000D02*
X201300Y143200D01*
X208837D01*
X212937Y139100D01*
Y134000D02*
Y139100D01*
X120000Y173937D02*
X124000D01*
X127500Y170437D01*
Y166000D02*
Y170437D01*
Y166000D02*
X128500Y165000D01*
X135000D01*
X165000Y155000D02*
X184800D01*
X198500Y168700D01*
Y173646D01*
X91000Y27000D02*
Y41000D01*
X77000Y13000D02*
X91000Y27000D01*
X127900Y147900D02*
X135000Y155000D01*
X127900Y142100D02*
Y147900D01*
Y142100D02*
X135000Y135000D01*
X148937Y145000D02*
X153937Y150000D01*
X135000Y145000D02*
X148937D01*
X153937Y174163D02*
X158000Y170100D01*
X193500D02*
Y173646D01*
X208500Y168000D02*
Y173646D01*
Y168000D02*
X209563Y166937D01*
X225500D01*
X165000Y145000D02*
X190500D01*
X193500Y148000D01*
Y154354D01*
X104937Y47063D02*
X111000Y41000D01*
X104937Y47063D02*
Y61000D01*
X94200Y150000D02*
X99200Y145000D01*
X94200Y150000D02*
Y194700D01*
X90000Y198900D02*
X94200Y194700D01*
X78000Y198900D02*
X90000D01*
X73600Y194500D02*
X78000Y198900D01*
X122738Y115000D02*
X135000D01*
X122500Y114762D02*
X122738Y115000D01*
X110000Y114762D02*
X122500D01*
X105100Y130100D02*
X110000Y135000D01*
X105100Y99900D02*
X110000Y95000D01*
X135000D01*
X212937Y130000D02*
Y134000D01*
X203137Y120200D02*
X212937Y130000D01*
X202000Y120200D02*
X203137D01*
X198000Y116200D02*
X202000Y120200D01*
X198000Y112000D02*
Y116200D01*
X196000Y110000D02*
X198000Y112000D01*
X188063Y110000D02*
X196000D01*
X184063Y114000D02*
X188063Y110000D01*
X184063Y114000D02*
Y134000D01*
X191937Y124963D02*
Y134000D01*
Y124963D02*
X193500Y123400D01*
Y114500D02*
Y123400D01*
X193626Y77500D02*
Y95500D01*
X135000Y155000D02*
Y165000D01*
X226000Y127900D02*
Y134063D01*
X218600Y120500D02*
X226000Y127900D01*
X218600Y106574D02*
Y120500D01*
Y106574D02*
X221874Y103300D01*
Y95500D02*
Y103300D01*
X171731Y101969D02*
X175500D01*
X168700Y105000D02*
X171731Y101969D01*
X165000Y105000D02*
X168700D01*
X165000D02*
Y115000D01*
X135000Y85000D02*
Y95000D01*
Y75000D02*
Y85000D01*
Y65000D02*
Y75000D01*
Y55000D02*
Y65000D01*
Y45000D02*
Y55000D01*
X50386Y139516D02*
Y142075D01*
X86181Y154252D02*
Y185787D01*
X82120Y130000D02*
X90000D01*
X81400Y129280D02*
X82120Y130000D01*
X73614Y129280D02*
X81400D01*
X73614Y131839D02*
Y134398D01*
Y129280D02*
Y131839D01*
Y119043D02*
Y121602D01*
Y126720D02*
Y129280D01*
Y121602D02*
Y124161D01*
Y126720D01*
X171731Y98031D02*
X175500D01*
X168700Y95000D02*
X171731Y98031D01*
X165000Y95000D02*
X168700D01*
X120000Y151693D02*
Y166063D01*
X232437Y141500D02*
X238500D01*
X232000Y141937D02*
X232437Y141500D01*
X226000Y141937D02*
X232000D01*
X225500Y166937D02*
X238000D01*
X235611Y190937D02*
X238000D01*
X227800Y183126D02*
X235611Y190937D01*
X225500Y183126D02*
X227800D01*
X103858Y170000D02*
Y185787D01*
Y154252D02*
Y170000D01*
X214000Y77500D02*
Y95500D01*
D25*
X120000Y145000D02*
D03*
Y151693D02*
D03*
D28*
X43346Y190000D02*
D03*
X36653D02*
D03*
D39*
X184063Y134000D02*
D03*
X191937D02*
D03*
X214000Y77500D02*
D03*
X221874D02*
D03*
X193626D02*
D03*
X201500D02*
D03*
X221874Y95500D02*
D03*
X214000D02*
D03*
X201500D02*
D03*
X193626D02*
D03*
X153937Y190000D02*
D03*
X146063D02*
D03*
X205063Y134000D02*
D03*
X212937D02*
D03*
D40*
X238000Y166937D02*
D03*
Y159063D02*
D03*
X225500D02*
D03*
Y166937D02*
D03*
X226000Y141937D02*
D03*
Y134063D02*
D03*
X60000Y160000D02*
D03*
Y167874D02*
D03*
Y186063D02*
D03*
Y193937D02*
D03*
X120000Y166063D02*
D03*
Y173937D02*
D03*
X225500Y183126D02*
D03*
Y191000D02*
D03*
X238000Y183063D02*
D03*
Y190937D02*
D03*
X238500Y141500D02*
D03*
Y133626D02*
D03*
D41*
X104937Y61000D02*
D03*
X101000D02*
D03*
D42*
X175500Y98031D02*
D03*
Y101969D02*
D03*
D43*
X103858Y154252D02*
D03*
Y185787D02*
D03*
X86181Y154252D02*
D03*
Y185787D02*
D03*
D44*
X73614Y113925D02*
D03*
Y116484D02*
D03*
Y119043D02*
D03*
Y121602D02*
D03*
Y124161D02*
D03*
Y126720D02*
D03*
Y129280D02*
D03*
Y131839D02*
D03*
Y134398D02*
D03*
Y136957D02*
D03*
Y139516D02*
D03*
Y142075D02*
D03*
X50386Y113925D02*
D03*
Y116484D02*
D03*
Y119043D02*
D03*
Y121602D02*
D03*
Y124161D02*
D03*
Y126720D02*
D03*
Y129280D02*
D03*
Y131839D02*
D03*
Y134398D02*
D03*
Y136957D02*
D03*
Y139516D02*
D03*
Y142075D02*
D03*
D45*
X110000Y114762D02*
D03*
Y110038D02*
D03*
Y105238D02*
D03*
D46*
X208500Y173646D02*
D03*
X203500D02*
D03*
X198500D02*
D03*
X193500D02*
D03*
X208500Y154354D02*
D03*
X203500D02*
D03*
X198500D02*
D03*
X193500D02*
D03*
D47*
X135000Y175000D02*
D03*
Y165000D02*
D03*
Y155000D02*
D03*
Y145000D02*
D03*
Y135000D02*
D03*
Y125000D02*
D03*
Y115000D02*
D03*
Y105000D02*
D03*
Y95000D02*
D03*
Y85000D02*
D03*
Y75000D02*
D03*
Y65000D02*
D03*
Y55000D02*
D03*
Y45000D02*
D03*
X165000D02*
D03*
Y55000D02*
D03*
Y65000D02*
D03*
Y75000D02*
D03*
Y85000D02*
D03*
Y95000D02*
D03*
Y105000D02*
D03*
Y115000D02*
D03*
Y125000D02*
D03*
Y135000D02*
D03*
Y145000D02*
D03*
Y155000D02*
D03*
Y165000D02*
D03*
Y175000D02*
D03*
D48*
X111000Y41000D02*
D03*
Y51000D02*
D03*
X91000Y41000D02*
D03*
Y51000D02*
D03*
D49*
X90000Y90000D02*
D03*
Y120000D02*
D03*
X57000Y88000D02*
D03*
D50*
X90000Y80000D02*
D03*
Y130000D02*
D03*
X67000Y48000D02*
D03*
X57000D02*
D03*
X67000Y58000D02*
D03*
X57000D02*
D03*
X67000Y68000D02*
D03*
X57000D02*
D03*
X67000Y78000D02*
D03*
X57000D02*
D03*
X67000Y88000D02*
D03*
X193500Y114500D02*
D03*
X203500D02*
D03*
X213500D02*
D03*
X194000Y56500D02*
D03*
D51*
X77000Y23000D02*
D03*
Y13000D02*
D03*
X67000Y23000D02*
D03*
Y13000D02*
D03*
X57000Y23000D02*
D03*
Y13000D02*
D03*
D52*
X223500Y114500D02*
D03*
X204000Y56500D02*
D03*
D53*
X52000Y108600D02*
D03*
X62000Y179000D02*
D03*
X47200Y146900D02*
D03*
X56000Y152916D02*
D03*
X206000Y162900D02*
D03*
X238000Y175000D02*
D03*
X237700Y90500D02*
D03*
X58500Y135300D02*
D03*
X81900Y170000D02*
D03*
M02*
