M48
;Layer_Color=9474304
;FILE_FORMAT=2:4
INCH,LZ
;TYPE=PLATED
T1F00S00C0.0276
T2F00S00C0.0280
T3F00S00C0.0315
T4F00S00C0.0320
T5F00S00C0.0354
T6F00S00C0.0400
T7F00S00C0.0591
%
T01
X0068Y0203
X0083
Y0213
X0068
T02
X01725Y01977
X005458Y032342
X007263Y030948
X01297Y03101
X01435Y03168
X01436Y03358
X01477Y0288
X013882Y025602
X01386Y0244
X0167Y025497
X0169Y02641
X01815Y02594
X01875Y0233
X01996Y02783
X03021Y0227
T03
X0049Y023
Y0235
Y024
T04
X0099Y0103
Y0113
Y0123
Y0133
Y0143
Y0153
Y0163
Y0173
Y0183
Y0193
Y0203
X0129
Y0193
Y0183
Y0173
Y0163
Y0153
Y0143
Y0133
Y0123
Y0113
Y0103
Y0213
Y0223
Y0233
X0099
Y0223
Y0213
T05
X028263Y010778
X029263
X030263
X029763Y011528
X028763
X0245Y0186
Y0196
X0049Y0285
Y0295
Y0317
Y0327
Y0349
Y0359
X009Y0328
Y0318
X0157Y0323
Y0333
Y0343
Y0353
Y0363
X0167
Y0353
Y0343
Y0333
Y0323
Y0313
X0157
Y0303
X0167
X028921Y026028
X029921
X030421Y025278
X029421
X028421
T06
X0106Y0059
X0116
X0126
Y0069
X0116
X0106
T07
X026842Y0154
Y01662
Y017841
X0307
Y01662
Y0154
X030858Y0299
Y03112
Y032341
X027
Y03112
Y0299
M30
