G04*
G04 #@! TF.GenerationSoftware,Altium Limited,Altium Designer,19.0.10 (269)*
G04*
G04 Layer_Color=8388736*
%FSLAX24Y24*%
%MOIN*%
G70*
G01*
G75*
%ADD12C,0.0100*%
%ADD24R,0.0394X0.0394*%
%ADD30O,0.0631X0.0257*%
G04:AMPARAMS|DCode=31|XSize=65mil|YSize=53mil|CornerRadius=15.3mil|HoleSize=0mil|Usage=FLASHONLY|Rotation=180.000|XOffset=0mil|YOffset=0mil|HoleType=Round|Shape=RoundedRectangle|*
%AMROUNDEDRECTD31*
21,1,0.0650,0.0225,0,0,180.0*
21,1,0.0345,0.0530,0,0,180.0*
1,1,0.0305,-0.0173,0.0113*
1,1,0.0305,0.0173,0.0113*
1,1,0.0305,0.0173,-0.0113*
1,1,0.0305,-0.0173,-0.0113*
%
%ADD31ROUNDEDRECTD31*%
%ADD32R,0.0651X0.0316*%
%ADD33R,0.0360X0.0750*%
%ADD34R,0.0434X0.0356*%
%ADD35R,0.0671X0.0631*%
%ADD36R,0.0277X0.0316*%
%ADD37R,0.0316X0.0277*%
%ADD38R,0.0631X0.0671*%
%ADD39C,0.0552*%
%ADD40R,0.0631X0.0631*%
%ADD41C,0.0631*%
%ADD42O,0.1159X0.0907*%
%ADD43R,0.0671X0.0671*%
%ADD44C,0.0671*%
%ADD45O,0.0867X0.0474*%
%ADD46O,0.0867X0.0474*%
%ADD47P,0.0888X8X202.5*%
%ADD48O,0.1120X0.0600*%
%ADD49C,0.0580*%
D12*
X3200Y37600D02*
X3200Y4600D01*
X3200Y37600D02*
X32600D01*
X32600Y4600D01*
X3200D02*
X32600D01*
D24*
X18065Y12300D02*
D03*
X18735D02*
D03*
X7569Y18300D02*
D03*
X6900D02*
D03*
X18031Y10800D02*
D03*
X18700D02*
D03*
D30*
X17523Y24985D02*
D03*
Y25241D02*
D03*
Y25497D02*
D03*
Y25753D02*
D03*
Y26009D02*
D03*
Y26265D02*
D03*
Y26520D02*
D03*
Y26776D02*
D03*
Y27032D02*
D03*
Y27288D02*
D03*
Y27544D02*
D03*
Y27800D02*
D03*
X15200Y24985D02*
D03*
Y25241D02*
D03*
Y25497D02*
D03*
Y25753D02*
D03*
Y26009D02*
D03*
Y26265D02*
D03*
Y26520D02*
D03*
Y26776D02*
D03*
Y27032D02*
D03*
Y27288D02*
D03*
Y27544D02*
D03*
Y27800D02*
D03*
D31*
X13075Y27786D02*
D03*
X9921D02*
D03*
X13075Y26018D02*
D03*
X9921D02*
D03*
D32*
X6337Y32300D02*
D03*
X7263Y32674D02*
D03*
Y31926D02*
D03*
D33*
X6927Y15600D02*
D03*
X7400D02*
D03*
X7880D02*
D03*
D34*
X17061Y20709D02*
D03*
Y21300D02*
D03*
X17061Y18200D02*
D03*
Y17609D02*
D03*
D35*
X31300Y23100D02*
D03*
Y22313D02*
D03*
X8400Y26406D02*
D03*
Y27194D02*
D03*
X20900Y17213D02*
D03*
Y18000D02*
D03*
X19118Y17213D02*
D03*
Y18000D02*
D03*
X31100Y8600D02*
D03*
Y7813D02*
D03*
X20900Y20313D02*
D03*
Y21100D02*
D03*
X19118Y20313D02*
D03*
Y21100D02*
D03*
D36*
X15200Y20906D02*
D03*
Y21300D02*
D03*
Y17806D02*
D03*
Y18200D02*
D03*
D37*
X5003Y20800D02*
D03*
X5397D02*
D03*
X15103Y15300D02*
D03*
X15497D02*
D03*
X29994Y8900D02*
D03*
X29600D02*
D03*
X28800D02*
D03*
X28406D02*
D03*
X29200Y8100D02*
D03*
X28806D02*
D03*
X29997Y23400D02*
D03*
X29603D02*
D03*
X28800D02*
D03*
X28406D02*
D03*
X29194Y22700D02*
D03*
X28800D02*
D03*
D38*
X4613Y18300D02*
D03*
X5400D02*
D03*
X15506Y10800D02*
D03*
X16294D02*
D03*
X15506Y12300D02*
D03*
X16294D02*
D03*
X7200Y23500D02*
D03*
X7987D02*
D03*
D39*
X6800Y20300D02*
D03*
Y21300D02*
D03*
X8300Y20300D02*
D03*
Y21300D02*
D03*
D40*
X28421Y25278D02*
D03*
X28263Y10778D02*
D03*
D41*
X30421Y25278D02*
D03*
X29421D02*
D03*
X28921Y26028D02*
D03*
X29921D02*
D03*
X30263Y10778D02*
D03*
X29263D02*
D03*
X28763Y11528D02*
D03*
X29763D02*
D03*
D42*
X30858Y32341D02*
D03*
Y31120D02*
D03*
Y29900D02*
D03*
X27000D02*
D03*
Y31120D02*
D03*
Y32341D02*
D03*
X30700Y17841D02*
D03*
Y16620D02*
D03*
Y15400D02*
D03*
X26842D02*
D03*
Y16620D02*
D03*
Y17841D02*
D03*
D43*
X15700Y36300D02*
D03*
X24500Y19600D02*
D03*
X4900Y28500D02*
D03*
Y31700D02*
D03*
X9000Y31800D02*
D03*
X4900Y34900D02*
D03*
D44*
X16700Y36300D02*
D03*
X15700Y35300D02*
D03*
X16700D02*
D03*
X15700Y34300D02*
D03*
X16700D02*
D03*
X15700Y33300D02*
D03*
X16700D02*
D03*
X15700Y32300D02*
D03*
X16700D02*
D03*
X15700Y31300D02*
D03*
X16700D02*
D03*
X15700Y30300D02*
D03*
X16700D02*
D03*
X24500Y18600D02*
D03*
X4900Y29500D02*
D03*
Y32700D02*
D03*
X9000Y32800D02*
D03*
X4900Y35900D02*
D03*
D45*
Y24000D02*
D03*
D46*
Y23500D02*
D03*
Y23000D02*
D03*
D47*
X12600Y6900D02*
D03*
Y5900D02*
D03*
X11600Y6900D02*
D03*
Y5900D02*
D03*
X10600Y6900D02*
D03*
Y5900D02*
D03*
D48*
X12900Y23300D02*
D03*
Y22300D02*
D03*
Y21300D02*
D03*
Y20300D02*
D03*
Y19300D02*
D03*
Y18300D02*
D03*
Y17300D02*
D03*
Y16300D02*
D03*
Y15300D02*
D03*
Y14300D02*
D03*
Y13300D02*
D03*
Y12300D02*
D03*
Y11300D02*
D03*
Y10300D02*
D03*
X9900D02*
D03*
Y11300D02*
D03*
Y12300D02*
D03*
Y13300D02*
D03*
Y14300D02*
D03*
Y15300D02*
D03*
Y16300D02*
D03*
Y17300D02*
D03*
Y18300D02*
D03*
Y19300D02*
D03*
Y20300D02*
D03*
Y21300D02*
D03*
Y22300D02*
D03*
Y23300D02*
D03*
D49*
X5458Y32342D02*
D03*
X16900Y26410D02*
D03*
X7263Y30948D02*
D03*
X30210Y22700D02*
D03*
X17250Y19770D02*
D03*
X18750Y23300D02*
D03*
X19960Y27830D02*
D03*
X18150Y25940D02*
D03*
X13860Y24400D02*
D03*
X12970Y31010D02*
D03*
X13882Y25602D02*
D03*
X14350Y31680D02*
D03*
X14770Y28800D02*
D03*
X14360Y33580D02*
D03*
X16700Y25497D02*
D03*
M02*
